<?xml version="1.0" encoding="UTF-8"?>
<svg xmlns="http://www.w3.org/2000/svg" viewBox="0 0 778.13 566.88">
  <defs>
    <style>
      .cls-1 {
        fill: #62b8d8;
      }

      .cls-1, .cls-2, .cls-3, .cls-4, .cls-5, .cls-6, .cls-7, .cls-8, .cls-9, .cls-10, .cls-11, .cls-12, .cls-13, .cls-14 {
        stroke: #000;
        stroke-miterlimit: 10;
      }

      .cls-1, .cls-2, .cls-5, .cls-6, .cls-7, .cls-8, .cls-11 {
        stroke-width: .25px;
      }

      .cls-15, .cls-5 {
        mix-blend-mode: multiply;
      }

      .cls-15, .cls-16 {
        fill: none;
      }

      .cls-3 {
        fill: #c76666;
      }

      .cls-3, .cls-12 {
        stroke-width: 5px;
      }

      .cls-4 {
        stroke-width: 3px;
      }

      .cls-4, .cls-6, .cls-14 {
        fill: #4c2920;
      }

      .cls-5, .cls-8 {
        fill: #cacaca;
      }

      .cls-7 {
        fill: #1d1d1b;
      }

      .cls-9, .cls-10, .cls-13, .cls-14 {
        stroke-width: 2px;
      }

      .cls-10 {
        fill: #c8d663;
      }

      .cls-16 {
        isolation: isolate;
      }

      .cls-11, .cls-13 {
        fill: #af9c6d;
      }

      .cls-12 {
        fill: #c66666;
      }
    </style>
  </defs>
  <g class="cls-16">
    <g id="Layer_2" data-name="Layer 2">
      <g id="Layer_1-2" data-name="Layer 1">
        <g>
          <g>
            <g>
              <g>
                <g>
                  <path class="cls-2" d="m771.15,369.89c-.28-1.52-1.94-3.15-2.81-4.24-1.98-2.46-3.43-5.43-4.99-8.17-5.91-10.32-12.81-19.91-18.59-30.29-5.6-10.07-11.87-20.14-18.38-29.66-3.39-4.96-6.53-10.24-10.33-14.88-2.98-3.64-5.32-10-9.39-12.35-.28-.16-.58-.07-.8.13-2.73-.16-6.36,3.69-8.28,4.91-6.38,4.06-13.39,7.35-19.61,11.61-.5.34-.86.84-.62,1.45.77,1.96,2.43,2.77,3.75,4.48,1.73,2.25,3.17,4.89,4.7,7.29,4.18,6.56,7.79,13.45,12.04,19.96,7.97,12.22,15.72,24.45,23.28,36.92,3.73,6.14,8.05,11.78,12.35,17.55,1.36,1.83,2.26,5.56,4.97,5.36,5.27-.39,11.1-3.18,16.34-4.37,4.83-1.09,9.69-1.95,14.56-2.82.65-.12,1.13-.84,1.07-1.31.47-.44.87-.97.76-1.57Z"/>
                  <path class="cls-6" d="m752.56,374.43c-3.19.74-6.3,1.72-9.51,2.38-2.66.55-3.93,2.48-5.88-.02-9.45-12.13-16.33-26.1-24.83-38.89-9.37-14.08-17.52-28.96-26.91-43-1.45-2.16-2.52-4.34-4.59-5.96-1.81-1.42,4.37-4.15,4.99-4.56,3.42-2.22,7.03-4.22,10.49-6.41,2.06-1.3,4.06-2.69,6.07-4.06-.5.34,1.29-.86,2.6-1.93,1.37.27.57-1.49,2.66,1.89,2.88,4.67,6.02,9.02,9.16,13.52,6.04,8.64,11.65,17.57,17.2,26.54,5.92,9.57,11.45,19.39,17.67,28.76,3.03,4.55,5.95,9.04,8.7,13.79,2.48,4.29,5.25,10.68,8.78,14.01-.51-.49-1.61.25-1.55.91-5.04.9-9.99,1.84-15.03,3.01Z"/>
                  <g>
                    <path class="cls-2" d="m738.53,359.21c-4.63-8.41-9.46-16.54-14.4-24.79-5.53-9.24-10.71-18.68-16.68-27.66-2.88-4.32-5.8-8.62-8.67-12.95-1.39-2.11-2.86-4.15-4.2-6.3-.66-1.03-1.35-2.04-2.04-3.05,0-.37-.18-.69-.56-.83,0,0,0-.01,0-.01-.45-1.35-1.32-2.14-2.57-2.45.28-.1.56-.41.42-.67-.24-.51-.21-.41-.69-.84-.33-.31-1.14.26-.88.67.73,1.17,1.46,2.34,2.2,3.51-6.43,2.04-12.63,4.66-19.08,6.68-8.15,2.55-16.45,4.51-24.64,6.93-16.49,4.87-33.83,7.89-50.68,11.36-15.51,3.19-31.01,6-46.62,8.56-15.48,2.54-30.72,6.58-45.96,10.09.18-.29.21-.64-.22-.62-.12,0-.25.01-.37.02-.06,0-.14.04-.22.08-.05-.07-.15-.04-.38.17-.64.62-.89,1.24-1.18,2.11-1.14,3.43-.86,7.71-.91,11.28-.19,15.57-1.58,31.27-2.83,46.79-1.43,17.73-2.3,35.34-4.71,52.99-1.92,14.1-2,28.51-4.2,42.54-.53.48-.77,1.16,0,1.42-.02.03-.04.06-.06.1.02.03.04.04.06.07-1.54,6.46-2.86,13.09-2.64,19.5,0,.24.28.5.5.54,7.33,1.59,15.33,1.45,22.81,2.16,10.9,1.03,22.05,1.46,33,1.88,10.7.42,21.43,1.38,32.14,1.44,4.42.03,8.86.01,13.28-.04.98,0,2.01.07,3.05.11.12.14.25.27.41.35,1.72.93,4.66-.2,6.64-.3,4.58-.21,9.41.37,14,.6,18.27.89,36.65,2.65,54.93,3.85,17.18,1.13,34.83,2.51,52.03,2,2.53-.07,10.51,1.17,12.8-.95,2.89-2.67,2.76-7.51,2.55-11.75.08-.12.14-.25.14-.39.26-9.57,2.5-19.16,3.43-28.69,1.05-10.81,2.57-21.56,3.65-32.35,2.17-21.59,4.89-43.24,6.43-64.88.44-6.22-6.2-13.07-9.09-18.32Zm-38.64,34.56c1.18,2.35.03,5.14-2.56,5.83-7.86,2.09-17.23.81-25.24.02-4.35-.43-8.68-1.03-13.02-1.58-4.35-.54-9.12-1.85-13.5-1.74-3.46.09-5.14-4.56-2.71-6.86,4.87-4.59,2.48-13.57,2.93-19.38.23-3.01.92-7.75,4.05-8.71.03-.41.13-.84.32-1.3,3.01-7.16,6.52-15.12,13.72-19,7.31-3.94,17.63-3.26,24.75.74,3.79,2.13,7.34,5.58,9.5,9.37,2.22,3.88,2.17,9.14,2.5,13.48.4,5.3-.87,10.56-1.1,15.86-.17,3.93-1.47,9.65.35,13.26Z"/>
                    <path class="cls-14" d="m745.27,382.19c-1.34,10-1.7,20.28-2.33,30.35-.63,10.08-2.02,20.04-3,30.08-1.84,18.96-5.07,37.79-7.31,56.69-.23.15-.41.37-.43.6-.09.81-.06,2-.03,3.34-.02.18-.04.36-.06.54-.02.17.01.3.08.4.05,3.55-.08,7.78-2.18,9.25,1.73-23.43,4.67-46.79,6.72-70.22,1.06-12.13,1.44-24.32,2.76-36.43,1.27-11.65,1.47-23.83,3.87-35.32,1.52,3.41,2.41,6.95,1.91,10.71Z"/>
                    <path class="cls-13" d="m733.94,354.89c-3.82-8.27-9.54-15.8-14.12-23.69-8.96-15.43-18.67-30.38-28.17-45.47-.08.04-.15.09-.23.12-15.6,4.81-31.08,9.97-46.8,14.57-15.86,4.65-32.69,7.35-48.88,10.65-16.31,3.33-32.71,5.72-49.03,8.9-7.58,1.48-14.96,3.74-22.63,4.73-3.71.48-7.31,1.06-10.93,1.99-.19.05-9.28,2.37-9.26,2.25-.06.58-.87,1.04-1.42.97-.78,5.77-.42,21.57-.5,22.78-1.06,15.83-2.09,31.68-3.01,47.53-.92,15.91-2.99,31.51-4.87,47.31-1.41,11.87-1.13,24.25-3.45,35.97-.04.18-.18.4-.37.6-1.04,8.15-2.17,18.31-.64,18.42,11.59.77,23.3,1.57,34.88,2.61,13.37,1.19,26.81,1.31,40.2,2.13,5.79.36,11.53.13,17.31.26.75.01,1.61.08,2.53.16,1.77-26.9.2-54.39,3.4-81.22.98-8.24,1.26-16.54,1.83-24.82.46-6.66,1.66-13.41,1.88-20.06.25-7.32,1.8-14.52,2.49-21.82.66-6.88,2.78-13.67,3.55-20.38-.04.39-.85.66-.84.14v-.69c.02-.37.81-.71.92-.25,1.38,5.84-.92,12.49-1.36,18.36-.54,7.35-2.25,14.72-2.47,22.06-.22,7.41-1.4,14.84-1.91,22.25-.51,7.45-.66,14.97-1.54,22.39-1.88,15.83-2.05,32.27-2.49,48.2-.2,7.28-.58,14.54-.72,21.82-.07,3.6-1.05,7.67-.47,11.21.09.33.13.66.12,1,.11.57.06,1.04-.13,1.42.2.1.33.3.33.62.93.07,1.88.14,2.81.16-.09-1.52.29-3.48.76-5.2-.06-.1-.09-.23-.06-.4,1.49-10.83,1.51-21.75,2.26-32.65.99-14.37,2.32-28.69,3.26-43.08,1.05-16.15,2.11-32.32,3.21-48.47.48-7,1.23-13.98,2.34-20.91.59-3.68.99-7.34,1.34-11.04.19-1.84.34-3.68.47-5.52-.02-.18.03-.33.09-.45-.01,0-.03,0-.05-.01-.38-.1-.21-.46.04-.67.12-.54,1.05-.93,1.28-.32,1.88,5.01-.01,12.47-.82,17.6-1.09,6.94-1.86,13.91-2.35,20.91-1.12,16.18-2.29,32.35-3.47,48.52-1.1,15.12-2.49,30.2-3.53,45.31-.62,8.89-.78,17.78-1.66,26.64.01.03.04.06.03.1-.02.19-.07.49-.14.88-.1.94-.2,1.87-.31,2.81-.02.16-.11.3-.22.44-.27,2.11-.37,4.4.39,5.37.75-.11,1.46-.25,2.06-.5.13-.05.25-.09.36-.11-.57-4.95.22-10.39.31-15.29.14-7.04.5-14.14.9-21.17.9-16.02,3.09-32.02,4.42-48.01,1.34-16.11,3.51-32.16,4.77-48.25.63-8.01,1.58-16,2.22-24.02.35-4.43.96-8.74,1.5-13.14.05-.39.92-4.52.95-4.48-.23-.29.44-.77.68-.52.12.12.23.24.34.36.1.1.11.19.07.33-2.72,7.53-1.75,17.57-2.23,25.48-.4,6.74-1,13.51-1.71,20.22-1.63,15.28-3.28,30.55-4.42,45.89-2.05,27.71-5.87,55.27-5.49,83.12,0,.1-.03.21-.07.32,1.02-.02,2.03,0,2.95.05,7.04.39,14.14.15,21.14,1.19,14.26,2.11,28.96,1.81,43.33,2.76,14.99.99,30.13,1.86,45.14,2.4,5.93.22,11.87-.92,17.8-.52,1.73-24.34,4.65-48.64,6.85-72.97,1.08-12.01,1.75-24.05,2.66-36.07.86-11.23.77-25.04,4.97-35.56-2.57-4.95-6.17-9.66-8.4-14.49Zm-34.05,38.88c1.18,2.35.03,5.14-2.56,5.83-7.86,2.09-17.23.81-25.24.02-4.35-.43-8.68-1.03-13.02-1.58-4.35-.54-9.12-1.85-13.5-1.74-3.46.09-5.14-4.56-2.71-6.86,4.87-4.59,2.48-13.57,2.93-19.38.23-3.01.92-7.75,4.05-8.71.03-.41.13-.84.32-1.3,3.01-7.16,6.52-15.12,13.72-19,7.31-3.94,17.63-3.26,24.75.74,3.79,2.13,7.34,5.58,9.5,9.37,2.22,3.88,2.17,9.14,2.5,13.48.4,5.3-.87,10.56-1.1,15.86-.17,3.93-1.47,9.65.35,13.26Z"/>
                  </g>
                  <g>
                    <g>
                      <path class="cls-9" d="m777,364.88c-7.56-9.03-12.51-20.36-19.82-29.66-7.78-9.89-14.07-20.95-20.9-31.5-7.4-11.42-15.46-22.38-22.85-33.81-1.68-2.6-4.01-7.11-6.75-8.8-.59-.36-1.99.3-2.42.97-.1-.37-.48-.55-.9-.47-3.22.66-5.88,2.42-8.92,3.64-4.4,1.76-9.05,2.93-13.58,4.29-9.86,2.97-19.67,5.73-29.74,8-20.46,4.62-42.29,6.54-63.25,5.7-9.81-.39-19.53-1.42-29.32-1.97-6.56-.37-10.77,4.52-15.98,7.84-7.72,4.91-14.97,10.58-22.61,15.67-3.81,2.54-7.52,5.23-11.35,7.74-3.38,2.22-7.5,5.34-11.52,6.7-.03,0-.05,0-.08,0-.31-.01-.66.1-.94.3-.16.04-.33.11-.49.14-.47.1-1.13,1.13-.31,1.08.02,0,.04,0,.06,0-.88,2.53-.76,7.16,2.08,7.53,12.1,1.57,24.43,3.41,36.66,4.27,12.81.89,25.35,4.36,38.14,5.47,10,.87,19.96,2.34,29.95,2.51.04.02.06.05.13.05.6.02.83.06,1.05-.02.05,0,.1,0,.14,0,.74,0,1.56-.89,1.55-1.48,17.4-8.98,33.69-20.7,50.36-30.95,8.75-5.38,17.97-10.4,26.41-16.24,4-2.77,7.99-5.56,11.99-8.33,3.41-2.38,7.36-3.98,10.3-6.93,2.55,1.69,5.56,7.63,6.81,9.52,2.32,3.48,4.99,6.71,7.24,10.23,5.4,8.45,10.87,16.95,16.65,25.14,5.43,7.69,10.1,16.02,15.21,23.95,5.35,8.29,10.85,16.53,16.09,24.9,0,.07,0,.13.06.19.5.49.78,1.46,1.09,2.11.19.4.83.23,1.11.05,1.33-.85,2.82-1.99,3.87-3.18.64-.72,1.43-1.29,2.12-1.97.45-.44.72-1.04,1.15-1.48.05.01.09.03.16.04.5.11,1.91-.56,1.34-1.23Z"/>
                      <path class="cls-14" d="m500.17,319.34c3.83-1.94,7.56-4.38,11.15-6.72,7.72-5.03,15.48-10.18,22.96-15.56,3.66-2.63,7.23-5.3,11.04-7.71,4.19-2.66,7.01-6.08,12.41-6.14,10.5-.11,21.43,1.69,31.98,2.13,19.4.8,39.75-1.36,58.71-5.33,9.43-1.98,18.75-4.45,28.06-6.94,3.86-1.03,7.64-2.65,11.49-3.79,1.62-.49,14.04-3.84,14.19-6.23-.04.56.35.74.8.7-3.25,2.92-8.15,5.52-11.13,7.67-5.98,4.31-12.27,8.13-18.37,12.27-11.76,7.97-24.61,14.22-36.36,22.18-10.89,7.39-22.69,14.24-34.19,20.65-1.15.64-3.31,1.13-4.84,2.11-.07-.05-.15-.1-.23-.15-.3-.26-.94.04-1.15.41-.39-.14-.99-.22-1.88-.14-4.53.38-9.7-.85-14.29-.93-9.78-.16-19.33-2.56-29.1-2.3-8.94.24-18.24-2.3-27.15-2.91-8.08-.56-16.2-2.49-24.23-3.18.05-.03.1-.05.15-.08Z"/>
                      <path class="cls-14" d="m771.8,367.62c-1.24,1.12-2.58,2.29-3.74,3.54-.18-.17-.34-.37-.49-.57.41-.28.69-.73.44-1.13-11.22-17.74-22.25-35.79-34.07-53.11-5.89-8.64-11.01-17.86-17.39-26.17-3.17-4.13-5.89-8.58-9.07-12.7-1.06-1.37-1.93-2.78-3.79-2.75-.51,0-1.12.57-1.13.99-3.37,3.02-7.78,5.01-11.48,7.57-4.13,2.87-8.27,5.74-12.41,8.61-8.34,5.77-17.6,10.68-26.26,16.02-8.64,5.32-17.28,10.61-25.54,16.5-7.2,5.12-15.36,9.09-22.72,14.11-.04,0-.08,0-.12,0,.01-.2-.04-.4-.24-.57-1.82-1.54-3.29-4.38-4.4-6.47-.81-1.52,3.71-3.11,4.44-3.49,5.37-2.78,10.59-6.31,15.69-9.57,10.53-6.72,21.44-13.26,32.27-19.52,11.19-6.47,21.98-13.52,32.85-20.51,4.83-3.1,9.43-6.67,13.93-10.24,1.98-1.57,5.02-3.2,6.58-5.41.42-.16.84-.13,1.58.93,3.13,4.48,6.09,9.1,9.1,13.67,7.06,10.71,14.74,20.98,21.71,31.75,6.34,9.78,12.27,19.75,19.48,28.92,6.53,8.3,10.86,18.49,17.44,26.71-1,.82-1.68,2-2.66,2.88Z"/>
                    </g>
                    <path class="cls-14" d="m550.46,332.81c-10.4-1.49-20.78-2.5-31.22-3.71-4.8-.55-9.68-1.32-14.44-2.11-3.51-.59-2.68-.77-5.18-.64-2.99.14-1.74-2.38-2.1-4.43-.23-1.29,5.75.41,6.3.5,5.03.79,10.08,1.18,15.15,1.65,9.03.85,18.08,2.4,27.11,3.02,9.74.67,19.4,1.69,29.14,2.36,6.8.47,14.56,1.91,21.39.72-.1.23-.19.47-.23.74-.26,1.77,2.44,5.49,4.42,7.53-16.86-.47-33.65-3.26-50.33-5.64Z"/>
                  </g>
                  <path class="cls-6" d="m700.35,397.55c-.17.01-.31-.02-.42-.09-.49,1-1.38,1.81-2.6,2.13-7.86,2.09-17.23.81-25.24.02-4.35-.43-8.68-1.03-13.02-1.58-4.35-.54-9.12-1.85-13.5-1.74-1.7.04-2.98-1.07-3.54-2.48-.23.53-.18,1.36-.2,2.22-.11,4.33,7.34,3.69,9.74,3.86,7.01.48,13.95,1.56,20.96,2.08,5.68.43,11.44.9,17.11,1.02,2.9.06,5.92.3,8.82.17,2.02-.09,3.03-4.24,1.88-5.62Z"/>
                </g>
                <g>
                  <polygon class="cls-14" points="94.85 479.25 74.69 477.86 72.92 503.61 731.81 537.72 733.48 513.4 94.85 479.25"/>
                  <path class="cls-2" d="m71.45,504.66l1.93-28.02,21.55,1.48,640.03,34.22-1.83,26.58-1.36-.07-660.31-34.19Zm4.56-25.58l-1.62,23.47,656.11,33.97,1.52-22.09-637.22-34.06-18.79-1.29Z"/>
                </g>
                <g>
                  <g>
                    <path class="cls-2" d="m182.9,68.85c-.97-2.86-4.3-3.05-6.92-3.78-5.45-1.49-10.76-3.35-16.17-4.93-.44-.12-1.23.24-1.23.77,0,1.16.01,2.34,0,3.5-1.46,9.64-5.77,20.11-9.48,28.88-2.06,4.85-5.2,9.3-7.57,14.03-2.59,5.18-5.1,10.38-8.01,15.4-5.55,9.6-10.52,19.24-16.66,28.56-6.31,9.58-13.14,19.14-20.34,28.08-7.36,9.14-15.29,17.76-22.57,26.97-7.39,9.36-14.88,18.72-22.91,27.53-13.88,15.25-31.58,26.69-44.8,42.61-.41.49-.18,1.17.48,1.2l.22.02c-.11.15-.22.3-.29.44-.1.2-.07.45.12.59,1.12.86,2.89,1.07,4.28.86,6.71-1.02,13.44-.73,20.17-.26,5.53.38,11.05.49,16.6.45,1.49,0,8.77-1.32,11.44-.87-.07.13-.14.24-.21.41-.42.96.83,1.15,1.43.73.28-.19.57-.36.86-.54.18-.08.34-.18.47-.3,2.81-1.77,5.74-3.25,8.41-5.34,5.09-3.99,9.41-8.87,14.04-13.35,8.47-8.21,15.52-17.35,22.79-26.62,15.49-19.72,30.11-40.6,42.53-62.4,12.46-21.87,22.63-45.25,28.69-69.72,1.45-5.83,2.41-11.77,3.21-17.71.46-3.41.76-6.83,1.05-10.26.05-.58.68-4.06.38-4.95Z"/>
                    <path class="cls-6" d="m175.53,104.63c-5.82,23.46-16.21,45.72-27.95,66.76-11.68,20.94-25.94,40.92-40.62,59.84-7.13,9.18-14.09,18.47-22.38,26.66-3.99,3.93-7.88,7.96-12.01,11.75-3.45,3.16-7.32,5.37-11.14,7.84h0c-.09-.06-.19-.09-.3-.1-1.31-.48-3.41,0-4.54.09-7.45.61-14.85.69-22.32.26-6.34-.36-12.42-.72-18.76-.28-2.11.15-8.54,2.01-5.9-1.89.78-1.15,1.88-1.59,2.2-2.56,1.72-1.85,3.46-3.66,5.27-5.44,4.32-4.24,8.92-8.19,13.4-12.25,8.09-7.37,16.52-14.17,23.82-22.38,15.74-17.7,30.77-36.42,45.62-54.86,7.18-8.91,13.81-18.62,20.1-28.18,6.18-9.4,11.16-18.99,16.61-28.8,5.03-9.07,9.89-18.4,14.49-27.69,2.29-4.62,3.69-9.83,4.97-14.8,1.16-4.49,2.59-8.63,3.22-13.09h0c.12-.11.23-.22.35-.34.18-.17.24-.55-.11-.55-.04,0-.08,0-.13,0,.05-.4.08-.81.11-1.22.36-.77.72-1.5.69-1.51,1.98.71,3.91,1.51,5.89,2.22,2.47.88,14.89,2.73,14.67,6.51-.69,11.44-2.51,22.89-5.26,34.01Z"/>
                  </g>
                  <g>
                    <path class="cls-9" d="m582.08,306.04c-1.73-.19-3.45-.42-5.19-.18-.37.05-.62-.16-.74-.42-6.9-.26-14.13-1.38-20.69-2.32-11.46-1.63-23-2.77-34.53-3.73-22.29-1.86-44.63-5.44-67-5.87-10.56-.2-21.11-.84-31.61-2.07-11.15-1.31-22.32-3.24-33.52-4.01-11.44-.79-22.88-1.58-34.32-2.36-5.6-.39-11.14-1.2-16.74-1.57-2.43-.15-4.86-.31-7.29-.45-1.59-.09-3.19-.18-4.78-.28-.5.12-.93.2-1.33.26-.15.42-.74.67-1.19.27-.58-.53-1.05-1.16-1.49-1.82-.09.11-.14.23-.15.36-3.17-3.83-6.33-7.68-9.47-11.55.03-.31-.14-.46-.4-.5-21.88-26.96-43.05-54.55-63.97-82.3-13.23-17.55-26.1-35.32-38.98-53.14-6.62-9.16-13.02-18.48-19.03-28.06-5.09-8.13-9.48-17.55-15.43-25.07-.89,1.38-1.8,2.75-2.71,4.13-2.79,5.57-7.59,17.58-8.17,18.83-3.89,8.42-8.5,16.56-13,24.67-9.42,16.97-17.72,34.75-28.01,51.21-9.66,15.45-20.08,30.83-31.11,45.32-6.24,8.19-12.87,16.05-19.85,23.59-5.67,6.13-12.05,11.94-17.15,18.54-.02.03-.02.04-.03.06-.03.04-.05.08-.07.12-.19.31-.19.56-.07.74.1,6.29,2.06,12.61,2.79,18.87,1.02,8.67,2.37,17.21,3.96,25.79,3.6,19.41,5.27,39.07,8.21,58.58,2.93,19.41,4.86,38.87,6.4,58.44.76,9.64,1.62,19.21,2.72,28.82.46,4.05.79,8.09,1.06,12.15.08,1.16,2.1,8.54,1.75,9.04-.54.78.02,1.15.68,1.1,0,.78-.05,1.57-.04,2.1.01.34.41.5.68.52.87.07,1.31.03,1.98-.54.82-.7,9.23.92,10.89.9,9.53-.08,19.76.81,29.19,2.16,9.94,1.42,20.33,1.22,30.36,1.92,11.57.8,23.15,1.28,34.72,2.04,23.57,1.54,47.07,3.41,70.56,5.57,9.61.89,19.2,2.18,28.83,2.64,2.4.11,3.92.06,4.94-.24.1,0,.22.01.3.02,1.21.12,2.42.03,3.63-.14,1.1-.02,2.22-.21,3.34-.46.91.02,1.79.08,2.66.03.46.08.91.16,1.34.23.18.15.43.18.7.11.54.08,1.05.15,1.47.17,5,.33,10.01.49,15.02.73,9.94.49,19.77,2.11,29.71,1.9,21.74-.46,43.52.86,65.21,2.3,22.29,1.47,44.55,4.03,66.87,4.89,21.1.82,42.31.75,63.36,1.34.42.02.85-.24,1.18-.56.65.25,1.81-.34,1.89-1.12,1.41-15.65,4.42-31.17,6.13-46.82,1.95-17.79,3.13-37.01,7.89-54.28,1.98-7.16,2.62-15.15,3.97-22.52,1.64-9.02,3.4-18.04,5.27-27.02,1.82-8.74,2.9-17.59,4.57-26.35,1.17-6.17,2.43-12.27,3.22-18.46.17-2.1.37-4.19.55-6.28Z"/>
                    <path class="cls-13" d="m88.07,481.58c-1.24-.19-3.59-.33-4.72.37-.4.25-.43-.5-.56-1.4.25-.41.26-.67.15-1.22-.76-3.79-1.5-7.37-1.76-11.25-.62-9.31-2.01-18.57-2.9-27.86-1.95-20.51-2.99-41.04-5.84-61.46-2.83-20.32-4.96-40.83-8.45-61.05-1.55-8.99-3.5-17.89-4.37-26.98-.43-4.41-1.23-8.85-1.98-13.22-.29-1.69-.68-6.84-1.7-9.06h0c.11-.08.22-.17.3-.27,2.65-3.43,5.66-6.7,8.76-9.91,0,0,.01.01.01.02.1.15.28.14.45.05-.52,1.06-.58,2.14-.1,3.26.49,2.4.66,4.95,1,7.38.72,5.14,1.48,10.26,2.09,15.42,1.09,9.24,1.74,18.55,3.35,27.72,3.57,20.33,6.35,40.78,9.16,61.22,2.76,20.08,5.3,40.06,7.2,60.24.89,9.43,1.39,18.87,2.33,28.28.64,6.39.1,14.04,1.9,20.26-1.45-.15-2.89-.32-4.33-.54Z"/>
                    <path class="cls-13" d="m282.17,492.37c-.24.93-.72,2.36-.49,3.45-1.63-.26-3.23-.55-4.72-.77-9.79-1.47-19.98-2.06-29.85-2.97-23.08-2.12-46.38-3.5-69.54-4.61-20.36-.99-40.63-2.65-60.94-4-7.24-.48-14.7-.52-22-1.14.06-.15.08-.3.04-.46-1.83-5.66-1.26-12.69-1.87-18.58-1.06-10.15-1.76-20.31-2.68-30.48-1.81-20.18-4.47-40.15-7.23-60.23-2.81-20.45-6.33-40.83-8.98-61.3-1.31-10.12-2.43-20.27-3.7-30.4-.85-6.87-.83-17.18-4.3-23.57,2.97-3.06,5.99-6.06,8.81-9.11,6.55-7.07,12.65-14.53,18.52-22.18,12.09-15.75,23.37-32.65,33.74-49.58,9.37-15.29,16.96-31.78,25.64-47.48,4.92-8.88,9.83-17.82,14.06-27.06,1.9-4.15,3.5-8.44,5.23-12.66.8-1.96,2.1-3.96,2.5-6.11.38.87.7,1.73.74,1.8,1.08,1.89,1.94,3.91,2.96,5.83,2.19,4.12,4.85,8.03,7.28,12,5.92,9.68,12.16,19.1,18.72,28.36,13.21,18.63,26.94,36.84,40.62,55.11,21.41,28.59,43.07,57.12,65.55,84.86-.31,1.14-.35,2.33-.38,3.52-.29,1.07-.62,2.16-.65,2.56-.15,1.89-.89,3.68-.8,5.59.01.3.26.32.52.23-.57,3.61-1.14,7.23-1.68,10.84-1.54,10.18-3.38,20.31-4.86,30.49-2.72,18.71-4.05,37.5-6.39,56.25-2.2,17.63-4.1,35.28-5.96,52.96-1.96,18.62-5.05,37.08-7.14,55.65-.25,1.06-.5,2.13-.78,3.19Z"/>
                    <path class="cls-14" d="m295.61,491.67c-1.15,2.57-1.06,4.07-4.02,4.57-.49.08-1,.13-1.5.17-.12-.05-.23-.1-.32-.17-.22-.18-.61-.02-.78.22-1.59.04-3.23-.07-4.87-.28.02-.03.04-.06.06-.09.06-.11.12-.22.17-.33.22-.43-.04-.69-.39-.77-.32-.99,0-2.7.07-3.55.02-.28.03-.58.05-.87.44-.19.85-.53.9-.95,2.14-18.85,5.18-37.6,7.36-56.48,2.13-18.44,4.04-36.88,6.34-55.3,2.44-19.51,4.13-39.09,6.7-58.61,1.48-11.19,3.49-22.28,4.79-33.51.25-2.22,1.55-6.96,1.04-9.84.03-.31.06-.62.08-.94.18-.63.41-1.34.55-1.98,3.18,3.91,6.37,7.8,9.58,11.67.13.16.31.22.51.24-.35,1.6-.72,3.19-1.11,4.78-1.14,4.74-1.94,9.57-2.86,14.36-1.84,9.57-2.57,19.27-3.83,28.92-2.5,19.2-4.57,38.35-6.32,57.65-1.66,18.24-3.94,36.65-6.58,54.78-2.23,15.26-2.84,30.74-5.3,45.96-.13.09-.24.21-.3.35Z"/>
                    <path class="cls-14" d="m307.18,466.81c-.44,4.35-1.05,8.67-1.5,13.01-.23,2.25-.2,4.73-.33,7.15-1,2.56-1.66,5.5-2.15,8.24-1.18.17-2.34.39-3.51.62-.91-.04-1.83-.08-2.74-.1-.32,0-.63.01-.93.04.16-.53.3-1.13.48-1.84.51-.12,1.05-.53,1.12-.99,2.5-14.95,3.2-30.17,5.1-45.21,2.33-18.38,4.75-36.75,6.94-55.15,2.17-18.23,3-36.62,5.88-54.74,1.53-9.63,2.18-19.37,3.58-29.01,1.16-8.01,3.68-16.3,4.28-24.45.38.19.83.32,1.42.37,2.62.21,5.24.39,7.86.59-.13.09-.22.21-.25.32-1.28,6.78-3.15,13.53-4.32,20.42-1.47,8.7-2.35,17.51-3.47,26.26-2.32,18.28-4.95,36.5-7.43,54.76-2.42,17.84-4.65,35.7-7.16,53.52-1.23,8.73-1.99,17.42-2.9,26.19Z"/>
                    <path class="cls-13" d="m562.2,405.24c-2.4,17.84-5.58,35.65-7.74,53.58-1.9,15.82-5.02,31.73-6.16,47.6-.27.22-.46.51-.49.79-21.79-.56-43.67-.51-65.48-1.35-23.12-.89-46.19-3.66-69.29-5.1-22.48-1.4-44.79-1.95-67.29-1.84-4.91.03-10.04-1.15-14.95-1.48-5.89-.4-11.79-.67-17.7-.9-1.97-.08-3.94-.19-5.92-.3.07-.18.13-.34.12-.5-.01-1.09-.04-2.19-.01-3.28.03-1.07.05-2.01-.16-2.95.82-4.95.52-10.44,1.05-15.24,1.05-9.66,1.91-19.34,2.74-29.02,1.61-18.71,5.11-37.43,7.67-56.03,2.5-18.18,5.32-36.3,7.67-54.51,1.25-9.66,2.36-19.35,3.82-28.98.58-3.8,1.23-7.58,1.76-11.38.42-3.03,1.75-5.92,1.58-8.96,2.73.2,5.45.43,8.16.71,11.76,1.2,23.52,2.05,35.32,2.86,22.98,1.58,45.67,5.77,68.72,6.72,11.56.48,22.86.9,34.38,2.16,11.51,1.25,23.05,2.59,34.59,3.41,12.44.88,24.84,2.2,37.21,3.78,9.16,1.17,19.22,3.05,28.52,2.69-4.52,32.72-13.73,64.84-18.12,97.5Z"/>
                  </g>
                  <g>
                    <path class="cls-9" d="m606.78,299.61c0-.27-.06-.45-.22-.6.02-.14.02-.28-.05-.43-1.22-2.55-3.84-4.13-5.84-6.03-3.5-3.33-7.34-6.46-11.03-9.6-8.09-6.89-16.31-13.91-23.43-21.81-15.37-17.04-31.05-33.52-45.46-51.42-13.99-17.38-26.82-35.64-38.94-54.39-5.91-9.15-10.94-18.68-16.28-28.14-2.4-4.26-4.27-8.85-6.32-13.28-.54-1.16-2.25-.7-3.8-.39-.78,0-1.57,0-2.35,0-.06-.04-.12-.07-.17-.12-.19-.19-.55-.09-.81.12-24.17-.22-48.64-3.54-72.65-5.76-13.36-1.23-26.5-3.63-39.84-5.16-14.14-1.62-28.16-3.22-42.12-6.1-12.16-2.5-24.03-6.15-35.93-9.65-12.34-3.63-24.86-6.83-36.95-11.28-12.48-4.59-24.51-9.6-36.58-15.19-4.81-2.23-9.67-4.4-14.45-6.67-1.61-.76-5.82-3.91-8.47-4.9-1.39-1.98-3-1.87-5.94-2.01-.4-.02-.85.25-1,.63-.13.3-.23.6-.35.9-.09.1-.14.21-.12.31-.05.13-.1.25-.14.37-1.82,1.46-4.54,12.6-4.99,14.02-1.53,4.94-3.83,9.75-6.19,14.35-5.42,10.53-10.02,21.69-14.82,32.53-4.57,10.31-10.76,20.1-16.25,29.94-6.2,11.12-12.81,21.75-20.65,31.79-14.71,18.84-29.82,37.38-46.73,54.33-8.94,8.97-18.06,17.75-27.29,26.42-4.04,3.79-7.84,7.75-11.66,11.77-2.37,2.5-5.74,4.6-7.71,7.41-.2.29-.34.68-.13,1.01,1.61,2.65,3.61,5.78,6.55,7.04.36.15.81.03,1.18-.22.54.19,1.47-.11,1.82-.41,6.6-5.76,14.15-10.53,20.84-16.23,8.36-7.12,16.66-15.31,23.84-23.64,15.37-17.83,31.59-34.9,45.85-53.7,14.02-18.5,27.12-37.78,37.85-58.34,5.63-10.79,11.62-21.62,16.54-32.74,1.85-4.19,3.85-8.16,5.03-12.62.68-2.56,2.52-5.62,2.67-8.45,1.22,2.71,2.29,5.42,2.71,6.19,2.7,4.98,5.36,10.03,8.16,14.95,5.59,9.82,11.89,19.23,17.19,29.23,10.59,20,24.03,39.32,37.74,57.31,14.95,19.62,29.26,39.72,44.24,59.33,7.3,9.56,15.49,18.36,22.72,27.98,5.84,7.76,12.48,15.76,19.88,22.08.29.24.74.13,1.08-.12.56.87,1.27,1.79,1.67,1.67,0,.1-.02.19-.03.29,0,0,.01,0,.02,0-.03.18.04.31.15.4,0,.27.22.4.47.44,9.79,1.42,20.02.17,29.9.63,12.51.58,24.94,1.9,37.44,2.38,24.87.96,49.48,5.03,74.28,6.75,23.94,1.66,47.8,4.22,71.76,5.79,23.79,1.56,47.93,4.08,71.77,3.1.78-.03,1.75-.6,1.66-1.51-.37-3.67.75-6.95.71-10.52Z"/>
                    <path class="cls-4" d="m170.89,54.23c5.31,2.62,10.71,5.01,16.01,7.68,11.78,5.92,23.95,11.16,36.46,15.35,24.64,8.26,49.85,16.38,75.32,21.71,12.33,2.58,24.82,4.05,37.33,5.46,13.32,1.49,26.46,4.23,39.81,5.25,13.06.99,26.09,2.41,39.15,3.38,13.31.99,27.08,3.58,40.43,2.18.14-.02.28-.08.41-.17,3.84,1.26,4.99,8.04,6.56,11.28,4.66,9.62,10.23,19.04,15.98,28.05,12.47,19.53,25.82,38.58,40.42,56.56,13.47,16.58,27.49,32.46,42.25,47.91,7.19,7.52,14.46,14.85,22.46,21.53,3.73,3.12,7.4,6.25,10.93,9.6,2.85,2.71,7.29,5,9.62,8.39-.18,0-.36,0-.55.02,0-.25-.16-.47-.54-.57-9.06-2.52-20.08-.89-29.48-1.53-12.28-.84-24.61-2.05-36.9-2.64-25.5-1.23-50.73-3.48-76.14-5.82-25.14-2.32-50.28-4.82-75.5-6.05-12.77-.62-25.44-1.25-38.13-2.8-5.72-.7-11.44-1.1-17.18-1.58-2.04-.17-3.7-.42-5.7-.18-.2.02-.42.23-.62.43.01-.12.03-.22.04-.34,0,0-.02,0-.03.01.04-.24-.03-.42-.17-.52-.01-.01-.01-.03-.03-.05-34.99-34.54-63.98-73.38-89.95-115.15-12.55-20.19-26.43-39.6-38.88-59.89-6.56-10.67-14.08-20.64-19.22-32.16-2.87-6.41-5.97-12.71-9.01-19.04,1.72,1.28,3.65,3.11,4.85,3.7Z"/>
                    <path class="cls-14" d="m318.78,290.31c-.5-.24-.99-.51-1.36-.96-.03-.1-.08-.19-.18-.28-.02-.02-.03-.03-.05-.05-.09-.15-.17-.31-.23-.5-.03-.09-.1-.16-.2-.15-.1,0-.17.02-.26.03-8.19-7.25-15.34-16.59-21.85-25.27-7.27-9.68-15.56-18.61-23-28.18-15.68-20.14-31.04-40.55-45.96-61.26-13.3-18.45-25.39-37.44-36.35-57.33-5.4-9.78-12.06-18.94-16.94-28.99-2.53-5.22-6.45-9.7-8.95-14.97-.52-1.11-2.55-5.84-4.09-5.9-.22,0-.49.37-.17.4.96.09,2.4,2.75,3.72,5.61-.35,3.05-2.78,6.45-3.84,9.28-1.86,4.92-4.14,9.58-6.33,14.36-4.74,10.39-10.38,20.7-15.76,30.79-11.22,21.02-24.65,40.73-39.11,59.7-13.31,17.45-28.58,33.25-42.91,49.8-7.65,8.83-16.32,17.41-25.14,25.06-6.2,5.38-13.22,9.82-19.5,15.05-.33.04-.68.18-.98.48-.16.16-.29.31-.41.46-2.44-1.14-6.56-5.06-3.65-7.12,4.33-3.06,8-8.18,11.68-12.01,9.1-9.49,19.1-18.2,28.45-27.46,17.17-17.03,33.2-35.36,47.86-54.59,14.85-19.47,26.77-40.45,38.23-62.07,5.95-11.22,10.44-23.2,15.65-34.76,2.15-4.79,4.61-9.29,6.42-14.26,1.32-3.63,2.12-7.4,3.23-11.08.11-.06.2-.15.22-.25.04-.27.1-.64.18-1.05.36-1.13.78-2.24,1.25-3.34.53-.76,1.24-1.27,2.2-1.19,3.44.32,4.51,5.33,5.7,7.81,2.99,6.26,5.66,12.68,8.76,18.88,5.61,11.22,13.29,21.09,19.59,31.85,12.03,20.53,26.62,39.57,39.06,59.84,24.85,40.49,53.84,77.83,87.49,111.26-.46,4.22-1.94,8.15-2.46,12.34Z"/>
                    <path class="cls-14" d="m536.18,306.7c-24.86-1.6-49.61-4.22-74.45-5.93-24.81-1.71-49.43-5.7-74.3-6.71-5.69-.23-62.76-3.74-66.9-2.51.44-4.29,1.93-8.32,2.58-12.53,1.1-.11,2.12-.69,3.42-.53,5.67.71,11.34,1.29,17.01,2,12.66,1.58,25.2,2.41,37.93,3.08,25.25,1.33,50.35,3.94,75.54,6.09,24.61,2.09,48.98,4.97,73.67,5.99,11.62.48,23.17,2.31,34.78,2.54,5.47.11,10.91.66,16.37.78,5.87.13,12.91-.59,18.71.78-.02.34.2.63.76.55,3.28-.49,2.41,5.74,2.31,9.3-22.42.8-45.08-1.47-67.45-2.9Z"/>
                  </g>
                  <path class="cls-2" d="m287.51,260.79c-36.83-2.55-73.6-3.79-110.53-3.96-19.65-.1-39.27-1.73-58.91-2.27-8.06-.22-16.25.86-24.25,1.61-4.84.45-9.68,1.13-14.53,1.34-2.38.1-10.17,1.21-11.83-.3-.34-.31-1.19.28-.91.69,1.88,2.76,10.9,1.8,13.92,1.79,9.71-.04,19.54-1.64,29.24-2.17,20.11-1.11,40.56,1.61,60.69,2.08,20.54.48,41.07.06,61.61.79,9.69.34,19.36,1.06,29.04,1.67,8.55.54,17.58,1.68,26.02.3.72-.12,1.62-1.47.45-1.55Z"/>
                  <g>
                    <path class="cls-2" d="m407.69,144.83c-.64-2.61-2.03-4.83-3.45-7.09-2.14-3.41-3.02-7.7-4.55-11.43-.36-.88-2.24.15-1.98.99.77,2.44,1.54,4.9,2.49,7.27,1.36,3.4,3.7,6.5,4.87,9.96-3.89.18-9.17-1.64-12.62-2.21-5.28-.88-10.44-1.76-15.78-2.16-2.88-.22-5.49-.72-8.22-1.57-5.49-1.72-3.96-4.58-6.15-8.16-3-4.91-5.86-9.95-9.71-14.24-.22-.24-.81.1-.61.38,3.53,4.88,7,10.89,8.91,16.72-1.01-1.74-2.59-3.3-3.65-4.92-2.05-3.12-1.93-6.93-5.48-8.94-.34-.2-1.21.24-.89.68,1.79,2.46,2.76,5.11,3.94,7.91,1,2.37,3.46,4.65,4.42,7.16-9.82-.55-19.56-5.8-29.44-5.89-3.24-6.44-7.47-13.05-12.01-18.62-.53-.65-2,.22-1.55.97,3.42,5.79,7.46,11.31,10.74,17.18-3.03-.75-5.97-2.05-8.98-2.36-4.3-.45-9.81-2.23-14.04-3.32-2.57-.66-5.68-2.11-8.33-2.3-2.36-.17-4.66-3.81-6.38-6.98-.41-.85-.85-1.65-1.24-2.34-.33-.63-.62-1.19-.87-1.59-.48-.8-2.06.22-1.67,1.04,1.41,2.96,6.01,8.99.33,8.45-4.07-.39-8.63-1.47-12.55-2.62-4.6-1.35-9.94-1.71-13.27-5.49-3.06-3.47-5.8-7.72-8.26-11.75-.26-.54-.55-1.05-.91-1.5-.5-.64-1.95.27-1.47.92,1.56,2.75,3.82,6.72,5.05,10.1-2.07-.78-3.9-1.94-6.33-2.15-5.63-.48-12.22-3.05-17.66-4.62-2.27-.65-4.82-.77-7.15-1.15-4.6-.75-6.37-3.46-8.57-7.1-2.24-3.7-4.96-7.62-7.92-10.8-.27-.3-1.01.19-.9.56,1.55,5.18,3.35,9.46,5.9,13.94-3.12-.67-6.23-1.75-9.41-2.01-3.71-.3-7.77-.25-11.39-1.2-.59-.15-1.62.83-.81,1.12,2.24.79,4.67.88,6.99,1.22,5.55.81,11,2.61,16.48,3.26.59.07,1.64-.61,1.58-1.3,1.22,1.71,2.53,3,3.92,3.22,7.68,1.21,15.03,3.3,22.61,4.94,2.81.61,5.69,1.37,8.51,2,2,.45,3.28,1.9,5.31,2.25.51.09,1.34-.49,1.31-1.07,1.67,2.16,3.51,4.06,5.67,5.34,3.91,2.3,11.42,3.96,15.98,4.28,2.46.17,9.07,3.39,11.38,1.25.62-.57.85-1.36.85-2.25.78,1.05,1.57,2.1,2.42,3.12.71.86,6.58,1.84,7.8,2.14,5.08,1.24,10.04,2.34,15.03,3.87,4.15,1.27,8.29,2.57,12.6,3.11.36.04.79-.15,1.08-.45,5.05,1.14,10.06,2.61,15.17,3.6,4.98.96,10.35,3.15,15.46,2.95.62-.03,1.44-.46,1.52-1.14,1.67,3.64,5.77,4.65,9.49,5.41,5.98,1.22,12.19,1.47,18.23,2.51,5.04.87,11.83,3.55,16.89,2.31.56-.14,1.44-.67,1.26-1.39Zm-198.11-54.58c-4.11-8.13-1.71-3.76-.13-1.54,1.14,1.6,2.65,5.03,4.4,8.02-1.51-2.1-3.05-4.07-4.27-6.48Z"/>
                    <path class="cls-8" d="m449.49,143.19c-2.65-4.98-5.25-9.39-6.19-15.07-.18-1.11-2.04-.15-1.98.77,0,.11.01.22.02.33,0,.05.03.07.04.11.29,3.13,1.18,5.84,2.46,8.71.71,1.59,4.33,7.34,4.81,7.54-5.22-2.1-12.93-1.03-18.5-1.69-5.63-.65-17.19,1.19-19.84-4.94-1.44-3.34-3.56-6.43-5-9.81-.48-1.14-.83-2.33-1.8-3.14-.15-.12-.53.14-.39.3,3.86,4.47,2.44,17.97,10.06,18.56,12.11.92,24.22,1.46,36.27,2.79.48.06,1.29-.42,1.29-.97,0-1.5-.45-2.01-1.23-3.49Z"/>
                    <path class="cls-2" d="m473.27,147.39c-5.43-1.31-11.58-1.12-17.13-.9-2.38.1-3.49-4.73-4.22-6.29-1.67-3.55-3.81-6.83-5.37-10.44-.05-.12-.31.02-.27.14,1.96,5.94,4.86,11.51,6.44,17.57.05.19.17.35.36.39,2.81.75,5.96.38,8.85.47,3.61.09,7.13.76,10.74.47.53-.04,1.49-1.18.6-1.4Z"/>
                    <path class="cls-2" d="m495.02,179.81c-5.1-.37-15.92,1.03-19.08-3.61-2-2.94-4.53-5.43-6.5-8.42-1.14-1.72-2.35-3.66-4.17-4.7-.47-.27-1.18.11-1.27.64-.59,3.72,4.26,10.14,6.03,13.33,1.35,2.44-4.09.99-5.5.89-3.15-.22-7.2-1.75-10.41-1.4-4.88.53-9.21,1.19-11.59-4.1-1.7-3.79-4.53-7.62-7.12-10.85-3.49-4.36-6.94-10.89-11.48-14.14-.4-.29-1.26.37-.82.76,2.23,1.91,3.96,4.65,5.62,7.44-.42.19-.77.64-.58,1.04,3.22,6.52,6.39,13.12,9.59,19.66-2.71-.14-5.47-.63-8.13-1.02-2.91-.42-11.34-.34-12.62-3.8-2.18-5.86-5.87-13.17-10.49-17.43-.43-.39-1.54.27-1.34.83,1.93,5.58,4.63,10.84,7.02,16.24,1.18,2.66,2.26,3.37-2.24,2.23-3.53-.89-7.35-1.08-10.97-1.33-3.81-.26-7.64-1.04-11.4-1.71-3.52-.63-8.99-.62-11.03-3.98-3.35-5.53-6.59-10.87-10.31-16.17-.54-.77-2.23.11-1.97.99,1.46,5,3.98,9.49,6.11,14.21-3.85-.51-7.7-1.24-11.55-1.7-3.95-.47-19.93.27-21.68-3.74-1.85-4.25-5.97-8.29-8.51-12.24-1.84-2.85-3.89-5.52-5.88-8.25-1.31-3.2-2.53-6.46-4-9.45-.3-.62-1.54.15-1.26.78.33.74.64,1.48.95,2.23-.07-.12-.14-.23-.21-.35-.15-.26-.7.08-.55.35.89,1.71,1.85,3.37,2.83,5.01,1.13,2.82,2.25,5.65,3.45,8.44,2.11,4.9,5.24,9.2,7.53,14.02-5.22-.63-11.3-2.85-15.85-4.77-5.18-2.18-9.18-10.55-12.84-14.7-.52-.59-1.94.05-1.71.86.98,3.43,3.93,6.45,5.22,9.66-7.55-1.38-15.21-2.43-22.69-4.04-4.82-1.04-7.76-2.39-10.45-6.69-1.92-3.06-3.01-6.78-5.29-9.57-.44-.54-1.31-.19-1.65.3-2.13,3.08,2.54,9.16,4.2,12.85-3.8-.38-7.42-1.73-11.17-2.46-4.54-.9-8.87-2.13-13.07-4.09-4.46-2.08-7.11-3.91-10.11-7.84-1.78-2.33-2.28-5.35-4.37-7.39-.68-.66-1.93.43-1.88,1.17.16,2.22.54,4.5.95,6.7.45,2.38-4.5.09-5.23-.12-4.5-1.29-9.37-1.8-14.04-1.91-.41-.05-.85.4-.87.75-.04.2.06.36.39.37,4.5.53,9.06,1.08,13.44,2.27,2.52.69,4.79,1.88,7.4,1.54.54-.07.98-.5,1.12-1.02.2-.75.23-1.56.17-2.37.95,1.66,2.43,3.17,3.36,4.8,1.66,2.93,5.53,3.7,8.4,4.79,8.08,3.1,17.92,6.76,26.68,6.76.66,0,1.6-.56,1.46-1.33-.44-2.62-4.53-7.61-5.29-11.03,2.12,2.65,3.53,6.94,5.05,9.57,2.29,3.97,2.51,3.1,6.34,4.75,3.66,1.59,7.83,1.69,11.74,2.3,5.49.84,10.88,1.97,16.33,3.04.67.13,1.8-.4,1.64-1.24-.09-.46-.22-.93-.39-1.39.18.25.36.51.55.75,1.08,1.41,2.78,5.13,4.88,5.4,6.43.8,12.23,4.93,18.84,5.21.7.03,1.57-.66,1.26-1.4-.14-.34-.31-.65-.45-.98,1.04,1.42,2.15,2.63,3.3,3.35,4.19,2.63,12.1,1.22,16.94,2.04,5.85.99,12.13,1.69,18.02,2.27.81.09,1.8-.78,1.46-1.61-.89-2.11-1.9-4.16-2.91-6.21,1.18,1.76,2.32,3.55,3.35,5.44,1.8,3.3,2.72,5.04,6.65,5.67,5.96.95,11.77,2.46,17.8,3.04,5.24.51,11.14,2.8,16.33,2.17.47-.06,1.02-.45,1.19-.9.16-.42.22-.81.25-1.2.32.49.68.95,1.12,1.37,1.48,1.39,7.58,1.15,9.54,1.37,4.06.46,8.26,1.39,12.36,1.28.63-.02,1.6-.62,1.23-1.37-2.12-4.24-4.13-8.78-6.33-13.15,1.53,2.05,2.71,4.4,4.09,6.54,1.34,2.07,2.22,5.58,4.02,7.24,3.46,3.2,9.24,1.02,13.58,1.45,5.28.5,10.69,2.1,16,2.04.56,0,1.29-.34,1.48-.92.78-2.45-1.29-4.57-2.47-6.65-1.34-2.34-2.45-4.79-3.82-7.11-1.45-2.35-1.32-2.14.39.63,1.38,1.7,2.58,3.52,3.89,5.28,1.6,2.15,3.66,6.76,6.12,7.79,4.89,2.04,11.91,1.41,17.11,1.75.98.07,2.13-1.65.76-1.76Zm-86.26-20.42c1.78,2.79,3.26,6.04,4.5,8.6.2.41.38.84.55,1.26-1.92-2.82-3.58-6.39-5.05-9.86Z"/>
                    <path class="cls-2" d="m512.5,204.25c-5.79-.95-9.85-.14-14.56-5.01-2.02-2.09-4.9-7.15-8.1-7.77-.65-.13-1.71.47-1.35,1.24,1.59,3.44,4.33,6.34,5.66,9.92-4.96-1.15-10.64-1.04-15.55-.99-4.66.04-8.06-1.44-10.09-5.73-.9-1.9-3.49-4.05-4.84-5.72-2.23-2.76-4.45-5.51-6.68-8.27-.37-.46-1.4.16-1.07.67,1.01,1.57,2.02,3.12,3.04,4.67-.22.19-.38.4-.4.63-.21,2.63,2.22,6.13,3.44,8.31.78,1.39,1.03,3.53,2.1,4.62-.12-.13-7.38-.88-9.05-1.01-7.58-.58-15.19-.63-22.78-1.07-7.48-.44-12.7-12.87-16.91-17.86-.16-.19-.46-.13-.68.02-.08-.14-.16-.28-.23-.41-.48-.87-2.27.24-1.81,1.13,1.43,2.75,2.84,5.52,4.25,8.29.29.56,5.28,9.34,3.62,9.36-6.15.1-12.92-1.38-18.86-2.61-6.63-1.38-15.75.05-20.3-6.13-3.12-4.24-5.15-9.4-7.88-13.9-.5-.82-2.02.13-1.88.94.95,5.47,5.45,9.76,6.97,14.97-3.47-.26-7.26-1.5-10.63-2.05-5.74-.93-11.89-1.62-15.54-6.72-3.08-4.31-4.66-12.6-9.31-15.59-.54-.35-1.85.25-1.59.99,1.96,5.63,5.4,10.87,8.29,16.07,2.38,4.28-4.26,1.38-6.42.94-3.89-.8-7.72-1.75-11.58-2.69-7.03-1.71-14.34-3.3-21.19-5.56-7.82-2.58-9.83-10.6-14.58-16.62-.48-.61-1.65.16-1.37.85,1.3,3.15,3.74,7.36,4.47,11.03-7.73-.85-15.64-2.15-23.27-3.49-4.55-.8-6.81-6.63-9.2-10.23-2.66-4.02-6.05-7.4-9.29-10.94-.48-.53-1.61.14-1.3.81,2.9,6.38,5.2,13.01,8.98,18.87-4.44-.69-8.81-1.78-13.36-2.07-6.18-.4-12.35-2.44-18.47-2.65-.43-.05-.89.42-.92.78-.04.21.07.39.41.4,5.21.54,10.49,2.37,15.77,3.04,6.21.79,12.43,2.29,18.62,2.9.67.07,2.1-.88,1.51-1.68-3.48-4.7-5.86-9.95-8.45-15.13,2.25,2.56,4.36,5.2,6.18,8.16,1.97,3.21,3.17,8.01,6.87,9.26,4.49,1.52,10.18,1,14.82,2.09,3.94.91,7.95,1.51,11.97,1.94.74.08,1.52-.61,1.48-1.35,0-.2-.06-.41-.08-.62.58.85,1.19,1.67,1.88,2.39,4.27,4.47,11.02,4.8,16.65,6.53,6.5,2.01,13.12,3.76,19.79,5.16,3.43.72,9.13,3.55,12.61,2.16.51-.2.88-.62.88-1.18,0-.21-.04-.41-.06-.61.48.44.98.86,1.57,1.21,2.93,1.79,6.99,2.25,10.3,2.83,4.71.83,9.64,2.65,14.44,2.5.51-.01,1.22-.37,1.33-.92,2.57,2.63,6.28,3.03,10.04,3.7,9.85,1.77,21.72,4.85,31.83,3.96.45-.04.98-.43,1.13-.86.79-2.12-.48-3.82-1.5-5.69-.51-.93-1.05-1.86-1.57-2.79.68,1.14,1.39,2.27,2.13,3.37,2.78,4.14,3.31,4.98,8.51,5.81,6.54,1.04,13.7.67,20.32.95,4.4.19,9.61,2.46,13.91,1.39.66-.16,1.15-.54,1.33-1.21.43-1.57-.29-3.46-1.39-5.41.21.27.41.55.63.82,2.81,3.53,2.05,5.58,6.92,6.11,7.1.76,15.2-.3,22.08,1.62.69.2,1.96-.46,1.75-1.33-.9-3.75-3.2-6.39-5.19-9.39,3.13,2.61,6.14,8.09,8.41,10.01,2.34,1.98,8.89,1.18,11.75,1.3.78.03,1.74-1.24.62-1.43Z"/>
                    <path class="cls-2" d="m529.25,227.76c-3.22-1.52-8.89.24-12.15.53-4.45.39-12.59,2.89-15.93-1.32-2.74-3.45-4.5-7.55-7.37-10.99-.6-.71-2.16.06-1.96.98.87,3.82,2.89,8.56,5.43,11.57,3.29,3.88-12.51,1.86-14.63,1.56-4.84-.66-13.44.93-17.63-1.42-2.42-1.36-4.4-6.04-5.67-8.49-1.58-3.07-4.79-4.04-5.99-7.58-.16-.48-.87-.06-.86.33.09,2.3,1.27,4.11,2.59,5.88,1.44,4.12,3.99,7.68,5.75,11.64-3.85-.64-7.42-1.53-11.46-1.47-5.46.08-18.22-.35-21.93-4.7-.85-1-1.65-2.1-2.41-3.26-.55-1.02-1.18-2.01-1.85-3-1.31-2.24-2.53-4.55-3.76-6.63-.9-1.52-3.29-6.86-5.28-6.92-.39,0-.89.66-.31.73,1.16.13,3.01,3.47,4.69,7-.45.22-.85.71-.64,1.15,1.28,2.76,2.94,5.19,4.59,7.74,1.08,1.6,1.58,3.37,1.51,5.32-2.01-.26-3.91-.26-5.93-.13-.47.03-.94.02-1.41.02-2.35-3.36-4.36-6.84-6.45-10.36-.88-1.49-1.9-4.86-3.78-5.25-.21-.04-.76.31-.44.5,1.79,1.02,2.69,4.66,3.55,6.44,1.35,2.79,2.4,5.9,4.05,8.57-5.61-.46-11.09-2.15-16.69-2.67-8.03-.75-15.52-3.48-23.35-5.2-5.4-1.19-7.13-10.59-9.69-15.06-.42-.74-1.86.12-1.71.85.77,3.69,2.05,7.31,3.79,10.67-5.49-1.08-10.7-3.57-15.99-5.29-5.05-1.65-10.13-3.24-15.15-4.96-3.26-1.12-6.13-4.46-8.37-7.09-1.99-2.33-2.63-5.49-5.14-7.36-.53-.39-1.76.27-1.55.97.82,2.78,6.07,9.55.79,8.59-4.83-.88-9.68-1.74-14.59-2.08-7.78-.54-13.54-3.37-18.64-9.22-1.9-2.19-5.62-5.31-8.46-6.19-.31-.09-.82.16-.83.51-.11,2.85,1.82,5.54,3.03,7.98.38.75,3.52,4.31,1.38,4.32-2.74.02-4.89-.64-7.48-1.03-6.95-1.04-13.89-1.42-20.84-2.68-1.75-.32-2.51.57-3.92.98-.33.09-.43.66,0,.56,5.53-1.27,13.76,1.76,19.59,2.35,4.28.43,11.88,3.77,16,.84.34-.24.78-.66.66-1.14-.5-2.02-2.79-3.43-3.81-5.2-.86-1.5-2.01-2.78-2.79-4.31-.16-.31,4.45,2.42,4.79,2.74,2.78,2.59,5.15,5.54,8,8.08,2.73,2.43,7.11,2.76,10.64,3,4.74.32,9.51.89,14.19,1.74,2.04.37,4.81,1.56,6.92.74.99-.38,1.26-1.24,1.14-2.32.15.16.28.35.44.5,2.69,2.61,4.06,5.21,7.77,6.18,11.29,2.97,22.08,9.31,33.68,10.85.22.03.49-.05.72-.19.38.84.85,1.62,1.5,2.09,1.76,1.31,4.7,1.13,6.75,1.65,4.06,1.03,8.02,2.39,12.1,3.3,11.53,2.58,25.3,5.86,37.11,4.45.44-.05,1.06-.49,1.1-.98.77.69,1.65,1.27,2.73,1.68,4.64,1.74,11.62,1.66,16.57,2.05,5.44.43,10.68.95,16.11,1.56.73.08,1.57-.7,1.29-1.43-.09-.23-.19-.46-.28-.7,1.02.7,2.18,1.22,3.55,1.42,2.59.38,5.5-.28,8.13-.22,3.98.08,7.9.66,11.85,1.06,3.99.4,9.72.56,13.35-1.28.36-.18.65-.62.6-1.03-.03-.26-.11-.5-.19-.73,1.29,1.09,2.72,1.74,4.34,1.62,4.53-.37,9.62-.34,14.06-1.16,2.67-.49,6.82-1.98,9.44-.82.75.32,1.98-.96,1.03-1.41Z"/>
                    <path class="cls-2" d="m556,256.42c.41-1.93-13.47.04-14.14.11-5.22.56-7.05-1.31-9.84-5.15-1.72-2.36-3.66-4.41-5.86-6.32-.62-.54-1.87.43-1.53,1.17.97,2.09,2.06,3.97,3.31,5.91,2.64,4.07.19,4.37-4.02,4.41-5.71.06-12.68.16-18.26-.88-6.54-1.21-8.06-10-12.98-13.48-.51-.36-1.57.33-1.23.94,1.68,3.04,4.9,8.03,5.61,11.75-4.5.01-9.08-.79-13.61-.63-6.86.23-13.88-.31-20.72-.91-3.76-.33-13.46,1.84-15.16-2.36-2.04-5.02-6.73-8.76-9.26-13.53-.39-.74-1.77.18-1.48.92.69,1.76,1.46,3.45,2.34,5.12.57,1.43,1.22,2.82,1.95,4.17,1.36,2.69,4.12,4.53-.52,4.21-7.18-.5-14.29-1.3-21.45-2.08-3.12-.34-6.18-.93-9.29-1.32-4.56-.58-5.99-.94-8.52-4.7-3.15-4.68-7.22-8.55-10.4-13.21-.24-.35-1.03.07-.89.45,1.85,4.99,4.34,9.56,7.16,14.07,2.03,3.25-6.45,1.01-7.48.87-4.15-.55-8.36-.72-12.53-.99-3.3-.22-6.52-1.1-9.81-1.51-3.15-.39-6.35.1-9.51-.1-2.87-.17-5.6-.1-7.8-2.19-2.84-2.69-5.7-5.73-7.58-9.22-.32-.61-1.57.1-1.4.7.44,1.51,4.74,8.87,2.5,8.48-6.07-1.04-12.28-1.4-18.44-1.59-5.99-.19-7.65-6.24-11.27-10.02-2.9-3.03-5.86-8.3-9.73-10.11-.67-.31-1.91.54-1.72,1.3.62,2.44,2.38,4.31,3.67,6.45,2.49,4.15,4.59,8.68,7.87,12.28,2.04,2.23-6.71.39-6.13.5-2.35-.41-4.96-.78-7.34-.5-2.35.28-11.81,1.75-10.65,0,.59-.89-.73-.96-1.18-.38l-.46.34c-.27.16-.77.82-.3,1.07,4.88,2.51,9.05.77,14.41.88,5.09.11,9.28,2.24,14.24.68.45-.14,1.2-.8,1.01-1.36-1.99-5.77-7.58-10.52-10.89-16.01.85,1.06,1.64,2.14,2.39,2.99,2.87,3.26,5.62,6.44,8.3,9.86,3.61,4.61,7.63,3.66,13.36,3.96,4.43.24,9.06.34,13.36,1.59.62.18,1.91.44,2.48-.18.68-.75.74-1.7.47-2.75,1.07,1.09,2.19,2.17,3.37,3.27,2.66,2.48,8.22,1.31,11.42,1.24,6.63-.14,13.27,1.56,19.9,2.02,5.25.37,11.63,2.49,16.78,1.69.43-.06.79-.39.89-.81.55-2.23-1-3.74-2.2-5.53-2.16-3.22-4.15-6.99-6.32-9.81,2.32,3.03,4.84,5.93,7.1,8.99,1.24,1.69,3.2,6.8,5.22,7.56,6.72,2.54,15.04,3.03,22.14,3.66,4.83.43,9.6.96,14.44,1.29,2.34.16,3.84.64,5.51-.89.23-.2.46-.56.38-.88-.06-.24-.15-.48-.22-.72.16.26.32.52.48.79,2.36,4.15,6.84,2.96,11.47,2.81,13.37-.43,27.03,2.52,40.39,1.81.69-.04,1.41-.49,1.38-1.26-.02-.51-.1-1.04-.23-1.59.57.92,1.16,1.71,1.78,2.08,4.81,2.91,12.2,1.74,17.57,2.18,2.74.23,12,1.79,14.13-1.15.46-.63.41-1.49.08-2.46.63.95,1.16,1.92,1.53,2.89.49,1.3,1.79,1.03,2.89,1.09,6.14.31,13.64-.5,19.76-1.06.46-.05.89-.46.98-.9.02-.1.05-.2.07-.3.22-1.03-1.59-.5-1.76.3Z"/>
                    <path class="cls-2" d="m590.73,287.56c-3.59-1.89-5.8-6.5-8.34-9.49-.58-.69-2.17.24-1.66,1.03,1.58,2.47,3.3,5.44,5.53,7.64-3.28-.7-6.42-1.6-9.96-1.7-5.98-.17-11.9-.24-17.9-.18-2.13.02-4.22-.28-6.33-.57-4.08-.57-4.88-3.82-6.86-6.5-2.17-2.95-3.45-7.51-6.53-9.61-.39-.26-1.19.18-1.07.67,1.17,4.93,2.72,9.41,5.09,13.94,2.6,1.72,2.2,2.05-1.2.97-1.62-.3-2.9-.43-4.52-.49-3.72-.12-7.37.12-11.11-.23-2.78-.26-6.56.96-8.59-1.41-2.27-2.64-4.35-5.52-6.32-8.39-3.52-5.15-7.63-10.45-12.14-14.79-.37-.36-1.39.37-1.02.78,1.69,1.91,3.22,3.96,4.67,6.07-.03.16-.02.32.1.47.77.98,1.53,2.04,2.28,3.13.91,1.43,1.82,2.87,2.72,4.31,1.32,2.24,2.53,4.54,3.53,6.73,1.08,2.37-1.22,1.28-3.15,1.02-3.19-.41-6.5-.6-9.72-.9-3.13-.29-6.29-.51-9.43-.45-3.15.06-4.04-4.29-5.08-6.31-1.34-2.62-2.91-7.27-5.92-8.23-.53-.17-1.46.29-1.47.92-.03,3.06,1.55,5.28,3,7.91.13.24,2.54,5.79,2.14,5.74-2.43-.25-4.9-.3-7.34-.36-2.29-.06-4.33-.1-6.61-.43-2.7,0-4.99-1.11-6.87-3.36.02-.67-.1-1.31-.34-1.92-2.62-3.94-5.32-8.06-8.23-11.78-.49-.62-1.8.07-1.63.82,1.23,5.74,4.41,10.03,7.05,15.04-3.79.46-7.7-.49-11.45-.85-5.92-.56-11.95-.64-17.89-1.06-6.53-.46-8.89-1.86-12.12-7.06-2.69-4.34-4.26-9.03-7.49-13.1-.6-.76-2.25.24-1.76,1.09.93,1.63,7.67,16.59,6.85,16.7-8.18,1.13-17.42-2.59-25.71-2.86-3.05-.1-8.17,1.23-10.9-.17-3.7-1.9-5.91-8.22-8.11-11.48-1.65-2.44-4.74-9.19-7.79-10.21-.58-.19-1.53.4-1.4,1.06.69,3.63,3.79,7.2,5.1,10.75,1.47,4.03,3.7,7.6,5.51,11.44-6.51-.46-13.23-.78-19.69-.41-9.24.54-12.91-10.72-18.44-16.46-.45-.47-1.23.26-1.35.68-.7,2.44,2.93,13.16,5,13.29-5.64-.37-13.2-.37-18.75,1.33-.59.18-.81,1.23.01,1.05,5.71-1.27,13.42-.73,19.27-.3.66.05,1.21-.41,1.52-.94.18-.32.37-.65.55-.97.19-.33.06-.66-.18-.9-1.74-1.81-2.76-4.46-3.8-6.7-2.38-5.16-.32-1.77,1.53.88,1.63,2.33,3.33,4.61,4.9,6.99.35.53,1.22,2.81,2.19,3.08,4.3,1.15,9.09.47,13.5.71,5,.28,9.97.15,14.97.46.68.04,1.59-.67,1.26-1.4-1.95-4.3-4.61-8.04-6.21-12.53-.18-.5-.4-1-.64-1.49,1.36,1.95,2.78,3.88,3.98,5.95,2.01,3.5,4.19,8.37,8.84,8.52,6.75.22,12.82-.53,19.61.55,5.49.87,11.41,2.4,17,1.63.49-.07,1.2-.61,1.07-1.18-.03-.13-.07-.27-.11-.39,1.67,1.84,3.7,3.16,6.35,3.5,6.63.85,13.32,1.28,20,1.43,5.33.12,10.83,1.93,16.09.68.33-.08.73-.32.94-.63.38.46.83.81,1.4.97,3.9,1.09,8.32,1.52,12.35,1.42,3.06-.08,6.27.87,9.29.41.42-.06,1.01-.46,1.03-.94.06-1-.19-2.18-.61-3.43.47,1.29,1.01,2.6,1.84,3.19,4.06,2.88,11.3,1.18,16.06,2.28,3.41.79,8.43,1.19,11.94.77.36-.04.72-.3.89-.64.64.81,1.29,1.61,1.99,2.38,1.69,1.86,9.08.57,11.41.77,5.54.46,11.17.28,16.72.43.65.02,1.38-.52,1.33-1.21-.09-1.27-.7-2.26-1.39-3.32-2.43-3.75-4.45-7.99-5.05-12.46.39,2.85,2.34,5.37,3.8,7.87,1.22,2.08,2.68,5.42,4.32,7.19,3.52,3.79,12.61,2.48,17.25,2.24,4.1-.2,9.09.32,13.25.43,4.01.11,7.87,1.73,11.84,2.36h0c.07.01.14.03.21.04.58.08,1.96-1.08,1.11-1.52Zm-135.2-17.78c.42.6.83,1.19,1.29,1.76.5.63.83,1.61,1.16,2.67-.82-1.48-1.66-2.95-2.45-4.43Z"/>
                  </g>
                  <g>
                    <path class="cls-11" d="m561.81,310.81c-.33-.2-1.01.32-.64.6,1.45,1.1-.94,10.05-1.2,11.75-1.25,8.3-2.49,16.58-3.6,24.9-2.43,18.16-4.73,36.31-7.37,54.44-2.61,17.88-4.51,35.83-6.7,53.76-1.03,8.45-1.9,16.89-2.65,25.37-.68,7.74-.13,16.17-1.69,23.75-.17.84,1.2.41,1.4-.09,2.55-6.37,1.76-14.84,2.44-21.64.92-9.29,1.83-18.55,2.99-27.82,2.45-19.59,4.56-39.2,7.38-58.76,2.76-19.08,4.83-38.21,7.17-57.35.82-6.67,1.75-13.32,2.52-20,.16-1.37,1.54-7.94-.04-8.91Z"/>
                    <g class="cls-15">
                      <path class="cls-11" d="m355.04,293.49c-3.49,15.35-5.02,31.09-7.37,46.66-2.53,16.78-5.59,33.52-7.36,50.4-1.69,16.22-2.66,32.51-4.21,48.74-1.49,15.55-4.22,31.57-3.39,47.21.04.74,1.44.19,1.46-.41.42-15.81,2.49-31.51,4.31-47.21,1.89-16.27,3.25-32.55,4.85-48.85,1.57-15.99,4.54-31.84,6.82-47.74,2.33-16.29,3.54-32.66,5.73-48.95.07-.52-.76-.22-.84.15Z"/>
                      <path class="cls-11" d="m387.05,297.4c-.16-.39-.98.07-.88.45.62,2.47-.58,5.76-1.08,8.17-.89,4.25-1.28,8.58-1.77,12.89-.92,8.1-1.58,16.21-2.33,24.32-1.54,16.44-4.13,32.76-5.65,49.21-3.07,33.23-7.88,66.86-7.3,100.3.01.66,1.19.11,1.26-.35,2.62-17.14,2.55-34.72,4.2-51.98,1.63-17.05,3.54-34.07,5.08-51.13,1.47-16.39,4.18-32.65,5.44-49.05.7-9.07,1.28-18.14,2.07-27.19.39-4.49,2.68-11.31.96-15.63Z"/>
                      <path class="cls-11" d="m424.97,300.8c-3.18,14.15-3.59,28.65-5.17,43.07-1.8,16.4-3.19,32.79-4.49,49.24-2.67,33.82-5.17,67.81-8.62,101.54-.12,1.19,1.82.56,1.94-.34,2.29-16.3,2.64-32.86,4.09-49.25,1.47-16.52,3.09-33.03,4.44-49.56,2.58-31.7,6.36-63.28,8.97-94.91.06-.74-1.05-.3-1.16.2Z"/>
                      <path class="cls-11" d="m458.46,301.71c-5.74,34.02-8.93,68.48-11.64,102.85-1.34,16.92-2.43,33.86-3.81,50.78-1.16,14.3-3.54,29.48-2.01,43.82.07.67,1.14.09,1.22-.34,1.12-6.15.74-12.69,1.12-18.92.51-8.35,1.63-16.69,2.33-25.02,1.43-16.94,2.75-33.88,4.09-50.82,2.7-34.26,6.6-68.34,9.88-102.54.07-.73-1.09-.33-1.18.2Z"/>
                      <path class="cls-11" d="m492.52,303.81c-.35-.35-1.32.33-.99.76.8,1.04-.91,6.44-1.15,7.85-.73,4.31-1.45,8.62-2.17,12.93-1.48,8.79-2.57,17.59-3.46,26.45-1.74,17.37-2.66,34.8-4.35,52.18-1.58,16.19-3.06,32.38-4.72,48.58-.88,8.57-2.25,16.99-3.81,25.46-1.45,7.86-.34,15.95-2.14,23.8-.26,1.15,1.79.68,2.03-.14,2.09-6.91,1.86-14.35,2.39-21.51.64-8.57,3.25-16.95,4.03-25.55,1.62-17.98,3.73-35.94,5.6-53.9,1.9-18.22,2.92-36.52,4.56-54.76.78-8.76,1.95-17.47,2.97-26.2.35-3.03,3.39-13.74,1.23-15.95Z"/>
                      <path class="cls-11" d="m528.7,308.77c-.05-.12-.26-.2-.38-.19-.12,0-.24,0-.36.01-.42.02-1.37.92-.61,1.06.01,0-3.96,42.04-4.19,45.98-.94,16.16-2.46,32.35-3.82,48.49-2.76,32.89-7.83,66-7.98,99.04,0,.69,1.05.32,1.12-.2,4.27-33.77,6.83-67.99,9.76-101.91,1.4-16.17,2.97-32.4,3.82-48.6.47-8.86,1.06-17.63,1.92-26.47.5-5.14,2.63-12.24.72-17.21Z"/>
                      <path class="cls-11" d="m331,336.93c-.29-.27-.84-.02-1.08.2-1.69,1.59-1.89,4.19-2.38,6.36-.64,2.86-1.3,5.72-1.8,8.6-.19,1.08.26,1.55.51,1.71-.07-.02-.17-.06-.32-.1-.18-.04-.58.17-.43.39.04.1.08.2.12.29-.1.56.86.27.93-.16.8-4.57,1.64-9.42,3.14-13.81.52-1.53.61,2.16.66,1.45-.13,2.13.12,4.43.03,6.6-.19,4.12-.29,8.15-1.01,12.21-.35,1.94-.61,3.89-.98,5.83-1.67,8.76-.87.58-.59-.99.08-.46-.69-.2-.76.13-.46,2.1-1.15,4.31-.73,6.46.12.61,1.01.25,1.23-.08,3.62-5.46,3.93-12.89,4.37-19.26.24-3.38,1.9-13.17-.92-15.83Z"/>
                      <path class="cls-11" d="m337.08,335.57c.19-5.21.79-11.6-.72-16.6-.08-.27-.27-.39-.54-.41l-.67-.05c-.46-.04-.87.29-1.07.67-1.71,3.11-3.04,6.27-4.51,9.51-.24.52.61.38.79.03,1.5-2.94,2.69-5.93,4.68-8.6-1.02,1.36-.09,5.09-.03,6.74.34,8.88-.84,17.49-1.78,26.3-1.04,9.78-1.49,18.96-4.46,28.43-1.55,4.96-3.94,9.59-5.99,14.34.08-.83.16-1.66.21-2.5.04-.79-1.16-.34-1.26.22-.51,2.81-1.1,5.53-1.28,8.38-.08,1.16,1.66.62,1.92-.12,2.06-6.02,5.26-11.73,7.65-17.65,3.06-7.59,4.25-15.58,4.83-23.68.59-8.35,1.95-16.65,2.25-25.01Z"/>
                      <path class="cls-11" d="m344.6,299.57c.02-.5-.76-.23-.8.14-1.6,14.01-3.55,27.77-4.43,41.84-.89,14.15-3,29.06-5.79,42.96-2.7,13.45-6.1,26.77-8.86,40.22-3.06,14.9-6.76,29.91-7.2,45.18-.02.78,1.19.36,1.26-.22,3.4-28.17,10.5-55.49,16.94-83.08,3.24-13.87,4.79-28.78,6-42.96,1.25-14.57,2.31-29.46,2.88-44.07Z"/>
                      <path class="cls-11" d="m324.52,464.33c.88-10.26,4-20.78,4.25-30.96.01-.54-.85-.26-.88.15-.28,4.43-1.99,9.11-2.8,13.52-1.08,5.83-1.84,11.75-2.51,17.63-1.11,9.66-2.93,20.38-1.99,30.09.08.83,1.37.08,1.48-.42,2.13-9.58,1.6-20.22,2.44-30.01Z"/>
                      <path class="cls-8" d="m339.67,451.38c-.03-.75-1.31-.12-1.4.39-1.32,7.86-.73,15.99-1.17,23.94-.23,4.22-.42,8.42-.43,12.65,0,2.35.22,8.41,1.02,9.2-.11-.11-.41.1-.31.24.1.13.2.26.29.39.13.18.43-.02.42-.2-1.04-15.51,2.19-31.04,1.58-46.59Z"/>
                      <path class="cls-11" d="m358.44,298.04c.08-.62-.95-.29-1.02.18-2,13.17-3.17,25.59-2.92,38.91.29,15.67-1.05,31.4-3.08,46.92-1.88,14.35-4.23,28.65-6.04,43.02-1.87,14.89-2.41,29.88-3.12,44.86-.03.67,1.06.32,1.1-.2,2.65-29.6,6.95-58.74,10.93-88.18,3.85-28.52.79-57.05,4.15-85.51Z"/>
                      <path class="cls-8" d="m352.57,460.4c-.01-1.16-1.81-.56-1.88.32-.51,6.27-1.03,12.53-1.54,18.79-.21,2.53-.3,5.07-.41,7.61-.06,1.37-.76,7.88-.21,8.94-.22-.41-1.01.1-.83.52.15.35.14.38.46.5.22.08.53-.07.66-.26,2.16-3.44,1.28-8.44,1.59-12.37.63-8.01,2.23-16,2.15-24.04Z"/>
                      <path class="cls-11" d="m379.18,296.33c.15-.55-.85-.32-.99.07-4.74,13.66-5.94,29.2-7.05,43.53-1.2,15.47-3.05,30.88-4.15,46.35-.05.75,1.12.34,1.2-.21,2.27-14.73,4.75-29.13,5.6-44.02.86-14.94,1.37-31.24,5.38-45.72Z"/>
                      <path class="cls-11" d="m360.36,449.14c1.13-13.57,2.11-27.22,1.6-40.85-.02-.45-.88-.11-.9.26-1.32,27.39-5.76,54.8-5.97,82.23-.01,1.38,2.09.64,2.22-.39,1.76-13.63,1.91-27.54,3.05-41.25Z"/>
                      <path class="cls-11" d="m400.56,296.42c-.04-.23-.46-.05-.46.13,0,4.7-1.42,9.86-2.09,14.53-.98,6.89-2.23,13.73-3.2,20.62-2.12,15.02-4.27,30.2-5.32,45.33-.07.96,1.39.4,1.52-.27,3-14.97,4.16-30.31,6.03-45.45.85-6.85,1.9-13.67,2.62-20.52.46-4.38,1.6-10,.89-14.37Z"/>
                      <path class="cls-11" d="m432.75,303.03c-.18-.38-.81.09-.79.39.11,1.79-1.13,4.69-1.54,6.57-.59,2.71-1.23,5.41-1.81,8.13-1.11,5.28-1.88,10.54-1.27,15.93.1.93,1.53.11,1.66-.46,1.28-5.84,1.33-11.94,2.34-17.85.58-3.42,2.93-9.39,1.4-12.71Z"/>
                      <path class="cls-11" d="m439.03,347.83c-.1-10.36-1.47-21,1.64-31.07.21-.69-.8-.52-.99-.04-3.28,8.06-3.68,16.02-3.15,24.63.58,9.35-1.14,18.73-.73,28.03.95,21.67-3.93,43.69-6.01,65.17-.02.22.34.1.36-.07,2.66-19.56,5.22-39.07,7.59-58.67,1.11-9.16,1.39-18.75,1.3-27.97Z"/>
                      <path class="cls-8" d="m425.8,468.92c.22-6.28,1.1-12.77-.02-19,0-.03-.06,0-.06.02-1.41,13.38-2.67,26.77-3.11,40.23-.04,1.33,2.06.63,2.16-.38.73-6.96.78-13.9,1.03-20.88Z"/>
                      <path class="cls-11" d="m470.36,308.44c-1.4,5-1.74,10.54-2.34,15.7-.75,6.47-2.9,12.84-3.29,19.31-.06,1.02,1.49.56,1.7-.11,3.71-11.5,3.03-23.32,4.83-35.06.09-.56-.8-.21-.9.16Z"/>
                      <path class="cls-11" d="m479.91,312.23c-5.83,26.18-8.01,52.87-10.3,79.54-1.15,13.41-1.96,26.88-2.88,40.31-1.01,14.8-3.91,29.44-4.28,44.31-.02.8,1.21.37,1.28-.22,3.3-27.44,6.64-54.86,8.56-82.43,1.91-27.33,4.7-54.54,8.47-81.65.07-.53-.78-.23-.86.15Z"/>
                      <path class="cls-11" d="m505.18,311.61s-.02,0-.02,0c.09-.74-1.26-.5-1.38.24-.47,3.03-1.07,6.04-1.43,9.1-.31,2.63-1.33,5.13-1.09,7.8.11,1.19,1.88.06,2.06-.58,1.52-5.29,1.82-11.08,1.86-16.56Z"/>
                      <path class="cls-11" d="m513.77,400.1c.8-15.14.38-30.26,1.07-45.37.35-7.7.69-15.4,1.45-23.07.67-6.76,2.47-13.28,2.39-20.1,0-.21-.37-.03-.4.11-3.05,14.62-5.19,28.64-6.33,43.56-1.15,15.04-.1,30.27-.99,45.36-.81,13.83-1.75,27.53-3.36,41.3-1.63,13.97-3.36,28.51-3.63,42.57-.01.65.98.29,1.04-.18,1.95-13.63,2.95-27.31,4.57-40.97,1.71-14.41,3.44-28.72,4.21-43.22Z"/>
                      <path class="cls-11" d="m503.81,445.65c-.05-.54-1.05-.14-1.06.3-.03,2.93-1.2,5.8-1.63,8.71-.76,5.15-1.14,10.38-1.84,15.55-1.26,9.36-3.24,19.9-2.43,29.32.06.73,1.2.07,1.3-.36,2.17-9.54,2.15-19.63,3.3-29.34.61-5.15,1.15-10.3,1.4-15.48.14-2.94,1.22-5.76.95-8.7Z"/>
                      <path class="cls-11" d="m523.57,439.38c.16-24.08,4.96-48.37,2.63-72.5-.04-.36-.72-.09-.72.2.21,24.31-2.84,48.55-4.49,72.74-.35,5.15.27,10.27-.1,15.43-.41,5.63-.88,11.24-1.24,16.87-.38,5.98-1.09,11.91-1.75,17.86-.32,2.85-1.91,12.68-.72,13.71-.36-.32-1.24.29-.96.73.09.14.18.27.26.41.27.42,1.04.05,1.16-.33,3.22-10.18,4-22.24,4.82-32.86.84-10.88,1.03-21.4,1.1-32.25Z"/>
                      <path class="cls-11" d="m532.82,428.39c-.18-9.39,1.39-18.84,2-28.18.69-10.46.98-20.92,2.14-31.34,2.13-19.27,2.4-38.6,4.11-57.9.06-.68-1.02-.31-1.1.19-3.21,20.01-3.91,40.43-6.42,60.55-1.31,10.51-1.5,21.21-2.01,31.78-.43,9.09-2.28,18.91-.61,27.92.19,1.03,1.85.19,1.94-.55.08-.67.17-1.34.25-2.02.04-.29-.1-.43-.31-.46Z"/>
                      <path class="cls-11" d="m553.34,313.25c.03-.48-.73-.21-.78.14-2.37,15.83-3.17,31.83-6.13,47.59-1.37,7.28-2.09,14.58-3.11,21.9-1.06,7.62-1.16,16.03-3.14,23.41-.25.93,1.26.33,1.51-.1,2.91-5.19,2.81-12.74,3.64-18.59,1.17-8.22,1.88-16.49,3.2-24.69,2.64-16.54,3.8-32.96,4.82-49.66Z"/>
                      <path class="cls-11" d="m543.62,352.43c.02-.44-.69-.21-.72.13-.41,4.66-1.07,9.32-1.71,13.96-.12.92,1.42.45,1.52-.26.63-4.6.68-9.19.91-13.82Z"/>
                      <path class="cls-11" d="m538.14,431.31c-3.07,23.51-8.47,47.26-8.38,71.07,0,.92,1.38.42,1.48-.26,1.69-11.87,3.28-23.86,4.36-35.8,1.07-11.77,3.41-23.47,4.04-35.27.05-.93-1.41-.43-1.5.26Z"/>
                      <path class="cls-11" d="m570.33,317.35c-1.95,13.76-6.34,27.19-9.35,40.74-.21.94,1.37.39,1.56-.27,3.7-12.99,7.54-26.99,8.13-40.53,0-.21-.32-.1-.34.06Z"/>
                    </g>
                  </g>
                  <g>
                    <path class="cls-9" d="m459.1,198.08c-.66-3.41-1.9-6.69-2.64-10.09.32-.32.52-.72.4-1.14-1.37-5.03-1.09-12.73-1.01-17.96.09-5.63-.26-11.32-.43-16.97-.47-15.33.48-30.79.78-46.13.27-14.3,1.38-28.69,2.34-42.95.83-12.3,2.98-24.52,3.25-36.85.86.43,1.73.8,2.67,1.17.68.27,1.72-.22,2.08-.82,1.16-1.96,1.8-5.68,1.81-7.83,0-3.02-3.2-3.6-5.46-5.13-4.56-3.09-10.55-5.09-15.43-7.71-3.07-1.65-6.57-3.41-10.04-4.14-.12-.47-.62-.54-1.04-.51-10.83.99-21.55,4.33-32.31,5.95-9.19,1.39-8.37,2.43-7.64,11.39.05.59.8.76,1.26.66,1.28-.26,2.56-.49,3.85-.72.05.08.15.13.27.16-2.08,16.48-5,32.85-7.03,49.34-2.26,18.35-5.14,37.33-10.83,54.93-2.21,6.83-6.14,13.89-7.43,20.9-.12.66.5,1.42,1.07,1.66,4.26,1.88,8.13,9.11,11.03,12.65,10.95,13.38,20.92,27.53,31.24,41.38.13.18.32.27.52.32.07.05.15.1.25.14,0,0,0,0,0,.01-.19,1.23,1.39.98,2.18.24,5.58.42,11.35-.14,16.93-.02,5.59.13,11.48.51,17.03.2,1.02-.06,2.59-.86,2.34-2.13Z"/>
                    <path class="cls-12" d="m443.32,6.73c3.83,2.04,7.56,4.26,11.41,6.25,2.56,1.32,5.25,2.68,7.91,3.74,2.65,1.06,3.3,4.18,2.44,6.89-.19-.3-.56-.41-.97-.35-.75-.58-1.51-1.11-2.28-1.58,0-.28-.22-.35-.46-.29-3.68-2.14-7.62-3.27-11.74-5.01-4.02-1.7-8.31-4.39-12.57-5.63.19-2.32.61-4.69.57-7,0,0,0,0,.01,0,1.75,1.09,3.91,2.05,5.67,2.99Z"/>
                    <path class="cls-12" d="m400.99,16.72c-1.01,0-1.4-.39-1.66-2.53-.19-1.62-1.24-3.55.84-4.06,5.51-1.36,11.19-2.02,16.72-3.36,5.73-1.39,11.51-2.37,17.31-3.39,1.88-.32.72,3.34.6,4.91-.05.71-.07,1.37-.06,2.02-2.74.02-6.76,1.54-8.91,2.02-7.8,1.77-15.5,3.58-23.51,3.57-.48,0-1.02.38-1.33.81Z"/>
                    <path class="cls-3" d="m426.57,111.71c-.58,15.94-2.82,31.8-3.38,47.78-.43,12.34-.48,24.58-2.08,36.76-9.4-12.65-18.79-25.33-28.14-38.03-2.57-3.49-5.36-6.82-8.04-10.22-1.36-1.72-2.24-3.9-4.39-4.86-1.05-.47,7.85-25.04,8.58-27.57,4.51-15.52,6.41-32.3,8.59-48.29,2.2-16.14,5.42-32.86,5.89-49.16,9.96.71,20.41-3.08,30.13-4.76.41-.07.89-.04,1.41.04,0,.13.1.24.34.27-1.68-.19-8.62,90.03-8.91,98.04Z"/>
                    <path class="cls-12" d="m423.51,197.37c1.78-12.02,1.68-23.87,2.44-36.05,1.04-16.68,3.01-33.47,3.68-50.14,1.3-32.51,5.98-64.96,7.1-97.42,2.65.8,5.8,2.5,7.59,3.36,5.17,2.49,10.79,4.04,15.69,7.01-.2.3-.22.62.1.87-4.31,27.63-6.73,55.82-7.18,83.76-.23,13.99-.95,28.04-.66,42.03.14,6.93.6,13.89.51,20.82-.05,4.59-.14,10.92.94,15.55-.4.63-.39,1.33.51,1.47,0,.05-.02.09-.02.14.19,2.9.95,5.76,1.31,8.6-10.51.46-21.47.21-31.99,0Z"/>
                  </g>
                  <g>
                    <path class="cls-2" d="m510.17,345.17c.86-2.38,1.69-4.88,1.43-6.31-.23-1.25-2.29-1.65-3.18-1.68-11.51-.31-23.12-.97-34.62-1.67-12.44-.75-24.83-1.25-37.26-2.11-5.93-.4-11.86-.2-17.8-.5-5.42-.27-10.28-.87-15.64-.02-.27.04-.79.39-.67.73.61,1.74,1.14,7.44-.21,9.11-.16.2.15.28.29.15.08-.09.14-.2.21-.3-3.26,23.4-6.11,46.88-8.36,70.39-1.33,13.91-2.67,27.83-4.23,41.72-1.42,12.63-3.27,26.54-2.66,39.22.01.34.23.47.5.48-.21.26-.29.57.09.66,7.16,1.7,14.69,1.75,22.02,2.26,9.24.64,18.49,1.29,27.73,1.93,18.49,1.27,37.07,3.12,55.6,3.53.8.02,1.75-1.02,1.44-1.58.25-.23.43-.5.42-.79-.2-6.67,1.08-13.66,1.57-20.33.52-7.09,1.06-14.16,1.92-21.22,1.68-13.75,2.89-27.58,4.21-41.37,1.29-13.36,2.37-26.86,4.36-40.14.96-6.44,1.57-12.93,1.96-19.43.25-4.2.85-8.5.88-12.74Z"/>
                    <path class="cls-14" d="m441.67,496.94c-14.56-1.01-29.84-3.3-44.63-3.22,1-25.01,4.17-50.4,7.26-75.22,1.46-11.75,2.04-23.59,3.43-35.34,1.52-12.8,4.77-25.52,5.15-38.45.04-.13.07-.26.12-.39.94-2.6,4.05-1.12,6.12-.74,4.11.75,8.79,1,12.97,1.15,7.54.29,15.05.97,22.59,1.05,8.22.09,16.48,1.51,24.74,1.82,5.18.19,10.65.33,15.78.97,5.51.69,5.05,1.72,5.02,7.01,0,.16.07.24.15.28-.81,10.72-3.04,21.54-4.36,32.09-1.6,12.74-2.51,25.52-4.04,38.26-2.93,24.45-5.74,49.03-7.42,73.59,0,.03.01.04,0,.07-14.25-1.31-28.62-1.94-42.88-2.93Z"/>
                    <path class="cls-13" d="m500.11,420.26c-1.33,13.91-2.67,27.83-4.23,41.72-1.4,12.48-3.22,26.22-2.67,38.77-2.29-.26-4.58-.5-6.87-.72.17-.16.3-.37.31-.6,1.71-24.6,5.66-48.99,7.38-73.57.89-12.75,2.37-25.58,4.01-38.26,1.4-10.8,3.52-22.27,3.4-33.36.56-1.92,1.17-3.85,1.4-5.82.03-.24-.04-.48-.25-.63-1.85-1.36-4.35-.92-6.56-1.19-4.43-.56-8.99-.44-13.46-.8-8.34-.67-16.68-1.27-25.01-2.02-6.91-.62-13.98-.46-20.92-.93-7.23-.48-16.45-2.82-23.52-1.26-.41.09-.77.37-.87.79-.39,1.79-.55,3.57-.76,5.34-4.97,22.67-6.75,46.03-9.13,69.06-1.26,12.18-2.29,24.35-3.82,36.5-1.67,13.26-3.38,27.07-3.55,40.46-2.01.04-4.01.12-5.99.27.31-.24.54-.56.53-.89-.2-6.67,1.08-13.66,1.57-20.33.52-7.09,1.05-14.16,1.92-21.22,1.68-13.75,2.89-27.58,4.21-41.37,1.28-13.36,2.37-26.86,4.35-40.14.97-6.44,1.58-12.93,1.96-19.43.31-5.31,1.19-10.76.74-16.08,1.66-2.12,5.58-.73,9.03-.4,12.21,1.16,24.47,1.21,36.71,2.34,11.98,1.11,24.46,1.48,36.5,1.75,6.24.14,12.5.96,18.73,1.39,5.51.38,3.09.94,2.59,4.74-.24,1.83-.21,3.71-.18,5.55,0,.41.52.23.8-.02-3.26,23.38-6.12,46.87-8.36,70.37Z"/>
                    <path class="cls-2" d="m428.04,415.52c-1.74-5.29-6.64-6.61-11.61-6.8-5.34-.21-8.81,3.02-10.5,7.84-1.54,4.41-.92,10.72,3.16,13.5,2.64,1.8,8.23,1.49,11.31,0,.71-.17,1.42-.44,2.09-.81,4.89-2.75,7.33-8.31,5.55-13.72Z"/>
                    <path class="cls-6" d="m407.64,424.51c-1.01-3.25-.43-6.89.91-9.92,1.33-3,4.57-4.31,7.83-4.32-1.11.36-2.24,1.01-3.5,2.12-4.27,3.73-4.91,7.94-2.52,12.94.92,1.93,2.53,3.41,4.42,4.23-3.17-.11-5.98-1.33-7.14-5.05Z"/>
                    <path class="cls-10" d="m413.01,425.04c-2.68-4.18-2.45-8.18,1.16-11.7,2.33-2.27,4.36-2.38,6.7-2.23.41.17.82.35,1.18.57,3.55,2.04,4.95,5.5,4.5,9.5-.75,6.61-9.7,9.86-13.54,3.86Z"/>
                  </g>
                  <g>
                    <path class="cls-5" d="m257,232.53c-11.95.29-24.34-1.31-36.31-1.75-13.91-.52-28.01-1.21-41.94-1.1-14.61.11-29.16.67-43.74,1.49-7.2.4-14.47.25-21.67-.09-7.04-.32-15.38,1.57-22.17.15-.29-.06-.81.39-.41.56,5.19,2.11,11.33.43,16.82.84,7.2.54,14.43.78,21.65.87,15.21.21,30.55-1.18,45.79-1.33,14.95-.15,29.86,1.5,44.8.62,12.17-.72,24.98,2.04,37.02.28.26-.03.56-.55.16-.54Z"/>
                    <path class="cls-5" d="m234.24,202.67c-8.05-.95-16.66-.97-24.75-.52-9.87.55-20.33-.56-30.22-1.04-5.51-.27-62.71-2.61-62.67-1.22-.01-.43-.75-.07-.8.22-.02.12-.04.23-.06.35-.03.18.11.27.27.3,9.73,1.4,19.66.94,29.45.91,10.05-.03,20.16,1.37,30.22,1.77,10.1.4,20.21.89,30.32,1.04,9.31.14,18.7-1.05,28.01-1.3.27,0,.64-.46.23-.51Z"/>
                    <path class="cls-5" d="m222.83,173.06c-15.53-3.04-31.71,1.21-47.38-.29-8.38-.81-16.81.22-25.22.27-6.25.03-14.97,3.35-20.81.66-.3-.14-.93.44-.57.63,3.29,1.74,8.69,1.44,12.29,1.19,9.4-.65,19.07-.99,28.49-.79,4.13.09,8.24.75,12.37.92,4.34.17,8.68-.59,13.01-.63,9.08-.08,18.27-.56,27.33-1.12.32-.02,1.1-.72.49-.84Z"/>
                    <path class="cls-5" d="m197.9,139.19c-6.76-2.01-13.99-1.24-20.99-.79-4.76.31-9.46.94-14.2,1.5-1.93.22-13.02,1.91-15.07-.29-.27-.28-.99.19-.87.55,1.11,3.52,13.33,1.95,15.66,1.74,11.58-1.04,23.36-2.15,35-1.87.35,0,1.07-.67.48-.84Z"/>
                    <path class="cls-5" d="m180.2,112.4c-1.83-.07-18.95-.77-18.9,1.1,0,.04,0,.09,0,.14,0,.22.25.29.42.32,2.24.34,5.24.68,7.49.52,3.57-.25,7.38.88,10.77-.54.59-.25,1.34-1.49.22-1.54Z"/>
                  </g>
                  <g>
                    <path class="cls-11" d="m107.01,360.79c-.57-18.33-2.55-36.61-3.43-54.93-.43-8.9-.65-17.81-1.4-26.69-.35-4.17-1.09-8.29-1.56-12.45-.33-2.89-.3-6.99-2-9.41-.23-.33-.86.09-.71.43,1.2,2.63.93,6.79,1.14,9.58.32,4.22.79,8.42,1.08,12.63.62,8.96.3,17.96.77,26.93.95,18.33,2.52,36.61,3.41,54.94.9,18.58,1.03,37.18,2.18,55.76,1.08,17.43,1.6,35.61,4.62,52.82.09.51.97.08.92-.35-4.56-36.15-3.88-72.92-5.02-109.27Z"/>
                    <path class="cls-11" d="m135.53,369.92c.13-19.43-.45-38.87.12-58.29.26-8.72-.04-17.44-.33-26.16-.31-9.28-.09-19.08-1.95-28.2-.11-.52-1.02-.13-1.02.28-.11,38.44.52,76.9.45,115.36-.07,37.24,6.4,74.35,7.9,111.51.03.71,1.33.12,1.32-.51-.63-38.03-6.75-75.94-6.48-114Z"/>
                    <path class="cls-11" d="m178.14,369.25c-.02-19.96.11-39.84.7-59.79.51-17.12,1.54-36.04-1.43-52.98-.08-.47-.92-.12-.92.26-.23,37.67-1.55,75.32-1.17,113,.19,19.49.98,38.91,1.32,58.38.34,19.03.14,38.15,1.42,57.12.05.65,1.26.16,1.28-.36,1.16-38.48-1.14-77.14-1.19-115.63Z"/>
                    <path class="cls-11" d="m222.77,374.51c.08-20.02.73-40.09,1.27-60.1.27-9.92.61-19.84.87-29.76.23-8.55-.79-17.37-.02-25.87.06-.7-1.08-.33-1.14.2-1.03,8.51-.52,17.42-.81,26.01-.33,9.94-.77,19.87-1.09,29.8-.65,20.01-1.35,40.11-1.49,60.14-.27,37.78,2.5,75.83.13,113.54-.08,1.18,1.85.57,1.92-.33,2.82-37.71.19-75.82.35-113.62Z"/>
                    <path class="cls-11" d="m258.99,379.43c1-20.71,2.53-41.39,4.25-62.05.8-9.61,1.8-19.28,1.84-28.93.04-9.88,1.4-19.45,1.8-29.25.03-.81-1.22-.37-1.3.22-1.26,9.15-3.05,17.6-3.19,26.92-.16,10.54-1.15,21.05-2.08,31.54-1.83,20.65-3.26,41.34-4.24,62.05-.93,19.65-.8,39.31-1.82,58.96-.9,17.35-2.15,34.96-1.84,52.34.02,1.02,2,.26,2.04-.57,1.91-37.06,2.74-74.18,4.54-111.23Z"/>
                    <path class="cls-11" d="m273.46,335.36c1.05-11.4.9-22.53.81-33.93-.09-11.54-8.58.8-8.02,6.19.02.18.3.02.32-.09.53-2.32,1.92-4.73,2.99-6.85,2.86-5.65,2.87,2.41,2.9,2.81.57,9.9-.03,19.68-.78,29.54-.33,4.27-.85,8.53-1.27,12.79-.17,1.3-.38,2.59-.62,3.87-.09.37-1.66,8.21-2.58,4.76-2.09-7.89-.66-17-1.06-25.14-.02-.57-1.11-.15-1.12.31-.1,7.02-.1,14.04.15,21.06.07,1.96-.08,6.05,2.12,7.03.34.15.77-.09,1.03-.3,5.26-4.29,4.58-16.11,5.13-22.05Z"/>
                    <path class="cls-11" d="m280.88,288.78c.21-3.52,1.97-11.11-2.13-12.79-2.49-1.01-6.37,5.4-7.41,6.67-.27.33.26.48.48.24.96-1.15,2-2.22,3.12-3.22,1.06-1.25,2.49-.57,4.27,2.06-.17,3.25-.19,6.51-.43,9.78-.48,6.54-1.07,13.07-1.42,19.62-.79,14.39-2.44,28.65-3.53,43.02-1.1,14.64-2.64,29.25-4.52,43.81-.87,6.73-2.32,13.29-3.67,19.93-.67,3.29-1.12,6.63-1.5,9.96-.23,1.99-.22,7.36-1.85,8.76-.67.58.1,1.28.74.8,2.64-1.99,2.53-6.94,3.09-9.9,1.74-9.15,3.97-18.29,5.37-27.49,2.87-18.85,3.97-37.86,5.77-56.82,1.72-18.12,2.54-36.25,3.62-54.43Z"/>
                    <path class="cls-11" d="m291.13,283.66c.03-.44-.69-.21-.72.13-1.54,15.55-2.92,30.96-3.93,46.59-1.01,15.74-3.47,31.31-4.71,47.02-1.19,15.11-4.99,29.82-6.28,44.89-1.34,15.5-2.85,30.95-3.78,46.49-.03.46.71.22.74-.13,1.38-14.81,3.21-29.61,5.02-44.37,1.84-14.96,4.96-29.75,6.42-44.75,3.1-31.94,5-63.88,7.24-95.87Z"/>
                    <path class="cls-8" d="m275.56,465.69c-1.25,8.84-1.56,17.5-1.99,26.38-.04.93,1.46.45,1.52-.27.74-8.84,1.39-17.62,2.35-26.45.12-1.14-1.76-.54-1.88.33Z"/>
                    <path class="cls-11" d="m247.89,336.45c.66-11.56,2.17-23.05,2.68-34.62.5-11.4.35-22.79,1.84-34.13.06-.46-.7-.22-.76.13-1.98,11.46-2.79,22.8-3.46,34.4-.67,11.58-2.15,23.08-2.87,34.66-1.56,25.32-.64,50.86-.69,76.22,0,.65,1.04.32,1.06-.18,1.19-25.49.74-51.01,2.19-76.49Z"/>
                    <path class="cls-11" d="m234.1,438.8c.93-15.13.51-30.09-.18-45.22-.01-.35-.71-.1-.71.2,0,.11,0,.23,0,.34,0,.41.62.19.66-.11-.46,3.2-1.17,6.06-1.22,9.45-.07,4.39.09,8.78.07,13.17-.04,7.54-.51,15.07-1.05,22.6-1.11,15.53-1.49,30.83-1.85,46.38-.03,1.13,1.77.54,1.84-.32,1.36-15.39,1.5-31.03,2.44-46.48Z"/>
                    <path class="cls-11" d="m239.91,266.49c.04-.46-.71-.22-.76.13-1.56,12.08-2.38,24.77-2.47,36.94,0,.82,1.24.38,1.32-.23,1.57-12.25.82-24.58,1.91-36.85Z"/>
                    <path class="cls-11" d="m210.03,293.2c.06-9.93-.51-19.87-.53-29.8,0-.2-.3-.09-.32.06-2.07,18.96-1.63,38.22-1.86,57.28,0,.64,1.02.31,1.04-.18.39-9.1,1.61-18.26,1.66-27.35Z"/>
                    <path class="cls-11" d="m207.6,457.17c.32-8.72.4-17.45.61-26.17.4-17.05-.07-34.13-.9-51.17-.02-.41-.82-.11-.82.23.2,32.96-.38,65.97-1.62,98.89-.04,1.02,1.49.44,1.62-.28,1.28-7.01.85-14.4,1.11-21.5Z"/>
                    <path class="cls-11" d="m194.58,448.63c-.27-5.85-.22-11.7-.56-17.55-.17-2.95-.18-6.76-1.74-9.37-.41-.69-1.53-.02-1.76.5-2.96,6.89-2.16,16.75-2.32,24.15-.21,9.68-1.46,19.24-.89,28.94.03.48.89.11.92-.26.59-8.84.91-17.68,1.52-26.52.49-7.03-.59-16.38,1.54-23.54.71,3.02.48,6.72.62,9.47.31,5.85.41,11.69.82,17.53.78,11.08,2.44,22.09,2.99,33.18,0,.11.2.01.2-.08-.17-12.18-.77-24.28-1.33-36.45Z"/>
                    <path class="cls-11" d="m144,258.25c-.1-.82-1.47-.1-1.46.56.3,11.71-2.2,23.66-.44,35.32.13.87,1.62.19,1.66-.46.75-11.45,1.63-24.01.23-35.41Z"/>
                    <path class="cls-8" d="m150.17,417.67c-.03-17.37.71-34.57,1.97-51.88,1.23-16.87.49-33.48.05-50.35-.25-9.56-1.15-19.08-1.19-28.65-.04-8.55.65-17.1.76-25.65,0-.35-.53-.16-.56.1-4.33,34.99.8,69.87-1.54,104.97-2.33,34.97-1.72,69.92.79,104.86.04.62,1.14.09,1.13-.44-.24-17.66-1.38-35.28-1.42-52.96Z"/>
                    <path class="cls-11" d="m160.97,450.31c-.26-2.14.12-12.5-3.41-12.68-3.83-.19-2.79,5.99-2.76,8.06.18,12.42-.2,25,1.9,37.3.09.55.96.06.96-.37-.14-8.55-.63-17.05-.31-25.61.15-4.01.05-8.04.06-12.05,0-.64-.62-5.37.12-2.33,3.11,12.63,2.52,26.12,5.76,38.79.16.65,1.27.17,1.28-.36.11-10.15-2.37-20.67-3.61-30.75Z"/>
                    <path class="cls-8" d="m168.41,415.85c-1.55-17.65-1.82-35.35-3.54-53-1.67-17.2-.63-34.43-1.13-51.67-.49-16.86-.56-33.36-2.14-50.14-.03-.36-.68-.06-.66.25,2.52,33.28-1.74,66.86.92,100.15,1.4,17.53,2.28,35.12,3.82,52.63.78,8.96,2.02,17.86,2.78,26.82.79,9.51,1.07,19.09,2.61,28.52.13.78,1.41.1,1.38-.53-.85-17.71-2.48-35.37-4.03-53.03Z"/>
                    <path class="cls-8" d="m170.82,269.02c-.05-.35-.67-.06-.64.25.4,3.18.53,6.39.93,9.57.06.51,1.03.09.96-.37-.5-3.14-.75-6.31-1.25-9.45Z"/>
                    <path class="cls-11" d="m124.97,363.45c-.45-16.79-.77-33.58-1.37-50.36-.3-8.4-.65-16.82-1.23-25.21-.62-8.94-2.42-17.87-2.38-26.84,0-.38-.6-.18-.62.1-.98,14.77,1.07,30.14,1.61,44.94.65,17.65.84,35.32,1.4,52.97,1.14,35.75,3.17,71.48,4.28,107.23.02.56,1.14.16,1.14-.32-.22-34.14-1.92-68.38-2.83-102.52Z"/>
                    <path class="cls-11" d="m121.11,467.26c-.62-8.78-2.1-17.38-2.99-26.12-1.75-17.11-2.9-34.3-4.61-51.43-.06-.63-1.2-.15-1.22.34-.58,15.83,2.64,31.76,3.3,47.55.32,7.63,1.86,15.2,3.04,22.73.65,4.16,1.06,8.37,1.55,12.54.41,3.41,1.94,7.61,1.39,11.04-.04.27.38.14.44-.03,1.67-4.63-.57-11.8-.91-16.63Z"/>
                    <path class="cls-11" d="m107.03,262.32s-.02,0-.02,0c-.37,15.9.18,32.17,1.98,47.97.09.77,1.39.1,1.38-.53-.37-15.75-1.17-31.85-3.33-47.45Z"/>
                    <path class="cls-11" d="m91.3,341.55c-.84-12.28-1.48-24.55-2.82-36.8-1.31-12.01-4.09-23.74-4.99-35.82-.03-.4-.73-.06-.72.27.25,11.42,2.24,22.43,3.28,33.76,1.12,12.3,1.94,24.63,2.47,36.96,1.08,25.12,4.84,50.15,6.31,75.27.04.63,1.24.17,1.24-.34,0-24.52-3.09-48.87-4.77-73.3Z"/>
                    <path class="cls-11" d="m79.82,282.62c-.06-.46-.9-.08-.86.33,1.37,12.92,1.82,25.91,3.31,38.82.09.81,1.58.14,1.5-.58-1.51-12.84-2.33-25.74-3.94-38.57Z"/>
                  </g>
                  <g>
                    <path class="cls-2" d="m223.53,393.1c1.03-7.38,2.34-14.64,3.17-22.05,1.38-12.3,2.3-24.69,1.48-37.05-.74-11.09-3.11-23.96-10.37-32.81-7.78-9.47-18.89-15.58-30.86-17.93-22.08-4.34-42.57,14.15-48.73,33.84-4.03,12.87-4.64,27.93-4.93,41.36-.17,8.13.44,16.32.98,24.42.31,4.65.33,9.99,1.05,14.88-.05.28-.07.56-.06.83.06.96-.18,1.87.16,2.81-3.35-.03-6.7-.08-10.05-.17.01-.18-.07-.35-.33-.35-.08,0-.16,0-.24-.01-.24-.01-.53.16-.69.36-.29.08-.6.47-.24.57-4.06-.12-4.42,11.46-1.44,13.66,2.92,2.16,6.1,2.19,9.69,2.13,6.62-.11,13.22.81,19.85.64,13.97-.37,27.92.13,41.88.41,5.4.11,10.8.45,16.21.32,3.22-.08,6.18.41,8.5-1.87.19-.19.26-.34.29-.48.84-1.17,1.03-2.93,1.18-4.37.26-2.46,1.45-5.61,1.23-8.28h0c1.38-3.51,1.75-7.13,2.26-10.84Z"/>
                    <path class="cls-14" d="m210.46,417.15c-5.21.23-10.46-.23-15.67-.31-8.19-.14-16.36-.46-24.55-.56-9.22-.11-18.45.41-27.67-.04-3.98-.2-7.94-.29-11.91-.49-4.17-.22-7.37-.67-8.33-5.48-.56-2.8.31-6.38,2.52-8.31,10.34,1.81,20.78.93,31.23,1.11,9.91.18,19.84.62,29.76.36,7.55-.2,15.68-.99,23.52-.82.09.01.19.02.3,0,2.13.05,4.22.2,6.29.44-3.95,3.22-4.76,9.79-1.11,13.75.2.21.57.15.81.1.02,0,.03-.01.05-.02,0,.02,0,.04,0,.07-1.63.39-4.14.16-5.24.22Z"/>
                    <path class="cls-14" d="m185.99,336.83c.18,1.2.19,2.41.08,3.62,1.13,0,2.27.09,3.39.23.05,0,.08.03.12.04,7.82.22,15.69.4,23.46-.27.05.57.1,1.13.14,1.7.06.72.09,1.46.12,2.2-7.51-.87-15.89-.24-23.61.25-1.1.09-2.2.18-3.3.27-.04,1.17-.16,2.32-.28,3.49.17,9.31.44,18.64.6,27.95.05.64.05,1.29.04,1.94,1.05-.05,2.09-.05,3.14.15.02,0,.03.02.05.02,7.36-.03,14.73.01,22.03-.63,0,0,.02,0,.02,0-.13,1.7-.28,3.39-.44,5.08-7.18-.01-14.53.99-21.72.8-1.03.02-2.06,0-3.06.17-.03.51-.05,1.01-.08,1.52.04,0,.08,0,.11,0,.02,5.16,0,10.31-.16,15.45-.32.19-.54.47-.47.72-1.56-.01-3.12-.02-4.67-.04.02-.03.05-.05.06-.07,2.01-3.98.5-10.98.56-15.31,0-.18,0-.36,0-.54-.13-.77-.24-1.54-.31-2.31-.85.02-1.93.04-2.86-.13-2.58-.1-5.17-.17-7.77-.16-3.72.01-7.42-.17-11.14-.2-2.12-.02-3.98.71-5.65.96.2-.03.53-.2.48-.46-.01-.06-.03-.14-.04-.2-.06-.32-.55-.14-.64.07.13-.31-.27-.26-.61-.17-.06-1.05-.13-2.08-.18-3.13,3.01-.13,22.2-1.06,27.09-1.26,0,0,0,0,0,0,.53-.1,1.07-.17,1.62-.22-.03-1.97-.02-3.95.15-5.92.01-.14.06-.25.13-.33.09-4.51.17-9.03.21-13.54.02-2.48.04-4.96.07-7.44-.02-.07-.03-.14-.03-.21.04-.62.06-1.25.05-1.87,0-.01,0-.03,0-.04-.02-1.31-.13-2.61-.2-3.91-1.27.03-2.55.04-3.83-.05-8.27.12-16.66.01-24.75,1.27.15-1.54.31-3.07.5-4.6,8.7.43,17.7-.97,26.48-1.11v.03c.55-.08,1.09-.14,1.65-.19.15-.77.27-1.55.31-2.33,0-.16,0-.34.01-.5.01-.35.02-.69.01-1.03,0-.06.01-.1.02-.15.08-2.85.17-5.7.34-8.55.48-8.39,2.28-18.53.38-26.91,1.25-.19,2.69-.39,4.01-.48-1.33,12.06-1.69,24.19-1.66,36.34Z"/>
                    <path class="cls-1" d="m188.83,300.6c7.82,2.94,15.32,9.13,18.6,16.02,3.48,7.29,4.74,14.41,5.46,22.16-8.17-.23-16.31-.09-24.46.18.07-12.79.13-25.58.39-38.37Z"/>
                    <path class="cls-1" d="m213.39,346.21c.23,7.54-.39,15.38-.8,22.8-.13,2.41-.29,4.82-.46,7.23-8.12.24-16.23.3-24.34.44-.19-7.66.5-15.35.56-23.01.02-2.39.03-4.77.05-7.16,4.01-.13,8.03-.21,12.06-.18,4.08.03,8.88-.65,12.93-.12Z"/>
                    <path class="cls-1" d="m188.14,385.43c7.73.34,15.58-1.26,23.29-1.19-.56,5.58-1.3,11.14-2.34,16.67-1.08.09-2.14.17-3.14.23-5.85.32-11.84.42-17.8.41.03-.08.05-.16.06-.25.18-5.25.12-10.57-.07-15.86Z"/>
                    <path class="cls-1" d="m153.37,378.33c-.44-10.5-.45-21.09.49-31.34,3.18-.54,10.54.3,12.58.2,4.74-.22,9.5-.19,14.24-.4-.07,2.46-.11,4.91-.1,7.36.03,7.56,0,15.13-.06,22.68-5.33.14-10.66.31-15.98.51-3.62.14-7.62-.05-11.17.98Z"/>
                    <path class="cls-1" d="m154.62,340.2c1.28-9.45,3.17-20.58,9.55-28.01,4.7-5.47,9.62-9.56,16.87-10.79.33-.05.82-.14,1.41-.24.24,12.66-.87,25.37-1.48,38.08-8.78.35-17.57.77-26.36.96Z"/>
                    <path class="cls-14" d="m185.45,299.58c-.73,0-1.44.04-2.14.08,0,0,0-.01,0-.02-.11-.38-.63-.22-.8.08-3.24.29-6.25,1.06-9.32,2.51-10.14,4.8-14.38,15.04-17.99,24.73-1.61,4.32-2.57,9.09-3.14,14-.06.14-.08.27-.04.38-.82,7.27-.77,14.8-.62,21.55.13,5.39.21,10.81.35,16.23-.04.08-.05.16,0,.24.18,7.14.46,14.28,1.07,21.37.08.99,1.81.33,1.91-.4,0-.08.02-.15.03-.23.02-.16,0-.28-.05-.38-.4-5.02-.74-10.14-1.03-15.31,8.88.83,17.86.33,26.79.62,0,2.4,0,4.8,0,7.19,0,2.66.86,6.61.14,9.21,0,.03,0,.04,0,.06-1.2-.01-2.41-.03-3.6-.04-10.1-.17-20.2-.05-30.31-.01,1.22-8.39-.03-17.68-.2-26.17-.18-9.03.2-18.06.16-27.09-.1-21.48,8.26-51.92,35.23-49.26,1.25.12,2.53.36,3.81.68-.1,0-.18,0-.24,0Z"/>
                    <path class="cls-14" d="m216.48,412.12c-.4,1.53-.85,6.86-2.2-.25-.58-3.06.84-6.63,3.41-8.39.74,1.44-.94,7.62-1.21,8.64Z"/>
                    <path class="cls-14" d="m221.8,390.81c-.61,3.48-.8,7.15-1.72,10.6-.11-.08-.27-.11-.48-.09-2.61-.74-5.6-.74-8.52-.56,4-21.09,5.03-43.75,3.72-65.13-1.25-20.44-14.8-38.4-36.48-38.85-19.63-.41-28.77,18.78-32.23,35.26-2.25,10.7-1.68,21.78-1.75,32.64-.04,6.07.24,12.17.4,18.25.04,1.61.8,18.21,1.54,18.28-.14-.01-.29.08-.38.2-3.13,0-6.26.01-9.39,0,.26-.19.43-.46.27-.73-.09-.21-.14-.44-.19-.66,1.15-9.17-.48-19.29-.83-28.66-.5-13.34.63-26.29,2.08-39.53,1.45-13.31,5.16-26.49,15.51-35.68,10.58-9.38,25.09-14.02,38.74-9.2,10.47,3.69,19.6,9.53,25.92,18.85,6.33,9.33,7.32,22.4,8.26,33.31.97,11.18-.72,23.42-1.97,34.57-.65,5.77-1.5,11.4-2.5,17.12Z"/>
                  </g>
                </g>
              </g>
              <g>
                <path class="cls-7" d="m469.81,432.69c.17-.57-.03-1.07-.93-1.12-15.11-.71-30.08-1.81-45.16-3.09-15.29-1.31-30.56-2.04-45.86-3.21-16.88-1.3-33.73-3.05-50.62-4.34-14.45-1.1-31.35,1-45.17-3.91-.27-.1-.61,0-.9.17-1.95.05-3.89.71-5.88.73-6.59.08-13.17.4-19.77.46-12.8.13-25.41.63-38.17-.72-25.51-2.7-51.14-5.93-76.81-6.43-12.15-.24-24.23.34-36.36-.1-13.05-.47-26.24-.8-39.29-.49-12.62.3-25.27-.54-37.88-.58-1.85,0-5.97-1.05-7.41.94-1.67,2.29-1.07,5.44-.47,8.1-.6,4.83-1.2,10.56,3.97,9.87,1.61-.22,3.22-.39,4.84-.53-.19,3.78.42,7.96.95,11.58,1.14,7.8,1.49,15.68,2.68,23.47,1.09,7.12,1.93,14.24,2.87,21.38.53,4.02.6,9.87,2.05,14.05-.36.12-.72.26-1.07.45-1.73.95-.54,4.43-.4,5.79.23,2.31.36,6.36.72,9.72,0,.04,0,.09,0,.14-.13,3.04-1.52,6.35.76,8.85.68.74,1.83.99,3.03,1.05-.06,4.76,1.61,6.97,6.71,7.52,8.73.93,17.72.65,26.38,2.14,19.22,3.31,39.05,4.49,58.52,5.61,19.2,1.1,38.53.13,57.64,2.43,18.99,2.28,38.33,1.99,57.38,3.78,40.76,3.83,82.05,4.35,122.98,4.9,18.06.24,36.53,1.5,54.56.34,7.5-.49,15-.18,22.48-.43,2.84-.09,3.07-3.3,4.47-4.94.22-.25.34-.48.38-.68,1.43-.07,2.86-.16,4.28-.29.94-.08,1.91-1.04,1.82-2-.12-1.2-.15-2.35-.13-3.5.48-.3.87-.73.92-1.22.35-3.72.57-7.45.83-11.18.12-1.77.97-4.84.28-6.6-.57-1.46-2.01-2.15-3.79-2.45,1.89-12.13,3.13-24.81,4.15-37.01.52-6.31,1.18-12.6,1.63-18.93.33-4.71,1.58-9.87,1-14.64.86,0,1.68-.09,2.36-.35,4.62-1.79,2.89-9.89,5.18-13.57.3-.49.35-.87.24-1.15Zm-401.26,66.49c-6.67-.23-13.32-.15-19.99-.19.48-3.65-1.25-8.13-1.61-11.76-.74-7.51-2.07-14.94-2.6-22.48-.54-7.62-1.34-15.07-1.56-22.72-.11-3.94.28-10.14-1.44-14.12,5.19,0,10.38.2,15.55.44,9.24.43,18.48.93,27.7,1.44-.01,12.48,3.08,25.33,4.1,37.74.89,10.87,1.79,21.77,3.06,32.58-7.74-.34-15.48-.67-23.21-.93Zm32.87,1.37c-2.54-10.39-1.82-22.12-2.37-32.77-.64-12.47-.55-24.88-2.25-37.27,12.11.72,24.21,1.47,36.35,2.33,4.71.33,9.42.58,14.14.81.12,11.29.37,22.58,1.65,33.81.74,6.43.41,13.04.82,19.51.31,4.79.02,10.75,1.43,15.51-16.58-.4-33.18-1.17-49.77-1.93Zm60.51,2.31c-2.19-22.78,0-45.9-1.58-68.72,15.46.48,30.93.64,46.35,1.02,2.28.06,4.56.15,6.84.22.03.02.05.04.09.05.02,0,.04,0,.06.01-1.6,12.98.28,26.59-.61,39.64-.39,5.7-.52,11.66-.13,17.38.26,3.75-1.41,10.48.04,14.31-17.01-1.57-34.02-3.18-51.06-3.92Zm100.99,9.01c-6.55-.96-13.05-2.08-19.66-2.54-7.04-.49-14.08-1.1-21.11-1.73.64-5.99.39-12.17.83-18.2.46-6.28,1.13-12.61,1.14-18.9.03-11.37,1.64-23.36.13-34.69,14.74.62,29.47,1.48,44.2,2.25.09.2.4.17.66.04.17,0,.34.02.5.03-.39,1.53-1.26,4.48-1.25,4.92.05,2.69-.34,5.38-.28,8.06.13,6.66-.63,13.35-1.09,19.99-.97,13.77-.75,27.61-.61,41.41-1.27-.22-2.49-.47-3.46-.62Zm78.28-71.35h-.04c-3.24,24.51-5.12,49.18-8.38,73.7-2.17.03-4.33.08-6.5.19-9.16.43-18.3.25-27.47.44-3.71.07-7.41-.11-11.11-.3,1.1-4.08,1.67-8.56,2.18-12.72.98-7.97,2.35-15.89,3.56-23.84,1.06-6.99,2.24-13.94,3.15-20.96.73-5.67,2.51-12.18,2.49-17.96,9.31.26,18.71,0,27.96.43,4.79.22,9.58.41,14.36.61-.1.12-.16.27-.19.42Zm52.8,67.29c-.11,1.62-.22,3.24-.32,4.87-.7,1.59-.42,2.75.86,3.46-.48-.01-1.03.32-1.23.74-2.12-.02-4.24-.05-6.35-.16-13.83-.72-27.76-1.96-41.66-2.38,2.21-24.42,4.61-49.29,4.63-73.87,12.09.55,24.16,1.24,36.24,2.64,4.53.52,9.08.61,13.63.74-1.25,12.06-2,24.15-3.34,36.2-.67,5.99-1.31,12.01-1.81,18.02-.27,3.24-.43,6.49-.65,9.74Zm39.47,10.71c-4.77-.38-9.51-1.04-14.28-1.43-5.54-.44-11.16-.38-16.79-.29,1.93-23.91,5.03-47.83,5.97-71.84.01-.37-.13-.59-.35-.71,1.63.14,3.26.31,4.88.56,10.08,1.54,20.4,1.43,30.56,1.65.51.01,1.03.04,1.54.06,0,.01,0,.03,0,.05-1.07,13.28-1.5,26.62-2.94,39.87-1.13,10.43-1.8,21.44-1.89,32-2.23.11-4.46.26-6.72.08Z"/>
                <path class="cls-14" d="m280.68,437.5c1.76.29,3.54.53,5.32.73-1.85,4.72-1.8,11.15-2.39,16.11-.8,6.64-1.8,13.28-3.13,19.83-1.24,6.11-1.52,12.64-2.18,18.84-.76,7.11-2.06,14.1-2.52,21.23-.21,0-.42,0-.62,0-.13-.57-.39-1.02-.85-1.23-.83-.39-1.37-.85-2.25-.52-1.07.4-2.49.39-3.96.23.04-14.01.13-28.05,1.08-42.02.41-6.04,1-12.1,1.07-18.15.05-4.62.73-9.73.19-14.4,2.74.14,5.48.28,8.22.41.63.03,1.58-.41,2.02-1.06Z"/>
                <path class="cls-14" d="m286.87,438.33c3.41.36,6.85.56,10.3.69-1.09.71-1.4,2.19-.91,4.47-.88,2.96-1,6.41-1.44,9.48-1.09,7.67-2.08,15.36-3.51,22.97-2.39,12.69-2.96,25.97-5.9,38.5,0,0,0,0,0,0-2.41-.12-4.82-.22-7.23-.23.86-13.47,3.33-27.11,5.05-40.51,1.49-11.58,4.74-23.59,3.63-35.36Z"/>
                <path class="cls-14" d="m348.43,440.4c-3.29,24.27-4.11,49.32-5.56,73.74-.05.04-.1.09-.14.14-2.69-.06-5.39-.09-8.08-.07,3.35-24.54,6.86-49.32,8.57-74.02,1.74.07,3.48.15,5.22.22Z"/>
                <path class="cls-14" d="m215.75,472.48c.48-6.98.25-14.05.18-21.06-.05-5.27.33-10.74-.17-15.96,2.12.07,4.24.17,6.36.25,0,.05,0,.09,0,.14-.05.06-.09.12-.05.19.02.04.04.07.07.11.83,12.29-.49,24.77-.56,37.08-.07,11.43-2.37,22.74-1.56,34.18-1.63-.15-3.26-.29-4.89-.44,0-.04.03-.08.03-.12-.12-11.37-.2-23.03.59-34.38Z"/>
                <path class="cls-14" d="m86.69,429.91c2.8.16,5.59.33,8.39.5.02.01.03.02.06.03h.01c.48,11.95.9,23.89,1.32,35.83.39,11-.16,23.38,2.42,34.17-1.58-.07-3.16-.14-4.74-.22-2.1-23.36-3.67-47.14-7.46-70.31Z"/>
                <path class="cls-14" d="m151.7,468.99c-.32-11.63-1.43-23.65-2.55-35.25,3.02.13,6.04.22,9.05.32-.44,11.01.27,22.16.45,33.17.19,11.87-.25,23.73.97,35.55-2.03-.08-4.07-.17-6.11-.23-1.52-11.02-1.51-22.46-1.81-33.56Z"/>
                <path class="cls-14" d="m25.09,426.36c-2.94.68-3.5-3.18-3.6-6.93.1-.18.18-.36.17-.54-.02-1.45,0-4.06.49-5.98,10.52-.29,21.35.35,31.86.61,12.24.3,24.45.17,36.69.57,24.56.81,49.09-.71,73.64,1.39,24.21,2.07,48.77,6.72,73.11,6.03,12.17-.35,24.43-.81,36.6-.72,3.74.03,6.68-1.85,5.47,3.07-.92,3.76-2.53,7.89-2.22,11.81-45.17-1.91-90.31-3.81-135.51-5.12-23.89-.69-47.63-3.83-71.54-4.03-11.26-.1-22.58-.95-33.85-1.18-3.86-.08-7.56.16-11.32,1.02Z"/>
                <path class="cls-14" d="m36.81,483.94c-.9-6.32-1.34-12.68-2.43-18.97-2.07-11.96-3.73-24.53-4.47-36.69,2.98-.22,5.97-.33,8.97-.36,2.33,5.33,1.46,14.34,1.48,19.91.02,6.01.99,11.91,1.49,17.88.56,6.66,1.29,13.31,2.2,19.93.54,3.94,2.47,9.24,2.14,13.33-.4,0-.8,0-1.2-.01-1.92-.03-4.06-.48-6.09-.43-1.2-4.54-1.43-10.03-2.08-14.59Z"/>
                <path class="cls-14" d="m38.53,512.12c-.06-4.32-.32-7.49-1.32-11.31.04-.04.08-.05.13-.07.3.35.88.3,1.33.03,1.75.13,3.6.5,5.28.62,13.04.85,26.16.02,39.21.93,2.97.2,5.95.39,8.93.56.02.14.03.29.05.43.12,1,1.6.48,2.06-.32,21.55,1.17,43.26,1.55,64.79,2.27.42.02.84.04,1.26.06.14.05.3.05.48.02,25.46.96,50.83,4.45,76.24,6.2,6.88.47,13.6,1.07,20.38,2.28,3.11.56,9.36,2.5,12.24,1.7.18-.05.32-.06.48-.07,0,.04-.03.07-.03.1,0,.15,0,.31,0,.46,0,.97,1.12.79,1.71.23,1.15,2.11-.28,7.62-.37,9.64-.18,4-1.35,8.31-.83,12.28-3.51-.16-7.12-.92-10.54-1.15-5.49-.38-10.91-1.05-16.38-1.6-10.99-1.09-22.2-2.17-33.24-2.45-11.12-.28-22.23-1.49-33.34-2.1-11.63-.64-23.27-.73-34.89-1.53-22.32-1.55-44.55-4.01-66.86-5.57-10.83-.75-21.57-1.66-32.41-1.69-5.57-.02-4.3-6.25-4.35-9.95Z"/>
                <path class="cls-14" d="m446.2,547.39c-.13,1.85-6.08.73-7.81.79-7.1.2-14.25.9-21.34.43-8.18-.53-16.49.36-24.7.1-8.9-.28-17.8-.22-26.7-.42-18.79-.43-37.55-1.17-56.35-1.6-19.28-.44-38.75-.25-57.92-2.63-16.4-2.04-33.02-2.95-49.55-3.36-8.66-.22-17.24-1.62-25.9-2.06-9.33-.48-18.69-.64-28.04-.71-18.38-.14-36.6-2.4-54.91-3.65-8.86-.61-17.5-2.61-26.35-3.19-4.44-.29-8.83-.27-13.27-.41-2-.06-4.03-.61-6.01-.85-1.72-1.15-3.44-2.3-5.16-3.45-.19-.56-.53-1.04-.93-1.49.64-.03,1.25-.07,1.73-.06,5.78.05,11.42.27,17.19.72,24.35,1.89,48.65,4.26,73.02,5.93,24.51,1.68,49.05,2.42,73.56,4.11,11.9.82,23.8,1.64,35.71,2.46,5.47.37,10.9,1.21,16.39,1.59,4.1.28,8.33,1.26,12.45,1.07,4.5,1.44,9.45.66,14.12.7,7.93.06,15.83,1.25,23.77,1.4,16.1.29,32.16,2.47,48.26,3.01,16.55.56,32.71.45,49.25-.46,13.61-.75,27.33.7,40.92.33-.59.47-1.4.88-1.46,1.7Z"/>
                <path class="cls-14" d="m455.6,525.68c-.41,3.18-.58,6.46-.71,9.71-.11.14-.19.28-.23.42-.68,2.41-.94,4.55-.87,6.88-15.17,1.06-30.61-.89-45.85-.12-16.54.83-32.7,1.01-49.25.45-15.42-.53-30.78-2.1-46.18-2.88-6.98-.36-13.93-.61-20.91-1.07-3.47-.23-6.94-.24-10.41.02-1.25.09-4.03,0-6.24.05.16-.6-.12-1.14-1.15-1.04-.09,0-.18,0-.27.01-1.07-4.94.51-11.96.84-16.97.06-.85.64-2.86.84-4.7,9.68,1.09,38.76,1.23,42.49,1.14,18.27-.44,36.33.14,54.58,1.17,8.96.5,17.88,1.14,26.86,1.28,8.69.13,17.32-.32,25.97.61,5.07.54,10.05.54,15.05.62,0,.05,0,.1,0,.15,0,1.08,1.47.63,1.82-.11,1.23.03,2.46.07,3.7.13.13.14.3.22.52.24.25.02.54-.05.81-.16.22.01.45.02.67.04,3.23.22,8.64-1.5,7.92,4.13Z"/>
                <path class="cls-14" d="m401.53,443.91c1.96.06,3.91.15,5.86.3-.61.11-1.29.58-1.34,1.16-2.05,23.8-4.6,47.66-6,71.47-1.47.02-2.94.04-4.4.04,1.4-11.65,1.81-23.45,3.06-35.13,1.35-12.6,2.68-25.17,2.82-37.85Z"/>
                <path class="cls-14" d="m445.64,518.44c-.2,0-.4,0-.58-.02-.9-.06-1.79-.07-2.68-.05,1.22-10.75,1.02-21.56,2.12-32.34,1.33-12.93,2.82-26.38,2.46-39.44,1.11.05,2.22.11,3.34.17-.95,23.95-3.08,47.76-4.67,71.67Z"/>
                <path class="cls-14" d="m456.75,484.45c-.94,11.2-3.48,22.41-3.5,33.7-1.69-.06-3.5.08-5.09.18.89-12.48,1.58-24.97,2.79-37.42,1.08-11.09,2.44-22.84,1.33-34.02,1.19.08,2.37.15,3.56.24s2.72.37,4.25.54c0,.04,0,.07,0,.11-.06.17-.03.27.06.33.16,11.95-2.4,24.46-3.4,36.35Z"/>
                <path class="cls-14" d="m464.87,438.71c-.77,3.28-.06,6.03-3.52,5.78-9.08-.67-18.12-.97-27.22-1.15-8.28-.17-16.41-1.12-24.62-2.06-9.02-1.04-18.15-.66-27.2-1.65-17.99-1.97-35.98-2.3-54.04-2.95-8.14-.3-16.25-.59-24.39-.52-3.83.03-7.66.08-11.49.12-4.06.05-7.78-.77-11.75-.98-.68-5.08,2.92-10.03,3.14-15.05,2.98,1.17,6.76,1.24,9.63,1.47,7.53.62,15.04,1.13,22.59,1.31,17.57.42,35.2,2.83,52.7,4.34,16.3,1.41,32.62,1.9,48.88,3.49,16.22,1.58,32.41,2.62,48.67,3.4-.68,1.39-.94,2.64-1.36,4.45Z"/>
              </g>
              <g>
                <g>
                  <path class="cls-7" d="m758.42,557.14c-.09-.43-.16-.84-.22-1.23.12-1.07.26-2.09.49-2.98.16-.62-.19-.87-.69-.89.04-3.09.12-4.48-5.14-5.36-9.24-1.54-18.77-2.25-28.11-2.83-20.89-1.29-41.81-2.21-62.71-3.56-21.43-1.38-42.77-3.72-64.22-4.96-9.86-.56-19.74-.79-29.59-1.34-4.86-.27-9.79.02-14.66-.19-3.35-.14-7.19-.76-10.49-.04.01-.14.02-.26.03-.35.02-.55-.82-.24-.88.15-.02.15-.06.33-.11.52-.39.22-.72.55-.79,1.01-.16,1.04-.28,2.02-.36,3-1.5,5.08-3.36,12.16.11,12.87,4.1.83,8.97.56,13.2,1.08,6.58.81,13.25.48,19.87.49,24.64.04,49.08,3.91,73.54,6.5,11.21,1.19,22.28,2.82,33.55,3.6,12.26.84,24.49,1.1,36.76,2.14,10.99.94,22.69,2.28,33.7,1.92,4.85-.16,5.74-4.3,6.23-8.44.34-.34.56-.74.48-1.11Z"/>
                  <path class="cls-14" d="m750.7,564.04c-4.77-.17-9.55-.82-14.32-1.04-9.71-.45-19.36-1.18-29.04-2.04-10.04-.89-20.11-.76-30.17-1.46-10.29-.71-20.45-2.42-30.7-3.51-20.14-2.15-40.4-5.52-60.66-6.08-10.12-.28-20.32.52-30.42-.43-3.66-.35-7.76-1.42-11.44-.98-2.15.26-1.92-5.24-1.45-9.72.26-1.01.56-2.01.91-3,.11-.29,6.18.25,6.67.26,4.89.13,9.75.43,14.64.41,8.89-.04,17.84.71,26.72,1.15,20.54,1.03,40.98,3.15,61.47,4.85,19.23,1.6,38.56,2.63,57.83,3.69,9.39.51,18.7,1.1,28.06,1.99,4.88.47,9.91.69,14.65,2.04.55.16,1.28,4.51,1.84,6.95-.44,3.35-1.13,7.03-4.59,6.92Z"/>
                </g>
                <g>
                  <path class="cls-7" d="m763.31,528.12c-.73-.04-1.46-.07-2.19-.11.33-9.34,1.57-18.69,1.95-28.04.24-6.14.58-12.28.92-18.41.22-4.14.94-8.55.12-12.64,4.65-.13,5.54-2.31,5.63-8.99,0-.16-.03-.31-.08-.43.77-.69,1.1-1.82-.19-1.91-35.73-2.64-71.31-7.73-107.11-9.73-9.28-.52-18.47.03-27.7-1.4-9.95-1.54-20.06-2.03-30.07-3.28-10.05-1.25-20.17-1.17-30.27-1.43-8.68-.23-17.01-2.95-25.53-3.04-.22,0-.46.11-.66.27-.54.1-1.11.59-1.17,1.06-.23,1.77-1.66,6.48-.6,8.18.43.68,1.14,1.11,1.97,1.4-2.06,10.34-2.34,21.26-3.07,31.74-.4,5.61-.97,11.34-1.88,16.89-.92,5.58-.49,11.35-.71,17.02-.46,0-.92-.01-1.38.02-.59.03-1.25.32-1.47.92-2.74,7.25-2.53,16.12-3.14,23.81-.01.16.01.29.06.41,0,.01-.02.03-.02.04l-.15.92c.23.62.49,1.23.8,1.81.15-.03.31-.08.47-.15.08-.03.16-.06.24-.1,20.92,3.22,42.31,1.91,63.4,4.06,24.85,2.53,49.82,2.84,74.66,5.54,23.02,2.5,46.01,2.78,69.07,4.3,5.34.35,14.18,2.44,16.83-3.71,1.57-3.65,1.64-8.88,2.1-12.8.4-3.4,1.77-8.54.21-11.69-.17-.35-.64-.49-.99-.51Zm-160.6-39.09c-1,9.61-1.52,19.13-2.06,28.75-3.66-.27-7.32-.53-10.99-.75-4.36-.26-8.69-.14-13.05.04-3.56.14-7.54-1.21-11-.7-3.83.56-7.46-.62-11.28-.68-.45,0-.89-.02-1.34-.04,1.76-10.12,2.69-20.69,3.46-30.93.82-10.95,1.81-22.3,1.42-33.32,10.08,2.07,20.53,2.99,30.75,3.74,5.76.42,11.53.83,17.3,1.22-.22,5.87-2.94,30.22-3.19,32.69Zm67.87,23.51c-.05,2.81-.17,5.55-.28,8.35-.03.82.43,2.16.45,3.29-7.1-.77-14.19-1.55-21.29-2.18-13.33-1.18-26.64-2.45-39.96-3.53,2.28-20.49,5.78-40.79,6.85-61.43,13.74.91,27.48,1.79,41.2,2.74,5.98.41,11.97.84,17.95,1.29.07,2.24-3.71,32.15-4.03,34.86-.63,5.46-.77,11.12-.88,16.62Zm79.25,14.86c-.05.05-.08.1-.12.16-13.49-.38-27.01-.25-40.53-.46-10.18-.17-20.31-1.03-30.42-2.07,1.16-10.14,1.95-20.33,2.97-30.5,1.09-10.86,2.97-21.8,3.19-32.73,14.53,1.13,29.05,2.4,43.54,3.89,5.57.57,10.55,1.44,16.2,1.56,3.3.07,6.59.43,9.88.82-2.95,19.51-.75,39.93-4.71,59.34Z"/>
                  <path class="cls-14" d="m549.26,440.64c.03-.13.03-.24.04-.34,6.38.98,12.59,3.06,19.08,3.49,9.95.65,19.93.45,29.87,1.3,20.28,1.73,40.15,4.81,60.52,5.21,18.66.37,37.43,3.13,56.02,4.66,17.35,1.43,34.67,3.76,52.04,4.95-.41.62-.41,1.32.57,1.39.05,0-.46,2.29-.48,3.17-.07,3.22-3.74,2.02-5.4,1.89-4.53-.36-9.03-1.01-13.56-1.36-9.38-.74-18.59-1.79-27.97-2.76-20.4-2.11-40.98-3.42-61.46-4.78-19.69-1.29-39.44-2.85-59.14-4.03-9.99-.59-19.82-1.9-29.77-2.77-5.43-.48-10.62-1.46-15.93-2.68-4.74-1.08-4.8-2.77-4.73-6.85.15-.14.27-.3.3-.48Z"/>
                  <path class="cls-14" d="m760.45,503.08c-.41,8.17-1.71,16.6-1.61,24.81-2.17-.11-4.34-.19-6.51-.27,2.05-9.58,2.03-19.53,2.77-29.28.76-10.04,1.5-20.02,1.34-30.06,1.35.16,2.7.32,4.05.45.9.09,1.7.14,2.43.17.29,5.1-.87,10.63-1.29,15.63-.51,6.18-.88,12.35-1.19,18.55Z"/>
                  <path class="cls-14" d="m676.85,524.82c-1.48-.15-2.96-.31-4.44-.47.78-1.72.14-4.11.3-5.95.51-6.08.68-12.23,1.06-18.33.79-12.88,3.89-25.91,3.54-38.87,1.87.14,3.73.29,5.6.43-2.95,20.83-5.54,42.16-6.05,63.19Z"/>
                  <path class="cls-14" d="m607.22,518.27c-1.45-.11-2.89-.24-4.34-.35,1.57-20.41,3.91-41.03,4.08-61.52,2.27.15,4.54.3,6.81.45-.87,11-1.77,21.78-3.35,32.71-1.36,9.4-3.23,19.18-3.2,28.71Z"/>
                  <path class="cls-14" d="m553.77,485.17c-.41,6.05-.96,12.06-1.94,18.04-.55,3.36-1.81,8.48-1.32,12.31-2.03-.12-4.06-.26-6.08-.29.96-6.88,3.41-31.47,3.6-34.38.21-3.16,1.55-24.25,1.48-30.91,1.66.34,3.52.37,4.76.67.69.16,1.4.3,2.09.45-1.9,11.21-1.84,22.8-2.6,34.11Z"/>
                  <path class="cls-14" d="m760.02,545.28c-.29,2.15-.66,4.3-1.01,6.44-.6,3.66-1.76,2.55-5.52,2.67-5.64.18-11.3-.47-16.93-.86-20.65-1.48-41.22-1.79-61.86-4.06-21.3-2.34-42.66-3.21-64.04-4.68-10.04-.69-20.09-2.5-30.16-2.35-10.84.17-21.7-.29-32.51-1.04-3.02-.21-6.06-.81-9.09-.86,0-.21-.01-.41-.02-.62.05-.1.1-.21.1-.32.42-5.94.91-11.86,1.28-17.8.3-.17.55-.46.47-.77-.06-.27-.13-.54-.19-.81.47-1.82,1.1-3.01,1.94-3.01,0,0,.02,0,.02,0v.09c.71.06,1.42.17,2.12.28,0-.12,0-.23-.07-.32,2.13.03,4.28.13,6.44.25.26.4.78.35,1.2.08,4.95.3,9.94.75,14.74,1.2,8.93.83,17.91.39,26.89.82,10.93.51,21.97,1.38,32.82,2.81,20.01,2.65,40.21,4.34,60.3,6.23,20.91,1.97,41.98-.06,62.81,2.3,1.4.16,11.64-.18,11.4,1.37-.66,4.26-.57,8.67-1.16,12.96Z"/>
                </g>
              </g>
            </g>
            <path class="cls-14" d="m686.8,337.75c13.35,4.31,15.07,16.88,15.96,29.04.71,9.75-.27,19.34-2.08,28.84-.68-.36-1.51-.54-2.39-.64.76-5.07.57-10.46.66-15.53.12-6.5.81-12.89.25-19.39-.99-11.3-9.16-18-19.98-19.63-9.12-1.38-19.6,5.86-24.18,13.09-6.6,10.4-8.3,25.56-7.5,37.76-1.41.09-2.74.29-3.86.69.3-.11.74-.69.25-.86h-.03s.02-.02.03-.03c-.2-.15-.45-.11-.66,0,.49-24.18,10.63-63.98,43.55-53.35Z"/>
            <path class="cls-14" d="m699.1,403.04c-2.89.13-5.92-.1-8.82-.17-5.67-.12-11.44-.59-17.11-1.02-7.01-.53-13.95-1.6-20.96-2.08-2.4-.17-9.85.48-9.74-3.86.04-1.59-.21-3.12,1.64-2.71.13.03.35-.05.52-.17,4.4.93,9.42.33,13.82,1.25,4.87,1.02,10.08,1.05,15.03,1.37,5.65.37,11.36.23,16.98.91,1.8.21,3.96.52,6.05.59.16.22.56.19.92.01,1.05,0,2.07-.06,3-.24-.07.4.21.53.55.5,1.14,1.38.13,5.53-1.88,5.62Z"/>
          </g>
          <path class="cls-1" d="m154.39,384.84s7.36.51,25.79.47c0,0-.33,10.04.3,11.62,0,0,.21,1.15,0,4h-25.06l-1.02-15.87"/>
        </g>
      </g>
    </g>
  </g>
</svg>