<?xml version="1.0" encoding="UTF-8"?>
<svg id="Layer_2" data-name="Layer 2" xmlns="http://www.w3.org/2000/svg" viewBox="0 0 135.62 109.5">
  <g id="Layer_1-2" data-name="Layer 1">
    <g>
      <path d="m112.21,82.22c.2.25.39.6.41.78s-.13.12-.33-.13c-.2-.25-.39-.6-.41-.78s.13-.12.33.13Z"/>
      <path d="m0,108c.48.54.98,1.06,1.52,1.49.58-.14,1.15-.33,1.6-.4,2.64-1.32,3.43-2.52,3.9-5.84.48-3.43,1.53-6.6,2.77-8.38.78-1.11,2.91-2.8,3.89-3.16,1.47-1.34,3.69-1.47,5.6-1.95.01,0,.02,0,.03,0l2.54-1.18c3.26-1.51,7.55-4.36,8.32-5.54.21-.31.52-.58.7-.6s1.51.8,2.95,1.83c3.24,2.3,4.91,4.47,5.42,7.04.64,3.22,1.2,4.33,2.51,4.99.66.33,2.9,1.78,4.99,3.23,2.09,1.44,4.78,3.24,5.98,4l1.75,1.1c.56,0,1.11.1,1.63.3.15-.03.29-.06.39-.07.85-.11,1.7-.11,2.55-.11.41-.1,1.05-.17,1.51-.16.08,0,.14,0,.17.02.14,0,.29,0,.43.03.27-1.27.52-2.54.88-3.79-.1-.22-.2-.44-.28-.68-.8-.4-1.59-.82-2.36-1.28-.1-.06-.21-.13-.31-.2-.85-.52-1.61-1.16-2.25-1.91-.75-.14-1.39-.12-1.73.11-1.08.74-3.72-.83-5.27-3.13-.49-.72-.84-1.79-.97-2.94-.19-1.7-.16-1.81.6-1.89,1.78-.2,3.58-6.44,2.94-10.2-.18-1.08-.28-1.97-.22-1.98s.86.47,1.77,1.06c2.53,1.65,2.81,1.64,2.43-.16l-.32-1.5.66.75c1.14,1.29,2.87,2.65,3.31,2.6.68-.08.46-.43-.97-1.6-.73-.6-1.25-1.2-1.15-1.33.37-.47,4.43,3.13,4.78,4.24.08.26.15.45.21.58.03,0,.07-.01.1-.01.18-.02.37-.03.55-.04.3-.35.32-.79.07-1.69-.32-1.16-.3-1.23.25-.87.33.22.86.86,1.18,1.44.52.93.68,1.01,1.52.74.86-.27.92-.24.67.38-.06.14-.15.31-.28.48,1.71.57,3.26,1.61,4.38,2.99.32.09.65.18.94.3.17.03.34.07.51.1.66.12,1.32.2,1.98.26,1.1.11,2.16.46,3.12,1,.41.11.83.24,1.27.42.7.28,1.38.68,2,1.15.17.02.28.09.26.2.44.36.86.76,1.22,1.2.64.29,1.31.26,3.23-.02,1.77-.26,2.84-.27,3.13-.04.34.27.04.39-1.4.56-1.01.11-1.9.35-1.98.52-.33.69,1.02.99,3.52.76,1.54-.14,2.8-.09,3.05.12.34.27.19.38-.68.48-.62.07-1.33.3-1.57.52-.33.29.07.32,1.5.12,2.66-.37,2.89-.29,1.03.38-1.22.43-1.59.73-1.61,1.26-.02.55-.33.78-1.44,1.08-1.7.45-2.89,1.62-3.86,3.79-.47,1.06-.59,2.13-.37,3.19.06.1.12.22.16.35.07.22.12.47.17.71.08.18.16.36.26.54.04.07.05.13.03.19.22.26.63.47.89.64.5.32.97.63,1.41,1,.62.11,1.24.14,1.85.22,3.62-.48,4.26-.86,5.32-2.64.86-1.44,1.1-1.64,1.56-1.34.44.29.6.25.86-.21.86-1.54,2.21-3.8,3.08-5.17,1.75-2.74,1.65-6.17-.27-8.74-.52-.7-2.47-2.58-4.33-4.18-3.54-3.04-5.03-5.01-4.77-6.3.13-.64.23-.55.75.7.77,1.83,3.11,3.92,7.28,6.49,1.75,1.08,3.81,2.42,4.58,3,1.3.96,1.37.98,1.07.25-.18-.43-.58-1.11-.9-1.5-.34-.43-.4-.64-.16-.52.48.22,3.13,4.36,3.2,4.99.1.87.98.27,1.08-.74l.11-1.06.7.72c.38.4,1.01,1.31,1.39,2.04s.82,1.31.98,1.29.21-.65.13-1.42l-.15-1.38.73.74c.4.41,1.31,1.6,2.02,2.66,1.34,1.98,1.83,2.2,1.99.85.09-.73.2-.68,1.58.79.82.87,1.96,2.14,2.54,2.82,1.49,1.76,1.96,1.74,1.57-.05-.16-.74.31-.77,1.1-.07.79.69,2.25.92,2.66.41.41-.51,1.65-.63,2.47-.24.53.25.82.19,1.46-.34.44-.37,1.08-.61,1.44-.53.45.09.77-.14,1.09-.77.36-.7.56-.83.94-.58.73.48,1.4-.38,1.27-1.62-.09-.92-.05-.97.39-.5,1.29,1.36,1.13-.39-.19-2.04-1.65-2.07-2.9-2.34-6.59-1.43-1.64.4-1.89.37-3.44-.43-1.99-1.03-3.01-1.97-8.14-7.55-2.15-2.34-4.48-4.82-5.17-5.52-.7-.7-1.56-1.64-1.92-2.1-.36-.45-1.16-1.01-1.77-1.25-1.41-.53-1.4-.52-1.19-.96.12-.24.64-.19,1.53.14,2.03.76,1.62,0-1.07-1.95-1.29-.94-2.29-1.78-2.22-1.87.07-.09-.27-.5-.75-.91-.48-.41-.91-1.06-.94-1.44-.07-.67-.06-.67.48-.11.3.32.57.76.6.99s.61.5,1.31.62c1.59.25,2.41.17,2.36-.25-.02-.18-.3-.3-.63-.26s-1.02-.29-1.53-.73c-.9-.77-.94-.89-.88-2.95.04-1.18-.05-2.47-.2-2.86-.32-.88-.13-.92.8-.17.75.6,1.73.7,1.67.16-.02-.17-.17-.37-.33-.45-.38-.18-2.54-4.59-2.63-5.35-.05-.47.15-.55,1.18-.51.68.03,1.58.11,2,.18,1.43.26,1.17-.86-.7-3.01-.97-1.11-1.77-2.18-1.79-2.38s.45-.74,1.05-1.2c.98-.74,1.19-.78,2.04-.47l.95.35-.61-1.42c-.33-.78-.69-2.18-.8-3.12-.17-1.48-.1-1.74.5-1.97.85-.33,2.73.24,5.7,1.73,2.35,1.18,4.36,1.31,5.72.37.47-.32.82-.32,1.48.02,1.21.61,2.92.22,2.95-.68.04-1.22-1.75-4.25-3.18-5.39l-1.37-1.09,1.48-.39c.81-.22,2-.68,2.65-1.02,2.13-1.14,6.09-7.26,5.47-8.46-.36-.7-3.78-1.94-12.67-4.59-.69-.21-1.61-.68-2.05-1.04-.71-.6-.76-.79-.52-1.91.19-.9.15-1.32-.14-1.56-.22-.18-.45-.73-.5-1.23-.07-.67-.26-.89-.7-.84-.33.04-1.3-.36-2.16-.87-.86-.51-2.28-1.12-3.16-1.34-1.49-.37-1.73-.59-3.43-3.03-1.67-2.4-1.88-2.89-2.39-5.6-.61-3.2-1.38-4.58-2.5-4.45-.41.05-.75.43-.91,1.01-.14.51-.82,2.53-1.5,4.48-1.35,3.85-1.32,4.69.19,5.45.48.25.91.71.94,1.04.05.45-.36.28-1.71-.72-1.51-1.12-1.89-1.62-2.55-3.36-.92-2.43-1.29-3.02-2.53-4.09-1.99-1.7-2.71-.75-3.11,4.11-.19,2.3-.63,4.55-1.2,6.18-.5,1.41-.86,2.94-.81,3.38s-.2,1.14-.55,1.55c-.48.56-.58,1.06-.42,2.01.16.95.07,1.4-.38,1.8-.33.29-.93,1.37-1.33,2.4-.15.39-.32.75-.49,1.06-.03.11-.06.21-.09.3-.03.25-.12.5-.27.72-.02.07-.05.14-.07.2-.03.12-.06.24-.09.36-.02.15-.06.3-.11.45-.04.1-.09.21-.14.31-.11.32-.22.63-.31.94-.25.87-.62,1.59-1.04,2.39-.08.16-.18.3-.3.43-.12.17-.26.33-.42.44-.12.08-.24.15-.37.22-.01,0-.03.02-.04.03,0,0,0,0-.01,0,0,0-.02,0-.02.01-.03.02-.05.04-.08.05-.07.04-.14.08-.21.11-.73.56-4.89,2.16-7.21,2.76-2.99.78-5.19,1.47-7.54,2.38-2.85,1.1-8.15,1.37-14.67.75-4.72-.45-5.67-.44-11.03.16-4.4.49-6.37.85-7.89,1.43-2.94,1.12-3.27.91-3.51-2.23-.22-2.96-.79-3.41-1.08-.88-.28,2.38-.13,3.44.65,4.47.86,1.14,1.27,1.14,3.9.08,1.74-.71,3.27-1.01,7.26-1.47,4.48-.51,5.78-.52,11.53-.09,4.29.32,7.61.39,9.82.19,2.88-.26,3.28-.23,2.99.21-.6.91-3.38,2.37-3.89,2.05-.35-.22-.18-.47.71-1.04,1.06-.67,1.08-.71.23-.45-2.45.77-5.73.82-12.14.19-5.47-.53-9.57-.33-13.39.66-1.82.47-3.81,1.07-4.41,1.32-1.38.58-2.33.7-2.13.27.09-.18-.14-.45-.49-.59-.73-.29-1.87-2.79-1.69-3.71.06-.33.26-1.32.44-2.21.18-.89.21-1.52.07-1.42-.26.21-.85-1.55-1.03-3.08-.12-1.02-.37-1.1-.85-.28-.27.47-.45.17-1.03-1.72-.78-2.55-.69-3.58.54-6.12.79-1.64.53-1.96-.68-.84l-.9.84.89-2.42c1.29-3.47,1.47-7.72.46-10.61-.69-1.96-2.7-5-3.27-4.94-.14.02-.18.93-.08,2.04.26,3.06-.34,5.46-1.85,7.39l-1.29,1.65-.44-1.19c-.24-.65-.56-1.17-.69-1.16s-.33.89-.42,1.94-.25,2.1-.37,2.33c-.01.02-.03.03-.06.02-.11.28-.3.52-.54.7-.19.23-.38.44-.57.67-.1.21-.2.42-.3.62-.45.85-.7,1.78-1,2.69-.1.32-.27.55-.47.71-.12.55-.2,1.07-.21,1.47l-.04,1.34c.09.92.12,1.84.24,2.76.03,0,.08.05.14.15.21.34.44,1.07.52,1.62.05.39.26.92.58,1.53.47.59.98,1.16,1.3,1.85.08.17.16.34.24.52.17.22.34.44.52.65.35.42.48.68.44.79,1.8,1.95,3.11,4.2,4.02,6.65.33.67.58,1.4.73,2.2.02.02.04.03.06.05.68.54.67.58-.94,2.76-.94,1.26-2.19,3.6-2.94,5.47-.97,2.43-1.6,3.51-2.46,4.22-1.32,1.09-.78,1.38,1.04.54,1.36-.62,2.17-1.94,3.58-5.88.76-2.11,1.44-3.41,2.18-4.11.59-.57,1.09-.96,1.1-.87s-.35.87-.8,1.73c-.45.87-1.35,2.94-2.01,4.61-.65,1.68-1.46,3.43-1.78,3.9-.59.85-3.92,3.12-4.7,3.21-.22.03-.39.18-.37.34.05.48.94.57,2.18.22l1.17-.33-.63,1.68c-.91,2.43-2.69,4.72-3.76,4.84-1.16.13-1.04.63.22.92.71.16,1.3.09,1.97-.23.53-.25,1.03-.4,1.11-.33.31.25-1.46,2.06-2.22,2.26-1.02.28-1.11.83-.21,1.32.58.32.7.61.63,1.5-.03.39-.02.67.04.89.36.13.67.39.85.72.34.61.25,1.24-.12,1.82-.46.73-.91,1.42-1.26,2.2l-.02.05c-.48,1.37-1.08,2.81-1.49,3.66-.2.67-.51,1.31-.98,1.9-1.01,1.27-2.2,2.58-3.71,3.25-.34.43-.85.76-1.46.94-.2.24-.4.48-.59.73-.03.08-.05.16-.08.24.04.17,0,.37-.16.56,0,0,0,0-.01.01-.22.84-.34,1.68-.43,2.24-.04.27-.07.55-.09.84.07.14.09.3.02.45-.02.04-.04.07-.06.1-.05.54-.11,1.07-.28,1.53.01,1.16-.45,3.97-1,5.85l-.42,1.45c.02.25.05.51.07.76l.44-.17c.9-.34,1.12.2.32.8-.27.2-.49.3-.68.32.02.22.03.43.04.65.02.71-.34,1.24-.83,1.53Zm18.74-42.86c-.45,1.57-1.09,1.78-.82.28.21-1.22.73-2.24,1.01-2.02.14.11.05.89-.19,1.74Zm-2.89-45.16l.12,1.14c.15,1.44-.44,2.5-1.33,2.37-.56-.08-.69.16-.87,1.62-.16,1.29-.29,1.57-.51,1.11-.19-.4-.29.07-.28,1.37.02,1.82.4,3.24,1.57,5.86.45,1-.25.66-1.03-.5-1.38-2.07-1.55-5.81-.41-9.68l.37-1.29.62.7.62.7.56-1.7.56-1.7Zm5.44,17.77c1.64,1.74.47,1.45-1.83-.46-2.01-1.67-4.12-4.23-3.53-4.3.32-.04,3.52,2.81,5.36,4.76Zm-1.11-10.02c.39-.89.78-1.56.85-1.5.08.06,0,.84-.16,1.75-.38,2.07.11,6.52.93,8.43.89,2.08.28,1.58-.91-.74-1.42-2.77-1.68-5.73-.7-7.93Zm-.61-4.3c-.54,1.24-.65,1.22-.52-.1.06-.6.34-1.7.62-2.44.28-.75.62-2.79.76-4.54l.26-3.18.16,2.9c.14,2.51.22,2.87.63,2.66.28-.15.08.56-.52,1.75-.54,1.1-1.18,2.42-1.4,2.95Zm3.66,14.87c-.18-.08-.57-.88-.87-1.76-.29-.88-.58-2.14-.64-2.81-.08-.94.05-.72.6,1.02.39,1.23.82,2.56.98,2.97.16.43.13.67-.06.58Zm49.64,12.41q.35-.83.79-.19c.48.71.82,2.9.58,3.83-.14.53-.22.53-.83-.08-.37-.37-.72-1.13-.78-1.69-.06-.56.05-1.4.24-1.86Zm6.84,26.92c-.05-.41,1.2-1.84,2.4-2.75l.96-.72-.52,1.19c-.29.65-1,1.5-1.58,1.88-1.25.82-1.22.81-1.26.4Zm1.18.65c.82-.9,1.38-1.04,1-.25-.16.34-1.22,1.06-1.68,1.15-.09.01.22-.39.68-.9Zm-.3-14.7c-.37-1.3-.16-1.55.63-.73.85.89.87,2.78.05,4.02-.41.61-.8,1.06-.88,1-.08-.06.02-.78.21-1.6.22-.94.22-1.93,0-2.69Zm-1.95-1.42c.85.75,1.12,1.26,1.24,2.36.17,1.54-.16,2.4-.47,1.22-.11-.41-.55-1.42-.99-2.24-1.11-2.09-1.05-2.45.22-1.34Zm-1.85-5.77c-.46-.44-1.07-1.37-1.35-2.07-.81-2.05-.49-2.61.51-.91.48.82.9,1.7.93,1.96s.2.45.38.43.28-.48.22-1.01c-.07-.61.06-1,.34-1.03.34-.04.42.26.35,1.22-.14,2.06-.4,2.32-1.38,1.41Zm-3.18-12.38c-.8,1.14-.85,1.17-.75.4.15-1.12.85-2.33,1.97-3.42l.93-.9.41,1.62c.3,1.16.31,2.14.05,3.48-.2,1.03-.43,1.81-.5,1.75-.08-.06-.32-.55-.55-1.09-.32-.78-.28-1.31.2-2.62l.6-1.64-.69,1.07c-.41.63-.71.87-.74.59-.03-.28-.42.04-.92.76Zm-1.15-1.71c.2-.31.65-.75,1-.98.57-.38.56-.33-.05.52-.74,1-1.57,1.41-.95.47Zm4.53-6.38c-1.05.88-1.46,1.61-1.37,2.44s-.5,1.53-1.86,2.21c-1.32.66-1.44.68-1.49.2s3-4.3,3.96-4.93c1.04-.68,1.6-.61.77.09Zm2.8,14.06c-.52-.8-1.09-1.85-1.26-2.33-.46-1.26-.81-1.03-1.18.77l-.31,1.59-.37-1.19c-.2-.66-.31-1.53-.24-1.93.43-2.63,1.09-3.47,1.29-1.66.1.88.18.95.57.54.68-.71,1.04-.22,1.92,2.61,1.14,3.68,1.08,3.92-.42,1.61Zm6.71-25.89l-.82,1.03c-1.1,1.38-1.58,4.36-1.24,7.7.26,2.61.25,2.67-.29,1.68-.39-.71-.6-1.82-.68-3.53-.12-2.79.05-3.4,1.52-5.45.77-1.08.92-1.5.6-1.75-.23-.19-.46-.7-.51-1.15-.08-.74-.02-.7.66.33l.76,1.14Zm-1.35,6.44c.4-.98.92-1.98,1.17-2.23.38-.39.43-.31.35.67-.05.62-.03,1.7.05,2.42.11,1.02.04,1.27-.36,1.17-.42-.11-.47.26-.25,2.21.24,2.16.22,2.29-.3,1.71-.31-.35-.74-1.43-.97-2.4-.36-1.55-.32-1.99.31-3.54Zm3.31-21.6c.08.57-.12,2.06-.43,3.3-.69,2.72-.56,4.25.48,5.77.94,1.36.96,1.46.38,1.52-.48.05-.73,1.05-.6,2.33.07.66,0,.72-.47.41-.3-.2-.89-.74-1.31-1.21-.6-.67-.65-.82-.22-.71.76.2,1.5-.69,1.22-1.47-.38-1.08-.23-5.08.31-8.14.37-2.09.54-2.58.65-1.81Zm3.14,6.33c-.07.1-.48-.15-.9-.56l-.77-.74.3.79c.17.44.44,1.14.6,1.58.25.65.22.73-.19.43-.29-.22-.65-1.29-.87-2.62-.23-1.34-.26-2.27-.07-2.29.35-.04,2.1,3.13,1.88,3.42Zm6.24,1.39c.59-.33,1.14-.54,1.22-.48.08.06-.66,1.23-1.64,2.59-.99,1.36-1.96,2.92-2.17,3.46-.48,1.27-1.88,2.73-2.7,2.83-.57.06-.53-.11.36-1.42.56-.82.99-1.72.96-2-.07-.68.91-2.76,1.33-2.81.19-.02-.03.82-.48,1.87-.44,1.05-.64,1.89-.44,1.86s.58-.75.84-1.62c.7-2.33,1.52-3.61,2.72-4.28Zm-.27,3.84c-1.66,1.13-1.77,1.16-1.4.44.86-1.7,3.13-3.45,5.39-4.14,1.2-.37,2.46-.59,2.81-.5.57.15.56.21-.14.7-.42.29-.73.8-.7,1.14.07.62-1.36,3.24-2.39,4.4-.71.8-1.27.89-1.08.18.08-.3.12-.75.09-1s.47-1.11,1.1-1.91c1.43-1.79,1.11-1.83-.63-.09-.72.71-1.43,1.31-1.58,1.33-.42.05-.43-.75-.02-1.29.2-.26-.45.08-1.44.75Zm11.02,5.4c-.82.09-2.01-.63-2.31-1.4-.23-.6-.17-.59.61.09,1,.86,1.47.88,2.37.08.59-.52.66-.52.84-.01.28.79-.64,2.91-1.6,3.66-1.32,1.04-1.44.81-.33-.63,1.16-1.51,1.25-1.88.4-1.79Zm-.97-3.5c.27-.58,1.19.09,1.02.74-.12.45-.2.46-.67.08-.29-.23-.45-.61-.35-.83Zm.88,1.86c-.21.43-.47.46-1.14.13-.41-.2-.32-.28.39-.37.53-.06.85.04.75.24Zm-3.79-1.46c-.34.24-1.19.6-1.89.8s-1.35.39-1.44.42c-.09.03.11-.21.44-.53.77-.75,4.01-2.89,4.44-2.94s-.76,1.69-1.55,2.25Zm-3.14-12.87c-.79-1.23-1.37-2.34-1.27-2.46.1-.12.61.53,1.15,1.45,1.59,2.74,1.67,3.43.12,1.01Zm10.25,7.19c.05.45-.06.83-.23.85s-.37-.33-.42-.78.06-.83.23-.85.37.33.42.78Zm12.55,12.28c.18-.02.43.1.56.27.13.17.09.32-.09.34s-.43-.1-.56-.27c-.13-.17-.09-.32.09-.34Zm-.82-1.76c-.01-.09.1-.46.25-.83.3-.75,1.22-.96,2.31-.53l.73.29-.7.48c-.69.48-2.55.9-2.59.58Zm-3.19-1.87c-1.23-.48-3.38-1.21-4.79-1.62-2.57-.75-4.22-1.58-4.13-2.09.03-.15-.15-.55-.39-.89-.24-.34-.71-1.49-1.05-2.56-.34-1.07-.73-2.07-.86-2.23-.14-.16-1.21-.65-2.39-1.1-1.89-.72-2.45-.78-4.77-.52-2.02.23-2.96.17-4.03-.23-.77-.29-1.32-.62-1.22-.74.43-.54,5.66-.31,9.44.42,2.12.41,3.13,1.33,4.27,3.89,1.59,3.57,2.36,4.24,5.9,5.08.71.17,2.65.79,4.31,1.37,2.43.85,2.95,1.15,2.69,1.54-.43.66-.44.66-2.98-.34Zm-3.56,1.29c.4-.12,1.05-.19,1.47-.16.41.03.09.14-.72.23s-1.14.06-.75-.06Zm4.29,3.74c-2.67,2.99-3.73,3.67-3.09,2,.41-1.08,2.64-3.63,3.21-3.68.19-.02.65.15,1.02.37.64.38.61.47-.64,2.04-1.83,2.29-2.5,2.16-.76-.15,1.12-1.49,1.17-1.61.25-.58Zm-5.27,7.2c-1.19-1.24-1.21-1.29-.45-1.17,3.46.56,5.1,1.61,6.54,4.19.79,1.42.79,1.43-.09,1.53-.48.05-1.45-.51-2.75-1.59-1.1-.92-2.56-2.25-3.25-2.97Zm-1.01,1.39c-.28.03-.52,0-.52-.09-.04-.35.57-.56.79-.28.13.17.01.33-.27.37Zm-9.22-2.51c.12-.48.22-.45.63.19.58.9,4.09,2.24,6.95,2.65,1.09.16,2.33.55,2.77.88.44.33,1.06.52,1.38.43.35-.1.66.05.76.38.16.48-.06.47-1.74-.06-1.06-.33-2.27-.77-2.69-.98-.42-.21-1.29-.42-1.93-.48-1.34-.12-5.64-1.64-6.01-2.13-.14-.18-.19-.58-.11-.89Zm8.02,1.4c-.91.31-1.88-.03-2.5-.88-.83-1.14-.4-1.36,1.28-.66,1.64.69,2.08,1.25,1.22,1.54Zm-4.75-2.21c-.36-.34-.6-.69-.52-.79.23-.28,1.48.32,1.75.84.36.7-.46.67-1.23-.05Zm-4.6,9.33c.03-.83.24-1.7.47-1.94.34-.35.44-.2.55.84.13,1.16-.5,3.06-.91,2.74-.09-.08-.14-.82-.12-1.65Zm-3.68-12.89c-.79.59-1.56,1.39-1.71,1.76-.23.58-.17.67.47.61.73-.07.72-.05-.09.71-.92.87-1.95,3.34-2.14,5.14-.1,1-.17,1.08-.45.55-.18-.34-.38-.99-.44-1.43-.06-.45.11-1.47.37-2.28l.48-1.47-.93.7c-.51.38-1.25,1.16-1.62,1.72-.38.56-.79.94-.92.84-.46-.37.62-2.58,1.77-3.63.65-.59,1.86-1.84,2.7-2.78l1.52-1.71-1.35.15c-2.71.3-5.55,2.78-6.58,5.73l-.73,2.09-.27-1.15c-.2-.84-.04-1.78.56-3.48.45-1.28.8-2.56.77-2.83s.13-.84.36-1.26c.47-.85.02-1.29-.85-.84-.45.23-.45.3,0,.53.42.21.33.45-.52,1.34-.57.59-1.09.96-1.17.8-.2-.41,1.94-4.33,2.85-5.23,1.56-1.53,2.83-1,1.7.71-.82,1.23-.85,1.81-.09,1.72.49-.05.5,0,.11.56-.36.53-1.27,2.77-1.24,3.05,0,.05.66-.38,1.46-.96,1.43-1.03,1.53-1.06,7.64-1.74,5.19-.58,6.38-.81,7.38-1.41.98-.59,1.13-.62.84-.17-.55.85,0,.97.92.21l.83-.69-.48.94c-.42.83-.41.96.05,1.08.29.07.88,0,1.31-.16.46-.17.81-.16.83.04.1.86,3.21-.22,5.08-1.75.58-.48,1.47-1.02,1.98-1.2,1.47-.54.77.35-1.15,1.47-.92.54-1.67,1.06-1.65,1.16s.43-.08.93-.41c1.39-.93,1.86-.81.87.23-1.32,1.38-4.63,3.73-5.11,3.62-.23-.05.15-.57.86-1.16,1.58-1.32,1.66-1.68.11-.52-.62.47-1.35.92-1.62,1.01-.27.09-.88.3-1.35.48-.98.37-1.18.08-.41-.63.43-.4.26-.42-1.09-.13-1.53.33-1.58.32-1.01-.27.55-.57.53-.57-.42.02-.83.53-1.23.59-2.33.39-1.59-.29-1.52-.78.15-.99.66-.08,1.62-.41,2.12-.73l.92-.58-1.11.36c-.61.19-1.48.38-1.93.41s-1.92.13-3.27.22c-2.21.15-2.6.27-3.89,1.24Zm1.74,16.99c.09-.11.38.12.63.52.26.4,1.24,1.36,2.17,2.13.93.78,1.38,1.3,1,1.15-.38-.14-1.12-.63-1.65-1.09-1.27-1.1-2.35-2.46-2.15-2.71Zm-6.39.27c-2.05-.39-5.88-2.19-8.64-4.06-2.23-1.51-5.13-4.41-6.29-6.31-1.58-2.57-1.88-3.81-1.27-5.3l.5-1.21.15,1.23c.21,1.67,1.6,4.47,3.14,6.31,3.7,4.41,11.3,8.49,16.25,8.73,1.89.09,2.11-.59.28-.85-4.27-.6-7.32-1.8-11.33-4.45-4.23-2.8-7.3-6.73-7.67-9.8-.21-1.78.29-2.15.75-.55,1.38,4.81,8.18,10.54,15.49,13.04,4.24,1.45,4.16,1.45,4.87.04.83-1.66,1.27-1.59.97.14-.19,1.11-.51,1.62-1.45,2.3-1.49,1.08-2.95,1.27-5.73.74Zm-14.75-.31l-.03-1.18.7,1.2c.39.66.76,1.51.83,1.89.09.55.13.57.2.1.05-.32.31-.61.59-.64.42-.05.5.22.47,1.48-.02.84,0,1.84.03,2.22.07.68.06.68-.48.11-.3-.32-.94-1.35-1.42-2.29-.48-.94-.88-2.24-.9-2.89Zm13.05,13.84l.33,1.19c.18.65.25,1.46.16,1.8-.12.44-.5-.1-1.35-1.93-.66-1.4-1.65-3.16-2.21-3.9-.56-.75-1.27-1.53-1.57-1.73-.77-.5-2.33-4.24-2.64-6.29l-.25-1.67-.57.83c-.31.46-.77,1.22-1.03,1.7l-.46.87-.1-.73c-.06-.41.34-1.33.87-2.07.81-1.12,1.05-1.27,1.51-.97.3.2.71.96.91,1.7.73,2.71,1.78,4.86,3.25,6.65.82,1.01,1.53,2.04,1.57,2.3.04.27.15.18.26-.22.16-.6.32-.5,1.39.82.66.82,1.24,1.87,1.29,2.33l.09.83-.73-.74-.72-.74Zm6.93-5.76c-.5-1.14-.93-2.3-.96-2.58-.11-.94,1.26.37,1.72,1.64.39,1.09.56,2.97.27,3-.07,0-.54-.92-1.03-2.06Zm1.58,13.22c-2-.87-2.36-1.19-2.17-1.94.1-.4.6-.23,2.28.82,1.18.73,2.24,1.44,2.34,1.57.4.51-.73.3-2.46-.45Zm5.51,15.04l.56.93c.31.51.7,1.36.87,1.88l.31.95-.57-.96c-.31-.53-.71-1.38-.87-1.88l-.3-.92Zm-1.96-9.65c-1.25-.83-1.46-.62-.49.48,1.01,1.14.4,1.13-.91-.03-.67-.59-2-1.71-2.95-2.5-1.28-1.05-1.75-1.67-1.83-2.39-.06-.54.02-.99.18-1.01.35-.04.78.72.87,1.52.06.55,1.16,1.51,2.2,1.93.28.11.04-.21-.55-.71-1.31-1.13-1.14-1.45.53-.96,1.25.36,3.97,2.04,3.77,2.33-.05.08.54.69,1.33,1.36.79.66,2.17,2.02,3.07,3,.91.99,2.34,2.53,3.2,3.43.85.9,2.29,2.51,3.19,3.57,2.26,2.67,3.82,3.98,6.08,5.14,2.07,1.06,1.85,1.07,6.36-.1,1.22-.32,1.55-.28,2.16.26l.71.63-.96-.25c-.53-.14-1.48-.09-2.11.11-.93.29-1.03.38-.48.51.59.14.51.26-.55.99-1.57,1.06-3.36,1.3-4.2.56-.55-.49-.57-.58-.15-.73.3-.1-.21-.51-1.33-1.05l-1.81-.89,1.25.89,1.25.89-1.16-.47c-.64-.26-1.74-1-2.43-1.65-.72-.66-1.14-.9-.97-.55l.3.63-.59-.59c-.33-.33-.61-.71-.64-.86-.02-.15-.72-1.02-1.55-1.94-1.49-1.65-1.51-1.66-1.21-.58.26.97.16.9-.84-.65-.63-.96-1.91-2.42-2.85-3.26-.94-.83-1.72-1.67-1.75-1.86s-.13-.24-.23-.11c-.25.31-2.84-3.32-2.78-3.89.02-.23-.48-.77-1.11-1.2Zm-5.8,6.36l1.89.67c2.56.9,3.71,1.84,4.72,3.81,1.05,2.08,1.1,2.48.12,1.04-.41-.61-1.29-1.51-1.94-2.02-.65-.5-2-1.5-2.98-2.21l-1.79-1.29Zm-4.63-20.49c-1.43-2.36-2.48-5.17-1.52-4.05,1.78,2.07,2.22,2.78,2.71,4.4.3,1,.63,1.88.72,1.96.1.07.02-1.06-.16-2.53-.2-1.6-.21-2.83,0-3.08.18-.22.28-.86.22-1.4l-.1-.99.76.74c1.73,1.69,2.24,2.57,2.42,4.15.21,1.86,0,1.79-1.26-.43-.75-1.3-.92-1.45-.89-.79.03.68-.03.62-.35-.29-.24-.71-.23-.28.05,1.18.31,1.62.33,2.86.1,4.23-.19,1.06-.41,1.88-.49,1.82-.08-.07-.31-.69-.5-1.38-.19-.69-.96-2.28-1.71-3.52Zm-2.4,11.2c.55-.9,1.5-2.07,2.11-2.58,1.21-1.04,1.15-.79-.4,1.72-1.12,1.8-1.53,3.47-1.33,5.31.19,1.73-.63.81-1.05-1.17-.32-1.5-.26-1.77.66-3.28Zm-5.33-13.02c-1.5-1.15-1.66-1.21-1.59-.55.05.4.38,1.18.74,1.72.63.93.63.96.03.57-.34-.23-.83-.41-1.08-.43-.6-.02-3.09-1.58-4.01-2.51-.41-.41-.76-.56-.8-.34-.13.61-2.16-1.72-2.6-2.98-.22-.63-.35-1.21-.3-1.28.06-.07.72.59,1.47,1.47,1.13,1.33,1.35,1.47,1.27.82l-.09-.78.94.7c.51.38,1.37,1.27,1.9,1.99,1.15,1.54,1.32,1.6.79.3-.22-.53-.32-1.27-.23-1.65.15-.62.22-.64.66-.22.27.26.66.45.88.43.62-.07,4.69,3.46,5.63,4.89,1.29,1.95,1.09,2.18-.51.59-.79-.79-2.19-2.01-3.11-2.72Zm1.42,10.05c-1.12,2.4-1.56,2.55-.99.32.39-1.5,1.35-2.95,1.76-2.62.12.1-.23,1.13-.77,2.3Zm5.27,24.47c-.02,1.75-2.4,6.19-3.97,7.41-.92.71-.93.71-1.12.06-.1-.37.05-1,.34-1.41q.52-.74-1.17-.32c-.93.23-1.93.54-2.23.69-.98.5.07-.79,1.1-1.36.85-.47.88-.54.3-.87-.54-.31-.42-.36.86-.37h1.48s-1.14-.39-1.14-.39c-1.6-.53-1.14-1.05,1.14-1.31,1.81-.2,1.96-.28,2.18-1.12.13-.5.13-1.09.02-1.32-.15-.29.08-.45.75-.52,1.36-.15,1.46-.1,1.45.83Zm-7.36-15.82v-.99s.9,1.33.9,1.33c.5.73.96,1.27,1.02,1.2.06-.08-.11-.77-.37-1.54-.27-.77-.48-1.78-.48-2.25,0-.65.24-.35,1.01,1.27,1.17,2.47,3.26,4.81,6.65,7.42,3.44,2.65,4.86,5.12,4.42,7.75-.11.69-.21.55-.54-.82-.22-.91-.75-2.05-1.17-2.52-1.3-1.45-4.41-3.61-4.78-3.32-.22.17-.27.12-.15-.14.11-.23-.24-.82-.81-1.36-.83-.79-.95-.83-.71-.24.16.39.42,1.03.57,1.42.16.41-.36.04-1.26-.91-.85-.89-1.52-1.41-1.5-1.15s-.6-.57-1.37-1.84c-.88-1.44-1.42-2.69-1.43-3.3Zm-1.35-8.82c.22-.34-.14-.16-.8.41-.65.55-1.23.98-1.28.94-.05-.04.25-1.02.68-2.19.42-1.16.7-2.27.61-2.46-.09-.19-.81.33-1.6,1.15-.79.82-1.52,1.43-1.61,1.36-.09-.07,0-.92.2-1.88.23-1.06.25-2.2.05-2.91l-.32-1.17.72.7c.4.38.74.9.77,1.15.08.69.61.48.72-.28.11-.8,1.05-.99,1.41-.3.21.4.3.4.48.03.17-.35.24-.33.3.12.04.32.3.64.58.71.66.17.78,1.34.24,2.33-.53.97-.02.97.68,0,.65-.9,1.03-.96.91-.14-.13.88-1.64,2.63-2.47,2.85-.6.16-.64.12-.29-.42Zm.01,9.23c-.11-.93-.06-1.8.11-1.93.19-.15.4.64.56,2.14.18,1.66.15,2.24-.11,1.93-.2-.25-.46-1.21-.56-2.14Zm-.82.87c-.15.51-.22.46-.39-.3-.12-.51-.07-1.1.1-1.31.37-.47.57.63.29,1.61Zm.97,7.91c.47.14.03.27-1.37.4-1.13.11-2.14.08-2.25-.05-.26-.32,2.74-.61,3.62-.35Zm-10.41-3.98c.08-.1.98.16,2,.58,1.02.43,2.7.93,3.74,1.13,1.04.2,2.27.6,2.74.9l.85.54-.79-.13c-.44-.07-1.72-.29-2.86-.48-3.73-.63-6.29-1.78-5.68-2.54Zm-3.6-1.52c.15-.12,1.15-.15,2.22-.06,1.07.08,2.4.13,2.94.12,1.84-.03,1.99.03.87.38-1.14.36-3.23.53-5.15.42-1.05-.06-1.42-.43-.88-.86Zm-2.39-2.91l1.48-1.23c2.16-1.79,2.77-3.16,2.5-5.6-.12-1.09-.42-2.48-.67-3.07-.64-1.56-.34-1.58.69-.05,2.23,3.33.79,9.02-2.4,9.49l-1.01.15,1.17.15c.65.08,1.48.03,1.86-.11.9-.33,1.67,0,1.1.46-.63.51-2.09.58-3.47.18l-1.25-.36Zm1.11-32.57c.19.09.38,1.13.44,2.35.06,1.2.12,2.49.14,2.85.07,1.24-1.17-.99-1.36-2.45-.19-1.47.25-3,.78-2.75Zm-1.11-.87c-.14,1.23-.44,1.97-.52,1.27s-.7-.33-.99.55c-.15.47-.31.86-.35.86-.04,0-.1-.64-.14-1.43-.06-1.39.39-2.89.89-2.95.14-.02.27.19.3.45.03.28.24.38.49.25.36-.18.42,0,.31.99Zm-1.26,9.6c.36-.16.41.07.31,1.26-.07.8.1,3.29.38,5.52.4,3.15.42,3.92.07,3.45-.24-.33-.5-.97-.58-1.42-.08-.45-.26-1.54-.39-2.43-.19-1.23-.3-1.45-.45-.94-.11.38-.18,1.12-.15,1.67l.06.98-.41-.94c-.93-2.15-.21-6.53,1.17-7.16Zm-3.09-5.64c-.06-1.54.11-2.96.45-3.84l.54-1.4-.61.68q-.61.69-.42-.41c.1-.61.42-1.42.69-1.8.45-.63,1.92-1.78,2.32-1.83s.11,1.62-.42,2.58c-1.2,2.17-1.72,5.81-1.53,10.83.01.27-.19-.15-.45-.94s-.51-2.53-.56-3.88Zm-1.29-7.3c-.64.78-1.26,1.33-1.38,1.23-.6-.47,2.32-4.1,4.37-5.44.51-.33,1.57-.77,2.36-.97,1.24-.32,1.36-.3.84.11-.33.27-1.71,1.82-3.07,3.46-1.35,1.64-2.52,2.93-2.59,2.88-.07-.05.05-.57.28-1.15.62-1.63.44-1.66-.81-.13Zm-1.23,8.25c.19-.92.55-1.87.78-2.11.36-.37.45-.27.54.6.12,1.1-.17,2.13-.91,3.2-.65.94-.82.25-.41-1.68Zm-8.78,2.48c1.27-.82,2.5-1.7,2.75-1.94.24-.24.93-.78,1.52-1.19.59-.41,1.37-1.07,1.73-1.48s.68-.61.7-.44c.02.16.27-.02.54-.42s.7-.93.97-1.19c.43-.43.48-.31.49,1.1,0,.86-.26,2.31-.6,3.22-.58,1.58-2.52,4.62-2.8,4.4-.08-.06.02-.66.23-1.34.2-.68.32-1.62.26-2.1l-.1-.87-.96.98c-1.67,1.69-3.92,3.6-4.1,3.45-.09-.08.13-.54.5-1.04.92-1.23.5-1.39-1.03-.38-.7.46-1.53.82-1.84.79-.33-.04.36-.66,1.75-1.56Zm-5.78,1.37c-1.03.12-.87-.04,1.63-1.63,2.34-1.49,2.61-1.74,1.75-1.65-.56.06-1.93.49-3.02.96-2.31.99-4.71,1.7-4.74,1.41-.01-.11.29-.37.68-.58.64-.34.64-.37.05-.31-.36.03-.99.31-1.41.62-1.34.98-1.77.73-.52-.32,1.63-1.36,1.99-1.85.8-1.07-.54.35-1.25.66-1.57.68-.35.02-.08-.27.64-.72,1.45-.9.81-.92-.99-.03-1.58.78-1.51.78-1.39-.06.1-.67.01-.69-1.32-.35-.78.2-1.8.5-2.26.68-1.18.44-.79-.24.85-1.46.96-.71,1.92-1.09,3.54-1.37l2.23-.39-1.33.65c-.73.36-1.31.8-1.29.98s.65.22,1.41.09c.76-.13,2.11-.28,3.01-.34,1.25-.08,1.49-.02,1.02.25-.47.27-.24.32.92.2.85-.08,2.55-.1,3.79-.03,2.19.12,2.3.09,4.33-1.12,1.92-1.15,2.09-1.2,2.15-.63.08.7-.07.88-2.26,2.73-1.6,1.35-4.46,2.56-6.68,2.82Zm.67,32.42c-.01-.11.28-1.57.65-3.25.4-1.81.64-4.06.59-5.55-.09-2.42-.07-2.48.45-1.58.89,1.53.55,6.34-.68,9.56-.32.84-.96,1.35-1.02.81Zm-8.57-18.62c.25-.03.66.15.91.39.55.53,1.07.23.73-.42-.34-.65-.15-.61,2.3.47,2.36,1.04,6.31,3.88,6.39,4.6.03.3-.29.23-1.03-.2-.6-.36-2.14-1.21-3.43-1.92-2.49-1.34-2.9-1.22-2.01.63.6,1.26.23,1.2-1.53-.26-1.82-1.51-3.03-3.21-2.34-3.28Zm-3.98,4.65c.18-2.36-.15-5.17-.81-6.75-.75-1.79,1.93,1.3,2.86,3.31.52,1.12,1.2,2.43,1.51,2.9.31.48.53,1.05.48,1.27-.11.53-2.47-2.45-2.59-3.28-.13-.97-.51.07-.62,1.71-.08,1.18-.66,3.22-.93,3.25-.06,0-.02-1.07.09-2.4Zm-4.18,4.66c1.2-2.37,1.67-4.12,1.66-6.19v-2.22s.54,1.15.54,1.15c.39.82.5,1.55.39,2.55-.2,1.79-.46,2.43-1.7,4.16-1.16,1.61-1.54,1.84-.88.55Zm-7.67,6.97c.78-.99,1.84-2.86,2.35-4.14.7-1.76.95-2.13,1.02-1.52.18,1.48-1.19,4.43-2.78,5.96-2.05,1.98-2.29,1.86-.59-.3Zm-6.18,3.31c.7-.64,1.97-2.08,2.82-3.2,1.68-2.22,1.88-2.25,1.11-.2-.52,1.38-1.67,2.61-3.54,3.76-1.66,1.03-1.79.91-.4-.36Zm-2.1-8.64c.09-.19.38-.37.64-.4.88-.1,2.98-2.93,3.79-5.11.44-1.19,1.02-2.55,1.27-3.04.26-.48-.11-.13-.82.79-1.22,1.59-3.86,3.68-3.93,3.11-.04-.36,1.31-1.9,2.63-3,2.01-1.68,3.72-4.36,3.21-5.02-.15-.19-.78.42-1.52,1.5-.7,1-1.39,1.84-1.54,1.85s0-.73.32-1.66c.32-.93.64-2.11.7-2.63.11-.9.03-.85-1.41.87-1.29,1.54-1.5,1.69-1.39.98.21-1.32.99-2.54,2.06-3.2.95-.58.97-.67.75-2.72-.34-3.19.92-6.47,3.09-8.08.98-.72.96-.66-.42,1.37-1.82,2.67-2.32,4-2.11,5.56l.17,1.23.24-1.51c.27-1.68,1.24-4.29,1.03-2.75-.18,1.31-.09,4.48.13,4.23.1-.13.25-.96.31-1.85.26-3.61.43-4.43,1.19-5.82.75-1.36,2.2-2.61,3.16-2.71.23-.03-.16.72-.87,1.66-.71.94-1.61,2.52-1.99,3.49-.78,2.01-1.11,5.17-.65,6.2.25.56.36.35.56-1.14.28-2.03,1.67-6.22,2.47-7.41.73-1.1,4.18-3.82,5.52-4.36.63-.25,1.73-.5,2.45-.56.96-.07,1.1-.03.51.16l-.8.26.82.12c.78.11.76.16-.53,1.13-.75.56-1.74,1.52-2.2,2.13-1.55,2.04-2.05,1.04-.56-1.11l.92-1.32-1.5,1.07c-3.14,2.24-4.86,4.54-6.3,8.41-.53,1.42-.61,2.25-.41,4.07.15,1.31.4,2.27.58,2.25s.28-.44.23-.93c-.06-.49.02-1.13.16-1.42.18-.36.34.21.54,1.89.29,2.53.54,2.69.98.63l.27-1.24.02,1.61c.01.89.13,2.59.27,3.78.14,1.27.09,2.43-.11,2.8-.31.54-.39.3-.52-1.61-.11-1.57-.21-1.94-.31-1.23-.2,1.33-.61,2.33-1.24,2.97-.46.47-.5.46-.34-.15.1-.37.18-1.2.18-1.83,0-.96-.03-1.01-.17-.31-.1.47-.33.83-.52.82-.19-.02-.79.98-1.33,2.22-.55,1.24-1.07,2.19-1.15,2.12-.09-.07.2-1.25.63-2.63.79-2.52,1.06-6.19.39-5.41-.18.21-.69,1.64-1.14,3.18-.72,2.48-2.24,5.35-3.55,6.72-.25.26-.91.64-1.48.84-1.46.52-1.57.54-1.38.15Z"/>
      <path d="m110.78,79.89c.32.32.6.72.61.89.05.41-.12.24-.71-.7-.45-.73-.45-.74.1-.2Z"/>
    </g>
  </g>
</svg>