<?xml version="1.0" encoding="UTF-8"?>
<svg id="Layer_2" data-name="Layer 2" xmlns="http://www.w3.org/2000/svg" viewBox="0 0 262.49 256.44">
  <defs>
    <style>
      .cls-1 {
        fill: #fff;
      }

      .cls-2 {
        fill: #fadfd5;
      }

      .cls-3 {
        fill: #ea2828;
      }
    </style>
  </defs>
  <g id="Layer_1-2" data-name="Layer 1">
    <g>
      <g>
        <path class="cls-3" d="m225.06,97.57c2.87-3.01,2.34-4.7-1.52-4.81-2.16-.05-2.36.05-.93.48,2.84.87,2.91,1.99.16,2.74-1.76.49-2.76,1.59-3.34,3.68-.45,1.64-.73,3.15-.61,3.36.24.42,2.68-1.71,6.25-5.45Z"/>
        <path class="cls-3" d="m252.37,87.5c-4.55,15.56-16.49,32.53-28.76,40.86-4.32,2.93-8.6,4.76-17.54,7.45-13.3,4.01-16.33,5.34-13.75,6.05.92.25,4.02-.44,6.89-1.56,2.88-1.11,8.24-2.93,11.93-4.04,9.36-2.82,14.53-5.89,21.46-12.7,9.37-9.21,16.95-21.53,22.99-37.37.9-2.35.92-3.98.05-4.45-.98-.53-1.9,1.09-3.26,5.75Z"/>
        <path class="cls-3" d="m191.07,137.17l4.87-2.99.28-14.03c.16-7.72.21-14.79.11-15.74-.09-.95.23-2.89.72-4.33.75-2.17.65-2.48-.57-1.79-.8.46-1.45,1.75-1.45,2.87,0,1.75-.31,2-2.18,1.66-2-.35-2.12-.67-1.38-3.68.45-1.81,1.37-3.61,2.06-4,.69-.39.78-.98.19-1.31-3.43-1.88-7.16,7.28-6.7,16.46.13,2.58-.36,6.63-1.09,9.01-2.5,8.23-14.16,12.1-27.72,9.19-7.26-1.55-7.2-1.67-3.68,7.67,3.46,9.15,5.48,10.73,12.04,9.45,9.11-1.77,19.39-5.31,24.51-8.46Z"/>
        <path class="cls-3" d="m184.92,144.02c-2.25.84-7.6,2.51-11.87,3.69-4.28,1.19-7.83,2.37-7.9,2.62-.08.25,2.17,2.62,4.98,5.25,2.8,2.64,5.96,5.77,7,6.97,2.13,2.41,3.59,2.03,14.49-3.81l6.24-3.35-1.48-2.61c-.81-1.43-2.8-4.34-4.42-6.45-2.86-3.74-3.05-3.81-7.04-2.32Z"/>
        <path class="cls-3" d="m198.66,119.87l-.34,14.54,4.33-1.12c10.29-2.67,12.97-3.77,19.16-7.87,3.6-2.39,8.55-6.57,11-9.31,7.91-8.81,17.84-26.61,17.71-31.71-.14-5.96-5.48-3.05-16.31,8.88-8.39,9.25-16.07,14.69-20.94,14.81-1.91.05-2.6-.55-3.22-2.77-.71-2.53-.87-2.6-1.59-.73-.44,1.16-1.65,2.22-2.67,2.38-1.6.24-1.69-.39-.67-4.33,1.15-4.43.8-7.29-.8-6.38-.41.23-1.14,1.99-1.6,3.92-.46,1.93-1.5,3.86-2.28,4.31-.86.5-1.57,6.64-1.79,15.37Z"/>
        <path class="cls-3" d="m210.67,101.96c.76-.12,1.71.36,2.11,1.07,1.03,1.82,3.08.38,3.76-2.66,1.17-5.25-5.16-6.44-6.48-1.22-.55,2.14-.37,2.97.61,2.81Z"/>
        <path class="cls-3" d="m198.06,96.2c.5-.28.7-.9.43-1.38s-1.04-.88-1.72-.91c-.68-.03-.87.59-.43,1.37.44.78,1.22,1.19,1.72.91Z"/>
        <path d="m257.19,75.91l-1.67.08c-1.88.02-3.76-.22-5.63-.49-.1.06-.21.12-.31.18-7.61,4.3-15.36,8-23.77,10.46-3.29.96-6.35,1.33-9.74,1.43-3.12.1-6.06,1.12-9.17,1.06-.14.17-.23.27-.24.28-.06.02-.91-.08-2-.21-1.23.3-2.52.31-3.74,0-1.73-.46-3.45-.77-5.16-1.13-.04.01-.08.02-.13.03-.06.07-.15.1-.26.08-.91.32-1.84.53-2.8.66-.77.73-1.63,1.37-2.56,1.88-.58.32-1.16.62-1.74.93-.13.16-.25.32-.4.47-.36.53-.77,1-1.2,1.44l.02.02-1.48,4c-.82,2.2-1.35,7.05-1.17,10.77.18,3.72-.28,8.25-1.02,10.07-2.75,6.72-14.05,10.25-23.78,7.45-1.96-.56-3.53-1.09-4.72-1.59-1.31-.44-2.53-1.1-3.62-1.94-.53-.16-1.03-.35-1.53-.56-.85-.25-1.67-.58-2.44-1-.06.11-.14.21-.26.28-.5.28-.49,1.26.02,2.16.51.9.79,2.24.62,2.96-.17.72.05,3.02.49,5.09l.79,3.77h0c.06.12.13.22.18.34.41.88.8,1.77,1.18,2.67,1.03,1.24,1.98,2.55,2.81,3.95.7,1.18,1.26,2.39,1.74,3.62.43.37.83.78,1.17,1.24,3.29,2.43,6.43,5.39,9.17,8.49,1.08.5,2.02,1.28,2.76,2.25.5.32.98.72,1.44,1.21,3.29,3.49,6.61,7.08,9.32,11.06l3.06-1.09c5.64-2.02,12.57-5.08,21.14-9.36-.19-.49-.31-1-.37-1.5-2.61-2.57-3.26-6.76.11-10.17,2.67-2.71,6.06-4.78,9.71-6,4.05-2.18,8.37-4.12,12.69-5.98,4.29-3,8.77-5.69,13.26-8.37,1.98-2.22,3.89-4.48,5.56-6.95,4.63-6.88,8.23-14.37,12.15-21.66,2.54-4.73,5.34-9.39,6.85-14.51-1.15-2.24-2.3-4.49-3.52-6.69-.19-.35-.39-.7-.58-1.05-.3,0-.7-.02-1.2-.08Zm-34.49,20.12c2.76-.75,2.69-1.87-.16-2.74-1.43-.43-1.23-.53.93-.48,3.86.11,4.4,1.8,1.52,4.81-3.57,3.74-6.02,5.87-6.25,5.45-.12-.21.16-1.72.61-3.36.58-2.09,1.58-3.19,3.34-3.68Zm-12.7,3.16c1.32-5.22,7.65-4.02,6.48,1.22-.68,3.04-2.73,4.49-3.76,2.66-.4-.71-1.35-1.19-2.11-1.07-.97.15-1.15-.67-.61-2.81Zm-7.33,1.04c.46-1.93,1.19-3.69,1.6-3.92,1.6-.91,1.95,1.96.8,6.38-1.02,3.94-.93,4.58.67,4.33,1.02-.16,2.22-1.22,2.67-2.38.72-1.88.88-1.8,1.59.72.62,2.22,1.31,2.82,3.22,2.77,4.86-.12,12.55-5.56,20.94-14.81,10.82-11.94,16.17-14.84,16.31-8.88.13,5.1-9.81,22.9-17.71,31.71-2.45,2.74-7.4,6.92-11,9.31-6.19,4.1-8.87,5.2-19.16,7.87l-4.33,1.12.34-14.54c.21-8.73.93-14.87,1.79-15.37.78-.44,1.82-2.38,2.28-4.31Zm-5.96-6.27c.68.03,1.45.43,1.72.91s.08,1.09-.43,1.37-1.27-.12-1.72-.91c-.44-.78-.25-1.4.43-1.37Zm-42.25,42.25c-3.52-9.34-3.58-9.22,3.68-7.67,13.56,2.91,25.22-.96,27.72-9.19.73-2.38,1.21-6.43,1.09-9.01-.45-9.18,3.28-18.34,6.7-16.46.59.33.51.92-.19,1.31-.69.39-1.61,2.19-2.06,4-.73,3.01-.61,3.32,1.38,3.68,1.87.34,2.18.09,2.18-1.66,0-1.12.64-2.41,1.45-2.87,1.21-.69,1.31-.38.57,1.79-.49,1.43-.81,3.38-.72,4.33.1.94.05,8.02-.11,15.74l-.28,14.03-4.87,2.99c-5.12,3.15-15.4,6.69-24.51,8.46-6.56,1.28-8.57-.3-12.04-9.45Zm43.34,19.22l-6.24,3.35c-10.9,5.84-12.36,6.22-14.49,3.81-1.04-1.2-4.2-4.32-7-6.97-2.81-2.64-5.06-5.01-4.98-5.26.07-.26,3.62-1.44,7.9-2.62,4.27-1.18,9.62-2.85,11.87-3.69,3.99-1.49,4.18-1.43,7.04,2.32,1.62,2.11,3.61,5.02,4.42,6.45l1.48,2.61Zm57.72-69.2c-6.04,15.84-13.62,28.17-22.99,37.37-6.93,6.81-12.1,9.87-21.46,12.7-3.69,1.1-9.05,2.92-11.93,4.04-2.88,1.11-5.98,1.81-6.89,1.56-2.57-.71.45-2.04,13.75-6.05,8.94-2.69,13.22-4.52,17.54-7.45,12.28-8.33,24.22-25.3,28.76-40.86,1.36-4.66,2.28-6.29,3.26-5.75.87.47.85,2.1-.05,4.45Z"/>
      </g>
      <g>
        <g>
          <path class="cls-2" d="m102.29,46.19c-5.45,9.01-13.77,18.88-19.29,22.87l-4.23,3.06,17.02,9.02c26.87,14.23,42.94,24.5,49.95,31.91,4.03,4.27,4.4,4.42,11.84,4.84,11.64.68,15.61-1.84,18.04-11.46,2.57-10.16,2.44-10.52-4.86-14.29-10.67-5.52-14.56-8.76-52.16-43.32-5.84-5.36-10.93-9.77-11.29-9.79-.37-.01-2.62,3.21-5.01,7.16Z"/>
          <path class="cls-1" d="m175.31,117.95c1.13-1.55,2.17-3.28,3.25-5.05,1.69-2.79,3.42-5.56,5.15-8.33-1.22-2.19-1.96-4.7-2.11-7.22,0-.02,0-.04,0-.05-.82,1-1.41,3.11-2.37,7.59-1.49,7.04-3.72,11.2-7.5,13.66,1.2-.2,2.39-.4,3.59-.6Z"/>
          <path class="cls-1" d="m154.07,121.95c1.51-.33,3.01-.65,4.52-.96-2.71-.08-5.45-.31-7.5-.67,1.07.41,2.06.97,2.97,1.64,0,0,0,0,0,0Z"/>
        </g>
        <path d="m80.74.91c-.29.37-.55.78-.93,1.06-.05.05-.1.09-.15.13-1.01,3.41-1.99,6.33-2.76,8.22.02,7.14.07,14.38-.36,21.46.48,1,.33,2.13-.34,4.36-.03.34-.05.69-.09,1.03-.14,1.41-.6,2.6-1.27,3.56-.87,3.51-2.13,9.64-3.13,15.33-.19,1.1-.39,2.19-.59,3.26.49,1.02.74,2.13.64,3.25-.23,2.72-.11,5.53-.46,8.23.21.72.42,1.44.63,2.15.45.7.88,1.41,1.3,2.12.32.02.7.3,1.23.77.97.86,9.28,5.43,18.48,10.15,21.27,10.94,40.67,22.65,45.66,27.56,1.1,1.08,2,2.19,2.72,3.3.2.12.4.23.6.37,1.25.86,2.57,1.58,3.91,2.28.31,0,.62,0,.94,0,.09,0,.17.01.26.02.26-.14.66-.12,1.21.08,1.13.14,2.19.43,3.2.85,1.92.32,4.37.53,6.83.61,4.54-.94,9.1-1.77,13.67-2.54,3.67-2.47,5.84-6.62,7.31-13.54.95-4.46,1.55-6.57,2.36-7.58,0-.01,0-.03,0-.04,0-.02,0-.04,0-.06,0,0,0,0,0-.01-.18-1.45-.38-2.89-.63-4.33-.3-.54-.58-1.09-.82-1.68-.1-.23-.18-.46-.26-.69-6.5-1.04-21.68-14.67-58.62-52.21L85.51,2.05l.02-.07c-1.41-.52-2.75-1.19-4.01-1.98-.22.33-.48.63-.78.91Zm37.86,48c37.6,34.56,41.49,37.8,52.16,43.32,7.3,3.77,7.43,4.13,4.86,14.29-2.42,9.62-6.4,12.14-18.04,11.46-7.43-.43-7.81-.57-11.84-4.84-7.01-7.41-23.09-17.68-49.95-31.91l-17.02-9.02,4.23-3.06c5.52-4,13.84-13.86,19.29-22.87,2.39-3.95,4.64-7.17,5.01-7.16.37.02,5.45,4.43,11.29,9.79Z"/>
      </g>
      <path d="m141.31,116.86l5.98,8.8,15.84-.71c2.31-.1,4.56-.73,6.59-1.84l10.84-5.93c1.93-1.05,3.27-2.93,3.65-5.1l1.08-6.25c.47-2.72-.37-5.5-2.27-7.51l-1.56-1.64-5.39,11.24-3.14,8.15-11.27,3.13-12.58-.82-7.78-1.51Z"/>
      <polygon points="179.87 90.58 190 90.21 183.73 101.56 180.73 96.16 179.87 90.58"/>
      <path d="m156.13,125.73l11.41,1.63,11.09-2.95,6.68-6.14.38-6.94s-5.31,3.36-6.02,3.45-23.55,10.95-23.55,10.95Z"/>
    </g>
    <g>
      <g>
        <path class="cls-3" d="m185.44,185.79c2.94-2.95,2.45-4.64-1.41-4.85-2.16-.1-2.36,0-.94.46,2.82.94,2.86,2.06.09,2.75-1.77.45-2.8,1.52-3.43,3.6-.49,1.63-.81,3.13-.69,3.35.23.43,2.72-1.65,6.38-5.3Z"/>
        <path class="cls-3" d="m212.97,176.36c-4.92,15.45-17.25,32.13-29.72,40.17-4.39,2.83-8.71,4.55-17.71,7.03-13.4,3.69-16.45,4.95-13.89,5.72.91.27,4.03-.35,6.93-1.39,2.9-1.04,8.3-2.74,12.02-3.75,9.42-2.6,14.67-5.54,21.76-12.19,9.58-8.98,17.45-21.12,23.87-36.82.95-2.33,1.01-3.96.15-4.45-.96-.55-1.93,1.04-3.4,5.68Z"/>
        <path class="cls-3" d="m150.52,224.57l4.93-2.87.62-14.02c.34-7.71.56-14.78.48-15.73-.07-.95.3-2.89.82-4.31.8-2.15.7-2.46-.53-1.8-.81.44-1.5,1.72-1.51,2.84-.04,1.75-.36,1.99-2.22,1.61-1.99-.4-2.1-.72-1.3-3.71.49-1.8,1.45-3.57,2.15-3.95s.8-.97.22-1.31c-3.38-1.96-7.33,7.11-7.09,16.3.06,2.58-.52,6.62-1.3,8.98-2.69,8.17-14.44,11.76-27.93,8.53-7.22-1.72-7.16-1.84-3.86,7.58,3.25,9.23,5.23,10.86,11.81,9.73,9.15-1.55,19.51-4.85,24.71-7.88Z"/>
        <path class="cls-2" d="m112.18,207.4c-1.86,1,.47,2.54,6.85,4.54,9.67,3.03,21.04-.24,23.95-6.89.78-1.8,1.35-6.32,1.26-10.04-.09-3.72.55-8.55,1.42-10.74l1.58-3.96-7.97-6.16c-19.84-15.34-30.04-27.19-56.21-65.38-8.04-11.73-15.41-22.02-16.39-22.87-2.07-1.83-6.17-.34-27.92,10.14-13.48,6.49-13.9,6.76-17.77,11.86-2.18,2.87-3.85,6.04-3.72,7.04.3,2.41,12.97,15.91,24.5,26.09,10.03,8.88,14.38,12.49,40.98,33.96,22.3,18,24.83,20.39,28.16,26.6,2.11,3.93,2.4,5.23,1.29,5.82Z"/>
        <path class="cls-3" d="m144.21,231.27c-2.27.79-7.65,2.33-11.95,3.41-4.31,1.08-7.89,2.18-7.96,2.44-.08.25,2.11,2.67,4.85,5.37,2.74,2.71,5.82,5.91,6.83,7.13,2.07,2.46,3.54,2.11,14.58-3.47l6.32-3.2-1.42-2.64c-.78-1.45-2.7-4.41-4.26-6.56-2.77-3.81-2.96-3.88-6.98-2.48Z"/>
        <path class="cls-3" d="m158.52,207.45l-.69,14.53,4.36-1.02c10.35-2.43,13.05-3.46,19.34-7.41,3.66-2.3,8.7-6.37,11.22-9.05,8.11-8.62,18.47-26.18,18.46-31.28,0-5.96-5.41-3.18-16.51,8.49-8.61,9.05-16.42,14.31-21.28,14.31-1.91,0-2.59-.61-3.15-2.84-.65-2.54-.81-2.62-1.57-.76-.47,1.14-1.7,2.18-2.72,2.32-1.6.21-1.68-.43-.57-4.35,1.26-4.4.97-7.27-.65-6.4-.42.22-1.18,1.97-1.69,3.88-.51,1.91-1.59,3.83-2.38,4.25-.87.48-1.73,6.6-2.15,15.33Z"/>
        <path class="cls-3" d="m170.94,189.83c.77-.1,1.7.4,2.09,1.12.99,1.85,3.07.45,3.82-2.57,1.3-5.22-5.01-6.56-6.45-1.37-.6,2.13-.44,2.96.54,2.83Z"/>
        <path class="cls-3" d="m158.48,183.78c.51-.27.72-.88.46-1.36s-1.02-.9-1.7-.95-.88.57-.46,1.36,1.19,1.22,1.7.95Z"/>
      </g>
      <path d="m218.06,164.9l-1.67.04c-1.88-.03-3.76-.31-5.62-.63-.11.06-.21.11-.32.17-7.71,4.12-15.54,7.63-24.01,9.89-3.31.89-6.38,1.18-9.77,1.2-3.12.02-6.08.98-9.19.85-.14.17-.23.27-.25.27-.06.01-.91-.1-1.99-.26-1.23.27-2.53.25-3.74-.1-1.74-.5-3.49-.86-5.21-1.27-.12.25-.43.17-.92-.22-.75-.19-1.49-.4-2.23-.64-.89-.07-1.76-.27-2.6-.59-.11-.04-.22-.09-.34-.13-.83-.13-1.56-.37-2.36-.75-.41-.19-.77-.33-1.13-.56-.22-.14-.53-.38-.83-.64-.26-.17-.5-.36-.73-.57-1.1-.59-2.36-1.37-3.77-2.36-2.36-1.66-4.14-3.2-5.53-4.95-.41-.3-.78-.63-1.11-1.02-.21-.26-.44-.5-.68-.74-.05-.04-.09-.07-.15-.12-.61-.44-1.2-.9-1.77-1.38-.93-.77-1.87-1.54-2.76-2.36-.11-.09-.2-.2-.3-.29-.47-.29-.91-.62-1.31-.99v.05s-4.49-4.73-4.49-4.73c-9.24-9.72-25.08-31.11-44.46-60.07-1.77-2.64-7.14-9.99-11.93-16.3-5.4-7.13-8.04-11.02-8.7-13.27-.14-.2-.26-.41-.38-.63-.62-1.17-1.19-2.35-1.8-3.52-.31-.58-.62-1.17-.95-1.74-.08-.14-1.27-1.86-.38-.64-.37-.5-.66-1.02-.91-1.55-10.08,10.58-24.75,23.49-37.97,33.21-3.29,2.42-7.5,5.54-9.37,6.95-.72.54-3.04,2.02-6.41,4.08.29,1.3.55,2.61.86,3.9.05.21.44,1.52.43,1.6.21.5.45.99.71,1.47.4.75.64,1.53.74,2.32.97,1.12,2.61,3.37,4.19,5.8,7.47,11.47,35.53,37.31,67.93,62.55,10.21,7.94,21.04,16.72,24.07,19.5,5.75,5.27,9.17,10.28,7.59,11.13-.51.27-.52,1.24-.03,2.16s.74,2.26.55,2.98c-.19.72-.02,3.02.37,5.1l.7,3.79h0c.06.12.12.23.17.34.39.89.76,1.79,1.12,2.69,1,1.26,1.92,2.6,2.71,4.01.67,1.19,1.21,2.42,1.66,3.66.42.38.81.8,1.14,1.27,3.23,2.51,6.3,5.54,8.96,8.7,1.07.52,1.99,1.33,2.71,2.31.49.33.96.75,1.41,1.25,3.21,3.57,6.44,7.23,9.05,11.27l3.09-1.02c5.68-1.88,12.69-4.78,21.35-8.86-.17-.5-.29-1-.33-1.51-2.55-2.63-3.1-6.83.35-10.17,2.74-2.64,6.18-4.63,9.84-5.77,4.1-2.08,8.47-3.92,12.83-5.68,4.36-2.9,8.9-5.48,13.45-8.05,2.03-2.17,4-4.39,5.72-6.82,4.79-6.77,8.57-14.17,12.66-21.37,2.66-4.66,5.56-9.26,7.2-14.35-1.1-2.27-2.2-4.54-3.36-6.77-.18-.36-.37-.71-.56-1.07-.3,0-.7-.04-1.2-.11Zm-34.95,19.3c2.77-.69,2.73-1.81-.09-2.75-1.42-.47-1.22-.56.94-.46,3.86.2,4.35,1.9,1.41,4.85-3.66,3.65-6.15,5.73-6.38,5.3-.11-.21.2-1.71.69-3.35.63-2.07,1.66-3.15,3.43-3.6Zm-12.77,2.86c1.44-5.19,7.75-3.84,6.45,1.37-.75,3.02-2.83,4.42-3.82,2.57-.39-.72-1.32-1.22-2.09-1.12-.98.13-1.14-.7-.54-2.83Zm-13.17-5.53c.68.04,1.44.47,1.7.95s.05,1.09-.46,1.36-1.27-.15-1.7-.95-.22-1.41.46-1.36Zm5.81,6.4c.51-1.91,1.28-3.66,1.69-3.88,1.62-.87,1.91,2,.65,6.4-1.11,3.92-1.03,4.55.57,4.35,1.02-.13,2.25-1.17,2.72-2.32.76-1.86.93-1.78,1.57.76.57,2.23,1.24,2.85,3.15,2.84,4.87,0,12.68-5.26,21.28-14.31,11.1-11.68,16.52-14.46,16.51-8.49,0,5.1-10.35,22.66-18.46,31.28-2.51,2.68-7.56,6.74-11.22,9.05-6.28,3.95-8.99,4.99-19.34,7.41l-4.36,1.02.69-14.53c.42-8.72,1.28-14.85,2.15-15.33.79-.43,1.88-2.34,2.38-4.25Zm-80.31-12.88c-26.6-21.48-30.95-25.08-40.98-33.96-11.53-10.18-24.19-23.69-24.5-26.09-.13-1,1.55-4.17,3.72-7.04,3.87-5.1,4.29-5.37,17.77-11.86,21.76-10.47,25.85-11.96,27.92-10.14.98.85,8.35,11.14,16.39,22.87,26.17,38.19,36.37,50.04,56.21,65.38l7.97,6.16-1.58,3.96c-.88,2.18-1.51,7.01-1.42,10.73.09,3.72-.47,8.24-1.26,10.04-2.91,6.65-14.28,9.92-23.95,6.89-6.38-2-8.71-3.54-6.85-4.54,1.11-.59.82-1.89-1.29-5.82-3.33-6.2-5.86-8.59-28.16-26.6Zm31.26,47.72c-3.3-9.42-3.36-9.3,3.86-7.58,13.49,3.23,25.24-.37,27.93-8.53.78-2.36,1.37-6.4,1.3-8.98-.24-9.19,3.71-18.26,7.09-16.3.59.34.49.93-.22,1.31s-1.67,2.15-2.15,3.95c-.8,2.99-.69,3.31,1.3,3.71,1.86.38,2.18.14,2.22-1.61.02-1.12.7-2.4,1.51-2.84,1.23-.66,1.32-.35.53,1.8-.52,1.42-.89,3.36-.82,4.31.08.95-.14,8.01-.48,15.73l-.62,14.02-4.93,2.87c-5.2,3.02-15.55,6.33-24.71,7.88-6.58,1.13-8.56-.5-11.81-9.73Zm42.87,20.24l-6.32,3.2c-11.04,5.58-12.51,5.93-14.58,3.47-1.01-1.22-4.1-4.42-6.83-7.13-2.75-2.7-4.94-5.12-4.85-5.37.08-.26,3.65-1.35,7.96-2.44,4.3-1.08,9.69-2.62,11.95-3.41,4.02-1.4,4.21-1.33,6.98,2.48,1.57,2.15,3.49,5.1,4.26,6.56l1.42,2.64Zm59.34-67.82c-6.41,15.7-14.28,27.84-23.87,36.82-7.09,6.64-12.33,9.59-21.76,12.19-3.72,1.02-9.12,2.71-12.02,3.75-2.9,1.04-6.02,1.67-6.93,1.39-2.56-.77.5-2.03,13.89-5.72,9-2.48,13.32-4.2,17.71-7.03,12.47-8.04,24.81-24.72,29.72-40.17,1.47-4.63,2.43-6.23,3.4-5.68.86.49.8,2.12-.15,4.45Z"/>
    </g>
  </g>
</svg>