<?xml version="1.0" encoding="UTF-8"?>
<svg id="Layer_2" data-name="Layer 2" xmlns="http://www.w3.org/2000/svg" viewBox="0 0 262.67 257.18">
  <defs>
    <style>
      .cls-1 {
        fill: #fff;
      }

      .cls-2 {
        fill: #282828;
      }

      .cls-3 {
        fill: #fadfd5;
      }
    </style>
  </defs>
  <g id="Layer_1-2" data-name="Layer 1">
    <g>
      <g>
        <path class="cls-2" d="m225.06,99.56c2.91-2.97,2.4-4.67-1.46-4.84-2.16-.08-2.36.02-.94.47,2.83.91,2.88,2.03.12,2.75-1.77.47-2.79,1.55-3.39,3.63-.48,1.64-.78,3.14-.66,3.35.23.42,2.71-1.68,6.33-5.36Z"/>
        <path class="cls-2" d="m252.5,89.87c-4.76,15.5-16.94,32.3-29.33,40.46-4.36,2.87-8.67,4.64-17.64,7.2-13.36,3.82-16.4,5.11-13.84,5.86.91.27,4.02-.39,6.92-1.46,2.89-1.07,8.28-2.82,11.98-3.87,9.4-2.69,14.61-5.68,21.64-12.4,9.5-9.07,17.25-21.29,23.51-37.05.93-2.34.97-3.97.11-4.45-.97-.55-1.92,1.06-3.34,5.71Z"/>
        <path class="cls-2" d="m190.52,138.68l4.91-2.92.48-14.02c.26-7.72.42-14.79.33-15.73-.08-.95.27-2.89.78-4.32.78-2.16.68-2.47-.54-1.8-.81.44-1.48,1.73-1.49,2.85-.02,1.75-.34,1.99-2.21,1.63-1.99-.38-2.11-.7-1.33-3.7.47-1.8,1.42-3.59,2.12-3.97s.79-.97.2-1.31c-3.4-1.93-7.26,7.18-6.93,16.37.09,2.58-.46,6.63-1.22,8.99-2.61,8.19-14.32,11.9-27.84,8.8-7.24-1.65-7.18-1.77-3.79,7.62,3.34,9.2,5.33,10.81,11.9,9.62,9.14-1.64,19.46-5.04,24.63-8.12Z"/>
        <path class="cls-2" d="m184.27,145.44c-2.26.81-7.63,2.4-11.92,3.52-4.3,1.13-7.87,2.26-7.94,2.51-.08.25,2.13,2.65,4.91,5.32,2.76,2.68,5.88,5.85,6.9,7.06,2.09,2.44,3.56,2.08,14.54-3.61l6.29-3.26-1.44-2.63c-.79-1.44-2.74-4.38-4.33-6.51-2.81-3.78-3-3.85-7.01-2.41Z"/>
        <path class="cls-2" d="m198.35,121.49l-.54,14.53,4.35-1.06c10.32-2.53,13.02-3.59,19.27-7.6,3.63-2.34,8.64-6.45,11.13-9.16,8.03-8.7,18.21-26.36,18.15-31.46-.05-5.96-5.44-3.13-16.43,8.65-8.52,9.14-16.28,14.47-21.14,14.52-1.91.02-2.59-.59-3.18-2.81-.67-2.54-.84-2.62-1.58-.75-.46,1.15-1.68,2.2-2.7,2.34-1.6.22-1.69-.41-.61-4.34,1.22-4.41.9-7.28-.71-6.39-.41.23-1.16,1.98-1.65,3.9-.49,1.92-1.55,3.84-2.34,4.28-.87.49-1.67,6.62-2,15.35Z"/>
        <path class="cls-2" d="m210.6,103.74c.77-.11,1.7.38,2.1,1.1,1.01,1.84,3.08.42,3.8-2.61,1.25-5.23-5.07-6.51-6.46-1.31-.58,2.13-.41,2.96.57,2.82Z"/>
        <path class="cls-2" d="m198.08,97.81c.51-.28.71-.89.45-1.37s-1.03-.89-1.71-.93c-.68-.04-.88.58-.45,1.37.43.79,1.2,1.21,1.71.93Z"/>
        <path d="m257.48,78.35l-1.67.05c-1.88,0-3.76-.27-5.62-.57-.11.06-.21.12-.32.17-7.67,4.2-15.47,7.78-23.92,10.13-3.3.92-6.37,1.24-9.76,1.3-3.12.05-6.07,1.04-9.18.93-.14.17-.23.27-.25.27-.06.01-.91-.09-2-.24-1.23.28-2.53.28-3.74-.06-1.72-.48-3.44-.82-5.14-1.2-.04,0-.08.02-.13.03-.06.07-.15.1-.27.07-.91.31-1.85.51-2.81.62-.78.72-1.65,1.34-2.59,1.85-.58.31-1.17.61-1.75.9-.14.15-.26.32-.4.46-.36.52-.78.98-1.22,1.42l.02.02-1.54,3.98c-.85,2.19-1.45,7.03-1.32,10.75.13,3.72-.39,8.24-1.16,10.05-2.84,6.68-14.19,10.06-23.88,7.12-1.95-.59-3.52-1.14-4.7-1.65-1.3-.46-2.51-1.13-3.59-1.99-.53-.16-1.03-.36-1.52-.58-.85-.26-1.66-.6-2.43-1.04-.06.11-.14.21-.26.27-.51.28-.51,1.25-.01,2.16.5.91.76,2.25.58,2.97-.18.72,0,3.02.41,5.1l.74,3.78h0c.06.12.12.22.18.34.4.89.78,1.78,1.15,2.68,1.01,1.25,1.94,2.58,2.75,3.99.68,1.19,1.23,2.41,1.69,3.64.43.37.82.8,1.16,1.26,3.25,2.48,6.35,5.48,9.05,8.61,1.07.51,2.01,1.31,2.73,2.29.49.33.97.74,1.43,1.23,3.24,3.54,6.51,7.17,9.16,11.19l3.08-1.05c5.67-1.94,12.64-4.9,21.27-9.06-.18-.5-.3-1-.35-1.51-2.58-2.6-3.17-6.8.25-10.17,2.71-2.67,6.13-4.69,9.79-5.87,4.08-2.12,8.43-4.01,12.77-5.8,4.33-2.94,8.85-5.56,13.37-8.18,2.01-2.19,3.96-4.43,5.65-6.88,4.73-6.82,8.43-14.26,12.45-21.49,2.61-4.69,5.47-9.31,7.06-14.42-1.12-2.26-2.24-4.52-3.43-6.74-.19-.36-.38-.71-.57-1.06-.3,0-.7-.03-1.2-.09Zm-34.77,19.64c2.77-.72,2.71-1.84-.12-2.75-1.42-.45-1.22-.55.94-.47,3.86.17,4.37,1.86,1.46,4.84-3.62,3.69-6.1,5.79-6.33,5.36-.12-.21.18-1.72.66-3.35.61-2.08,1.63-3.16,3.39-3.63Zm-12.74,2.98c1.39-5.2,7.71-3.92,6.46,1.31-.72,3.03-2.79,4.45-3.8,2.61-.39-.72-1.33-1.21-2.1-1.1-.98.14-1.14-.69-.57-2.82Zm-7.34.94c.49-1.92,1.24-3.67,1.65-3.9,1.61-.88,1.92,1.98.71,6.39-1.08,3.93-.99,4.56.61,4.34,1.02-.14,2.24-1.19,2.7-2.34.75-1.87.91-1.79,1.58.75.59,2.23,1.27,2.83,3.18,2.81,4.87-.05,12.62-5.38,21.14-14.52,10.99-11.78,16.37-14.62,16.43-8.65.06,5.1-10.13,22.76-18.15,31.46-2.49,2.7-7.49,6.82-11.13,9.16-6.25,4.01-8.94,5.07-19.27,7.6l-4.35,1.06.54-14.54c.33-8.72,1.13-14.86,2-15.35.79-.43,1.85-2.36,2.34-4.28Zm-5.88-6.35c.68.04,1.44.45,1.71.93s.06,1.09-.45,1.37-1.27-.14-1.71-.93c-.43-.79-.23-1.4.45-1.37Zm-42.84,41.66c-3.39-9.39-3.45-9.27,3.79-7.62,13.52,3.1,25.23-.61,27.84-8.8.76-2.37,1.3-6.41,1.22-8.99-.33-9.19,3.53-18.29,6.93-16.37.59.33.5.92-.2,1.31-.7.38-1.64,2.17-2.12,3.97-.77,3-.66,3.32,1.33,3.69,1.86.37,2.18.12,2.21-1.63,0-1.12.68-2.41,1.49-2.85,1.22-.67,1.32-.36.54,1.8-.51,1.43-.86,3.37-.78,4.32.09.94-.07,8.02-.33,15.73l-.48,14.02-4.91,2.92c-5.17,3.07-15.49,6.48-24.63,8.12-6.57,1.19-8.57-.42-11.91-9.62Zm43.07,19.82l-6.29,3.26c-10.98,5.69-12.45,6.05-14.54,3.61-1.02-1.21-4.14-4.38-6.9-7.06-2.77-2.68-4.99-5.08-4.91-5.32.07-.26,3.64-1.39,7.94-2.51,4.29-1.12,9.66-2.72,11.92-3.52,4.01-1.43,4.2-1.37,7.01,2.41,1.59,2.13,3.54,5.07,4.33,6.51l1.44,2.63Zm58.68-68.39c-6.26,15.76-14.01,27.98-23.51,37.05-7.02,6.71-12.24,9.7-21.64,12.4-3.71,1.05-9.09,2.8-11.98,3.87-2.89,1.07-6,1.73-6.92,1.46-2.56-.75.48-2.03,13.84-5.86,8.98-2.57,13.28-4.33,17.64-7.2,12.39-8.16,24.57-24.96,29.33-40.46,1.42-4.65,2.37-6.25,3.34-5.71.86.48.82,2.11-.11,4.45Z"/>
      </g>
      <g>
        <g>
          <path class="cls-3" d="m103.01,46.48c-5.58,8.93-14.03,18.68-19.61,22.6l-4.27,3,16.89,9.25c26.67,14.61,42.59,25.1,49.5,32.6,3.97,4.32,4.34,4.48,11.77,5.01,11.63.84,15.64-1.62,18.19-11.21,2.71-10.13,2.59-10.49-4.66-14.36-10.59-5.66-14.44-8.96-51.55-44.04-5.77-5.44-10.79-9.92-11.16-9.95-.37-.02-2.66,3.17-5.11,7.09Z"/>
          <path class="cls-1" d="m175.02,119.25c1.15-1.53,2.22-3.24,3.32-5,1.73-2.77,3.5-5.51,5.26-8.26-1.19-2.21-1.89-4.72-2.01-7.25,0-.02,0-.04,0-.05-.84.99-1.46,3.09-2.48,7.56-1.59,7.01-3.88,11.15-7.69,13.55,1.2-.19,2.4-.37,3.6-.55Z"/>
          <path class="cls-1" d="m153.73,122.95c1.51-.31,3.02-.61,4.54-.9-2.71-.12-5.44-.39-7.49-.78,1.07.42,2.05,1,2.95,1.68,0,0,0,0,0,0Z"/>
        </g>
        <path d="m82.1.9c-.29.36-.56.77-.95,1.04-.05.05-.1.09-.15.13-1.06,3.4-2.07,6.3-2.88,8.18-.08,7.14-.13,14.38-.66,21.45.46,1.01.3,2.13-.4,4.35-.04.34-.06.69-.1,1.02-.16,1.41-.64,2.59-1.32,3.55-.92,3.49-2.27,9.61-3.34,15.29-.21,1.1-.42,2.18-.64,3.25.47,1.02.71,2.14.6,3.26-.27,2.72-.19,5.53-.58,8.22.2.72.4,1.44.6,2.16.44.71.86,1.42,1.27,2.14.32.02.69.31,1.22.79.96.87,9.21,5.56,18.33,10.41,21.12,11.23,40.35,23.21,45.28,28.2,1.09,1.1,1.97,2.22,2.67,3.34.2.12.4.24.59.37,1.24.87,2.55,1.61,3.88,2.33.31,0,.62.01.94.02.09,0,.17.02.26.02.26-.13.66-.11,1.21.09,1.12.15,2.18.46,3.18.89,1.91.34,4.36.59,6.82.71,4.56-.87,9.13-1.64,13.71-2.35,3.7-2.42,5.94-6.54,7.5-13.44,1.02-4.45,1.64-6.55,2.47-7.55,0-.01,0-.03,0-.04,0-.02,0-.04,0-.06,0,0,0,0,0-.01-.16-1.45-.34-2.9-.57-4.34-.3-.54-.57-1.1-.8-1.69-.09-.23-.17-.46-.25-.69-6.49-1.13-21.47-14.97-57.88-53.02L86.85,2.1l.02-.07c-1.41-.54-2.73-1.22-3.98-2.03-.23.32-.49.62-.79.9Zm37.19,48.52c37.11,35.08,40.96,38.38,51.55,44.04,7.25,3.87,7.37,4.23,4.66,14.36-2.56,9.59-6.57,12.05-18.19,11.21-7.43-.53-7.8-.68-11.77-5.01-6.91-7.5-22.84-18-49.5-32.6l-16.89-9.25,4.27-3c5.57-3.92,14.03-13.67,19.61-22.6,2.45-3.91,4.74-7.1,5.11-7.09.37.03,5.39,4.5,11.16,9.95Z"/>
      </g>
      <path d="m141.05,117.68l5.86,8.88,15.85-.49c2.31-.07,4.57-.67,6.61-1.75l10.92-5.78c1.94-1.03,3.31-2.88,3.72-5.04l1.17-6.24c.51-2.71-.29-5.51-2.16-7.54l-1.53-1.67-5.54,11.17-3.26,8.1-11.31,2.97-12.57-1-7.75-1.62Z"/>
      <polygon points="179.97 91.94 190.1 91.71 183.67 102.97 180.75 97.53 179.97 91.94"/>
      <path d="m155.74,126.76l11.39,1.79,11.13-2.79,6.77-6.05.48-6.93s-5.36,3.29-6.06,3.36-23.7,10.62-23.7,10.62Z"/>
    </g>
    <g>
      <g>
        <path class="cls-2" d="m184.2,187.22c2.98-2.9,2.51-4.61-1.34-4.87-2.16-.13-2.36-.04-.95.45,2.81.98,2.84,2.1.05,2.75-1.78.42-2.82,1.49-3.48,3.55-.52,1.63-.85,3.12-.74,3.34.22.43,2.74-1.61,6.45-5.21Z"/>
        <path class="cls-2" d="m211.86,178.17c-5.13,15.38-17.7,31.89-30.28,39.76-4.43,2.77-8.77,4.43-17.81,6.78-13.45,3.51-16.52,4.72-13.97,5.53.9.29,4.03-.29,6.95-1.3,2.92-1,8.34-2.62,12.07-3.59,9.46-2.47,14.74-5.34,21.92-11.88,9.71-8.85,17.74-20.88,24.38-36.48.98-2.32,1.06-3.94.21-4.45-.96-.57-1.94,1.02-3.47,5.63Z"/>
        <path class="cls-2" d="m148.75,225.51l4.97-2.8.81-14.01c.45-7.71.77-14.77.7-15.72-.06-.95.34-2.88.88-4.3.83-2.14.74-2.45-.5-1.81-.82.42-1.52,1.7-1.55,2.81-.06,1.75-.39,1.99-2.24,1.58-1.98-.43-2.09-.75-1.25-3.73.51-1.79,1.5-3.55,2.21-3.92s.82-.95.23-1.3c-3.36-2.01-7.43,7-7.32,16.2.03,2.58-.61,6.61-1.43,8.96-2.8,8.13-14.6,11.56-28.04,8.14-7.19-1.82-7.14-1.94-3.97,7.53,3.12,9.28,5.07,10.93,11.67,9.9,9.17-1.42,19.58-4.58,24.82-7.53Z"/>
        <path class="cls-3" d="m110.66,207.81c-1.87.97.44,2.55,6.78,4.64,9.63,3.16,21.05.06,24.05-6.55.81-1.79,1.44-6.3,1.4-10.02-.04-3.72.66-8.54,1.57-10.71l1.63-3.94-7.88-6.28c-19.62-15.62-29.65-27.61-55.29-66.16-7.87-11.84-15.1-22.23-16.07-23.1-2.05-1.86-6.16-.42-28.06,9.75-13.57,6.3-13.99,6.56-17.93,11.61-2.22,2.84-3.94,5.99-3.82,6.99.27,2.41,12.74,16.09,24.13,26.43,9.91,9.02,14.21,12.69,40.51,34.53,22.05,18.31,24.54,20.74,27.78,26.98,2.05,3.96,2.32,5.26,1.21,5.84Z"/>
        <path class="cls-2" d="m142.35,232.12c-2.28.76-7.68,2.22-12,3.24-4.32,1.02-7.92,2.07-8,2.33-.09.25,2.07,2.7,4.78,5.44,2.7,2.75,5.74,5.99,6.73,7.23,2.03,2.49,3.51,2.16,14.62-3.27l6.36-3.11-1.38-2.66c-.76-1.46-2.64-4.45-4.17-6.62-2.72-3.85-2.9-3.92-6.95-2.58Z"/>
        <path class="cls-2" d="m156.98,208.5l-.89,14.52,4.37-.95c10.38-2.28,13.1-3.28,19.44-7.14,3.69-2.25,8.79-6.24,11.34-8.89,8.23-8.51,18.83-25.92,18.89-31.02.09-5.96-5.36-3.26-16.63,8.26-8.73,8.93-16.61,14.08-21.48,14.01-1.91-.02-2.58-.65-3.11-2.89-.61-2.55-.77-2.63-1.56-.78-.49,1.14-1.73,2.16-2.75,2.28-1.61.18-1.68-.45-.51-4.36,1.32-4.38,1.07-7.25-.56-6.41-.42.22-1.21,1.95-1.75,3.86-.54,1.91-1.64,3.8-2.44,4.22-.88.47-1.82,6.58-2.36,15.29Z"/>
        <path class="cls-2" d="m169.66,191.06c.77-.09,1.69.42,2.07,1.15.97,1.86,3.07.49,3.86-2.52,1.37-5.2-4.91-6.63-6.43-1.46-.63,2.12-.48,2.95.5,2.84Z"/>
        <path class="cls-2" d="m157.27,184.83c.51-.27.73-.87.48-1.36s-1.01-.92-1.68-.97-.89.56-.48,1.36c.42.8,1.17,1.24,1.68.97Z"/>
      </g>
      <path d="m217.12,166.78h-1.67c-1.88-.04-3.75-.35-5.61-.69-.11.05-.21.11-.32.16-7.77,4.01-15.65,7.41-24.15,9.56-3.32.84-6.39,1.09-9.79,1.07-3.12-.02-6.1.89-9.2.72-.14.17-.24.26-.25.27-.06.01-.91-.11-1.99-.28-1.24.25-2.53.22-3.74-.15-1.74-.53-3.48-.91-5.19-1.34-.12.25-.43.17-.92-.24-.75-.2-1.49-.42-2.22-.67-.88-.09-1.76-.3-2.59-.63-.11-.04-.22-.09-.33-.13-.83-.14-1.55-.4-2.35-.78-.41-.2-.76-.34-1.12-.57-.22-.14-.52-.39-.82-.65-.25-.17-.49-.37-.73-.58-1.09-.6-2.34-1.4-3.74-2.41-2.34-1.7-4.1-3.26-5.46-5.02-.4-.3-.77-.64-1.09-1.03-.2-.27-.44-.51-.67-.75-.05-.04-.09-.08-.15-.12-.6-.44-1.18-.92-1.75-1.4-.92-.78-1.85-1.56-2.73-2.39-.1-.09-.2-.2-.3-.3-.47-.29-.9-.63-1.29-1.01v.05s-4.42-4.79-4.42-4.79c-9.11-9.85-24.64-31.46-43.62-60.68-1.74-2.67-7-10.09-11.7-16.47-5.3-7.2-7.88-11.13-8.52-13.39-.13-.21-.26-.42-.37-.64-.6-1.17-1.16-2.37-1.75-3.55-.3-.59-.6-1.18-.92-1.75-.08-.14-1.25-1.88-.37-.64-.36-.51-.64-1.03-.89-1.56-10.23,10.44-25.07,23.14-38.43,32.68-3.32,2.37-7.58,5.44-9.46,6.82-.72.53-3.07,1.97-6.47,3.99.28,1.3.52,2.61.81,3.91.05.21.42,1.52.4,1.61.2.51.44,1,.69,1.48.39.76.61,1.54.71,2.33.95,1.13,2.56,3.41,4.1,5.86,7.31,11.57,35,37.8,67.06,63.49,10.1,8.08,20.81,17.01,23.8,19.84,5.68,5.35,9.02,10.41,7.43,11.24-.51.27-.54,1.24-.06,2.16s.7,2.27.51,2.99c-.2.72-.06,3.02.29,5.1l.65,3.8h0c.06.12.12.23.17.34.38.9.73,1.8,1.08,2.71.98,1.28,1.88,2.62,2.66,4.05.65,1.2,1.17,2.43,1.61,3.68.42.38.8.81,1.13,1.29,3.19,2.56,6.22,5.63,8.84,8.82,1.06.54,1.97,1.36,2.68,2.35.48.34.95.76,1.4,1.27,3.16,3.62,6.34,7.32,8.9,11.4l3.1-.97c5.71-1.8,12.75-4.6,21.47-8.56-.17-.5-.27-1.01-.31-1.52-2.52-2.66-3.01-6.88.49-10.16,2.77-2.61,6.24-4.54,9.92-5.64,4.13-2.02,8.52-3.81,12.9-5.5,4.4-2.84,8.98-5.35,13.56-7.87,2.06-2.14,4.06-4.33,5.81-6.74,4.89-6.7,8.76-14.05,12.96-21.19,2.72-4.63,5.69-9.18,7.39-14.25-1.07-2.28-2.13-4.57-3.27-6.82-.18-.36-.36-.72-.54-1.07-.3,0-.7-.05-1.2-.12Zm-35.22,18.81c2.78-.65,2.76-1.77-.05-2.75-1.41-.49-1.21-.58.95-.45,3.86.26,4.33,1.96,1.34,4.87-3.71,3.6-6.23,5.64-6.45,5.21-.11-.21.22-1.71.74-3.34.65-2.06,1.7-3.13,3.48-3.55Zm-12.81,2.68c1.52-5.17,7.8-3.73,6.43,1.46-.79,3.01-2.89,4.38-3.86,2.52-.38-.73-1.3-1.24-2.07-1.15-.98.12-1.13-.72-.5-2.84Zm-13.09-5.72c.68.05,1.43.49,1.68.97s.03,1.09-.48,1.36-1.27-.17-1.68-.97-.2-1.41.48-1.36Zm5.72,6.48c.54-1.91,1.33-3.64,1.75-3.86,1.63-.84,1.88,2.03.56,6.41-1.17,3.9-1.1,4.54.51,4.36,1.03-.12,2.27-1.14,2.75-2.28.79-1.85.95-1.77,1.56.78.53,2.24,1.2,2.86,3.11,2.89,4.87.07,12.75-5.08,21.48-14.01,11.27-11.52,16.71-14.23,16.63-8.26-.06,5.1-10.66,22.51-18.89,31.02-2.55,2.65-7.65,6.64-11.34,8.89-6.34,3.86-9.06,4.86-19.44,7.14l-4.37.95.89-14.52c.54-8.71,1.48-14.83,2.36-15.29.8-.41,1.91-2.31,2.44-4.22Zm-80.12-14c-26.3-21.85-30.6-25.51-40.51-34.53-11.39-10.34-23.86-24.02-24.13-26.43-.12-1,1.61-4.15,3.82-6.99,3.94-5.04,4.36-5.31,17.93-11.61,21.9-10.17,26.01-11.6,28.06-9.75.97.87,8.19,11.25,16.07,23.1,25.64,38.55,35.67,50.54,55.29,66.16l7.88,6.28-1.63,3.94c-.91,2.17-1.61,6.99-1.57,10.71.04,3.72-.59,8.23-1.4,10.02-3,6.61-14.42,9.72-24.05,6.55-6.35-2.08-8.66-3.67-6.78-4.64,1.12-.58.85-1.88-1.21-5.84-3.24-6.25-5.74-8.68-27.78-26.98Zm30.59,48.15c-3.17-9.46-3.23-9.35,3.97-7.53,13.44,3.42,25.24-.01,28.04-8.14.82-2.35,1.46-6.38,1.43-8.96-.11-9.19,3.96-18.2,7.32-16.2.58.35.47.94-.23,1.3s-1.7,2.13-2.21,3.92c-.84,2.98-.74,3.3,1.25,3.73,1.85.41,2.18.17,2.24-1.58.04-1.12.73-2.39,1.55-2.81,1.24-.64,1.33-.33.5,1.81-.54,1.42-.94,3.34-.88,4.3.07.95-.25,8.01-.7,15.72l-.81,14.01-4.97,2.8c-5.24,2.95-15.64,6.11-24.82,7.53-6.6,1.03-8.56-.62-11.67-9.9Zm42.59,20.84l-6.36,3.11c-11.11,5.43-12.59,5.76-14.62,3.27-.99-1.23-4.03-4.48-6.73-7.23-2.71-2.74-4.86-5.19-4.78-5.44.08-.25,3.67-1.3,8-2.33,4.32-1.02,9.72-2.49,12-3.24,4.04-1.34,4.23-1.27,6.95,2.58,1.54,2.17,3.41,5.15,4.17,6.62l1.38,2.66Zm60.28-66.99c-6.63,15.61-14.67,27.64-24.38,36.48-7.18,6.55-12.46,9.41-21.92,11.88-3.73.96-9.15,2.58-12.07,3.59-2.92,1-6.04,1.58-6.95,1.3-2.54-.81.52-2.02,13.97-5.53,9.03-2.35,13.38-4.02,17.81-6.78,12.58-7.87,25.15-24.37,30.28-39.76,1.53-4.61,2.52-6.2,3.47-5.63.85.5.77,2.13-.21,4.45Z"/>
    </g>
  </g>
</svg>