<?xml version="1.0" encoding="UTF-8"?>
<svg id="Layer_2" data-name="Layer 2" xmlns="http://www.w3.org/2000/svg" viewBox="0 0 315.21 273.94">
  <defs>
    <style>
      .cls-1 {
        fill: #fff;
      }

      .cls-2 {
        fill: #32a548;
      }

      .cls-3 {
        fill: #ef3535;
      }

      .cls-4 {
        fill: #7a4d23;
      }
    </style>
  </defs>
  <g id="Layer_1-2" data-name="Layer 1">
    <g>
      <g>
        <path d="m258.29,190.18c.52.55,1.01,1.34,1.09,1.75s-.29.31-.81-.24c-.52-.55-1.01-1.34-1.09-1.75s.29-.31.81.24Z"/>
        <path d="m0,270.72c1.22,1.17,2.49,2.31,3.84,3.22,1.33-.43,2.64-.99,3.68-1.22,5.96-3.58,7.59-6.52,8.09-14.39.51-8.13,2.4-15.73,4.98-20.12,1.62-2.75,6.31-7.09,8.54-8.11,3.2-3.41,8.37-4.11,12.76-5.56.03,0,.05-.01.08-.02l5.75-3.22c7.36-4.11,16.9-11.57,18.5-14.47.43-.76,1.12-1.46,1.54-1.54s3.69,1.61,7.24,3.76c8,4.82,12.31,9.6,13.96,15.53,2.07,7.43,3.58,9.93,6.78,11.25,1.6.66,7.12,3.66,12.28,6.67,5.16,3.01,11.79,6.74,14.73,8.29l4.3,2.26c1.31-.08,2.62.04,3.86.42.35-.11.67-.19.9-.24,1.96-.4,3.96-.55,5.96-.71.94-.32,2.43-.59,3.5-.64.19,0,.32,0,.41,0,.33-.03.67-.03,1.02-.01.41-3.02.77-6.05,1.38-9.03-.28-.49-.55-1-.79-1.53-1.94-.79-3.86-1.63-5.77-2.57-.25-.13-.51-.27-.75-.42-2.08-1.06-3.99-2.42-5.62-4.06-1.79-.19-3.27-.04-4.03.57-2.39,1.94-8.87-1.28-12.91-6.39-1.27-1.61-2.28-4.05-2.79-6.72-.75-3.95-.69-4.21,1.06-4.55,4.13-.79,7.23-15.74,5.06-24.42-.63-2.51-1.01-4.57-.86-4.6s2.1.95,4.33,2.18c6.23,3.42,6.88,3.33,5.65-.81l-1.03-3.47,1.68,1.64c2.91,2.83,7.19,5.69,8.22,5.49,1.57-.3,1.01-1.1-2.56-3.58-1.83-1.28-3.15-2.58-2.93-2.9.79-1.16,10.93,6.53,11.96,9.07.24.59.42,1.02.6,1.32.08-.02.16-.04.23-.05.43-.08.86-.14,1.29-.2.64-.89.6-1.92-.14-3.97-.96-2.66-.92-2.83.43-2.08.81.45,2.17,1.87,3.03,3.15,1.38,2.09,1.78,2.25,3.7,1.47,1.97-.8,2.11-.73,1.64.78-.1.34-.31.75-.56,1.17,4.1,1.03,7.92,3.18,10.8,6.21.77.15,1.55.31,2.25.54.4.05.8.11,1.2.15,1.56.15,3.12.23,4.68.26,2.6.06,5.14.69,7.49,1.78.99.18,1.99.42,3.05.76,1.7.54,3.35,1.34,4.88,2.33.41.01.66.17.64.43,1.11.77,2.14,1.64,3.07,2.58,1.56.56,3.11.37,7.56-.63,4.11-.92,6.59-1.15,7.31-.66.86.58.16.92-3.18,1.55-2.35.45-4.4,1.15-4.55,1.56-.64,1.68,2.58,2.13,8.37,1.16,3.58-.6,6.54-.71,7.18-.28.86.58.52.85-1.52,1.25-1.44.27-3.06.95-3.59,1.5-.72.73.23.73,3.53.01,6.17-1.35,6.72-1.2,2.48.7-2.78,1.23-3.59,1.99-3.55,3.24.06,1.28-.63,1.88-3.19,2.78-3.9,1.36-6.48,4.32-8.35,9.57-.91,2.57-1,5.11-.3,7.55.16.23.31.49.44.79.21.49.35,1.07.52,1.64.21.41.45.82.71,1.22.1.15.15.3.1.44.55.57,1.57.99,2.2,1.33,1.23.66,2.4,1.31,3.48,2.09,1.48.15,2.94.1,4.37.2,8.39-1.77,9.82-2.77,12-7.14,1.76-3.53,2.28-4.05,3.41-3.42,1.09.6,1.45.48,1.97-.63,1.74-3.76,4.49-9.31,6.3-12.66,3.62-6.74,2.75-14.76-2.2-20.43-1.35-1.55-6.26-5.61-10.89-9.02-8.83-6.49-12.69-10.84-12.31-13.91.18-1.53.45-1.32,1.88,1.5,2.12,4.16,7.99,8.64,18.22,13.89,4.3,2.21,9.37,5,11.26,6.2,3.21,2.02,3.39,2.05,2.54.39-.5-.99-1.57-2.5-2.38-3.36-.87-.94-1.06-1.42-.46-1.19,1.16.44,8.12,9.66,8.4,11.12.38,2.02,2.34.45,2.41-1.94l.07-2.5,1.76,1.56c.97.86,2.6,2.9,3.62,4.54s2.16,2.92,2.52,2.85.38-1.57.05-3.34l-.6-3.22,1.85,1.61c1.02.89,3.36,3.52,5.22,5.87,3.49,4.41,4.69,4.81,4.83,1.63.08-1.73.35-1.62,3.85,1.57,2.07,1.9,4.98,4.66,6.46,6.16,3.8,3.85,4.9,3.72,3.66-.4-.5-1.7.6-1.85,2.57-.36,1.97,1.48,5.44,1.75,6.3.49.86-1.27,3.76-1.77,5.75-1,1.28.5,1.94.29,3.35-1.07.97-.95,2.42-1.61,3.27-1.51,1.07.12,1.79-.47,2.42-2.01.71-1.71,1.16-2.04,2.11-1.52,1.79.99,3.2-1.13,2.68-4.02-.38-2.14-.3-2.26.83-1.24,3.27,2.95,2.58-1.11-.82-4.74-4.25-4.55-7.21-4.96-15.7-2.17-3.76,1.23-4.36,1.21-8.13-.39-4.85-2.06-7.4-4.07-20.43-16.23-5.45-5.09-11.36-10.49-13.11-12.01-1.76-1.51-3.96-3.57-4.88-4.57-.92-1-2.89-2.17-4.37-2.6-3.4-.98-3.37-.96-2.97-2.04.23-.59,1.46-.57,3.62.06,4.9,1.43,3.79-.27-2.87-4.39-3.2-1.97-5.7-3.77-5.55-3.98.15-.22-.71-1.12-1.91-2-1.2-.88-2.32-2.33-2.47-3.21-.27-1.56-.25-1.57,1.11-.34.77.69,1.47,1.69,1.57,2.21s1.53,1.07,3.17,1.21c3.77.31,5.68-.04,5.49-1.01-.08-.42-.76-.64-1.51-.5-.76.14-2.43-.51-3.72-1.45-2.25-1.63-2.36-1.93-2.58-6.76-.13-2.78-.57-5.78-.98-6.67-.91-2-.48-2.13,1.85-.55,1.87,1.27,4.17,1.32,3.94.08-.07-.39-.46-.84-.86-.99-.91-.35-6.77-10.3-7.11-12.07-.21-1.08.25-1.32,2.67-1.4,1.6-.06,3.73-.02,4.71.08,3.39.34,2.58-2.22-2.19-6.94-2.46-2.42-4.54-4.8-4.63-5.26s.92-1.82,2.25-2.99c2.16-1.9,2.66-2.05,4.7-1.48l2.29.64-1.68-3.22c-.92-1.77-2.02-4.99-2.43-7.16-.65-3.43-.54-4.05.83-4.7,1.93-.92,6.45.08,13.68,3.03,5.73,2.34,10.46,2.28,13.47-.15,1.04-.84,1.86-.89,3.48-.22,2.95,1.22,6.89-.02,6.79-2.13-.13-2.87-4.86-9.64-8.43-12.07l-3.4-2.32,3.39-1.19c1.87-.65,4.58-1.95,6.02-2.87,4.79-3.06,12.96-18.11,11.3-20.79-.97-1.58-9.19-3.86-30.5-8.48-1.66-.36-3.9-1.3-4.98-2.08-1.77-1.29-1.93-1.72-1.57-4.38.28-2.15.12-3.13-.61-3.62-.55-.37-1.18-1.63-1.4-2.8-.3-1.55-.77-2.05-1.8-1.85-.76.15-3.11-.6-5.21-1.65-2.1-1.05-5.55-2.21-7.65-2.56-3.56-.6-4.17-1.06-8.59-6.49-4.35-5.33-4.92-6.43-6.61-12.68-1.99-7.39-4.06-10.48-6.67-9.98-.95.18-1.68,1.14-1.96,2.53-.24,1.23-1.46,6.07-2.71,10.76-2.47,9.27-2.25,11.22,1.41,12.73,1.18.49,2.25,1.51,2.4,2.26.2,1.04-.79.71-4.14-1.39-3.74-2.35-4.72-3.46-6.57-7.43-2.59-5.52-3.56-6.86-6.67-9.13-4.96-3.63-6.47-1.28-6.55,10.18-.04,5.42-.66,10.76-1.71,14.7-.91,3.4-1.49,7.03-1.3,8.06s-.26,2.71-1.01,3.74c-1.02,1.39-1.18,2.59-.63,4.78.55,2.21.42,3.26-.57,4.28-.72.74-1.93,3.38-2.68,5.86-.28.93-.62,1.81-.95,2.56-.04.26-.09.5-.16.72-.02.59-.18,1.18-.52,1.73-.04.17-.08.33-.13.49-.05.29-.09.57-.15.86-.03.35-.08.71-.18,1.08-.07.25-.16.5-.27.74-.2.76-.41,1.51-.56,2.27-.44,2.08-1.18,3.84-2,5.79-.16.38-.37.73-.62,1.05-.25.43-.55.81-.89,1.1-.26.22-.54.4-.82.57-.03.02-.06.05-.09.07,0,0-.02.01-.02.02-.02.01-.03.02-.05.04-.06.04-.12.09-.18.14-.15.12-.31.21-.48.3-1.62,1.44-11.06,5.94-16.39,7.77-6.87,2.36-11.9,4.37-17.23,6.92-6.49,3.09-18.85,4.68-34.23,4.39-11.14-.22-13.37-.01-25.81,2.35-10.22,1.94-14.77,3.13-18.23,4.76-6.7,3.16-7.49,2.73-8.61-4.59-1.05-6.89-2.46-7.86-2.7-1.86-.23,5.63.32,8.08,2.33,10.37,2.21,2.51,3.17,2.45,9.16-.51,3.96-1.97,7.47-2.96,16.73-4.75,10.4-2,13.44-2.26,27-2.29,10.1-.01,17.91-.46,23.04-1.32,6.69-1.13,7.65-1.14,7.05-.03-1.24,2.24-7.49,6.17-8.75,5.49-.86-.46-.51-1.06,1.47-2.55,2.35-1.76,2.4-1.87.45-1.09-5.6,2.24-13.29,2.96-28.4,2.63-12.91-.27-22.49.93-31.26,3.94-4.19,1.43-8.73,3.18-10.1,3.89-3.12,1.61-5.34,2.06-4.94,1,.17-.44-.4-1.02-1.27-1.3-1.77-.55-4.87-6.19-4.62-8.39.09-.78.37-3.14.63-5.26.26-2.11.22-3.61-.09-3.33-.58.53-2.28-3.47-2.97-7.03-.46-2.37-1.07-2.52-2.03-.51-.54,1.15-1.01.48-2.72-3.85-2.29-5.83-2.27-8.25.16-14.44,1.56-3.98.89-4.69-1.75-1.85l-1.97,2.14,1.66-5.82c2.39-8.36,2.06-18.35-.83-24.94-1.96-4.47-7.22-11.24-8.54-10.99-.33.06-.25,2.22.17,4.8,1.15,7.13.17,12.85-3.01,17.65l-2.72,4.09-1.25-2.7c-.69-1.48-1.52-2.65-1.83-2.59s-.6,2.15-.62,4.63c-.02,2.48-.22,4.96-.44,5.52-.02.05-.07.06-.13.06-.21.68-.61,1.27-1.14,1.74-.39.56-.81,1.11-1.21,1.67-.19.52-.39,1.03-.6,1.51-.91,2.07-1.32,4.3-1.85,6.49-.19.76-.54,1.33-.98,1.75-.18,1.3-.27,2.55-.23,3.48l.15,3.15c.39,2.14.62,4.3,1.05,6.42.08-.01.19.09.36.32.55.76,1.23,2.42,1.5,3.7.19.9.78,2.12,1.63,3.48,1.2,1.3,2.5,2.54,3.38,4.09.22.39.43.78.65,1.17.44.48.88.96,1.34,1.43.9.92,1.24,1.5,1.18,1.76,4.58,4.25,8.05,9.27,10.62,14.87.89,1.52,1.61,3.16,2.09,5.02.05.04.1.07.16.1,1.7,1.14,1.67,1.24-1.72,6.63-1.97,3.13-4.5,8.84-5.9,13.34-1.83,5.87-3.11,8.51-5,10.33-2.9,2.79-1.58,3.37,2.53,1.08,3.08-1.71,4.73-4.94,7.32-14.41,1.4-5.09,2.77-8.24,4.38-10.03,1.29-1.44,2.37-2.44,2.41-2.23s-.67,2.09-1.57,4.19c-.9,2.11-2.64,7.13-3.87,11.16-1.23,4.04-2.8,8.29-3.48,9.45-1.24,2.09-8.63,8.01-10.44,8.35-.52.1-.89.48-.82.85.21,1.11,2.3,1.16,5.14.13l2.68-.97-1.18,4.06c-1.71,5.86-5.45,11.54-7.93,12.01-2.69.51-2.32,1.66.68,2.11,1.69.25,3.07-.01,4.57-.89,1.19-.68,2.33-1.12,2.55-.97.77.53-3.06,5.08-4.8,5.7-2.34.83-2.44,2.15-.25,3.14,1.42.64,1.76,1.3,1.74,3.39,0,.92.07,1.57.26,2.07.86.25,1.63.79,2.12,1.54.9,1.38.8,2.85.05,4.28-.95,1.79-1.88,3.49-2.56,5.38l-.03.13c-.87,3.3-2.02,6.79-2.85,8.84-.35,1.6-.97,3.15-1.96,4.62-2.15,3.16-4.69,6.45-8.11,8.28-.73,1.07-1.86,1.93-3.26,2.46-.42.61-.84,1.21-1.25,1.81-.05.19-.1.38-.15.58.13.39.05.86-.28,1.34,0,0-.02.02-.02.03-.37,2-.5,4-.61,5.33-.05.63-.06,1.3-.06,1.99.19.31.27.68.12,1.05-.04.1-.08.18-.13.25-.01,1.26-.07,2.52-.39,3.64.24,2.71-.35,9.38-1.28,13.89l-.72,3.48c.1.59.21,1.18.31,1.78l1.01-.47c2.05-.96,2.65.27.89,1.81-.59.51-1.09.8-1.53.87.08.5.15,1.01.21,1.52.19,1.67-.57,2.96-1.66,3.74Zm36.23-103.79c-.77,3.75-2.22,4.37-1.88.8.28-2.91,1.3-5.39,2.01-4.91.35.23.29,2.08-.14,4.1Zm-14.87-105.28l.5,2.65c.61,3.34-.59,5.94-2.69,5.8-1.33-.09-1.6.51-1.76,3.94-.15,3.06-.39,3.72-.99,2.68-.52-.9-.66.22-.4,3.27.36,4.25,1.51,7.52,4.72,13.44,1.23,2.27-.47,1.6-2.5-.98-3.61-4.61-4.66-13.33-2.7-22.61l.64-3.08,1.57,1.52,1.57,1.53,1.02-4.07,1.02-4.07Zm15.94,40.67c4.15,3.78,1.37,3.31-4.36-.75-5-3.55-10.4-9.18-9.04-9.44.74-.14,8.76,5.95,13.4,10.19Zm-4.41-23.27c.76-2.15,1.54-3.81,1.72-3.68.19.12.16,1.98-.07,4.12-.51,4.93,1.43,15.26,3.68,19.59,2.46,4.71.94,3.65-2.28-1.58-3.81-6.23-4.96-13.12-3.06-18.45Zm-2.2-9.97c-1.04,3-1.31,2.97-1.24-.15.04-1.41.49-4.04,1.01-5.84.52-1.81.96-6.65.98-10.77l.04-7.49.9,6.77c.77,5.87,1.04,6.69,1.96,6.12.64-.4.28,1.3-.89,4.2-1.08,2.67-2.32,5.89-2.76,7.16Zm11.24,34.18c-.45-.17-1.5-1.96-2.35-3.97-.85-2.01-1.75-4.92-2.01-6.47-.36-2.2,0-1.69,1.59,2.28,1.13,2.8,2.39,5.86,2.82,6.78.45.99.43,1.56-.04,1.37Zm118.52,20.17q.67-2.02,1.82-.59c1.26,1.57,2.44,6.65,2.04,8.86-.23,1.27-.42,1.27-1.97-.04-.94-.79-1.9-2.52-2.13-3.83-.24-1.31-.13-3.29.24-4.4Zm20.86,61.85c-.18-.96,2.48-4.53,5.13-6.86l2.13-1.87-1,2.87c-.55,1.58-2.07,3.69-3.37,4.69-2.78,2.14-2.71,2.11-2.89,1.17Zm2.89,1.32c1.76-2.26,3.04-2.69,2.31-.77-.32.84-2.67,2.71-3.74,2.99-.21.05.44-.95,1.43-2.22Zm-3.34-34.38c-1.11-2.98-.65-3.61,1.34-1.82,2.15,1.94,2.54,6.37.83,9.42-.85,1.5-1.69,2.63-1.89,2.5-.19-.13-.1-1.84.2-3.79.35-2.25.17-4.57-.47-6.31Zm-4.82-2.99c2.13,1.6,2.85,2.74,3.34,5.31.68,3.58.06,5.64-.89,2.94-.33-.93-1.55-3.22-2.73-5.08-2.96-4.7-2.89-5.56.28-3.17Zm-5.38-13.18c-1.17-.94-2.76-3.01-3.54-4.61-2.27-4.66-1.62-6.03,1.04-2.22,1.28,1.84,2.42,3.83,2.53,4.42.11.59.54,1.01.96.93.42-.08.56-1.17.32-2.41-.27-1.41-.05-2.34.6-2.47.78-.15,1.03.52,1.05,2.8.04,4.85-.52,5.51-2.98,3.56Zm-9.66-28.43c-1.66,2.81-1.79,2.9-1.68,1.07.15-2.66,1.57-5.61,4.01-8.36l2.01-2.27,1.25,3.72c.9,2.67,1.11,4.96.74,8.15-.29,2.44-.67,4.32-.86,4.19-.2-.13-.86-1.24-1.48-2.46-.9-1.78-.9-3.03,0-6.18l1.11-3.95-1.42,2.62c-.84,1.56-1.51,2.18-1.64,1.52-.12-.64-.97.18-2.02,1.95Zm-3-3.81c.41-.75,1.38-1.87,2.17-2.48,1.27-1,1.26-.87-.03,1.22-1.54,2.48-3.43,3.58-2.14,1.26Zm9.48-15.76c-2.3,2.26-3.13,4.04-2.76,5.95s-.9,3.67-3.97,5.51c-2.98,1.78-3.26,1.84-3.47.73-.22-1.15,6.25-10.6,8.39-12.27,2.3-1.78,3.65-1.72,1.81.08Zm9.07,32.45c-1.37-1.79-2.88-4.15-3.38-5.24-1.3-2.87-2.09-2.26-2.62,2.02l-.45,3.77-1.08-2.73c-.58-1.5-1-3.52-.92-4.48.54-6.23,1.93-8.33,2.74-4.12.39,2.04.58,2.2,1.43,1.17,1.47-1.78,2.4-.71,4.96,5.77,3.34,8.43,3.24,8.99-.69,3.84Zm11.08-61.85l-1.74,2.55c-2.33,3.43-2.92,10.5-1.52,18.27,1.09,6.07,1.07,6.22-.38,3.99-1.03-1.58-1.73-4.15-2.22-8.15-.79-6.51-.5-7.98,2.58-13.04,1.61-2.66,1.88-3.68,1.09-4.21-.58-.39-1.21-1.57-1.41-2.61-.33-1.71-.16-1.64,1.61.65l1.98,2.55Zm-2,15.32c.76-2.36,1.81-4.8,2.34-5.44.83-.99.95-.79.94,1.51-.01,1.45.24,4,.55,5.66.45,2.37.31,2.97-.64,2.8-1.01-.18-1.04.69-.18,5.22.95,5.02.92,5.34-.39,4.06-.78-.76-2-3.21-2.7-5.44-1.13-3.57-1.12-4.59.09-8.35Zm3.89-51.2c.29,1.33.1,4.85-.42,7.82-1.13,6.5-.55,10.07,2.16,13.43,2.44,3.01,2.51,3.24,1.15,3.5-1.11.21-1.53,2.6-.99,5.57.28,1.54.13,1.69-1.02,1.05-.74-.41-2.22-1.58-3.28-2.6-1.52-1.46-1.66-1.81-.65-1.62,1.82.33,3.38-1.88,2.59-3.67-1.09-2.46-1.45-11.87-.74-19.12.49-4.97.81-6.13,1.19-4.36Zm8.49,14.27c-.16.24-1.15-.27-2.2-1.15l-1.93-1.59.84,1.8c.47.99,1.22,2.6,1.7,3.6.7,1.49.64,1.67-.36,1.03-.71-.45-1.75-2.91-2.51-5.99-.78-3.1-1.01-5.28-.57-5.36.82-.16,5.47,6.95,5.03,7.67Zm14.88,2.13c1.32-.88,2.57-1.48,2.78-1.34.21.13-1.33,3-3.39,6.37-2.07,3.37-4.07,7.19-4.46,8.49-.9,3.07-3.91,6.74-5.83,7.11-1.32.25-1.26-.17.59-3.39,1.16-2.02,2-4.21,1.88-4.87-.29-1.59,1.64-6.64,2.61-6.82.43-.08.08,1.93-.78,4.46-.85,2.53-1.17,4.53-.7,4.44s1.23-1.86,1.69-3.94c1.23-5.6,2.91-8.74,5.61-10.52Zm.06,9.04c-3.69,2.94-3.93,3.04-3.21,1.28,1.7-4.14,6.71-8.64,11.88-10.67,2.74-1.08,5.66-1.83,6.48-1.68,1.36.25,1.34.4-.2,1.65-.94.76-1.58,2.02-1.43,2.8.28,1.44-2.6,7.84-4.82,10.75-1.53,2-2.81,2.31-2.51.61.13-.71.14-1.77.03-2.36-.11-.59.9-2.7,2.25-4.68,3.02-4.44,2.27-4.49-1.5-.1-1.55,1.8-3.11,3.33-3.47,3.4-.97.18-1.13-1.67-.27-3.01.42-.64-1.04.27-3.23,2.02Zm26.79,10.67c-1.91.36-4.82-1.11-5.66-2.87-.64-1.36-.51-1.35,1.45.09,2.49,1.84,3.61,1.79,5.58-.23,1.28-1.32,1.46-1.34,1.97-.18.8,1.8-.99,6.92-3.09,8.85-2.9,2.67-3.23,2.15-.88-1.41,2.46-3.74,2.59-4.63.62-4.26Zm-2.9-8.03c.54-1.41,2.8,0,2.52,1.56-.19,1.08-.38,1.11-1.56.31-.73-.5-1.16-1.34-.96-1.87Zm2.39,4.21c-.4,1.05-1.02,1.17-2.65.5-.99-.4-.8-.61.85-.93,1.22-.24,1.99-.06,1.8.43Zm-9.14-2.74c-.75.61-2.67,1.61-4.28,2.21-1.61.6-3.09,1.15-3.29,1.23-.2.08.22-.51.93-1.31,1.66-1.88,8.87-7.48,9.87-7.67,1.01-.19-1.48,4.1-3.22,5.54Zm-9.65-29.58c-2.08-2.75-3.62-5.24-3.41-5.54.21-.31,1.53,1.13,2.95,3.19,4.23,6.14,4.54,7.73.46,2.35Zm25.3,15.01c.2,1.04.02,1.96-.4,2.04s-.92-.7-1.12-1.75-.02-1.96.4-2.04.92.7,1.12,1.75Zm31.61,26.52c.42-.08,1.03.16,1.37.52.34.37.27.73-.14.81s-1.03-.16-1.37-.52c-.34-.37-.27-.73.14-.81Zm-2.23-3.99c-.04-.21.16-1.1.44-2,.56-1.81,2.7-2.47,5.32-1.65l1.76.55-1.56,1.26c-1.54,1.24-5.82,2.56-5.95,1.83Zm-7.81-3.82c-2.96-.9-8.14-2.22-11.51-2.93-6.17-1.3-10.16-2.95-10.05-4.16.03-.36-.45-1.26-1.07-2.01-.62-.74-1.93-3.36-2.92-5.8-.98-2.44-2.08-4.72-2.41-5.07-.35-.34-2.95-1.31-5.79-2.14-4.55-1.34-5.88-1.39-11.27-.36-4.69.89-6.89.94-9.48.18-1.85-.54-3.2-1.22-3-1.51.91-1.34,13.21-1.73,22.18-.7,5.03.59,7.57,2.56,10.7,8.34,4.37,8.08,6.29,9.5,14.74,10.84,1.71.27,6.36,1.37,10.34,2.44,5.86,1.57,7.11,2.17,6.58,3.14-.89,1.62-.91,1.62-7.04-.25Zm-8.1,3.65c.9-.35,2.43-.64,3.4-.65.97,0,.23.3-1.64.66-1.87.36-2.67.35-1.77,0Zm10.73,7.99c-5.71,7.48-8.09,9.28-6.88,5.24.77-2.61,5.53-8.99,6.86-9.2.45-.07,1.56.24,2.47.69,1.58.78,1.52,1-1.12,4.89-3.88,5.7-5.47,5.5-1.81-.22,2.36-3.69,2.46-3.99.49-1.39Zm-11.05,17.82c-3.02-2.69-3.07-2.81-1.27-2.66,8.21.69,12.25,2.87,16.07,8.65,2.11,3.18,2.11,3.22.07,3.61-1.11.21-3.49-.93-6.72-3.23-2.74-1.96-6.41-4.82-8.15-6.37Zm-2.11,3.43c-.65.12-1.21.07-1.24-.11-.15-.8,1.24-1.41,1.8-.8.35.37.09.78-.56.91Zm-22.05-4.24c.21-1.14.44-1.09,1.51.34,1.51,2,9.99,4.52,16.75,4.97,2.57.17,5.56.88,6.64,1.57,1.09.69,2.58,1.03,3.31.75.8-.3,1.54,0,1.85.75.45,1.1-.05,1.12-4.09.18-2.53-.59-5.45-1.4-6.47-1.81-1.03-.41-3.11-.76-4.62-.78-3.16-.05-13.5-2.83-14.47-3.9-.36-.39-.55-1.33-.42-2.07Zm19.05,1.85c-2.08.9-4.41.27-6.02-1.62-2.15-2.52-1.19-3.11,2.87-1.77,3.96,1.32,5.1,2.55,3.15,3.39Zm-11.53-4.33c-.91-.73-1.52-1.52-1.36-1.76.48-.69,3.52.49,4.24,1.66.97,1.58-.95,1.65-2.88.1Zm-9.1,22.68c-.07-1.95.26-4.03.75-4.62.73-.88.98-.56,1.45,1.88.51,2.69-.62,7.27-1.63,6.58-.23-.16-.49-1.89-.57-3.84Zm-10.92-29.54c-1.75,1.53-3.41,3.53-3.7,4.43-.44,1.41-.27,1.6,1.22,1.34,1.69-.3,1.68-.25-.07,1.67-2,2.19-3.97,8.17-4.09,12.43-.07,2.37-.19,2.56-.96,1.36-.48-.77-1.06-2.24-1.28-3.28-.21-1.04-.01-3.47.46-5.41l.86-3.53-2.06,1.8c-1.14.99-2.71,2.93-3.5,4.33-.79,1.39-1.69,2.34-2.01,2.13-1.14-.78.98-6.16,3.49-8.83,1.41-1.5,4.04-4.65,5.83-7.01l3.26-4.29-3.14.6c-6.29,1.2-12.5,7.5-14.39,14.6l-1.33,5.04-.83-2.65c-.61-1.92-.42-4.16.69-8.24.83-3.08,1.41-6.13,1.29-6.77s.15-2,.61-3.01c.94-2.08-.17-3.02-2.13-1.8-1.01.62-1,.79.08,1.24,1.02.42.85,1.01-.98,3.23-1.23,1.5-2.39,2.44-2.6,2.09-.54-.92,3.76-10.48,5.75-12.77,3.37-3.87,6.46-2.85,4.1,1.35-1.7,3.03-1.67,4.39.1,4.05,1.13-.21,1.16-.08.37,1.3-.75,1.3-2.48,6.72-2.36,7.37.02.12,1.48-1.01,3.25-2.5,3.17-2.68,3.39-2.75,17.58-5.45,12.07-2.3,14.8-3.04,17.05-4.62,2.2-1.55,2.55-1.65,1.94-.55-1.15,2.08.17,2.28,2.19.32l1.83-1.76-.95,2.29c-.83,2.02-.8,2.32.31,2.51.68.12,2.06-.16,3.04-.61,1.04-.48,1.86-.51,1.95-.07.38,1.99,7.48-1.09,11.59-5.02,1.27-1.22,3.26-2.65,4.41-3.17,3.34-1.52,1.88.69-2.43,3.66-2.07,1.42-3.71,2.78-3.66,3.03s.99-.27,2.1-1.14c3.08-2.42,4.2-2.22,2.07.37-2.84,3.46-10.18,9.56-11.32,9.41-.56-.07.26-1.37,1.8-2.87,3.46-3.37,3.58-4.23.16-1.24-1.38,1.21-3,2.41-3.61,2.65-.61.25-2,.87-3.09,1.37-2.24,1.05-2.75.39-1.07-1.4.94-1.01.53-1.03-2.57-.1-3.52,1.05-3.64,1.04-2.42-.44,1.19-1.44,1.13-1.44-.97.13-1.86,1.38-2.77,1.61-5.4,1.34-3.78-.39-3.69-1.55.17-2.34,1.53-.31,3.71-1.25,4.85-2.08l2.06-1.53-2.55,1.03c-1.4.56-3.4,1.15-4.46,1.3s-4.49.64-7.63,1.09c-5.14.74-6.05,1.1-8.9,3.61Zm7.13,39.48c.19-.27.9.22,1.58,1.09.69.88,3.14,2.95,5.46,4.61,2.31,1.66,3.46,2.79,2.54,2.52-.91-.27-2.74-1.28-4.05-2.25-3.17-2.34-5.95-5.35-5.53-5.97Zm-14.92,1.78c-4.87-.55-14.17-4.08-20.97-7.97-5.5-3.14-12.81-9.42-15.88-13.65-4.17-5.74-5.09-8.59-3.93-12.19l.95-2.92.57,2.85c.79,3.88,4.55,10.19,8.5,14.21,9.47,9.66,28,17.87,39.64,17.55,4.44-.12,4.85-1.76.5-2.03-10.12-.64-17.48-2.9-27.35-8.4-10.4-5.8-18.31-14.47-19.72-21.59-.81-4.13.3-5.09,1.66-1.43,4.1,11.03,21.05,23.23,38.62,27.78,10.18,2.63,10.01,2.65,11.42-.79,1.65-4.03,2.68-3.96,2.3.16-.25,2.64-.91,3.89-2.99,5.66-3.31,2.8-6.69,3.5-13.3,2.77Zm-34.6,1.92l-.27-2.75,1.87,2.68c1.03,1.47,2.05,3.4,2.27,4.27.31,1.27.41,1.31.49.21.05-.76.63-1.49,1.28-1.61.97-.18,1.22.42,1.37,3.38.1,1.98.31,4.32.47,5.2.28,1.57.25,1.57-1.11.34-.77-.69-2.44-2.99-3.73-5.11-1.29-2.12-2.47-5.09-2.62-6.6Zm33.06,30.1l.98,2.72c.53,1.49.85,3.37.7,4.18-.2,1.05-1.18-.14-3.52-4.28-1.79-3.16-4.42-7.1-5.87-8.74-1.44-1.65-3.24-3.35-3.99-3.76-1.88-1.04-6.23-9.52-7.31-14.26l-.89-3.87-1.18,2.04c-.65,1.13-1.59,3-2.11,4.16l-.93,2.11-.36-1.7c-.2-.94.55-3.19,1.67-5,1.71-2.76,2.24-3.17,3.37-2.55.74.41,1.83,2.13,2.44,3.82,2.2,6.21,5.05,11.06,8.8,14.99,2.11,2.22,3.95,4.51,4.1,5.1.15.62.39.39.57-.56.27-1.44.67-1.24,3.4,1.67,1.7,1.81,3.24,4.16,3.44,5.22l.35,1.93-1.84-1.61-1.83-1.61Zm15.2-14.74c-1.37-2.58-2.59-5.23-2.72-5.87-.42-2.19,3.03.64,4.33,3.54,1.11,2.49,1.85,6.85,1.18,6.98-.16.03-1.42-2.06-2.79-4.65Zm6.06,30.69c-4.85-1.68-5.75-2.36-5.43-4.16.17-.97,1.36-.64,5.5,1.5,2.9,1.5,5.5,2.97,5.76,3.27,1.03,1.11-1.65.84-5.84-.61Zm15.6,34.26l1.48,2.07c.81,1.14,1.88,3.05,2.38,4.25l.9,2.18-1.51-2.15c-.83-1.18-1.9-3.1-2.38-4.25l-.87-2.1Zm-6.32-22.27c-3.07-1.73-3.54-1.2-1.06,1.21,2.57,2.5,1.13,2.57-2.14.1-1.68-1.26-5-3.66-7.36-5.32-3.18-2.23-4.41-3.6-4.73-5.28-.24-1.25-.13-2.33.24-2.4.8-.15,1.95,1.55,2.3,3.41.24,1.29,2.98,3.34,5.49,4.13.68.21.05-.49-1.42-1.56-3.28-2.41-2.93-3.19,1.07-2.34,3,.63,9.66,4.08,9.24,4.79-.11.2,1.4,1.52,3.35,2.94,1.96,1.41,5.44,4.33,7.73,6.48,2.3,2.15,5.94,5.52,8.1,7.47,2.16,1.96,5.81,5.46,8.11,7.78,5.78,5.84,9.67,8.65,15.18,10.96,5.05,2.12,4.54,2.17,14.89-1.37,2.81-.97,3.59-.93,5.1.21l1.78,1.35-2.29-.4c-1.27-.22-3.48.06-4.93.62-2.14.84-2.33,1.08-1.04,1.27,1.4.21,1.25.52-1.12,2.42-3.49,2.77-7.63,3.66-9.73,2.07-1.37-1.04-1.44-1.26-.48-1.67.68-.29-.59-1.15-3.3-2.23l-4.41-1.76,3.1,1.87,3.1,1.87-2.81-.9c-1.54-.5-4.24-2.04-5.99-3.43-1.8-1.42-2.83-1.91-2.38-1.12l.82,1.41-1.5-1.28c-.83-.7-1.57-1.56-1.65-1.9-.08-.34-1.87-2.26-3.98-4.27-3.78-3.61-3.83-3.62-2.95-1.15.78,2.23.54,2.08-2.09-1.37-1.64-2.13-4.9-5.34-7.25-7.13-2.35-1.79-4.34-3.61-4.42-4.05s-.34-.53-.56-.21c-.52.77-7.25-7.27-7.21-8.62.01-.55-1.25-1.73-2.83-2.61Zm-12.45,15.95l4.55,1.23c6.16,1.66,9.02,3.64,11.73,8.09,2.84,4.69,3.02,5.6.47,2.4-1.08-1.35-3.29-3.32-4.92-4.39-1.62-1.06-4.95-3.15-7.39-4.64l-4.43-2.7Zm-14.51-47.17c-3.77-5.28-6.73-11.66-4.28-9.23,4.55,4.53,5.69,6.1,7.14,9.81.89,2.29,1.81,4.3,2.05,4.46.24.16-.14-2.5-.83-5.91-.76-3.7-.99-6.6-.57-7.21.38-.56.5-2.06.27-3.33l-.42-2.31,1.9,1.6c4.35,3.64,5.7,5.62,6.41,9.3.82,4.31.33,4.19-3.02-.77-1.98-2.92-2.4-3.24-2.22-1.69.19,1.58.04,1.47-.86-.62-.7-1.61-.58-.62.32,2.76,1.01,3.74,1.3,6.64.99,9.89-.25,2.52-.61,4.48-.81,4.34-.21-.14-.84-1.56-1.41-3.15-.57-1.59-2.66-5.16-4.64-7.94Zm-3.61,26.68c1.14-2.22,3.15-5.11,4.47-6.43,2.65-2.65,2.56-2.06-.62,4.1-2.29,4.42-2.97,8.4-2.16,12.68.76,4.01-1.33,2.01-2.66-2.55-1.01-3.45-.93-4.1.97-7.8Zm-14.83-29.55c-3.72-2.43-4.1-2.53-3.81-1,.18.94,1.09,2.69,2.03,3.89,1.63,2.07,1.64,2.14.17,1.33-.84-.47-2.02-.82-2.61-.8-1.41.07-7.53-3.14-9.84-5.16-1.02-.89-1.87-1.17-1.94-.66-.19,1.46-5.37-3.63-6.63-6.52-.63-1.44-1.05-2.77-.92-2.95.12-.17,1.79,1.26,3.7,3.18,2.89,2.92,3.42,3.21,3.13,1.69l-.35-1.82,2.32,1.46c1.27.8,3.44,2.74,4.81,4.31,2.97,3.39,3.39,3.52,1.9.57-.61-1.2-.98-2.93-.82-3.83.24-1.47.4-1.54,1.5-.63.67.56,1.64.93,2.14.84,1.44-.28,11.6,7.26,14.06,10.44,3.37,4.34,2.95,4.92-1.08,1.47-2-1.7-5.5-4.32-7.77-5.81Zm5.12,23.29c-2.18,5.83-3.21,6.26-2.26.93.65-3.6,2.65-7.14,3.65-6.46.3.2-.33,2.7-1.38,5.53Zm16.72,56.39c.28,4.09-4.51,14.93-7.98,18.08-2.03,1.84-2.06,1.84-2.6.33-.3-.84-.06-2.35.54-3.36q1.09-1.82-2.79-.55c-2.14.71-4.44,1.61-5.1,2.01-2.2,1.34.02-1.85,2.34-3.38,1.92-1.26,1.96-1.42.56-2.1-1.31-.63-1.04-.77,1.95-1.01l3.47-.28-2.73-.68c-3.83-.96-2.86-2.25,2.44-3.26,4.2-.8,4.54-1.01,4.9-3.03.2-1.19.12-2.59-.2-3.1-.4-.65.11-1.06,1.67-1.36,3.17-.6,3.4-.49,3.54,1.68Zm-20.08-35.75l-.21-2.33,2.38,2.96c1.3,1.63,2.48,2.81,2.6,2.62.13-.19-.39-1.78-1.15-3.54-.77-1.76-1.45-4.08-1.52-5.17-.1-1.52.5-.87,2.59,2.79,3.19,5.59,8.51,10.68,16.91,16.18,8.54,5.59,12.29,11.13,11.76,17.36-.14,1.64-.39,1.32-1.42-1.83-.69-2.1-2.13-4.66-3.19-5.69-3.3-3.16-10.99-7.66-11.81-6.92-.47.44-.61.32-.38-.3.22-.56-.72-1.89-2.14-3.04-2.1-1.7-2.38-1.77-1.71-.44.45.89,1.17,2.33,1.6,3.22.45.94-.83.15-3.11-1.9-2.14-1.94-3.81-3.03-3.72-2.43.1.6-1.5-1.24-3.55-4.07-2.32-3.21-3.81-6.04-3.94-7.48Zm-4.74-20.41c.45-.83-.35-.35-1.8,1.09-1.43,1.42-2.7,2.51-2.82,2.43-.13-.09.41-2.45,1.2-5.24.78-2.8,1.22-5.44.98-5.86-.24-.43-1.83.92-3.54,2.99-1.71,2.07-3.31,3.63-3.53,3.48-.23-.15-.17-2.16.13-4.44.34-2.53.19-5.2-.4-6.83l-.95-2.68,1.81,1.5c1,.83,1.91,1.98,2.02,2.56.3,1.6,1.53,1.01,1.64-.79.13-1.89,2.28-2.52,3.25-.95.56.9.77.9,1.13-.02.35-.86.51-.81.72.22.15.74.82,1.44,1.49,1.57,1.58.29,2.07,2.99.98,5.41-1.06,2.37.13,2.27,1.59-.13,1.36-2.23,2.25-2.43,2.12-.48-.14,2.08-3.37,6.45-5.28,7.12-1.39.49-1.47.39-.76-.93Zm1.68,21.61c-.42-2.16-.46-4.2-.1-4.54.42-.39,1.05,1.42,1.7,4.92.73,3.85.75,5.23.1,4.54-.52-.55-1.29-2.76-1.7-4.92Zm-1.76,2.18c-.25,1.22-.42,1.12-.97-.63-.36-1.17-.36-2.56,0-3.1.79-1.16,1.44,1.37.97,3.73Zm3.69,18.37c1.12.24.12.62-3.14,1.19-2.63.45-5.01.58-5.29.28-.66-.71,6.32-1.93,8.43-1.46Zm-25.11-7.46c.17-.26,2.33.2,4.79,1.01,2.46.82,6.49,1.7,8.97,1.98,2.47.28,5.43,1,6.58,1.61l2.09,1.12-1.87-.17c-1.04-.09-4.08-.36-6.78-.61-8.85-.81-15.06-3.04-13.77-4.94Zm-8.71-2.91c.33-.3,2.66-.55,5.19-.55,2.53-.01,5.64-.12,6.91-.24,4.3-.41,4.66-.29,2.1.74-2.61,1.05-7.48,1.82-11.98,1.91-2.47.05-3.41-.75-2.21-1.85Zm-6.13-6.38l3.25-3.14c4.73-4.58,5.93-7.91,4.85-13.56-.48-2.54-1.44-5.73-2.12-7.08-1.79-3.55-1.09-3.65,1.6-.23,5.82,7.41,3.47,21-3.92,22.66l-2.35.52,2.77.13c1.53.07,3.48-.19,4.35-.58,2.06-.94,3.92-.32,2.65.87-1.39,1.3-4.8,1.74-8.1,1.04l-2.99-.63Zm-3.24-76.52c.46.17,1.1,2.59,1.45,5.43.35,2.81.72,5.8.83,6.65.38,2.9-2.93-2.12-3.63-5.49-.71-3.42.05-7.08,1.34-6.58Zm-2.75-1.85c-.1,2.9-.67,4.69-.99,3.06-.3-1.57-1.7-.65-2.21,1.46-.28,1.13-.58,2.07-.67,2.09-.1.02-.35-1.48-.58-3.32-.4-3.26.4-6.84,1.56-7.06.32-.06.67.39.79,1,.12.64.62.85,1.2.5.8-.5.97-.07.89,2.27Zm-1.24,22.72c.81-.44.98.08.94,2.9-.03,1.9.82,7.68,1.88,12.87,1.5,7.3,1.68,9.12.79,8.08-.62-.74-1.36-2.18-1.62-3.21-.27-1.03-.88-3.56-1.36-5.62-.66-2.85-.96-3.35-1.23-2.12-.2.9-.22,2.67-.05,3.93l.32,2.29-1.13-2.14c-2.56-4.86-1.66-15.25,1.46-16.98Zm-8.25-12.65c-.41-3.6-.28-6.96.36-9.08l1.01-3.37-1.3,1.71q-1.3,1.71-1.07-.88c.13-1.44.72-3.39,1.3-4.35.95-1.56,4.17-4.53,5.11-4.7.89-.17.55,3.77-.52,6.11-2.43,5.3-2.99,13.92-1.65,25.66.07.64-.48-.32-1.23-2.12-.75-1.8-1.65-5.84-2.01-8.99Zm-4.33-16.87c-1.35,1.93-2.71,3.35-3.02,3.13-1.48-1,4.69-10.03,9.26-13.52,1.13-.87,3.55-2.08,5.37-2.7,2.86-.97,3.13-.96,1.98.12-.73.69-3.69,4.58-6.57,8.67-2.88,4.08-5.37,7.32-5.54,7.2-.17-.12.03-1.35.44-2.74,1.17-3.92.74-3.96-1.92-.15Zm-1.41,19.55c.29-2.18.94-4.47,1.45-5.08.77-.93,1-.72,1.38,1.3.49,2.56-.02,5.01-1.56,7.66-1.36,2.32-1.88.73-1.27-3.87Zm-20.13,7.39c2.82-2.15,5.56-4.42,6.1-5.04.53-.61,2.03-1.99,3.34-3.05,1.31-1.06,3.01-2.76,3.79-3.79.78-1.03,1.48-1.54,1.57-1.16.09.38.62-.1,1.18-1.07s1.48-2.3,2.06-2.95c.94-1.08,1.07-.82,1.34,2.49.17,2.02-.21,5.46-.82,7.65-1.08,3.8-5.07,11.28-5.77,10.81-.19-.13-.06-1.56.29-3.18.34-1.63.45-3.86.24-4.98l-.38-2.01-2.08,2.47c-3.6,4.27-8.55,9.13-9,8.83-.23-.16.21-1.29.99-2.52,1.94-3.06.93-3.35-2.47-.71-1.56,1.21-3.44,2.19-4.17,2.17-.79-.02.73-1.6,3.82-3.96Zm-13.3,4.26c-2.38.46-2.03.06,3.53-4.11,5.22-3.9,5.8-4.55,3.8-4.19-1.31.24-4.43,1.5-6.91,2.8-5.23,2.73-10.73,4.83-10.86,4.14-.05-.26.62-.92,1.48-1.48,1.43-.92,1.43-.99.06-.74-.84.14-2.27.91-3.2,1.71-2.97,2.54-4.01,2.02-1.28-.65,3.57-3.49,4.33-4.69,1.68-2.65-1.2.92-2.81,1.77-3.56,1.88-.81.11-.24-.63,1.38-1.81,3.23-2.36,1.73-2.29-2.33.11-3.56,2.1-3.39,2.1-3.26.1.11-1.58-.09-1.62-3.15-.59-1.8.61-4.13,1.5-5.18,1.99-2.68,1.24-1.88-.42,1.72-3.57,2.11-1.84,4.31-2.9,8.05-3.85l5.15-1.31-3,1.76c-1.65.97-2.93,2.11-2.85,2.53s1.57.39,3.32-.05c1.75-.44,4.9-1.04,7-1.34,2.91-.41,3.48-.31,2.43.4-1.05.71-.5.79,2.2.31,1.97-.34,5.97-.68,8.87-.74,5.15-.1,5.41-.2,9.95-3.41,4.29-3.04,4.68-3.19,4.93-1.87.31,1.63,0,2.08-4.8,6.81-3.51,3.46-9.99,6.79-15.15,7.81Zm7.38,75.85c-.05-.26.38-3.74.95-7.72.61-4.31.77-9.62.38-13.1-.64-5.66-.62-5.79.78-3.78,2.37,3.42,2.43,14.75.13,22.51-.61,2.04-2.01,3.34-2.24,2.09Zm-23.42-42.08c.58-.11,1.58.22,2.21.75,1.38,1.13,2.54.34,1.64-1.11-.91-1.47-.46-1.41,5.48.68,5.71,2.01,15.48,7.96,15.8,9.63.13.7-.65.6-2.45-.29-1.46-.72-5.23-2.46-8.38-3.88-6.06-2.7-7.01-2.33-4.61,1.83,1.64,2.85.75,2.77-3.63-.33-4.54-3.2-7.67-6.97-6.06-7.27Zm-8.48,11.61c0-5.55-1.28-12.09-3.1-15.68-2.07-4.07,4.76,2.71,7.3,7.23,1.42,2.54,3.24,5.47,4.06,6.53.81,1.06,1.42,2.36,1.35,2.88-.17,1.27-6.24-5.3-6.65-7.22-.49-2.24-1.18.25-1.14,4.11.03,2.78-.97,7.65-1.59,7.77-.14.03-.24-2.51-.23-5.64Zm-8.96,11.67c2.37-5.77,3.16-9.95,2.77-14.8l-.43-5.21,1.49,2.59c1.06,1.84,1.46,3.53,1.38,5.92-.14,4.24-.64,5.78-3.24,10.06-2.42,3.97-3.27,4.6-1.97,1.45Zm-16.71,17.71c1.65-2.47,3.8-7.03,4.76-10.12,1.32-4.26,1.84-5.16,2.13-3.74.69,3.43-2,10.59-5.44,14.46-4.46,5-5.03,4.77-1.45-.6Zm-13.9,8.87c1.52-1.61,4.24-5.22,6.04-8.01,3.55-5.5,4-5.61,2.56-.66-.97,3.33-3.45,6.41-7.61,9.45-3.71,2.71-4.04,2.45-1-.78Zm-6.48-19.88c.18-.47.82-.94,1.43-1.06,2.04-.39,6.46-7.4,7.97-12.66.83-2.86,1.92-6.17,2.43-7.35.51-1.18-.29-.27-1.77,2.01-2.58,3.95-8.39,9.31-8.64,7.98-.16-.83,2.73-4.68,5.63-7.5,4.4-4.29,7.94-10.88,6.61-12.34-.39-.42-1.74,1.13-3.3,3.78-1.45,2.48-2.92,4.55-3.27,4.62s-.14-1.71.46-3.94c.59-2.23,1.13-5.06,1.18-6.3.09-2.12-.08-1.99-3.14,2.29-2.74,3.84-3.22,4.23-3.08,2.55.26-3.14,1.87-6.13,4.24-7.86,2.11-1.54,2.15-1.74,1.28-6.51-1.36-7.42,1-15.34,5.8-19.48,2.16-1.87,2.13-1.71-.74,3.28-3.79,6.58-4.73,9.78-3.95,13.41l.62,2.86.29-3.58c.33-3.99,2.14-10.29,1.91-6.64-.19,3.1.6,10.52,1.06,9.89.22-.32.4-2.29.4-4.39-.03-8.5.22-10.46,1.76-13.84,1.52-3.31,4.7-6.5,6.93-6.92.54-.1-.24,1.72-1.74,4.06-1.5,2.33-3.32,6.18-4.04,8.55-1.48,4.85-1.68,12.31-.42,14.65.69,1.27.89.75,1.11-2.78.28-4.81,2.81-14.87,4.46-17.81,1.52-2.7,9.1-9.69,12.14-11.19,1.43-.7,3.96-1.49,5.63-1.75,2.24-.35,2.57-.28,1.23.28l-1.82.75,1.95.12c1.86.12,1.81.24-1.04,2.75-1.65,1.44-3.8,3.87-4.78,5.39-3.26,5.07-4.62,2.81-1.5-2.5l1.93-3.27-3.31,2.78c-6.95,5.82-10.57,11.5-13.26,20.84-.99,3.42-1.03,5.37-.22,9.61.58,3.04,1.34,5.26,1.77,5.17.42-.08.59-1.08.38-2.23-.22-1.14-.15-2.65.13-3.36.36-.88.84.44,1.59,4.34,1.14,5.88,1.74,6.21,2.4,1.31l.4-2.95.34,3.77c.19,2.07.77,6.04,1.3,8.81.56,2.95.66,5.68.23,6.58-.62,1.31-.85.77-1.52-3.68-.55-3.66-.83-4.51-.95-2.83-.22,3.16-1.02,5.56-2.37,7.18-1,1.19-1.09,1.16-.82-.3.16-.89.2-2.85.09-4.33-.17-2.24-.25-2.36-.46-.7-.15,1.11-.63,2.01-1.07,2.01-.44,0-1.67,2.44-2.73,5.43-1.07,2.99-2.11,5.32-2.32,5.18-.21-.14.23-2.97,1-6.28,1.4-6.05,1.36-14.7-.05-12.75-.39.53-1.33,3.98-2.1,7.66-1.24,5.94-4.28,12.94-7.11,16.37-.53.65-2.03,1.66-3.32,2.24-3.33,1.49-3.57,1.53-3.21.59Z"/>
        <path d="m254.51,184.97c.8.69,1.52,1.58,1.6,1.98.18.96-.25.6-1.79-1.51-1.19-1.62-1.18-1.65.19-.48Z"/>
      </g>
      <g>
        <path class="cls-1" d="m49.64,114.73c.87.27,1.43.86,1.27,1.3-.4,1.06,1.82.6,4.94-1,1.37-.71,5.91-2.46,10.1-3.89,8.77-3.01,18.36-4.22,31.26-3.94,15.11.33,22.8-.39,28.4-2.63,1.94-.78,1.9-.68-.45,1.09-1.98,1.49-2.33,2.09-1.47,2.55,1.27.68,7.52-3.25,8.75-5.49.61-1.1-.36-1.1-7.05.03-5.13.86-12.94,1.31-23.04,1.32-13.56.03-16.6.28-27,2.29-9.26,1.79-12.77,2.78-16.73,4.75-5.99,2.97-6.95,3.02-9.16.51-1.6-1.83-2.28-3.75-2.37-7.31-.4-.81-1.2-2.05-1.79-.32-.13,1.06-.23,1.95-.28,2.37-.25,2.2,2.86,7.84,4.62,8.39Z"/>
        <path class="cls-1" d="m37.57,92.82c.26,1.55,1.16,4.46,2.01,6.47.85,2.01,1.91,3.8,2.35,3.97.47.18.49-.38.04-1.37-.43-.92-1.69-3.97-2.82-6.78-1.6-3.98-1.94-4.48-1.59-2.28Z"/>
        <path class="cls-1" d="m38.22,99.07c-2.25-4.33-4.19-14.66-3.68-19.59.23-2.14.26-4,.07-4.12-.18-.13-.96,1.52-1.72,3.68-1.9,5.33-.75,12.22,3.06,18.45,3.22,5.24,4.73,6.3,2.28,1.58Z"/>
        <path class="cls-1" d="m164.31,131.69c.4-2.21-.78-7.29-2.04-8.86q-1.16-1.43-1.82.59c-.37,1.11-.48,3.09-.24,4.4.23,1.31,1.2,3.03,2.13,3.83,1.55,1.31,1.74,1.32,1.97.04Z"/>
        <path class="cls-1" d="m30.69,69.07c.44-1.27,1.68-4.49,2.76-7.16,1.17-2.9,1.53-4.6.89-4.2-.93.58-1.19-.25-1.96-6.12l-.9-6.77-.04,7.49c-.02,4.12-.46,8.96-.98,10.77-.52,1.8-.98,4.43-1.01,5.84-.07,3.12.19,3.15,1.24.15Z"/>
        <path class="cls-1" d="m160.13,102.53c1.3-2.09,1.3-2.22.03-1.22-.78.61-1.76,1.73-2.17,2.48-1.29,2.32.59,1.22,2.14-1.26Z"/>
        <path class="cls-1" d="m164.97,111.65c.62,1.22,1.28,2.33,1.48,2.46.19.13.58-1.76.86-4.19.37-3.18.17-5.47-.74-8.15l-1.25-3.72-2.01,2.27c-2.44,2.75-3.85,5.7-4.01,8.36-.11,1.82.02,1.74,1.68-1.07,1.05-1.78,1.9-2.6,2.02-1.95.13.66.8.04,1.64-1.52l1.42-2.62-1.11,3.95c-.89,3.16-.89,4.4,0,6.18Z"/>
        <path class="cls-1" d="m172.58,129.67c-.65.12-.87,1.05-.6,2.47.24,1.25.09,2.33-.32,2.41s-.85-.34-.96-.93-1.25-2.58-2.53-4.42c-2.65-3.81-3.3-2.44-1.04,2.22.78,1.6,2.37,3.67,3.54,4.61,2.46,1.95,3.01,1.28,2.98-3.56-.02-2.28-.27-2.95-1.05-2.8Z"/>
        <path class="cls-1" d="m160.74,99.49c3.07-1.84,4.33-3.58,3.97-5.51-.36-1.91.46-3.69,2.76-5.95,1.84-1.8.49-1.86-1.81-.08-2.14,1.66-8.61,11.12-8.39,12.27s.48,1.05,3.47-.73Z"/>
        <path class="cls-1" d="m58.65,202.5c-.96,3.09-3.11,7.65-4.76,10.12-3.59,5.37-3.01,5.61,1.45.6,3.44-3.86,6.13-11.02,5.44-14.46-.29-1.43-.8-.52-2.13,3.74Z"/>
        <path class="cls-1" d="m74.1,128.77l-1.95-.12,1.82-.75c1.34-.55,1.01-.62-1.23-.28-1.67.26-4.21,1.05-5.63,1.75-3.05,1.5-10.62,8.49-12.14,11.19-1.65,2.94-4.17,13-4.46,17.81-.21,3.53-.42,4.05-1.11,2.78-1.26-2.35-1.06-9.8.42-14.65.72-2.36,2.54-6.21,4.04-8.55,1.51-2.33,2.29-4.16,1.74-4.06-2.23.42-5.41,3.61-6.93,6.92-1.54,3.38-1.79,5.34-1.76,13.84,0,2.1-.17,4.07-.4,4.39-.46.63-1.25-6.79-1.06-9.89.23-3.65-1.58,2.64-1.91,6.64l-.29,3.58-.62-2.86c-.78-3.62.17-6.83,3.95-13.41,2.87-4.99,2.9-5.15.74-3.28-4.8,4.14-7.16,12.06-5.8,19.48.88,4.77.84,4.98-1.28,6.51-2.37,1.73-3.98,4.73-4.24,7.86-.13,1.68.34,1.29,3.08-2.55,3.06-4.28,3.23-4.41,3.14-2.29-.05,1.24-.58,4.07-1.18,6.3-.59,2.23-.8,4-.46,3.94s1.82-2.14,3.27-4.62c1.56-2.65,2.92-4.2,3.3-3.78,1.33,1.46-2.21,8.05-6.61,12.34-2.9,2.82-5.79,6.67-5.63,7.5.25,1.33,6.06-4.03,8.64-7.98,1.49-2.28,2.29-3.19,1.77-2.01-.51,1.18-1.61,4.48-2.43,7.35-1.51,5.26-5.93,12.28-7.97,12.66-.61.12-1.25.59-1.43,1.06-.36.95-.12.9,3.21-.59,1.29-.58,2.79-1.59,3.32-2.24,2.83-3.43,5.88-10.43,7.11-16.37.77-3.68,1.72-7.13,2.1-7.66,1.42-1.95,1.46,6.7.05,12.75-.76,3.31-1.21,6.14-1,6.28.22.15,1.25-2.18,2.32-5.18,1.06-2.99,2.29-5.44,2.73-5.43.44,0,.92-.9,1.07-2.01.22-1.66.29-1.55.46.7.11,1.48.07,3.44-.09,4.33-.27,1.46-.19,1.49.82.3,1.35-1.61,2.15-4.02,2.37-7.18.11-1.68.4-.83.95,2.83.67,4.44.89,4.99,1.52,3.68.43-.9.33-3.63-.23-6.58-.53-2.78-1.11-6.74-1.3-8.81l-.34-3.77-.4,2.95c-.67,4.9-1.27,4.58-2.4-1.31-.75-3.9-1.24-5.22-1.59-4.34-.28.7-.35,2.21-.13,3.36.21,1.14.04,2.15-.38,2.23s-1.19-2.13-1.77-5.17c-.81-4.24-.76-6.2.22-9.61,2.7-9.34,6.31-15.02,13.26-20.84l3.31-2.78-1.93,3.27c-3.12,5.31-1.76,7.56,1.5,2.5.98-1.52,3.12-3.94,4.78-5.39,2.85-2.51,2.9-2.64,1.04-2.75Z"/>
        <path class="cls-1" d="m72.95,174.9l.43,5.21c.39,4.86-.4,9.04-2.77,14.8-1.31,3.15-.45,2.52,1.97-1.45,2.6-4.28,3.1-5.83,3.24-10.06.08-2.38-.31-4.07-1.38-5.92l-1.49-2.59Z"/>
        <path class="cls-1" d="m124.03,123.25c-.25-1.32-.65-1.17-4.93,1.87-4.54,3.21-4.8,3.31-9.95,3.41-2.9.06-6.9.4-8.87.74-2.7.47-3.25.4-2.2-.31,1.06-.71.48-.81-2.43-.4-2.1.3-5.25.9-7,1.34-1.75.44-3.24.47-3.32.05s1.2-1.55,2.85-2.53l3-1.76-5.15,1.31c-3.74.95-5.94,2.01-8.05,3.85-3.6,3.15-4.4,4.8-1.72,3.57,1.05-.49,3.38-1.38,5.18-1.99,3.07-1.03,3.26-.99,3.15.59-.13,1.99-.3,2,3.26-.1,4.06-2.4,5.56-2.48,2.33-.11-1.62,1.18-2.19,1.92-1.38,1.81.75-.11,2.36-.96,3.56-1.88,2.65-2.04,1.89-.84-1.68,2.65-2.73,2.67-1.69,3.19,1.28.65.93-.8,2.37-1.56,3.2-1.71,1.38-.25,1.38-.18-.06.74-.87.56-1.53,1.22-1.48,1.48.13.68,5.63-1.42,10.86-4.14,2.49-1.3,5.6-2.56,6.91-2.8,2.01-.37,1.42.29-3.8,4.19-5.56,4.16-5.91,4.57-3.53,4.11,5.16-1.01,11.64-4.35,15.15-7.81,4.8-4.73,5.11-5.18,4.8-6.81Z"/>
        <path class="cls-1" d="m20.33,65.72l-1.02,4.07-1.57-1.53-1.57-1.52-.64,3.08c-.44,2.1-.73,4.17-.87,6.17,1.31,5.56,2.53,11.14,3.79,16.72,1.93,2.35,3.46,2.9,2.27.71-3.21-5.92-4.36-9.19-4.72-13.44-.26-3.05-.12-4.16.4-3.27.6,1.04.84.38.99-2.68.16-3.43.42-4.03,1.76-3.94,2.1.14,3.3-2.46,2.69-5.8l-.5-2.65-1.02,4.07Z"/>
        <path class="cls-1" d="m97.38,171.95c-5.95-2.09-6.39-2.15-5.48-.68.9,1.45-.26,2.24-1.64,1.11-.63-.52-1.63-.86-2.21-.75-1.6.31,1.53,4.07,6.06,7.27,4.38,3.09,5.27,3.18,3.63.33-2.41-4.16-1.46-4.53,4.61-1.83,3.15,1.42,6.92,3.15,8.38,3.88,1.81.89,2.59.99,2.45.29-.32-1.67-10.09-7.62-15.8-9.63Z"/>
        <path class="cls-1" d="m112.8,192.89c.39,3.48.23,8.79-.38,13.1-.57,3.98-1,7.46-.95,7.72.24,1.25,1.64-.05,2.24-2.09,2.3-7.76,2.24-19.09-.13-22.51-1.39-2.01-1.42-1.89-.78,3.78Z"/>
        <path class="cls-1" d="m36.22,166.93c.42-2.02.49-3.87.14-4.1-.71-.48-1.74,2-2.01,4.91-.35,3.57,1.1,2.95,1.88-.8Z"/>
        <path class="cls-1" d="m37.29,102.32c-4.64-4.24-12.66-10.33-13.4-10.19-1.36.26,4.04,5.89,9.04,9.44,5.73,4.05,8.5,4.53,4.36.75Z"/>
        <path class="cls-1" d="m175.75,152.39c1.18,1.86,2.4,4.14,2.73,5.08.95,2.7,1.57.63.89-2.94-.49-2.56-1.21-3.71-3.34-5.31-3.17-2.38-3.25-1.52-.28,3.17Z"/>
        <path class="cls-1" d="m46.03,213.48c-1.8,2.79-4.52,6.4-6.04,8.01-3.05,3.23-2.71,3.49,1,.78,4.16-3.04,6.63-6.12,7.61-9.45,1.44-4.95.98-4.84-2.56.66Z"/>
        <path class="cls-1" d="m83.76,174.8c-2.53-4.53-9.36-11.3-7.3-7.23,1.82,3.58,3.11,10.12,3.1,15.68,0,3.13.09,5.67.23,5.64.62-.12,1.61-4.99,1.59-7.77-.04-3.87.65-6.36,1.14-4.11.41,1.91,6.48,8.49,6.65,7.22.07-.52-.53-1.82-1.35-2.88-.82-1.06-2.64-4-4.06-6.53Z"/>
        <path class="cls-1" d="m259.19,60.1c-.9.36-.1.36,1.77,0,1.87-.36,2.61-.65,1.64-.66-.97,0-2.5.3-3.4.65Z"/>
        <path class="cls-1" d="m239.98,64.55c2.1-1.93,3.89-7.05,3.09-8.85-.51-1.16-.69-1.14-1.97.18-1.97,2.02-3.09,2.07-5.58.23-1.96-1.45-2.09-1.45-1.45-.09.84,1.76,3.74,3.23,5.66,2.87,1.97-.37,1.83.52-.62,4.26-2.35,3.56-2.02,4.08.88,1.41Z"/>
        <path class="cls-1" d="m219.16,50.58c.11.59.1,1.65-.03,2.36-.3,1.7.98,1.39,2.51-.61,2.22-2.91,5.1-9.3,4.82-10.75-.15-.78.49-2.04,1.43-2.8,1.54-1.25,1.56-1.4.2-1.65-.83-.15-3.74.6-6.48,1.68-5.16,2.03-10.17,6.53-11.88,10.67-.72,1.76-.48,1.67,3.21-1.28,2.19-1.75,3.65-2.66,3.23-2.02-.87,1.34-.7,3.2.27,3.01.36-.07,1.91-1.6,3.47-3.4,3.77-4.39,4.52-4.34,1.5.1-1.35,1.98-2.36,4.09-2.25,4.68Z"/>
        <path class="cls-1" d="m184.2,186.58c-1,1.27-1.64,2.27-1.43,2.22,1.07-.28,3.42-2.16,3.74-2.99.73-1.92-.55-1.49-2.31.77Z"/>
        <path class="cls-4" d="m236.57,55.56c1.63.66,2.24.54,2.65-.5.19-.49-.57-.67-1.8-.43-1.65.32-1.84.53-.85.93Z"/>
        <path class="cls-1" d="m212.79,34.16c2.59.75,4.79.71,9.48-.18,5.39-1.03,6.72-.98,11.27.36,2.84.83,5.44,1.8,5.79,2.14.34.34,1.43,2.63,2.41,5.07.98,2.45,2.3,5.06,2.92,5.8.62.74,1.11,1.65,1.07,2.01-.11,1.21,3.89,2.87,10.05,4.16,3.36.71,8.55,2.03,11.51,2.93,6.13,1.87,6.15,1.87,7.04.25.54-.97-.72-1.57-6.58-3.14-3.98-1.07-8.64-2.17-10.34-2.44-8.45-1.34-10.37-2.76-14.74-10.84-3.12-5.78-5.66-7.76-10.7-8.34-8.98-1.03-21.27-.64-22.18.7-.2.29,1.15.97,3,1.51Z"/>
        <path class="cls-1" d="m219.96,20.39c-1.42-2.07-2.74-3.5-2.95-3.19-.21.3,1.33,2.8,3.41,5.54,4.07,5.38,3.76,3.79-.46-2.35Z"/>
        <path class="cls-1" d="m281.05,58.44l1.56-1.26-1.76-.55c-2.62-.82-4.76-.16-5.32,1.65-.28.89-.48,1.78-.44,2,.14.73,4.42-.59,5.95-1.83Z"/>
        <path class="cls-1" d="m277.33,64.26c-.42.08-.48.44-.14.81.34.37.95.6,1.37.52s.48-.44.14-.81c-.34-.37-.95-.6-1.37-.52Z"/>
        <ellipse class="cls-1" cx="244.97" cy="37.89" rx=".77" ry="1.93" transform="translate(-2.76 46.48) rotate(-10.78)"/>
        <path class="cls-1" d="m225.79,54.53c1.61-.6,3.54-1.6,4.28-2.21,1.74-1.44,4.24-5.74,3.22-5.54s-8.21,5.79-9.87,7.67c-.71.8-1.13,1.39-.93,1.31.2-.08,1.68-.63,3.29-1.23Z"/>
        <path class="cls-1" d="m170.84,109.71c-.8-4.21-2.2-2.11-2.74,4.12-.08.96.33,2.98.92,4.48l1.08,2.73.45-3.77c.53-4.28,1.32-4.89,2.62-2.02.5,1.09,2.01,3.45,3.38,5.24,3.93,5.15,4.02,4.59.69-3.84-2.56-6.47-3.49-7.54-4.96-5.77-.85,1.03-1.04.87-1.43-1.17Z"/>
        <path class="cls-4" d="m239.34,52.41c.28-1.57-1.98-2.97-2.52-1.56-.2.53.23,1.38.96,1.87,1.18.8,1.36.77,1.56-.31Z"/>
        <path class="cls-1" d="m187.96,68.52c-.53.63-1.58,3.08-2.34,5.44-1.21,3.76-1.21,4.78-.09,8.35.7,2.23,1.92,4.68,2.7,5.44,1.31,1.28,1.34.96.39-4.06-.86-4.52-.83-5.4.18-5.22.96.17,1.09-.43.64-2.8-.32-1.66-.57-4.2-.55-5.66.02-2.3-.11-2.5-.94-1.51Z"/>
        <path class="cls-1" d="m181.31,185.27c.18.94.11.97,2.89-1.17,1.3-1,2.82-3.12,3.37-4.69l1-2.87-2.13,1.87c-2.65,2.33-5.31,5.9-5.13,6.86Z"/>
        <path class="cls-1" d="m181.13,162.3c.2.13,1.04-1,1.89-2.5,1.71-3.05,1.32-7.49-.83-9.42-1.99-1.79-2.45-1.16-1.34,1.82.64,1.74.82,4.05.47,6.31-.29,1.95-.38,3.66-.2,3.79Z"/>
        <path class="cls-1" d="m196.06,40.72c1,.63,1.06.46.36-1.03-.47-.99-1.22-2.6-1.7-3.6l-.84-1.8,1.93,1.59c1.05.88,2.04,1.39,2.2,1.15.44-.71-4.21-7.82-5.03-7.67-.44.08-.21,2.26.57,5.36.77,3.08,1.8,5.54,2.51,5.99Z"/>
        <path class="cls-1" d="m201.98,59.79c1.92-.37,4.93-4.04,5.83-7.11.39-1.3,2.39-5.12,4.46-8.49,2.06-3.36,3.6-6.23,3.39-6.37-.21-.14-1.46.46-2.78,1.34-2.7,1.78-4.38,4.93-5.61,10.52-.46,2.07-1.22,3.85-1.69,3.94s-.15-1.91.7-4.44c.86-2.53,1.21-4.54.78-4.46-.98.19-2.91,5.23-2.61,6.82.12.65-.72,2.84-1.88,4.87-1.84,3.22-1.91,3.64-.59,3.39Z"/>
        <path class="cls-1" d="m184.36,79.46c-1.39-7.78-.81-14.84,1.52-18.27l1.74-2.55-1.98-2.55c-1.78-2.29-1.94-2.36-1.61-.65.2,1.04.83,2.22,1.41,2.61.78.53.52,1.56-1.09,4.21-3.08,5.06-3.37,6.53-2.58,13.04.49,4,1.19,6.56,2.22,8.15,1.46,2.22,1.47,2.08.38-3.99Z"/>
        <path class="cls-1" d="m190.4,54.13c1.16.64,1.31.49,1.02-1.05-.54-2.98-.13-5.36.99-5.57,1.36-.26,1.29-.49-1.15-3.5-2.72-3.36-3.29-6.93-2.16-13.43.52-2.97.7-6.48.42-7.82-.39-1.78-.7-.61-1.19,4.36-.71,7.25-.35,16.66.74,19.12.79,1.79-.78,4-2.59,3.67-1.01-.18-.86.16.65,1.62,1.06,1.01,2.54,2.19,3.28,2.6Z"/>
        <path class="cls-1" d="m194.02,186.48c-.36.53-.36,1.93,0,3.1.54,1.75.71,1.86.97.63.48-2.36-.18-4.89-.97-3.73Z"/>
        <path class="cls-1" d="m225.36,128.43c.12.64,1.35,3.29,2.72,5.87,1.37,2.59,2.63,4.68,2.79,4.65.67-.13-.07-4.49-1.18-6.98-1.3-2.9-4.74-5.73-4.33-3.54Z"/>
        <path class="cls-2" d="m230.72,108.6c.38-4.12-.65-4.19-2.3-.16-1.41,3.44-1.24,3.42-11.42.79-17.57-4.56-34.52-16.75-38.62-27.78-1.36-3.66-2.47-2.71-1.66,1.43,1.4,7.13,9.32,15.79,19.72,21.59,9.87,5.51,17.23,7.76,27.35,8.4,4.35.27,3.95,1.91-.5,2.03-11.63.33-30.17-7.89-39.64-17.55-3.95-4.02-7.71-10.33-8.5-14.21l-.57-2.85-.95,2.92c-1.16,3.59-.24,6.45,3.93,12.19,3.07,4.23,10.38,10.51,15.88,13.65,6.8,3.89,16.1,7.42,20.97,7.97,6.61.73,9.99.03,13.3-2.77,2.08-1.77,2.74-3.01,2.99-5.66Z"/>
        <path class="cls-1" d="m228.71,160.83c-.32,1.8.58,2.49,5.43,4.16,4.19,1.44,6.87,1.72,5.84.61-.27-.3-2.87-1.77-5.76-3.27-4.14-2.14-5.33-2.47-5.5-1.5Z"/>
        <path class="cls-1" d="m229.34,115.24c-.42.62,2.36,3.63,5.53,5.97,1.31.97,3.14,1.99,4.05,2.25.91.27-.23-.86-2.54-2.52-2.31-1.66-4.77-3.73-5.46-4.61-.68-.87-1.39-1.37-1.58-1.09Z"/>
        <path class="cls-1" d="m233.88,100.68c-.49.59-.82,2.67-.75,4.62.08,1.95.33,3.68.57,3.84,1.02.68,2.14-3.89,1.63-6.58-.46-2.44-.71-2.76-1.45-1.88Z"/>
        <path class="cls-1" d="m234.75,171.28c1.47,1.07,2.1,1.78,1.42,1.56-2.51-.79-5.24-2.84-5.49-4.13-.35-1.86-1.5-3.56-2.3-3.41-.37.07-.48,1.15-.24,2.4.32,1.68,1.54,3.05,4.73,5.28,2.36,1.66,5.68,4.05,7.36,5.32,3.27,2.47,4.71,2.4,2.14-.1-2.47-2.41-2.01-2.93,1.06-1.21,1.57.88,2.84,2.06,2.83,2.61-.03,1.35,6.69,9.39,7.21,8.62.23-.33.48-.24.56.21s2.08,2.26,4.42,4.05c2.35,1.79,5.61,4.99,7.25,7.13,2.63,3.44,2.87,3.59,2.09,1.37-.88-2.47-.84-2.46,2.95,1.15,2.12,2.01,3.9,3.94,3.98,4.27.08.35.82,1.2,1.65,1.9l1.5,1.28-.82-1.41c-.46-.8.58-.31,2.38,1.12,1.75,1.39,4.45,2.93,5.99,3.43l2.81.9-3.1-1.87-3.1-1.87,4.41,1.76c2.71,1.08,3.98,1.94,3.3,2.23-.96.41-.89.63.48,1.67,2.1,1.58,6.24.7,9.73-2.07,2.37-1.89,2.51-2.2,1.12-2.42-1.3-.19-1.1-.43,1.04-1.27,1.45-.57,3.66-.85,4.93-.62l2.29.4-1.78-1.35c-1.51-1.15-2.29-1.18-5.1-.21-10.36,3.54-9.84,3.49-14.89,1.37-5.5-2.32-9.39-5.12-15.18-10.96-2.3-2.32-5.95-5.83-8.11-7.78-2.16-1.96-5.8-5.32-8.1-7.47-2.29-2.15-5.77-5.07-7.73-6.48-1.95-1.42-3.46-2.74-3.35-2.94.41-.71-6.25-4.16-9.24-4.79-4-.85-4.36-.06-1.07,2.34Zm23.53,18.9c.52.55,1.01,1.34,1.09,1.75s-.29.31-.81-.24c-.52-.55-1.01-1.34-1.09-1.75s.29-.31.81.24Zm-3.78-5.21c.8.69,1.52,1.58,1.6,1.98.18.96-.25.6-1.79-1.51-1.19-1.62-1.18-1.65.19-.48Z"/>
        <path class="cls-1" d="m235.52,194.16l-4.55-1.23,4.43,2.7c2.44,1.49,5.77,3.57,7.39,4.64,1.63,1.07,3.84,3.04,4.92,4.39,2.55,3.2,2.38,2.28-.47-2.4-2.71-4.45-5.58-6.43-11.73-8.09Z"/>
        <path class="cls-1" d="m222.34,142.62c-.9-3.38-1.02-4.38-.32-2.76.9,2.09,1.05,2.2.86.62-.18-1.55.24-1.23,2.22,1.69,3.36,4.96,3.84,5.08,3.02.77-.71-3.68-2.06-5.66-6.41-9.3l-1.9-1.6.42,2.31c.23,1.27.11,2.77-.27,3.33-.42.61-.19,3.51.57,7.21.69,3.41,1.07,6.07.83,5.91-.24-.17-1.16-2.17-2.05-4.46-1.44-3.71-2.59-5.28-7.14-9.81-2.45-2.43.51,3.95,4.28,9.23,1.98,2.78,4.07,6.35,4.64,7.94.57,1.59,1.21,3.01,1.41,3.15.2.14.56-1.82.81-4.34.31-3.25.02-6.15-.99-9.89Z"/>
        <path class="cls-1" d="m251.22,201.32l-1.48-2.07.87,2.1c.49,1.15,1.56,3.07,2.38,4.25l1.51,2.15-.9-2.18c-.5-1.2-1.57-3.11-2.38-4.25Z"/>
        <path class="cls-1" d="m255.53,89.24c.03.18.59.23,1.24.11s.9-.53.56-.91c-.56-.61-1.95,0-1.8.8Z"/>
        <path class="cls-3" d="m258.88,85.92c1.74,1.55,5.41,4.42,8.15,6.37,3.23,2.29,5.61,3.44,6.72,3.23,2.04-.39,2.04-.43-.07-3.61-3.82-5.79-7.86-7.96-16.07-8.65-1.81-.15-1.75-.03,1.27,2.66Z"/>
        <path class="cls-1" d="m272.37,64.82c-.91-.45-2.02-.76-2.47-.69-1.32.21-6.08,6.59-6.86,9.2-1.21,4.04,1.17,2.24,6.88-5.24,1.98-2.59,1.88-2.29-.49,1.39-3.66,5.72-2.07,5.92,1.81.22,2.65-3.89,2.7-4.1,1.12-4.89Z"/>
        <path class="cls-1" d="m33.14,139.26c.54-1.13.97-2.32,1.23-3.54-.15.25-.3.51-.42.8-.54,1.23-.97,2.51-1.37,3.79.19-.35.39-.69.57-1.05Z"/>
        <path class="cls-1" d="m262.93,92.73c-.73.28-2.22-.06-3.31-.75-1.08-.69-4.07-1.4-6.64-1.57-6.76-.45-15.24-2.97-16.75-4.97-1.07-1.43-1.31-1.48-1.51-.34-.13.74.05,1.68.42,2.07.97,1.07,11.31,3.85,14.47,3.9,1.51.03,3.59.37,4.62.78,1.03.41,3.94,1.22,6.47,1.81,4.04.94,4.54.92,4.09-.18-.31-.76-1.05-1.05-1.85-.75Z"/>
        <path class="cls-1" d="m240.87,80.86c-.16.24.45,1.04,1.36,1.76,1.93,1.54,3.86,1.48,2.88-.1-.72-1.17-3.76-2.36-4.24-1.66Z"/>
        <path class="cls-1" d="m243.2,69.76l2.55-1.03-2.06,1.53c-1.13.84-3.31,1.78-4.85,2.08-3.86.79-3.96,1.94-.17,2.34,2.62.27,3.54.04,5.4-1.34,2.1-1.57,2.16-1.57.97-.13-1.22,1.48-1.1,1.5,2.42.44,3.1-.93,3.51-.91,2.57.1-1.68,1.79-1.17,2.46,1.07,1.4,1.09-.5,2.48-1.12,3.09-1.37.61-.25,2.23-1.44,3.61-2.65,3.41-2.99,3.29-2.13-.16,1.24-1.54,1.5-2.35,2.79-1.8,2.87,1.14.15,8.49-5.94,11.32-9.41,2.13-2.59,1.01-2.8-2.07-.37-1.11.86-2.05,1.38-2.1,1.14s1.6-1.61,3.66-3.03c4.31-2.98,5.77-5.18,2.43-3.66-1.16.52-3.14,1.95-4.41,3.17-4.11,3.93-11.21,7.01-11.59,5.02-.08-.45-.91-.41-1.95.07-.99.45-2.36.73-3.04.61-1.1-.2-1.14-.5-.31-2.51l.95-2.29-1.83,1.76c-2.03,1.96-3.34,1.76-2.19-.32.61-1.1.26-1-1.94.55-2.25,1.58-4.98,2.32-17.05,4.62-14.19,2.7-14.41,2.77-17.58,5.45-1.76,1.49-3.22,2.62-3.25,2.5-.12-.65,1.61-6.07,2.36-7.37.8-1.38.76-1.52-.37-1.3-1.77.34-1.8-1.02-.1-4.05,2.36-4.2-.73-5.22-4.1-1.35-1.99,2.28-6.29,11.84-5.75,12.77.21.35,1.37-.59,2.6-2.09,1.83-2.22,2-2.81.98-3.23-1.08-.45-1.09-.62-.08-1.24,1.96-1.21,3.07-.27,2.13,1.8-.46,1.01-.73,2.37-.61,3.01s-.46,3.69-1.29,6.77c-1.11,4.08-1.3,6.32-.69,8.24l.83,2.65,1.33-5.04c1.89-7.1,8.09-13.4,14.39-14.6l3.14-.6-3.26,4.29c-1.79,2.36-4.42,5.51-5.83,7.01-2.51,2.67-4.64,8.05-3.49,8.83.32.21,1.22-.74,2.01-2.13.78-1.4,2.36-3.33,3.5-4.33l2.06-1.8-.86,3.53c-.47,1.94-.67,4.37-.46,5.41.22,1.04.8,2.51,1.28,3.28.76,1.2.89,1.01.96-1.36.12-4.26,2.08-10.23,4.09-12.43,1.76-1.92,1.77-1.97.07-1.67-1.49.26-1.66.07-1.22-1.34.28-.9,1.95-2.9,3.7-4.43,2.86-2.5,3.76-2.87,8.9-3.61,3.14-.45,6.58-.94,7.63-1.09,1.05-.15,3.06-.74,4.46-1.3Z"/>
        <path class="cls-1" d="m135.41,116.55c-.57.66-1.5,1.99-2.06,2.95-.56.97-1.1,1.45-1.18,1.07-.09-.38-.79.13-1.57,1.16-.78,1.03-2.48,2.73-3.79,3.79-1.31,1.06-2.81,2.44-3.34,3.05-.53.62-3.28,2.89-6.1,5.04-3.09,2.36-4.6,3.94-3.82,3.96.73.02,2.61-.96,4.17-2.17,3.4-2.64,4.41-2.35,2.47.71-.78,1.22-1.22,2.36-.99,2.52.45.3,5.39-4.56,9-8.83l2.08-2.47.38,2.01c.21,1.11.1,3.34-.24,4.98-.35,1.63-.48,3.05-.29,3.18.69.47,4.69-7.01,5.77-10.81.62-2.19.99-5.63.82-7.65-.26-3.31-.4-3.57-1.34-2.49Z"/>
        <path class="cls-1" d="m247.75,85.34c1.61,1.89,3.94,2.52,6.02,1.62,1.96-.84.81-2.08-3.15-3.39-4.06-1.34-5.02-.75-2.87,1.77Z"/>
        <path class="cls-1" d="m217.33,166.01c-1.32,1.32-3.34,4.22-4.47,6.43-1.9,3.7-1.98,4.34-.97,7.8,1.33,4.56,3.42,6.56,2.66,2.55-.82-4.28-.14-8.26,2.16-12.68,3.19-6.16,3.28-6.75.62-4.1Z"/>
        <path class="cls-1" d="m152.13,151.2c.48,2.06,1.09,4.59,1.36,5.62.27,1.03,1,2.47,1.62,3.21.89,1.04.71-.78-.79-8.08-1.06-5.18-1.91-10.97-1.88-12.87.04-2.82-.14-3.35-.94-2.9-3.12,1.73-4.02,12.12-1.46,16.98l1.13,2.14-.32-2.29c-.17-1.26-.15-3.03.05-3.93.27-1.24.57-.73,1.23,2.12Z"/>
        <path class="cls-1" d="m169.83,191.43c1.27-1.19-.6-1.81-2.65-.87-.87.39-2.82.65-4.35.58l-2.77-.13,2.35-.52c7.39-1.66,9.74-15.24,3.92-22.66-2.69-3.42-3.39-3.31-1.6.23.68,1.34,1.63,4.53,2.12,7.08,1.08,5.65-.12,8.98-4.85,13.56l-3.25,3.14,2.99.63c3.31.7,6.71.26,8.1-1.04Z"/>
        <path class="cls-1" d="m198.68,208.58c-2.11-.47-9.09.75-8.43,1.46.28.3,2.65.18,5.29-.28,3.26-.57,4.26-.95,3.14-1.19Z"/>
        <path class="cls-1" d="m179.06,198.17c2.56-1.03,2.2-1.15-2.1-.74-1.27.12-4.38.23-6.91.24-2.52,0-4.86.25-5.19.55-1.2,1.11-.26,1.9,2.21,1.85,4.51-.08,9.37-.85,11.98-1.91Z"/>
        <path class="cls-1" d="m196,206.84l-2.09-1.12c-1.15-.61-4.11-1.33-6.58-1.61-2.48-.28-6.51-1.17-8.97-1.98-2.46-.81-4.62-1.27-4.79-1.01-1.29,1.9,4.92,4.13,13.77,4.94,2.7.25,5.74.53,6.78.61l1.87.17Z"/>
        <path class="cls-1" d="m146.5,134.64c-1.33-11.74-.78-20.36,1.65-25.66,1.08-2.34,1.41-6.28.52-6.11-.94.18-4.16,3.14-5.11,4.7-.59.96-1.17,2.91-1.3,4.35q-.24,2.59,1.07.88l1.3-1.71-1.01,3.37c-.64,2.12-.77,5.49-.36,9.08.36,3.15,1.26,7.18,2.01,8.99.75,1.8,1.31,2.75,1.23,2.12Z"/>
        <path class="cls-1" d="m138.96,121.14c-.5.61-1.16,2.9-1.45,5.08-.61,4.6-.09,6.19,1.27,3.87,1.54-2.65,2.05-5.1,1.56-7.66-.38-2.01-.61-2.23-1.38-1.3Z"/>
        <path class="cls-1" d="m152.51,93.69c1.14-1.07.88-1.08-1.98-.12-1.82.62-4.24,1.83-5.37,2.7-4.56,3.49-10.74,12.52-9.26,13.52.31.22,1.67-1.2,3.02-3.13,2.65-3.81,3.08-3.77,1.92.15-.42,1.4-.61,2.63-.44,2.74.17.12,2.67-3.13,5.54-7.2,2.88-4.08,5.83-7.98,6.57-8.67Z"/>
        <path class="cls-1" d="m151.85,111.2c-.58.35-1.08.14-1.2-.5s-.47-1.06-.79-1c-1.17.22-1.96,3.81-1.56,7.06.22,1.84.48,3.33.58,3.32.09-.02.39-.95.67-2.09.51-2.11,1.91-3.04,2.21-1.46.31,1.63.89-.15.99-3.06.08-2.34-.1-2.76-.89-2.27Z"/>
        <path class="cls-1" d="m157.78,127.39c-.11-.84-.49-3.83-.83-6.65-.35-2.84-.99-5.26-1.45-5.43-1.29-.5-2.05,3.16-1.34,6.58.7,3.38,4,8.39,3.63,5.49Z"/>
        <path class="cls-1" d="m196.65,183.49c-.37.34-.32,2.37.1,4.54.41,2.16,1.18,4.37,1.7,4.92.66.69.63-.68-.1-4.54-.66-3.5-1.28-5.31-1.7-4.92Z"/>
        <path class="cls-1" d="m206.88,147.23c-2.46-3.18-12.61-10.71-14.06-10.44-.51.1-1.47-.28-2.14-.84-1.11-.91-1.26-.84-1.5.63-.16.91.22,2.63.82,3.83,1.49,2.95,1.07,2.82-1.9-.57-1.37-1.57-3.55-3.51-4.81-4.31l-2.32-1.46.35,1.82c.29,1.52-.23,1.24-3.13-1.69-1.91-1.93-3.58-3.36-3.7-3.18-.12.18.3,1.51.92,2.95,1.25,2.88,6.43,7.97,6.63,6.52.07-.51.91-.23,1.94.66,2.31,2.01,8.43,5.22,9.84,5.16.59-.02,1.77.34,2.61.8,1.46.81,1.46.74-.17-1.33-.94-1.2-1.86-2.95-2.03-3.89-.29-1.53.1-1.43,3.81,1,2.27,1.49,5.77,4.11,7.77,5.81,4.04,3.45,4.46,2.87,1.08-1.47Z"/>
        <path class="cls-1" d="m200.89,167.12c-.95,5.33.08,4.9,2.26-.93,1.06-2.84,1.69-5.33,1.38-5.53-1-.68-3,2.87-3.65,6.46Z"/>
        <path class="cls-1" d="m186.17,130.66c1.36,1.23,1.39,1.23,1.11-.34-.15-.88-.36-3.22-.47-5.2-.16-2.96-.4-3.56-1.37-3.38-.65.12-1.23.85-1.28,1.61-.07,1.1-.17,1.06-.49-.21-.22-.88-1.24-2.8-2.27-4.27l-1.87-2.68.27,2.75c.16,1.51,1.33,4.48,2.62,6.6,1.29,2.11,2.96,4.41,3.73,5.11Z"/>
        <path class="cls-1" d="m201.09,160.23c.13-1.95-.76-1.75-2.12.48-1.46,2.4-2.65,2.5-1.59.13,1.09-2.42.6-5.12-.98-5.41-.67-.12-1.34-.83-1.49-1.57-.2-1.03-.37-1.07-.72-.22-.36.91-.58.92-1.13.02-.97-1.57-3.13-.94-3.25.95-.12,1.8-1.34,2.39-1.64.79-.11-.57-1.02-1.73-2.02-2.56l-1.81-1.5.95,2.68c.58,1.63.74,4.3.4,6.83-.3,2.28-.37,4.29-.13,4.44.23.15,1.82-1.4,3.53-3.48,1.71-2.07,3.3-3.41,3.54-2.99.24.43-.21,3.07-.98,5.86-.78,2.8-1.32,5.16-1.2,5.24.12.09,1.39-1.01,2.82-2.43,1.45-1.44,2.24-1.92,1.8-1.09-.71,1.32-.63,1.42.76.93,1.9-.67,5.13-5.04,5.28-7.12Z"/>
        <path class="cls-1" d="m216.33,220.9c-1.56.3-2.07.71-1.67,1.36.32.51.4,1.91.2,3.1-.36,2.01-.7,2.23-4.9,3.03-5.3,1.01-6.27,2.31-2.44,3.26l2.73.68-3.47.28c-2.99.25-3.26.39-1.95,1.01,1.4.67,1.36.84-.56,2.1-2.33,1.52-4.54,4.71-2.34,3.38.67-.4,2.96-1.31,5.1-2.01q3.88-1.27,2.79.55c-.6,1.01-.84,2.51-.54,3.36.55,1.51.57,1.51,2.6-.33,3.47-3.15,8.26-13.99,7.98-18.08-.15-2.17-.37-2.28-3.54-1.68Z"/>
        <path class="cls-1" d="m201.9,181.36c.07,1.09.75,3.42,1.52,5.17.76,1.76,1.28,3.35,1.15,3.54-.12.19-1.29-.99-2.6-2.62l-2.38-2.96.21,2.33c.13,1.44,1.62,4.27,3.94,7.48,2.05,2.83,3.65,4.67,3.55,4.07-.1-.6,1.58.49,3.72,2.43,2.27,2.05,3.56,2.84,3.11,1.9-.44-.89-1.15-2.34-1.6-3.22-.67-1.33-.38-1.26,1.71.44,1.42,1.16,2.35,2.48,2.14,3.04-.24.62-.1.73.38.3.81-.74,8.51,3.76,11.81,6.92,1.07,1.03,2.5,3.58,3.19,5.69,1.03,3.15,1.28,3.47,1.42,1.83.54-6.23-3.21-11.77-11.76-17.36-8.4-5.5-13.72-10.6-16.91-16.18-2.09-3.66-2.69-4.31-2.59-2.79Z"/>
        <path class="cls-1" d="m216.54,152.27l-.35-1.93c-.2-1.07-1.74-3.42-3.44-5.22-2.73-2.91-3.13-3.1-3.4-1.67-.18.94-.42,1.18-.57.56-.14-.59-1.99-2.88-4.1-5.1-3.75-3.93-6.6-8.78-8.8-14.99-.6-1.7-1.7-3.42-2.44-3.82-1.13-.62-1.66-.22-3.37,2.55-1.11,1.81-1.87,4.06-1.67,5l.36,1.7.93-2.11c.52-1.16,1.46-3.03,2.11-4.16l1.18-2.04.89,3.87c1.08,4.74,5.43,13.23,7.31,14.26.75.41,2.55,2.11,3.99,3.76,1.44,1.65,4.08,5.58,5.87,8.74,2.34,4.15,3.32,5.33,3.52,4.28.15-.81-.17-2.69-.7-4.18l-.98-2.72,1.83,1.61,1.84,1.61Z"/>
      </g>
    </g>
  </g>
</svg>