<?xml version="1.0" encoding="UTF-8"?>
<svg id="Layer_2" data-name="Layer 2" xmlns="http://www.w3.org/2000/svg" viewBox="0 0 787.63 785.31">
  <defs>
    <style>
      .cls-1 {
        fill: #fff;
      }
    </style>
  </defs>
  <path class="cls-1" d="m786.58,528.73c-5.93-30.23-35.24-49.92-65.47-43.99-64.43,13.67-131.37,9.48-193.6-12.11-166.98-58.51-266.15-230.25-233.37-404.11l-28.11-5.03,29.71,2.29c3.96-21.27-5-42.87-22.86-55.09-17.46-12.78-40.77-14.21-59.66-3.66C102.14,68.49,25.51,177.66,5.46,303.03c-36.83,226.3,116.6,439.67,342.86,476.8,22.21,3.64,44.69,5.48,67.2,5.49,153.65-.34,294.56-85.44,366.4-221.26,5.38-10.95,7.02-23.36,4.67-35.33Z"/>
</svg>