<?xml version="1.0" encoding="UTF-8"?>
<svg xmlns="http://www.w3.org/2000/svg" viewBox="0 0 169.33 121.53">
  <defs>
    <style>
      .cls-1, .cls-2 {
        fill: none;
      }

      .cls-1, .cls-3 {
        mix-blend-mode: multiply;
      }

      .cls-4, .cls-5, .cls-6, .cls-3, .cls-7 {
        stroke: #000;
        stroke-miterlimit: 10;
      }

      .cls-4, .cls-3 {
        fill: #cacaca;
      }

      .cls-6 {
        fill: #1d1d1b;
      }

      .cls-2 {
        isolation: isolate;
      }

      .cls-7 {
        fill: #fff;
      }
    </style>
  </defs>
  <g class="cls-2">
    <g id="Layer_2" data-name="Layer 2">
      <g id="Layer_1-2" data-name="Layer 1">
        <g>
          <g>
            <g>
              <path class="cls-5" d="m167.61,74.89c-.08-.32-.46-.65-.67-.87-.46-.5-.82-1.12-1.19-1.68-1.42-2.13-3.05-4.09-4.45-6.24-1.35-2.08-2.85-4.16-4.39-6.11-.8-1.02-1.56-2.11-2.44-3.05-.7-.74-1.29-2.07-2.2-2.52-.06-.03-.13,0-.17.04-.59,0-1.31.89-1.71,1.18-1.31.97-2.77,1.78-4.05,2.79-.1.08-.17.19-.11.32.2.41.56.56.87.91.41.46.75,1.01,1.12,1.5,1,1.35,1.88,2.78,2.89,4.12,1.9,2.51,3.74,5.03,5.56,7.6.89,1.27,1.91,2.42,2.92,3.59.32.37.57,1.16,1.15,1.08,1.13-.16,2.34-.85,3.45-1.18,1.02-.31,2.06-.56,3.09-.82.14-.03.23-.2.21-.3.1-.1.17-.22.14-.35Z"/>
              <path class="cls-7" d="m163.68,76.14c-.68.21-1.33.46-2.01.65-.56.16-.81.59-1.27.08-2.21-2.47-3.9-5.37-5.92-8-2.22-2.89-4.2-5.97-6.43-8.85-.34-.44-.61-.9-1.08-1.21-.41-.28.88-.96,1.01-1.05.7-.53,1.45-1.01,2.16-1.53.42-.31.83-.64,1.24-.96-.1.08.26-.2.53-.45.3.04.1-.33.6.37.69.96,1.43,1.85,2.17,2.77,1.43,1.77,2.77,3.61,4.09,5.45,1.41,1.97,2.75,4,4.23,5.92.72.93,1.41,1.86,2.07,2.84.6.89,1.29,2.22,2.1,2.88-.12-.1-.34.08-.32.22-1.07.27-2.12.54-3.19.87Z"/>
              <g>
                <path class="cls-5" d="m160.43,73.08c-1.12-1.74-2.28-3.42-3.46-5.12-1.33-1.91-2.58-3.86-4-5.7-.68-.89-1.37-1.77-2.06-2.66-.33-.43-.68-.85-1-1.29-.16-.21-.32-.42-.48-.62,0-.08-.05-.15-.13-.17,0,0,0,0,0,0-.12-.28-.32-.44-.59-.49.06-.03.11-.1.08-.15-.06-.11-.05-.09-.16-.17-.08-.06-.24.07-.18.16.17.24.35.48.52.72-1.35.53-2.65,1.19-4,1.72-1.72.67-3.47,1.21-5.2,1.86-3.48,1.29-7.16,2.2-10.73,3.2-3.29.92-6.58,1.75-9.9,2.53-3.29.78-6.51,1.87-9.74,2.85.03-.06.04-.14-.06-.13-.03,0-.05,0-.08.01-.01,0-.03.01-.05.02-.01-.01-.03,0-.08.04-.13.14-.17.28-.22.47-.19.76-.07,1.67-.03,2.44.19,3.35.12,6.75.09,10.11-.04,3.83.03,7.64-.23,11.47-.2,3.06,0,6.16-.27,9.21-.11.11-.15.26.02.31,0,0,0,.01-.01.02,0,0,0,0,.01.01-.24,1.41-.42,2.86-.28,4.23,0,.05.07.1.12.11,1.6.23,3.32.08,4.94.13,2.36.06,4.76-.01,7.13-.08,2.31-.07,4.63-.02,6.93-.17.95-.06,1.91-.13,2.86-.21.21-.02.43-.02.66-.02.03.03.06.05.09.07.38.17,1-.11,1.42-.16.98-.11,2.03-.06,3.02-.08,3.94-.08,7.92.03,11.87.02,3.71-.01,7.53.02,11.22-.34.54-.05,2.28.1,2.74-.39.58-.62.48-1.66.37-2.57.02-.03.03-.06.03-.09-.09-2.06.25-4.16.31-6.22.07-2.34.23-4.68.31-7.01.15-4.68.41-9.37.42-14.05,0-1.35-1.53-2.72-2.23-3.81Z"/>
                <path class="cls-7" d="m162.22,77.92c-.14,2.17-.06,4.39-.05,6.56.01,2.18-.14,4.34-.2,6.52-.12,4.11-.53,8.2-.73,12.3-.05.04-.08.08-.08.14,0,.17.02.43.04.72,0,.04,0,.08,0,.12,0,.04,0,.06.02.08.06.76.1,1.67-.33,2.02.02-5.07.31-10.13.41-15.2.05-2.63-.05-5.25.05-7.88.1-2.52-.04-5.15.31-7.65.38.71.62,1.46.57,2.28Z"/>
                <path class="cls-7" d="m156.61,106.9c-3.24.11-6.51.14-9.75.15-3.11,0-6.26.29-9.36.05-1.52-.12-3.04.04-4.56.06-.2,0-.42.02-.64.03,0-.02.01-.05.01-.07-.5-5.98-.08-11.97-.05-17.96.02-3.32.15-6.62.27-9.94.05-1.45.08-2.92.07-4.38-.02-1.71-.37-3.85.1-5.51,0-.03,0-.05-.02-.07-.03-.02-.05-.05-.08-.07-.06-.05-.19.06-.14.12,0,0-.13.89-.14.98-.05.95-.12,1.89-.13,2.85-.02,1.74-.11,3.47-.12,5.2-.03,3.48-.26,6.97-.31,10.45-.05,3.46-.28,6.93-.24,10.39.02,1.52.05,3.05.12,4.57.05,1.06-.04,2.24.16,3.29-.02,0-.05.02-.08.03-.13.06-.28.1-.44.14-.18-.2-.19-.69-.16-1.15.02-.03.04-.06.04-.1.01-.2.02-.41.03-.61,0-.08.02-.15.02-.19,0,0,0-.01,0-.02.06-1.92-.04-3.83-.04-5.76,0-3.27.08-6.53.09-9.8.01-3.5.03-6.99.03-10.49,0-1.51.06-3.02.2-4.53.1-1.12.39-2.75-.08-3.8-.06-.13-.25-.03-.27.09-.05.05-.08.13,0,.15,0,0,0,0,.01,0-.01.03-.02.06-.01.1,0,.4,0,.8-.02,1.19-.02.8-.05,1.59-.12,2.39-.14,1.51-.2,3.02-.19,4.53,0,3.49.01,6.98.03,10.47.01,3.11-.06,6.21-.06,9.31,0,2.35.16,4.7,0,7.06,0,.04,0,.06.02.09-.08.38-.13.8-.09,1.13-.2,0-.4,0-.61,0,0-.07-.03-.11-.08-.13.04-.08.04-.19,0-.31,0-.07-.02-.14-.04-.21-.18-.75-.03-1.64-.07-2.42-.08-1.57-.1-3.14-.17-4.7-.14-3.43-.35-6.97-.18-10.4.08-1.61,0-3.23,0-4.84,0-1.6.14-3.22.08-4.81-.06-1.58.2-3.19.2-4.78,0-1.27.4-2.73.02-3.97-.03-.1-.19-.01-.19.07v.15c.01.11.18.04.19-.04-.07,1.45-.42,2.95-.46,4.44-.04,1.58-.27,3.15-.21,4.73.05,1.43-.11,2.9-.11,4.34,0,1.79.06,3.58-.03,5.37-.29,5.82.45,11.71.47,17.52-.2,0-.38,0-.55,0-1.25.06-2.48.19-3.73.2-2.89.02-5.79.2-8.68.14-2.51-.05-5.04-.05-7.54-.04-.33,0-.24-2.2-.13-3.97.04-.05.07-.1.07-.14.33-2.56.08-5.21.21-7.79.17-3.43.38-6.81.35-10.25-.04-3.42-.05-6.85-.06-10.27,0-.26-.31-3.65-.23-4.91.12,0,.29-.1.29-.23,0,.03,1.92-.61,1.96-.62.77-.25,1.53-.43,2.32-.59,1.63-.33,3.19-.92,4.8-1.35,3.46-.92,6.95-1.68,10.41-2.64,3.43-.95,7.01-1.78,10.36-3.02,3.31-1.22,6.57-2.56,9.85-3.83.02,0,.03-.02.05-.03,2.27,3.11,4.58,6.18,6.73,9.36,1.1,1.63,2.44,3.16,3.39,4.89.55,1.01,1.39,1.97,2.02,2.99-.75,2.33-.52,5.3-.54,7.72-.02,2.6.02,5.2-.04,7.8-.11,5.27-.38,10.53-.39,15.8-1.28,0-2.54.33-3.82.38Z"/>
              </g>
              <g>
                <g>
                  <path class="cls-5" d="m168.79,73.73c-1.76-1.83-2.99-4.19-4.7-6.09-1.82-2.01-3.34-4.3-4.96-6.47-1.76-2.35-3.66-4.58-5.42-6.93-.4-.53-.97-1.47-1.58-1.79-.13-.07-.42.09-.51.24-.03-.08-.11-.11-.2-.09-.68.19-1.23.61-1.86.92-.92.44-1.9.76-2.86,1.12-2.08.78-4.15,1.52-6.28,2.16-4.33,1.3-9,2.03-13.52,2.16-2.12.06-4.22-.02-6.34.01-1.42.02-2.25,1.13-3.32,1.92-1.59,1.17-3.06,2.5-4.63,3.71-.78.6-1.54,1.24-2.33,1.83-.69.53-1.53,1.26-2.38,1.61,0,0-.01,0-.02,0-.07,0-.14.03-.2.08-.03.01-.07.03-.1.04-.1.03-.23.26-.05.24,0,0,0,0,.01,0-.15.56-.06,1.55.56,1.59,2.63.16,5.31.37,7.95.38,2.77,0,5.52.56,8.28.61,2.16.04,4.33.21,6.48.1,0,0,.01,0,.03,0,.13,0,.18,0,.22-.02.01,0,.02,0,.03,0,.16-.01.32-.21.31-.34,3.61-2.19,6.94-4.95,10.37-7.4,1.8-1.29,3.71-2.5,5.44-3.88.82-.66,1.64-1.31,2.46-1.97.7-.56,1.52-.96,2.11-1.64.57.33,1.31,1.56,1.61,1.95.55.71,1.17,1.37,1.71,2.09,1.29,1.74,2.59,3.48,3.96,5.16,1.28,1.57,2.41,3.3,3.63,4.93,1.27,1.7,2.58,3.39,3.83,5.12,0,.01,0,.03.02.04.11.1.19.3.27.44.05.08.18.04.24,0,.27-.2.58-.47.78-.74.13-.16.29-.3.43-.45.09-.1.14-.23.22-.34.01,0,.02,0,.03,0,.11.02.4-.15.27-.29Z"/>
                  <path class="cls-7" d="m108.57,68.03c.79-.47,1.56-1.05,2.3-1.61,1.59-1.2,3.18-2.42,4.71-3.69.75-.62,1.48-1.25,2.26-1.82.86-.63,1.42-1.41,2.58-1.5,2.26-.18,4.63.05,6.91-.02,4.18-.12,8.53-.88,12.55-2.02,2-.57,3.97-1.24,5.93-1.91.81-.28,1.6-.68,2.42-.99.34-.13,2.96-1.03,2.96-1.55,0,.12.09.15.18.14-.66.68-1.67,1.31-2.28,1.82-1.22,1.02-2.52,1.93-3.77,2.91-2.41,1.89-5.08,3.42-7.49,5.31-2.23,1.75-4.67,3.4-7.05,4.95-.24.15-.7.29-1.01.52-.02-.01-.03-.02-.05-.03-.07-.05-.2.02-.24.1-.09-.02-.22-.03-.41,0-.97.15-2.1-.04-3.09.01-2.11.11-4.2-.26-6.29-.06-1.92.19-3.96-.22-5.88-.22-1.75,0-3.52-.3-5.26-.32.01,0,.02-.01.03-.02Z"/>
                  <path class="cls-7" d="m167.71,74.39c-.25.26-.52.53-.75.82-.04-.03-.08-.08-.11-.12.08-.07.14-.17.08-.25-2.68-3.65-5.32-7.37-8.12-10.92-1.4-1.77-2.63-3.68-4.13-5.37-.74-.84-1.39-1.76-2.14-2.6-.25-.28-.46-.57-.86-.54-.11,0-.23.14-.23.23-.68.7-1.6,1.19-2.36,1.8-.85.68-1.69,1.36-2.54,2.04-1.71,1.37-3.63,2.56-5.41,3.83-1.78,1.27-3.56,2.54-5.25,3.93-1.47,1.21-3.17,2.18-4.68,3.37,0,0-.02,0-.03,0,0-.04-.02-.08-.06-.12-.41-.3-.77-.89-1.04-1.33-.2-.31.75-.72.9-.82,1.11-.68,2.18-1.52,3.23-2.29,2.16-1.6,4.42-3.17,6.65-4.68,2.31-1.56,4.53-3.23,6.76-4.9.99-.74,1.93-1.57,2.85-2.41.4-.37,1.03-.76,1.34-1.26.09-.04.18-.04.35.18.74.92,1.45,1.87,2.16,2.81,1.68,2.2,3.48,4.29,5.14,6.51,1.51,2.01,2.93,4.07,4.62,5.93,1.53,1.69,2.61,3.82,4.15,5.49-.2.19-.33.45-.53.66Z"/>
                </g>
                <path class="cls-7" d="m119.59,70.19c-2.26-.17-4.51-.23-6.77-.33-1.04-.05-2.1-.14-3.14-.24-.76-.07-.59-.13-1.12-.06-.64.07-.41-.49-.52-.92-.07-.27,1.24,0,1.36.01,1.09.1,2.19.1,3.28.13,1.95.05,3.93.25,5.88.25,2.1,0,4.2.08,6.3.08,1.47,0,3.16.2,4.61-.16-.02.05-.03.1-.04.16-.03.38.61,1.15,1.06,1.55-3.63.15-7.29-.2-10.91-.47Z"/>
              </g>
              <g>
                <path class="cls-5" d="m153.03,81.5s0,0,0,0c.36-4.66.95-12.55-5.44-12.82-2.61-.11-4.92,1.57-6.22,3.74-.7,1.18-.99,2.62-1.24,3.95-.06.31-.26,4.8.05,5.2-.1,0-.19.05-.24.15-.48,1.09-.04,1.65.98,1.74,2.48.22,5.08.16,7.57.16,1.37,0,3.25.25,4.54-.24.48-.18.42-1.67,0-1.87Z"/>
                <path class="cls-7" d="m148.85,69.26c2.93.73,3.49,3.41,3.86,6.01.3,2.09.23,4.16-.02,6.23-.15-.07-.33-.09-.52-.1.09-1.1-.03-2.26-.09-3.35-.07-1.4-.02-2.79-.23-4.17-.38-2.42-2.24-3.74-4.59-3.93-1.98-.16-4.13,1.55-5.01,3.17-1.27,2.34-1.41,5.62-1.05,8.23-.3.04-.58.1-.82.21.06-.03.15-.16.04-.19h0s0,0,0,0c-.04-.03-.1-.02-.14.01-.25-5.21,1.34-13.92,8.58-12.12Z"/>
                <path class="cls-7" d="m147.65,77.3c.52.1,1.12-.03,1.63-.03.78-.01,1.58.15,2.35-.06.04-.01.08-.04.12-.08.11,1.41.23,2.9.1,4.28-.27.01-.54.05-.74.06-1.11.08-2.25,0-3.37.04,0,0,0,0,0,0-.18-1.36-.15-2.8-.08-4.2Z"/>
                <path class="cls-7" d="m146.23,75.59c0,.19,0,.38,0,.56-.43.05-.91-.05-1.33,0-1.03.12-2.08-.17-3.11.09.08-.6.18-1.19.34-1.8.57-2.15,2.33-3.71,4.42-4.01-.45,1.54-.27,3.51-.31,5.16Z"/>
                <path class="cls-7" d="m146.21,77.29c0,1.42.03,2.84,0,4.25-.95.01-1.91-.02-2.84-.14-.57-.08-1.33-.13-2-.06h0c.14-.62.18-2.57.2-2.75.03-.39.06-.77.1-1.14,1.52.06,3.06.14,4.56-.16Z"/>
                <path class="cls-7" d="m141.68,77.17c.02-.21.04-.43.06-.64,1.05-.2,2.15.01,3.2-.04.39-.02.87.08,1.26.01,0,.17,0,.34,0,.51-.62-.09-1.3.03-1.92.1-.87.1-1.74-.04-2.61.05Z"/>
                <path class="cls-7" d="m146.67,75.49c.07-1.64.3-3.44,0-5.07.27-.03.55-.04.83-.03.15,1.16-.19,5.47-.22,6.03-.08,1.66-.17,3.43.05,5.1-.29,0-.57.02-.86.02.08-2.02.11-4.03.2-6.05Z"/>
                <path class="cls-7" d="m147.66,70.4c.18.01.36.03.54.06,2.73.49,3.27,3.2,3.45,5.51-1.32-.1-2.63,0-3.95.1,0-.08,0-.17.01-.25.08-1.58.42-3.82-.06-5.43Z"/>
                <path class="cls-7" d="m147.69,76.36c.63.03,1.26-.05,1.89-.07.7-.02,1.39.06,2.09.01.01.22.03.44.05.66,0,0,0,0-.01,0-.52-.18-1.21,0-1.76-.04-.72-.05-1.57.22-2.29.09.01-.22.02-.43.03-.65Z"/>
                <path class="cls-7" d="m152.47,83.13c-.62.07-1.27.07-1.9.09-1.22.06-2.47.04-3.7.03-1.52,0-3.02-.14-4.54-.14-.52,0-2.11.25-2.15-.69-.02-.34-.09-.67.31-.61.03,0,.08-.02.11-.04.96.13,2.03-.07,2.99.06,1.06.15,2.18.08,3.25.07,1.22,0,2.45-.12,3.67-.06.39.02.86.05,1.31.04.04.04.12.03.2-.01.23-.01.44-.04.64-.1,0,.09.05.11.13.1.27.28.11,1.19-.32,1.24Z"/>
              </g>
            </g>
            <g>
              <polygon class="cls-7" points="23.76 108.44 19.4 108.44 19.4 114 161.63 111.57 161.63 106.32 23.76 108.44"/>
              <path class="cls-5" d="m19.1,114.25v-6.06h4.66l138.18-2.13v5.75h-.29s-142.54,2.44-142.54,2.44Zm.6-5.57v5.07l141.63-2.42v-4.77l-137.57,2.12h-4.06Z"/>
            </g>
            <g>
              <g>
                <path class="cls-5" d="m36.61,18.85c-.25-.6-.97-.59-1.55-.71-1.19-.24-2.36-.56-3.55-.82-.1-.02-.26.07-.25.18.02.25.04.5.05.75-.17,2.09-.94,4.41-1.61,6.35-.37,1.07-.98,2.08-1.42,3.13-.48,1.15-.94,2.31-1.49,3.43-1.05,2.15-1.98,4.3-3.16,6.39-1.22,2.16-2.54,4.31-3.96,6.34-1.45,2.07-3.03,4.05-4.46,6.14-1.45,2.12-2.92,4.25-4.52,6.26-2.76,3.49-6.4,6.21-9.01,9.83-.08.11-.02.25.12.25h.05s-.04.07-.06.1c-.02.04,0,.1.03.12.25.17.64.19.93.12,1.43-.32,2.88-.36,4.34-.36,1.2,0,2.38-.06,3.58-.15.32-.02,1.87-.41,2.45-.36-.01.03-.03.05-.04.09-.08.21.2.23.32.14.06-.05.12-.09.18-.13.04-.02.07-.04.1-.07.58-.42,1.19-.78,1.73-1.27,1.04-.93,1.89-2.05,2.82-3.08,1.7-1.89,3.08-3.96,4.51-6.06,3.04-4.47,5.87-9.18,8.22-14.05,2.36-4.89,4.2-10.07,5.14-15.42.22-1.27.34-2.57.43-3.86.05-.74.06-1.48.07-2.22,0-.12.09-.88,0-1.07Z"/>
                <path class="cls-7" d="m35.56,26.66c-.9,5.13-2.81,10.07-5.02,14.77-2.2,4.68-4.97,9.19-7.85,13.47-1.4,2.08-2.76,4.18-4.42,6.07-.8.9-1.58,1.83-2.41,2.7-.69.73-1.5,1.26-2.28,1.85h0s-.04-.02-.06-.02c-.29-.08-.73.05-.98.09-1.59.24-3.18.37-4.8.39-1.37.02-2.68.03-4.04.22-.45.06-1.81.56-1.3-.32.15-.26.38-.37.44-.58.34-.42.69-.84,1.05-1.25.87-.98,1.8-1.89,2.7-2.83,1.63-1.7,3.34-3.29,4.79-5.17,3.12-4.04,6.08-8.29,9-12.48,1.41-2.02,2.69-4.21,3.91-6.36,1.19-2.11,2.12-4.25,3.15-6.44.95-2.02,1.85-4.1,2.71-6.17.42-1.03.65-2.17.85-3.26.18-.98.43-1.89.5-2.86h0s.05-.05.07-.08c.04-.04.04-.12-.03-.12,0,0-.02,0-.03,0,0-.09,0-.17,0-.26.07-.17.13-.33.13-.34.44.12.86.27,1.3.39.55.15,3.24.37,3.25,1.18.02,2.47-.2,4.96-.63,7.39Z"/>
              </g>
              <g>
                <path class="cls-5" d="m125.99,63.96c-.37-.02-.75-.04-1.12.04-.08.02-.14-.02-.17-.08-1.49.05-3.06-.09-4.48-.19-2.49-.18-4.99-.25-7.48-.29-4.82-.07-9.68-.51-14.5-.27-2.27.11-4.55.13-6.83.02-2.42-.12-4.85-.37-7.27-.37h-7.42c-1.21,0-2.41-.09-3.62-.09-.52,0-1.05,0-1.57.01-.34,0-.69,0-1.03.01-.11.03-.2.06-.28.08-.03.09-.15.15-.25.07-.13-.1-.24-.23-.35-.37-.02.03-.03.05-.03.08-.74-.78-1.47-1.56-2.21-2.34,0-.07-.04-.1-.09-.1-5.11-5.47-10.07-11.09-14.98-16.75-3.11-3.58-6.14-7.21-9.17-10.85-1.56-1.87-3.07-3.78-4.51-5.75-1.22-1.67-2.3-3.63-3.69-5.16-.17.31-.35.62-.52.93-.52,1.24-1.37,3.89-1.48,4.17-.71,1.87-1.58,3.69-2.43,5.5-1.77,3.79-3.3,7.74-5.27,11.43-1.85,3.47-3.86,6.93-6.02,10.21-1.22,1.85-2.53,3.64-3.92,5.37-1.13,1.4-2.42,2.75-3.41,4.24,0,0,0,0,0,.01,0,0,0,.02-.01.03-.04.07-.03.12,0,.16.11,1.35.63,2.68.88,4.02.35,1.85.77,3.67,1.23,5.49,1.06,4.12,1.71,8.33,2.63,12.48.92,4.13,1.62,8.29,2.24,12.48.31,2.06.63,4.11,1.01,6.16.16.86.29,1.73.41,2.6.03.25.58,1.81.51,1.92-.11.18.02.25.16.23.01.17.01.34.02.45,0,.07.09.1.15.1.19,0,.28-.01.42-.14.17-.16,2,.06,2.36.03,2.05-.16,4.26-.12,6.31.03,2.16.16,4.39-.04,6.56-.04,2.5,0,5-.07,7.5-.08,5.09-.02,10.17.04,15.26.15,2.08.05,4.16.18,6.24.14.52-.01.84-.05,1.06-.13.02,0,.05,0,.07,0,.26,0,.52-.03.78-.08.24-.02.47-.08.71-.15.2,0,.39-.01.57-.03.1.01.2.02.29.03.04.03.1.03.15.01.12,0,.23.02.32.02,1.08,0,2.16-.04,3.24-.06,2.14-.04,4.28.16,6.42-.03,4.67-.42,9.37-.46,14.06-.47,4.82-.01,9.64.21,14.46.06,4.55-.14,9.11-.47,13.65-.65.09,0,.18-.06.24-.14.14.04.39-.1.39-.27.07-3.39.49-6.77.62-10.16.15-3.85.12-8.01.89-11.79.32-1.57.34-3.3.52-4.9.22-1.96.46-3.93.73-5.89.26-1.91.36-3.83.59-5.74.16-1.34.34-2.68.42-4.02,0-.45.02-.91.02-1.36Z"/>
                <path class="cls-7" d="m22.33,109.04c-.27-.02-.78-.02-1.01.15-.08.06-.1-.1-.14-.29.05-.09.05-.15.01-.26-.22-.8-.43-1.56-.54-2.39-.27-1.99-.71-3.96-1.04-5.95-.72-4.38-1.25-8.78-2.17-13.13-.91-4.33-1.67-8.71-2.72-13.01-.47-1.91-1.02-3.8-1.34-5.74-.16-.94-.4-1.89-.62-2.81-.09-.36-.25-1.46-.5-1.92h0s.04-.04.06-.06c.52-.78,1.12-1.53,1.74-2.26,0,0,0,0,0,0,.02.03.06.03.1,0-.1.24-.09.47.03.7.14.51.22,1.06.32,1.57.23,1.1.47,2.19.68,3.29.37,1.97.65,3.96,1.13,5.91,1.07,4.32,1.97,8.68,2.88,13.03.89,4.28,1.73,8.54,2.44,12.85.33,2.01.58,4.04.92,6.05.23,1.37.23,3.02.71,4.33-.31-.01-.63-.03-.94-.05Z"/>
                <path class="cls-7" d="m64.24,108.48c-.04.2-.12.52-.05.75-.35-.03-.7-.07-1.03-.1-2.13-.17-4.33-.15-6.47-.2-5-.11-10.03-.06-15.03.04-4.39.09-8.78.03-13.17.04-1.57,0-3.17.11-4.75.08,0-.03.01-.07,0-.1-.48-1.19-.46-2.71-.68-3.97-.38-2.17-.68-4.34-1.03-6.52-.69-4.31-1.56-8.57-2.45-12.85-.91-4.36-1.97-8.69-2.84-13.05-.43-2.16-.82-4.32-1.25-6.48-.29-1.46-.43-3.68-1.27-5.01.59-.7,1.2-1.39,1.76-2.09,1.3-1.62,2.51-3.31,3.66-5.04,2.37-3.57,4.54-7.37,6.52-11.17,1.79-3.43,3.18-7.09,4.81-10.59.93-1.98,1.85-3.98,2.62-6.03.35-.92.63-1.87.94-2.8.14-.43.39-.88.45-1.35.09.18.18.36.19.38.26.39.47.81.72,1.21.53.85,1.16,1.65,1.74,2.47,1.42,1.99,2.9,3.93,4.45,5.82,3.12,3.81,6.34,7.52,9.55,11.25,5.03,5.83,10.11,11.65,15.36,17.28-.05.25-.04.51-.03.76-.05.23-.1.47-.1.56,0,.41-.14.8-.09,1.21,0,.07.06.07.12.04-.07.79-.14,1.57-.2,2.36-.18,2.21-.43,4.42-.59,6.63-.31,4.07-.32,8.13-.54,12.19-.21,3.83-.36,7.65-.5,11.48-.15,4.03-.54,8.05-.71,12.08-.04.23-.08.46-.12.7Z"/>
                <path class="cls-7" d="m67.12,108.13c-.21.57-.17.89-.8,1.04-.1.03-.21.04-.32.06-.03,0-.05-.02-.07-.03-.05-.04-.13,0-.17.06-.34.03-.7.03-1.05.01,0,0,0-.01.01-.02.01-.03.02-.05.03-.07.04-.09-.02-.15-.09-.16-.08-.21-.04-.58-.04-.76,0-.06,0-.12,0-.19.09-.05.18-.13.18-.22.18-4.09.56-8.17.75-12.26.18-4,.32-7.99.54-11.99.24-4.23.31-8.47.57-12.71.15-2.43.42-4.84.53-7.28.02-.48.23-1.52.08-2.13,0-.07,0-.13,0-.2.03-.14.07-.29.09-.43.74.79,1.49,1.58,2.23,2.37.03.03.07.04.11.04-.05.35-.11.7-.17,1.05-.18,1.04-.28,2.09-.4,3.13-.25,2.09-.27,4.18-.39,6.28-.25,4.17-.41,8.32-.5,12.5-.09,3.95-.3,7.94-.6,11.88-.25,3.32-.16,6.65-.46,9.96-.03.02-.05.05-.06.08Z"/>
                <path class="cls-7" d="m69.24,102.62c-.03.94-.1,1.88-.13,2.82-.02.49.03,1.02.03,1.54-.18.57-.27,1.21-.34,1.8-.25.05-.5.12-.74.19-.2,0-.39.01-.59.02-.07,0-.13.01-.2.02.03-.12.05-.25.08-.4.11-.03.22-.13.23-.23.32-3.25.24-6.54.43-9.8.23-3.99.48-7.98.68-11.97.2-3.95.1-7.92.45-11.86.19-2.09.18-4.2.34-6.29.13-1.74.55-3.56.56-5.32.09.04.18.06.31.06.57,0,1.13,0,1.7.01-.03.02-.05.05-.05.07-.18,1.48-.48,2.96-.63,4.46-.19,1.89-.25,3.8-.36,5.7-.23,3.97-.52,7.92-.79,11.89-.26,3.87-.47,7.75-.75,11.62-.14,1.9-.17,3.78-.23,5.68Z"/>
                <path class="cls-7" d="m123.19,85.59c-.25,3.87-.67,7.75-.87,11.64-.17,3.43-.61,6.9-.62,10.33-.06.05-.09.12-.09.18-4.7.2-9.4.54-14.1.68-4.99.15-9.99-.1-14.98-.07-4.86.03-9.66.25-14.5.6-1.06.08-2.18-.1-3.24-.1-1.27,0-2.55.03-3.82.07-.43.01-.85.02-1.28.02.01-.04.02-.07.02-.11-.02-.23-.04-.47-.05-.71-.01-.23-.02-.43-.08-.63.1-1.08-.04-2.25,0-3.29.08-2.09.12-4.19.16-6.28.07-4.05.54-8.13.82-12.17.27-3.95.61-7.89.84-11.84.13-2.1.22-4.2.39-6.29.07-.83.15-1.65.21-2.47.05-.66.29-1.3.21-1.95.59,0,1.18.01,1.77.03,2.55.08,5.09.09,7.64.09,4.97,0,9.91.56,14.88.43,2.49-.07,4.93-.14,7.43-.05,2.49.1,5,.22,7.49.22,2.69,0,5.38.1,8.06.26,1.99.12,4.18.37,6.17.16-.49,7.11-1.99,14.15-2.45,21.24Z"/>
              </g>
              <g>
                <path class="cls-5" d="m131.21,62.21c0-.06-.02-.1-.06-.12,0-.03,0-.06-.02-.09-.3-.53-.89-.83-1.35-1.21-.8-.67-1.68-1.28-2.52-1.9-1.84-1.36-3.71-2.75-5.36-4.34-3.56-3.44-7.17-6.75-10.54-10.39-3.27-3.53-6.3-7.27-9.18-11.12-1.41-1.88-2.63-3.86-3.92-5.81-.58-.88-1.05-1.84-1.56-2.76-.13-.24-.5-.12-.82-.03-.17.01-.34.02-.5.03-.01,0-.03-.01-.04-.02-.04-.04-.12-.01-.17.04-5.2.31-10.51-.04-15.71-.16-2.89-.07-5.75-.39-8.65-.52-3.07-.14-6.11-.27-9.15-.69-2.65-.36-5.26-.97-7.87-1.54-2.71-.6-5.45-1.1-8.11-1.88-2.75-.8-5.41-1.7-8.09-2.73-1.07-.41-2.14-.8-3.21-1.22-.36-.14-1.31-.75-1.89-.93-.33-.4-.67-.36-1.31-.34-.09,0-.18.07-.21.15-.02.07-.04.13-.06.2-.02.02-.03.05-.02.07,0,.03-.02.05-.03.08-.37.34-.79,2.78-.86,3.09-.26,1.09-.68,2.15-1.12,3.18-1.01,2.34-1.83,4.81-2.71,7.22-.83,2.29-2.02,4.48-3.05,6.68-1.17,2.48-2.43,4.87-3.97,7.14-2.89,4.27-5.86,8.48-9.25,12.38-1.79,2.06-3.62,4.08-5.48,6.09-.81.88-1.57,1.78-2.33,2.7-.47.57-1.17,1.07-1.55,1.71-.04.06-.06.15-.01.22.39.55.86,1.19,1.51,1.42.08.03.17,0,.25-.06.12.03.32-.05.39-.12,1.33-1.34,2.89-2.47,4.24-3.8,1.69-1.66,3.36-3.54,4.78-5.44,3.04-4.06,6.28-7.98,9.07-12.23,2.74-4.19,5.27-8.53,7.28-13.11,1.05-2.4,2.18-4.82,3.07-7.29.34-.93.71-1.81.9-2.79.11-.56.46-1.25.45-1.86.3.56.57,1.13.67,1.29.66,1.03,1.3,2.08,1.98,3.1,1.35,2.03,2.84,3.96,4.13,6.03,2.57,4.14,5.75,8.1,8.97,11.77,3.51,4,6.88,8.11,10.39,12.11,1.71,1.95,3.6,3.72,5.3,5.68,1.37,1.58,2.92,3.21,4.6,4.45.07.05.16.02.23-.04.13.18.3.37.38.33,0,.02,0,.04,0,.06,0,0,0,0,0,0,0,.04.01.07.04.08,0,.06.05.08.11.09,2.13.16,4.31-.26,6.44-.31,2.7-.06,5.39.04,8.09-.04,5.36-.16,10.72.35,16.08.35,5.17,0,10.35.2,15.52.18,5.14-.02,10.37.17,15.48-.4.17-.02.37-.16.33-.35-.13-.78.06-1.51,0-2.27Z"/>
                <path class="cls-7" d="m33.81,15.89c1.18.48,2.38.92,3.56,1.41,2.62,1.1,5.32,2.05,8.07,2.76,5.42,1.41,10.97,2.78,16.52,3.55,2.69.37,5.4.5,8.11.62,2.89.12,5.75.52,8.64.54,2.82.02,5.65.13,8.47.15,2.88.02,5.88.37,8.73-.13.03,0,.06-.02.09-.04.85.21,1.19,1.66,1.58,2.33,1.14,2,2.48,3.94,3.85,5.8,2.97,4.02,6.13,7.92,9.53,11.57,3.14,3.37,6.39,6.58,9.8,9.68,1.66,1.51,3.33,2.98,5.15,4.3.85.61,1.69,1.23,2.49,1.9.65.54,1.64.97,2.19,1.66-.04,0-.08,0-.12.01,0-.05-.04-.1-.13-.11-1.99-.41-4.33.11-6.36.11-2.65,0-5.32-.08-7.98-.02-5.5.11-10.96,0-16.46-.12-5.44-.13-10.89-.29-16.33-.18-2.76.06-5.49.11-8.24-.04-1.24-.07-2.48-.07-3.72-.08-.44,0-.8-.04-1.23.05-.04,0-.09.06-.13.1,0-.03,0-.05,0-.07,0,0,0,0,0,0,0-.05-.01-.09-.05-.11,0,0,0,0,0,0-8.04-6.91-14.85-14.84-21.05-23.44-3-4.16-6.27-8.13-9.25-12.31-1.57-2.2-3.33-4.23-4.61-6.63-.71-1.34-1.47-2.64-2.22-3.96.39.25.83.61,1.1.72Z"/>
                <path class="cls-7" d="m69.12,64.48c-.11-.04-.22-.09-.31-.19,0-.02-.02-.04-.04-.06,0,0,0,0-.01,0-.02-.03-.04-.06-.06-.1,0-.02-.02-.03-.05-.03-.02,0-.04,0-.05.01-1.87-1.44-3.54-3.34-5.08-5.11-1.71-1.97-3.62-3.77-5.37-5.72-3.67-4.1-7.28-8.26-10.79-12.5-3.13-3.77-6.02-7.68-8.67-11.79-1.31-2.02-2.88-3.89-4.07-5.98-.62-1.08-1.53-1.99-2.15-3.09-.13-.23-.64-1.22-.97-1.21-.05,0-.1.09-.03.09.21,0,.56.56.88,1.15-.03.66-.5,1.43-.69,2.05-.33,1.09-.75,2.12-1.15,3.18-.87,2.3-1.93,4.61-2.93,6.86-2.1,4.69-4.7,9.13-7.53,13.42-2.6,3.95-5.66,7.58-8.49,11.35-1.51,2.01-3.25,3.99-5.04,5.76-1.25,1.25-2.7,2.31-3.97,3.53-.07.01-.14.05-.2.12-.03.04-.06.07-.08.1-.54-.21-1.49-.99-.89-1.48.89-.72,1.6-1.88,2.33-2.76,1.82-2.18,3.84-4.2,5.71-6.33,3.44-3.92,6.62-8.1,9.49-12.45,2.91-4.41,5.16-9.1,7.3-13.92,1.11-2.5,1.9-5.14,2.85-7.71.39-1.06.85-2.07,1.17-3.16.23-.8.35-1.62.53-2.43.02-.02.04-.03.04-.06,0-.06.01-.14.02-.23.06-.25.14-.49.22-.74.1-.17.25-.29.46-.29.75.02,1.05,1.08,1.34,1.6.74,1.3,1.41,2.64,2.16,3.93,1.37,2.33,3.17,4.34,4.69,6.56,2.89,4.24,6.31,8.12,9.29,12.29,5.94,8.34,12.73,15.94,20.47,22.64-.04.92-.3,1.78-.35,2.69Z"/>
                <path class="cls-7" d="m116.13,64.78c-5.37.03-10.73-.17-16.1-.17-5.36,0-10.72-.49-16.08-.34-1.23.03-13.56.13-14.43.45.03-.93.29-1.82.37-2.73.24-.04.45-.18.73-.17,1.23.07,2.46.11,3.69.18,2.75.15,5.46.14,8.21.1,5.45-.09,10.89.1,16.34.19,5.32.09,10.61.34,15.94.2,2.51-.07,5.02.15,7.52.03,1.18-.06,2.36-.02,3.53-.07,1.27-.06,2.77-.32,4.04-.11,0,.07.05.13.17.11.7-.15.6,1.2.63,1.97-4.81.51-9.72.35-14.55.38Z"/>
              </g>
              <path class="cls-5" d="m61.96,58.59c-7.96,0-15.89.28-23.83.79-4.23.27-8.47.21-12.7.38-1.74.07-3.48.43-5.19.71-1.03.17-2.07.39-3.11.5-.51.06-2.17.41-2.55.11-.08-.06-.25.08-.18.16.44.57,2.37.23,3.02.18,2.09-.15,4.18-.64,6.26-.9,4.31-.54,8.75-.25,13.08-.45,4.42-.2,8.84-.6,13.26-.74,2.09-.07,4.18-.06,6.27-.07,1.85-.01,3.81.1,5.6-.32.15-.04.33-.34.07-.34Z"/>
              <g>
                <path class="cls-4" d="m86.09,31.87c-.18-.55-.51-1.01-.85-1.47-.51-.7-.76-1.61-1.15-2.39-.09-.18-.48.06-.41.24.2.51.4,1.03.64,1.53.34.71.89,1.34,1.19,2.07-.83.1-2-.22-2.75-.29-1.15-.11-2.27-.22-3.43-.23-.62,0-1.19-.07-1.79-.22-1.21-.29-.92-.93-1.44-1.66-.72-1.01-1.41-2.05-2.3-2.92-.05-.05-.17.03-.13.09.83,1,1.67,2.24,2.16,3.46-.24-.36-.61-.67-.86-1-.49-.64-.52-1.46-1.31-1.84-.08-.04-.26.07-.18.16.42.5.67,1.06.96,1.64.25.5.81.95,1.06,1.48-2.12.03-4.29-.96-6.42-.83-.79-1.34-1.8-2.7-2.86-3.83-.12-.13-.43.08-.32.23.82,1.19,1.77,2.32,2.57,3.54-.66-.12-1.31-.35-1.97-.38-.93-.03-2.14-.34-3.07-.51-.56-.1-1.25-.37-1.83-.37-.51,0-1.06-.75-1.48-1.41-.1-.18-.21-.34-.3-.49-.08-.13-.15-.25-.21-.33-.11-.16-.44.08-.34.25.35.62,1.43,1.85.2,1.81-.88-.02-1.88-.19-2.74-.38-1.01-.22-2.16-.22-2.94-.98-.71-.7-1.36-1.57-1.95-2.4-.06-.11-.13-.22-.22-.31-.12-.13-.42.09-.3.22.38.57.92,1.39,1.24,2.1-.46-.14-.87-.36-1.39-.37-1.22-.02-2.67-.48-3.87-.73-.5-.11-1.05-.09-1.55-.14-1-.09-1.42-.65-1.95-1.4-.54-.76-1.18-1.57-1.86-2.21-.06-.06-.22.06-.19.13.41,1.09.86,1.98,1.47,2.91-.68-.1-1.37-.28-2.05-.29-.8,0-1.67.06-2.47-.09-.13-.02-.34.2-.16.25.49.14,1.02.12,1.52.16,1.21.09,2.4.4,3.59.46.13,0,.34-.16.32-.3.29.35.59.61.89.63,1.67.15,3.28.49,4.94.73.61.09,1.24.21,1.86.3.44.07.73.36,1.18.41.11.01.28-.12.27-.25.39.44.82.82,1.3,1.06.88.44,2.51.68,3.5.68.53,0,2,.59,2.47.1.12-.13.16-.31.15-.5.18.21.37.43.57.63.17.17,1.44.3,1.71.35,1.11.19,2.2.36,3.29.61.91.21,1.82.43,2.76.48.08,0,.17-.04.23-.11,1.1.17,2.2.41,3.32.55,1.09.13,2.27.52,3.37.41.13-.02.3-.12.31-.27.41.76,1.31.92,2.12,1.02,1.31.17,2.64.14,3.96.27,1.1.11,2.6.59,3.67.25.12-.04.3-.17.25-.32Zm-43.42-8.8c-1-1.69-.42-.78-.05-.33.27.33.64,1.04,1.07,1.66-.36-.43-.72-.83-1.01-1.33Z"/>
                <path class="cls-4" d="m95.06,30.89c-.64-1.03-1.27-1.94-1.55-3.15-.06-.24-.44,0-.42.2,0,.02,0,.05,0,.07,0,.01,0,.01.01.02.11.67.34,1.24.66,1.84.18.33,1.04,1.52,1.15,1.55-1.15-.37-2.8-.03-4-.09-1.22-.06-3.68.51-4.34-.77-.36-.7-.86-1.33-1.22-2.04-.12-.24-.21-.49-.43-.65-.03-.02-.11.04-.08.07.9.9.79,3.83,2.44,3.84,2.62.02,5.23-.05,7.84.06.1,0,.27-.11.26-.23-.02-.32-.13-.43-.32-.73Z"/>
                <path class="cls-4" d="m100.24,31.44c-1.19-.2-2.51-.07-3.7.06-.51.06-.82-.97-1-1.29-.41-.74-.92-1.41-1.31-2.17-.01-.02-.07,0-.06.03.51,1.25,1.22,2.4,1.65,3.68.01.04.04.07.08.08.62.12,1.29,0,1.91-.03.78-.03,1.55.06,2.32-.06.11-.02.3-.28.11-.31Z"/>
                <path class="cls-4" d="m105.39,38.1c-1.1,0-3.41.46-4.16-.49-.47-.6-1.05-1.1-1.52-1.72-.27-.35-.56-.75-.97-.95-.11-.05-.25.04-.26.16-.07.81,1.07,2.12,1.49,2.78.33.51-.86.27-1.17.27-.68,0-1.57-.27-2.26-.15-1.04.19-1.96.39-2.55-.71-.42-.79-1.09-1.57-1.69-2.23-.82-.89-1.66-2.24-2.68-2.87-.09-.06-.27.1-.16.17.51.38.92.94,1.32,1.52-.09.05-.16.15-.11.23.79,1.35,1.57,2.73,2.35,4.09-.59,0-1.19-.06-1.76-.1-.63-.05-2.44.09-2.77-.63-.56-1.23-1.46-2.75-2.51-3.59-.1-.08-.33.08-.28.2.5,1.17,1.16,2.26,1.75,3.39.29.56.54.69-.45.51-.77-.14-1.6-.12-2.38-.12-.82,0-1.66-.11-2.48-.2-.77-.08-1.94,0-2.43-.69-.8-1.14-1.58-2.24-2.46-3.32-.13-.16-.48.06-.41.24.39,1.05,1,1.98,1.52,2.97-.84-.05-1.67-.15-2.51-.19-.86-.04-4.28.35-4.72-.48-.46-.89-1.41-1.7-2.01-2.51-.44-.59-.92-1.13-1.39-1.69-.33-.67-.64-1.35-1-1.97-.07-.13-.33.06-.26.19.08.15.16.31.24.46-.02-.03-.03-.05-.05-.07-.04-.05-.15.03-.11.08.22.35.45.7.68,1.04.29.59.57,1.18.87,1.76.53,1.02,1.26,1.9,1.83,2.9-1.13-.06-2.47-.45-3.48-.79-1.15-.39-2.13-2.13-2.98-2.97-.12-.12-.42.04-.36.21.26.72.94,1.33,1.27,2-1.64-.19-3.31-.3-4.94-.53-1.05-.15-1.7-.4-2.35-1.28-.46-.63-.75-1.41-1.28-1.98-.1-.11-.29-.02-.35.09-.41.69.68,1.93,1.09,2.7-.82-.03-1.62-.26-2.44-.36-.99-.13-1.94-.33-2.87-.69-.99-.38-1.59-.74-2.29-1.54-.42-.47-.57-1.12-1.05-1.53-.16-.13-.41.12-.39.28.07.48.18.96.3,1.43.13.51-.97.09-1.13.05-.99-.21-2.04-.25-3.05-.2-.09,0-.18.1-.18.17,0,.04.02.08.09.07.98.05,1.96.1,2.93.29.55.11,1.06.33,1.61.22.12-.02.2-.12.23-.24.03-.16.03-.34,0-.51.23.34.57.64.79.98.4.61,1.24.71,1.88.91,1.78.55,3.96,1.19,5.84,1.06.14,0,.34-.14.3-.31-.13-.56-1.09-1.57-1.3-2.3.49.54.86,1.44,1.23,1.98.55.82.59.63,1.43.93.81.29,1.71.25,2.56.32,1.19.1,2.37.26,3.56.41.15.02.38-.11.33-.29-.03-.1-.06-.2-.11-.29.04.05.09.1.13.15.25.29.67,1.06,1.13,1.09,1.4.08,2.7.88,4.13.84.15,0,.33-.17.25-.32-.04-.07-.08-.14-.11-.21.24.29.5.53.76.67.94.5,2.62.08,3.67.19,1.27.13,2.63.18,3.91.22.17,0,.38-.2.29-.37-.22-.44-.47-.87-.72-1.29.28.36.55.73.8,1.12.44.68.66,1.04,1.51,1.12,1.3.12,2.57.35,3.87.39,1.13.03,2.44.44,3.55.23.1-.02.21-.11.24-.21.03-.09.04-.18.04-.26.08.1.16.19.26.28.34.28,1.65.13,2.07.15.88.04,1.8.18,2.68.09.13-.01.34-.16.25-.31-.52-.88-1.02-1.83-1.56-2.73.36.42.65.91.98,1.35.32.43.56,1.17.97,1.5.79.64,2,.08,2.94.11,1.14.03,2.33.29,3.47.2.12-.01.27-.09.31-.22.13-.54-.35-.96-.63-1.39-.32-.48-.6-.99-.93-1.47-.35-.48-.32-.44.09.13.32.35.61.72.92,1.08.38.44.89,1.4,1.43,1.58,1.08.37,2.58.13,3.71.12.21,0,.43-.39.14-.39Zm-18.86-3.11c.43.57.79,1.25,1.1,1.78.05.09.09.17.14.26-.45-.58-.86-1.32-1.23-2.05Z"/>
                <path class="cls-4" d="m109.52,43.09c-1.26-.12-2.12.12-3.21-.86-.47-.42-1.16-1.46-1.86-1.55-.14-.02-.36.13-.27.29.39.72,1.02,1.3,1.36,2.05-1.08-.17-2.3-.07-3.36.02-1,.08-1.75-.19-2.26-1.08-.22-.39-.81-.82-1.13-1.16-.52-.56-1.04-1.12-1.56-1.68-.09-.09-.3.06-.22.16.24.32.48.64.72.96-.04.04-.08.09-.08.14,0,.57.57,1.29.86,1.74.19.29.27.74.52.96-.03-.03-1.6-.08-1.96-.08-1.64-.01-3.28.09-4.92.11-1.62.02-2.92-2.58-3.9-3.59-.04-.04-.1-.02-.15.01-.02-.03-.04-.06-.06-.09-.12-.18-.49.08-.37.27.35.57.69,1.15,1.04,1.72.07.12,1.28,1.93.92,1.96-1.32.11-2.8-.1-4.1-.28-1.45-.2-3.39.24-4.46-1.02-.73-.87-1.25-1.95-1.9-2.87-.12-.17-.43.06-.39.23.28,1.16,1.32,2.02,1.72,3.12-.75,0-1.58-.22-2.32-.28-1.25-.12-2.58-.17-3.44-1.22-.73-.88-1.19-2.64-2.23-3.22-.12-.07-.39.08-.33.24.51,1.18,1.32,2.26,2.02,3.33.58.89-.9.36-1.37.3-.85-.11-1.69-.26-2.53-.41-1.54-.26-3.13-.5-4.64-.88-1.72-.44-2.27-2.13-3.38-3.36-.11-.12-.35.06-.28.2.33.66.91,1.53,1.13,2.31-1.67-.07-3.4-.23-5.06-.41-.99-.1-1.56-1.33-2.13-2.06-.63-.82-1.41-1.5-2.16-2.21-.11-.11-.34.05-.27.19.72,1.33,1.31,2.72,2.21,3.93-.97-.08-1.92-.25-2.9-.25-1.34,0-2.69-.34-4.01-.3-.09,0-.19.1-.19.18,0,.05.02.08.09.08,1.13.04,2.29.36,3.44.42,1.35.08,2.71.31,4.05.35.14,0,.44-.22.3-.38-.82-.96-1.41-2.05-2.04-3.13.52.52,1.02,1.05,1.45,1.66.47.66.8,1.68,1.62,1.89.99.26,2.2.06,3.22.23.86.14,1.73.21,2.6.24.16,0,.32-.15.3-.31,0-.04-.02-.09-.03-.13.14.17.28.34.44.49.98.9,2.44.87,3.68,1.16,1.43.34,2.88.61,4.33.82.75.1,2.02.63,2.75.28.11-.05.18-.15.17-.27,0-.04-.01-.09-.02-.13.11.09.22.17.36.24.66.34,1.54.38,2.26.46,1.03.11,2.11.43,3.14.32.11-.01.26-.1.27-.22.59.53,1.4.56,2.21.65,2.14.23,4.74.72,6.91.38.1-.02.2-.11.23-.2.14-.47-.16-.81-.41-1.2-.12-.19-.25-.39-.38-.58.16.24.33.47.51.69.66.85.79,1.02,1.92,1.12,1.42.13,2.96-.06,4.39-.1.95-.03,2.1.39,3.01.09.14-.05.24-.13.27-.28.07-.35-.11-.74-.38-1.14.05.06.1.11.15.17.66.72.52,1.17,1.58,1.21,1.54.06,3.26-.29,4.77.02.15.03.42-.13.36-.31-.25-.79-.78-1.33-1.26-1.94.71.52,1.44,1.65,1.96,2.03.53.39,1.93.12,2.55.1.17,0,.36-.29.11-.32Z"/>
                <path class="cls-4" d="m113.47,47.9c-.71-.28-1.91.18-2.61.29-.95.15-2.66.81-3.45-.05-.64-.7-1.08-1.56-1.75-2.25-.14-.14-.46.04-.41.24.24.81.75,1.8,1.34,2.41.77.78-2.66.59-3.12.55-1.05-.07-2.88.4-3.81-.04-.54-.26-1.04-1.23-1.34-1.74-.39-.64-1.09-.8-1.4-1.54-.04-.1-.19,0-.18.08.05.49.33.87.64,1.23.37.87.97,1.59,1.41,2.42-.84-.08-1.62-.22-2.49-.15-1.17.1-3.93.2-4.79-.69-.2-.2-.39-.43-.57-.67-.13-.21-.28-.42-.44-.62-.31-.46-.61-.94-.91-1.37-.22-.31-.81-1.43-1.24-1.41-.08,0-.18.16-.06.16.25,0,.7.7,1.11,1.44-.09.05-.17.16-.12.26.32.58.71,1.07,1.1,1.6.26.33.39.7.4,1.12-.44-.03-.84,0-1.28.06-.1.01-.2.02-.3.03-.56-.69-1.04-1.41-1.54-2.13-.21-.31-.48-1.02-.89-1.07-.05,0-.16.08-.09.11.4.19.65.96.86,1.33.33.58.6,1.23,1,1.78-1.21-.02-2.42-.3-3.63-.33-1.74-.04-3.39-.52-5.1-.77-1.18-.18-1.69-2.17-2.31-3.1-.1-.15-.4.05-.35.21.22.78.55,1.54.97,2.24-1.2-.15-2.36-.61-3.52-.9-1.11-.28-2.23-.55-3.33-.84-.72-.19-1.39-.87-1.91-1.4-.46-.47-.65-1.14-1.21-1.51-.12-.08-.37.08-.32.23.22.58,1.45,1.96.3,1.84-1.05-.12-2.11-.23-3.17-.23-1.68,0-2.96-.52-4.15-1.71-.44-.44-1.29-1.06-1.91-1.21-.07-.02-.17.05-.17.12.02.62.47,1.16.77,1.67.09.16.82.87.36.91-.59.05-1.06-.06-1.62-.11-1.51-.12-3.01-.1-4.52-.27-.38-.04-.53.16-.83.27-.07.02-.08.15,0,.12,1.17-.36,2.99.17,4.25.22.93.03,2.61.63,3.45-.06.07-.06.16-.15.13-.25-.14-.43-.65-.7-.9-1.06-.21-.31-.47-.57-.66-.89-.04-.06.99.45,1.07.52.64.52,1.19,1.12,1.84,1.62.62.48,1.57.49,2.33.49,1.02,0,2.06.05,3.08.16.44.05,1.06.26,1.5.06.21-.1.25-.29.21-.52.03.03.07.07.1.1.62.52.95,1.06,1.76,1.21,2.47.47,4.89,1.68,7.41,1.83.05,0,.1-.02.15-.05.09.18.21.34.35.43.4.25,1.03.17,1.48.25.89.16,1.76.39,2.65.53,2.52.38,5.53.89,8.05.41.09-.02.22-.12.22-.23.18.14.37.25.61.32,1.02.31,2.52.18,3.59.19,1.18.01,2.31.05,3.49.1.16,0,.33-.17.26-.33-.02-.05-.05-.1-.07-.15.23.14.49.23.78.25.56.04,1.18-.14,1.74-.17.86-.04,1.71.02,2.57.05.86.03,2.1-.02,2.85-.47.07-.04.13-.14.11-.23-.01-.06-.03-.11-.05-.15.29.22.61.34.96.28.97-.15,2.06-.22,3.01-.46.57-.14,1.44-.53,2.02-.32.17.06.41-.24.2-.32Z"/>
                <path class="cls-4" d="m119.65,53.67c.06-.42-2.9.21-3.04.23-1.11.2-1.54-.18-2.19-.96-.4-.48-.85-.89-1.35-1.27-.14-.11-.4.12-.31.27.24.44.5.82.8,1.22.63.84.11.94-.8,1.01-1.23.1-2.72.22-3.94.08-1.42-.16-1.88-2.03-2.99-2.71-.11-.07-.33.09-.25.22.41.63,1.17,1.65,1.38,2.44-.97.07-1.96-.03-2.94.07-1.47.15-2.99.14-4.47.11-.81-.02-2.87.59-3.3-.28-.51-1.05-1.58-1.78-2.19-2.77-.09-.15-.38.07-.3.22.17.37.37.72.58,1.07.14.3.3.59.48.87.33.56.95.91-.05.91-1.55,0-3.09-.07-4.64-.13-.68-.03-1.34-.11-2.02-.15-.99-.06-1.3-.11-1.9-.89-.75-.96-1.68-1.73-2.43-2.69-.06-.07-.22.03-.19.11.47,1.05,1.08,1.99,1.75,2.92.48.67-1.37.31-1.6.3-.9-.06-1.81-.03-2.71-.03-.71,0-1.42-.14-2.13-.18-.68-.04-1.36.12-2.05.12-.62,0-1.21.06-1.71-.35-.65-.54-1.31-1.15-1.77-1.87-.08-.13-.34.05-.29.17.12.32,1.15,1.84.66,1.79-1.32-.13-2.66-.12-3.99-.07-1.29.05-1.74-1.23-2.57-1.99-.67-.61-1.38-1.7-2.24-2.03-.15-.06-.4.14-.35.3.17.52.58.89.88,1.33.6.86,1.12,1.8,1.88,2.52.47.45-1.44.18-1.31.2-.51-.05-1.08-.09-1.59,0-.5.09-2.51.55-2.29.16.11-.2-.17-.2-.26-.06l-.09.08c-.05.04-.15.19-.05.23,1.09.47,1.96.03,3.11-.02,1.1-.05,2.03.35,3.07-.06.1-.04.25-.19.2-.31-.51-1.21-1.79-2.15-2.58-3.28.2.22.39.44.56.61.67.66,1.3,1.3,1.93,2,.84.94,1.7.67,2.93.65.96-.01,1.95-.06,2.9.14.13.03.42.07.53-.08.14-.17.13-.38.06-.6.25.22.5.43.77.65.61.49,1.79.16,2.48.1,1.42-.13,2.88.14,4.31.14,1.13,0,2.54.36,3.64.12.09-.02.16-.1.18-.19.09-.49-.27-.79-.55-1.16-.51-.66-1-1.44-1.5-2.02.54.62,1.13,1.2,1.66,1.83.29.35.79,1.42,1.23,1.55,1.48.45,3.28.43,4.82.46,1.04.02,2.08.06,3.13.06.51,0,.83.08,1.17-.27.05-.05.09-.13.07-.2-.02-.05-.04-.1-.06-.15.04.05.08.11.11.16.57.86,1.51.53,2.51.43,2.87-.29,5.85.14,8.71-.21.15-.02.3-.13.28-.29-.01-.11-.04-.22-.07-.34.14.19.28.35.41.42,1.08.56,2.65.19,3.81.21.59,0,2.61.21,3.02-.46.09-.14.07-.33-.02-.53.15.19.28.4.37.6.12.27.4.2.64.19,1.32-.03,2.93-.31,4.23-.52.1-.02.18-.11.2-.21,0-.02,0-.04,0-.06.03-.23-.35-.08-.37.09Z"/>
                <path class="cls-4" d="m127.58,59.86c-.8-.35-1.34-1.31-1.93-1.92-.13-.14-.46.08-.34.25.38.51.79,1.12,1.3,1.56-.72-.1-1.41-.25-2.17-.22-1.29.05-2.56.12-3.85.23-.46.04-.91,0-1.37-.03-.89-.06-1.11-.75-1.57-1.3-.51-.6-.85-1.56-1.55-1.97-.09-.05-.25.06-.22.16.33,1.04.72,1.98,1.3,2.92.58.33.5.41-.24.23-.35-.04-.63-.05-.98-.04-.8.03-1.58.13-2.39.12-.6-.01-1.4.3-1.87-.18-.53-.54-1.02-1.12-1.48-1.71-.83-1.06-1.8-2.14-2.83-3-.09-.07-.29.1-.21.18.39.39.75.8,1.09,1.24,0,.03,0,.07.03.1.18.2.36.42.54.64.22.29.43.59.65.89.32.46.61.94.86,1.4.27.49-.24.29-.66.27-.69-.04-1.41-.03-2.1-.05-.68-.02-1.36-.02-2.04.04-.68.06-.93-.86-1.19-1.28-.33-.54-.73-1.52-1.4-1.68-.12-.03-.31.08-.3.22.04.66.41,1.11.76,1.66.03.05.63,1.21.55,1.2-.53-.02-1.06,0-1.58.03-.49.02-.93.04-1.43,0-.58.04-1.09-.17-1.53-.62,0-.14-.04-.28-.1-.41-.62-.81-1.26-1.66-1.95-2.41-.11-.13-.39.04-.34.2.35,1.22,1.1,2.09,1.74,3.13-.81.15-1.66,0-2.47-.01-1.28-.03-2.58.04-3.86.04-1.41,0-1.94-.27-2.71-1.34-.64-.89-1.05-1.88-1.8-2.71-.14-.15-.48.08-.36.26.22.34,1.9,3.45,1.72,3.49-1.74.37-3.79-.3-5.57-.23-.66.02-1.74.39-2.35.12-.82-.35-1.39-1.68-1.91-2.35-.39-.5-1.16-1.91-1.83-2.08-.13-.03-.32.11-.29.25.2.77.92,1.49,1.26,2.24.38.85.91,1.58,1.35,2.38-1.41,0-2.86.03-4.24.2-1.98.25-2.94-2.11-4.21-3.27-.1-.09-.26.08-.28.17-.11.54.82,2.79,1.27,2.79-1.22,0-2.84.12-4.01.56-.13.05-.15.28.02.23,1.21-.36,2.88-.36,4.14-.35.14,0,.25-.11.31-.23.03-.07.07-.14.1-.22.04-.07,0-.14-.05-.19-.4-.36-.66-.92-.92-1.39-.59-1.08-.1-.38.34.17.39.48.79.94,1.16,1.43.08.11.3.59.52.63.94.18,1.96-.03,2.91-.05,1.08-.01,2.15-.12,3.23-.12.15,0,.33-.17.25-.32-.48-.9-1.11-1.66-1.52-2.6-.05-.1-.1-.21-.16-.31.32.4.66.79.94,1.22.48.72,1.02,1.74,2.03,1.7,1.46-.05,2.75-.3,4.23-.17,1.19.11,2.49.35,3.68.1.1-.02.25-.15.21-.27,0-.03-.02-.06-.03-.08.39.37.84.62,1.42.66,1.44.08,2.88.08,4.32.01,1.15-.05,2.36.25,3.47-.09.07-.02.15-.08.19-.15.09.09.19.16.32.19.85.18,1.81.2,2.68.12.66-.06,1.36.09,2.01-.05.09-.02.21-.11.21-.22,0-.22-.07-.47-.18-.73.12.27.26.54.44.66.92.56,2.45.09,3.49.25.75.12,1.83.13,2.58-.01.08-.02.15-.08.18-.15.15.16.3.33.46.48.39.38,1.96-.01,2.46,0,1.2.02,2.41-.11,3.6-.15.14,0,.29-.13.27-.28-.04-.27-.18-.48-.35-.69-.58-.77-1.08-1.65-1.27-2.6.13.61.58,1.12.93,1.64.29.43.66,1.13,1.04,1.48.81.76,2.75.35,3.74.23.88-.1,1.96-.07,2.86-.1.86-.04,1.72.26,2.58.33h0s.03,0,.05,0c.13,0,.41-.26.22-.34Zm-29.34-1.82c.1.12.2.24.3.36.12.13.2.33.29.56-.2-.31-.4-.61-.59-.92Z"/>
              </g>
              <g>
                <path class="cls-3" d="m121.7,65.29c-.07-.04-.21.08-.13.14.33.21-.05,2.18-.08,2.55-.15,1.8-.29,3.6-.4,5.41-.25,3.94-.48,7.88-.78,11.82-.3,3.88-.44,7.77-.65,11.66-.1,1.83-.16,3.66-.19,5.5-.03,1.67.21,3.48-.01,5.13-.02.18.26.07.3-.04.45-1.41.16-3.22.2-4.69.06-2.01.12-4.02.23-6.03.24-4.25.4-8.5.72-12.75.31-4.15.47-8.29.69-12.44.08-1.45.18-2.89.24-4.34.01-.3.21-1.73-.14-1.92Z"/>
                <g class="cls-1">
                  <path class="cls-4" d="m76.97,64.62c-.52,3.35-.62,6.76-.89,10.15-.3,3.65-.71,7.29-.84,10.95-.12,3.51-.09,7.03-.18,10.55-.09,3.37-.44,6.85-.03,10.2.02.16.31.02.31-.11-.14-3.41.07-6.82.23-10.22.16-3.53.22-7.05.32-10.58.1-3.46.51-6.92.76-10.37.26-3.54.28-7.08.51-10.61,0-.11-.17-.04-.18.04Z"/>
                  <path class="cls-4" d="m83.91,64.99c-.04-.08-.21.03-.18.11.17.52-.04,1.25-.11,1.77-.13.93-.15,1.87-.19,2.8-.08,1.76-.1,3.51-.14,5.27-.09,3.56-.4,7.11-.49,10.67-.17,7.19-.7,14.5-.08,21.68.01.14.26,0,.27-.09.31-3.73.03-7.51.13-11.24.1-3.69.26-7.38.34-11.07.07-3.55.42-7.08.44-10.63.02-1.96,0-3.92.04-5.88.02-.97.41-2.47-.02-3.38Z"/>
                  <path class="cls-4" d="m92.12,65.16c-.47,3.09-.35,6.21-.47,9.34-.14,3.55-.2,7.1-.24,10.66-.07,7.31-.11,14.66-.35,21.97,0,.26.4.09.41-.1.25-3.54.08-7.11.15-10.65.07-3.58.18-7.15.22-10.73.09-6.86.43-13.71.52-20.55,0-.16-.23-.05-.25.06Z"/>
                  <path class="cls-4" d="m99.34,64.86c-.73,7.4-.91,14.86-.98,22.3-.04,3.66-.02,7.32-.07,10.98-.04,3.09-.33,6.39.22,9.46.03.14.25,0,.26-.09.15-1.34-.03-2.74-.04-4.09-.01-1.8.1-3.61.13-5.42.06-3.66.09-7.33.13-10.99.07-7.41.41-14.8.61-22.2,0-.16-.24-.05-.25.06Z"/>
                  <path class="cls-4" d="m106.7,64.81c-.08-.07-.28.09-.2.18.19.21-.1,1.4-.13,1.7-.09.94-.18,1.88-.28,2.81-.19,1.91-.29,3.82-.35,5.74-.12,3.76-.06,7.52-.16,11.29-.1,3.51-.18,7.01-.3,10.52-.06,1.86-.23,3.69-.44,5.53-.2,1.71.16,3.44-.11,5.15-.04.25.39.12.44-.06.35-1.52.19-3.11.2-4.66.01-1.85.45-3.69.49-5.55.08-3.89.27-7.79.41-11.68.14-3.95.09-7.9.17-11.85.04-1.9.16-3.79.25-5.68.03-.66.52-3.01.03-3.45Z"/>
                  <path class="cls-4" d="m114.55,65.34s-.06-.04-.08-.04c-.03,0-.05,0-.08,0-.09,0-.28.22-.12.24,0,0-.23,9.1-.22,9.95.04,3.49-.05,6.99-.1,10.49-.11,7.12-.71,14.31-.25,21.42,0,.15.23.05.24-.06.42-7.33.46-14.73.59-22.07.06-3.5.16-7.01.1-10.51-.03-1.91-.03-3.81.02-5.72.03-1.11.38-2.67-.1-3.71Z"/>
                  <path class="cls-4" d="m72.44,74.32c-.07-.05-.18,0-.23.06-.34.37-.35.93-.42,1.4-.1.62-.19,1.25-.26,1.88-.02.23.08.33.14.36-.02,0-.04-.01-.07-.02-.04,0-.12.04-.09.09,0,.02.02.04.03.06-.01.12.19.05.2-.05.1-.99.21-2.05.47-3.02.09-.34.16.46.16.3,0,.46.09.95.1,1.42.02.89.06,1.76-.04,2.64-.05.42-.07.85-.12,1.27-.23,1.91-.18.14-.14-.21.01-.1-.15-.03-.16.04-.07.46-.18.94-.06,1.4.03.13.22.04.26-.04.7-1.23.65-2.83.65-4.21,0-.73.21-2.86-.43-3.39Z"/>
                  <path class="cls-4" d="m73.73,73.94c-.04-1.12,0-2.51-.4-3.56-.02-.06-.06-.08-.12-.08h-.14c-.1,0-.18.07-.22.16-.32.69-.56,1.39-.83,2.11-.04.11.14.07.17,0,.28-.65.49-1.32.88-1.92-.2.31.06,1.1.09,1.45.21,1.91.08,3.78,0,5.68-.08,2.12-.04,4.1-.54,6.18-.26,1.09-.71,2.12-1.08,3.17,0-.18,0-.36,0-.54,0-.17-.25-.06-.27.07-.07.61-.15,1.21-.15,1.82,0,.25.37.11.41-.05.35-1.33.96-2.6,1.38-3.91.55-1.68.68-3.41.69-5.17,0-1.8.17-3.61.11-5.41Z"/>
                  <path class="cls-4" d="m74.81,66.09c0-.11-.17-.04-.17.04-.14,3.04-.35,6.03-.33,9.07.02,3.06-.21,6.3-.61,9.33-.38,2.93-.92,5.85-1.31,8.78-.44,3.25-1.01,6.53-.88,9.82,0,.17.26.06.27-.07.31-6.11,1.44-12.09,2.41-18.12.49-3.03.6-6.26.65-9.33.05-3.15.06-6.37-.03-9.52Z"/>
                  <path class="cls-4" d="m72.94,101.82c.04-2.22.55-4.53.46-6.72,0-.12-.19-.04-.19.05,0,.96-.29,1.99-.4,2.95-.15,1.27-.22,2.55-.28,3.83-.1,2.09-.33,4.43.02,6.5.03.18.3,0,.31-.11.32-2.09.04-4.37.08-6.49Z"/>
                  <path class="cls-4" d="m76,98.81c-.02-.16-.28,0-.3.1-.17,1.71.08,3.45.1,5.17.01.91.03,1.82.09,2.73.03.51.17,1.81.36,1.96-.03-.02-.09.03-.06.06.02.03.05.05.07.08.03.04.09-.01.09-.05-.45-3.32.01-6.71-.35-10.05Z"/>
                  <path class="cls-4" d="m77.77,65.55c0-.13-.21-.05-.22.05-.24,2.86-.3,5.55-.05,8.41.3,3.37.24,6.77.03,10.14-.19,3.11-.48,6.22-.66,9.34-.18,3.23-.07,6.46,0,9.7,0,.15.23.05.23-.06.13-6.41.63-12.74,1.04-19.13.41-6.19-.68-12.28-.38-18.46Z"/>
                  <path class="cls-4" d="m78.91,100.56c-.02-.25-.4-.09-.4.1-.02,1.36-.04,2.71-.05,4.06,0,.55,0,1.09.02,1.64,0,.29-.05,1.71.09,1.93-.05-.08-.22.04-.17.12.04.07.04.08.11.1.05.01.11-.02.14-.07.41-.77.15-1.84.16-2.69.02-1.73.24-3.47.11-5.2Z"/>
                  <path class="cls-4" d="m82.2,64.88c.02-.12-.19-.06-.21.03-.82,3.01-.84,6.37-.87,9.47-.03,3.35-.2,6.69-.21,10.03,0,.16.25.06.26-.06.27-3.2.59-6.34.55-9.55-.04-3.23-.17-6.74.48-9.91Z"/>
                  <path class="cls-4" d="m80.42,98.03c.04-2.94.05-5.89-.26-8.81-.01-.1-.19-.01-.19.07.12,5.91-.43,11.87-.06,17.78.02.3.46.11.47-.12.18-2.96,0-5.95.04-8.92Z"/>
                  <path class="cls-4" d="m86.81,64.58s-.1,0-.1.04c.07,1.01-.16,2.14-.23,3.16-.11,1.5-.28,2.99-.38,4.48-.23,3.26-.47,6.56-.47,9.83,0,.21.3.07.32-.08.42-3.26.45-6.58.62-9.87.08-1.49.21-2.97.26-4.45.03-.95.2-2.17-.02-3.11Z"/>
                  <path class="cls-4" d="m93.83,65.52c-.04-.08-.17.03-.16.1.05.38-.17,1.03-.23,1.44-.09.59-.19,1.18-.27,1.77-.16,1.15-.25,2.29-.04,3.44.04.2.33,0,.35-.12.19-1.27.11-2.59.24-3.87.07-.74.49-2.06.11-2.75Z"/>
                  <path class="cls-4" d="m95.84,75.07c-.17-2.23-.63-4.49-.11-6.71.04-.15-.18-.1-.21,0-.59,1.78-.55,3.5-.31,5.34.26,2,.03,4.04.26,6.04.53,4.65-.2,9.46-.33,14.11,0,.05.07.02.08-.02.28-4.25.54-8.48.76-12.73.1-1.99.02-4.05-.14-6.04Z"/>
                  <path class="cls-4" d="m94.79,101.31c-.05-1.35.05-2.76-.29-4.09,0,0-.01,0-.01,0-.1,2.9-.18,5.8-.07,8.7.01.29.45.1.46-.11.05-1.51-.04-3-.09-4.51Z"/>
                  <path class="cls-4" d="m102,66.13c-.23,1.1-.22,2.29-.27,3.41-.07,1.4-.43,2.8-.42,4.2,0,.22.33.1.37-.05.63-2.53.31-5.06.52-7.61,0-.12-.17-.03-.19.05Z"/>
                  <path class="cls-4" d="m104.11,66.8c-.87,5.72-.94,11.49-1.04,17.26-.05,2.9-.02,5.81-.02,8.71,0,3.2-.4,6.39-.26,9.59,0,.17.27.06.27-.07.3-5.95.61-11.9.62-17.86,0-5.91.2-11.8.61-17.69,0-.12-.17-.04-.18.04Z"/>
                  <path class="cls-4" d="m109.53,66.3s0,0,0,0c0-.16-.28-.09-.29.07-.06.66-.14,1.32-.17,1.98-.03.57-.21,1.12-.12,1.69.04.25.4-.01.43-.16.25-1.16.23-2.41.15-3.59Z"/>
                  <path class="cls-4" d="m112.69,85.2c-.05-3.27-.37-6.51-.44-9.77-.04-1.66-.08-3.32-.03-4.98.04-1.46.34-2.89.22-4.36,0-.05-.08,0-.09.03-.44,3.19-.69,6.24-.72,9.46-.03,3.25.43,6.51.46,9.77.03,2.99.03,5.95-.11,8.93-.14,3.03-.3,6.18-.15,9.21,0,.14.21.05.22-.05.22-2.96.23-5.92.38-8.88.15-3.12.31-6.23.27-9.36Z"/>
                  <path class="cls-4" d="m111.22,95.15c-.02-.12-.23-.01-.22.08.04.63-.17,1.26-.22,1.9-.09,1.12-.09,2.25-.16,3.37-.13,2.03-.4,4.33-.09,6.34.02.16.26,0,.27-.1.33-2.08.17-4.25.27-6.36.06-1.12.1-2.23.07-3.35-.01-.63.18-1.26.08-1.89Z"/>
                  <path class="cls-4" d="m115.38,93.51c-.32-5.18.35-10.48-.51-15.63-.01-.08-.16,0-.15.05.4,5.23.11,10.49.11,15.71,0,1.11.21,2.2.21,3.32,0,1.22-.02,2.43-.02,3.65,0,1.29-.06,2.58-.11,3.87-.03.62-.22,2.76.05,2.96-.08-.06-.26.08-.2.17.02.03.04.06.06.08.07.09.22,0,.25-.09.54-2.24.53-4.84.55-7.14.02-2.35-.1-4.62-.24-6.95Z"/>
                  <path class="cls-4" d="m117.21,91.01c-.18-2.02.02-4.07.01-6.09,0-2.26-.1-4.51,0-6.77.17-4.18-.06-8.34.03-12.51,0-.15-.22-.05-.23.06-.39,4.35-.24,8.75-.48,13.12-.13,2.28,0,4.58.04,6.87.04,1.96-.21,4.1.28,6.02.06.22.4.01.41-.15,0-.14.02-.29.02-.44,0-.06-.03-.09-.07-.1Z"/>
                  <path class="cls-4" d="m119.92,65.93c0-.1-.16-.04-.17.04-.27,3.44-.21,6.89-.61,10.33-.19,1.59-.23,3.17-.34,4.76-.11,1.66-.01,3.47-.33,5.08-.04.2.28.05.32-.04.55-1.16.41-2.78.51-4.05.13-1.79.16-3.57.32-5.36.32-3.6.33-7.15.3-10.75Z"/>
                  <path class="cls-4" d="m118.41,74.51c0-.09-.15-.03-.15.04-.02,1.01-.09,2.02-.16,3.03-.01.2.31.08.32-.08.07-1,.01-1.99,0-2.99Z"/>
                  <path class="cls-4" d="m118.4,91.55c-.31,5.1-1.12,10.29-.75,15.41.01.2.3.07.31-.08.19-2.58.35-5.18.41-7.77.05-2.55.39-5.1.35-7.65,0-.2-.31-.07-.32.08Z"/>
                  <path class="cls-4" d="m123.63,66.57c-.22,2.99-.96,5.94-1.41,8.9-.03.2.3.06.33-.08.6-2.85,1.22-5.92,1.15-8.84,0-.05-.07-.02-.07.02Z"/>
                </g>
              </g>
              <g>
                <path class="cls-5" d="m97.94,42.56c-.19-.72-.51-1.41-.72-2.13.06-.07.1-.16.07-.25-.37-1.06-.42-2.72-.48-3.85-.06-1.21-.22-2.43-.34-3.64-.33-3.29-.35-6.63-.52-9.93-.15-3.08-.13-6.19-.13-9.27,0-2.66.28-5.32.15-7.97.19.08.38.15.59.21.15.05.37-.07.44-.21.22-.44.3-1.25.27-1.71-.04-.65-.74-.73-1.25-1.02-1.03-.6-2.34-.94-3.43-1.43-.68-.31-1.46-.64-2.22-.74-.03-.1-.14-.11-.23-.09-2.31.37-4.57,1.25-6.86,1.76-1.96.43-1.76.65-1.47,2.56.02.13.18.15.28.12.27-.07.54-.14.82-.21.01.02.03.03.06.03-.2,3.58-.59,7.14-.78,10.72-.21,3.98-.55,8.11-1.52,11.98-.37,1.5-1.11,3.08-1.29,4.61-.02.14.13.3.25.34.94.34,1.88,1.84,2.56,2.56,2.55,2.72,4.91,5.61,7.33,8.44.03.04.07.05.12.06.02.01.03.02.06.03,0,0,0,0,0,0-.02.27.31.19.47.02,1.21,0,2.44-.2,3.64-.25,1.2-.06,2.48-.06,3.67-.21.22-.03.54-.22.47-.49Z"/>
                <path class="cls-7" d="m91.71,1.63c.85.38,1.69.8,2.55,1.18.57.25,1.17.5,1.76.69.59.19.77.85.63,1.44-.05-.06-.13-.08-.21-.06-.17-.11-.34-.22-.51-.31,0-.06-.05-.07-.1-.06-.82-.4-1.69-.59-2.6-.9-.89-.31-1.85-.82-2.79-1.03,0-.5.06-1.02.02-1.52,0,0,0,0,0,0,.39.21.87.38,1.26.56Z"/>
                <path class="cls-7" d="m82.75,4.41c-.22.01-.31-.06-.4-.52-.07-.35-.32-.75.12-.89,1.17-.38,2.38-.6,3.55-.97,1.21-.38,2.44-.68,3.67-.98.4-.1.2.71.2,1.05,0,.15,0,.3.02.44-.59.04-1.43.43-1.89.57-1.65.5-3.28,1-5.01,1.12-.1,0-.21.1-.27.19Z"/>
                <path class="cls-7" d="m89.66,24.46c.11,3.44-.13,6.88-.02,10.33.09,2.66.26,5.29.1,7.94-2.21-2.58-4.42-5.17-6.62-7.76-.6-.71-1.25-1.39-1.88-2.08-.32-.35-.54-.8-1.02-.98-.23-.08,1.32-5.5,1.44-6.06.74-3.4.9-7.04,1.13-10.51.23-3.5.68-7.15.54-10.66,2.15,0,4.34-.97,6.41-1.47.09-.02.19-.02.3-.01,0,.03.03.05.08.05-.36-.02-.52,19.49-.46,21.22Z"/>
                <path class="cls-7" d="m90.27,42.93c.2-2.61,0-5.16-.01-7.79-.02-3.6.15-7.24.05-10.84-.2-7.01.32-14.06.08-21.06.58.13,1.28.45,1.68.61,1.15.46,2.38.71,3.48,1.28-.04.07-.04.14.03.19-.52,6.01-.62,12.11-.3,18.12.16,3.01.21,6.05.48,9.05.13,1.49.33,2.98.42,4.47.06.99.13,2.35.43,3.33-.08.14-.06.29.13.31,0,.01,0,.02,0,.03.08.62.29,1.22.41,1.83-2.25.25-4.62.36-6.88.47Z"/>
              </g>
              <g>
                <path class="cls-5" d="m111.11,73.44c.15-.52.29-1.07.21-1.38-.07-.27-.52-.32-.71-.31-2.48.1-4.99.13-7.47.15-2.69.02-5.36.1-8.05.1-1.28,0-2.55.13-3.84.16-1.17.02-2.22-.04-3.37.23-.06.01-.16.09-.13.17.16.37.36,1.58.09,1.96-.03.05.04.06.06.03.02-.02.03-.04.04-.07-.35,5.08-.62,10.17-.75,15.26-.08,3.01-.16,6.03-.29,9.04-.12,2.74-.31,5.76.01,8.47,0,.07.06.1.12.1-.04.06-.05.13.03.14,1.57.26,3.19.16,4.77.16,2,0,4,0,5.99,0,4,0,8.02.12,12.01-.06.17,0,.36-.25.29-.36.05-.05.08-.11.08-.18-.14-1.43.03-2.95.04-4.4,0-1.53.02-3.06.1-4.59.16-2.98.21-5.98.29-8.96.08-2.89.11-5.81.34-8.7.11-1.4.15-2.81.13-4.21,0-.91.06-1.84,0-2.75Z"/>
                <path class="cls-7" d="m98.62,107.1c-3.15,0-6.47-.27-9.65-.03-.16-5.39.15-10.9.45-16.29.14-2.55.09-5.1.21-7.65.14-2.78.65-5.56.54-8.35,0-.03.01-.06.02-.09.16-.57.85-.3,1.3-.25.89.1,1.91.08,2.81.06,1.63-.05,3.25-.01,4.88-.11,1.77-.1,3.57.08,5.35.03,1.12-.04,2.3-.09,3.41-.03,1.2.07,1.11.29,1.18,1.43,0,.03.02.05.04.06-.02,2.32-.33,4.68-.46,6.97-.15,2.76-.16,5.53-.3,8.29-.27,5.3-.51,10.63-.51,15.94,0,0,0,0,0,.01-3.09-.07-6.18,0-9.27,0Z"/>
                <path class="cls-7" d="m110.05,89.74c-.08,3.01-.16,6.03-.29,9.04-.12,2.71-.3,5.69,0,8.38-.5-.02-.99-.04-1.49-.05.04-.04.06-.08.06-.13,0-5.32.49-10.62.5-15.94,0-2.76.13-5.54.3-8.29.14-2.34.43-4.84.24-7.23.09-.42.19-.84.21-1.27,0-.05-.02-.1-.06-.13-.42-.26-.95-.13-1.43-.16-.96-.05-1.94.04-2.91.03-1.8-.02-3.61-.03-5.41-.06-1.5-.03-3.01.11-4.51.11-1.56,0-3.58-.36-5.08.08-.09.03-.16.09-.17.18-.06.39-.07.78-.08,1.16-.73,4.95-.77,10-.94,14.99-.09,2.64-.13,5.27-.28,7.91-.16,2.88-.33,5.87-.16,8.76-.43.04-.86.09-1.29.15.06-.06.11-.13.1-.2-.14-1.43.03-2.95.04-4.4,0-1.53.02-3.06.1-4.59.16-2.98.21-5.98.29-8.96.08-2.89.11-5.81.34-8.7.11-1.4.15-2.81.13-4.21-.01-1.15.1-2.33-.08-3.47.33-.48,1.19-.24,1.94-.22,2.64.07,5.28-.1,7.93-.04,2.59.06,5.28-.04,7.88-.16,1.34-.06,2.7.02,4.05.02,1.19,0,.68.16.63.98-.02.4,0,.8.04,1.2,0,.09.12.04.17-.02-.35,5.08-.62,10.17-.76,15.26Z"/>
                <path class="cls-5" d="m94.48,89.79c-.45-1.11-1.53-1.32-2.6-1.29-1.15.04-1.85.78-2.14,1.84-.27.97-.04,2.32.88,2.86.59.35,1.79.2,2.43-.17.15-.05.3-.12.44-.21,1.01-.66,1.45-1.9.99-3.03Z"/>
                <path class="cls-7" d="m90.23,92.03c-.26-.68-.2-1.48.05-2.15.24-.66.92-.99,1.62-1.04-.23.09-.47.25-.72.51-.86.87-.94,1.78-.35,2.82.23.4.6.7,1.01.84-.68.02-1.31-.2-1.61-.98Z"/>
                <path class="cls-7" d="m91.39,92.06c-.64-.86-.65-1.72.08-2.53.47-.52.9-.58,1.41-.58.09.03.18.06.26.1.79.39,1.15,1.11,1.11,1.98-.06,1.43-1.94,2.26-2.86,1.03Z"/>
              </g>
              <g>
                <path class="cls-3" d="m54.98,52.96c-2.57.24-5.25.08-7.84.16-3,.09-6.04.16-9.04.38-3.14.24-6.26.58-9.39.97-1.54.19-3.11.27-4.66.3-1.52.03-3.29.57-4.77.36-.06,0-.17.1-.08.13,1.15.38,2.44-.07,3.63-.07,1.56,0,3.11-.05,4.67-.13,3.28-.18,6.55-.71,9.83-.96,3.21-.25,6.44-.12,9.65-.53,2.61-.34,5.4.07,7.97-.49.05-.01.11-.13.03-.12Z"/>
                <path class="cls-3" d="m49.64,46.88c-1.75-.08-3.6.04-5.33.26-2.11.27-4.38.18-6.52.22-1.19.02-13.53.37-13.5.67,0-.09-.16,0-.17.06,0,.03,0,.05,0,.08,0,.04.03.06.06.06,2.11.16,4.24-.09,6.35-.24,2.16-.16,4.36,0,6.53-.07,2.18-.06,4.36-.11,6.54-.23,2-.11,4.01-.5,6.01-.69.06,0,.13-.11.04-.11Z"/>
                <path class="cls-3" d="m46.75,40.68c-3.39-.42-6.8.73-10.19.64-1.81-.05-3.61.3-5.42.43-1.34.1-3.17.94-4.47.45-.07-.03-.19.11-.11.14.73.33,1.89.18,2.66.07,2.01-.28,4.09-.5,6.12-.59.89-.04,1.78.04,2.67.01.94-.03,1.86-.26,2.79-.33,1.95-.15,3.92-.39,5.86-.65.07,0,.23-.17.09-.19Z"/>
                <path class="cls-3" d="m40.88,33.76c-1.48-.33-3.03-.06-4.53.14-1.02.14-2.02.34-3.03.53-.41.08-2.77.6-3.25.16-.06-.06-.21.06-.18.13.29.74,2.9.22,3.39.14,2.47-.4,4.99-.81,7.5-.92.08,0,.22-.16.09-.19Z"/>
                <path class="cls-3" d="m36.68,28.26c-.39.01-4.09.12-4.05.52,0,0,0,.02,0,.03,0,.05.06.06.1.06.49.04,1.14.07,1.62,0,.76-.11,1.6.08,2.31-.28.12-.06.27-.34.02-.33Z"/>
              </g>
              <g>
                <path class="cls-4" d="m24.62,82.78c-.39-3.93-1.09-7.84-1.55-11.76-.22-1.91-.4-3.82-.7-5.72-.14-.89-.36-1.77-.52-2.66-.11-.62-.17-1.5-.57-2-.05-.07-.18.03-.15.1.3.55.3,1.45.39,2.04.13.9.29,1.8.42,2.7.27,1.92.33,3.86.56,5.78.48,3.93,1.08,7.84,1.55,11.77.47,3.98.77,7.98,1.3,11.96.49,3.73.87,7.64,1.78,11.29.03.11.21,0,.19-.09-1.52-7.71-1.92-15.63-2.7-23.43Z"/>
                <path class="cls-4" d="m30.89,84.32c-.26-4.18-.67-8.36-.84-12.54-.07-1.88-.27-3.75-.46-5.62-.2-1.99-.3-4.1-.84-6.04-.03-.11-.22-.01-.21.08.55,8.27,1.25,16.53,1.81,24.81.54,8.01,2.48,15.9,3.35,23.87.02.15.29,0,.28-.13-.7-8.17-2.58-16.24-3.08-24.42Z"/>
                <path class="cls-4" d="m40.04,83.54c-.3-4.29-.57-8.57-.73-12.87-.14-3.69-.2-7.77-1.09-11.38-.02-.1-.2-.01-.19.07.51,8.11.78,16.22,1.42,24.32.33,4.19.79,8.36,1.15,12.54.35,4.09.6,8.2,1.15,12.27.02.14.27.02.27-.1-.32-8.29-1.39-16.58-1.97-24.85Z"/>
                <path class="cls-4" d="m49.72,84.01c-.28-4.31-.44-8.63-.62-12.95-.09-2.14-.16-4.28-.25-6.41-.08-1.84-.43-3.72-.39-5.56,0-.15-.24-.06-.24.06-.1,1.85.15,3.76.21,5.61.08,2.14.13,4.29.21,6.43.16,4.31.3,8.65.57,12.96.5,8.13,1.66,16.27,1.71,24.42,0,.25.41.1.41-.1.05-8.15-1.08-16.31-1.61-24.44Z"/>
                <path class="cls-4" d="m57.58,84.53c-.09-4.47-.07-8.94,0-13.41.03-2.08.1-4.17-.03-6.25-.14-2.13.01-4.2-.05-6.32,0-.18-.27-.06-.28.07-.13,1.99-.4,3.83-.29,5.84.12,2.27.06,4.54.02,6.82-.09,4.47-.09,8.94,0,13.41.09,4.24.41,8.47.48,12.71.06,3.75.06,7.55.38,11.29.02.22.43.03.43-.15-.14-8-.51-16-.67-23.99Z"/>
                <path class="cls-4" d="m60.04,74.84c.06-2.47-.14-4.86-.33-7.31-.19-2.48-1.83.3-1.63,1.45,0,.04.06,0,.07-.02.08-.51.34-1.05.54-1.52.53-1.26.65.47.66.56.27,2.12.29,4.23.27,6.37,0,.92-.06,1.85-.08,2.77-.02.28-.04.56-.08.84-.01.08-.23,1.79-.48,1.06-.57-1.67-.39-3.65-.6-5.39-.01-.12-.24-.02-.24.08.08,1.51.19,3.02.34,4.53.04.42.07,1.3.56,1.48.08.03.16-.03.22-.08,1.07-1,.75-3.53.78-4.82Z"/>
                <path class="cls-4" d="m60.95,64.71c0-.76.26-2.42-.65-2.72-.55-.18-1.29,1.26-1.49,1.55-.05.07.06.1.11.05.19-.26.4-.51.62-.74.21-.28.53-.16.95.38.01.7.06,1.4.05,2.11,0,1.41-.04,2.83-.02,4.24.04,3.11-.1,6.2-.12,9.31-.02,3.17-.14,6.33-.32,9.49-.09,1.46-.3,2.89-.5,4.34-.09.72-.14,1.44-.18,2.17-.02.43.06,1.59-.27,1.91-.13.13.04.27.17.16.54-.47.44-1.53.52-2.18.24-1.99.58-3.99.75-5.99.34-4.1.29-8.2.4-12.31.1-3.92,0-7.84-.03-11.76Z"/>
                <path class="cls-4" d="m63.08,63.46c0-.1-.15-.04-.15.04-.1,3.37-.17,6.7-.15,10.08.02,3.4-.28,6.79-.32,10.18-.03,3.27-.63,6.49-.69,9.75-.06,3.35-.16,6.7-.12,10.06,0,.1.16.04.16-.04.08-3.21.25-6.42.42-9.62.17-3.24.63-6.47.72-9.72.19-6.92.13-13.82.14-20.73Z"/>
                <path class="cls-4" d="m62.43,102.84c-.14,1.92-.08,3.79-.04,5.7,0,.2.32.07.32-.08.03-1.91.04-3.81.11-5.72,0-.25-.39-.09-.4.1Z"/>
                <path class="cls-4" d="m54.56,75.45c-.03-2.5.13-4.99.06-7.49-.06-2.46-.26-4.91-.11-7.37,0-.1-.15-.04-.16.04-.26,2.5-.26,4.95-.23,7.45.03,2.5-.12,5-.1,7.5.04,5.47.62,10.95.98,16.41,0,.14.23.05.22-.05-.12-5.5-.6-10.98-.66-16.49Z"/>
                <path class="cls-4" d="m53.11,97.67c-.02-3.27-.34-6.48-.71-9.72,0-.08-.15-.01-.15.05,0,.02,0,.05,0,.07,0,.09.14.03.14-.03-.05.69-.16,1.32-.12,2.05.05.94.15,1.89.21,2.83.1,1.62.11,3.25.11,4.88,0,3.36.14,6.65.29,10,.01.24.39.09.39-.1.06-3.33-.14-6.7-.16-10.03Z"/>
                <path class="cls-4" d="m51.81,60.52c0-.1-.16-.04-.16.04-.16,2.62-.14,5.36.02,7.98.01.18.27.06.28-.07.16-2.66-.19-5.3-.13-7.95Z"/>
                <path class="cls-4" d="m45.77,66.71c-.13-2.14-.4-4.27-.56-6.4,0-.04-.07-.02-.07.02-.16,4.11.21,8.25.45,12.35,0,.14.22.05.22-.05-.05-1.96.07-3.95-.05-5.91Z"/>
                <path class="cls-4" d="m47.68,102.02c-.06-1.88-.17-3.76-.26-5.64-.17-3.67-.52-7.34-.95-10.99-.01-.09-.18-.01-.17.06.53,7.09.9,14.2,1.12,21.3,0,.22.33.07.34-.08.17-1.53-.03-3.11-.08-4.64Z"/>
                <path class="cls-4" d="m44.75,100.37c-.14-1.25-.22-2.51-.38-3.77-.08-.63-.14-1.45-.51-1.99-.1-.14-.33.02-.37.13-.53,1.53-.22,3.64-.14,5.23.1,2.08-.03,4.16.24,6.24.01.1.19.01.19-.07,0-1.91-.07-3.82-.07-5.73,0-1.52-.37-3.51-.02-5.09.2.64.2,1.44.27,2.03.15,1.25.26,2.51.44,3.76.33,2.37.85,4.72,1.13,7.09,0,.02.04,0,.04-.02-.22-2.62-.53-5.21-.83-7.82Z"/>
                <path class="cls-4" d="m31.05,60.17c-.03-.17-.32,0-.3.14.24,2.51-.12,5.12.43,7.6.04.19.35.02.35-.12,0-2.47,0-5.19-.47-7.62Z"/>
                <path class="cls-4" d="m34.74,94.37c-.26-3.73-.36-7.45-.34-11.19.02-3.65-.39-7.21-.73-10.83-.19-2.05-.53-4.09-.68-6.14-.13-1.84-.11-3.69-.22-5.53,0-.07-.12-.03-.12.03-.41,7.59,1.21,15.02,1.22,22.6.02,7.56.67,15.07,1.72,22.54.02.13.25,0,.24-.11-.31-3.79-.82-7.57-1.09-11.37Z"/>
                <path class="cls-4" d="m37.55,101.23c-.09-.46-.16-2.69-.92-2.68-.83.02-.51,1.33-.47,1.78.22,2.67.33,5.38.96,7.99.03.12.21,0,.2-.09-.16-1.84-.39-3.66-.45-5.5-.03-.86-.11-1.73-.17-2.59,0-.14-.21-1.15,0-.5.86,2.67.93,5.58,1.81,8.26.04.14.28.02.27-.1-.13-2.18-.82-4.41-1.23-6.56Z"/>
                <path class="cls-4" d="m38.64,93.71c-.6-3.77-.92-7.58-1.55-11.35-.61-3.68-.65-7.4-1.01-11.1-.36-3.62-.62-7.17-1.2-10.75-.01-.08-.15,0-.14.06,1.04,7.12.62,14.41,1.68,21.53.56,3.75,1.01,7.52,1.6,11.26.3,1.91.7,3.81.99,5.73.31,2.03.51,4.09.98,6.1.04.17.3,0,.29-.13-.45-3.8-1.06-7.57-1.65-11.35Z"/>
                <path class="cls-4" d="m36.98,62.09c-.02-.07-.15,0-.13.06.13.68.21,1.37.34,2.05.02.11.22,0,.2-.09-.15-.67-.25-1.35-.41-2.01Z"/>
                <path class="cls-4" d="m28.52,83.08c-.34-3.6-.66-7.21-1.04-10.81-.19-1.8-.39-3.61-.64-5.4-.27-1.91-.79-3.81-.91-5.74,0-.08-.13-.03-.13.03,0,3.19.68,6.47,1.01,9.64.4,3.79.7,7.58,1.09,11.37.77,7.67,1.74,15.33,2.51,23,.01.12.25.02.24-.09-.55-7.34-1.43-14.68-2.13-22.01Z"/>
                <path class="cls-4" d="m29.23,105.47c-.26-1.88-.71-3.71-1.03-5.57-.63-3.65-1.13-7.33-1.75-10.99-.02-.14-.26-.01-.26.09.11,3.41,1.04,6.79,1.41,10.18.18,1.64.63,3.24.99,4.84.2.88.35,1.78.52,2.67.14.73.53,1.61.46,2.35,0,.06.08.02.1-.01.29-1.02-.3-2.53-.44-3.56Z"/>
                <path class="cls-4" d="m23.16,61.59s0,0,0,0c.16,3.43.52,6.92,1.14,10.29.03.17.3,0,.29-.13-.31-3.38-.72-6.83-1.42-10.16Z"/>
                <path class="cls-4" d="m20.95,78.87c-.36-2.63-.68-5.26-1.15-7.87-.46-2.56-1.23-5.05-1.6-7.63-.01-.08-.16,0-.15.07.22,2.45.81,4.79,1.2,7.21.42,2.63.78,5.27,1.08,7.91.61,5.39,1.78,10.72,2.47,16.1.02.13.27.02.26-.09-.36-5.28-1.39-10.47-2.11-15.7Z"/>
                <path class="cls-4" d="m17.61,66.37c-.02-.1-.2,0-.18.08.49,2.76.77,5.55,1.29,8.3.03.17.34,0,.31-.15-.52-2.74-.88-5.5-1.42-8.24Z"/>
              </g>
              <g>
                <path class="cls-5" d="m50.16,88c.11-1.6.29-3.18.36-4.79.12-2.67.13-5.35-.23-7.99-.32-2.37-1.02-5.11-2.72-6.9-1.81-1.92-4.29-3.07-6.9-3.4-4.81-.61-8.95,3.67-9.98,8-.68,2.83-.58,6.08-.45,8.97.08,1.75.34,3.5.57,5.24.13,1,.22,2.14.45,3.18,0,.06,0,.12,0,.18.03.21-.01.4.08.6-.72.04-1.44.08-2.16.11,0-.04-.02-.07-.08-.07-.02,0-.03,0-.05,0-.05,0-.11.04-.14.09-.06.02-.12.11-.04.13-.88.03-.78,2.53-.11,2.96.66.42,1.34.38,2.11.31,1.42-.12,2.86-.02,4.28-.16,3-.29,6.01-.39,9.02-.53,1.16-.06,2.33-.06,3.49-.17.69-.06,1.34,0,1.8-.53.04-.04.05-.08.05-.11.16-.26.18-.64.19-.96.02-.53.23-1.23.14-1.8h0c.24-.77.27-1.56.33-2.36Z"/>
                <path class="cls-7" d="m47.7,93.37c-1.12.13-2.25.11-3.38.17-1.76.09-3.53.14-5.29.24-1.99.11-3.96.36-5.95.4-.86.02-1.71.06-2.57.07-.9.02-1.6-.04-1.87-1.06-.16-.59-.03-1.38.42-1.83,2.25.24,4.48-.11,6.73-.22,2.14-.11,4.28-.16,6.41-.36,1.62-.15,3.36-.45,5.05-.53.02,0,.04,0,.06,0,.46-.02.91-.02,1.36,0-.8.75-.88,2.18-.04,2.97.05.04.12.02.18,0,0,0,0,0,.01,0,0,0,0,0,0,.01-.34.11-.89.1-1.12.12Z"/>
                <path class="cls-7" d="m41.25,76.45c.06.26.08.52.07.78.24-.02.49-.01.73,0,0,0,.02,0,.03,0,1.68-.07,3.38-.15,5.04-.41.02.12.04.24.06.36.02.15.04.31.06.47-1.63-.08-3.42.18-5.07.4-.24.04-.47.07-.71.11,0,.25,0,.5,0,.75.17,2,.37,4,.54,6,.02.14.03.28.04.42.22-.03.45-.04.68-.01,0,0,0,0,.01,0,1.58-.11,3.17-.22,4.73-.46,0,0,0,0,0,0,0,.37-.01.73-.02,1.1-1.54.1-3.11.43-4.66.49-.22.02-.44.03-.66.08,0,.11,0,.22,0,.33,0,0,.02,0,.02,0,.08,1.11.15,2.22.2,3.33-.07.04-.11.11-.09.16-.34.02-.67.04-1.01.06,0,0,.01-.01.01-.02.37-.89-.05-2.37-.11-3.3,0-.04,0-.08,0-.12-.04-.16-.07-.33-.1-.49-.18.02-.41.04-.62.01-.56.02-1.11.04-1.67.08-.8.06-1.6.07-2.4.12-.46.03-.85.21-1.2.29.04,0,.11-.05.1-.11,0-.01,0-.03-.01-.04-.02-.07-.12-.02-.14.02.02-.07-.06-.05-.13-.03-.03-.22-.06-.45-.09-.67.64-.07,4.76-.56,5.81-.67,0,0,0,0,0,0,.11-.03.23-.05.35-.07-.03-.42-.06-.85-.06-1.27,0-.03,0-.05.02-.07-.05-.97-.1-1.94-.16-2.92-.03-.53-.06-1.07-.1-1.6,0-.01,0-.03,0-.05,0-.13,0-.27-.02-.4,0,0,0,0,0,0-.02-.28-.07-.56-.1-.84-.27.03-.55.05-.82.05-1.78.15-3.58.25-5.3.64,0-.33.02-.67.04-1,1.88-.04,3.79-.47,5.68-.63h0c.12-.02.23-.04.35-.06.02-.17.03-.34.03-.51,0-.04,0-.07,0-.11,0-.07,0-.15-.01-.22,0-.01,0-.02,0-.03-.03-.61-.05-1.23-.05-1.84-.02-1.81.22-4.02-.32-5.79.27-.06.57-.12.85-.16-.11,2.61,0,5.23.18,7.84Z"/>
                <path class="cls-7" d="m41.32,68.62c1.72.52,3.43,1.74,4.24,3.17.86,1.52,1.23,3.03,1.5,4.69-1.76.07-3.51.22-5.26.4-.17-2.75-.35-5.5-.48-8.26Z"/>
                <path class="cls-7" d="m47.28,78.06c.16,1.62.14,3.31.17,4.92,0,.52,0,1.04,0,1.56-1.74.17-3.49.3-5.23.46-.15-1.65-.12-3.31-.22-4.96-.03-.51-.06-1.03-.1-1.54.86-.09,1.72-.16,2.59-.22.88-.05,1.9-.27,2.78-.22Z"/>
                <path class="cls-7" d="m42.43,86.87c1.67-.04,3.33-.5,4.99-.6-.04,1.21-.11,2.42-.26,3.62-.23.03-.46.07-.67.1-1.25.15-2.54.27-3.82.35,0-.02,0-.04,0-.05-.04-1.13-.13-2.27-.25-3.41Z"/>
                <path class="cls-7" d="m34.85,85.86c-.25-2.25-.41-4.53-.36-6.75.68-.16,2.27-.09,2.71-.14,1.02-.12,2.04-.18,3.06-.3.02.53.05,1.06.09,1.59.12,1.62.22,3.25.32,4.88-1.14.11-2.29.22-3.43.35-.78.08-1.64.1-2.39.38Z"/>
                <path class="cls-7" d="m34.55,77.64c.14-2.05.38-4.47,1.64-6.17.93-1.25,1.93-2.2,3.47-2.57.07-.02.18-.04.3-.07.24,2.72.19,5.47.24,8.21-1.88.21-3.77.43-5.65.6Z"/>
                <path class="cls-7" d="m40.58,68.45c-.16.01-.31.03-.46.05,0,0,0,0,0,0-.03-.08-.14-.04-.17.03-.69.11-1.33.32-1.97.68-2.11,1.18-2.87,3.45-3.5,5.59-.28.95-.42,1.99-.47,3.06-.01.03-.01.06,0,.08-.07,1.58.05,3.19.19,4.64.11,1.16.21,2.32.32,3.49,0,.02,0,.04,0,.05.14,1.53.31,3.07.55,4.58.03.21.39.05.41-.11,0-.02,0-.03,0-.05,0-.04,0-.06-.02-.08-.16-1.07-.31-2.17-.45-3.28,1.92.05,3.85-.19,5.77-.26.03.52.07,1.03.11,1.55.04.57.28,1.41.17,1.98,0,0,0,0,0,.01-.26.02-.52.03-.77.04-2.17.11-4.35.29-6.52.45.14-1.82-.27-3.8-.43-5.63-.17-1.94-.23-3.89-.37-5.83-.34-4.62,1.01-11.29,6.85-11.12.27,0,.55.04.83.09-.02,0-.04,0-.05,0Z"/>
                <path class="cls-7" d="m48.92,92.2c-.06.33-.08,1.49-.48-.02-.17-.65.08-1.44.61-1.86.18.3-.09,1.65-.13,1.88Z"/>
                <path class="cls-7" d="m49.75,87.53c-.08.76-.07,1.55-.21,2.31-.03-.02-.06-.02-.11-.01-.57-.12-1.21-.08-1.84,0,.55-4.6.43-9.49-.17-14.06-.57-4.38-3.75-8.04-8.42-7.82-4.23.2-5.91,4.47-6.41,8.06-.32,2.33-.04,4.71.11,7.05.08,1.31.23,2.61.36,3.92.03.35.44,3.91.6,3.91-.03,0-.06.02-.08.05-.67.05-1.35.1-2.02.14.05-.05.09-.11.05-.16-.02-.04-.04-.09-.05-.14.11-1.99-.39-4.14-.6-6.15-.3-2.86-.25-5.66-.14-8.53.12-2.89.72-5.78,2.81-7.91,2.14-2.18,5.19-3.39,8.2-2.55,2.31.64,4.36,1.76,5.85,3.67,1.5,1.91,1.91,4.71,2.27,7.04.37,2.39.19,5.05.09,7.47-.05,1.25-.15,2.47-.28,3.72Z"/>
              </g>
            </g>
          </g>
          <g>
            <path class="cls-6" d="m103.72,92.86c.03-.12-.02-.23-.22-.23-3.26.07-6.5.06-9.76,0-3.31-.05-6.6.01-9.91-.01-3.65-.03-7.3-.16-10.95-.18-3.12-.02-6.73.68-9.77-.17-.06-.02-.13,0-.19.05-.42.04-.83.21-1.25.24-1.42.11-2.83.28-4.24.39-2.75.22-5.46.51-8.22.41-5.53-.2-11.09-.52-16.62-.24-2.62.13-5.21.43-7.82.52-2.81.09-5.66.22-8.46.48-2.71.25-5.44.26-8.16.44-.4.03-1.3-.14-1.58.31-.32.52-.15,1.19.02,1.75-.06,1.05-.1,2.29,1,2.06.34-.07.69-.13,1.03-.19.01.82.21,1.71.38,2.48.36,1.66.55,3.35.92,5.01.34,1.52.63,3.03.93,4.56.17.86.27,2.11.65,2.99-.08.03-.15.07-.22.11-.36.23-.05.96,0,1.25.08.49.17,1.36.3,2.08,0,0,0,.02,0,.03.02.66-.23,1.39.29,1.89.16.15.41.19.67.18.06,1.03.45,1.47,1.55,1.52,1.89.07,3.82-.12,5.71.07,4.18.43,8.47.39,12.67.34,4.15-.05,8.29-.54,12.44-.33,4.12.21,8.27-.14,12.4-.04,8.82.22,17.71-.28,26.53-.77,3.89-.22,7.88-.22,11.74-.74,1.61-.22,3.22-.26,4.83-.42.61-.06.61-.76.89-1.13.04-.06.07-.11.07-.15.31-.04.61-.08.92-.12.2-.03.4-.25.36-.46-.04-.26-.07-.5-.08-.75.1-.07.18-.17.18-.28.02-.81.01-1.61.01-2.42,0-.38.14-1.06-.04-1.42-.14-.31-.46-.43-.85-.47.23-2.64.31-5.38.34-8.02.02-1.37.07-2.73.07-4.09,0-1.02.19-2.15,0-3.16.19-.01.36-.04.5-.11.97-.45.47-2.17.91-3,.06-.11.06-.19.03-.25Zm-85.33,20.25c-1.44.05-2.87.17-4.3.26.05-.79-.39-1.73-.52-2.51-.27-1.6-.67-3.18-.89-4.8-.23-1.63-.51-3.22-.67-4.86-.08-.85-.09-2.19-.52-3.02,1.12-.08,2.24-.11,3.35-.13,1.99-.04,3.99-.07,5.98-.1.18,2.69,1.04,5.4,1.44,8.06.35,2.33.71,4.66,1.14,6.96-1.67.04-3.34.09-5.01.14Zm7.09-.19c-.7-2.2-.72-4.73-.99-7.01-.32-2.67-.49-5.34-1.04-7.98,2.61-.03,5.23-.04,7.85-.04,1.02,0,2.04-.01,3.05-.04.19,2.43.41,4.85.86,7.25.25,1.37.28,2.8.47,4.18.14,1.03.16,2.31.54,3.32-3.57.16-7.15.24-10.73.32Zm13.05-.4c-.81-4.87-.68-9.87-1.36-14.76,3.33-.12,6.66-.32,9.99-.47.49-.02.98-.03,1.48-.05,0,0,.01,0,.02,0,0,0,0,0,.01,0-.15,2.82.46,5.71.46,8.54,0,1.23.06,2.52.23,3.74.11.8-.15,2.27.22,3.08-3.68-.09-7.36-.18-11.04-.09Zm21.86.44c-1.42-.11-2.84-.25-4.27-.26-1.52,0-3.04-.03-4.57-.06.05-1.3-.1-2.62-.09-3.93,0-1.36.06-2.73-.04-4.08-.16-2.45,0-5.05-.49-7.46,3.18-.08,6.36-.12,9.54-.17.02.04.09.03.14,0,.04,0,.07,0,.11,0-.06.34-.2.98-.2,1.08.05.58,0,1.16.06,1.74.13,1.43.06,2.88.06,4.32,0,2.98.25,5.95.48,8.92-.28-.03-.54-.06-.75-.08Zm15.78-16.51h0c-.33,5.32-.37,10.66-.71,15.98-.47.04-.93.08-1.4.14-1.96.23-3.93.32-5.9.5-.8.07-1.6.09-2.4.1.18-.89.23-1.87.28-2.77.09-1.73.27-3.45.41-5.18.13-1.52.28-3.03.37-4.55.07-1.23.36-2.66.27-3.9,2.01-.08,4.03-.28,6.02-.32,1.03-.02,2.07-.05,3.1-.08-.02.03-.03.06-.04.09Zm12.35,13.69c0,.35,0,.7,0,1.05-.13.35-.05.6.24.73-.1,0-.22.08-.25.18-.46.03-.91.05-1.37.06-2.99.05-6-.01-9,.11.11-5.29.26-10.67-.1-15.96,2.61-.06,5.21-.09,7.83.03.98.05,1.96,0,2.94-.04-.09,2.61-.07,5.22-.18,7.84-.06,1.3-.1,2.6-.12,3.9,0,.7,0,1.4,0,2.1Zm8.65,1.72c-1.03-.01-2.06-.08-3.09-.1-1.2-.01-2.41.08-3.62.19.06-5.17.37-10.36.22-15.54,0-.08-.04-.13-.09-.15.35,0,.71.02,1.06.05,2.19.18,4.41,0,6.6-.1.11,0,.22,0,.33-.01,0,0,0,0,0,.01-.03,2.87.07,5.75-.04,8.62-.09,2.26-.07,4.64.07,6.91-.48.06-.96.12-1.44.12Z"/>
            <path class="cls-7" d="m63.11,96.7c.38.04.77.06,1.16.08-.33,1.04-.22,2.42-.28,3.5-.07,1.44-.19,2.88-.38,4.31-.18,1.33-.14,2.74-.19,4.08-.06,1.54-.23,3.06-.23,4.6-.04,0-.09,0-.13,0-.04-.12-.1-.21-.2-.25-.18-.07-.31-.16-.49-.08-.22.1-.53.12-.85.11-.2-3.01-.39-6.04-.39-9.06,0-1.31.04-2.62-.04-3.92-.06-.99.01-2.1-.17-3.1.59-.01,1.18-.02,1.77-.03.14,0,.33-.11.42-.26Z"/>
            <path class="cls-7" d="m64.45,96.79c.74.03,1.48.02,2.23,0-.22.17-.27.49-.13.97-.15.65-.12,1.39-.17,2.06-.12,1.67-.22,3.33-.41,4.99-.33,2.76-.25,5.63-.7,8.37,0,0,0,0,0,0-.52.01-1.04.02-1.56.06-.02-2.91.31-5.88.49-8.79.15-2.51.67-5.14.26-7.66Z"/>
            <path class="cls-7" d="m77.73,96.32c-.35,5.27-.15,10.67-.1,15.94-.01.01-.02.02-.03.03-.58.03-1.16.06-1.74.1.36-5.33.75-10.71.75-16.05.38-.01.75-.02,1.13-.03Z"/>
            <path class="cls-7" d="m49.66,105.19c0-1.51-.15-3.03-.27-4.53-.09-1.13-.09-2.32-.27-3.43.46-.02.91-.03,1.37-.04,0,.01,0,.02,0,.03-.01.01-.02.03,0,.04,0,0,.01.02.02.02.36,2.63.26,5.34.43,7.98.15,2.46-.17,4.93.17,7.38-.35,0-.71-.01-1.06-.02,0,0,0-.02,0-.03-.19-2.44-.39-4.95-.38-7.4Z"/>
            <path class="cls-7" d="m21.27,97.94c.6,0,1.21-.01,1.81-.02,0,0,0,0,.01,0h0c.28,2.56.55,5.12.81,7.69.25,2.36.31,5.03,1.03,7.31-.34,0-.68.02-1.02.02-.8-4.99-1.49-10.08-2.65-15.01Z"/>
            <path class="cls-7" d="m35.83,105.39c-.24-2.5-.66-5.07-1.07-7.55.65-.02,1.3-.04,1.95-.07.07,2.37.39,4.76.59,7.13.22,2.55.3,5.11.74,7.63-.44.01-.88.02-1.32.04-.49-2.35-.66-4.81-.89-7.19Z"/>
            <path class="cls-7" d="m7.97,98.09c-.62.19-.8-.63-.88-1.44.02-.04.03-.08.03-.12-.03-.31-.06-.87.02-1.29,2.26-.22,4.6-.24,6.86-.34,2.64-.12,5.26-.33,7.9-.42,5.3-.19,10.55-.88,15.86-.79,5.24.09,10.59.72,15.82.21,2.61-.25,5.24-.54,7.86-.7.8-.05,1.41-.5,1.22.58-.14.82-.43,1.73-.3,2.57-9.75.26-19.48.52-29.22.91-5.15.21-10.3-.12-15.45.19-2.42.15-4.87.13-7.3.25-.83.04-1.62.15-2.42.39Z"/>
            <path class="cls-7" d="m11.34,110.31c-.29-1.35-.48-2.71-.8-4.04-.62-2.54-1.17-5.22-1.51-7.82.64-.09,1.28-.16,1.92-.21.58,1.11.53,3.06.61,4.26.09,1.29.39,2.55.59,3.82.22,1.42.48,2.84.77,4.25.17.84.67,1.95.66,2.83-.09,0-.17.01-.26.02-.41.02-.88-.04-1.32,0-.33-.96-.46-2.14-.66-3.11Z"/>
            <path class="cls-7" d="m12.13,116.34c-.08-.93-.18-1.61-.45-2.41,0,0,.02-.01.03-.02.07.07.19.05.29-.01.38,0,.78.06,1.14.05,2.82,0,5.63-.38,8.45-.38.64,0,1.29,0,1.93-.01,0,.03.01.06.02.09.04.21.35.08.44-.1,4.65-.07,9.33-.31,13.97-.47.09,0,.18,0,.27,0,.03,0,.07,0,.1,0,5.49-.17,11,.2,16.49.2,1.49,0,2.94.03,4.42.19.68.07,2.05.4,2.66.18.04-.01.07-.02.1-.02,0,0,0,.02,0,.02,0,.03,0,.07,0,.1.01.21.25.15.37.03.28.44.05,1.64.06,2.08.02.86-.17,1.81,0,2.65-.76.02-1.54-.09-2.28-.09-1.19,0-2.36-.07-3.55-.1-2.38-.07-4.81-.14-7.19-.03-2.4.1-4.8,0-7.2.04-2.51.03-5.02.19-7.53.19-4.82,0-9.64-.2-14.46-.21-2.34,0-4.66-.04-7,.12-1.2.08-1.02-1.28-1.08-2.07Z"/>
            <path class="cls-7" d="m100.34,117.89c0,.4-1.3.25-1.67.28-1.52.15-3.05.4-4.58.41-1.77,0-3.54.32-5.31.39-1.92.07-3.83.22-5.75.31-4.05.19-8.1.3-12.14.49-4.15.19-8.34.52-12.5.29-3.56-.2-7.15-.14-10.71.01-1.87.08-3.73-.09-5.6-.06-2.01.03-4.03.14-6.04.26-3.96.24-7.91.03-11.86.03-1.92,0-3.8-.3-5.72-.3-.96,0-1.9.07-2.86.11-.43.02-.88-.07-1.31-.09-.39-.22-.77-.44-1.16-.67-.05-.12-.13-.22-.22-.31.14-.02.27-.03.37-.04,1.24-.07,2.46-.11,3.71-.1,5.27.05,10.53.19,15.79.19,5.3,0,10.59-.21,15.88-.21,2.57,0,5.14,0,7.72,0,1.18,0,2.36.1,3.55.1.89,0,1.81.15,2.69.05.99.24,2.04,0,3.05-.06,1.71-.1,3.42.04,5.13-.05,3.47-.18,6.95.05,10.43-.07,3.57-.12,7.04-.39,10.59-.83,2.92-.36,5.89-.26,8.81-.54-.12.11-.29.21-.29.39Z"/>
            <path class="cls-7" d="m102.04,113.08c-.04.69-.03,1.4,0,2.1-.02.03-.04.06-.04.09-.11.53-.13.99-.09,1.49-3.25.45-6.6.26-9.87.65-3.55.42-7.02.7-10.59.83-3.32.12-6.65,0-9.98.07-1.51.03-3.01.07-4.51.08-.75,0-1.5.05-2.24.16-.27.04-.87.06-1.34.1.03-.13-.04-.24-.26-.21-.02,0-.04,0-.06,0-.3-1.05-.07-2.58-.07-3.66,0-.18.09-.62.11-1.02,2.1.09,8.35-.31,9.16-.38,3.92-.36,7.82-.51,11.76-.56,1.93-.03,3.86-.02,5.8-.12,1.87-.1,3.72-.32,5.59-.25,1.1.04,2.17-.03,3.25-.09,0,.01,0,.02,0,.03.02.23.33.11.39-.05.27-.01.53-.02.8-.03.03.03.07.04.12.04.05,0,.11-.02.17-.05.05,0,.1,0,.14,0,.7,0,1.84-.45,1.76.77Z"/>
            <path class="cls-7" d="m89.2,96.29c.42-.02.84-.03,1.27-.02-.13.03-.27.14-.27.27-.09,5.15-.28,10.32-.23,15.46-.32.03-.63.05-.95.07.13-2.53.04-5.07.14-7.6.1-2.73.2-5.45.05-8.18Z"/>
            <path class="cls-7" d="m99.79,111.67s-.09,0-.12,0c-.19,0-.39.01-.58.03.1-2.33-.1-4.65-.02-6.99.09-2.8.22-5.72-.05-8.52.24,0,.48,0,.72-.01.15,5.16.05,10.32.06,15.49Z"/>
            <path class="cls-7" d="m101.68,104.19c-.04,2.42-.42,4.87-.25,7.3-.37.01-.75.07-1.09.11,0-2.7-.03-5.39.05-8.09.07-2.4.19-4.95-.22-7.34.26,0,.51,0,.77,0s.59.04.92.05c0,0,0,.02,0,.02-.01.04,0,.06.02.07.21,2.57-.15,5.3-.19,7.87Z"/>
            <path class="cls-7" d="m102.75,94.23c-.12.72.08,1.3-.67,1.3-1.96,0-3.91.06-5.87.16-1.78.09-3.55,0-5.33-.08-1.96-.09-3.91.13-5.88.05-3.9-.16-7.77.04-11.67.17-1.76.06-3.5.11-5.25.25-.82.06-1.65.13-2.47.2-.87.07-1.68-.05-2.54-.04-.22-1.08.48-2.2.45-3.28.66.21,1.47.17,2.09.17,1.63.02,3.25.02,4.88-.05,3.79-.17,7.61.09,11.4.15,3.53.06,7.04-.08,10.57.03,3.51.1,7.01.08,10.52.01-.13.31-.16.58-.23.98Z"/>
          </g>
          <g>
            <g>
              <path class="cls-6" d="m167.65,115.36c-.03-.09-.05-.18-.06-.26.01-.23.03-.45.06-.65.03-.14-.05-.18-.16-.18-.04-.67-.04-.97-1.19-1.08-2.01-.2-4.07-.21-6.09-.19-4.51.03-9.03.14-13.54.16-4.63.02-9.25-.17-13.89-.12-2.13.03-4.26.12-6.39.15-1.05.01-2.1.15-3.16.18-.72.02-1.56-.06-2.26.15,0-.03,0-.06,0-.08,0-.12-.18-.04-.19.05,0,.03,0,.07-.02.11-.08.05-.15.13-.15.23-.02.23-.03.44-.03.65-.25,1.11-.54,2.67.22,2.77.89.12,1.94-.01,2.86.04,1.43.08,2.86-.09,4.28-.19,5.3-.36,10.61.11,15.91.31,2.43.09,4.83.28,7.27.28,2.65,0,5.28-.13,7.94-.08,2.38.04,4.91.15,7.28-.09,1.04-.11,1.17-1.01,1.21-1.91.07-.08.11-.17.09-.25Z"/>
              <path class="cls-7" d="m166.09,116.96c-1.03.04-2.07-.04-3.1-.01-2.1.05-4.18.03-6.28,0-2.17-.04-4.34.13-6.51.13s-4.43-.22-6.66-.3c-4.36-.16-8.77-.59-13.14-.41-2.18.09-4.36.41-6.55.36-.79-.02-1.69-.19-2.48-.04-.46.09-.49-1.1-.46-2.07.04-.22.09-.44.15-.66.02-.06,1.33-.04,1.44-.04,1.05-.04,2.1-.05,3.15-.13,1.91-.14,3.85-.11,5.76-.15,4.43-.08,8.86.07,13.29.13,4.16.06,8.33,0,12.49-.06,2.03-.03,4.04-.04,6.07.01,1.06.03,2.14,0,3.18.22.12.03.34.95.5,1.47-.05.73-.14,1.53-.88,1.56Z"/>
            </g>
            <g>
              <path class="cls-6" d="m168.27,109.04c-.16,0-.31,0-.47,0-.07-2.01.06-4.04,0-6.06-.04-1.32-.06-2.65-.08-3.97-.01-.89.07-1.85-.16-2.72,1-.1,1.16-.58,1.08-2.02,0-.04-.01-.07-.02-.09.16-.16.21-.41-.07-.41-7.72-.04-15.45-.61-23.18-.51-2,.03-3.97.28-5.98.11-2.16-.18-4.35-.14-6.52-.26-2.18-.12-4.36.05-6.53.14-1.87.08-3.7-.38-5.54-.28-.05,0-.1.03-.14.07-.11.03-.23.14-.24.25-.02.38-.26,1.42,0,1.77.1.14.26.22.44.27-.29,2.26-.19,4.61-.19,6.87,0,1.21-.04,2.45-.15,3.66-.12,1.21.06,2.45.1,3.67-.1,0-.2.01-.3.02-.13.01-.26.09-.3.22-.48,1.6-.3,3.51-.32,5.17,0,.04,0,.06.02.09,0,0,0,0,0,0l-.02.2c.06.13.12.26.2.38.03,0,.07-.02.1-.04.02,0,.03-.02.05-.03,4.55.38,9.13-.22,13.7-.07,5.38.18,10.76-.13,16.14.09,4.99.2,9.94-.08,14.92-.1,1.15,0,3.09.31,3.56-1.05.28-.81.22-1.93.26-2.78.04-.74.25-1.86-.13-2.52-.04-.07-.14-.1-.22-.09Zm-35.13-6.03c-.07,2.08-.04,4.14-.02,6.21-.79,0-1.58,0-2.38,0-.94,0-1.87.1-2.81.2-.76.08-1.64-.15-2.38.01-.82.18-1.61-.02-2.44.02-.1,0-.19,0-.29.01.23-2.2.27-4.49.29-6.7.01-2.37.06-4.82-.19-7.19,2.2.3,4.46.34,6.67.35,1.25,0,2.49,0,3.74,0,.04,1.27-.18,6.54-.2,7.08Zm14.95,4.05c.03.6.05,1.2.06,1.8,0,.18.12.46.14.7-1.54-.06-3.07-.12-4.61-.15-2.88-.06-5.77-.13-8.65-.17.19-4.44.64-8.86.56-13.32,2.97,0,5.94-.02,8.9-.02,1.29,0,2.59,0,3.88.01.05.48-.32,6.97-.35,7.56-.05,1.18,0,2.4.06,3.59Zm17.27,2.02s-.02.02-.02.04c-2.91.12-5.81.35-8.73.5-2.19.11-4.38.08-6.57,0,.1-2.2.12-4.4.19-6.6.07-2.35.32-4.73.2-7.09,3.14.03,6.28.08,9.42.19,1.21.04,2.29.15,3.51.1.71-.03,1.42,0,2.14.03-.35,4.24.43,8.6-.13,12.83Z"/>
              <path class="cls-7" d="m120.93,93.4s0-.05,0-.07c1.39.12,2.75.47,4.15.47,2.15,0,4.29-.2,6.45-.16,4.39.07,8.71.44,13.09.22,4.02-.2,8.1.12,12.12.17,3.75.05,7.51.3,11.27.29-.08.14-.07.29.14.29.01,0-.07.5-.06.69.03.69-.77.49-1.13.49-.98-.01-1.96-.08-2.94-.09-2.03-.02-4.03-.11-6.06-.18-4.42-.15-8.87-.13-13.29-.12-4.25.01-8.53-.03-12.78,0-2.16.02-4.29-.11-6.44-.15-1.18-.02-2.31-.16-3.47-.34-1.04-.16-1.07-.52-1.12-1.4.03-.03.05-.07.06-.11Z"/>
              <path class="cls-7" d="m167.28,103.7c.03,1.76-.12,3.6.02,5.36-.47,0-.94.02-1.4.04.3-2.09.15-4.23.16-6.34.02-2.17.03-4.33-.16-6.49.29.01.58.03.88.04.19,0,.37,0,.53,0,.14,1.09-.03,2.3-.05,3.38-.02,1.34,0,2.67.02,4.01Z"/>
              <path class="cls-7" d="m149.62,109.61c-.32-.01-.64-.02-.96-.04.14-.38-.03-.89-.02-1.28.02-1.32-.03-2.64-.04-3.96-.02-2.78.45-5.63.19-8.41.4,0,.81,0,1.21.01-.33,4.52-.57,9.15-.37,13.68Z"/>
              <path class="cls-7" d="m134.55,109.24c-.31,0-.63,0-.94-.01.03-4.41.23-8.88-.03-13.29.49,0,.98,0,1.47,0-.02,2.38-.06,4.71-.24,7.09-.15,2.04-.41,4.17-.26,6.22Z"/>
              <path class="cls-7" d="m122.56,102.91c0,1.31-.03,2.61-.15,3.91-.07.73-.26,1.85-.1,2.67-.44,0-.88,0-1.31.03.1-1.5.27-6.82.27-7.45,0-.68-.03-5.24-.14-6.67.36.05.76.03,1.03.07.15.02.3.04.46.07-.24,2.44-.06,4.93-.05,7.38Z"/>
              <path class="cls-7" d="m167.81,112.78c-.03.47-.08.93-.12,1.4-.07.8-.34.57-1.15.66-1.21.12-2.44.07-3.65.07-4.46-.01-8.89.23-13.37.04-4.62-.19-9.22-.06-13.84-.06-2.17,0-4.36-.24-6.52-.06-2.33.2-4.67.26-7.01.26-.65,0-1.32-.08-1.97-.05,0-.04,0-.09-.01-.13,0-.02.02-.05.02-.07,0-1.28.02-2.57.01-3.85.06-.04.11-.11.09-.17-.02-.06-.04-.11-.05-.17.07-.4.19-.66.37-.68,0,0,0,0,0,0v.02c.15,0,.31.02.46.03,0-.03,0-.05-.02-.07.46-.02.92-.04,1.39-.04.06.08.17.06.26,0,1.07,0,2.15.02,3.19.04,1.93.05,3.86-.18,5.8-.22,2.36-.05,4.75-.03,7.1.12,4.34.27,8.71.34,13.06.45,4.53.11,9.03-.63,13.54-.44.3.01,2.5-.21,2.47.12-.08.93,0,1.87-.06,2.81Z"/>
            </g>
          </g>
        </g>
      </g>
    </g>
  </g>
</svg>