<?xml version="1.0" encoding="UTF-8"?>
<svg id="Layer_2" data-name="Layer 2" xmlns="http://www.w3.org/2000/svg" viewBox="0 0 333.8 125.72">
  <defs>
    <style>
      .cls-1 {
        fill: #fff;
      }

      .cls-1, .cls-2 {
        fill-rule: evenodd;
      }

      .cls-2 {
        fill: #0f0a09;
      }
    </style>
  </defs>
  <g id="Layer_1-2" data-name="Layer 1">
    <g>
      <path class="cls-2" d="m151.99.56c-3.98-.85-9.88-.57-14.24-.26,3.51.99,11.02.51,14.24.26Z"/>
      <path class="cls-2" d="m159.44,3c-9.4-.69-21.11-.55-30.54,0,9.18.72,21.08.47,30.54,0Z"/>
      <path class="cls-2" d="m170.98,5.57c-4.76-.8-13.12-.96-17.45.26,5.85.29,12.24-.11,17.45-.26Z"/>
      <path class="cls-2" d="m145.58,5.82c-.75-.67-2.18-.59-3.46-.64-2.43-.11-5.36-.14-7.19.39,3.14.48,7.54.15,10.65.26Z"/>
      <path class="cls-2" d="m97.34,5.7c4.71.3,10.72.65,15.4.13-4.47-.53-10.87-.91-15.4-.13Z"/>
      <path class="cls-2" d="m119.79,5.82c3.76.36,9.4.55,12.96-.13-2.85-.54-7.29-.5-10.65-.39-.76.03-1.88-.12-2.31.51Z"/>
      <path class="cls-2" d="m150.71,5.95c-.49-.98-2.69-.65-3.72-.38.48.96,3.02.37,3.72.38Z"/>
      <path class="cls-2" d="m117.48,6.08c.06-.4-.11-.57-.51-.51-.35.41.13.77.51.51Z"/>
      <path class="cls-2" d="m115.17,5.95c-.01-.39-.84-.3-1.03-.13v.38c.33.13,1.02.27,1.03-.26Z"/>
      <path class="cls-2" d="m120.82,8c-3.92-.28-9.49-.84-13.34,0,.79.16,1.59.34,2.69.39,3.45.15,8.44.15,10.65-.39Z"/>
      <path class="cls-2" d="m139.16,7.75c-2.43-.15-5.54-.13-8.21,0-1.74.08-3.62-.1-4.88.51,4.71.24,10.16.17,14.88,0-.4-.55-1.18-.47-1.8-.51Z"/>
      <path class="cls-2" d="m174.19,8.26c-7.46-.08-15.74-.88-23.48-.51-2.38.11-5.15-.1-7.31.51,9.7.49,21.62.64,30.79,0Z"/>
      <path class="cls-2" d="m176.24,8.26c.4.34,1.85.46,1.93-.26-.48-.21-1.77-.27-1.93.26Z"/>
      <path class="cls-2" d="m89.51,10.44c6.06.36,14.14.44,19.76,0-5.92-.42-14.29-1.04-19.76,0Z"/>
      <path class="cls-2" d="m133.39,10.7c1.43-.06,3.04.28,4.23-.39-6.98-.43-15.64-.46-22.32.26,5.5.4,12.29.37,18.09.13Z"/>
      <path class="cls-2" d="m165.72,10.96c6.41.09,12.81.17,18.61-.51-13.52-.39-28.03-.5-41.7.13,6.83.85,15.17.27,23.09.39Z"/>
      <path class="cls-2" d="m78.6,13.01c7.36.42,15.59.52,22.58,0-6.9-.42-15.76-.77-22.58,0Z"/>
      <path class="cls-2" d="m188.31,12.75c0,.18.06.28.13.38.79-.07,1.86.15,2.44-.13-.2-.68-1.98-.38-2.56-.26Z"/>
      <path class="cls-2" d="m83.61,15.7c5.35.24,11.67.22,16.55-.38-6.41-.56-13.68-.08-20.27,0,.9.73,2.53.33,3.72.38Z"/>
      <path class="cls-2" d="m204.47,15.58c-7.85-.65-17.58-.77-25.28.13,8.18,0,17.48.75,25.28-.13Z"/>
      <path class="cls-2" d="m102.85,15.58c-.29-.28-1.25-.39-1.67-.13v.38c.59-.05,1.45.17,1.67-.26Z"/>
      <path class="cls-2" d="m104.91,15.7c.03-.53-.99-.45-1.28-.26,0,.18.06.28.13.38.4-.03.94.09,1.16-.13Z"/>
      <path class="cls-2" d="m58.07,17.5c1.16,1,3.38.36,5.26.51,2.45.2,5.86.41,7.7-.38-3.81-.49-8.94-.26-12.96-.13Z"/>
      <path class="cls-2" d="m74.88,17.63c.77.69,2.44.38,3.85.38,1.48,0,3.04.1,3.85-.26-2.08-.69-5.36-.33-7.7-.13Z"/>
      <path class="cls-2" d="m92.2,18.14c4.94.22,10.27.19,14.75-.26-6.72-.57-14.81-.48-21.55-.26,1.97.77,4.44.41,6.8.51Z"/>
      <path class="cls-2" d="m198.06,18.01c-.33-.91-2.39-.41-3.08-.13.6.41,2.3.32,3.08.13Z"/>
      <path class="cls-2" d="m200.37,17.88c.16.28,1.47.53,1.41-.13-.26-.16-1.35-.3-1.41.13Z"/>
      <path class="cls-2" d="m61.93,19.94c-.66-.18-2.04-.23-2.69,0-.05.18-.15.22,0,.38.7.05,2.58.54,2.69-.38Z"/>
      <path class="cls-2" d="m76.04,20.19c-3.32-.42-8.99-.87-12.06.13,3.8,0,8.63.76,12.06-.13Z"/>
      <path class="cls-2" d="m185.74,20.07c-2.06.25-4.8-.19-6.67.64,11.31.28,24.13.66,34.77-.13-6.75-.58-15.04-.38-22.58-.38-1.93,0-3.87-.33-5.52-.13Z"/>
      <path class="cls-2" d="m61.8,23.15c.9,0,2.09.3,2.44-.39-1.52-.3-5.17-.68-6.29.26,1.17.14,2.54.13,3.85.13Z"/>
      <path class="cls-2" d="m66.8,23.02c5.31.51,11.93.78,17.45.26-4.8-1.05-12.27-.76-17.45-.26Z"/>
      <path class="cls-2" d="m215.25,23.02c1.04.13,3.01.34,3.85-.13-1.06-.23-3.01-.53-3.85.13Z"/>
      <path class="cls-2" d="m78.09,25.71c-6.71-.57-14.9-.85-21.68-.51.97.85,2.78.45,4.11.51,5.62.25,12.36.36,17.58,0Z"/>
      <path class="cls-2" d="m50.76,25.58c.95,0,2.56.48,2.95-.39-.74-.11-2.78-.49-2.95.39Z"/>
      <path class="cls-2" d="m203.32,25.2c-.78-.24-2.32-.2-2.95.13.58.21,2.62.65,2.95-.13Z"/>
      <path class="cls-2" d="m207.68,25.33c-.76-.17-1.92-.47-2.44.13.41.3,2.24.56,2.44-.13Z"/>
      <path class="cls-2" d="m211.4,25.71c.24-.79-1.46-.66-1.41-.13.28.24.94.09,1.41.13Z"/>
      <path class="cls-2" d="m224.1,27.89c-5.85-.19-13.58-.96-19.5-.39-.52.05-1.42-.26-1.67.39,6.54.47,15.11.62,21.17,0Z"/>
      <path class="cls-2" d="m58.07,27.64c-2.69-.12-5.7-.43-8.21-.13-1.66.2-3.98-.07-5.39.64,6.5.58,14.85.15,21.17.13-2.02-.95-4.79-.51-7.57-.64Z"/>
      <path class="cls-2" d="m47.56,30.59c4.38.63,10.83.53,15.27.13-3.98-1.16-11.02-.73-15.27-.13Z"/>
      <path class="cls-2" d="m39.73,30.46c.67.81,3.03.52,4.23.38-.55-.96-3.09-.43-4.23-.38Z"/>
      <path class="cls-2" d="m228.59,33.02c-4.73-1.11-12.01-.65-17.07-.13,5.21.45,11.66.3,17.07.13Z"/>
      <path class="cls-2" d="m56.53,33.02c-3.26-.57-8.13-.47-11.8-.26-.76.04-1.7-.28-2.18.39,4.24.3,9.97.56,13.98-.13Z"/>
      <path class="cls-2" d="m221.02,35.08c-6.98-.24-16.07-.13-23.22-.13-1.97,0-4.16-.45-5.77.64,4.61.33,9.68.13,14.63.13s10.02.14,14.37-.64Z"/>
      <path class="cls-2" d="m44.86,35.21c-.68-.41-2.96-.47-3.46.13.71.24,3,.64,3.46-.13Z"/>
      <path class="cls-2" d="m234.37,38.41c-8.46-.82-19.14-.97-27.71-.13,8.87.34,19.14.93,27.71.13Z"/>
      <path class="cls-2" d="m249.51,38.29c-1.88-.57-4.45-.38-6.93-.38-1.61,0-3.39-.24-4.36.51,3.29.25,8.25.64,11.29-.13Z"/>
      <path class="cls-2" d="m202.68,38.29c-.01,1.02,1.19.5,1.8.39.02-.7-1.32-.59-1.8-.39Z"/>
      <path class="cls-2" d="m199.85,38.8c.52.2,1.78.47,2.18-.13-.46-.25-2.1-.78-2.18.13Z"/>
      <path class="cls-2" d="m289.15,44.32c2.14-.82,2.17-4.31.26-5.39-4.92-1.31-5.41,6.58-.26,5.39Z"/>
      <path class="cls-2" d="m37.03,40.47c3.95.33,9.74.58,13.47-.13-3.34-.45-8.36-.6-11.93-.26-.55.05-1.24-.34-1.54.38Z"/>
      <path class="cls-2" d="m31.77,43.03c.63-.02,3.26.56,3.85-.25-.82-.4-3.37-.52-3.85.25Z"/>
      <path class="cls-2" d="m40.11,42.65c-.62-.18-1.95-.23-2.57,0,.09.71,2.51.84,2.57,0Z"/>
      <path class="cls-2" d="m57.18,43.16c-.78-.84-2.53-.44-4.11-.51-3.12-.14-6.86-.43-9.24.26,4.03.44,9.03.52,13.34.25Z"/>
      <path class="cls-2" d="m52.81,45.21c-5.21-.51-12.01-.64-17.06.13,5.08.52,12.2.73,17.06-.13Z"/>
      <path class="cls-2" d="m22.92,45.09c1.03.73,2.78.44,4.36.51,2.38.11,5.07.49,6.8-.26-2.97-.76-7.78-.33-11.16-.26Z"/>
      <path class="cls-2" d="m240.01,45.47c1.46.17,3.82.6,4.87-.26-1.32-.3-3.9-.54-4.87.26Z"/>
      <path class="cls-2" d="m264.13,50.47c4.05.23,8.96.28,12.83.26-3.02-1.6-8.84-.4-12.7-1.15,1.04-4.57-6.6-5.02-7.19-1.93-.21,1.1.52,1.78.64,2.44-5.56-.38-12.37-.37-18.22-.13-1.26.06-2.78-.25-3.85.39,1.42.69,3.17.38,4.87.38,5.89,0,11.96.14,17.58-.26,1.4,1.16,4.87,1.74,6.03,0Z"/>
      <path class="cls-2" d="m252.84,47.65c-5.42-.72-13.39-.9-18.48.26,5.91.04,12.99.51,18.48-.26Z"/>
      <path class="cls-2" d="m35.75,47.52c-3.1,0-6.67-.26-8.6.39,6.07.7,14.46.8,20.66.13-3.53-.7-7.76-.51-12.06-.51Z"/>
      <path class="cls-2" d="m231.93,48.04c.45.31,1.01.21,1.54,0-.05-.69-1.51-.69-1.54,0Z"/>
      <path class="cls-2" d="m19.84,50.35c-.51-.54-2.92-.72-3.08.25.77.11,2.69.43,3.08-.25Z"/>
      <path class="cls-2" d="m234.5,50.47c.05-.77-1.45-.55-1.93-.38.1.67,1.37.56,1.93.38Z"/>
      <path class="cls-2" d="m252.97,52.91c-1.25-.31-4.53-.66-5.39.26,1.64.08,4.13.42,5.39-.26Z"/>
      <path class="cls-2" d="m27.41,55.61c-6-.82-13.69-.25-19.63.26,6.06.41,13.92.52,19.63-.26Z"/>
      <path class="cls-2" d="m6.37,55.48c-.57-.11-1.64-.27-2.18,0,.11.76,2.05.7,2.18,0Z"/>
      <path class="cls-2" d="m253.74,57.79c6.09.37,13.48.66,19.25-.26-5.84-.71-13.47-.33-19.25.26Z"/>
      <path class="cls-2" d="m31.77,57.53c-6.18-.15-13.47-.29-19.25.39,5.97.57,13.72.64,19.25-.39Z"/>
      <path class="cls-2" d="m22.28,60.61c-4.2-.26-10.15-.4-14.24.26,4.13.53,10.47.75,14.24-.26Z"/>
      <path class="cls-2" d="m297.49,62.92c-1.19-.47-4.11-.69-5.26,0,1.23.42,4.03.42,5.26,0Z"/>
      <path class="cls-2" d="m289.54,62.92c-.93-.49-3.09-.25-4.23-.13.61.75,3.47.74,4.23.13Z"/>
      <path class="cls-2" d="m274.53,64.97c-.91,0-2.24-.18-2.06.25-.22.51.62.36.77.39,1.56.24,3.35.13,5,.13,10.51,0,21.16.1,30.67-.51-10.63-1.03-23.55-.25-34.38-.25Z"/>
      <path class="cls-2" d="m308.66,67.79c2.21.94,6.92.6,9.37.13-2.92-.34-6.43-.51-9.37-.13Z"/>
      <path class="cls-2" d="m4.32,67.79c1.3.74,4.32.63,5.77.13-1.57-.35-4.05-.36-5.77-.13Z"/>
      <path class="cls-2" d="m300.7,68.18c.73.1,2.61.44,2.95-.26-.56-.4-2.21-.33-2.95-.13v.39Z"/>
      <path class="cls-2" d="m22.28,70.49c-2.13-.92-5.3-.77-8.34-.77-4.43,0-8.87-.2-12.32.39,6.12.75,14.23.78,20.66.38Z"/>
      <path class="cls-2" d="m311.86,70.62c.27.76,1.83.23,2.7.38-.12-.84-2.02-.51-2.7-.38Z"/>
      <path class="cls-2" d="m315.2,72.8c.3.42,1.78.39,1.93-.13-.33-.39-1.85-.69-1.93.13Z"/>
      <path class="cls-2" d="m319.31,72.54c-.05.18-.15.22,0,.38.47.24,1.57.16,2.05,0-.1-.66-1.5-.59-2.05-.38Z"/>
      <path class="cls-2" d="m2.78,75.24c-.36-.16-.79-.16-1.15,0-.15.57,1.3.57,1.15,0Z"/>
      <path class="cls-2" d="m8.29,75.5c-.38-.66-2.25-.44-2.57.13.62.17,2.21.6,2.57-.13Z"/>
      <path class="cls-2" d="m9.45,75.36c0,.64,1.77.75,2.05.26-.03-.69-1.63-.37-2.05-.26Z"/>
      <path class="cls-2" d="m5.73,78.06c-1.51-.38-3.98-.46-5.65-.26-.05.19-.15.22,0,.39,1.42.29,4.45.58,5.65-.13Z"/>
      <path class="cls-2" d="m12.01,78.44c1.5.07,3.37.33,4.11-.13-1.47-.74-4.44-.57-6.42-.38.18.87,1.45.47,2.31.51Z"/>
      <path class="cls-2" d="m326.36,79.98c-.82-.22-2.25-.17-3.08,0,.3.61,2.78.61,3.08,0Z"/>
      <path class="cls-2" d="m13.04,80.88c-.56-.71-1.85-.59-2.95-.64-2.19-.1-5.02-.07-6.54.51,2.69.55,6.65.5,9.5.13Z"/>
      <path class="cls-2" d="m317.38,83.32c1.71.22,4.52.69,5.77-.13-1.42-.32-4.57-.57-5.77.13Z"/>
      <path class="cls-2" d="m15.09,85.5c-3.36-.36-8.39-.43-11.93-.13-.52.04-1.44-.32-1.67.39,4.2.07,9.82.51,13.6-.26Z"/>
      <path class="cls-2" d="m22.41,90.51c-3.03-.58-7.59-.48-11.03-.26-.75.05-1.55-.28-2.05.38,4.07.18,9.29.62,13.09-.13Z"/>
      <path class="cls-2" d="m317.12,92.56c-2.52.12-4.99-.02-6.93.64,5.42.3,12.38.42,17.32-.25-2.88-.48-6.84-.55-10.39-.38Z"/>
      <path class="cls-2" d="m22.79,93.07c-6.08-.59-14.87-.65-21.04,0,6.31.64,14.72.57,21.04,0Z"/>
      <path class="cls-2" d="m328.93,92.82c-.09.62,1.14.4,1.41.25.05-.67-1.08-.34-1.41-.25Z"/>
      <path class="cls-2" d="m333.8,92.94c-.19-.31-1.08-.37-1.41-.13v.38c.48-.08,1.32.21,1.41-.25Z"/>
      <path class="cls-2" d="m306.86,95.51c5.8.14,12.84.36,18.35-.13.69-.06,1.73.11,2.18-.51-5.29-.13-10.84-.1-16.17.13-1.47.06-3.18-.39-4.36.51Z"/>
      <path class="cls-2" d="m34.98,100.26c-1.01-.68-2.44-.53-3.72-.51-1.43.02-3.68.07-4.62.13-5.82.35-12.66-.76-17.32.77,8.51.42,17.88-.08,25.66-.38Z"/>
      <path class="cls-2" d="m310.96,100.26c5.28.51,11.77.67,16.55.26-4.59-.81-11.71-.96-16.55-.26Z"/>
      <path class="cls-2" d="m8.68,100.39c-.59-.06-1.09-.2-1.8-.13-.2.83,1.8.67,1.8.13Z"/>
      <path class="cls-2" d="m124.02,102.82c-3.54-.7-7.9-.71-12.19-.51-3.75.17-7.62-.44-10.65.64,7.58.22,15.96.23,22.84-.13Z"/>
      <path class="cls-2" d="m126.46,102.82c1.28.4,3.41.29,4.88.13-.81-.88-3.85-.6-4.88-.13Z"/>
      <path class="cls-2" d="m134.93,102.82c-.4-.36-1.67-.39-1.92.13.56.15,1.65.52,1.92-.13Z"/>
      <path class="cls-2" d="m126.72,105.26c-16.74-1.19-35.7-.52-52.61-.52-2.65,0-5.34-.3-7.7.52,10.02.24,20.2.13,30.28.13s20.31.82,30.02-.13Z"/>
      <path class="cls-2" d="m27.28,104.88c-4.39.2-8.88-.43-12.7.64,10.5.25,22.41.19,32.21-.26-6.12-.52-13.07-.68-19.5-.38Z"/>
      <path class="cls-2" d="m49.48,105.13c1.29.36,3.55.36,5.01.13-.8-.9-3.98-.62-5.01-.13Z"/>
      <path class="cls-2" d="m128.64,105.13c.33.4,1.02.43,1.8.38.09-.39-.13-.47-.13-.77-.68,0-1.45-.08-1.67.39Z"/>
      <path class="cls-2" d="m58.2,105.26c-.41-.49-2.14-.33-2.44.13.57.19,2.13.58,2.44-.13Z"/>
      <path class="cls-2" d="m61.28,105.26c-.4-.27-1.5-.13-1.92,0,.07.61,1.83.53,1.92,0Z"/>
      <path class="cls-2" d="m64.75,105.26c-.39-.14-1.3-.24-1.67,0,.14.6,1.49.45,1.67,0Z"/>
      <path class="cls-2" d="m312.89,107.44c-.18.07-.31.2-.38.38,3.2.35,8.3.57,11.29-.13-3.19-.45-7.7-.25-10.91-.26Z"/>
      <path class="cls-2" d="m25.87,108.21c6.94.29,14.42.26,21.81.26s15.01.37,21.68-.51c-5.26-.45-11.13-.52-17.19-.52-7.19,0-13.12.13-19.76.13-2.26,0-4.67-.24-6.54.64Z"/>
      <path class="cls-2" d="m310.84,107.83c-.61-.69-2.85-.38-3.85-.26-.15.03-.08.14,0,.26,1.01.19,2.85.23,3.85,0Z"/>
      <path class="cls-2" d="m72.96,107.96c4.98.86,12.35.62,17.71.25-5.09-.7-12.38-1.04-17.71-.25Z"/>
      <path class="cls-2" d="m57.95,110.01c1.91.8,4.21.51,6.54.51,6.75,0,14.5.63,20.53-.38-8.56-.63-18.31-.4-27.07-.13Z"/>
      <path class="cls-2" d="m98.11,109.88c.2.85,1.55.4,2.31.38-.25-.74-1.55-.49-2.31-.38Z"/>
      <path class="cls-2" d="m299.67,109.75c-3.97.48-8.57-.17-12.19.64,9.56.67,20.11.11,29.9-.13-2.51-.79-5.55-.51-8.6-.51s-6.24-.35-9.11,0Z"/>
      <path class="cls-2" d="m103.24,110.26c2.22.26,6.1.62,8.08-.13-2.27-.43-5.96-.4-8.08.13Z"/>
      <path class="cls-2" d="m282.74,110.26c.27.3,1.73.51,1.79-.13-.16-.41-1.79-.44-1.79.13Z"/>
      <path class="cls-2" d="m277.99,110.26c.8.48,2.28.43,3.21.13-.37-.62-2.66-.53-3.21-.13Z"/>
      <path class="cls-2" d="m55,110.39c-.6-.36-2.7-.53-2.95.26.84,0,2.54.51,2.95-.26Z"/>
      <path class="cls-2" d="m49.09,110.52c-.31-.52-1.64-.19-2.18-.13.22.49,1.94.85,2.18.13Z"/>
      <path class="cls-2" d="m124.02,112.7c-1.02-.34-3.94-.57-4.75.13,1.37.28,3.56.45,4.75-.13Z"/>
      <path class="cls-2" d="m265.67,112.58c-3.03.14-6.17-.2-8.98.13-.39.04-1.01-.01-1.28.51,8.16.03,17.78.42,25.4-.51-4.97-.35-10.39-.35-15.14-.13Z"/>
      <path class="cls-2" d="m129.93,112.7c-1-.06-3.4-.52-3.98.26.94.28,3.43.63,3.98-.26Z"/>
      <path class="cls-2" d="m131.21,112.96c2.76.71,7.48.5,10.14-.13-2.85-.31-7.5-.6-10.14.13Z"/>
      <path class="cls-2" d="m291.21,115.14c1.29.97,3.48.42,5.52.51,1.3.06,2.65.22,3.85.13-1.93-1.4-6.47-.61-9.37-.64Z"/>
      <path class="cls-2" d="m127.49,115.65c-.42-.74-2.34-.6-2.95-.13.89.56,2.11-.1,2.95.13Z"/>
      <path class="cls-2" d="m278.63,120.4c-1.71-.2-5.68-1.13-6.67.38,2.32-.15,5.03.6,6.67-.38Z"/>
      <path class="cls-2" d="m134.93,120.66c2.4.06,5.97.49,7.96-.26-2.2-.43-6.07-.46-7.96.26Z"/>
      <path class="cls-2" d="m281.58,120.27c.26.88,2.24.56,2.57,0-.67-.14-1.93-.26-2.57,0Z"/>
      <path class="cls-2" d="m214.09,122.97c-.34-.62-1.27-.46-1.8-.51-11.13-1.16-22.51-.26-34.13-.26-6,0-12.02-.31-17.32.9,17.32.04,35.42-.25,53.25-.13Z"/>
      <path class="cls-2" d="m270.68,122.97c-.82-.53-1.9-.57-2.95-.64-5.68-.37-12.3-.1-17.45.26.96.69,2.32.39,3.47.39,5.75,0,11.72.06,16.94,0Z"/>
      <path class="cls-2" d="m234.5,122.97c-.35-.59-1.29-.47-1.93-.51-4.84-.3-12.2-.44-15.78.51,5.61.21,12.1.22,17.71,0Z"/>
      <path class="cls-2" d="m148.53,122.97c2.6.2,7.21.77,9.24-.26-2.79-.33-6.74-.46-9.24.26Z"/>
      <path class="cls-2" d="m237.32,122.84c1.47.33,4.9.59,6.16-.13-1.71-.45-4.54-.31-6.16.13Z"/>
      <path class="cls-2" d="m247.58,122.71c-.43-.43-2.16-.4-2.44.13.3.41,2.39.8,2.44-.13Z"/>
      <path class="cls-2" d="m145.84,122.84c-.74-.42-2.48-.36-3.08.13.76.19,2.58.61,3.08-.13Z"/>
      <path class="cls-2" d="m255.41,124.89c-6.46-.58-13.79-.56-20.27-.26-5.74.27-11.41-.36-16.68.64,12.29.06,25.28.48,36.95-.38Z"/>
      <path class="cls-2" d="m216.15,125.02c-1.74-.44-4.9-.29-6.67-.13-1.37.12-3.15-.42-3.72.51,1.48.41,3.79.26,5.9.26,1.73,0,3.71.33,4.49-.64Z"/>
      <path class="cls-2" d="m198.06,125.15c.7.84,3.59.64,4.36,0-1.19-.24-3.16-.18-4.36,0Z"/>
      <path class="cls-2" d="m320.33,98.33c4.36-.21,8.9.51,12.7-.51-7.92-.66-17.66-.47-25.79-.13-1.14-2.31-3.96-5.38-7.06-3.72.98-2.14-.35-4.26-.9-5.52,2.42.28,5.33.06,7.95.13-.91,3.5,4.7,4.72,6.16,2.18.32.62,1.15,1.46,2.31,1.41.71-.03,1.24-.84,2.05-1.03,1.85-.43,4.85,0,7.31,0,2.59,0,5.18.36,6.93-.51-4.08-.83-9.58-.21-14.11-.26.13-.69-.21-1.59,0-1.93,2.83-.2,6.51.44,8.73-.38-2.57-.55-6.12-.12-9.11-.26-.19-.49-.91-1.14-.77-1.54,4.13.03,8.72.41,12.45-.26-7.57-.96-16.56-.26-24.76-.64-2.55-.12-5.61.55-7.83,0-.93-.23-1.87-1.48-2.57-1.8,7.57-.25,16.03.81,22.71-.51-7.43-.78-16.21-.21-24.25-.38.18-.55,0-1.45.26-1.93,9.19-.55,18.96.13,28.23-.77-5.2-.7-10.84-.29-16.17-.13.43-.51.6-1.29,1.03-1.8,4.42.29,10.48.63,14.5-.26-4.19-.77-9.82-.1-14.37-.51.08-.62.09-1.19.13-1.54,5.81-.07,11.23.19,16.68-.13-2.28-.86-5.29-.64-8.21-.64s-5.97.15-8.72.13c.12-.81-.69-1.36-.39-1.93,2.69.24,5.94.19,8.21-.38-2.71-.83-6.26.28-8.98-.25-.87-.17-1.42-.87-2.18-.9-.91-.03-1.65.55-2.31.64-.38-.58-1.64-.9-1.67-1.41,4.01.27,8.38-.04,12.32-.25-9.25-1.31-20.43.28-30.15-.51-1.1-.09-2.42-.12-3.46.25-.56-.73-1.7-1.55-1.93-2.18,7.52-.12,16.27.27,22.97-.26-5.21-.73-11.75-.64-17.71-.64-2.01,0-4.25.36-6.03.13-1.5-.2-2.93-1.36-4.62-1.54-3.21-.34-6.08.08-7.18,1.8-12.25-.34-24.98-.22-37.46,0-.59-.48-1.49-1.33-1.54-1.92,7.62.17,15.15.28,22.58-.13,7.1-.39,14.48.44,21.43-.64-5.16-.79-11.8-.09-17.32-.51.45-.41.79-.92,1.28-1.28,8.66.31,18.59.49,26.94-.26-8.45-.82-18.25-.63-26.82-.64.09-.44-.14-1.22,0-1.28,4.65-.1,9.59.13,14.24,0,4.7-.13,9.39-.12,13.47-.9-9.07-.1-18.57-.13-27.97,0-.29-.83-1.37-1.53-1.8-1.8.8-.18,2.37.4,2.57-.38-1.05-1.15-2.74-.25-3.98-.39-.61-.07-1.06-.44-1.54-.51-2.03-.29-3.2.58-4.49.64-1.37.07-2.84-.81-4.11-.64-.71.1-1.22.62-1.8.9-4.38-.33-8.99-.43-13.73-.39.15-.72-.4-1.39-.26-1.67,1.97-.45,2.68.84,3.72,1.15,1.35.41,2.98.19,3.59-1.28,6.4.46,12.92-.13,19.38-.13,3.2,0,6.43-.41,9.62-.26,3.15.15,6.31.33,9.24-.38-12.56-1.16-25.32.2-38.36,0-.02-.67-.91-1.14-.9-1.41,4.8-.04,10.11.03,15.27,0-2.75-.73-5.85-.69-8.98-.77-6.46-.16-12.88-.22-18.99-.26-3.18-.02-6.45-.29-9.37.38,2.88.5,6.18.58,9.62.52-.33.57-.7,1.1-1.15,1.54-5.95-.51-12.89-.03-18.99-.39.34-.34.21-1.15.64-1.41,2.47-.18,5.71.41,7.57-.38-2.06-.67-5.2-.28-7.83-.38.03-.63-.51-1.37-.38-1.67,11.41.51,24.9-.1,34.9-.13-10.78-1.83-24.19-.24-36.06-.9.26-.46.4-1.06.77-1.41,5.76.26,11.82.4,17.96.13,5.89-.26,12.61.24,17.32-.51-7.46-.58-15.79-.23-24.03-.38-.18.05-.38.06-.61,0,.2,0,.4,0,.61,0,.7-.18,1.2-.99,2.09-1.16.55-.11,1.28.27,1.93.13.63-.14,1.05-.88,1.67-1.02.92-.22,2,.09,2.95.13,6.62.29,15.04-.02,21.3-.26-7.4-.89-16.22-.37-24.38-.51.26-.48-.26-1.61-.26-1.8,6.69-.23,14.34.48,20.4-.38-5.38-.41-12.92-.78-18.86-.51-.83.04-1.66.29-2.44.13-.5-.1-.98-.62-1.54-.77-1.03-.28-2.69-.24-3.72-.13-1.06.12-2.37,1.12-2.57-.25,11.55,0,22.7-.4,33.87-.77-11.74-.95-24.17.12-36.57-.13-2.97-.06-6.42.52-8.85,0-.6-.13-.9-.65-1.67-.77-1.64-.27-3.15.48-4.23.64v-1.41c4.17-.24,9.3.49,12.83-.39-3.8-.65-8.47-.43-12.83-.51.56-1.79-.69-3.48-.9-4.49,6.93.06,15.19.48,21.56-.13-4.65-.54-10.93-.64-16.42-.64-3.3,0-6.89.53-7.31-1.54,5.84.25,12.27,0,17.96,0,1.96,0,3.98.13,5.64-.51-8.04-.34-16.52-.25-24.89-.26.1-.75-.16-1.66,0-2.05,5.98.17,12.61.35,18.22.13-5.19-1.22-12.03-.8-18.35-.9.15-.67-.47-1.23-.26-1.54,5.15.14,11.26.26,15.91-.51-4.97-.42-11.14-.32-16.3-.13-.67-.74-1.69-1.13-2.57-1.67,11.8-.1,23.75.36,34.64-.26-11.96-.91-25.74.09-37.59-.64.08-2-1.15-3.38-1.41-4.62,5.71.03,12.48.73,17.83-.13-5.68-.65-12.19-.47-18.47-.51-1.36-2.1-5.75-3.06-8.47-1.54-.44-.97-1.44-2.06-1.8-2.7,7.73-.08,15.28.58,22.84.26-7.28-.91-15.84-1.23-23.86-.9-1.29-1.1-3.22-.2-4.88-.13-2.58.11-4.93-.55-7.18-.39-2.98.22-6.72.57-10.26.51-2.11-1.44-4.68-1.75-7.7-1.41-1.58.18-2.86,1.21-4.11,1.41-.9.15-1.86-.09-2.82-.13-3.78-.17-8.44-.09-11.93.13-.79.05-1.65.07-2.31.51,4.9.58,10.99.05,15.91.26-.66.27-1.02,1.79-1.92,2.05-.88.25-2.85-.13-4.36-.13-4.46,0-9.89-.23-13.34.38,5.41.54,11.56.33,17.45.39-.22.59-.45,1.18-.77,1.67-2.31-.29-4.54.34-6.42.13-.96-.11-1.39-.56-2.05-.64-3.15-.37-4.79.49-6.42,1.41-.66.37-1.39,1.11-2.18,1.28-1.54.34-3.62-.06-5.52,0-6.2.19-14.16-.29-18.99.9,7.78.16,16.16.07,24.12-.26-.35.63-.71,1.26-1.28,1.67-3.22-.08-5.94.43-8.47.13-.88-.1-1.37-.44-2.05-.51-3.3-.34-5.72,1.1-7.57,2.18-.55.32-1.09,1-1.8,1.15-1.78.4-3.5-.58-4.87.38,1.11.47,3.03.14,4.36.39-.4.63-.64,1.41-1.28,1.8-3.58-.03-7.75-.02-11.03.13-1.1.05-2.44-.26-3.21.51,3.7.27,8.29.08,11.8.13-.8,1.55-2.72.48-4.23.64-1.2.13-2.15,1-3.21,1.28-2.67.7-5.83-.55-8.34.51,2.02.46,4.78.18,7.19.26-.29.44-.6.85-.9,1.28-4.25.24-9.51-.53-12.96.51,3.88.52,8.79.02,12.7.51-1.33.54-2.84.26-4.36.77-.68.22-1.24.78-1.92.9-2.72.48-6.05,0-8.98,0s-5.94-.21-8.6.38c5,.56,11.77.43,16.68.26-.88.42-1.41,1.68-2.44,1.92-1.46.35-3.79,0-5.77,0h-5.77c-4.12,0-8.13-.33-11.16.51,7.1.55,15.14.17,22.45.51-.15.58-.35,1.1-.64,1.54-2.09.25-6.27-.56-7.95.51,2.17.47,5.67.18,7.7.39-.25,1.21-.26,2.65-.38,3.98-1.59.46-4.56-.46-5.52.64,1.45.52,3.79.14,5.64.26.13.56.78,1.27.64,1.67-3.77.21-7.94-.61-11.16.26,3.5.82,8.57.07,12.45.51-.15.58-.19,1.27-.38,1.8-12.8,0-25.6-.59-38.23.25.82.52,2.21.58,3.21.64,6.99.46,14.75-.69,22.07-.26-.99,1.8-2.53.97-4.36.77-1.97-.21-3.63.57-4.88.77-2.92.46-6.65.13-9.88.13-3.43,0-6.75,0-9.62.51,5.9.5,12.73.22,18.73.26-.55.56-.83,1.39-1.54,1.8-1.36.02-2.89-.02-4.36,0-1.44.02-3.04-.11-3.98.51,2.04.73,5.76.34,8.21.26-.2.53-.46.99-.38,1.8-1.96,1.04-3.42,2.57-4.36,4.62-7.75.17-16.13-.19-23.22.64,6.89.92,15.85.08,22.97.39.05.61-.04,1.07-.13,1.54-8.38-.21-17.37.08-25.79.26,1.71.97,3.98.43,6.16.51,6.43.26,13.92-.03,19.76.26-.02.32-.02.62.13.77-.66.37-1.63,1.42-2.7,1.54-.5.06-1.11-.22-1.67-.26-2.45-.16-5.41-.13-8.34-.13s-5.94-.2-7.95.51c5.28.7,11.75.22,17.45.51-1.26,1.52-2.2,3.37-1.93,6.41-4.37.11-9.48-.61-13.09.51,4.09.49,9.02.13,13.09.64.1.41.23.79.39,1.15-2.44.17-5.6-.38-7.44.39,1.85.37,4.22.23,6.41.26-1,.41-1.27,1.84-2.56,2.18-2.48.65-5.9-.74-8.08.38,2.14.77,5.63.19,8.08.64-.18.46-.13,1.15-.38,1.54-6.94-.13-15-.29-21.56.39,6.55.73,14.73.34,21.69.26-.22,1.82,1.44,2.38,1.41,3.59-5.79.06-12.69.16-18.73.38-2.13.08-4.4-.23-5.9.64,7.75.18,16.1-.15,24.12-.13-.52,2.56.55,5.24,3.46,4.36-.19,1.22,1.03,1.71.9,2.44-5.48.08-11.29-.17-16.17.51,5.18.51,11.57.49,17.07.26,1.2,1.46,4.37,2.01,6.54,1.02,1.98,1.28,4.21,2.29,6.8,2.95-2.04.36-4.93-.14-6.41.77,9.12.27,18.58.01,28.1,0,.76.61,1.84.9,2.69,1.41-16.03.14-32.28.68-48.37.77-2.15.01-4.45-.13-6.42.64,14.3.07,28.5.25,42.34-.38,14.08-.64,28.4.5,42.6-.13-1.76-.89-4.38-.4-6.42-.51-4.11-.23-7.88-.32-11.68-.51,5.1-1.43,12.13-.9,18.99-.9,14.47,0,27.87.39,41.83.39,2.91,0,6.03-.38,8.47,0,.53.08,1.19.54,1.79.64,5.11.85,9.69-1.5,14.75-1.28-1.25,2.35-5.11,1.38-8.72,1.54-6.66.29-14.27-.22-19.89.77,8.61.33,17.78.1,26.43.38-.22.59-.45,1.18-.77,1.67-9.67.08-18.31,0-27.07,0-1.3,0-3.25-.3-3.59.38.86.69,2.13.49,3.21.51,8.63.13,17.63-.1,26.05,0-1.06.38-1.47,1.2-2.44,1.41-2.04.45-4.83,0-7.19,0-10.52,0-20.44.25-31.31.25-9.17,0-19.04-.33-26.56.52,21.18,1.16,43.38-.29,64.54.38-.31.42-.07,1.39-.51,1.67-6.63-.08-14.2-.13-21.43-.13-6.49,0-12.94.07-18.86.77,12.55.52,26.34.09,38.75.39-.95.93-1.23,2.54-1.93,3.72-4.02-.09-8.34.26-12.57.26s-8.68-.39-12.19.64c7.89.56,16.64.16,24.63,0-.26.78.49,1.21.26,1.54-8.43.34-17.47.07-25.66.64,1.5.73,3.15.32,4.75.39,8.14.36,16.71-.1,24.76.26,1.43.06,3.05-.24,4.49,0,.64.11,1.16.6,1.8.77,1.22.33,3.02.46,4.23.26,1.02-.17,1.94-.95,2.95-1.16,1.84-.37,4.26-.52,6.42-.38,1.03.06,2.02.55,2.95.64,1.7.17,3.59.18,5.13-.13.68-.14,1.31-.57,2.05-.64,2.07-.2,4.34.14,6.93.26,3.73.17,7.77-.19,8.73,1.67-18.92.06-39.48-.44-57.74.64,5.19.74,11.26.26,17.06.26,14.15,0,28.34-.09,42.21-.13,2.19.94,4.52,1.31,7.18,1.03,1.42-.15,2.71-.95,3.98-1.03,4.1-.24,8.43.25,12.83.13,4.27-.12,8.56,0,12.83,0s8.6-.39,12.83-.26c4.25.13,8.59.45,12.45.13.6-.05,1.55.01,1.93-.77-12.08-.54-24.2.19-36.05-.26,6.12-.54,13.44-.17,19.63-.26.63-.19.6-1.03,1.03-1.41,13.18.22,24.42.4,36.82-.13-12-.66-24.82-.5-37.21-.77.03-.64-.73-1.15-.51-1.54,10.32.09,21.54.82,31.82.13-6.97-.7-15.92-.9-23.86-.9-2.25,0-6.4.53-8.34,0-1.28-.35-2.62-2.94-4.75-2.18-.08-.79-.1-.86-.13-1.67,4.6.24,9.39.16,14.11,0,4.72-.16,9.52.14,13.86-.51-8.18-.49-17.63-.38-26.3-.38-1.16,0-2.61.23-2.82-1.15,3.2-.01,5.8-.11,8.85-.26,1.87-.09,3.9-.62,5.52-.38,1.3.19,2.1.91,3.21,1.03,1.81.19,3.5-.37,4.75-.51,2.81-.32,5.88,0,8.85,0,8.71,0,17.53-.78,25.92-.64-.88-.67-2.13-.49-3.21-.52-8.36-.16-17.62-.08-25.66.38,1.07-.33,1.14-1.09,2.05-1.41,1.69-.59,4.3-.17,6.8-.26,2.34-.08,4.84-.13,6.93-.13,4.81,0,9-.42,13.47-.64,7.7-.38,15.48.48,22.33-.13-.69-.62-1.96-.6-2.95-.64-4.62-.22-10.32-.14-15.01,0,.27-.41.33-1.04.51-1.54,5.7.13,11.89.28,17.32.26-.3-.64-1.25-.43-1.8-.51-4.83-.68-10.88-.41-16.04-.64.01-.65-.27-1.01-.26-1.67.62-.02,1.35.07,1.8-.13.05-1.04-1.67-.3-2.05-.9-.02-.46-.62-1-.38-1.28,4.05.1,8.44.33,12.7.13Z"/>
      <path class="cls-1" d="m154.56,12.88c.22-.29.98-.05,1.41-.13-.46.46-.87.57-1.41.13Z"/>
      <path class="cls-1" d="m140.58,13.39c1.29-.09,3.44.06,5.13,0-1.19.65-2.15,1.53-2.82,2.69-.76-.91-1.43-1.91-2.31-2.69Z"/>
      <path class="cls-1" d="m153.66,15.45c-.26.77-1.09.97-1.41,1.67-3.35-.87-6.84.22-8.08,2.31-1.37-4.25,6.08-6.05,9.5-3.98Z"/>
      <path class="cls-1" d="m118.51,18.4c1.48-.23,3.44.15,5.26,0-.14.41-.26.85-.26,1.41-2.57.42-3.8-.24-5-1.41Z"/>
      <path class="cls-1" d="m121.2,20.71h2.31v1.8h-1.28c-.35-.59-.81-1.08-1.03-1.8Z"/>
      <path class="cls-1" d="m114.14,21.86c.5,1.08,1.61,3.42.51,4.49-.91-1.19-.86-3.33-2.31-3.98.4-.37,1.01-.53,1.8-.51Z"/>
      <path class="cls-1" d="m115.3,22.12c.33-.28,1.15.05,1.41.26-.02.86.27,2,.13,2.57-.21-.04-.22.12-.38.13-.7-.67-.48-2.25-1.16-2.95Z"/>
      <path class="cls-1" d="m98.49,23.02c1.79-.16,4.26.11,6.42,0-.43.75-1.69.29-2.57.39-.87.1-1.54.43-2.05.64-.68-.26-.98-.9-1.8-1.03Z"/>
      <path class="cls-1" d="m122.49,23.27c.43.04,1.04-.1,1.28.13-.32.24-.58.53-1.03.64-.1-.24-.22-.47-.26-.77Z"/>
      <path class="cls-1" d="m286.97,42.13c-.59-3.26,3.27-2.56,2.95-.26-.19,1.32-2.2,1.42-2.95.26Z"/>
      <path class="cls-1" d="m193.05,40.98c1.85.21,4,.11,6.03.13-.02.36-.24.53-.26.9-2.13.09-5.19.81-5.77-1.03Z"/>
      <path class="cls-1" d="m201.9,41.62c.74.5.91,1.58,1.8,1.93,2.18-1.11,5.16-.24,7.18.13-.02.41.34.43.26.9-.97,1.31-2.16-.45-3.46-.38-.29.14-.05.81-.13,1.15-2.56,1.38-8.68,2.06-7.57-2.56.16-.66.65-1.34,1.92-1.16Z"/>
      <path class="cls-1" d="m194.59,42.91h3.72c-.17.6-.13,1.41-.13,2.18h-2.57c-.33-.74-.77-1.37-1.03-2.18Z"/>
      <path class="cls-1" d="m195.87,45.86c2.7-.48,3.5.95,5,1.67-1.23.03-3.48-.02-5.13,0,.03-.57.21-.99.13-1.67Z"/>
      <path class="cls-1" d="m258.1,48.16c.73-1.6,4.44-.93,4.49.51.06,1.77-4.42,1.18-4.49-.51Z"/>
      <path class="cls-1" d="m61.93,50.99c0,.56-.04,1.15.13,1.54-1.57-.14-3.34.51-4.75.13-.93-.26-1.12-1.3-1.92-1.41,1.9-.37,4.64.11,6.54-.25Z"/>
      <path class="cls-1" d="m61.28,53.3c-.9.46-1.82.92-2.69,1.41-.17-.47-.43-.86-.77-1.15,1.04-.2,2.28-.2,3.46-.26Z"/>
      <path class="cls-1" d="m220.64,53.68c1.75-.3,4.06-.04,6.03-.13-.85.27-1.34.89-1.8,1.54-2.14.26-3.62-.14-4.23-1.41Z"/>
      <path class="cls-1" d="m221.15,57.4c-.87,1.4-4.19,1.95-4.88.26-.58-1.44.41-3.65,2.31-3.34,1.37.23,1.79,1.96,2.57,3.08Z"/>
      <path class="cls-1" d="m228.34,55.09c-.06.88-.96.93-1.93.9-.37-1.29,1.19-1.11,1.93-.9Z"/>
      <path class="cls-1" d="m195.87,55.61c6.51.03,13.18-.09,19.25.38.29.46.23.77.13,1.41-6.89-.04-14.04.19-20.4-.39-.4-.22.76-1.01,1.02-1.41Z"/>
      <path class="cls-1" d="m216.66,59.97c-7.77-.67-15,.25-22.84,0-.08-.48-.42-1.36-.13-1.8,6.96.09,13.94.18,21.04.13.59.53,1.74,1.17,1.93,1.67Z"/>
      <path class="cls-1" d="m235.39,58.69c.33.32-.96,1.16-1.28,1.67-4.74.08-9.08-.24-13.6-.39.87-.69,1.77-.87,2.31-1.67,4.07.25,8.16.48,12.57.39Z"/>
      <path class="cls-1" d="m248.99,59.33c-.3,1.02-.43,2.22-.9,3.08-1.61.38-2.66-.13-3.85-.51.31.84.87,1.44,1.8,1.67-2.62,1.59-4.5-.84-5.52-2.44-1.75.09-3.11,1.24-5.13.64.26-1.15,1.06-2.26,1.93-2.57.28-.1.81.08,1.28,0,.22-.04.55-.37.77-.38,1.27-.11,2.48.84,3.46.77.62-.04.9-.68,1.54-.9,1.74-.59,3.29.33,4.62.64Z"/>
      <path class="cls-1" d="m208.19,61.25c-1.49.95-4.07,1.35-6.41.9-.72-.14-1.35-.78-2.18-.9-1.99-.27-3.92.66-5.9.26v-.64c4.65-.2,9.73.28,14.5.39Z"/>
      <path class="cls-1" d="m250.15,60.87c.36.66.06,1.77-.38,2.05-.16-.46.47-1.24.38-2.05Z"/>
      <path class="cls-1" d="m233.85,61.25v1.54h-9.11c-3.08,0-6.6.56-8.98,0-.86-.2-1.28-1.22-2.18-1.28,6.51-.33,13.44-.25,20.27-.26Z"/>
      <path class="cls-1" d="m241.94,64.97c-5.62-.79-13.93.68-19.37-.13-1.51-.23-2.44-.86-3.72-.64-.37.06-1.22.79-1.41.77-.43-.04-.99-1.12-1.03-1.41,4.78.1,10.41.49,15.78.26,3.21-.14,6.59.56,7.96-1.03.65.59,1.5,1.67,1.8,2.18Z"/>
      <path class="cls-1" d="m202.93,63.31c.73-.3,2.01-.04,2.95-.13-.41.61-.85,1.2-1.03,2.05-.86-.42-1.14-1.42-1.92-1.92Z"/>
      <path class="cls-1" d="m203.7,66.51c-.56.59-1.29,1.02-1.8,1.67-3.21-.73-6.5.45-7.7,2.56-1.16-.98-2.31-1.97-4.49-1.92-1.5-3.9,4.5-6.08,8.72-5.52,2.64.35,3.55,2.89,5.26,3.21Z"/>
      <path class="cls-1" d="m262.46,68.31c-.06.71-.48,1.05-.51,1.8h-6.03c-1.96,0-4.15.39-5.9,0-.75-.17-1.35-1.02-2.31-1.16-1.56-.23-2.63.19-3.85.9-1.06-.3-1.95-1.05-3.46-.9-.88.09-1.58.97-2.57,1.16-.61.12-1.27-.1-1.92-.13-2.93-.13-6.47.1-9.75,0-.11-.58-.37-1-.51-1.54,12.3-.29,24.6.21,36.82-.13Z"/>
      <path class="cls-1" d="m248.87,71.13c-1.19.63-2.46.37-3.59.64-2.29.55-3.96,2.77-7.19,1.79.47-.23.38-.5-.13-.64.63-1.54,2.06-2.74,4.23-2.44.4.06.81.47,1.28.51,1,.09,1.9-.74,3.08-.64,1.02.09,1.41.5,2.31.77Z"/>
      <path class="cls-1" d="m226.28,70.87c3.39.2,6.9.28,10.52.26-.12.65-.48,1.06-.51,1.8-3.16-.22-6.66-.1-10.01-.13v-1.93Z"/>
      <path class="cls-1" d="m250.15,70.87c1.95.24,4.27.09,6.42.13-.87.63-1.85,1.15-2.69,1.8-1.71.08-3.03-.22-4.75-.13.6-.34,1.29-.59,1.03-1.8Z"/>
      <path class="cls-1" d="m297.62,71c-1.07.26-2.01.64-2.69,1.28-3.47.08-7.27-.17-10.52.13-.34-.43-1.31-.91-1.28-1.28,4.81-.06,9.89.14,14.5-.13Z"/>
      <path class="cls-1" d="m299.8,73.83c.46-.14.8-.4,1.16-.64,1.2.14,2.15-.13,2.82.51,1.05,1,.69,3.44.77,4.36-1.62,2.03-3.29.02-4.36-1.28-1.46.71-4.22.26-5.13-.77-.56-2.78,3.52-4.34,4.75-2.18Z"/>
      <path class="cls-1" d="m285.05,73.06h8.98c-.23.67-.72,1.07-.77,1.93-1.1-.26-1.9.35-2.82.13-.63-.15-1.03-1.09-1.8-1.28-1.1-.28-1.91-.06-2.95.51-.41-.23-.45-.83-.64-1.28Z"/>
      <path class="cls-1" d="m236.29,73.7c.11.36.41.53.39,1.03.49.05.85.14,1.41.38-1.59-.1-3.31.65-4.75.26-.93-.26-1.25-1.46-2.18-1.41,1.49-.31,3.61.02,5.13-.26Z"/>
      <path class="cls-1" d="m252.46,73.83c.38.24-.7,1.16-1.02,1.54-3.06.07-5.76-.23-8.85-.13.78-.5,1.72-.85,2.31-1.54,2.66-.09,4.92.21,7.57.13Z"/>
      <path class="cls-1" d="m290.95,75.75h2.31c-.05.7.24,1.04.51,1.41-.43.29-1.41.04-2.05.13-.2-.57-.65-.89-.77-1.54Z"/>
      <path class="cls-1" d="m233.98,76.52c-.02-.11.05-.12.13-.13,2.28-.1,4.16.2,6.42.13.46-.05.18.23-.13.13h-.64c-1.76.12-3.08.68-4.23,1.41-.72-.3-.89-1.16-1.54-1.54Z"/>
      <path class="cls-1" d="m292.1,77.93c2.92-.17,5.02,1.58,7.7.51.17.52.66.71.77,1.28-2.8-.07-5.24.24-7.95.26-.04-.81-.38-1.33-.51-2.05Z"/>
      <path class="cls-1" d="m216.27,89.86c1.72-.98,4.27-.78,6.67-.51.99.84,1.77,1.91,1.8,3.72-.08.56-1.26.02-1.28.64.61,1.4,1.88,2.15,2.57,3.47-.08,1.28.44,1.95.77,2.82.78-.2.43-1.54.51-2.44,1.49-1.03,3.4-1.14,5.13-.9,2.93.4,6.13,4.56,5.52,8.21-.07.42-.41.73-.38,1.15.06.88,1.06,1.26,1.15,2.05,2.09-.12,3.36.33,4.62,1.28.96.73,2.28,2.35,2.69,3.47.33.88.12,2.17,1.03,2.56.54.24,1.85-.17,2.57,0,.43.48,1.32,1.16,1.41,1.54-5.43.61-11.84-.42-17.06.26-1.61.21-2.82,1.41-4.36,1.28,0-.78,1.08-.46,1.03-1.28-1.21-.59-3.04.25-4.23.51.66-1.37,2.02-2.66,1.67-4.62-.94.63-1.37,1.83-2.05,2.82-.58.85-1.14,2.34-2.69,2.18.99-2.03,3.12-4.2,2.44-7.06-1.29,2.52-2.35,5.26-4.11,7.31-3.57-.38-5.92-2.33-9.5-1.41.85.83,3.58.51,4.36,1.8-4.22,1.49-9.35,1.67-12.7-1.54-.6-.57-.81-1.18-2.05-1.28-2.83-.24-6.13.15-9.37,0-5.85-.27-10.75.03-16.42.38-1.27.08-2.52.58-3.59.51-.58-.04-.96-.44-1.67-.38-.65.05-.83.36-1.41.64-4.02-.69-7.8-1.61-12.57-1.54-.27-2.49.98-3.46,2.56-4.11.75-1.19,1.77-3.54,3.85-3.85,1.09-.16,2.23.51,2.44-.51.12-.61-.41-.86-.77-1.15.69-3.23,3.2-5.64,7.06-4.23.43.08.31.71.77.77.9-.17,2.08-.06,2.69-.51-.04-.73-.59-.95-1.41-.9.39-1.13,2.97-1.46,3.98-.77.9-.84.38-2.46.51-3.59.24-1.98,1.48-2.92,3.08-3.47-.02.62-.03,1.23.26,1.54,2.42-1.5,2.74-5.26,5.39-6.67,1.86-1,5.56-.26,8.08-.13-.13.67-.13,1.23.51,1.41,1.09-.48,1.08-1.47,1.93-2.18,1.31-1.09,3.71-1.61,5.65-.9,1.06.39,2.93,2.63,3.21,0,.89-.95,1.83-1.85,2.82-2.69.58-.1,1.3-.07,1.67-.39-2.08-1.76-4.23,1.3-5.13,2.44.12-1.85,2-3.93,4.23-3.72,1.09.1,1.93.79,3.08.9,1.08,1.49,2.2,2.93,2.95,4.75-.38.91-.39,1.53.13,2.31Zm-13.73,2.44c1.16-1.27.32-4.57-.51-5.52h-.39c.39,1.75.37,3.91.9,5.52Zm.64,1.03c-2.91-2.63-9.72-1.91-11.55,1.15-.72-2.18-5.27-2.45-6.03-.13,1.72-.3,4.69-.56,5,1.28.27,1.61-1.9,3.29-.51,5,1.41-3.49,2.47-6.46,6.67-6.93,4.77-.53,6.16,3.27,9.62,3.98.01-.87-.65-1.06-.77-1.8,3.8-1.48,4.93,2.21,7.44,3.21.45-.95-.51-1.51-.64-2.31,1.12-2.13,3.61-2.89,5.13-4.62-3.06-.8-4.67,1.86-6.16,3.47-.94-2.08-4.64-1.87-6.67-.9-.31-.2-.57-.46-.77-.77.54-1.67.95-6.03-.77-6.67.08,1.41.58,4.32,0,6.03Zm4.23-5.13c.3,1.78-1.46,3.85-.26,4.87,1.16-.77,1.26-3.65.77-5.26h-.38c0,.16-.16.18-.13.39Zm-2.31,5.13c1.68-.48,1.47-4.7.13-5.39.48,1.85-.3,3.87-.13,5.39Zm3.59-.64c1.35-.22,2.24-3.08,1.15-4.11-.15,1.53-1.13,2.88-1.15,4.11Zm1.92-.39c1.28-.18,1.77-1.8,1.54-3.08h-.38c-.25,1.17-1.07,1.75-1.16,3.08Zm9.88-.64c0,.68,1.23.9,1.28.13.04-.74-1.13-.59-1.28-.13Zm12.19,7.06c.72,1.54,2.61,2.98,2.95,5.52.12.9-.18,1.83.64,2.69,2.22-3.25-1.33-8.49-3.59-8.21Zm-56.97,4.62c-2.1.16-4.22,1.41-3.34,3.72.99-1.45,4.8-3.14,4.49.64-.34.13-.79.15-1.28.13-1.01.43-2.92,1.24-2.69,2.05,1.96-.55,3.89-.92,5.77-.64.47-.33-.38-.7,0-.9,2.98-1.59,5.58-.47,7.57.9.89.61,2.19,2.18,3.08.64-1.5-1.22-3.92-3.69-6.16-3.98-1.88-.24-3.64.49-5.13.77-1.03-2.66,0-5.42,1.8-6.41-.18-.03-.22-.21-.38-.26-1.75.61-2.63,2.08-3.72,3.34Zm39.13-2.95c.16,1.21,1.15,1.59,2.18,1.92.07-.19.2-.31.38-.38-.16-1.11-1.82-2.24-2.57-1.54Zm8.73,5.77c.56-2.45-.79-4.97-2.56-5.9,1.1,1.71,1.88,3.77,2.56,5.9Zm-1.41,1.41c.85-2.61-1-5.6-3.21-6.41,1.49,1.71,2.36,4.06,3.21,6.41Zm2.95-4.75c1.02,1.97.46,5.52,1.03,7.95.92-.71.73-2.41.64-3.72-.13-1.79-.64-3.79-1.41-4.62h-.38c0,.18.06.28.13.39Zm2.05,9.24c.9-.04,1.07-1.07,1.16-1.8.27-2.35-.33-5.76-1.03-7.31-.18-.03-.22-.21-.38-.26.48,2.85.67,6.71.25,9.36Zm-6.16-3.72c.46-.91-.32-2.17-.77-3.08-.45-.9-1.05-2.16-2.05-2.31h-.25c1.31,1.51,1.28,4.36,3.08,5.39Zm8.21-4.87c.43,3.94-.71,6.99-.9,9.88,2.34-1.64,1.93-6.96,1.28-10.14-.16,0-.18-.16-.38-.13v.39Zm.13,11.29c2.55-1.19,3.35-5.85,2.95-10.01-.16,0-.18-.16-.38-.13-.27,3.88-1.67,7.31-2.57,10.14Zm-9.24-.26c-.28.54-1.02,1.21-.64,1.8,2.13-1.63,3.05-4.48,3.59-7.7-.16,0-.18-.16-.38-.13-.58,2.17-1.62,4.25-2.57,6.03Zm15.65-4.36c.99.03,1.05-1.87-.13-1.67-.33.22-.49,1.63.13,1.67Zm-45.42,0c.69.64,2.35.41,2.31-.77-.76-.61-2.01.11-2.31.77Zm45.93.77c.88.28,2.84-.36,3.72-.9-.59-1.97-3.63-.41-3.72.9Zm-16.04,6.03c1.36.05,2.31-1.57,2.95-2.69.71-1.25,1.47-2.99,1.15-4.62h-.38c-.47,3.2-2.57,4.79-3.72,7.31Zm-47.47-1.67c1.34-.5,1.08-2.61,1.41-4.11-1.12.59-2.01,2.64-1.41,4.11Zm-13.34-1.41c.25-.9.63-1.67,1.02-2.44-1.13-.65-2.74,2.23-1.02,2.44Zm11.8,1.54c.36-1.16,1.14-3.19.9-4.11-.99.65-2.5,3.19-.9,4.11Zm4.62,0c1.22-.7.76-3.09,1.67-4.11-1.53.32-1.97,2.39-1.67,4.11Zm-1.41.39c1.1-.78.77-2.99,1.41-4.24-1.49-.3-2.3,2.99-1.41,4.24Zm-12.7-1.54c.68-.39.4-1.74.77-2.44-1.16-.69-1.83,2.08-.77,2.44Zm1.54.25c.66-.45.26-1.96.64-2.69-.93-.46-1.77,2.3-.64,2.69Zm1.67-.13c.8-.33,1.01-1.87.9-2.7-1.04.08-1.73,1.94-.9,2.7Zm27.07.77c.39.09.47-.13.77-.13-.04-1.37.28-2.37.64-3.34-1.34.21-1.71,2.04-1.41,3.47Zm2.57-.13c.58-.79.46-2.28.77-3.34-1.12.11-1.98,2.91-.77,3.34Zm-27.71-.39c.65-.43.74-2.06.64-2.82-1.17-.11-1.63,2.39-.64,2.82Zm1.8.64c1.38-.2.72-2.45,1.54-3.21-1.5-.46-2.07,2.01-1.54,3.21Zm15.78,0c1.33-.27,1.92-1.92,1.67-3.34h-.38c-.26,1.2-1.47,2.1-1.28,3.34Zm12.45-.38c.02-1.03.53-2.18.51-2.82-1.04-.53-2.33,2.85-.51,2.82Zm-14.5.38c1.44-.11,1.63-2.12,1.67-3.21h-.38c-.38,1.12-1.17,1.82-1.28,3.21Zm3.72.13c1.25-.46,1.66-1.76,1.93-3.21-1.11.02-1.59,2.41-1.93,3.21Zm-7.18-1.02c1.07.1,1.46-1.47.9-2.18-.98.05-.83,1.22-.9,2.18Zm11.55.38c.85-.27,1.14-1.74,1.03-2.56h-.39c-.18.82-1.23,1.8-.64,2.56Zm7.95-.64c1,.1.76-1.04,1.03-1.67-.8-.75-1.51.78-1.03,1.67Zm-20.78-.26c.57.04.63-.91.38-1.28-.84-.14-.71.94-.38,1.28Zm3.59,1.16c.96-.08,1.34-1.37,1.16-2.18-.9.14-1.37,1.35-1.16,2.18Zm20.14-.64c.43-.26.55-.82.64-1.41-.85-.67-1.48,1.15-.64,1.41Zm2.44-.26c.54-.03.61-.68.13-.77-.15.15-.15.45-.13.77Zm36.82,2.31c1.53.32,2.15-1.35,2.18-2.95-.16,0-.18-.16-.38-.13-.37,1.26-1.19,2.06-1.8,3.08Zm2.05.38c1.68.03,2.21-1.69,1.8-3.34-1.22,0-1,2.48-1.8,3.34Zm-5.77-.64h.77c.34-.7.86-1.71.64-2.56-1.05.27-1.35,1.3-1.41,2.56Zm2.31-.25c1.26.06,1.25-1.15,1.41-2.18-.16,0-.18-.16-.39-.13-.5.61-1.05,1.17-1.03,2.31Zm-6.16-.39c.66-.15.8-.82,1.03-1.41-.18-.03-.22-.21-.38-.26-.36.37-.84,1.16-.64,1.67Zm1.54.51c.18,0,.28.06.39.13.6-.38.78-1.19.9-2.05-.8-.7-1.64,1.07-1.28,1.92Zm-27.33,1.02c.38.54,2.27.65,2.31-.25-.19-.7-2.46-.86-2.31.25Z"/>
      <path class="cls-1" d="m267.08,86.91c-1.75-.31-3.39.52-3.98,1.8-1.02-.95-1.96-1.98-3.34-2.57,2.05-1.36,5.87-.87,7.31.77Z"/>
      <path class="cls-1" d="m297.49,86.53c3.42-.3,7.4-.05,11.03-.13.4.26-.96.89-1.15,1.41-2.44-.47-6.47.63-8.6,0-.71-.21-.85-.92-1.28-1.28Z"/>
      <path class="cls-1" d="m315.33,87.3c-.73.98-1.29,2.13-3.33,1.79.02.33.19.5.51.52-.84,1.06-3.2,1-3.72-.13-.73-1.58,1.39-3.14,3.33-2.31.67-.41,2.71-.44,3.21.13Z"/>
      <path class="cls-1" d="m315.84,88.45c.93.51.22,1.57-.13,2.18-.61.09-.84-.18-1.16-.38.35-.68,1.15-.9,1.28-1.8Z"/>
      <path class="cls-1" d="m64.1,99.62c-4.31-.31-9.3.06-13.6-.26,3.23-1.88,8.41.3,12.57-.77.46.14,1.1.78,1.03,1.03Z"/>
      <path class="cls-1" d="m78.99,101.8c-1.24.3-3.04.04-4.49.13.91-1.7,2.8-.18,4.49-.13Z"/>
      <path class="cls-1" d="m245.79,107.7c-.02-.11.05-.12.13-.13,3.49.26,6.79-.04,10.39,0,.41.11-.23.17-.39.13-3.24.18-6.53.31-9.88.38,0-.22-.1-.33-.26-.38Z"/>
      <path class="cls-1" d="m271.45,107.83c-.22.3-.98.05-1.41.13.31-.37.93-.23,1.41-.13Z"/>
      <path class="cls-1" d="m219.23,119.76c-.34.26-1.13.06-1.54.26.26-.38,1.03-.5,1.54-.26Z"/>
      <path class="cls-1" d="m171.88,43.67c.07.53.95.24,1.15.64.84,1.58,2.3,2.85,2.57,5,.18,1.47-.43,3.43.13,4.49,1.12-1.2,2.18-2.24,4.11-2.05,2.1.21,3.97,2.33,5.39,3.08.46,1.12.95,2.21,1.28,3.46,1.22-1.29,0-2.54-.38-3.98-.06-.21.08-.58,0-.77-.6-1.48-2.21-2.22-3.21-2.82.4-2.76,1.55-4.78,2.31-7.18-1.93,1.41-2.68,3.99-3.34,6.67-1.4-.41-.45-2.55-.13-3.59.41-1.35.98-2.69,1.54-3.47,3.14-.53,6.21.12,7.7,1.67.58-1.8-1.37-3.24-3.34-3.34.67-.25,1.44-.49,2.31-.25,1.63.43,4.19,4.11,4.36,5.9.1,1.09-.46,2.15-.77,3.08,3.11,2.19-.27,5.42-1.67,7.18.2,1.43.32,2.93.26,4.62-1.83.82-3.62,1.69-5.13,2.82-2.15-.74-4.41.06-5.52,1.15-3.08-.38-6.06.52-6.93,2.82-.21.56.07,1.32-.51,1.8-.63-.41-1.8-.13-2.69-.38-1.02-.29-1.84-1.37-2.69-1.93-1.25-.81-2.67-1.72-4.75-1.28-1.18.25-2.63.94-3.72,1.93-1.49,1.34-3.15,4.05-3.59,5.64-.12.42-.12,1.04-.13,1.41-1.59.67-2.44,2.09-2.82,3.98-1.92.04-3.02.91-5.13.77-1.93-1.79-2.67-4.77-2.82-8.34-1.27,1.27-.42,4.65.26,6.29.48,1.16,1.4,1.95,1.54,2.82-1.29.21-1.89-1.47-2.44-2.56-.84-1.67-1.16-3.42-1.28-5.78-1.53,2.89.3,6.33,1.54,8.21.23.35.83.78.51,1.16-.33-.56-.63-.41-1.28-.51-1.46-2.15-2.55-5.55-1.8-9.11-1.67,2.22-.41,9.28,2.31,9.88-.53.71-1.44,1.04-1.67,2.05-.31-.22.28-1.07-.13-1.41-1.16.26-1.56,1.78-1.41,2.95.05.44.7-.19.64.13-.57,1.01-2.31.85-2.44,2.31-1.23.01-1.76.72-2.69,1.03-.75-1.22-1.67-2.26-2.82-3.08,1.12-3.37,2.09-6.89,5.52-7.95-.65-.95-1.68-.31-2.31.13-1.88,1.31-3.93,4.61-3.59,7.44-.32-.28-.79-.4-1.03-.77.65-3.29,2.03-5.84,4.36-7.44.48-.12,1.16-.04,1.28-.51-1.39-1.1-3.34.62-4.36,1.93-1.26,1.61-1.7,3.6-2.18,5.64-3.48-1.66-8.03.15-11.03,1.28-2.26-.5-4.44-1.42-6.8-1.28-3.54.2-5.69,2.52-7.44,4.49-1.39-.5-2.25-1.52-3.46-2.18-2.99-.16-5.4.25-5.65,2.82.96-.06,1.15-.99,1.92-1.16,2.78-.57,5.01,1.56,6.16,2.95.57-.37,1.31.08,2.05-.26.58-.27,1.33-1.34,2.05-2.05.66-.65,1.3-1.53,2.05-1.92,3.4-1.79,7.45-.41,10.01,1.67,1.44.01,2.75.02,3.21-.64-.14-.89-1.44-.61-1.8-1.28,2.24-.27,4.02-1.28,6.16-1.03,3,.35,4.49,3.27,6.67,4.36-.03.59.17.94.51,1.16,2.16-.53,4.02-1.37,5.9-2.18.25-.89-1.03-.8-.64-1.41.32-.23,1,.39,1.54.26,1.11-.26,1.21-2.81,2.05-3.72,1.13-1.22,3.54-2.51,5.65-2.69,1.49-.13,2.99-.01,4.11.38,1.15-.82-.11-4.04,1.03-4.87.8-.21.67.52,1.41.38.53-.78.04-1.51.13-2.31.28-2.53,3.51-5.84,6.03-6.41,2.85-.65,4.36.97,6.03,2.95.94-1.43,2.61-.46,4.11-.77,1.68-.35,2.77-4.22,5.52-3.98.43.04,1.02.1,1.15.9,1.98-.37,2.58-2.13,5.13-1.93.71.83,1.76,1.32,2.31,2.31-.06.4-.38.56-.39,1.03.7,1.62,3.49.05,4.75,1.15.46.39.23,1.48.9,1.67,1.57-.52,2.48-2.3,4.24-2.82,1.35-.4,3.04.16,4.62-.39.39-.12.28-.75.51-1.03,2.87-1.2,6.14.03,8.47.9.13-2.19-1.96-2.15-3.34-2.82.53-2.04,3-2.13,4.36-3.34-2.58-.69-4.68,1.3-5.39,3.34h-1.15c.72-2.41,3.69-5.09,6.54-4.23,1.15.34,3.07,2.72,3.21,3.98,2.47.14,3.52,1.69,4.36,3.46,1.2-1.35-.52-2.93-.64-3.72,3.1-.19,5,3.28,5.26,6.42.11,1.34-.11,2.66.39,3.34,3.91-1.91,6.98.85,8.34,3.08-.3.47-.99.55-1.16,1.15.08.47.47.64.77.9,2.29-1.24,5.03-2.7,8.73-1.93,1.22.26,2.2,1.95,3.21,2.05.92.1,1.97-1.03,3.08-1.16,4.03-.44,6.82,1.98,7.31,5.39-.85.05-1.56.24-2.05.64,3.03.8,5.82.82,7.57,2.82.78.89,1.28,2.94,2.31,2.95.67,0,.91-1.04,1.67-1.67.8-.67,2.52-1.53,3.85-1.16.6.17,2.35,1.46,2.69,2.31.4.99-.24,2.06.38,3.21.22,0,.33.1.39.26,2.36-.65,6.67-.59,8.21.77,1.92,1.7,2.87,4.78,3.46,7.57.97-1.81.15-4.19-.39-5.77-1.18-3.45-5.36-5.45-10.01-4.36.18-3.47-1.5-5.09-3.85-6.03-.74-4.32-8.81-5.15-11.68-2.18-1.38-2.85-2.77-5.7-6.41-6.29,1.81-2.29,4.29-5.59,8.08-5.52,1.28.02,2.28.66,3.59.13-.52,1.16-.73,3.02.13,3.98,1.06-3.1,1.68-6.62,5-7.44-2.21-1.04-4.08,1.21-4.75,2.95-.02-1.78.68-3.94,2.18-4.62,5.02-.39,8.15.79,10.14,3.72.46.68.57,1.55,1.28,1.54.68-.02,1.19-1.38,2.18-1.54,2.89-.46,2.75,2.26,4.88,3.21-.04.68.26,1.02.64,1.28,4.99-2.57,7.07,4.71,5.13,8.73,2.25.44,4.04.89,5.52,2.44,1.21,1.26,3.05,3.56,3.34,4.87.26,1.16-.51,2.25.13,3.34,5.51-1.99,6.71,4.47,8.08,7.83-2.07.2-4.25.29-6.42.38,1.12-1.27,2.55-3.31,2.05-5.39-1,1.35-1.32,3.39-2.56,4.49-.18.36-.23.85-.26,1.02-6.5.53-15.08.19-21.43.64-.77.06-1.73.17-2.31.39-.69.26-1.58,1.41-2.44,1.54-.83.12-1.52-.6-2.57-.51-.47.04-.59.35-1.03.51-1.59.59-4.63,1.29-6.54.51-.9-.36-1.67-1.24-3.08-1.41-2.09-.25-4.46.02-6.67.13-2.49.11-4.98-.11-7.31,0-.69.03-1.36.22-2.05.13-1.62-.21-2.98-1.28-4.62-1.03-.06-6.1-3.4-11.52-10.39-10.27-.98.18-1.5.83-2.31,1.41-.39-.59-.74-1.23-1.15-1.8.54-4.7-2.21-7.87-7.31-6.93-1.48-3.39-2.53-7.14-6.67-7.7-3.98-.54-6.19,2.23-7.83,4.75-3.23-.69-7.03,0-8.34,2.05-2.5-1.08-7.11-1.69-9.62-.39-2.07,1.08-3.14,3.05-3.98,5-2.13,0-2.84,1.44-3.98,2.44-.21-.18.19-.83-.26-1.03-1.31,1.43-2.38,3.1-3.21,5.01.96.74,1.77-.53,2.05-1.28.38.52-.17,1.19,0,1.93-.9-.43-1.87.27-2.69.38-1.88.26-4.29-.14-6.67,0-1.36.08-2.65.41-3.98.51-1.37.1-2.75-.07-3.98,0-1.64.09-2.98.69-4.36.9-1.15.17-2.64.35-3.34.26-.6-.08-.99-.57-1.54-.77-1.03-.37-2.63-.74-3.72-.77-.84-.02-1.67.41-2.44.51-1.97.26-4.35.11-6.42,0-8.72-.45-18.38-.21-27.46-.26-.2-.41.47-.75.77-1.16.88-1.21,1.81-3.31,1.92-4.87-1.08.58-1.36,1.93-1.92,2.95-.57,1.03-1.46,1.93-1.8,3.08-2.29.02-4.31-.22-6.67-.13.62-1.63,2.09-3.69,1.8-5.39-.82.52-1.03,1.7-1.41,2.56-.42.94-.87,1.87-1.15,2.82h-1.03c-.3-.32.3-.56.51-.9.65-1.05,1.12-2.71,1.41-4.11-1.43.8-1.85,3.7-3.08,5.13-5.57.35-12.54-.1-18.09.51-1.1.12-2.02.53-3.08.39-1.16-.16-2.02-.86-3.21-.64-.63.12-1.14.76-1.8.9-3.61.76-7.43-.34-8.98-2.31-1.35-1.01-4-.45-6.42-.64-1.77-.14-3.73-1.06-6.16-.64-1.33.23-2.71,1-4.23,1.15-4.04.41-7.14-1.08-9.88-2.18-.45-.18-1.14-.58-1.54-.64-1.13-.19-2,.36-2.95.26-2.18-.23-3.06-2.02-4.49-3.47-1-.28-2.05-.51-2.56-1.28-.07-1.18.05-2.17.51-2.82-.06-1.62-1.26-3.14-.9-5,.35-1.76,2.21-2.73,3.34-3.72.5-.06.46-.14.77.13.15-.53.7-.67.9-1.16-.03-.39-.46-.39-.64-.64-1.34-7.15,3.75-7.89,6.41-11.04-.49-.71-1.21.24-2.05,0-1.1-3.98,1.91-6.03,4.23-7.44.16-.71-.29-.82-.64-1.03.93-2.55,3.33-3.7,5.52-4.23.28-.07.84-.14,1.15-.13.93.03,1.84.92,2.69.9.64-.02.92-.58,1.41-.77.97-.37,2.75-.69,4.23-.39,1.76.36,2.67,2.55,3.98,3.72,2.4,2.15,3.32-1.66,5.77-2.18.31-.07.54-.06.9.13.24-.4.79-.49.9-1.02-.04-.69-.77-.68-.9-1.28.17-1.12-.43-3,.51-3.34,1.11,1.68,1.41,4.15,4.11,4.23-1.19-2.15-2.79-3.87-2.82-7.18-.65.04-.89.48-.9,1.16-.37-.4-.88-.66-1.54-.77-.32-2.08-.67-4.3-.13-6.03.31-.97,1.36-2.29,2.05-2.95,1.84-1.76,4.99-2.14,8.21-1.8-.35.57-.31,1.59.13,2.05,1.51-1.91,3.11-3.73,6.03-4.23.15-.64-.55-.72-.77-.77-1.78-.38-3.58,1.88-4.88,1.41.54-2.57,5.69-2.7,8.34-2.44.67-.19.55-1.16.77-1.8,1.13.13,2.09-.24,2.95,0,.86-.65.45-1.47.77-2.31,1.37-3.58,8.54-4.43,11.93-2.31.3.25-.25.83.13,1.16,1.77-.61,4.73-2.48,6.67-.9,1.32-.28,1.1-1.75,1.67-2.69,1.3-2.17,4.49-4.03,7.57-3.59.53.07,2.22.7,2.95,1.03.86.38,1.4,1.34,2.44,1.41.31,1.23.92,2.15,1.03,3.59-1.05-.11-1.99-.32-3.08-.38-.06-.63.13-1.5-.13-1.93.1-.59.59.37,1.16.13-.95-3.38-8.58-2.89-9.62.77.98.18,1.74-.9,2.7-1.16.42,1.73,2.66,4.48.77,5.77-.43-1.75-1.07-3.3-2.57-3.98.76,1.51,1.68,3.97,2.18,6.16-1.02.59-2,.3-2.95.64-2.15.77-2.77,3.85-2.57,6.54-2.42-.03-3.41,1.38-3.34,3.85-4.56-1.49-8.53,2-7.19,7.31-3.1-2.41-8.39-.84-9.36,2.18-.88-1.41-4.38-1.61-4.88.26.75.68,1.25.03,2.18.13.89.09,1.52.91,2.18.9,1.12-.02,1.89-1.64,2.69-2.05,2.6-1.35,5.54.91,7.96-.39-.26-4.77,2.29-7.53,7.44-7.44.3-.88.12-2.49,1.16-2.95,3.45.88,2.73-4.39,4.11-6.42,1.46-.87,3.5-.83,5-.64.39.51.42,1.37,1.28,1.41,1.09-.75,1.75-1.93,2.31-3.21-.53-.6-1.72.1-2.05.51-.77-.34-1.52-.7-2.69-.64.48-3.46,5.54-5.39,8.21-2.44.54-.15,1.19-.18,1.03-1.03.25.51.61.03.51-.51,2.58-1.64,6.63-2.17,8.85-.13.85.78,1.08,2.21,2.05,2.69-.37.39-.18.93.13,1.28,2.21-.84,6.62-2.46,8.73-.64.24,1.13.63,2.1,1.02,3.08.68-.48.66-2.26.51-2.82-.76-2.95-6.75-3.14-9.37-1.8-.92-3.27-3.49-4.89-7.7-4.88-1.02-4.57,1.23-7.98,5-8.6-1.43-1.24-3.78.46-4.62,1.41-1.55,1.75-1.77,4.75-1.67,7.44-1.29-.34-1.36-2.31-1.15-3.85.26-1.91,1.6-4.55,3.46-5.65,3.02-1.77,8.63-1.3,10.65.9,1.8,1.96,2.42,3.75,4.11,5.52-.69.5-1.19,2.35-.13,2.82,1.46-2.06,2.25-4.44,5.26-4.88,1.4-.2,2.78.5,4.11,0,.66-.25.9-1.14,1.41-1.54.75.07,1.44.19,2.31.13,1.99,1.01,2.52,4.46,1.93,6.93,3.09-1.88,1.07-9.02-3.08-8.34,1.21-1.29,3.75-2.42,5.77-1.28,2.37,1.33,1.58,5.09,3.59,6.93.91-.2,1.25-.97,1.15-2.18,1.31-.87,2.86-1.51,5.26-1.28,2.16,1.47,2.48,4.78,2.95,7.95.59.4.67-.65,1.28-.64,2.14.09,3.75.7,4.49,2.18-.01,1.51-.07,3.06.26,4.24,3.4,1.17,5.93,5.7,4.11,9.75h-1.28c-.14-2.46-.97-4.25-3.08-4.75-.03,1.64,2.63,3.77,1.03,5.77-.1.71,1.15.28.64,1.03.47,0,.34-.6,1.03-.39-.48.76-.92,1.56-1.54,2.18-.07-3.26-.86-5.81-2.69-7.31.52,2.51,1.79,5.39,1.41,9.24.07.4.3.64.64.77-.07.61-.19,1.18-.13,1.92-1.15-.08-1.86.28-2.82.39-.03-1.45-.48-2.92-1.16-4.11-.8-1.41-2.54-3.76-4.23-2.44Zm5.26,4.49c.18,0,.28-.06.39-.13-.08-2.62-1.05-5.45-2.95-6.67,1.03,2.09,2.04,4.2,2.57,6.8Zm-7.57-29.64c-.4-.08-1.51-.21-1.41.77,2.87.29,2.94,3.39,4.11,5.39,1.12-1.83-1.4-5.91-2.69-6.16Zm-1.28,1.28c-.05.18-.15.22,0,.38,2.41.75,1.62,4.71,2.82,6.67,1.05-2.47-.15-7.1-2.82-7.06Zm-79.04,10.65c1.1-2.07,1.83-3.74,4.36-4.23.86-.17,2.13.23,2.82-.64-4.02-1.11-8.26.9-7.18,4.87Zm19.25-4.75c.92,1.18,1.2,2.99,2.44,3.85-.35-1.67-1.13-3.56-2.44-3.85Zm1.03,4.11c.33-1.71-1.01-2.83-2.18-3.46.68,1.19,1.57,2.2,2.18,3.46Zm67.1-3.21c1.3,1.06,1.24,4.23,1.03,6.03,2.14-.76,1.57-6.65-1.03-6.03Zm-86.35,4.49c1.61-.71,2.16-2.41,3.59-3.34.52-.33,1.15-.29,1.41-1.03-2.86-.25-4.43,1.9-5,4.36Zm34.26-2.31c2.36-1.55,5.68.11,7.83.26-.68-2.15-7.48-2.72-7.83-.26Zm1.03,1.15c1.01.85,2.74-.26,4.23,0,.91.16,1.26.97,2.05.64-.07-2.18-4.91-1.73-6.29-.64Zm28.87-.13c-1.97-.55-3.03.66-4.23,1.03-.74.22-1.9-.26-2.18.64,2.52.09,4.96-.36,6.42.64,2.11,1.45,1.75,4.62,3.59,6.16.52.43,1.17.29,1.54,1.03,2.86-1.95,4.79.82,6.93,1.8-.26-3.23-3.65-4.64-6.93-3.34-1.01-3.29-2.01-7.09-5.13-7.95Zm-28.74,1.8c2.82-.33,4.53,1.5,6.16,1.15-.5-1.99-4.55-2.5-6.16-1.15Zm16.81,6.03c1.35-1.66-.58-6.27-2.69-6.41-.1.03-.25,0-.26.13,2.05.95,2.74,3.93,2.95,6.29Zm-.9,1.03c1-2.82-1.09-5.59-3.08-6.67h-.26c1.59,1.75,2.53,4.14,3.34,6.67Zm-4.36-5.65c1.33,1.95,2.71,4.44,2.95,7.06,2.11-2.24-1.08-6.69-2.95-7.06Zm8.34,7.06c1.52-.65.97-4.65.38-5.9h-.38c-.02,1.62-.07,4.64,0,5.9Zm1.41.64c1.25-.91,1.55-3.23,1.41-5.13-.16,0-.18-.16-.38-.13-.29,1.8-.75,3.45-1.03,5.26Zm-80.7-2.31c-1.27,1.59-2.4,5.79-.38,6.55-.61-4.6,1.65-6.82,4.23-8.47-1.24-.63-2.92.76-3.85,1.92Zm52.73-2.05c-1.74.42-4.27,4.05-3.72,5.77,1.27-1.45,2.13-3.13,3.59-4.36.49-.41,1.35-.51,1.28-1.41-.33.08-.73-.11-1.15,0Zm-4.49,1.67c0-.13-.1-.16-.13-.26-2.32.59-4.06,2.44-3.72,5.26.81-2.14,2.15-3.76,3.85-5Zm-.38.9c-.68.97-1.65,2.24-1.41,3.59.8-.89,1.41-1.96,2.18-2.95.76-.99,1.72-1.93,2.05-2.95-1.41-.02-2.19,1.41-2.82,2.31Zm-2.44-1.16c-1.28,1.21-2.89,2.75-2.69,5.01.9-1.15,1.21-2.63,2.18-3.72.4-.44.97-.61,1.29-1.15-.15-.15-.45-.15-.77-.13Zm-43.88,8.73c-.26-3.25.3-6.34,1.8-8.21-2.52.6-3.99,6.12-1.8,8.21Zm107.9-5.77c.69.96,1.12,2.16,1.54,3.47.42,1.3.43,2.87,1.28,3.85,1.09-2.97-.94-6.45-2.56-7.83h-.26v.51Zm-105.21,2.95c.21-.65.21-2.18,0-2.82-.56.44-1.05,2.62,0,2.82Zm93.15,4.49c1.66-.92,1.16-5.21,0-6.29h-.39c.5,1.39.61,4.03.39,6.29Zm1.41,1.15c1.75-.87,1.83-5.5.64-7.06.2,2.37-.54,5.05-.64,7.06Zm2.95-5.77c-.27.7-.04,1.31-.13,1.93-.27,1.88-1.76,3.16-1.54,4.49,1.97-.84,3.07-4.2,2.05-6.8h-.38v.39Zm-56.33,5.26c1.36-1.09,1.82-2.89,3.21-3.98.5-.39,1.15-.41,1.41-1.15-2.25-.65-4.82,3.27-4.62,5.13Zm-8.98-2.69c-1.09,1.13-2,2.96-1.54,4.24,1.08-.92,1.17-2.45,2.05-3.47.8-.92,1.87-1.29,2.82-2.05.36-.24,1.15-.05,1.03-.77-1.15-.43-3.37,1.02-4.36,2.05Zm7.31,3.85c1.17-.26.95-1.74,1.28-2.56.58-1.45,1.73-2.52,2.44-3.59-2.34.88-3.87,3.22-3.72,6.16Zm.51-5.39c-.77.76-2.36,3.05-1.03,4.24.72-1.16.72-3.05,1.41-4.24h-.38Zm58.76,3.85c1.79.53,3.26-2.84,1.92-3.85-.53,1.4-1.12,2.73-1.92,3.85Zm14.63,2.44c1.16-.5,1.29-2.03,1.8-3.08.56-1.16,1.3-2.13,1.8-3.21-2.23.99-3.76,3.33-3.59,6.29Zm-61.84,3.85c-.42-.97-1.17-.91-1.67-1.8-1.2-2.13-.64-5.28-1.16-8.08h-.38c-1.01,3.5-.84,10.68,3.21,9.88Zm-19.37-3.21c1.37-1.49,1.84-3.89,3.46-5.13.52-.2,1.32-.68,1.16-1.16-2.89.66-4.52,3.26-4.62,6.29Zm21.56,1.8c-2.01-1.46-2.53-4.4-2.69-7.7-.16,0-.18-.16-.38-.13-.52,3.11-.39,8.29,3.08,7.83Zm61.71-2.57c1.18-1.81,2.25-3.74,3.72-5.26-2.17.3-4.07,3.47-3.72,5.26Zm-68.77,3.21c-2.37-.79-1.27-5.06-1.93-7.57-1.22,2.28-1.03,8.16,1.8,7.95,0-.16.16-.18.13-.39Zm.51.77c.33.26,1.43.77,1.8-.13-2.66-1.14-1.77-5.84-2.56-8.85-.97,2.05-.92,7.67.77,8.98Zm8.73-3.98c-.73-1.66-1.85-2.94-2.31-4.87h-.38c-.2,2.15.9,4.71,2.69,4.87Zm-19.25-4.23c-.97.89-2.88,2.67-2.95,4.36-.02.35-.21,1.24.51,1.28.93-1.98,1.8-4.01,3.08-5.64h-.64Zm83.65,4.11c2.09.22,2.29-3.14.64-3.59-.24,1.1-.52,2.8-.64,3.59Zm-3.21,2.95c1.26.17,2.32-1.6,2.18-2.82-1.15.52-1.51,1.82-2.18,2.82Zm.77,1.41c1.61-.54,2.95-2,3.34-3.34-1.45.71-3.15,1.79-3.34,3.34Zm.26,1.15c2.09.16,3.02-.83,3.59-2.18-1.43.5-2.87.98-3.59,2.18Zm-142.55,3.98c-.28-.78-1.02-.54-1.54-1.03-1.11-1.04-1.08-3.11-1.8-4.62h-.38c-.15,2.61.72,6.61,3.72,5.65Zm45.68,5.65c-.08-1.24-.51-2.61,0-3.72,1.25-.9,1.61-2.23,3.08-2.7,3.15-1,5.68,1.54,8.21,1.8-.08-1.16-.75-1.73-1.28-2.44.04-1.41-.05-2.96.51-3.85-1.13.53-1.73,1.61-1.67,3.34-.87-.39-1.58-.79-2.44-.9-3.77-.49-4.93.79-6.42,2.57-1.28,1.53-1.93,2.46-1.41,4.88-1.46,1.11-2.37,2.76-2.18,5.52-2.07,1.99-3.01,5.12-3.85,8.34-.49-.6.01-1.08.13-1.67.33-1.69.44-3.34,1.15-4.75.73-1.44,1.92-2.13,2.31-3.46-.93-.04-1.94,1.01-2.56,1.8-1.32,1.66-2.34,4.37-1.93,6.8-.71-.45-1.26-1.05-2.31-1.16.17-.29.51-.42.38-1.03-1.39-.15-1.26,1.22-2.44,1.29.2-1.14,1.68-1.64,1.54-2.7-2.46.02-2.23,3.42-4.11,3.59.84-2.15,2.21-3.78,3.98-5,0,.35.29.62.51.38.35-.65.36-1.42.64-2.05.73-1.63,2.29-2.69,2.69-4.11-1.94.84-2.87,2.69-3.72,4.62-2.65,1.02-5.31,3.37-5.77,6.54-.14.94.27,2.2-.64,2.82-.66-2.42-2.52-3.64-5.26-3.98.69-1.15,2.54-1.14,2.82-2.7-1.76-.52-3.83.76-3.98,2.7-2.69-.39-3.88.74-5.13,1.79.06-.44-.05-.72-.13-1.02.42.07.6-.09.9-.13,1.66-1.34,3.5-3.11,5.64-3.98.5-.2,1.25.18,1.41-.64-3.72-.58-5.88,2.46-8.21,4.11-.47-2.44-2.9-2.92-4.49-4.24.4-3.98-2.82-6.39-6.42-4.75-2.02-3.08-8.28-5.58-12.06-2.44.96,1.19,2.87.09,3.98,0,4.24-.35,6.33,3.42,8.73,5.39.58-.34-.12-1.2.13-1.54,3.44-1.18,4,2.53,4.75,4.87.84.16,1.82.59,2.44,1.03,1.6,1.12,1.61,2.91,1.92,4.87.14.84.21,1.97.9,2.57.51-.26.32-1.22.51-1.8,1.35-.44,2.12-1.8,3.59-2.06,2.57-.44,5.37.57,6.67,2.31,1.17,1.57,1.04,3.3,2.57,4.36,1.08-.89.13-1.77.13-2.82,0-1.15.68-2.52,1.67-3.21.86-.6,2.44-1.3,3.59-1.15,1.47.19,2.58,1.94,3.98,2.57,1.51-1.44,1.1-4.8,2.44-6.41-.05.61.15.96.38,1.28,1.28-.35.46-2.79,1.41-3.47.42.82,1.19,1.29,1.93,1.8-3.27,1.93-6.52,6.33-4.75,11.29-.67.77-1.83,2.66-.64,3.72.76-.56.81-1.48,1.28-2.18.65-.97,2.01-1.47,2.18-2.82-.38-.42-1.31.16-1.41,0-.55-3.9,1.86-6.91,4.11-8.34.96-.61,2.17-.84,2.69-1.93-1.11-.56-3.01-.33-3.59-1.41.12-1.56-.19-4.05.26-5.64-1.78.13-.95,3.45-1.15,4.75-1.02-2-.43-5.24,1.8-5.52Zm-45.03-6.29c-1.02-1.16-1.83-2.53-2.44-4.11-.09,1.8.44,3.98,2.44,4.11Zm-2.82,1.15c-1.85-1.02-2.26-3.47-3.46-5.13-.09,2.25,1.13,6.15,3.46,5.13Zm-1.28,1.41c-1.24-1.63-2.71-3.02-3.59-5.01h-.38c.69,2.23,1.4,5.1,3.98,5.01Zm12.7,4.23c1.2-2.6,2.04-5.57,3.33-8.08-1.99,1.21-4.88,5.94-3.33,8.08Zm1.8.77c1.17-.84,1.33-2.56,1.93-3.85.64-1.4,1.37-2.63,2.05-3.85-.03-.1-.11-.15-.26-.13-1.87,1.98-3.6,4.1-3.72,7.83Zm21.81-4.36c1.19-.82,2-2.02,2.82-3.21-1.46.47-3.05,1.47-2.82,3.21Zm-38.11.9c-1.04-.93-1.89-2.04-2.95-2.95-.03,1.43,1.11,3.39,2.95,2.95Zm37.59,2.44c1.22-.24,1.77-1.48,2.44-2.31.69-.87,1.55-1.68,2.05-2.69-2.22.94-3.76,2.57-4.49,5Zm-19.76,1.03c1.58-.27,1.69-2.2,2.44-3.33.36-.54.95-.74,1.03-1.41-2.07.67-3.02,2.46-3.46,4.75Zm23.35-3.21c-.97.93-2.15,2.25-2.18,3.59,1.84-1.28,2.88-3.37,4.62-4.75-.94,0-1.84.58-2.44,1.15Zm-21.81,4.23c1.13-.66,1.49-2.17,2.44-3.08.58-.56,1.74-.82,1.54-1.8-2.12.75-3.9,2.5-3.98,4.87Zm85.84,2.69c1.27-1.47.79-4.68,1.93-6.29-1.7.49-2.47,4.32-1.93,6.29Zm3.72-5.9c-.9,1.77-2.98,4.2-2.05,6.54.95-2.04,1.53-4.46,2.44-6.54h-.39Zm-.77,6.93c1.05-.66,1.08-2.13,1.54-3.21.5-1.19,1.27-2.07,1.8-3.08-2.23.39-3.28,3.73-3.34,6.29Zm-8.08,5.77c1-1.33.25-3.21.26-4.75.02-2.89,1.68-4.76,2.44-6.93-3.7.59-5.38,8.14-2.69,11.67Zm-102.13-4.87c-.07,0-.14.11,0,.13,1.7-2.37,3.97-5.37,8.34-4.24-2.46-3.33-9.48-.5-8.34,4.11Zm24.38-2.69c1.36-.56,3.05-1.5,4.75-1.8.67-.12,1.68.29,1.92-.64-2.63-.58-5.92.3-6.67,2.44Zm13.47-2.56c-1.94,1.14-4.51,2.33-4.49,5,1.38-1.91,3.23-3.35,5.13-4.75-.25-.05-.23-.37-.64-.26Zm8.6,0c-1.46,1.14-3.1,3.31-3.33,5.77-.06.61-.25,2.11.51,2.44.56-2.23.81-4.07,1.8-5.65.55-.88,1.42-1.62,1.54-2.56h-.51Zm-12.19,6.03c.85.1.93-.84,1.28-1.28.77-.97,1.82-1.81,2.7-2.69.25-.18.52-.34.9-.38-1.67-1.59-5.06,3.06-4.87,4.36Zm-5.52-4.62c-1.48.27-3.69,1.55-3.98,2.82,1.54-.06,2.88-1.5,4.62-1.92.56-.14,1.37.27,1.67-.51-.55-.54-1.54-.53-2.31-.38Zm-20.01,9.62c-.31-2.46-1.77-5.86-.9-9.11-.18,0-.28-.06-.38-.13-1.1,2.88-.42,7.55,1.28,9.24Zm-1.8.51c-.38-2.53-1.26-5.67-1.03-9.24-.03-.14-.14-.2-.26-.26-.66,2.85-.78,8.12,1.28,9.49Zm28.1-4.62c-.03.3-.18,1,.39,1.16.97-1.03,1.52-2.16,2.56-3.08,1.01-.9,2.27-1.59,3.08-2.69-2.06.06-5.83,2.38-6.03,4.62Zm-40.29-4.36c-1.05.59-2.06,2.15-2.18,3.85-.06.9-.03,2.06.51,2.57.69-.53.41-1.46.51-2.18.24-1.61,1.08-2.82,1.54-4.11-.17,0-.18-.17-.39-.13Zm34.39.64c-1.73.7-4.6,2.36-5.39,3.85,1.35.36,2.45-.97,3.59-1.67,1.29-.79,2.63-1.27,3.98-1.93-.53-.35-1.85-.39-2.18-.25Zm205.55.13c0,.16-.16.18-.13.39,1.82,1,1.92,3.73,3.21,5.26.87-2.26-1.06-5.45-3.08-5.65Zm-229.03,9.24c-1.05-2.71-1.37-6.16-2.05-9.24-.4,3.23-.35,7.98,2.05,9.24Zm-4.49-1.54c.18,1.78,1.31,2.62,2.44,3.47-.05-1.33-1.57-2.95-2.44-3.47Zm2.57,1.93c-.21-1.88-1.25-3.84-1.54-6.16-.08-.67.05-1.38-.26-2.06-1.25,2.15-.03,8.19,1.8,8.21Zm109.7-4.87c.42-.9-.34-2.59-1.28-2.95-.26,1.21.22,2.66,1.28,2.95Zm-115.22,1.03c-.38-.99-.63-2.1-.51-3.59-.16,0-.18-.16-.38-.13-.76.96-.49,4.15.9,3.72Zm114.58.38c-1.34-.8-1.61-2.66-2.57-3.85-.57,1.9,1.17,5.6,2.57,3.85Zm-112.27,1.41c-.01-1.45-.74-3.28-.77-5.13h-.39c-.42,1.62-.6,4.88,1.16,5.13Zm108.68,0c.48.75,1.87,2.12,2.44.64-1.99-.92-2.77-3.05-3.08-5.64h-.38c-.28,1.85.15,3.65,1.03,5Zm-56.33,5.9c.12-3.13.02-6.48,1.8-7.96.2-.03.02-.21-.13-.26-2.18.63-3.41,6.53-1.67,8.21Zm90.46-5.78c.56-.6,1.29-1.02,1.41-2.05-1.1-.57-2.29,1.45-1.41,2.05Zm-88.15,5.26c-.28-2.1-.03-5.02.9-6.67-1.68.07-3.3,5.71-.9,6.67Zm-60.82-5.77c-.29,1.33-.42,2.78-.26,4.11.32,2.56,2.17,6.14,4.36,6.67-1.05-2.25-2.77-4.02-3.34-6.8-.26-1.29-.14-2.64-.39-4.23-.03-.1-.11-.15-.26-.13,0,.17-.16.18-.13.39Zm63.25,5.39c-.53-1.63-.36-3.57-.13-5.39-1.94.21-1.76,5.73.13,5.39Zm-60.43,1.54c.53,1.19,1.48,2.87,2.69,2.31-1.15-2.1-2.59-4.11-3.21-6.8-.15-.64-.07-1.36-.26-2.06h-.39c-.33,2.53.33,4.68,1.16,6.55Zm-3.98.9c.53,1.42,1.25,3.24,2.57,3.46.3-.94-.54-1.58-.9-2.31-1.11-2.27-1.91-4.91-1.92-8.34-.16,0-.18-.16-.38-.13-.7,2.46-.17,5.12.64,7.32Zm4.75-5.01c.26,2.05,1.69,4.94,3.34,4.49.04-.75-.75-1.14-1.16-1.8-.79-1.28-1.42-2.92-1.67-4.75h-.38c-.13.64-.22,1.31-.13,2.05Zm4.75,2.7c-.7-1.61-2.15-2.47-2.44-4.49-.18-.03-.22-.21-.38-.26-.31,2.24.99,4.65,2.82,4.75Zm140.75-1.93c1.15-.78,2.47-1.38,3.08-2.69-1.71.22-2.93.92-3.08,2.69Zm-104.95,2.7c.44-.5.31-1.57.38-2.44.53-1.31,2.01-1.67,2.82-2.69-2.71-.63-5.25,3.02-3.21,5.13Zm60.04-2.31c-1.33,1.8-2.29,4.23-1.15,6.03.72-1.85.88-3.64,1.8-5.13.92-1.5,2.2-2.35,3.46-3.47-1.58-.65-3.07,1.16-4.11,2.57Zm45.29,1.41c1.41-.39,1.85-1.74,2.95-2.44.32-.36,1.26-.1,1.28-.77-2.03-.63-4.24,1.38-4.23,3.21Zm-45.16,3.46c-.02.51-.14,1.28.51,1.54.83-3.11,2.25-5.62,3.85-7.95-1.96.89-4.29,3.78-4.36,6.41Zm-106.62.39c.46,1,.93,2.49,2.05,2.44-.37-1.96-2.13-3.48-2.44-6.03-.07-.58.05-1.21,0-1.93-.17,0-.12-.22-.26-.26-.83,2.12-.14,4.08.64,5.78Zm111.11-5.65c-.64,1.04-2.5,3.05-2.57,4.62-.02.46-.19,1.37.64,1.41.64-.36.46-1.12.64-1.67.48-1.43,1.45-2.72,1.67-4.36h-.38Zm-95.07.13c.65,2.26,1.86,3.96,3.98,4.75,1.87-.99-1.81-4.11-2.44-4.62-.11,1.4,1.28,2.39,1.92,3.46-1.44-.91-1.99-2.72-3.46-3.59Zm-18.35,3.59c.25,1.79,1.67,4.36,2.95,4.87-.72-2.28-2.93-4.17-2.44-8.08-.03-.1-.11-.15-.26-.13-.24.89-.41,2.22-.26,3.34Zm147.81-3.08c-3.4-.39-5.49,2.94-5.9,6.16.05.3.51.17.64.39-.41.4-.66,1.99,0,2.31,1.26-2.4,1.92-4.84,3.98-6.41.82-.63,1.83-.66,2.44-1.67-3.18-.31-4.91,2.61-6.03,4.36.65-2.69,2.71-3.96,4.88-5.13Zm-126.89,5.39c-1.56-1.47-2.7-3.38-3.98-5.13-.13,2.09,1.31,5.42,3.98,5.13Zm192.07-3.85c3.5.87,5.72,3,6.8,6.29.9-.04.97-1.02,1.41-1.54.65-.77,1.72-.92,2.31-1.8-.83-.96-2.34.05-3.08.38-1.07-2.06-4.58-5.34-7.44-3.34Zm-194.13,4.87c-1.36-1.51-2.8-2.93-3.59-5h-.39c0,2.37,1.58,5.48,3.98,5Zm129.59-4.23c-.37.47-1.03.71-1.54,1.15-1.64,1.41-3.98,4.15-2.95,6.93,1-1.45,1.18-3.01,2.18-4.36.95-1.29,2.1-2.33,3.08-3.59-.15-.15-.45-.14-.77-.13Zm-131.51,5.13c-.78-1.96-2.77-2.7-3.46-4.75h-.38c-.24,2.12,1.4,4.48,3.85,4.75Zm129.08,3.21c.91.05.97-.96,1.15-1.54.69-2.23,1.73-3.97,2.82-5.65-2.34.79-4.35,3.68-3.98,7.19Zm2.69-1.03c.93-1.25,1.34-3.02,1.93-4.62-1.61-.07-3.05,3.16-1.93,4.62Zm56.84-.38c1.23.02,2.24-1.95,2.31-3.08-.69,1.11-1.73,1.86-2.31,3.08Zm2.05-.64c-.64.69-1.58,1.32-1.67,2.18,2.07-.53,2.87-2.35,3.72-4.11-.17,0-.12-.23-.26-.26-.48.77-1.14,1.48-1.8,2.18Zm3.72-2.18c-.96,1.18-1.57,2.79-2.69,3.85-.65.61-1.72.88-1.8,1.8,2.78-.18,4.02-2.99,4.88-5.52-.16,0-.18-.16-.38-.13Zm-.64,3.85c-1.21,1.12-2.93,1.91-3.34,3.47,3.36-1.3,5.39-3.93,6.8-7.19-.03-.1-.11-.15-.26-.13-1.02,1.27-1.96,2.7-3.21,3.85Zm-188.99-2.05c-.53,1.01-1,2.07-1.54,3.08-.51.96-1.52,1.88-1.28,3.08,1.16.06,1.51-1.36,1.92-2.18.65-1.28,1.46-2.53,1.41-4.24-.16,0-.18-.16-.39-.13,0,.16-.16.18-.13.39Zm-11.93,4.36c1.38-.1,1.66-3.02,1.67-4.49h-.39c-.48,1.44-.95,2.9-1.28,4.49Zm199.39,2.05c1.67.15,2.61-1.58,3.59-2.56,1.08-1.08,2.31-2.24,2.82-3.72-.16,0-.18-.16-.39-.13-1.54,2.6-4.51,3.78-6.03,6.41Zm-190.92-3.33c-.4.78-1.39,1.73-.77,2.56,1.92-.73,2.34-2.97,2.57-5.39-.16,0-.18-.16-.38-.13-.54.96-.88,1.92-1.41,2.95Zm-6.42,1.54c1.15-.66,1.96-2.98,1.54-4.36-.56,1.27-2.06,2.85-1.54,4.36Zm11.55,1.03c1.21.36,1.66-1.09,2.05-1.93.45-.94,1.02-2.22.9-3.46h-.38c-.6,2.06-2.16,3.14-2.57,5.39Zm-14.88-1.67c1.42,0,1.9-2.68,1.15-3.59-.46,1.05-1.4,2.26-1.15,3.59Zm5.26.77c1.5.18,2.45-3.1,1.67-4.36-.58,1.43-1.33,2.69-1.67,4.36Zm204-4.36c-1.73,2.03-3.54,4.04-5.52,5.64-.67.54-1.77.91-1.92,1.93,1.85.24,3.28-1.62,4.49-2.82,1.29-1.29,2.68-2.84,3.21-4.62-.03-.1-.11-.15-.26-.13Zm-202.08,5c1.73.2,3.02-3.66,2.31-4.88-.86,1.47-1.99,3.28-2.31,4.88Zm6.42-1.8c-.47.89-1.46,1.8-1.03,2.69,1.27-.05,1.64-1.45,2.05-2.31.46-.98,1.05-2.1,1.03-3.34-.16,0-.18-.16-.38-.13-.64.98-1.11,2.01-1.67,3.08Zm6.29-2.82c-.63,1.54-2.97,2.64-2.31,4.62,1.58-.86,2.22-2.66,2.69-4.62h-.38Zm-24.25,2.7c.96-.16.98-1.63.77-2.56h-.38c-.04.94-.42,1.55-.39,2.56Zm2.7.51c1.03-.33,1.45-1.84,1.15-3.08h-.38c-.1,1.09-1.39,2.09-.77,3.08Zm-1.67-.26c1.14.13,1.55-2.13.77-2.69-.17.99-.68,1.63-.77,2.69Zm25.28-2.69c-.74,1.22-2.61,2.57-2.05,4.23,1.64-.51,2.21-2.75,2.44-4.23h-.38Zm185.66,5.13c-1.49,1.31-3.47,1.87-4.62,3.59,4.33-.44,7.42-4.64,9.11-7.95-.03-.14-.14-.2-.26-.26-1.5,1.46-2.67,3.25-4.24,4.62Zm-185.66-1.03c.1.03.25,0,.26.13,1.2-.47,1.9-2.11,1.92-3.34-1.02.19-2.41,1.77-2.18,3.21Zm2.69-.38c1.06-.4,1.51-1.39,1.67-2.7-1.13.25-1.99,1.42-1.67,2.7Zm53.12,2.69c1.88-.15,3.36-3.12,2.95-5.13-.91,1.7-2.49,3.41-2.95,5.13Zm52.09,0c1.1.02,1.5-1.13,1.92-1.8.47-.73,1.15-1.65,1.03-2.82-.03-.14-.14-.2-.26-.25-.66,1.78-2.8,2.76-2.69,4.87Zm-102.64-2.82c.1.03.25,0,.26.13.74-.3,1.37-1.21,1.15-2.05-.96.15-1.48.75-1.41,1.93Zm30.92,3.08c2.49.57,3.33-2.63,3.98-4.75-.18-.03-.22-.21-.39-.25-1.02,1.84-2.24,3.49-3.59,5.01Zm2.18.51c1.38.44,1.74-1.24,2.18-2.05.55-1,1.35-2.09,1.28-3.34-.16,0-.18-.16-.38-.13-.8,2.07-2.28,3.45-3.08,5.52Zm12.83-5.39c-.84,2.02-1.96,3.78-3.08,5.52,2.33-.62,2.94-3.64,3.59-5.52h-.51Zm36.69,3.85c.51-1.04,1.1-2.65,1.16-3.72-.03-.1-.11-.15-.26-.13-.37,1.09-1.57,2.56-.9,3.85Zm2.69-3.85c-.54,1.21-2.58,3.62-1.03,4.88.67-1.47,1.1-3.18,1.54-4.88h-.51Zm-37.34,5.39c2.11-.62,2.4-3.07,3.21-5-.18-.03-.22-.21-.39-.26-1.04,1.57-2.43,3.47-2.82,5.26Zm7.83-5.26c-.58,1.43-2.7,2.56-2.18,4.24,1.59-.55,2.47-2.48,2.56-4.11-.16,0-.18-.16-.38-.13Zm31.43,0c-.6.81-2.62,3.81-.9,4.88.56-1.53,1.06-3.13,1.41-4.88h-.51Zm13.73,3.98c1.54-.47,1.87-2.15,2.18-3.85-.91.51-2.22,2.38-2.18,3.85Zm6.67.9c1.06.35,1.73-1,2.18-1.8.5-.87,1.05-2.16.9-3.08h-.38c-.59,1.94-2.37,2.68-2.69,4.88Zm-104.31-3.59c.6.33,1.44-.06,1.41-.77-.38-.83-1.57-.11-1.41.77Zm84.17,3.85c1.25.14,1.04-1.5,1.28-2.31.29-.94,1-1.82.77-2.57-1.46.77-2.35,2.77-2.05,4.87Zm8.21-.51c1.42-.72,1.98-2.29,2.18-4.23-.16,0-.18-.16-.38-.13-.48,1.49-1.9,2.71-1.8,4.36Zm2.31-.13c1.62-.36,2.09-2.52,2.18-3.98-.03-.14-.14-.2-.26-.26-.55,1.43-1.77,2.82-1.93,4.23Zm9.37-4.23c-.53,1.79-2.49,2.81-2.44,4.75,1.6-.34,2.9-2.73,2.82-4.75h-.38Zm-75.44.13c-1.09,1.69-2.63,2.93-3.72,4.62,2.25.35,3.31-2.55,4.11-4.49-.16,0-.18-.16-.38-.13Zm24.76,3.46c.1.03.25,0,.26.13,1.3-.61,2.19-2.23,2.31-3.59-1.21.73-2.51,2-2.56,3.46Zm36.82,1.03c1.47-.64,2.21-2.64,2.18-4.36-.16,0-.18-.16-.39-.13-.36,1.61-2.21,2.94-1.8,4.49Zm-64.02-4.24c-.98,1.67-2.59,2.72-3.46,4.49,2.29.06,3.14-2.42,3.85-4.36-.16,0-.18-.16-.38-.13Zm62.74,3.98c.8-.72,1.54-2.79,1.03-3.98-.37,1.16-1.33,3-1.03,3.98Zm-32.59-1.28c.14.03.2.14.26.26,1.03-.15,2.08-1.95,1.28-2.69-.45.88-1.38,1.27-1.54,2.44Zm30.41.77c1.26-.22,1.46-2.1,1.41-3.21-1.01.53-1.32,1.76-1.41,3.21Zm-66.21.77c1.84.41,2.71-2.21,3.34-3.85-1.52.88-2.52,2.27-3.34,3.85Zm-4.23-.13c1.8.33,2.13-1.88,2.69-3.21-1.23.23-1.99,2.02-2.69,3.21Zm44.14-2.57c.21-1.74-1.84.21-1.16.9.62-.29,1.08-.29,1.16-.9Zm-42.21,3.08c1.35.19,2.54-2.87,2.31-3.72-.87,1.14-2.04,1.98-2.31,3.72Zm163.59-3.59c-1.37,1.11-2.62,2.36-3.98,3.46-1.3,1.06-2.91,1.8-3.85,3.21,1.98.56,3.52-1.41,4.75-2.56,1.36-1.28,2.91-2.63,3.46-4.11h-.38Zm-168.08,3.46c1.56.11,2.56-2.02,2.69-3.33-1.29.63-2.48,2.04-2.69,3.33Zm-1.8-.25c1.29-.13,1.7-1.79,1.67-2.82-.93.5-1.75,1.74-1.67,2.82Zm-4.87-.26c1.04-.33,1.46-1.27,1.79-2.31-1-.2-1.92,1.39-1.79,2.31Zm1.92.39c1.27-.09,1.88-1.42,1.8-2.44-.93.43-1.98,1.31-1.8,2.44Zm182.45,2.69c-.93,1.15-1.98,1.81-2.95,2.95,1.04.41,2.19-.65,2.82-1.28,1.34-1.33,2.73-3.29,3.21-5.26-.16,0-.18-.16-.39-.13-.82,1.36-1.75,2.55-2.69,3.72Zm-16.42,2.7c1.46.32,2.7-.78,3.72-1.54,1.58-1.19,3.12-2.65,4.11-4.24-.03-.14-.14-.2-.26-.26-2.2,2.33-5.47,3.59-7.57,6.03Zm11.67-6.03c-2.37,1.77-5.22,3.72-7.83,5.13-.83.45-1.97.75-2.31,1.67,2.43.26,4.39-1.27,6.03-2.44,1.48-1.05,2.76-2.35,3.85-3.34.21-.22,1.21-.85.64-1.03h-.38Zm10.27.39c-.94.62-1.83,1.99-2.69,3.08-.81,1.02-2.1,1.86-1.92,2.95,1.5-.08,2.3-1.5,2.95-2.44.74-1.07,1.54-2.29,1.93-3.59h-.26Zm2.44.13c-.71,1.13-1.54,2.13-2.44,3.08-.78.82-2.1,1.49-2.06,2.69,1.22.16,2.39-1.25,3.21-2.18.81-.92,1.97-2.4,1.54-3.59h-.26Zm-10.01.25c-2.6,2.27-6.02,3.74-8.98,5.64.7.32,1.54.32,2.05.13,2.76-1.02,5.72-3.69,7.18-5.78h-.26Zm40.8,4.62c2.11.11,2.38-2.65,3.08-4.36-.18-.03-.22-.21-.38-.26-.84,1.6-1.94,2.93-2.69,4.62Zm-38.88-4.36c-2.27,2.44-4.86,4.56-8.34,5.78,2.11.63,3.81-.78,5.13-1.8,1.37-1.05,2.82-2.4,3.59-3.85-.18,0-.28-.06-.38-.13Zm36.57,4.62c1.79-.52,2.22-2.4,2.57-4.36-1.21,1.02-2.49,2.63-2.57,4.36Zm-26.43-4.23c-.14.33-.46.48-.51.9-.71.62-1.37,1.28-2.05,1.93-.64.59-1.71,1.09-1.8,2.18,1.18.35,2.5-.99,3.34-1.92.69-.78,1.57-1.94,1.41-2.95-.16,0-.18-.16-.39-.13Zm32.85,4.49c1.86-.24,2.55-2.31,2.31-4.23-.16,0-.18-.16-.39-.13-.23,1.79-1.64,3.06-1.92,4.36Zm-8.34-.51c1.58-.27,1.89-2.46,2.18-3.59-1.22.63-2.26,2.1-2.18,3.59Zm-1.93,0c1.26-.29,1.81-1.95,1.67-3.21-.96.09-1.84,1.99-1.67,3.21Zm-23.99,1.02c1.69.54,3.74-2.86,3.34-4.23-1.01,1.52-2.53,2.52-3.34,4.23Zm20.91-.9c1.22-.29,1.94-1.72,1.79-2.95-.97.03-1.98,1.77-1.79,2.95Zm-2.06-.13c1.31-.19,1.71-1.29,1.93-2.56-1.17-.24-1.8,1.77-1.93,2.56Zm-16.04.64c.13.12.26.25.38.38,1.24-.52,2.22-1.96,2.31-3.21-1.25.59-2.13,1.55-2.69,2.82Zm2.69.26c1.25-.04,1.99-1.68,2.57-2.82-.03-.14-.14-.2-.26-.26-.68,1.04-2.45,1.65-2.31,3.08Zm12.57-2.05c.39-.08.66-.29.64-.77-.15-.11-.34-.17-.64-.13-.18.17-.18.73,0,.9Zm-9.37,1.28c.56.02,1.63-.48,1.67-1.41-.25,0-.16-.35-.51-.26-.39.55-1.01.87-1.15,1.67Z"/>
      <path class="cls-1" d="m250.66,76.13c-.11.45-1.02,1.2-1.41,1.8-1.43.03-2.82.09-3.59.77-1.48-.78-2.62-1.92-4.75-2.05,2.9-.52,7.27.42,9.75-.52Z"/>
    </g>
  </g>
</svg>