<?xml version="1.0" encoding="UTF-8"?>
<svg id="Layer_2" data-name="Layer 2" xmlns="http://www.w3.org/2000/svg" viewBox="0 0 427.17 100.74">
  <defs>
    <style>
      .cls-1 {
        fill: #fff;
      }

      .cls-1, .cls-2 {
        fill-rule: evenodd;
      }

      .cls-2 {
        fill: #0f0a09;
      }
    </style>
  </defs>
  <g id="Layer_1-2" data-name="Layer 1">
    <g>
      <path class="cls-2" d="m226.48.16c.31.76,1.57.65,2.5.69,2.28.1,5.06.04,6.52-.42-2.51-.83-6.02-.21-9.02-.28Z"/>
      <path class="cls-2" d="m240.07.57c-.36-.77-2.54-.39-3.33-.28.38.79,2.51.37,3.33.28Z"/>
      <path class="cls-2" d="m242.71,3.49c4.78,0,9.64.13,13.87-.56-5.45-.48-12.04-.7-18.17-.41-3.38.16-6.85-.07-9.71.69,4.49.12,9.28.28,14.01.28Z"/>
      <path class="cls-2" d="m265.04,5.84c2.34.05,4.69.31,6.94-.28-5.74-.79-12.15-.69-18.59-.69-10.85,0-21.96-.26-31.35.83,13.92.75,29.12-.13,43,.14Z"/>
      <path class="cls-2" d="m200.96,5.71c1.75.85,4.03.52,6.38.42,4.21-.18,9.02.42,12.34-.55-5.8-.82-12.53-.12-18.72.14Z"/>
      <path class="cls-2" d="m195.28,5.84c.59.56,2.16.15,3.19.28-.12-.99-2.72-.92-3.19-.28Z"/>
      <path class="cls-2" d="m193.2,5.98c.15,0,.11-.18-.14-.14-.91-.18-2.33-.51-3.33-.14,0,.19.06.3.14.42,1.2.38,2.1-.15,3.33-.14Z"/>
      <path class="cls-2" d="m216.08,7.93c-5.64.26-11.54.06-17.34.28-2.85.11-5.66.16-8.46.28-2.81.12-5.75-.43-8.32.55,15.42.44,30.95-.21,46.05-.55-3.61-.79-7.9-.74-11.93-.55Z"/>
      <path class="cls-2" d="m168.65,8.76c3.27.2,7.59.3,10.4-.41-2.98-.32-8.02-.73-10.4.41Z"/>
      <path class="cls-2" d="m242.71,9.03c.46-.06,1.04-.02,1.25-.55-3.29-.33-8.6-.65-11.65.14,2.87.12,7.4.82,10.4.42Z"/>
      <path class="cls-2" d="m209.28,11.81c-2.96-.95-6.34-.69-9.71-.69-10.16,0-21.77-.62-31.48,0-.45.03-1.69,0-1.94.56,14.32.57,29.28.21,43.13.14Z"/>
      <path class="cls-2" d="m270.31,13.19c-4.22.2-8.59-.36-12.34.69,8.88.18,18.93.35,27.32-.42-4.89-.38-10.17-.5-14.98-.28Z"/>
      <path class="cls-2" d="m313.72,16.25c-6.93-.61-15.46-.63-23.02-.28-3.13.15-6.26-.21-8.88.69,10.4.18,22.02.39,31.9-.42Z"/>
      <path class="cls-2" d="m263.51,16.52c-2.78-1.07-7.22-.35-10.54-.28,2.62,1.04,7.47.51,10.54.28Z"/>
      <path class="cls-2" d="m268.37,16.38c-.94-.13-3.04-.41-3.74.14.93.13,3.14.74,3.74-.14Z"/>
      <path class="cls-2" d="m270.17,16.52c.41.37,1.78.39,2.36.14-.08-.65-2.09-.57-2.36-.14Z"/>
      <path class="cls-2" d="m285.29,18.88c-2.11-.39-5.61-.41-7.49.28,2.02.32,5.9.68,7.49-.28Z"/>
      <path class="cls-2" d="m287.92,19.02c0,.96,1.64.75,2.36.56.09-1.16-1.63-.58-2.36-.56Z"/>
      <path class="cls-2" d="m295.13,19.3c-.29-.42-1.98-.48-2.08.14.38.13,1.93.4,2.08-.14Z"/>
      <path class="cls-2" d="m300.13,19.16c-.73.06-1.45-.28-1.94.42,4.31.3,10.35.75,14.15-.14-2.84-.64-8.55-.57-12.2-.28Z"/>
      <path class="cls-2" d="m293.61,22.07c14.71.32,29.95-.25,44.24-.41-6.02-1.18-13.37-1.01-20.25-.69-8.27.38-16.78-.15-23.99,1.11Z"/>
      <path class="cls-2" d="m321.21,24.29c-3.9-.18-8.5-.68-10.68.28,4.82.53,12.6.94,16.5.14-1.65-.63-3.63-.32-5.83-.42Z"/>
      <path class="cls-2" d="m93.34,24.43c-1.02-.5-2.76-.21-3.88,0,.37.88,3.5.83,3.88,0Z"/>
      <path class="cls-2" d="m96.81,24.71c8.69.04,17.43.67,25.93,0-7.12-.43-16.03-.91-23.58-.55-.53.02-2.05-.05-2.36.55Z"/>
      <path class="cls-2" d="m149.09,24.29c-.53-.12-2.1-.44-2.22.28.72.1,2.05.59,2.22-.28Z"/>
      <path class="cls-2" d="m179.74,24.57c-1.64-.77-4.85-.36-6.66,0,1.73.32,4.97.55,6.66,0Z"/>
      <path class="cls-2" d="m161.57,24.57c-.2-.41-1.41-.35-1.8-.14-.02.67,1.72.83,1.8.14Z"/>
      <path class="cls-2" d="m169.48,24.57c-.84-.38-3.58-.63-4.02.28,1.05.01,3.44.6,4.02-.28Z"/>
      <path class="cls-2" d="m128.57,24.84c3.62.41,9.29.89,12.62-.14-3.7-.48-9.08-.44-12.62.14Z"/>
      <path class="cls-2" d="m347.14,27.2c-1.02-.61-3.47-.49-4.85-.28.38.79,3.79.95,4.85.28Z"/>
      <path class="cls-2" d="m128.01,27.2c-19.63-.39-40.54-.46-60.33,0,2.87.88,6.06.25,9.15.42,9.79.54,19.79.14,29.82.14,7.2,0,14.42.05,21.36-.55Z"/>
      <path class="cls-2" d="m360.87,27.06c-.24,0-.36.11-.42.28.83.72,2.17.36,3.33.42,3,.14,6.55.49,9.29.28.71-.06,1.68-.06,2.08-.69-4.3-.47-9.97-.28-14.28-.28Z"/>
      <path class="cls-2" d="m131.76,27.48c8.25.81,19.23.89,27.46,0-8.61-.4-19.24-.55-27.46,0Z"/>
      <path class="cls-2" d="m184.46,27.34c-4.78-.47-10.91-.38-16.09-.14-1.69.08-3.55-.28-4.85.55,6.77.02,14.53.33,20.94-.42Z"/>
      <path class="cls-2" d="m352.41,27.62c.35.22,1.45.22,1.8,0-.01-.81-1.7-.66-1.8,0Z"/>
      <path class="cls-2" d="m142.85,29.14c-12.96.61-26.53-.23-38.69.83,19.83.82,40.06-.34,60.33,0-3.15-.94-6.78-.76-10.4-.83-3.66-.07-7.55-.17-11.23,0Z"/>
      <path class="cls-2" d="m167.54,29.98c.36.29,1.18.16,1.11-.42-.2-.2-.91-.2-1.11,0v.42Z"/>
      <path class="cls-2" d="m165.18,30.12c.27.23,1.16.23,1.11-.28-.13-.52-1.24-.3-1.11.28Z"/>
      <path class="cls-2" d="m97.78,29.98c-.35-.2-.54-.34-.97-.14-.11.62.87.46.97.14Z"/>
      <path class="cls-2" d="m76.14,30.53c2.99,0,6.01.32,8.74-.42-11.38-.26-24.57-.74-35.5.28,8.72.73,18.18.14,26.77.14Z"/>
      <path class="cls-2" d="m92.37,30.12c-1.24-.11-3.8-.79-4.72.14,1.31.23,3.59.27,4.72-.14Z"/>
      <path class="cls-2" d="m95.7,29.98c-.39-.22-1.55-.22-1.94,0-.07.65,2.01.65,1.94,0Z"/>
      <path class="cls-2" d="m42.3,32.61c-.62-.79-2.91-.44-3.47.14.72-.21,2.82.86,3.47-.14Z"/>
      <path class="cls-2" d="m375.16,32.75c.89.12,3.15.48,3.61-.28-.78-.41-3.18-.54-3.61.28Z"/>
      <path class="cls-2" d="m25.8,32.75c2.85.26,7.54.71,10.12-.14-2.83-.47-7.47-.48-10.12.14Z"/>
      <path class="cls-2" d="m43.13,34.83c-6.23,0-12.5-.39-17.2.97,8.64.32,18.38-.2,26.63-.28-2.56-.97-5.95-.69-9.43-.69Z"/>
      <path class="cls-2" d="m54.09,35.38c.89.21,3.28.71,3.88-.14-.77-.48-3.28-.46-3.88.14Z"/>
      <path class="cls-2" d="m23.58,35.25c-.89-.13-2.99-.45-3.47.28.73.32,3.15.66,3.47-.28Z"/>
      <path class="cls-2" d="m358.1,35.52c5.04.49,11.81.74,16.78,0-4.75-.63-12.04-.71-16.78,0Z"/>
      <path class="cls-2" d="m381.81,35.8c-.78-.72-2.92-.6-4.16-.42.64.8,2.97.62,4.16.42Z"/>
      <path class="cls-2" d="m386.67,35.94c.9.14,3.07.41,3.74-.14-.71-.42-3.24-.54-3.74.14Z"/>
      <path class="cls-2" d="m391.11,38.02c-6.91-.49-16.28-1.34-23.86-.69-.67.06-1.66.1-2.08.69,8.43.04,17.76.62,25.93,0Z"/>
      <path class="cls-2" d="m32.59,38.16c1.61.94,3.85.56,5.96.56,6.03,0,12.33-.01,17.2-.83-7.16-.34-15.82-.09-23.16.28Z"/>
      <path class="cls-2" d="m63.1,38.16c-.63-.94-4.33-.81-4.99,0,1.61.29,3.35.31,4.99,0Z"/>
      <path class="cls-2" d="m24.96,38.3c-.19-.72-2.34-.85-2.5,0,.83.29,1.69.27,2.5,0Z"/>
      <path class="cls-2" d="m17.61,38.44c1.23.37,2.79.07,3.61,0-.3-.8-3.33-.9-3.61,0Z"/>
      <path class="cls-2" d="m29.54,38.44c-.35-.69-2.09-.65-2.91-.42.22.91,2.1.52,2.91.42Z"/>
      <path class="cls-2" d="m11.37,38.3c.49.82,2.95.36,3.88.28-.52-.85-2.91-.32-3.88-.28Z"/>
      <path class="cls-2" d="m29.4,40.93c4.63.48,10.37.28,15.81.28,4.64,0,9.32.35,13.04-.69-9.05-.33-20.07-.43-28.85.42Z"/>
      <path class="cls-2" d="m27.32,40.93c-1.11-.21-3.75-.71-4.58.14,1.18.56,3.82.17,4.58-.14Z"/>
      <path class="cls-2" d="m392.49,40.93c-.68-.34-3.16-.62-3.61.14.94.17,2.88.34,3.61-.14Z"/>
      <path class="cls-2" d="m20.67,41.35c-1.8-.92-6.46-.76-8.46-.14,2.31.57,5.91.23,8.46.14Z"/>
      <path class="cls-2" d="m402.62,43.29c1.03,1.1,4.54.44,6.24.42-1.35-1.08-4.32-.54-6.24-.42Z"/>
      <path class="cls-2" d="m11.1,43.71c-1.53-.44-4.41-.15-6.1.14,1.21.71,5.07.69,6.1-.14Z"/>
      <path class="cls-2" d="m384.03,46.34c1.55.31,4.04.48,5.55,0-1.04-.75-4.47-.57-5.55,0Z"/>
      <path class="cls-2" d="m394.71,46.34c-.4-.33-2.15-.76-2.36,0,.22.42,2.15.48,2.36,0Z"/>
      <path class="cls-2" d="m398.04,46.2c3.28.93,8.25.56,12.76.56,3.73,0,7.41.25,10.4-.42-6.87-.72-16.08-.55-23.16-.14Z"/>
      <path class="cls-2" d="m4.02,46.62c.62.3,2.24.53,2.5-.28-.65-.17-2.24-.38-2.5.28Z"/>
      <path class="cls-2" d="m383.06,48.84c-.71-.8-3.33-.29-4.3,0,.87.39,3.45.51,4.3,0Z"/>
      <path class="cls-2" d="m417.74,49.12c-3.42-1.04-7.82-.69-12.21-.69-6.9,0-13.66-.28-19.14.69,10.03.35,21.27.32,31.35,0Z"/>
      <path class="cls-2" d="m421.06,51.89c1.27.33,4.38.63,5.41-.14-1.25-.3-4.4-.67-5.41.14Z"/>
      <path class="cls-2" d="m417.32,51.89c-.36-.51-1.63-.24-2.22-.14.18.46,1.94.69,2.22.14Z"/>
      <path class="cls-2" d="m405.67,54.25c.61-.35.66.4.69.42,1.89.82,6.23.14,9.15.14h4.58c1.53,0,3.15.15,4.16-.55-4.6-.6-10.78-.65-15.81-.42-.8.04-2.26-.36-2.78.42Z"/>
      <path class="cls-2" d="m3.33,54.52c4.03.34,10.08.65,13.87-.14-3.96-.63-9.82-.43-13.87.14Z"/>
      <path class="cls-2" d="m27.46,56.6c-2.56,0-5.73-.1-7.35.14-.2.08-.34.22-.42.42,4.18.54,9.84.43,13.87.28-1.01-1.38-3.76-.83-6.1-.83Z"/>
      <path class="cls-2" d="m17.89,56.88c-1.09-.2-3.16-.33-3.88.28.91.2,3.45.78,3.88-.28Z"/>
      <path class="cls-2" d="m35.78,57.3c3.52.59,8.37.46,12.48.28,1.66-.07,3.65.32,4.3-.55-4.63-.23-11.82-.44-16.78.28Z"/>
      <path class="cls-2" d="m44.8,59.52c-3.37-.44-7.98-.58-11.37-.28-7.45.67-15.57-1-21.78.83,8.12.36,17.14,0,25.1,0,2.8,0,5.57.19,8.04-.56Z"/>
      <path class="cls-2" d="m51.04,59.52c-.95-.43-3.58-.54-4.16.28.89.25,3.73.78,4.16-.28Z"/>
      <path class="cls-2" d="m57.14,59.52c-.83.12-1.91-.54-2.08.42.53.28,2.06.53,2.08-.42Z"/>
      <path class="cls-2" d="m65.19,59.66c-.9-.18-2.97-.4-3.47.28.79.24,3.13.72,3.47-.28Z"/>
      <path class="cls-2" d="m67.4,59.66c.62.77,2.06.37,3.19.42,1.93.09,4.27.49,5.41-.42-2.56-.25-6.03-.21-8.6,0Z"/>
      <path class="cls-2" d="m68.79,62.57c-.57-.51-1.34-.62-2.08-.69-6.27-.62-14.45.2-19.7.55,6.83.41,14.91.64,21.77.14Z"/>
      <path class="cls-2" d="m41.61,62.57c.98.09,3.3.82,3.74-.28-.78-.49-3.23-.4-3.74.28Z"/>
      <path class="cls-2" d="m36.34,62.71c.9.12,3.04.74,3.61-.14-.64-.71-3.08-.54-3.61.14Z"/>
      <path class="cls-2" d="m69.35,62.71c.58.11,1.67.3,2.22,0,.02-.88-2.19-.74-2.22,0Z"/>
      <path class="cls-2" d="m80.3,62.15c-2.42.02-5.25-.1-7.21.69,6.42.52,14.4.4,20.39-.42-4.09-.42-8.8-.31-13.18-.28Z"/>
      <path class="cls-2" d="m31.62,62.85c.35.39,2.36.55,2.5-.14-.35-.39-2.36-.55-2.5.14Z"/>
      <path class="cls-2" d="m63.66,64.65c-3.81-.39-10.46.01-13.31.42,4.48.43,10.29.66,14.84.14-.34-.58-1.01-.5-1.53-.55Z"/>
      <path class="cls-2" d="m100.97,65.07c-4.97-.49-11.32-.32-16.5-.14-.71.07-1.8-.23-1.94.41,5.54.3,13.35.76,18.45-.28Z"/>
      <path class="cls-2" d="m414.13,65.07c-.33-.45-1.83-.34-2.36-.14v.41c.72-.04,2.12.55,2.36-.28Z"/>
      <path class="cls-2" d="m417.46,65.34c-.03-.68-1.35-.7-1.53-.14.07.46,1.25.32,1.53.14Z"/>
      <path class="cls-2" d="m77.67,65.34c-2.14-.23-5.29-.85-7.07.14,2.07.22,5.19.3,7.07-.14Z"/>
      <path class="cls-2" d="m110.12,65.2c-2.25-.15-5.16-.57-7.35.14,1.93.43,5.61.51,7.35-.14Z"/>
      <path class="cls-2" d="m78.64,67.98c1.58.44,3.82.28,5.96.28s4.43.39,5.69-.55c-3.45-.21-7.79-.24-11.23,0-.24,0-.36.11-.42.28Z"/>
      <path class="cls-2" d="m413.3,67.7c-2.2-.1-4.69-.38-6.24.42,1.89.43,4.39.17,6.66.28,1.58.07,3.46.57,4.58-.28-1.3-.72-3.18-.33-4.99-.42Z"/>
      <path class="cls-2" d="m402.48,70.2c-.17.02-.33.04-.28.28,3.66.41,8.36.84,11.79.28-3.25-.69-7.8-.79-11.51-.56Z"/>
      <path class="cls-2" d="m364.9,72.69c-5.13,0-10.14-.18-14.29.42,7.09.68,16.07.78,23.44.28-2.44-1.01-5.8-.69-9.15-.69Z"/>
      <path class="cls-2" d="m405.53,72.69c-3.48-.23-8.05-.18-11.93,0-3,.14-6.07-.2-8.18.83,7.16.23,15.53.6,22.61,0-.52-.83-1.61-.77-2.5-.83Z"/>
      <path class="cls-2" d="m378.76,73.39c.91.36,3.76.62,4.44-.14-.86-.4-3.79-.59-4.44.14Z"/>
      <path class="cls-2" d="m332.02,76.16c6.05-.23,13.83.15,19.14-.56-6.38-.51-13.17-.61-20.11-.55-5.01.86-11.93-.19-16.64.97,5.68.48,11.62.36,17.61.14Z"/>
      <path class="cls-2" d="m279.88,75.47c-1.69.08-3.62-.27-4.72.69,5.89.24,12.31.14,18.59.14s12.65.37,18.17-.56c-9.96-.32-22.02-.74-32.04-.28Z"/>
      <path class="cls-2" d="m59.36,76.16c.94.17,3.07.41,3.61-.28-.81-.47-3.2-.79-3.61.28Z"/>
      <path class="cls-2" d="m258.8,75.61c.6.64,3.43.67,4.02,0-1.05-.21-2.97-.24-4.02,0Z"/>
      <path class="cls-2" d="m264.21,76.02c.85.31,3.27.61,3.88-.14-1.04-.36-2.86-.28-3.88.14Z"/>
      <path class="cls-2" d="m273.5,76.3c-.51-1.05-3.28-.47-4.44-.42.76.98,3.68.62,4.44.42Z"/>
      <path class="cls-2" d="m356.57,76.3c2.04.3,5.69.63,7.49-.14-1.89-.75-5.66-.48-7.49.14Z"/>
      <path class="cls-2" d="m367.81,76.16c.87.44,2.52-.11,3.05,0-.41-.58-2.67-.67-3.05,0Z"/>
      <path class="cls-2" d="m312.05,77.83c-2.06,0-4.38-.25-5.83.83,6.5.37,13.08-.08,19.56.14,6.41.22,12.89,1.11,18.86,0-10.2-1.04-21.64-.97-32.59-.97Z"/>
      <path class="cls-2" d="m226.07,79.07c5.27.05,11.76.56,15.81-.28-8.73-.03-18.55-1.27-27.46-.69-.76.05-1.96.12-2.63.55,4.39.69,9.26.36,14.28.42Z"/>
      <path class="cls-2" d="m210.67,78.52c-.37-.43-1.25-.27-1.66,0,.05.83,1.63.91,1.66,0Z"/>
      <path class="cls-2" d="m286.26,79.07c2.74,0,5.52.25,7.91-.56-5-.25-10.51-.53-15.95-.28-5.68.27-11.49-.22-16.37.83,7.62.51,16.57,0,24.41,0Z"/>
      <path class="cls-2" d="m297.35,78.93c.63.3,1.78.07,2.63.14-.03-.94-2.59-1.27-2.63-.14Z"/>
      <path class="cls-2" d="m301.65,78.38c0,.19.06.3.14.42,1.08-.1,1.69.17,2.22-.42-.49-.25-1.86-.2-2.36,0Z"/>
      <path class="cls-2" d="m248.67,78.52c-.99.02-2.31-.23-2.91.56,4.02.05,9.66.62,13.04-.42-3-.2-6.98-.19-10.13-.14Z"/>
      <path class="cls-2" d="m346.17,78.8c2.37.15,6.04.4,8.18-.14-2.39-.12-6.03-.43-8.18.14Z"/>
      <path class="cls-2" d="m47.99,79.21c.72.17,2.68.73,2.91-.28-.8-.26-2.42-.22-2.91.28Z"/>
      <path class="cls-2" d="m220.24,80.74c-5.24.24-10.57-.45-15.12.55,10.47.71,22.01.1,32.45-.14-5.22-.79-11.38-.69-17.34-.41Z"/>
      <path class="cls-2" d="m240.49,81.15c2.43.7,5.21.56,8.04.56,8.53,0,17.98.36,25.52-.56-10.67-.71-22.56-.31-33.56,0Z"/>
      <path class="cls-2" d="m283.62,80.74c-2.02.09-3.98-.01-5.69.55,8.57.5,19.28.69,28.15,0-6.12-.63-15.02-.91-22.47-.55Z"/>
      <path class="cls-2" d="m311.64,81.71c2.39.39,5.95.45,8.18-.14-2.21-.48-6.01-.58-8.18.14Z"/>
      <path class="cls-2" d="m330.5,81.85c.67.3,1.88.06,2.77.14-.14-.81-2.56-1.09-2.77-.14Z"/>
      <path class="cls-2" d="m321.76,81.57c.3.77,1.99.59,2.5.14-.34-.49-1.95-.31-2.5-.14Z"/>
      <path class="cls-2" d="m326.2,81.85c.34.3,1.97.58,2.08-.14-.43-.44-1.74-.32-2.08.14Z"/>
      <path class="cls-2" d="m175.03,83.65c-.72.05-1.66-.3-2.08.42,3.63.45,9.22.56,12.48-.28-2.86-.48-7.2-.36-10.4-.14Z"/>
      <path class="cls-2" d="m189.45,84.07c5.19.18,11.89.88,16.64.14-4.75-.55-12.31-1.31-16.64-.14Z"/>
      <path class="cls-2" d="m44.1,83.79c-.8-.24-2.23-.18-3.05,0,.25.81,2.8.81,3.05,0Z"/>
      <path class="cls-2" d="m47.71,84.2c3.74.32,8.26.6,12.34.42,1.85-.08,3.75,0,5.13-.69-5.45-.33-12.23-.51-17.48.28Z"/>
      <path class="cls-2" d="m161.44,83.79c.77.73,3.2.59,4.02.14-.83-.48-2.98-.33-4.02-.14Z"/>
      <path class="cls-2" d="m171.42,84.07c-.34-.54-1.97-.31-2.22.14.53.08,2.04.74,2.22-.14Z"/>
      <path class="cls-2" d="m266.15,83.93c-1.27.07-2.48-.16-3.47.42,6.89.21,14.21.42,21.5.42,7.27,0,14.75.33,21.5-.42-12.55-.23-26.89-1.08-39.53-.42Z"/>
      <path class="cls-2" d="m159.36,86.28c.88.85,4.08.77,4.99,0-1.57-.28-3.32-.22-4.99,0Z"/>
      <path class="cls-2" d="m41.33,86.84c3.75.45,9.52.56,12.9-.28-3.72-.4-9.58-.65-12.9.28Z"/>
      <path class="cls-2" d="m166.29,86.84c9.92.37,21.7.85,31.21.28-9.38-.89-21.8-1.33-31.21-.28Z"/>
      <path class="cls-2" d="m57.97,86.56c-.43-.22-1.65-.22-2.08,0,.2.75,1.83.64,2.08,0Z"/>
      <path class="cls-2" d="m59.08,86.98c.83.11,2.93.49,3.33-.28-.69-.4-2.46-.38-3.33-.14-.05.2-.17.23,0,.41Z"/>
      <path class="cls-2" d="m89.87,92.11c-8.77-.55-18.44-.46-27.18,0,1.72.68,3.89.55,5.96.55,6.62,0,15.92.73,21.22-.55Z"/>
      <path class="cls-2" d="m53.67,91.97c1.38.47,4.79.8,6.1,0-1.73-.22-4.38-.24-6.1,0Z"/>
      <path class="cls-2" d="m68.37,95.16c9.61.23,21.76.95,30.51-.55-9.87-.06-21.47-.67-30.51.55Z"/>
      <path class="cls-2" d="m105.13,95.02c-.25-.97-2.6-.52-3.47-.42.33.89,2.55.56,3.47.42Z"/>
      <path class="cls-2" d="m111.37,94.74c-.8-.39-3.38-.64-3.61.42,1.03.13,3.16.47,3.61-.42Z"/>
      <path class="cls-2" d="m116.22,94.88c2.48,1.02,6.33.57,9.71.42,2.16-.1,4.4.22,5.96-.56-4.73-.51-11.09-.41-15.67.14Z"/>
      <path class="cls-2" d="m134.11,95.3c2.65.46,7.27.8,9.85,0-1-.71-2.5-.49-4.16-.56-2-.08-4.59-.4-5.69.56Z"/>
      <path class="cls-2" d="m107.07,96.83c-5.72.27-11.6,0-16.78.69,10.96.88,23.36.1,34.4-.28-5.47-.49-11.61-.7-17.61-.42Z"/>
      <path class="cls-2" d="m126.35,97.38c1.06.17,2.57.53,3.19-.28-.73-.26-2.89-.68-3.19.28Z"/>
      <path class="cls-2" d="m76.56,97.52c1.55.39,4.58.77,5.83-.14-1.51-.55-4.42-.32-5.83.14Z"/>
      <path class="cls-2" d="m134.25,97.38c-.82-.16-2.55-.69-2.91.28.68.58,2.46.25,2.91-.28Z"/>
      <path class="cls-2" d="m109.98,100.02c.8.64,2.05.51,3.05.55,8.62.4,17.47,0,24.96-.28-.83-.34-1.73-.49-2.63-.55-7.97-.61-18.07.32-25.38.28Z"/>
      <path class="cls-2" d="m418.29,60.63c3.13,0,6.41.35,8.87-.55-6.58-.54-13.81-.43-20.8-.56-.53-.58-1.23-.98-1.39-1.94,6.95-.04,15.17.64,21.64-.28-5.06-.64-11.52-.77-16.92-.97-1.99-.07-4.17.33-5.68,0-1.47-.32-2.67-1.85-4.02-1.94,1.71.19,2.74-.31,4.02-.55-8.5.02-16.6-.75-24.13-1.25-1.09-.07-2.37.39-3.33-.42,12.42-.24,24.41.7,36.47,0-5.32-1.33-11.69-.74-18.31-.97-3.1-.11-6.34,0-9.43.14-3.23.14-6.99.54-9.71,0-1.39-.27-3-1.49-4.44-1.94.96-.11,2.16.04,2.77-.42-1.43-.56-3-.1-4.3-.28-.81-.11-1.58-.6-2.36-.69-3.13-.39-5.66.09-8.46.28-1.5.1-3.14.69-4.44.55-.96-.1-1.89-.96-2.91-1.25-1.7-.48-3.32-.25-4.85-.83,11.49-.19,23.46.19,34.67-.28-.4-.51-1.15-.51-1.53-.55-2.47-.27-5.24-.14-7.9-.14-13.53,0-27.16-.36-40.36-.14.07-.67.32-1.16.55-1.66,19.25.52,40.04-.41,59.08-.42,2.74,0,5.56.29,8.18-.42-22.1-.83-44.98.58-66.85,0,.52-1.14,1.74-.6,2.63-.55,5.95.28,11.7-.3,17.06-.69,2.12-.16,4.01-.87,5.96-1.11,2.06-.25,4.42.17,6.66.28,4.81.22,9.51,0,14.15,0,2.21,0,4.56.32,6.66-.42-8.26-.75-17.42-.61-26.35-.69.4-.85-.55-2.3.41-1.66-.61-3.22-4.1-3.57-6.52-4.99,6.42-.19,13.69.47,19.14-.69-5.46-.3-11.47-.28-17.48-.28-10.01,0-20.12,1.06-27.04-1.8,14.69-.52,29.95-.47,44.94-.69-2.87-1.02-6.08-.56-9.15-.69-3.18-.14-6.31-.09-9.57,0-10.16.28-20.37.28-30.65.28-3.92,0-8.1.51-11.51,0-1.56-.24-3.11-.99-4.85-1.11-4.74-.32-9.08.03-11.79,1.66-.45-.75-1.68-1.47-1.94-1.94,11.93-.04,24.07-.12,35.64-.69,3.4-.17,7.09.42,10.26-.42-7.27-.36-15.46-.57-23.72,0-5.75.4-12.2-.04-18.03.14-2.07.06-4.23.42-5.96.14-1.11-.18-2.17-.85-3.33-.97-4.44-.46-8.97.45-11.23,2.22-1.84-1.08-3.42-2.4-5.41-3.33,12.31-.03,24.53-.16,36.2-.83-12.8-1.39-28.85.45-42.3-.14-1.95-.09-4.01.4-5.55.14-1.81-.31-3.76-2.19-5.83-2.22,11.08-.24,23.04-.35,33.84-.41-.43-.65-1.46-.5-2.08-.56-6.07-.5-12.77,0-18.72,0-9.71,0-19.94.02-29.96.28,1.23-.42,2.01-1.8,3.19-2.08,1.05-.25,2.61.07,4.02.14,1.38.06,2.86-.04,4.16,0,8.3.23,18.88.51,26.35-.42-11.05-.94-22.51-.21-33.98-.42.54-.52.88-1.25,1.11-2.08,2.59-.23,6.14.49,8.05-.42-.16-.23-1.78-.25-1.11-.42,3.3.64,6.62-.83,8.04-2.36.5-.53.65-1.55,1.39-1.8,1.58-.53,4.65,0,6.66,0,6.9,0,13.39-.23,19.55-.69-8.38-.65-17.54-.03-26.07-.28-.94-.82-2.4-1.11-3.61-1.66,8.23,0,16.54.08,24.41-.28-4.7-.88-10.38-.55-15.95-.55s-11.31-.29-15.95.69h-.55c-.52.28.66-.03.55.28-1.67-.15-3.23,1.5-4.72,1.8-1.99.41-4.68,0-7.07,0-6.93,0-14.32.41-20.67.55,7.48,1.14,18.09.29,26.21.42,1.21.02,2.35-.13,2.5,1.39-1.93-.27-3.53.31-5.27.14-1.44-.14-2.7-1.03-4.16-1.11-2.47-.14-5.56.18-8.04.69-.96.2-1.92.8-2.91.97-1.55.26-3.65.37-5.27.14-1.22-.18-2.38-1.05-3.61-1.25-3.34-.52-7.1.61-10.82.83-2.91.18-5.64-.41-7.77-.55-3.86-.26-7.55.28-11.51.28-1.21-2.07-3.1-.79-5.69-.55-2.09.19-3.33.65-4.85.83-4.5.53-9-1.01-12.9.28,3.79.56,8.62.08,12.34.69-.26.3-.09,1.02-.14,1.53-2.72-.04-5.28.09-7.77.28,2.6.96,5.44.13,8.46.42.74.07,1.46.37,2.22.42,4.55.3,13.01-2.51,14.01,1.8-.81-.14-1.43.18-2.22,0-.56-.13-.86-.59-1.39-.69-1.82-.36-3.83.42-5.83.55-4.95.34-11.17-.22-16.09,0-1.8.08-3.66-.38-5.13.42,6.42.52,14.18.42,20.66.42-.36.33-.14,1.25-.42,1.66-13.84-.2-28.5-.27-41.75.55,3.26.76,6.71.28,10.12.28,8.9,0,17.98-.36,26.49,0,1.8.07,3.74-.39,5.27-.14.73.12,1.58.87,2.36.97,1.78.23,2.62-.68,4.3-.97,1.12-.19,2.96.07,4.72.14,1.72.07,3.57-.2,4.85,0,1.46.23,2.73.99,3.88,1.11,3.67.4,6.89.43,9.57-.28.92-.24,1.77-.91,2.77-1.11,1.15-.23,4.7-.76,5.55-.55,1.41.33,2.29,2.7,4.16,2.77-13.25.6-25.4-.74-38,.42,17.63,1.03,37.69.25,54.65.42-2.21,1.34-4.44.8-7.49.97-3.81.22-7.7.12-11.65.14-5.07.03-10.33.55-15.53.55-5.87,0-12.15.21-17.34.42,1.1.92,2.8.55,4.16.55,11.28,0,22.89-.22,33.29-.28-1.6.45-2.48,1.56-4.02,1.8-1.21.19-2.65-.06-4.02,0-2.2.09-4.63.18-7.07.28-2.42.09-5.14.35-7.21.14-2.39-.24-4.16-.77-6.38-.55-.98.09-1.94.57-3.05.69-3.7.41-7.76-.27-11.65-.14-3.88.14-7.66-.04-11.37.42,6.35.82,13.91.42,20.94.55-2.13,2.58-7.2,1.44-12.07,1.66-3.18.14-6.28.02-8.74.55,1.69.3,3.85.13,5.55.42-1.26.35-2.86.65-4.44,1.25-.76.29-1.4.95-2.22,1.11-2.29.44-5.81,0-8.88,0s-6.19.39-8.88,0c-1.43-.21-2.98-.96-4.3-1.11-2.64-.29-5,.58-6.93.28-1.15-.18-2.07-1.18-3.05-1.39,9.61-.19,20.07.47,28.85-.56-9.4-.65-19.27-.28-29.26-.28-7.32,0-15-.41-21.91-.41-2.57,0-5.29.33-7.49,0-1.61-.24-3.97-1.52-5.41-1.66-3.19-.32-4.83,1.58-6.93,1.94-1.84.32-4.11,0-6.24,0-12.84,0-25.29-.14-37.31-.14-1.92,0-4.01-.14-5.83.55,15.82.59,32.08.67,48.26.56-.4.39-.48,1.09-.69,1.66-8.79-.22-18.46-.3-26.77-.14-2.14.04-4.39-.1-6.24.55,4.61.69,9.67.28,14.7.28,6.23,0,12.4.07,18.45.14-.11.8.85,1.27.83,1.53-9.28.06-18.44.24-27.32.69.85.81,2.27.55,3.33.55,9.07.05,18.31-.14,27.04-.14-1.4.82-2.41,2.03-3.88,2.77-4.57-1.06-9.94-.3-15.26-.55-5.23-.25-10.78-.43-15.39.28,8.87,1.49,21,.02,30.24,1.25-.5.93-1.8.63-2.77.69-1.06.07-2.34.02-3.33.14-.94.12-1.76.6-2.5.69-2.19.27-4.84-.17-7.49-.28-2.5-.11-5.21,0-7.77,0-12.83,0-23.08-.14-35.64-.14-2.94,0-5.95.08-8.88,0-3.78-.11-8.35-.29-10.68.55,10.49.82,22.13.5,33.01.28-1.08.45-1.94,1.62-3.05,1.8-1.13.19-2.85-.14-4.3-.14-7.44,0-15.09.06-21.91.28-2.95.09-5.8-.27-8.32.56,10.09.73,21.37-.31,31.76.28-.95.43-1.93.14-2.91.28-1.79.26-3.48,1.27-5.13,1.52-2.26.35-4.92-.11-7.49-.14-5.12-.05-10.24,0-15.12,0-2.46,0-4.99-.27-7.21.56,9.55.54,19.24.26,28.99.42-.24.59-.66,1-.97,1.52-4.97-.14-10.15.14-15.26.14s-10.28-.24-14.84.55c9.46,1.01,20.69-.06,29.96.28.24.31.12.99.56,1.11,4.15,1.27,8.8,0,13.04-.14,2.39-.07,4.86.25,6.93.14.92-.05,2.16-.7,2.64.42-10.72.61-22.88-.22-33.01.97,8.14.42,17.02.45,25.24.14,2.74-.1,6.17-.51,8.6,0,1.45.3,2.82,1.61,4.85,1.8,2.84.27,5.2-.15,7.63-.97,1,.71,2.91.51,4.16.97-5.11.2-10.81-.17-15.12.83,7.52.5,17.16,0,25.24,0,2.88,0,6.19-.51,8.6,0,1.28.27,2.68,1.74,3.61,2.22-2.72.07-5.35.02-8.04.14-1.96.09-3.96-.33-5.41.55,2.63.13,5.19.28,7.77.28s5.46-.5,7.91-.14c.97.15,1.93,1.05,3.05,1.39,3.12.93,6.47.4,9.57-.28,1.3,1.2,2.1,2.55,4.02,3.47,3.57,1.7,10.36-.46,12.2,2.63h-24.13c-2.73,0-5.53-.34-7.63.42,9.57.93,21.11.61,31.07.69-3.21,1.04-7.02,1.1-10.82,1.25-3.83.14-7.79.28-11.79.28-8.04,0-16.33-.34-23.44.69,10.35.63,21.21.05,31.62.14-1.01.27-1.84,1.44-2.77,1.66-1.96.48-4.71.1-7.21.14-2.36.04-4.88.17-7.21.28-5.19.25-10.25-.57-14.42.55,9.21.83,19.23.13,28.85.14,0,.66,1,1.03.83,1.39-12.65.5-27.15-1.18-38.97.97,8.21.69,16.85-.27,25.1.14-3.29,2.21-7.8,1.53-13.18,1.53-8.99,0-18.33.45-26.35.97.95.82,2.32.3,3.47.28,8.54-.16,18.02-.27,26.61.1-3.14,0-6.02,1.5-9.27,1.56-5.58.1-11.6-.06-17.48,0-2.9.03-5.8.28-8.6.28-3.06,0-6-.24-8.32.55,10.36.27,21.31.23,31.9,0-.89.61-1.44,1.3-1.39,2.36.06,1.23,1.37,1.61,1.25,2.5-2.34.2-5.3-.21-7.07.55,5.43.5,12.84.28,18.86.28,3.7,0,7.53-.51,8.32,1.53-12.61.06-26.58-.18-39.25.55,1.23.8,2.84.36,4.3.42,10.43.39,23.19.35,33.01-.14.89-.05,2.04-.44,2.91-.28,1.64.31,3.22,2.52,4.85,2.63-.95.12-2.4-.27-2.91.28,15.18.74,31.42,0,46.46,0,5.14,0,10.33.37,15.12-.55-15.18-1.51-32.25.28-47.43-.28,2.1-.08,3.5-1.54,5.27-1.8,5.15-.76,11.04-.14,16.64-.14,11.02,0,22.26-.25,33.15-.14,5.52.06,10.95.9,16.09,0-15.42-1.77-32.74-.16-48.68-1.11,1.18-.04,1.94-1.17,3.05-1.39,2.24-.45,5.24.13,8.04,0,5.18-.24,10.13.25,14.56-.55-6.77-.89-15.48-.46-22.47-.69.07-.62-.07-1.04-.14-1.52,8.15.07,16.85.45,24.41-.42-5.66-.68-13.06-.42-19.42-.42-1.77,0-3.77.39-5.13.14-.75-.14-1.44-1.03-2.36-1.25-2.96-.7-6.25-.63-9.15-.28-1.15-.84-2.5-2.21-3.33-2.91h25.52c2.88,0,6.2-.52,8.6,0,1.55.33,3.34,1.91,4.99,2.22-7.8-.69-18.21-.73-25.66.28,3.94.19,7.9.28,11.93.28s8.3.23,12.2-.14c.61-.06,1.29-.42,1.94-.42,1.4.01,2.7.73,4.02.83,2.56.19,4.45-.49,6.24-.69,2.7-.31,5.72,0,8.6,0,8.58,0,16.99-.04,25.24-.28-9.91-.89-21.43-.8-32.04-.55,1.1-.47,1.72-1.6,2.91-1.8.97-.16,2.3.2,3.61.14,9.65-.42,21.33.35,30.1-.28.15,0,.11-.18-.14-.14-10.19-.7-21.89-.54-32.31-.55,6.96-2.3,16.46-.98,25.38-1.39,6.15-.28,12.19.27,18.31,0,12.47-.55,24.78.29,36.47-.14-12.67-1.04-26.25-.97-39.7-.92-.67.03-1.34.03-2.01,0-5.1.01-10.17.02-15.15-.06.61-.36.97-.07,1.53-.41.55-.34.54-.97,1.25-1.11,1.05-.2,3.3.5,4.71.69,2.35.32,4.99.79,7.66.89.67,0,1.34,0,2.01,0,.66-.03,1.32-.09,1.98-.19,2.18-.33,3.78-1.55,5.96-1.8,4.79-.56,10.31-.1,15.53.14,4.97.23,10.1.51,15.12.28,10.18-.47,20.6-.28,30.65-.28,21.13,0,42.04-.39,61.58-.55-3.68-.91-8.17-.55-12.62-.56-4.44,0-8.94.06-12.9-.28,9.73-.1,19.95-1.06,29.82-.69,3.38.13,6.69.55,9.84.14,1.07-.14,2.04-.59,3.05-.69,6.11-.62,12.28.14,18.31-.14,6-.28,11.9.27,17.89-.28-10.83-1.23-23.67-.89-34.95-.28,1.04-.63,1.33-1.79,2.49-2.08,1.22-.3,3.14,0,4.72,0,11.18,0,23.11.48,32.73-.28-11.74-.93-25.11-.22-37.31-.69.75-1.11,2.43-1.42,3.88-1.53,3.97-.3,8.05.42,12.21.14,1.77-.12,3.6-.69,5.41-.83,7.07-.57,14.28,1.25,20.94-.28-5.66-.86-12.75-.28-18.86-.69,4.67-1.07,11.44.78,16.5-.14.65-.12,1.31-.72,1.94-.83,4.54-.81,11.85,1.26,15.4-.42-4.37-.86-10.23-.22-15.26-.42.3-.95-.74-1.29-.41-1.8,2.76.1,5.9.28,9.02.28Z"/>
      <path class="cls-1" d="m256.02,11.53c-1.94,2.39-7.1,3.65-10.54,1.8-.16-1.18.24-1.8.69-2.36,3.15-.76,7.31-.71,9.85.55Z"/>
      <path class="cls-1" d="m182.38,15c-2.38.31-5.25.84-7.63.69-.09-1.01,1.32-1.44,2.22-1.66,1.4-.35,2.92-.27,4.3-.69.17.76,1.06.79,1.11,1.66Z"/>
      <path class="cls-1" d="m184.32,14.03h3.47c-.39.35-1.02.46-1.25.97.13.24.05.69.28.83-.6.32-1.8.05-2.63.14.28-.41.08-1.31.14-1.94Z"/>
      <path class="cls-1" d="m240.07,14.3c.93-.32,2.45-.05,3.61-.14.26.62.41,1.35,1.11,1.52-1.05-.01-2.17.47-2.91.28-.95-.24-.99-1.35-1.8-1.66Z"/>
      <path class="cls-1" d="m224.12,15.97c.09-.55-.37-.56-.83-.55,2.89-1.05,7.28-.28,10.82-.28,2.53,0,4.65-.17,5.69,1.66-2.54,2.89-8.34,4.46-13.18,2.63-.67-.49-.54-1.77-1.25-2.22-1.51.99-.27,3.54.97,3.88,1.84-.34,2.94.58,4.99.42-3.36,1.14-6.75,1.23-9.71-.28-1.39-.71-1.94-1.18-4.3-1.11-1.83.05-3.95-.48-5.69-.28-1.71.19-3.32,1.24-5.13,1.39-6,.48-10.72-1.17-14.7-3.88-.51-.92-1.26-1.6-2.36-1.94,4.87-.28,9.83.32,14.56,0,2.86-.19,6.17-1.75,9.99-1.11,3.18.53,6.59,3.62,10.12,1.66Z"/>
      <path class="cls-1" d="m186.12,19.85c-.38,1.54-3.39,1.95-4.85,1.11.38-1.52,3.26-1.26,4.85-1.11Z"/>
      <path class="cls-1" d="m193.06,20.96c-1.67.37-4.14-.07-5.83.28.05-.51-.12-1.23.14-1.53,2.55-.24,4.48.14,5.69,1.25Z"/>
      <path class="cls-1" d="m251.31,22.07c-6.58,1.07-11.26,2.66-19.14,2.08,1.05-.24,1.96-1.65,3.19-1.94,1.66-.39,4.4,0,6.8,0,3.35,0,6.22,0,9.15-.14Z"/>
      <path class="cls-1" d="m261.85,25.26c.88-.32,2.36-.05,3.47-.14-.37.56-1.36.49-1.66,1.11-.63-.3-1.14-.71-1.8-.97Z"/>
      <path class="cls-1" d="m290.14,29.01c-1.91.53-4.05.08-4.85,1.8-1.46-.95-3.96-.84-5.96-1.25,2.08-1.71,8.07-1.6,10.82-.55Z"/>
      <path class="cls-1" d="m218.44,30.12c.55.15-.59.84-.83,1.11-3.84.39-7.35-.05-10.54-.69,3.65-.28,7.75-.11,11.37-.42Z"/>
      <path class="cls-1" d="m313.86,30.53c2.37-.15,5.54.1,8.32,0-2.04-.13-4.02,2.01-5.68,1.8-1.12-.14-1.45-1.46-2.64-1.8Z"/>
      <path class="cls-1" d="m107.35,32.89c4.73-.15,10.15.2,15.12.28,1.03.08,3.13-.17,3.47.14-6.38.04-12.77.35-18.58-.42Z"/>
      <path class="cls-1" d="m179.33,33.31c1.9-.32,4.39-.05,6.52-.14-.55.7-1.41,1.09-2.08,1.66-1.41-.58-2.93-1.05-4.44-1.52Z"/>
      <path class="cls-1" d="m340.48,33.44c1.48-.32,3.56-.05,5.27-.14-1.58.27-3.81.97-5.27.14Z"/>
      <path class="cls-1" d="m166.71,36.36c.19.19-.57.81-.97,1.25-.45.5-.86,1.12-1.39,1.25-1.48-1.48-3.6-2.32-6.52-2.36,2.13-.32,6.05-.05,8.88-.14Z"/>
      <path class="cls-1" d="m55.2,44.54c8.72-.22,17.05-.04,26.07,0-.88,1.64-3.17,1.11-5.13,1.11-3.95,0-8.35.03-12.34.14-3.66.1-6.88.64-8.6-1.25Z"/>
      <path class="cls-1" d="m58.53,50.09c-.61.72-1.04-.14-1.8-.28-1.88-.34-3.37.68-5.27.97-2.69.4-5.91-.14-9.02,0-3.42.15-6.92,1.32-10.54.69.45-2.28,3.95-2.7,6.8-3.05-.82.66-2.77.19-3.05,1.39,1.09,1.36,3.15.53,4.3,0,2.94-1.35,6.32-3.69,9.43-4.44.46-.11,2.57.18,3.33.41,2.1.66,4.83,2.75,5.83,4.3Z"/>
      <path class="cls-1" d="m338.68,46.62c-2.66.09-4.63,1.95-7.35,1.11.03-.43-.09-1.02.14-1.25,2.81.17,4.22.1,7.21.14Z"/>
      <path class="cls-1" d="m70.87,46.76c2.36-.32,5.32-.05,7.9-.14.59.09-.41.72-.69.83-.23.42-.63.66-.97.97-1.34-.05-2.34.25-3.74.14-.78-.65-1.43-1.43-2.49-1.8Z"/>
      <path class="cls-1" d="m59.36,47.03c.83-.32,2.26-.05,3.33-.14-.59.47-1.23.9-1.94,1.25-.46-.37-.84-.82-1.39-1.11Z"/>
      <path class="cls-1" d="m75.31,49.25c-.5.38-1.21.54-1.94.69.01-.2.02-.39-.14-.42.23-.56,1.41-.16,2.08-.28Z"/>
      <path class="cls-1" d="m88.35,56.47c-3.71-.31-7.99-.05-11.93-.14,1.01-.75,2.6-.57,4.72-.69,3.3-.19,6.4-1.36,7.21.83Z"/>
      <path class="cls-1" d="m271.56,72.69c-6.11.1-12.82.26-19.42.28,3.21-.81,6.3-1.74,8.18-3.88,2.16,2.79,7.5,2.39,11.23,3.61Z"/>
      <path class="cls-1" d="m295,69.78c-2.07.38-4.99-.09-7.07.28,1.58-.92,4.73-.87,7.07-.28Z"/>
      <path class="cls-1" d="m318.99,72.28c-13.14.27-26.65.16-39.8.42,2.64-.18,4.7-1.6,7.21-1.94,1.27-.17,3.17-.08,4.44-.14,5.14-.24,9.71.51,14.28.97,4.62.47,9.41.17,13.87.69Z"/>
      <path class="cls-1" d="m225.37,72.69c1.54-.77,3.32-.7,4.99-.97,1.65-.26,3.34-.87,4.85-.97,2.15-.15,4.23,1.5,6.66,1.8,1.23.15,2.4.03,3.74.14-5.75.15-13.76-.45-20.25,0Z"/>
      <path class="cls-1" d="m137.3,75.33h-7.21c-1.39.07-.75-.25.28-.14,2.13.01,6.32-1.38,6.94.14Z"/>
      <path class="cls-1" d="m189.87,75.47c-1.39.42-3.37.24-5.13.28,1.34-1.01,3.57-1.21,5.13-.28Z"/>
      <path class="cls-1" d="m152.56,77.96h-5.41c1.61-.52,2.95-1.3,4.3-2.08.3.76.82,1.31,1.11,2.08Z"/>
      <path class="cls-1" d="m141.05,77.69c-5.27.25-11.09.42-16.5.42-2.14,0-4.51.16-6.52-.14-.65-.1-1.16-.52-1.8-.69-2.85-.75-5.92-.61-8.6-.14-.75.13-1.65.73-2.36.69-1.14-.06-2.02-1.46-3.05-1.39,8.48-.82,19.07-.14,28.29-.14,2.5,0,5.5-.56,7.35-.14,1.03.23,1.88,1.64,3.19,1.52Z"/>
      <path class="cls-1" d="m89.46,86.56c-1.16.32-2.91.05-4.3.14,1.07-.24,2.91-.37,4.3-.14Z"/>
      <path class="cls-1" d="m265.59,29.14c.2-.34-.8-1.27-.55-1.66,5.59-1.68,7.88,2.51,11.51,4.02,2.93,1.22,5.63.86,9.29,1.66,1.54-1.42,4.14-2.94,7.21-1.94.53.48-1.33.86-.97,2.08.98.56,1.4-.85,2.22-.14,2.35-2.09,8.24-1.71,13.45-1.39,1.34.08,3.34.17,4.16.42,3.27.97,4.57,5.27,8.18,4.44.21-1.92-1.63-1.79-2.08-3.05,2.74-.58,5.68-1.37,8.74-.69,1.25.28,2.32,1.11,3.61,1.39,4.06.88,8.64.69,13.04,1.52,5.9-1.43,10.34.81,14.56,2.22v1.25c-7.24.85-15.33.85-23.16,1.11-.55.13-.06-.78-.55-.69-5.1.34-7.69,6.1-5.69,10.96.83-.14.52-1.43.97-1.94,1.31.75,3.59,1.41,5.96.83,4.79-1.17,10.87.81,17.06,1.11,1.69.08,3.71-.46,5.55-.55,2.29-.12,4.62.14,6.52,0,.66-.05,1.32-.34,1.94-.28,1.39.14,3.07,1.46,4.58,2.08,1.75.72,3.36,1.07,4.72,1.8-.04.28-.61.03-.56.42,9.06,2.96,24.65-.61,29.13,6.93-2.98.8-8.14.29-11.65.83-1.67.26-3.21.71-4.72.83-6.54.53-13.08-.2-19.28.97.85-.85,1.77-1.65,3.19-1.94,1.49-1.39,3.21-3.25,3.19-5.69-1.23.35-1.41,1.73-2.22,2.5-2.71-.11-4.72,1.9-7.35,2.63-3.09.87-6.16.29-9.01-.42-.12-.38.39-1.18-.28-1.52-3.09.67-6.6,1.08-10.12,1.66-1,.16-2.3.13-2.91.97.74.57,1.92.62,2.77.69,1.55.13,3.38.12,4.85-.14,1.08-.19,2.61-.79,4.16-.55,1.55.23,3.09,1.35,4.85,1.8,2.26.58,4.51.24,7.21.14-.08.93-1.19,1.53-1.94,2.22-.76.7-1.53,1.69-2.36,2.08-2.19,1.03-6.63.86-10.26.69-5.53-.25-11.16,0-16.37.42-5.29.43-10.24.15-14.84.14-1.03,0-2.35.3-3.05.28-2.15-.07-4.49-.62-6.38-1.11-3.87-1-7.4-2.51-10.82-4.16-1.64-.79-3.05-2.24-4.99-2.36,1.72,2.67,5.37,4.62,8.32,6.52-5.03.91-8.95-3.05-13.73-1.53-.56.18-1.16.8-1.8.97-.9.24-2.13.09-3.19.28-3.75.65-7.23,1.89-11.79,1.66-3.88-.19-7.88-1.19-11.65-1.8,3.61-1.48,7.74-2.43,9.15-6.1-1.31-.18-2.77.84-4.16,1.53-3.95,1.97-9.28,3.31-14.98,3.74-3.21.25-6.78-.22-9.99.14,3.6,1.3,8.8,2.17,13.59,1.39-3.19,1.89-8.59,1.5-13.73,1.11-1.78-.13-3.4-1-5.13-1.25-1.78-.26-3.44.32-5.13.42-1.19.07-2.41-.22-3.61-.14-4.84.32-8.96,2.58-13.87,2.91-2.71.18-5.36-.13-8.04-.14-1.99,0-4.48-.22-6.1.14-.97.22-1.85,1.19-3.05,1.39-2.62.43-6.51.32-8.18-.83-3.17-.18-5.02,1.3-7.49,2.08-1.83.58-3.55,1.07-5.55,1.52.64-1.15,2.09-1.17,2.91-2.22,1.12-1.43,1.46-3.58,1.8-5.41-1.98.7-2.43,3.37-4.02,4.58-2.33,1.76-6.41,1.22-9.71,1.8,1.04,1.18,3.13,1.31,5.27,1.39-1.97,1.27-3.89,2.65-6.66,2.91-3.08.29-7.45-.87-10.13-2.08-1.61-.73-2.56-2.92-4.02-3.61-1.92.58-3.22,1.77-5.13,2.36-2.19-.4-5.05-.13-6.38-1.39-.57.07-.37-.65-.55-.97-6.9-.88-15.65.76-23.3.42-2.08-.09-4.32.13-6.38.14-.48,0-1.48.43-1.66-.42.4-1.26,2.14-.84,3.33-.97,4.12-.45,10.11-.31,13.45-1.66.72-.03.74.65,1.39.69,1.32-1.18,2.08-2.92,3.47-4.02,2.3-.27,3.71.36,5.13.97.09.76-1.27,1.2-.97,2.63,1.38.09,1.87-1.48,3.19-1.94,2.97-1.05,6.28.54,9.15.83-.88-2.31-5.22-3.52-8.88-2.63-.34-.34,1.19-1.82.42-3.05-.96.42-1.22,1.56-1.8,2.36-.83-.04-1.41-1.27-2.77-1.53-2.5-.48-5.35.29-6.38,1.25-1.3-.32-1.67-1.49-3.05-2.08-2.19-.93-4.97-.41-7.63-.69-2.78-.3-4.89-1.63-6.24-3.05.63-.53,1.66-.65,1.66-1.8.38.09.35.58.83.55-.2-2.49-.11-5.31.69-7.49-1.72.39-2.99,4.49-1.66,6.66-2.71.54-4.94,1.76-7.77,1.66-5.57-.18-11.5-4.25-14.84-6.94-.19-2.5.7-3.92,1.39-5.55-1.53.92-2.2,2.7-2.22,5.13-2.29-.67-3.75-2.9-6.66-2.5,1.22.95,3.05,1.29,3.74,2.77-2.49,1.04-5.59.43-8.32.69-1.9.18-3.42.67-5.69.28-.5-.09-.92-.15-1.39-.28-.68-.19-1.11-.58-2.08-.69-1.86-.21-3.89.55-5.82.69-3.02.23-5.46-.31-7.63-1.53,1.34-1.94,3.13-1.76,4.02.56,1.26-1.07,1.69-2.44,3.88-3.05,1.17-.33,2.95-.82,4.02-.97,3.74-.52,4.66,1.72,6.66,2.77.67.21.52-.4.97-.42,3.1-.04,4.78-1.69,7.21-2.91,2.79-1.4,5.52-2.98,10.26-2.5,2.27.23,4.48.91,6.1,2.08.56.18.33,1.15.97,1.25,1.62-.34,1.44-2.1,2.08-3.19,1.15-1.95,3.57-2.8,4.99-4.44-2.95-.49-5.23,2.07-6.93,3.74-1.01-.75-2.23-1.29-3.74-1.52-.08-.7.82-1,1.39-1.39,2.3-1.56,4.7-3.23,7.77-4.3.62-.21,1.08-1.13,1.53-1.66-1.66-2.27-6.82-.4-9.85-1.11-.38-2.01,3-2.75,4.72-2.63.63.04,1.26.57,2.08.83.77.25,1.66.19,2.36.42,1.07.35,2.02,1.2,3.19,1.39,1.57.25,3.15.28,4.58.42,6.9.68,14.83-.68,21.91.14,1.93.22,3.96.99,5.96,1.25,2.92.38,5.92,0,7.77,1.11,5.39.2,12.16-.63,15.53,1.94.65,1.64,4.35,2.9,5.69.97-.3-.72-1.54-.49-2.36-.69-.24-.46.41-.73.69-.97,1.13-.97,2.6-1.58,4.3-2.22,1.9-.72,4.57-2.19,6.8-1.94.87.1,2,.93,3.05,1.39,2.5,1.08,4.72,1.77,6.38,3.47,1.19-1.83-1.38-3.28-2.36-4.3,2.92-1.6,6.34-3.15,10.4-3.47,2.51-.19,5.04.21,7.77.42,2.41.19,5.21-.11,7.35.14,2.76.32,5.77.45,8.18.28,2.21-.16,4.07-.97,5.96-1.66,1.81-.66,3.79-1.15,4.99-2.5-3.27-1.32-6.16,1.2-9.02,1.66,2.69-1.7,6.58-2.69,10.82-2.5,5.71.26,9.99,2.64,14.15,3.61,1.08.25,5.42.37,5.41-1.25,0-1-.91-1.02-2.22-.97-3.24-1.06-7.37-1.97-10.4-2.77,4.81-.58,9.05-2.61,14.01-1.94,4.7.64,7.52,4.22,12.48,4.3Zm-25.8,30.1c-1.31.18-1.9,1.99-2.77,3.19-.79,1.1-2.6,2.32-1.94,3.75,2.77-1.02,3.93-4.39,4.71-6.94Zm-3.33,6.66c-.11.48.15.59.28.83,2.47-.86,3.72-2.94,4.16-5.83-1.85,1.29-2.85,3.44-4.44,4.99Zm19.14-34.95c.63.69,2.88.6,3.05-.42-.49-.61-3.12-.79-3.05.42Zm-58.25,2.63c-1,.97-3.54,2.96-2.08,4.58,1.39-1.11,1.73-3.26,3.05-4.44-.18-.19-.6-.14-.97-.14Zm-4.02,3.88c1.28-.52,1.3-2.3,1.8-3.61-1.49-.34-2.98,2.57-1.8,3.61Zm3.88,1.11c1.82-1,1.81-3.83,4.16-4.3-1.62-1.78-4.35,2.55-4.16,4.3Zm106.93-4.02c.56,1.29,1.39,2.77,1.8,4.3.42,1.58.13,3.53,1.39,4.58.88-1.39.25-3.57-.28-5.13-.55-1.61-1.61-3.18-2.5-4.02-.03-.11-.12-.16-.28-.14,0,.18-.18.19-.14.42Zm-47.29,3.74c.67,1.47.58,3.39,1.66,4.58,1.11-1.56.18-3.72-.55-5.13-.75-1.45-1.82-3.15-3.33-3.47.46,1.46,1.55,2.55,2.22,4.02Zm-1.53-1.11c-1.14-1.28-2.84-2.87-4.58-2.63.66,1.21,2.27,1.89,3.33,3.05,1.18,1.29,1.5,2.82,2.36,4.44,1.47-1.4-.1-3.73-1.11-4.85Zm4.72,3.05c.15.72.26,3.27,1.25,3.19,1.29-.1.34-2.79.14-3.61-.67-2.66-1.31-3.96-2.77-5.27h-.28c-.03-.17-.16-.09-.28,0-.11.03-.16.12-.14.28,1.06,1.73,1.55,2.89,2.08,5.41Zm43.41-2.22c.4,1.46.12,3.44,1.39,4.16.7-.8.06-2.39-.28-3.61-.54-1.95-1.2-3.63-2.91-4.02.46.93,1.38,1.93,1.8,3.47Zm3.74-3.05c1,1.63,1.71,4.08,1.94,6.52.08.89-.24,2.03.69,2.5,1.48-3.07-.02-8.37-2.77-9.43.02.16-.02.39.14.42Zm-58.67,5.27c1.37-1.42.32-4.8-1.11-5.55,0,1.62,1.14,3.9,1.11,5.55Zm-5.96-1.25c.93-.89.11-2.99-.28-3.88h-.42c-.25,1.24-.26,3.39.69,3.88Zm38.42-3.88c-.32,2.96-1.67,4.9-2.36,7.49,2.54-.19,3.54-4.45,2.77-7.49h-.42Zm3.47,0c-.7,2.72-2.01,4.83-2.5,7.77,2.06.07,3.59-5.67,3.05-7.77h-.56Zm-22.47.69c.37,1.14.58,2.99.69,4.58.05.69-.35,2.04.69,2.08.84-.65.69-2.4.55-3.61-.16-1.42-.85-2.97-1.66-3.33-.03-.11-.12-.16-.28-.14-.02.17-.25.31,0,.42Zm15.95-.42c-.16,2.02-1.11,3.97-.97,5.83,2.26.06,2.48-4.56,1.25-5.83h-.28Zm5.83,8.74c2.02-.15,2.38-1.73,3.19-3.47.8-1.72,1.41-2.92,1.25-4.99-.18,0-.19-.18-.42-.14-.71,3.49-2.89,5.53-4.02,8.6Zm-46.46-8.18c.01,1.21.36,2.76,1.25,2.63.71-.9.03-3.69-1.25-2.63Zm37.45,3.88c1.99.18,1.45-3.97.14-4.16-.17,1.23-.56,3.2-.14,4.16Zm-39.39-1.52c.7-.55.4-2.01-.14-2.5-1.36.03-.51,2.34.14,2.5Zm36.48,1.25c1.28-.32.63-3.07-.28-3.33h-.28c-.05.82,0,2.65.55,3.33Zm14.84,5.27c1.61-.22,2.54-1.97,3.19-3.33.68-1.43,1.4-3.42,1.11-5.27h-.42c-.69,3.38-3.27,5.6-3.88,8.6Zm-53.95-5.96c.96.07,1.05-1.69.56-2.22-1.34-.23-1.05,1.69-.56,2.22Zm34.26,2.22c1.83-.65.61-4.26-.97-4.44-.12,1.39.71,2.98.97,4.44Zm-92.09,1.11c1.36.04,1.69-1.64,2.22-2.5.65-1.04,1.61-1.83,1.8-2.77-2.09-.18-4.67,3.35-4.02,5.27Zm-1.11,0c.84-.46.78-1.66,1.11-2.5.38-.97.94-1.59,1.39-2.36-1.62-1.08-4.44,3.9-2.5,4.85Zm-49.51-.28c1.28-.42,1.67-2.12,2.5-3.05.52-.59,1.47-.86,1.39-1.66-2.04.75-4.05,2.22-3.88,4.71Zm166.43,1.25c1.28.55,2.02-1.06,2.64-2.08.64-1.07,1.51-2.5,1.25-3.74-1.81,1.42-2.71,3.77-3.88,5.83Zm19.97,4.72c2.09-.36,1.86-3.86,1.66-6.24-.15-1.81-.77-3.24-1.25-4.16-.18,0-.19-.18-.41-.14.65,3.04.49,7.92,0,10.54Zm-133.84-6.24c-.13.61,0,1.11.14,1.53,1.8-1.02,2.26-3.38,4.16-4.3.35-.16.79-.22.97-.55-1.31-1.64-4.89,1.48-5.27,3.33Zm-48.4-3.19c-1.38.98-3.02,2.99-2.77,4.85,1.29-.21,1.54-1.68,2.22-2.5.73-.87,1.64-1.52,2.5-2.22.45-.25,1.44.05,1.53-.55-1.17-.63-2.63-.18-3.47.42Zm1.52,2.22c-1.32,1.22-2.97,2.63-2.36,3.74,1.67-.39,2.56-2.13,3.74-3.19,1.26-1.13,2.99-1.77,3.74-3.05-1.31-.61-3.84,1.3-5.13,2.5Zm-12.2.55c1.43-.51,2.17-1.71,3.19-2.63-1.42-1.17-4.38.74-3.19,2.63Zm19,.42c-.15.63,0,1.17.14,1.67,1.96-.95,2.49-3.34,3.88-4.85-1.38-.95-3.82,2.3-4.02,3.19Zm-3.47-.28c-.87,1.12-1.69,2.83-.83,3.88,1.27-.51,1.35-1.98,2.08-2.91,1.07-1.37,2.74-2.08,3.61-3.61-1.36-.91-3.75,1.22-4.85,2.63Zm8.6.83c1.35-.5,1.84-1.85,2.5-3.05-1.42-1.58-3.2,1.2-2.5,3.05Zm4.02-.42c.78-.26,1.34-1.25,1.11-2.08-1.25-.64-1.69,1.24-1.11,2.08Zm2.49.28c.93.16,1.84-.7,1.94-1.8-.11-.03-.16-.12-.14-.28-1.27-.47-1.8.83-1.8,2.08Zm164.49,8.6c2.72-.74,2.77-7.23,2.22-10.4-.18,0-.19-.18-.42-.14-.15,3.87-1.35,7.43-1.8,10.54Zm-159.08-9.85c-.01.24.03.43.14.55.58.02.76-.27.55-.69-.32-.04-.53.02-.69.14Zm-46.32.97c.99,1.18,1.05,3.3,2.22,4.3.81-1.52-.62-4.11-1.94-4.85,0,.28-.38.18-.28.56Zm-1.52.97c1.01,1.4,1,3.81,2.22,4.99.96-1.77-.33-4.45-1.8-5.13-.19,0-.3.06-.42.14Zm-1.53,1.25c.76,1.46,1.06,3.38,1.53,5.13,1.45-1.13.31-4.8-1.11-5.27-.19,0-.3.06-.42.14Zm212.89.83c-.43,3.87-3.35,6.09-3.61,9.57,1.98.37,2.69-2.34,3.33-3.88.71-1.74,1.7-4.01.97-5.96-.18,0-.19-.18-.41-.14-.03.2-.23.23-.28.42Zm-212.89,4.72c.59-1.36-.2-3.66-1.39-4.16-.14,1.45.27,3.51,1.39,4.16Zm124.13,6.38c1.32-.07,1.44-1.71,1.53-2.91.17-2.33-.25-5.52-.69-7.21-.2-.03-.23-.23-.42-.28-.18,3.02-.45,7.23-.42,10.4Zm-2.63.97c1.71-.63,1.48-3.43,1.39-5.55-.09-2.08-.6-4.07-1.11-5.27-.2-.03-.23-.23-.42-.28.37,3.04.24,7.85.14,11.1Zm-122.88-5.96c.61-1.6-.31-3.9-1.66-4.44-.51,1.49.68,3.53,1.66,4.44Zm119.83,6.93c2.37-.17,1.4-3.3,1.25-5.13-.19-2.3-.48-4.57-1.11-5.96-.18,0-.19-.18-.42-.14-.21,3.5.72,7.47.28,11.23Zm-131.34-9.85c-1.09.79-3.07,5.43-.83,5.69-.03-2.39.76-3.95,1.53-5.55-.16-.12-.37-.18-.69-.14Zm128.57.55c.74,1.97,1.06,5.24.97,7.91-.02.69-.6,1.83.42,2.08,1.32-.69.97-3.2.83-4.85-.17-2.04-.94-4.34-1.66-5.41-.18,0-.19-.18-.42-.14,0,.18-.18.19-.14.42Zm-126.35.42c-1.19,1.36-2.54,3.85-1.8,6.24.37.14,1.24.32,1.25-.28-.54-1.8.64-3.99.97-5.82-.19,0-.3-.07-.42-.14Zm137.03,6.38c1.96-.51,1.73-4.56,1.11-6.38h-.42c-.09,2.18-.89,4.37-.69,6.38Zm2.63-1.11c1.57.41,2.47-3.57.83-4.3-.93.78-.48,2.94-.83,4.3Zm-137.72-4.16c-.96,1.28-2.39,6.27,0,7.07-.11-2.18.2-5.28.42-7.07h-.42Zm22.47.55c-1,2.41-4.25,7.54-2.36,9.99,1.05-1.39.92-3.34,1.53-4.99.59-1.6,1.5-3.24,1.25-4.99h-.42Zm3.47,0c-1.66,1.19-3.2,5.03-3.47,7.77-.07.78-.3,2.09.55,2.5,1.03-.36.7-1.69.83-2.5.46-2.82,1.62-5.39,2.36-7.77h-.28Zm-8.88,6.8c-.08,1.04-.47,3.3.83,3.61.73-.63.37-1.92.42-2.77.15-2.55,1.2-4.89,1.39-6.8-.03-.11-.12-.16-.28-.14-.88,1.36-2.16,3.75-2.36,6.1Zm10.68-5.55c-1.92,2.27-4.04,6.31-3.05,10.12,1.2-.43.81-1.95.97-2.91.44-2.7,1.78-5.3,2.91-7.21h-.83Zm-25.24,6.1c-1.12-1.24-.47-4.25-1.11-5.96-.8,1.49-1.38,6.89,1.11,5.96Zm179.33-5.96c-1.09,1.78-2.52,3.95-2.5,6.38,1.22.13,1.44-1.58,1.8-2.63.41-1.2.86-2.53,1.11-3.61-.18,0-.19-.18-.42-.14Zm-58.39,5.83c2.15-.31,1.35-5,0-5.55.1,1.38.17,4.18,0,5.55Zm-119,0c-.16-1.16-.5-3.7-.14-5.41-1.37.21-2.02,5.54.14,5.41Zm26.07-5.13c-1.9,1.7-3.95,4.77-4.16,7.91-.04.54-.36,1.62.56,1.94,1.06-1.52,1.1-3.56,1.8-5.27.72-1.74,1.74-3.11,2.77-4.44-.18-.19-.6-.14-.97-.14Zm153.67,0c-.9,1.42-2.36,3-2.08,5.13,1.57-.94,2.25-3.47,2.64-5.13h-.56Zm-7.77.14c-.03.2-.23.23-.28.41-.69,1.12-1.27,2.53-1.94,3.88-.61,1.23-1.95,2.66-1.25,3.88,2.51-1.47,3.24-4.98,3.88-8.04-.18,0-.19-.18-.42-.14Zm2.63,0c-.78.83-1.19,2.1-1.66,3.47-.36,1.03-1.27,2.72-.14,3.19,1.42-1.53,1.76-4.16,2.22-6.66h-.42Zm5.13,4.3c1.28-.72,1.89-2.82,1.94-4.3-1.57.51-1.64,2.52-1.94,4.3Zm-62.41.97c.76-1.06.67-4.56-.56-4.99.44,1.41-.37,4.07.56,4.99Zm-114.84.14c-.78-1.07-.22-3.48-.83-4.72-.73,1.05-1.45,5.35.83,4.72Zm160.19,6.38c1.62-.13,2.44-2.15,3.19-3.61,1.06-2.06,2.31-4.52,1.8-6.8h-.42c-.65,4.34-3.02,6.96-4.58,10.4Zm-157.83-6.1c-.09-.81-.35-2.59-.56-3.74-1.22.24-1.07,4.14.56,3.74Zm155.47,6.38c2.04.14,2.72-2.43,3.47-4.02.82-1.76,1.85-3.91,1.53-5.96-.03-.11-.12-.16-.28-.14-1.16,3.79-3.29,6.6-4.72,10.13Zm-135.22-6.38c-.83,1.46-2.15,3.41-.97,4.58.99-1.29,1.29-3.02,2.08-4.44.39-.7.93-1.4,1.39-1.94.47-.56,1.32-1.01,1.25-1.8-1.82.13-2.87,2.07-3.74,3.61Zm-17.75-1.39c.09-.63-.22-1.97-1.11-2.08-.51,1.03.35,2.34,1.11,2.08Zm189.45,0c.44-.35.83-.74.97-1.39-.72-1.26-2.07.88-.97,1.39Zm-55.2.42c1.07-.27,1.85-.83,2.08-1.94-1.14-.33-1.98.78-2.08,1.94Zm18.31,3.33c-.84,1.64-1.95,3.2-2.36,4.85,1.94.02,2.73-2.31,3.47-3.88.82-1.75,1.6-3.89,1.8-5.96-.03-.16-.16-.22-.28-.28-.88,1.8-1.72,3.5-2.63,5.27Zm115.81,1.11c1.28.05,1.49-1.52,1.8-2.5.33-1.04.87-2.38.56-3.47-.18,0-.19-.18-.42-.14-.36,2.24-1.97,3.94-1.94,6.1Zm4.71-6.1c-.63,2.03-2.78,3.93-2.36,6.1,1.31-.05,1.53-1.68,1.94-2.63.43-1.02,1.29-2.26.83-3.47h-.42Zm2.91.28c-.49,1.87-2.79,3.25-2.22,5.27,1.2.14,1.71-1.27,2.08-2.08.43-.94.9-2.18.69-3.19h-.55Zm2.36.42c-.26,1.89-2.81,3.31-1.94,4.99,1.89-.67,2.78-3.02,2.63-5.27-.17,0-.19-.18-.41-.14-.03.2-.23.23-.28.42Zm-125.65-.14c-1.18,1.21-2.07,3.07-3.05,4.72-.9,1.52-2.1,2.93-2.5,4.58,2.01.18,2.93-2.25,3.74-3.75.92-1.7,2.04-3.73,2.08-5.55h-.28Zm127.87.69c-.45,1.58-1.81,2.26-2.08,4.02,1.76.76,3.06-2.45,2.5-4.02h-.42Zm-131.34.14c-1.21,1.13-1.76,2.78-2.63,4.3-.76,1.32-2,2.35-2.22,3.88,1.77.12,2.64-1.81,3.33-3.19.78-1.55,1.34-3.47,1.94-4.99h-.42Zm42.44,1.8c.83-.03,1.31-1.05.97-1.8-1.12-.23-1.54,1.21-.97,1.8Zm90.01,1.94c1.68.95,2.94-2.01,2.22-3.47-.17,0-.19-.18-.41-.14-.41,1.4-1.58,2.03-1.8,3.61Zm3.19-.83c1.51.56,2.22-1.4,1.8-2.77-1.41.09-1.81,1.71-1.8,2.77Zm-149.51.14c1.57.4,1.94-1.56,2.5-2.63-1.3-.13-2.16,1.34-2.5,2.63Zm152.42-.41c1.13,1.05,2.16-.64,2.36-1.8-.11-.03-.16-.12-.14-.28-1.27-.37-2.09.85-2.22,2.08Zm-144.1-2.08c-.9,1.19-1.86,2.52-2.77,3.88-.74,1.1-1.74,2.28-1.8,3.47,1.69.35,2.54-1.64,3.19-2.77.75-1.32,1.57-2.91,1.8-4.44-.18,0-.19-.18-.42-.14Zm-122.19.14c-1.57,1.35-3.62,3.67-2.91,6.38.93-2.26,2.16-4.22,3.47-6.1-.09-.19-.3-.26-.55-.28Zm115.39,4.02c1.77.3,2.91-2.66,2.91-4.02-1.25,1.06-2.41,2.21-2.91,4.02Zm39.94-2.77c.77.12,1.02-.27,1.11-.83-.11-.03-.16-.12-.14-.28-.82-.56-1.62.56-.97,1.11Zm-61.3,8.6c2.22.71,3.71-1.83,4.71-3.33,1.14-1.71,2.37-4.08,2.08-6.38h-.42c-1.44,3.92-4.21,6.52-6.38,9.71Zm22.61-4.02c1.43.46,1.85-1.23,2.36-2.08.62-1.05,1.34-2.13,1.66-3.19-.03-.16-.15-.22-.28-.28-1.41,1.68-2.95,3.24-3.74,5.55Zm3.05,2.08c1.96.49,2.95-1.51,3.61-2.77.79-1.5,1.5-3.3,1.94-4.85-2.39,2-3.64,5.14-5.55,7.63Zm27.32-5.83c-1.39.88-2.84,1.83-2.91,3.19,1.83.54,2.73-1.37,4.02-2.08,1.5-.83,3.45-.81,4.58-2.22-1.65-1.48-4.01.04-5.69,1.11Zm25.66.42c1.28.08,1.13-1.27,1.52-2.08-1.15-.55-1.95,1.06-1.52,2.08Zm99.72-1.53c-.53-1.64-2.5.03-1.8,1.25.89-.12,1.52-.52,1.8-1.25Zm-170.86,3.74c-.85,1.2-2,2.39-2.36,4.02,1.45-.2,2.39-1.95,3.19-3.19.87-1.36,1.71-3.09,1.94-4.85-.03-.16-.16-.22-.28-.28-.63,1.68-1.57,2.99-2.5,4.3Zm6.38-4.3c-1.2,1.19-1.91,2.77-2.91,4.16-.76,1.05-2.01,1.79-2.22,3.19,1.75.62,2.67-1.59,3.47-2.77.93-1.37,1.87-3.02,2.22-4.58h-.55Zm-9.99.42c-1.32,1.26-2.55,3.39-3.88,5.13-1.19,1.56-2.85,2.93-3.05,4.58,2.34.15,3.25-2.49,4.3-4.02,1.2-1.74,2.28-3.7,2.91-5.69h-.28Zm-3.88.83c-.17.06-.3.16-.42.28-1.87,1.97-3.53,5.09-5.41,7.07-.66.7-1.81,1.22-1.8,2.36,2.45.68,3.81-2.05,4.85-3.61,1.25-1.85,2.63-3.88,3.05-6.1h-.28Zm64.77,1.11c.97.55,3.15.23,4.02.14-.12-1.35-3.85-1.7-4.02-.14Zm-147.43,1.94c.98.17,1.61-.67,2.5-.83,2.79-.49,5.57.89,7.49,1.11-.1-3.65-9.12-3.8-9.99-.28Zm75.59-2.36c-1.57,1.74-3.12,3.44-4.85,4.99-1.59,1.43-3.62,2.5-4.72,4.44,1.16,1.06,2.26-.5,3.05-1.11,2.84-2.17,5.55-4.93,6.94-8.18-.18,0-.19-.18-.42-.14Zm3.61,0c-1.37,1.44-2.86,3.09-4.3,4.72-1.21,1.37-3.18,2.81-3.33,4.58,1.09.65,1.99-.6,2.64-1.25.76-.76,1.46-1.73,2.08-2.5,1.3-1.62,3.17-3.45,3.19-5.55h-.28Zm83.63,2.5c1.46.1,2.4-1.41,1.94-2.36-1.1.28-2.1,1.27-1.94,2.36Zm17.61-2.36c0,.18-.18.19-.14.42-.85,2.75-2.67,4.54-3.88,6.93,1.53,1.09,2.72-1.16,3.33-2.36.74-1.46,1.56-3.38,1.25-4.99h-.55Zm-108.87.14c-1.11,1.72-2.35,3.25-3.74,4.58-1.3,1.24-3.04,2.01-3.88,3.74.98,1.02,1.95-.28,2.63-.83,2.4-1.93,5-4.24,5.69-7.49h-.69Zm103.19,0c-.64,2.13-2.58,2.97-3.19,5.13,2.33.04,3.68-2.77,3.61-5.13h-.41Zm.55,5.27c-.43.31-1.47.6-1.11,1.25,2.96.59,3.72-3.89,4.3-6.24-.03-.16-.15-.22-.28-.28-1.23,1.49-1.75,3.7-2.91,5.27Zm-106.51-5.13c-1.25.99-2.02,2.81-3.19,4.16-1.11,1.28-3.02,2.01-3.05,3.61,1.7-.09,2.92-1.78,3.88-3.05,1.03-1.35,2.16-3.02,2.63-4.72h-.28Zm103.05,0c-.78,1.39-1.89,2.46-2.36,4.16,2.09.79,2.37-2.5,3.05-4.02-.16-.12-.37-.18-.69-.14Zm15.25.28c-1.51,2.28-2.84,4.74-4.44,6.93,1.54,1.05,2.69-1,3.33-2.22.74-1.41,1.48-3.31,1.53-4.58-.18,0-.19-.18-.42-.14Zm-45.63.14c-.78,1.14-1.22,2.65-1.8,4.02-.51,1.19-1.52,2.34-1.25,3.61,1.58.02,2.02-1.88,2.5-3.05.53-1.29,1.3-2.95.97-4.44-.18,0-.19-.18-.42-.14Zm-.42,7.35c1.12.1,1.84-1.39,2.5-2.63.81-1.54,1.91-4.17.55-4.72-.48,2.9-3.01,4.48-3.05,7.35Zm24.69-4.3c1.29-.2,2-1.68,1.66-3.05h-.42c-.13,1.23-1.39,2.01-1.25,3.05Zm17.89-3.05c-1.05,1.55-1.64,3.57-2.77,4.99-.5.63-1.45.89-1.25,1.94.99.49,1.86-.37,2.36-.97,1.1-1.34,2.24-3.82,2.08-5.83-.18,0-.19-.18-.42-.14Zm-15.67,3.33c1.39.81,2.29-2.11,1.8-3.19-1.2.47-1.32,2.01-1.8,3.19Zm21.77-2.77c-1.15,2.08-2.63,3.84-3.47,6.24,1.31.62,2.22-1.06,2.77-2.08.65-1.2,1.34-2.85,1.11-4.16h-.41Zm-53.53,6.52c2.36.04,3-3.56,2.77-6.1-.18,0-.19-.18-.42-.14-.56,2.3-1.41,4.32-2.36,6.24Zm53.95-.83c1.95,1.07,4.17-3.44,2.63-5.41-.6,2.08-1.77,3.6-2.63,5.41Zm-43.41-5.13c-.74,2.05-2.84,3.41-3.05,5.55,1.23.36,1.83-1.19,2.36-2.08.54-.92,1.45-2.21,1.11-3.33-.18,0-.19-.18-.42-.14Zm-93.34.56c.05,3.36-2.21,5.8-1.94,8.46,1.38.09,1.69-1.92,2.08-3.33.49-1.79,1.03-4.23.42-5.55h-.42c0,.19-.06.3-.14.42Zm2.63.14c-.32,2.44-1.28,4.66-1.94,6.8-.17.56-.94,1.66,0,2.08,1.16.07,1.28-1.67,1.66-2.91.6-1.94,1.59-4.46.56-6.38h-.28v.42Zm93.34-.42c-.7,1.7-3.08,3.05-2.63,4.99.11.03.27,0,.28.14,1.67-1.05,2.53-2.93,3.05-5.13h-.69Zm-50.76,4.02c.18.14.42.23.56.42,1.52-.94,3.29-2.33,3.33-4.3-1.74.84-3.31,1.87-3.88,3.88Zm51.73-.83c1.37.21,1.82-1.57,2.08-2.91-1.26-.22-2.38,1.58-2.08,2.91Zm-100.97,4.71c2.11-.11,2.2-4.94,1.94-7.49-.03-.11-.12-.16-.28-.14-.28,2.72-1.45,5.29-1.66,7.63Zm6.94,1.25c1.44.06,1.74-1.84,2.22-3.05.7-1.77,1.6-3.59,1.11-5.69-.18,0-.19-.18-.42-.14-.4,3.38-3.33,5.59-2.91,8.88Zm96.94-6.94c.9.02,1.31-.45,1.25-1.39-.86-.92-2.03.65-1.25,1.39Zm41.05,2.36c1.95,0,2.29-2.3,2.08-4.02-1.08.87-2.28,2.34-2.08,4.02Zm3.61.14c1.64-.04,2.28-3.19,1.25-4.16-.72.95-1.75,2.89-1.25,4.16Zm-194.17-.55c.58-.82-.03-2.45-.14-3.47-1.51.05-.92,3.43.14,3.47Zm1.53-3.47c-.45,1.2-1.98,4.12-.42,5.13,1.03-1.05.6-3.57,1.11-5.13h-.69Zm1.25,5.83c1.27.01.84-1.64.97-2.64.15-1.11.41-2.19.69-2.91-.18,0-.19-.18-.42-.14-1.11,1.12-1.69,3.48-1.25,5.69Zm193.75-2.36c.25.12.41.33.69.42,1.03-.64,1.59-1.74,1.66-3.33-1.3-1-1.97,1.67-2.36,2.91Zm-151.86-2.77c.23,2.37-.95,5.19-.28,6.66,1.64-1.07,1.05-4.77.83-6.93-.18,0-.19-.18-.42-.14,0,.18-.18.19-.14.42Zm53.53,2.22c1.35.23,2.66-.75,2.77-2.22-1.33-.69-2.37,1.09-2.77,2.22Zm101.24.55c1.45.42,2.45-1.39,1.94-2.91-.96.11-1.68,1.64-1.94,2.91Zm-72.81-1.39c.16.03.21.16.28.28.91-.11,1.81-.23,1.66-1.39-.7-.44-2.11-.13-1.94,1.11Zm76.14,1.66c1.36-.16,1.52-1.53,1.8-2.77-1.03-.66-2.32,1.89-1.8,2.77Zm5.55-.55c1.11-.04,1.31-1,1.52-1.94-.78-.71-2.34,1.06-1.52,1.94Zm-3.33.42c1.27.46,2.05-1.32,1.66-2.5-1.02.32-1.84,1.44-1.66,2.5Zm5.68-.14c.95-.09,1.64-1.1,1.25-2.08-1,.04-1.97,1.19-1.25,2.08Zm3.19.14c1.2,0,1.8-1.18,1.53-2.22-1.33-.16-1.74,1.28-1.53,2.22Zm-176,1.66c.83.38,1.61-.53,2.5-.83,1.07-.36,2.77-.17,3.05-1.39-2.14-.59-5.54.26-5.55,2.22Zm-25.38.56c-.12.16-.18.37-.14.69-.43.83-.9,1.51-1.39,2.22-.52.75-1.19,1.34-1.53,2.22,2.14.42,3.76-3.27,3.47-5.41-.03-.11-.12-.16-.28-.14,0,.18-.18.19-.14.42Zm.28,3.05c-.53.91-1.72,1.98-1.11,3.05,2.07-1.12,3.04-4.08,3.33-6.52h-.42c-.53,1.2-1.14,2.33-1.8,3.47Zm29.4-.56c1.62.3.9-2.21.55-2.77h-.42c-.15.8-.43,1.96-.14,2.77Zm-24.96-2.63c-1.07,2.54-2.82,4.4-4.02,6.8,1.55.82,2.45-1.32,3.05-2.5.69-1.33,1.67-3.13,1.25-4.3h-.28Zm23.16,3.05c1.07-.12.69-2.41,0-2.77-.39.5-.46,2.28,0,2.77Zm-20.94-2.5c-.73,1.46-1.5,2.65-2.36,3.88-.77,1.11-1.89,2.07-2.36,3.47,1.6.62,2.71-1.45,3.47-2.63.85-1.34,1.85-3.15,1.66-4.72h-.42Zm2.63.56c0,.18-.18.19-.14.42-.77,1.66-1.84,2.81-3.05,4.02-.91.91-2.46,1.63-2.63,3.19,1.5.61,2.68-.94,3.61-1.94,1.42-1.52,3.07-3.15,2.63-5.69h-.42Zm16.23,2.77c1.18.07.79-2.56.14-2.77-.21.69-.46,1.99-.14,2.77Zm-38.42.42c.6-.69,1.04-1.55,1.25-2.64-1.29-.64-3.05,2.29-1.25,2.64Zm1.66.69c1.79-.19,1.83-2.14,2.77-3.19-1.56-.21-3.12,1.48-2.77,3.19Z"/>
      <path class="cls-1" d="m102.22,78.8c-.92.47-1.9.87-2.22,1.94,3.15.96,6.55-1.44,10.13-1.8,1.43-.14,3.64-.37,5.13.14.54.18,3.88,2.13,4.44,2.63,1.11.99,2.07,4.31,3.74,3.61.6-.21.41-1.22.28-1.8,2.27.27,4.18.9,6.94.69.17.48.38.92.28,1.66-3.86,1.08-8.08,1.14-13.04,1.25-.49.22-.08-.47-.42-.42-5.05.36-7.04,3.77-12.76,3.47,1.73-1.19,4.35-2.21,4.3-4.72-2.36.55-3.2,3.82-6.8,3.61.02.58.49.71.97.83-4.83.85-7.63-1.53-10.54-3.05,1.69-.25,3.58-.3,5.13-.69.35-.79-1.87-.67-.69-.97-4.28-.99-9.74-1.36-15.12-.97-1.7.12-3.32.2-5.13.28-2.07.09-2.98.44-4.16-.69,1.69-1.78,5.29-1.65,7.49-2.91,2.68-.36,4.63-.14,6.93-.28,5.14-.3,9.99-4.99,15.12-1.8Zm-24.83,3.33c.64-.05,1.33-.06,1.66-.42-.74-.05-1.24.15-1.66.42Zm-1.66,2.22c.16-.63.62-.95.69-1.66h-.42c.22.78-.71,1.13-.28,1.66Zm33.56,4.16c2.06-.5,3.72-3.24,2.77-5.41h-.42c-.39,2.12-1.71,4.01-2.36,5.41Zm-11.79-1.39c.96,1.59,3.02-1.02,4.16.28-.76.4-2.16.15-3.05.42.68,1.8,3.69.67,4.99.28.75-1.16,2.9-1.6,2.5-3.47-2.07.14-2.82,3.37-4.99,2.08,1.02-.74,2.58-.93,2.63-2.63-1.94.61-3.77,2.5-6.24,3.05Zm31.2-1.8c.11-.49-1.14-.32-1.25-.14.46,0,.69.23,1.25.14Z"/>
    </g>
  </g>
</svg>