<?xml version="1.0" encoding="UTF-8"?>
<svg id="Layer_2" data-name="Layer 2" xmlns="http://www.w3.org/2000/svg" viewBox="0 0 134.36 293.65">
  <defs>
    <style>
      .cls-1 {
        fill: #fff;
      }
    </style>
  </defs>
  <g id="Layer_1-2" data-name="Layer 1">
    <g>
      <g>
        <g>
          <path class="cls-1" d="m86.03,284.19c1.31-.05,1.56-.55.71-1.43-.48-.49-.55-.51-.32-.1.45.82.22,1.09-.57.66-.51-.27-.98-.24-1.56.1-.46.27-.86.55-.88.63-.04.15.98.2,2.61.13Z"/>
          <path class="cls-1" d="m94.44,287.88c-4.44,2.53-10.87,3.77-15.48,2.97-1.62-.28-2.99-.81-5.61-2.15-3.9-2.01-4.87-2.37-4.45-1.64.15.26,1.01.78,1.91,1.16.9.38,2.51,1.14,3.59,1.7,2.74,1.41,4.59,1.85,7.65,1.82,4.14-.04,8.56-1.17,13.41-3.44.72-.34,1.08-.7.99-1-.11-.33-.67-.17-2,.59Z"/>
          <path class="cls-1" d="m69.64,285.72l1.76.39,3.14-3.12c1.73-1.72,3.29-3.31,3.47-3.55.19-.24.69-.61,1.11-.82.65-.33.69-.42.26-.53-.28-.07-.71.08-.96.33-.38.4-.51.38-.86-.1-.38-.52-.33-.62.49-1.14.5-.31,1.1-.52,1.34-.46s.39-.05.33-.26c-.37-1.18-3.22.08-5.13,2.27-.54.61-1.54,1.43-2.22,1.81-2.37,1.32-5.86-.36-8.3-3.99-1.31-1.94-1.27-1.96-2.52.93-1.22,2.84-1.11,3.64.66,4.78,2.46,1.6,5.56,3.04,7.42,3.45Z"/>
          <path class="cls-1" d="m64.42,273.55c-.64-.17-.43.69.62,2.52,1.6,2.77,4.93,4.44,7.03,3.52.57-.25,1.66-1.18,2.44-2.06.77-.88,1.95-1.87,2.62-2.19l1.21-.58-.53-3.13c-1.32-7.8-1.16-12.73.93-27.18.64-4.44,1.13-8.4,1.08-8.81-.09-.87-1.36-1.4-8.65-3.62-4.51-1.38-4.67-1.4-6.66-1.05-1.12.2-2.19.58-2.37.84-.44.62-.39,6.46.11,11.29.43,4.2.67,5.97,2.25,16.64,1.33,8.94,1.4,10.04.85,12.19-.35,1.36-.56,1.72-.95,1.63Z"/>
          <path class="cls-1" d="m66.75,285.93c-.69-.3-2.27-1.1-3.5-1.76-1.23-.67-2.3-1.18-2.37-1.14-.07.04-.08,1.07-.02,2.28.06,1.21.09,2.62.06,3.11-.05,1.01.37,1.25,4.12,2.31l2.15.61.24-.92c.13-.5.32-1.6.41-2.43.17-1.48.14-1.53-1.09-2.07Z"/>
          <path class="cls-1" d="m75.16,283.46l-3.26,3.22,1.23.7c2.92,1.65,3.77,1.99,6.07,2.41,1.34.25,3.38.38,4.54.3,3.72-.27,9.88-2.13,10.97-3.31,1.28-1.38-.57-1.89-5.65-1.56-3.93.26-6.87-.19-8-1.23-.44-.41-.47-.7-.12-1.33.39-.73.37-.78-.2-.51-.35.17-.86.14-1.13-.04-.42-.3-.3-.46.8-1.13,1.23-.75,1.78-1.48,1.22-1.62-.14-.04-.69.2-1.22.54-.53.34-1.19.55-1.46.48-.31-.08-1.81,1.16-3.77,3.1Z"/>
          <path class="cls-1" d="m81.81,282.03c.2.14.31.46.25.71-.17.64.62.76,1.44.22,1.42-.93.24-2.59-1.2-1.7-.59.37-.73.59-.48.77Z"/>
          <path class="cls-1" d="m80.21,277.96c.18.05.36-.05.4-.22s-.04-.43-.19-.58-.33-.06-.4.22.02.54.19.58Z"/>
        </g>
        <path d="m98.07,286.31l-.4-.35c-.43-.41-.81-.87-1.17-1.35-.04,0-.07-.02-.11-.03-2.67-.69-5.24-1.55-7.69-2.84-.96-.5-1.73-1.09-2.52-1.81-.73-.66-1.62-1.07-2.31-1.77-.07,0-.11.01-.12,0-.02-.01-.19-.22-.41-.49-.34-.2-.64-.48-.85-.82-.3-.49-.63-.95-.94-1.41-.08.03-.14-.05-.17-.25-.13-.2-.26-.41-.38-.62-.19-.21-.35-.44-.48-.69-.02-.03-.03-.07-.05-.1-.17-.21-.28-.42-.39-.68-.05-.13-.11-.24-.14-.37-.02-.08-.04-.2-.05-.33-.02-.09-.04-.19-.05-.29-.13-.37-.26-.82-.37-1.35-.19-.89-.28-1.63-.23-2.33-.03-.16-.05-.31-.04-.47,0-.11,0-.21,0-.32,0-.02,0-.04,0-.06-.05-.23-.09-.46-.12-.7-.05-.38-.11-.76-.14-1.14,0-.04,0-.09,0-.13-.05-.17-.08-.34-.09-.51h0s-.03-2.05-.03-2.05c-.07-4.23.83-12.58,2.52-23.44.15-.99.48-3.84.72-6.33.27-2.81.49-4.27.82-4.94.01-.08.03-.15.05-.23.11-.4.23-.8.33-1.2.05-.2.11-.4.15-.61.01-.05.1-.7.05-.23.02-.19.07-.38.12-.56-4.6.3-10.76.16-15.91-.41-1.28-.14-2.93-.32-3.66-.39-.28-.03-1.14-.18-2.36-.42-.21.36-.43.72-.63,1.09-.03.06-.22.45-.24.46-.06.16-.11.33-.15.49-.07.26-.18.49-.32.7-.01.47-.12,1.34-.27,2.24-.72,4.26.27,16.25,2.4,29.03.67,4.02,1.31,8.38,1.42,9.67.21,2.45-.07,4.34-.62,4.2-.18-.05-.39.18-.47.49s-.31.68-.51.81c-.2.13-.65.7-1.01,1.26l-.65,1.03h0s-.02.08-.03.11c-.1.29-.21.58-.32.86-.04.51-.11,1.01-.23,1.51-.1.42-.24.82-.4,1.2.02.18.02.36,0,.54.21,1.27.28,2.63.22,3.93.14.35.18.73.13,1.12.04.18.06.38.06.59-.02,1.51-.05,3.05-.31,4.55l.93.42c1.72.78,3.97,1.6,6.85,2.51.07-.15.15-.29.25-.42-.03-1.16.74-2.25,2.25-2.29,1.2-.03,2.42.25,3.52.76,1.4.39,2.8.9,4.19,1.42,1.63.26,3.24.63,4.84,1.01.93-.07,1.87-.16,2.78-.36,2.56-.55,5.02-1.46,7.5-2.25,1.61-.51,3.27-.96,4.74-1.79.23-.76.46-1.52.67-2.29.03-.12.07-.24.1-.37-.07-.06-.15-.16-.26-.28Zm-12.23-2.99c.79.43,1.02.16.57-.66-.23-.41-.16-.39.32.1.85.87.6,1.37-.71,1.43-1.63.07-2.65.01-2.61-.13.02-.07.41-.35.88-.63.59-.35,1.06-.38,1.56-.1Zm-3.57-2.07c1.44-.9,2.62.76,1.2,1.7-.82.54-1.6.42-1.44-.22.06-.25-.05-.57-.25-.71-.25-.18-.11-.41.48-.77Zm-1.87-4.1c.15.15.23.42.19.58s-.22.26-.4.22-.26-.31-.19-.58.25-.37.4-.22Zm-.02,2.73c.53-.34,1.08-.58,1.22-.54.56.14.01.87-1.22,1.62-1.1.67-1.21.84-.8,1.13.27.19.77.21,1.13.04.57-.27.6-.22.2.51-.35.64-.32.93.12,1.33,1.13,1.04,4.06,1.49,8,1.23,5.07-.34,6.92.17,5.65,1.56-1.09,1.19-7.24,3.05-10.97,3.31-1.16.08-3.2-.05-4.54-.3-2.3-.43-3.15-.76-6.07-2.41l-1.23-.7,3.26-3.22c1.96-1.93,3.47-3.17,3.77-3.1.28.07.94-.14,1.46-.48Zm-15.88-20.15c-1.58-10.67-1.82-12.43-2.25-16.64-.5-4.83-.55-10.67-.11-11.29.18-.26,1.25-.64,2.37-.84,1.99-.36,2.14-.33,6.66,1.05,7.29,2.22,8.55,2.75,8.65,3.62.05.41-.44,4.37-1.08,8.81-2.09,14.45-2.26,19.38-.93,27.18l.53,3.13-1.21.58c-.67.32-1.85,1.3-2.62,2.19-.77.88-1.87,1.81-2.44,2.06-2.1.92-5.43-.75-7.03-3.52-1.05-1.83-1.26-2.68-.62-2.52.38.1.59-.26.95-1.63.55-2.15.48-3.25-.85-12.19Zm-2.95,17.75c1.25-2.89,1.21-2.88,2.52-.93,2.44,3.63,5.93,5.31,8.3,3.99.69-.38,1.68-1.19,2.22-1.81,1.91-2.18,4.76-3.44,5.13-2.27.06.2-.09.32-.33.26s-.85.14-1.34.46c-.82.52-.87.62-.49,1.14.35.49.48.5.86.1.24-.26.68-.41.96-.33.43.11.38.2-.26.53-.43.22-.92.59-1.11.82-.18.24-1.75,1.83-3.47,3.55l-3.14,3.12-1.76-.39c-1.85-.41-4.96-1.86-7.42-3.45-1.77-1.15-1.88-1.95-.66-4.78Zm5.62,13.86l-2.15-.61c-3.75-1.06-4.17-1.3-4.12-2.31.03-.5,0-1.9-.06-3.11-.06-1.21-.05-2.24.02-2.28.07-.04,1.14.47,2.37,1.14,1.23.67,2.81,1.46,3.5,1.76,1.23.54,1.26.59,1.09,2.07-.1.83-.28,1.93-.41,2.43l-.24.92Zm28.26-3.06c-4.84,2.27-9.26,3.41-13.41,3.44-3.06.03-4.91-.41-7.65-1.82-1.08-.56-2.69-1.32-3.59-1.7-.9-.38-1.75-.9-1.91-1.16-.43-.73.55-.36,4.45,1.64,2.62,1.35,3.99,1.87,5.61,2.15,4.61.8,11.04-.43,15.48-2.97,1.33-.76,1.9-.93,2-.59.09.3-.27.66-.99,1Z"/>
      </g>
      <g>
        <g>
          <path class="cls-1" d="m29.28,253.34c-.88-.2-2.24.7-2.57,1.7-.19.57.8,3.99,1.18,4.08.11.03.86-.39,1.65-.94,1.37-.93,1.45-1.06,1.42-2.29-.03-1.52-.54-2.29-1.69-2.55Z"/>
          <path class="cls-1" d="m37.18,267.17c-.04-3.5-.69-6.8-1.7-8.74-.74-1.41-3.2-3.83-3.85-3.78-.18.02-.05.71.3,1.54s.92,3.64,1.28,6.24c.36,2.6.97,5.56,1.36,6.57.86,2.26.63,2.59-.42.6-.66-1.26-1.44-4.47-2.44-10.02-.39-2.15-.64-1.41-.32.93,1.02,7.42,2.73,11.03,6.94,14.63.73.62,1.5,1.56,1.71,2.08.41.98.68,1.21,1.04.86.12-.11.42-.9.69-1.76l.48-1.55-1.73-1.13c-2.62-1.72-3.28-3-3.32-6.46Z"/>
          <path class="cls-1" d="m37.16,248.33c.09-.05.09-.77,0-1.59-.18-1.82.28-3.77,1.25-5.24.4-.61.63-1.12.52-1.14-.11-.02-.96.36-1.87.84l-1.66.87.34,1.6c.48,2.28,1.24,4.77,1.43,4.66Z"/>
          <path class="cls-1" d="m67.43,232.36c-2.37-2.32-4.8-5.59-5.63-7.57l-.63-1.52-4,4.57c-6.31,7.22-10.62,11.42-13.4,13.03-1.6.93-1.67,1.03-2.34,3.28-1.05,3.52-.56,4.93,2.22,6.37,2.94,1.52,3.05,1.51,4.74-.46,2.46-2.88,3.74-3.84,17.07-12.89,2.07-1.41,3.79-2.65,3.82-2.76.03-.11-.8-1.04-1.84-2.05Z"/>
          <path class="cls-1" d="m43.43,260.86c-.18-.04-.36.06-.4.23-.23.93-.12,4.12.2,6.24l.37,2.43-.74-.39c-.86-.45-1.14.06-.42.76.63.6,1.06.56,1.34-.12.12-.3.32-.61.44-.68.12-.07.11-.71,0-1.42-.43-2.52-.74-5.85-.61-6.4.08-.31,0-.6-.18-.64Z"/>
          <path class="cls-1" d="m44.53,257.72c.12-.47-.06-.7-.66-.84-.71-.17-.79-.11-.63.53.1.4.4.78.66.84s.54-.18.63-.53Z"/>
          <path class="cls-1" d="m38.5,250.73c1.33,2.11,2.23,2.73,4.28,2.98,1,.12,2.15.3,2.56.4.57.14.76.02.81-.53.06-.6-.3-.88-2.31-1.83-2.67-1.26-3.76-2.54-3.93-4.59-.1-1.22.94-5.01,1.62-5.9.6-.79-.46-.85-1.44-.08-1.11.87-2.24,4.03-2.33,6.47-.05,1.33.16,2.2.73,3.1Z"/>
          <path class="cls-1" d="m42.85,259.66c.09.28.29.31.67.11.33-.18.45-.44.32-.67-.29-.49-1.16.01-.98.56Z"/>
          <path class="cls-1" d="m43.78,255.84c.28.07.55-.07.61-.32.07-.29-.17-.45-.73-.48-.8-.04-1.22.44-.87,1,.25.42.75.45.61.04-.07-.2.1-.32.38-.25Z"/>
        </g>
        <path d="m82.64,228.65s-.02-.04-.03-.05c-.97-.56-1.8-1.07-2.32-1.44-2.19-.51-4.42-1.02-6.56-1.66-.34.07-.68-.05-1.31-.42-.1-.03-.21-.07-.31-.1-.42-.15-.75-.37-1-.65-1.01-.52-2.81-1.35-4.48-2.07-.33-.14-.64-.28-.96-.42-.35.08-.71.07-1.05-.04-.82-.27-1.69-.43-2.49-.74-.24.01-.47.02-.71.04-.25.09-.49.17-.75.24-.03.1-.14.19-.33.32-.33.24-2.34,2.46-4.45,4.94-4.89,5.74-9.89,10.85-11.76,12.03-.95.6-1.87.89-2.65.82-.66-.05-1.83.04-2.63.2-.79.16-2.11.23-2.93.16-.89-.08-1.22-.13-1.17-.23-.63.06-1.27.06-1.91,0-.03,0-.05.02-.08.02.46.06.71.15-.04.01-.12.04-.23.07-.35.11-.88.49-1.74.99-2.59,1.51-.06.12-.12.24-.19.37.19.18.36.31.51.34.26.06.52.28.59.48.13.41.03.39-1.37-.32-.01,0-.02-.01-.03-.02-.45.69-.99,1.33-1.45,1.88-.28.33-.58.64-.9.92.56,1.69.68,3.55.29,5.32-.02.08-.04.15-.06.22.11.14.21.27.31.38,1.24,1.45,1.09,1.56-.44.31-.02-.02-.03-.03-.05-.05-.12.34-.26.67-.42.98l.8.5-.67.77c-.37.42-.94.9-1.27,1.07-.34.16-.64.44-.68.61-.11.46,2.08,5.09,2.58,5.43.25.17.86-.03,1.5-.49.59-.43,1.12-.71,1.18-.61.06.1.31,1.59.56,3.33.59,4.08,1.35,6.24,3.04,8.64l.87,1.24c.14.11.29.22.42.35.78.49,1.44,1.12,1.96,1.87.25.25.6.72,1.08,1.43.2.3.36.55.47.76.08.07.17.15.26.24.37.27.74.54,1.11.8.52.36,1.05.72,1.58,1.07.15-.12.3-.24.46-.35.02-.06.08-.16.16-.3.19-.29.64-1.33,1-2.31.36-.97.71-1.91.78-2.08.07-.17.49-.65.94-1.06,1.15-1.06,1.6-4.15.85-5.89-.74-1.74-.8-3.39-.21-5.63.28-1.05.62-2.84.76-3.98.24-1.88.35-2.14,1.16-2.67.61-.4.88-.81.85-1.29-.12-1.76,4.68-5.24,20.37-14.78l13.74-8.35h.02c.26-.39.56-.75.9-1.08-.08-.09-.16-.19-.22-.3-.09-.11-.2-.23-.26-.36Zm-42.56,12.51c.98-.77,2.05-.71,1.44.08-.68.9-1.72,4.68-1.62,5.9.16,2.05,1.26,3.34,3.93,4.59,2.01.95,2.36,1.23,2.31,1.83-.06.55-.24.67-.81.53-.41-.1-1.56-.28-2.56-.4-2.05-.25-2.95-.87-4.28-2.98-.57-.9-.77-1.76-.73-3.1.08-2.44,1.22-5.6,2.33-6.47Zm3.81,17.09c-.26-.06-.56-.44-.66-.84-.16-.64-.09-.7.63-.53.6.15.78.37.66.84-.09.35-.37.59-.63.53Zm-.39,1.52c-.37.2-.58.17-.67-.11-.18-.55.69-1.05.98-.56.13.23.01.49-.32.67Zm-.11-3.68c.13.41-.36.38-.61-.04-.35-.57.06-1.05.87-1,.57.03.81.19.73.48-.06.24-.33.38-.61.32s-.45.04-.38.25Zm-6.34-14.88c.91-.48,1.75-.85,1.87-.84.11.02-.12.53-.52,1.14-.97,1.47-1.43,3.42-1.25,5.24.08.82.08,1.54,0,1.59-.18.11-.95-2.38-1.43-4.66l-.34-1.6,1.66-.87Zm-7.51,16.98c-.8.54-1.54.96-1.65.94-.38-.1-1.37-3.51-1.18-4.08.32-1,1.69-1.9,2.57-1.7,1.15.27,1.66,1.03,1.69,2.55.03,1.23-.06,1.36-1.42,2.29Zm12.2,18.13c-.27.85-.57,1.64-.69,1.76-.35.35-.63.12-1.04-.86-.21-.52-.98-1.45-1.71-2.08-4.21-3.6-5.92-7.21-6.94-14.63-.32-2.34-.06-3.07.32-.93,1,5.55,1.78,8.76,2.44,10.02,1.05,2,1.28,1.66.42-.6-.39-1.02-1-3.97-1.36-6.57-.36-2.6-.94-5.41-1.28-6.24s-.48-1.52-.3-1.54c.65-.05,3.11,2.37,3.85,3.78,1.01,1.94,1.66,5.25,1.7,8.74.04,3.46.7,4.74,3.32,6.46l1.73,1.13-.48,1.55Zm2.47-8.41c.12.71.12,1.35,0,1.42-.12.07-.32.38-.44.68-.28.69-.71.73-1.34.12-.72-.7-.44-1.21.42-.76l.74.39-.37-2.43c-.33-2.12-.43-5.31-.2-6.24.04-.17.22-.27.4-.23s.26.33.18.64c-.14.56.18,3.89.61,6.4Zm21.23-30.73c-13.33,9.05-14.6,10.01-17.07,12.89-1.68,1.97-1.8,1.98-4.74.46-2.78-1.44-3.27-2.84-2.22-6.37.67-2.25.74-2.36,2.34-3.28,2.78-1.62,7.09-5.81,13.4-13.03l4-4.57.63,1.52c.83,1.98,3.26,5.25,5.63,7.57,1.04,1.02,1.87,1.94,1.84,2.05-.03.11-1.75,1.35-3.82,2.76Z"/>
      </g>
      <g>
        <g>
          <path class="cls-1" d="m36.38,109.64c-2.28-1.08-5.18-1.81-5.98-1.5-.65.25-.36.88.41.88.3,0,1.89.66,3.54,1.46,2.27,1.1,3.4,1.9,4.65,3.27.91,1,1.76,1.83,1.9,1.85.14.02.25-.39.25-.91,0-1.41-2.35-3.91-4.76-5.05Z"/>
          <path class="cls-1" d="m38.63,121.67c-.65,1.23-1.61,1.16-2.26-.15l-.53-1.06.81.76c.88.83,1.52.69,1.52-.32,0-.35.14-.64.3-.64.34,0,1.35-2.78,1.35-3.71,0-.82-2.45-3.43-4.14-4.42-1.6-.93-4.92-2.13-5.92-2.13-.48,0-1.06.55-1.84,1.74-1.78,2.73-3.94,4.88-4.9,4.88h-.83l.87.68c.57.45,1.11.61,1.55.47.38-.12,1-.01,1.41.25.4.26,1.82.88,3.15,1.39,1.78.67,2.85,1.34,4.04,2.53.89.89,1.77,1.62,1.96,1.62s.66.31,1.04.69c.56.56.93.65,1.99.47.85-.15,1.3-.1,1.3.14,0,.2.15.36.33.36s.33-.19.33-.41c0-.41-.54-2.61-.87-3.56-.13-.37-.3-.26-.66.41Zm-11.05-6.04c-.43,0-.66-.17-.58-.41.08-.23.34-.41.58-.41s.5.19.58.41c.08.24-.15.41-.58.41Zm2.15,1.65c-.18,0-.52-.29-.74-.66-.58-.92-.51-1.08.25-.66.53.28.71.25.86-.15.11-.28.31-.44.46-.34.34.21-.39,1.81-.83,1.81Zm2.82-.49c-.22.27-.62.5-.87.5s-.46-.23-.46-.5c0-.31.32-.5.87-.5.73,0,.8.08.46.5Zm2.32,3.15c0-.18-.2-.24-.44-.15-.25.1-.61-.21-.84-.71-.52-1.14-.16-1.5.56-.55.41.55.76.68,1.36.52.67-.18.76-.12.58.36-.12.32-.22.64-.22.71s-.22.14-.5.14-.5-.15-.5-.32Z"/>
          <path class="cls-1" d="m43.63,102.08c-2.45-.59-6.22-1.81-6.91-2.23-.16-.1-.05-.32.25-.48.3-.17.54-.44.54-.62,0-.42-1.89-.4-2.15.02-.11.18-.43.33-.7.33s-1.01.41-1.63.91c-1.16.93-1.41,1.87-.93,3.64.23.85.95.99,1.23.25.23-.59,1.8-.65,3.64-.14,2.22.62,5.47,4.26,5.5,6.18.02,1.35-2.83-1.21-3.12-2.8-.29-1.58-1.08-2.08-3.34-2.08-1.13,0-2.57.22-3.2.48-1.13.48-2.15,1.39-1.86,1.68.08.08,1.3.37,2.71.64,2.95.57,5.1,1.64,7.37,3.69,1.82,1.63,2.67,1.73,3.41.39.47-.83.45-1.07-.23-2.98-.41-1.14-.74-2.17-.74-2.3s.56,0,1.25.27c1.85.73,3.05.2,3.05-1.34,0-1.86-1.06-2.76-4.14-3.49Z"/>
          <path class="cls-1" d="m86.95,60.45c-.07.07.75,2.28,1.81,4.91,1.07,2.63,2.56,6.64,3.32,8.9,1.47,4.4,1.58,4.65,1.96,4.65.14,0-.18-1.3-.7-2.89-.52-1.59-1.32-4.16-1.77-5.71-1.05-3.62-4.18-10.29-4.62-9.85Z"/>
          <path class="cls-1" d="m86.28,64.19c.17,1.65,3.97,11.73,5.04,13.35.72,1.1.96.45.43-1.19-.72-2.24-4.57-11.95-5.11-12.89q-.53-.92-.36.73Z"/>
          <path class="cls-1" d="m89.78,58.06c0-.65-.04-.65-1.08-.12-1.5.76-1.5.79-.14.79,1,0,1.21-.12,1.21-.67Z"/>
          <path class="cls-1" d="m45.07,57.7c1.24-.43,1.7-1.16,1.7-2.71,0-2.6.75-3.49,3.55-4.2.77-.2,1.56-.64,1.74-.99.3-.56.17-.67-1.07-.98l-1.41-.34,1.26.14c2.23.25,3-.48,1.17-1.11-3.36-1.17-6.87.32-7.71,3.28-.22.76-.16.73.65-.26.95-1.17,3.07-2.41,4.03-2.36.4.02.32.11-.23.27-.74.22-.68.27.6.5,1.72.3,1.66.82-.16,1.42-1.89.63-2.76,1.7-3.2,3.95-.37,1.86-.42,1.93-1.37,1.87-.55-.03-1.46-.16-2.03-.28-1.54-.32-1.65.34-.22,1.32,1.43.97,1.33.96,2.7.48Z"/>
          <path class="cls-1" d="m29.33,121.84c-.77-.1-1.64-.43-1.95-.73-.3-.3-.93-.5-1.42-.44-1.15.13-2.31,2.48-6.84,13.88-1.93,4.85-4.05,9.75-4.72,10.88-1.29,2.19-1.66,2.48-7.72,6.07-1.76,1.04-3.57,2.23-4.02,2.65-.9.83-1.57,3.33-1.51,5.59.02.76.11,1.09.19.73.35-1.5,1.43-4.85,1.77-5.49.66-1.23.65-.47-.03,1.88-.62,2.14-.63,4.25,0,3.58.15-.16.6-1.3,1-2.53.69-2.13,1.07-2.61,1.49-1.93.2.32-1.02,3.94-1.51,4.47-.47.51-.34.84.33.84.45,0,.81-.53,1.34-1.99.4-1.09.88-1.99,1.06-1.99.51,0,.02,1.91-.92,3.62-.84,1.53-1.5,3.82-1.18,4.14.37.37,1.31.17,1.82-.4.28-.32.63-.99.75-1.5.41-1.63,2.72-4.87,3.47-4.87s.7.18-.51,1.82c-1.26,1.72-2.54,4.59-1.4,3.13.76-.97,5.39-3.23,6.27-3.06,1.64.31,2.85-2.34,3.57-7.8.2-1.53.67-3.6,1.05-4.6.76-2.03,4.42-7.65,8.56-13.15,3.55-4.71,5.6-7.89,5.6-8.69,0-.35-.71-1.38-1.57-2.29-1.27-1.34-1.84-1.69-2.97-1.84Z"/>
          <path class="cls-1" d="m13.71,162.04c-.9,1.01-.37,1.27.85.42.38-.27.77-.79.87-1.16.29-1.1-.33-.84-1.72.74Z"/>
          <path class="cls-1" d="m11.72,162.28c-.19,0-.35.15-.35.33s.07.33.15.33.24-.15.35-.33c.11-.18.05-.33-.15-.33Z"/>
          <path class="cls-1" d="m82.62,58.51c-1.07-.28-2.08-.63-2.27-.77-.18-.15-1.12-.57-2.09-.94-2.77-1.05-6.06-3.15-8.15-5.2-1.47-1.45-1.98-1.77-2.2-1.42-.28.45-.43,1.64-.32,2.61.03.27,2.43,2.81,5.33,5.64,2.9,2.83,5.28,5.4,5.28,5.71,0,.92.64.66,2.94-1.23,2.58-2.11,3.86-3.43,3.6-3.69-.11-.1-1.06-.41-2.12-.69Z"/>
          <path class="cls-1" d="m80.19,79.05c0-.07-.84-1.43-1.87-3.03-5.93-9.24-9.38-13.26-13.99-16.32-1.35-.9-3.03-1.31-2.98-.72,0,.14,1.07.92,2.34,1.74,4.05,2.6,7.25,6.25,12.82,14.67,1.86,2.81,2.89,4.09,3.21,3.97.25-.1.46-.23.46-.3Z"/>
          <path class="cls-1" d="m80.6,80.84c-.28.17,0,.83.92,2.22,1.86,2.79,3.2,6.21,3.78,9.62.47,2.76,1.15,11.15,1.16,14.29,0,.86.14,1.35.34,1.22.19-.11.33-1.65.33-3.46,0-3.81-.45-8.83-1.18-13.25-.4-2.43-.89-3.9-2.16-6.49-1.71-3.49-2.53-4.56-3.19-4.15Z"/>
          <path class="cls-1" d="m91.63,79.49c.92-.92-2.05-1.16-7.31-.57-4.07.45-4.8.63-4.8,1.18,0,.38.38.44,1.9.28,1.05-.1,3.72-.3,5.95-.44,2.23-.14,4.14-.34,4.25-.46Z"/>
          <path class="cls-1" d="m78.53,23.26c0-.06-.93-.11-2.07-.13-1.14-.01-2.43-.22-2.88-.46-1.52-.81-3.96-3.38-4.36-4.59l-.4-1.21-.46,1.12c-.64,1.55-.26,2.83,1.17,4.05.67.57.99.91.72.76-.44-.24-.44-.2,0,.34,1.25,1.54,4.47,1.94,6.87.85.77-.35,1.41-.68,1.41-.74Z"/>
          <path class="cls-1" d="m58.1,58.51c.63.25.8.24,1.66-.08.44-.17,1.8-1.07,3.04-2,1.24-.93,2.68-1.79,3.2-1.89.52-.11.95-.21.95-.23,0-.02-.21-.63-.46-1.34-.73-2.1.33-4.49,1.99-4.49.97,0,1.45-.9,1.68-3.13.22-2.15-.1-2.41-1.97-1.58-.77.34-1.81.72-2.29.84-.85.21-.87.28-.7,2.13.16,1.71.09,2.02-.68,2.93-.47.56-1.32,1.11-1.88,1.23l-1.03.21.23,1.82c.22,1.74.18,1.87-.79,2.77-.56.53-1.55,1.2-2.19,1.51-1.21.58-1.47,1.01-.75,1.3Z"/>
          <path class="cls-1" d="m18.93,211.88c-.63-.48-3.61-1.86-6.12-2.84-.21-.08-.54.33-.74.92-.46,1.33-.48,1.26.21,1.1.32-.07,1.84.51,3.39,1.3,1.55.78,2.92,1.45,3.05,1.48.13.03.41-.26.62-.66.33-.61.27-.8-.4-1.31Z"/>
          <path class="cls-1" d="m82.75,113.6c4.41.03,8.01-.06,8-.2-.01-.14-.14-.55-.28-.91-.25-.65-.57-.66-11.72-.66-8.37,0-11.46.1-11.46.38,0,.91,4.6,1.33,15.47,1.39Z"/>
          <path class="cls-1" d="m26.73,192.68c.56.15,1.13.18,1.27.06.14-.12,1.23-2.82,2.44-5.99,1.2-3.17,3.27-8.9,4.6-12.72,3.41-9.84,6.12-17.04,10.77-28.62,7.1-17.71,9.83-22.94,14.5-27.87,3.08-3.25,2.5-3.38-.73-.17-4.23,4.21-10.84,14.01-16.67,24.73-2.96,5.45-13.04,25.69-15.45,31.04-.79,1.76-2.87,6.07-4.62,9.58-1.75,3.51-3.18,6.45-3.18,6.54,0,.24,5.92,3.1,7.09,3.42Z"/>
          <path class="cls-1" d="m60.11,46.6c.3.78,1.78.68,2.22-.14.27-.51.26-.81-.04-1.17-.84-1.01-2.66.09-2.18,1.31Z"/>
          <path class="cls-1" d="m61.9,40.64c.1-1.08,0-1.8-.34-2.24-.47-.62-.51-.59-.85.66-.41,1.48-.48,3.56-.14,3.91.47.47,1.19-.79,1.33-2.33Z"/>
          <path class="cls-1" d="m46.45,147.63c-.16.51-1.42,4.13-2.82,8.04-1.39,3.91-3.85,10.98-5.45,15.72-3.72,10.98-5.48,15.83-8.32,22.88-1.25,3.12-2.28,5.76-2.28,5.87,0,.67,9.2,4.08,15.38,5.7,2.37.62,7.01,1.57,10.33,2.12,3.32.55,6.37,1.13,6.78,1.3s.84.31.95.32c.11,0,.76-1.13,1.45-2.54,1.51-3.08,4.22-9.76,6.08-14.97,4.83-13.53,7.96-28.79,8.96-43.67.47-7.06,1.02-22.78.97-27.79-.07-7.28-.83-8.24-1.66-2.13-.61,4.48-.72,4.4-.63-.43.06-2.91,0-3.39-.46-3.39-.29,0-.53.15-.53.33s-.36,2.53-.8,5.21c-.44,2.68-.97,6.51-1.17,8.52-.42,4.11-1.72,11.42-1.92,10.83-.3-.91,1.86-19.92,2.76-24.31.25-1.23-.61-1.23-1.17,0-.78,1.71-2.39,6.8-3,9.48l-.61,2.68-.02-1.82c-.03-2.16.59-5.2,1.75-8.59.46-1.36.77-2.53.68-2.62-.32-.32-1.17,1.21-2.43,4.43-2.71,6.9-5.28,24.45-5.37,36.52-.03,4.26-.09,4.9-.36,3.68-.18-.82-.35-4.99-.38-9.26-.04-6.65.06-8.5.72-12.74,1.55-10.01,3.92-19.41,5.54-21.91.64-.99.61-1.09-.33-1.09-.68,0-1.1.57-2.88,3.89-1.14,2.14-2.64,5.3-3.34,7.03-1.22,3.04-1.42,2.57-.36-.83.67-2.15,2.57-6.16,3.96-8.35,1.43-2.26.6-2.4-1.04-.17-2.76,3.77-3.94,6.92-6.62,17.62-2.06,8.23-2.94,12.63-4.31,21.67-1.28,8.43-1.56,9.83-4.19,21.01-.92,3.91-1.88,8.16-2.13,9.43l-.45,2.32.16-2.65c.09-1.46.74-5.85,1.45-9.76.71-3.91,1.53-8.68,1.82-10.59.29-1.91,1.06-6.97,1.71-11.25,2.98-19.66,6.51-31.33,11.49-37.98.72-.96,1.23-1.82,1.14-1.91-.24-.24-4.14,4.51-6.47,7.91-3.33,4.85-10.9,20.56-12.64,26.25Z"/>
          <path class="cls-1" d="m63.49,38.89c.34.55,3.33.21,4.07-.47.69-.62.8-1.54.19-1.54-.35,0-4.07,1.29-4.39,1.53-.06.05,0,.26.13.48Z"/>
          <path class="cls-1" d="m65.62,28.3c-.51.95-.35,1.03,1.15.51,1.13-.39,1.49-.37,2.96.18,1.72.63,4,.62,5.1-.02.45-.26.36-.32-.45-.33-.56,0-2.29-.38-3.86-.84-3.12-.91-4.2-.79-4.9.51Z"/>
          <path class="cls-1" d="m70.11,30.1c-1.54.27-3.82,1.37-3.82,1.84,0,.5.32.4,2.81-.88,2.1-1.08,2.2-1.17,1.01-.96Z"/>
          <path class="cls-1" d="m81.01,108.14l1.58-.22-.22-3.17c-.37-5.32-1.52-12.64-2.39-15.22-.88-2.62-1.35-3.48-6-10.95-5.64-9.05-7.68-11.81-10.74-14.58-3.04-2.75-4.42-3.45-4.95-2.5-.36.65-1.26.72-1.26.11,0-.58-1.55-2-2.95-2.71-1.66-.84-3.83-.53-5.84.82-.9.61-3.12,2.61-4.94,4.46-1.82,1.85-4.31,4.21-5.53,5.25-2.62,2.23-3.1,3.42-2.77,6.83.22,2.28,1.24,5.79,1.98,6.79.38.51.42.22.3-2.02-.16-3,.19-2.83,1.05.52.3,1.18.93,3.09,1.39,4.24.46,1.15.78,2.14.72,2.19-.06.06-.71.41-1.44.78-1.43.74-3.18,2.29-4,3.54-.47.72-.46.91.19,2.38.86,1.96,2.1,3.29,3.45,3.72,1.36.43,5.16.56,5.95.2.55-.25.6-.18.42.54-.47,1.86,3.83,4.06,5.52,2.83,1-.73,2.2-4.66,2.2-7.2,0-2.76.27-3.02,4.13-3.98,2.35-.59,4.87-1.77,6.21-2.9.84-.72.71-.19-.29,1.12-1.14,1.5-3.5,3.19-5.75,4.13-2.27.95-2.65,1.23-2.43,1.83.28.75.97.58,4.12-1.05,3.11-1.6,5.31-3.66,6.62-6.19,2.1-4.03,2.69-10.54,1.46-15.94l-.23-.99.66.99c1.71,2.55,2.81,11.28,1.74,13.87-.29.71-.3,1.03-.02,1.19.26.16-.06,1.16-1.01,3.17-2.55,5.4-3.9,8.55-4.13,9.64-.17.78.06,1.96.83,4.3.59,1.77,1.17,3.34,1.3,3.49.57.63,11.73,1.13,15.06.68Zm-40.69-12.74c-1.37,1.2-1.84,1.28-2.6.44-.3-.33-.55-.78-.55-.99,0-.78,5-3.77,5.49-3.29.35.34-1.14,2.79-2.34,3.83Zm3.17-16.1c-.2.57-.36,2.73-.36,4.79,0,2.99-.09,3.76-.46,3.76-.25,0-.71-.63-1.02-1.39-.95-2.36-1.01-4.22-.2-5.93,1.34-2.85,2.94-3.81,2.04-1.22Zm1.56,8.63c-.9-1.04-1-2.7-.23-4.27.92-1.9,4.94-5.34,4.94-4.22,0,.1-.91,1.9-2.02,3.98-1.25,2.36-1.96,4.04-1.85,4.44.21.8-.17.83-.83.07Zm2.35,11.77c-.52-.95-.82-6.48-.39-6.92.64-.64,1.58,2.34,1.58,4.96s-.45,3.35-1.2,1.97Zm2.84-10.51c-.27.43-.87.38-1.56-.15-.32-.24-.99-.37-1.49-.27-.88.16-.87.13.41-1.07,1.58-1.47,2.37-1.91,5.53-3.04,1.33-.48,2.95-1.14,3.62-1.48.98-.5,1.24-.53,1.38-.17.39,1.01-1.76,2.84-5.66,4.82-1.12.57-2.12,1.18-2.23,1.35Zm9.63-2.37c-.68,1.11-7.8,4.06-7.8,3.24,0-.89,1.4-1.87,3.56-2.49,3.32-.97,4.51-1.17,4.24-.74Zm-1.72-17.83c-.11,0-.09-.56.03-1.24.31-1.74,1.47-4.05,2.03-4.05.26,0,.47.05.47.12,0,.34-2.37,5.17-2.53,5.17Zm6.34,8.37c-.5.7-.51.69-.26-.43.14-.64.24-2.37.23-3.85-.02-2.51-.12-2.9-1.58-5.92-.86-1.78-1.48-3.32-1.37-3.42.3-.3,2.33,2.23,3.45,4.3.8,1.49,1.01,2.27,1.01,3.84,0,2.04-.58,4.18-1.49,5.47Z"/>
          <path class="cls-1" d="m71.86,26.22l-1.11.24,1.49.2c.82.11,1.67.22,1.9.25s.41-.08.41-.24c0-.47-1.49-.72-2.7-.45Z"/>
          <path class="cls-1" d="m89.78,10.45c-1.29-.35-1.77-.31-3.65.27-2.23.69-3.25,1.53-5.57,4.55-1.4,1.83-3.26,2.55-6.14,2.37-1.4-.09-2.36-.33-2.77-.7-1.23-1.11-1.49.75-.38,2.7,1.61,2.83,4.08,3.48,8.26,2.17,1.49-.47,3.96-2.22,3.96-2.81,0-.63-.9-.28-1.84.71-2.22,2.33-5.6,3-7.79,1.53-1.02-.68-2.93-3.55-2.92-4.37,0-.18.21.03.45.47.24.44.72.84,1.06.89,4.62.66,7.09.39,8.25-.9.31-.34.68-.54.83-.45.15.09.85-.62,1.57-1.58.71-.96,1.58-2,1.93-2.31,1.08-.96,3.07-1.62,4.69-1.54,1.29.06,1.73.26,2.67,1.24,1.1,1.15,1.11,1.16.61.19-.71-1.38-1.5-1.98-3.22-2.44Z"/>
          <path class="cls-1" d="m97.68,103.34c2.05-6.46,4.01-14.72,4.01-16.88,0-2.11-.67-4.95-1.36-5.78-.21-.25-.8-.45-1.33-.45-.93,0-.95.02-.44.79.28.43.67,1.29.86,1.9.87,2.84-.04,11.39-2.03,19.08-.72,2.79-1.3,5.32-1.28,5.62.03.62.05.56,1.59-4.29Z"/>
          <path class="cls-1" d="m96.68,64.26c.12-.04.88.66,1.7,1.56.82.9,2.04,2.14,2.73,2.77,1.76,1.61,2.25,3.5,2.47,9.58.1,2.78.24,5.05.3,5.05s.36-.48.67-1.08c1.4-2.68,1.56-6.92.4-10.5-.73-2.24-3.29-6.97-4.51-8.33-1.78-1.98-5.04-3.34-5.04-2.1,0,.7,1.02,3.14,1.27,3.06Z"/>
          <path class="cls-1" d="m94.34,42.58c-1.86-.11-1.96.19-.19.6,1.25.29,1.67.25,1.82-.19.06-.17-.67-.36-1.63-.41Z"/>
          <path class="cls-1" d="m100.51,105.37c-1.05,2.06-1.41,3.32-.95,3.32.1,0,.84-.45,1.63-.99.96-.67,1.58-1.4,1.87-2.23.6-1.74.54-6.9-.09-8.36l-.51-1.16-.41,3.59c-.33,2.96-.61,3.99-1.55,5.83Z"/>
          <path class="cls-1" d="m86.61,57.13c-.22.67-.3.55-.63-.88l-.37-1.65-.24,1.65c-.2,1.36-.14,1.73.33,2.07.74.54.61.59,2.46-.77,1.48-1.09,2.1-2.12,1.27-2.12-.92,0-2.6,1.02-2.83,1.71Z"/>
          <path class="cls-1" d="m94.4,64.75c-.31-.2-1.13-.46-1.81-.59l-1.25-.23.63,1.07c.34.59,1.09,1.61,1.65,2.28,1.95,2.28,3.05,5.02,2.03,5.02-.23,0-.9-.3-1.49-.66-1.06-.65-1.08-.65-1.08-.02,0,.35.38,1.84.84,3.31l.84,2.66h2.3c1.27,0,2.3-.13,2.3-.27,0-1.39-4.24-12.1-4.98-12.56Z"/>
          <path class="cls-1" d="m87.7,59.36c-.42.42,3.73,3.28,5.26,3.62,1.7.38,1.99.04,1.24-1.49-.38-.78-.93-1.35-1.45-1.49-2.12-.57-4.79-.91-5.06-.64Z"/>
          <path class="cls-1" d="m53,52.48c.12-.81-.03-.81-2.2,0l-.76.29.7.99c.9,1.26,1.65,1.71,2.48,1.47.36-.11,1.41-.31,2.32-.46,1.9-.31,4.47-1.27,4.47-1.68,0-.15-.63,0-1.41.36-.77.35-1.9.64-2.51.65h-1.1s1.2-1.39,1.2-1.39c1.29-1.51,1.7-2.57,1.35-3.48-.2-.52-.3-.49-.94.28-.4.47-1.13,1.56-1.64,2.42-.63,1.07-1.1,1.53-1.49,1.45-.39-.08-.54-.36-.46-.88Z"/>
          <path class="cls-1" d="m93.23,113.65c-.7,0-1.6-1.18-1.83-2.41l-.21-1.07-.04,1.17c-.09,2.31,2.02,3.53,3.43,1.98.79-.87,1.04-3.6.41-4.44-1.19-1.59-3.82,1.03-2.95,2.94.85,1.86,2.38,1.16,2.38-1.08,0-.66.14-1.03.33-.91.96.59-.32,3.8-1.52,3.8Z"/>
          <path class="cls-1" d="m95.47,78.61c.1.31.86.52,2.28.63,1.87.15,2.68-.05,2.21-.53-.09-.08-1.16-.24-2.4-.36-1.85-.17-2.22-.13-2.09.25Z"/>
          <path class="cls-1" d="m88.06,114.64c-.17,0-.26.11-.2.25,1.58,3.33,2.52,4.42,1.24,1.44-.4-.93-.87-1.69-1.05-1.69Z"/>
          <path class="cls-1" d="m101.39,75.62c-.2-.94-.64-2.25-.98-2.93-1.68-3.38-3.11-5.91-3.59-6.35-.65-.62-.73-.82,1.67,4.68,1,2.3,2.01,4.8,2.23,5.55.59,1.98,1.13,1.21.66-.95Z"/>
          <path class="cls-1" d="m95.8,84.14c.6.6,1.06-.07.61-.9-.21-.39-.52-.62-.69-.51-.43.27-.39.94.08,1.41Z"/>
          <path class="cls-1" d="m96.06,104.22c.14-.09.34-.88.46-1.78.12-.89.5-2.72.85-4.06,2.31-8.82,2.04-18.15-.52-18.15-1.05,0-1.01.68.12,2.02.84,1.01.92,1.32,1.03,4.69.12,3.5-.15,5.79-1.77,15.04-.23,1.32-.31,2.33-.17,2.24Z"/>
          <path class="cls-1" d="m101.28,111.05c.78-.48,1.41-1.12,1.41-1.45,0-.5-.29-.43-2.13.47-1.17.58-2.2,1.31-2.28,1.63-.31,1.19.19,1.08,3-.66Z"/>
          <path class="cls-1" d="m60,32.12c0-.61.21-1.67.45-2.38.55-1.55.69-4.85.19-4.09-1.53,2.27-2.04,4.89-1.42,7.19.28,1.05.78.59.78-.72Z"/>
          <path class="cls-1" d="m62.5,33.11c-.17-.5-.03-.45.62.25,1.29,1.39,1.61,1.05.71-.73-.45-.89-.95-2.57-1.11-3.72l-.29-2.1-.71,1.49c-.97,2.03-.93,3.38.13,4.53.65.7.8.77.65.29Z"/>
          <path class="cls-1" d="m63.61,18.82c1.01-2.13,1.94-3.18,1.54-1.74-.2.69-.17.72.21.24.23-.3.61-.82.82-1.16.23-.36.19.07-.11,1.05-.49,1.62-1.14,9.62-.75,9.16.11-.13.51-1.42.89-2.88.38-1.46.78-3.39.88-4.3.38-3.33,1.11-4.81,3.56-7.2,1.87-1.82,2.16-2.23,1.57-2.23-1.21,0-5.25,2.34-6.45,3.74-1.14,1.33-3.14,5.63-3.14,6.75,0,.33.43-.31.96-1.43Z"/>
          <path class="cls-1" d="m57.88,44.15c.4-.33.44-.22.25.72l-.22,1.11.88-1.04c.48-.57.88-1.35.88-1.72s-.15-.77-.33-.88c-.18-.11-.33-.05-.33.15,0,.75-.54.3-.84-.7-.41-1.35-1.03-1.55-1.52-.48-.31.67-.27,1.07.19,2.03.46.97.65,1.12,1.04.8Z"/>
          <path class="cls-1" d="m71.06,14.36c.29.47,2.57.47,4.14,0,.67-.2,1.58-.64,2.02-.98.65-.5.42-.46-1.18.19-1.09.44-2.43.81-2.96.82-1.39,0-.66-.48,1.39-.92,1.72-.38,3.69-1.43,5.49-2.92.86-.72.88-.78.23-.78-.71,0-1.77.47-4.77,2.1-1.73.94-3.05,1.17-2.65.47.13-.23-.26.05-.85.63s-.98,1.21-.85,1.41Z"/>
          <path class="cls-1" d="m59.17,45.26c-.45.51-.81,1.11-.8,1.32,0,.22.38-.05.82-.6.45-.55.81-1.14.8-1.32,0-.18-.37.09-.82.6Z"/>
          <path class="cls-1" d="m87.8,6.94c.64-.66,1.45-1.15,1.88-1.15,1.08,0,.94.35-.59,1.49l-1.34.99,2.09.55c3.33.87,3.15,1.01,2.87-2.14-.13-1.52-.5-3.4-.82-4.19l-.57-1.44-1.7,1.83c-1.51,1.62-3.39,4.76-3.06,5.1.07.07.63-.39,1.24-1.03Z"/>
          <path class="cls-1" d="m88.56,14.39c-.15,0,.18.28.72.62.55.34,1.28.93,1.62,1.32.63.7.63.71-.2.71-1.94,0-3.95.96-6.23,2.98-2.02,1.79-2.31,2.2-2.31,3.19,0,1.47-.95,3.3-2.48,4.75-1.31,1.24-1.78,2.14-2.12,3.97-.2,1.07-.3,1.15-1.36,1.13-.63-.01-1.57-.14-2.09-.29l-.94-.27.69,1.35c.38.74.69,1.58.69,1.86,0,.86-.99.57-1.36-.4-.34-.89-.36-.89-.83-.25-.42.57-.53.59-.8.17-.17-.27-.31-.65-.31-.83s.15-.11.33.17c.73,1.11,1.13-1.14.42-2.4-.28-.5-1.09-.22-1.6.55-.92,1.41,0,4.26,1.96,6.11.64.6,1.1.75,2.02.64,1.05-.12,1.18-.06,1.1.54-.11.8-1.38,1.1-2.11.49-.27-.22-.55-.34-.63-.25-.08.08-.38,1.63-.67,3.44-.63,3.99-1.03,5.32-1.68,5.57-.85.33.26,1.92,2.27,3.25,3.17,2.1,10.66,5.48,11.14,5.02.08-.08.2-.8.27-1.6.15-1.72-.2-2.46-3.12-6.76-1.16-1.7-2.05-3.17-1.97-3.25.08-.08.87.41,1.75,1.08,3.39,2.6,7.4,3.9,11.44,3.71,2.36-.11,2.69-.48,2.99-3.33.15-1.39.09-1.57-.48-1.57-.97,0-1.96-.62-3.31-2.06-1.26-1.35-1.92-1.4-1.93-.15,0,.59-.06.63-.32.23-.61-.94-.39-2.25.41-2.49.41-.13,1.17-.62,1.69-1.1l.95-.87-.54,1.08-.55,1.08h1.28c.7,0,2.19-.1,3.3-.21,1.87-.2,2.04-.28,2.37-1.21.19-.55.35-1.12.35-1.28,0-.51-.77-.29-1.53.42-.73.69-.75.69-2.34.09-.88-.34-1.74-.57-1.93-.51s-.16-.07.04-.28c.28-.29.54-.28,1.06.05.55.34.91.35,1.8.03.61-.22,1.66-.4,2.33-.4,1.03,0,1.22-.11,1.22-.72,0-.39-.55-1.52-1.22-2.49-1.56-2.27-1.56-3.45,0-5.8l1.15-1.74-.25-3.47c-.29-3.94-.92-5.81-2.11-6.26l-.81-.31.79-1.57c.83-1.64.98-2.64.5-3.39-.19-.29-.36.19-.52,1.42-.16,1.26-.49,2.16-1.02,2.76-.55.62-.8.74-.82.4-.02-.27-.22-.94-.47-1.49q-.44-.99-.27.41c.22,1.78-.29,1.84-2.33.28-1.57-1.2-2.67-1.85-3.1-1.85Zm3.64,17.12c-.27.46-.28.77-.05,1.01.5.5-.02,1.15-.76.96-.34-.09-.63-.03-.63.14,0,.39-.68.37-1.41-.06-.71-.41-.77-1.02-.08-.75.29.11.5,0,.5-.27,0-.34-.36-.42-1.35-.33-2.18.21-2.27-.39-.25-1.72,2.32-1.52,3.59-1.72,3.59-.57,0,.35.19.7.41.78.32.12.33.29.02.81Zm1.22-3.16c0,.76-.93.77-2.49.03-1.25-.59-1.45-.56-4.62.75-.61.25-.62.23-.17-.34.79-.98,3.01-1.81,4.81-1.82,1.75,0,2.46.39,2.46,1.38Z"/>
          <path class="cls-1" d="m61.5,60.84c2.26,1.54,6,5.49,8,8.48,1.41,2.1,4.23,6.61,9.93,15.88,2,3.25,2.99,7.68,3.92,17.51.28,2.99.59,5.55.67,5.69.09.15.4.17.69.06.47-.18.51-.86.34-6.02-.11-3.2-.36-7.01-.57-8.47-.48-3.39-1.92-7.55-3.34-9.66-.62-.91-1.99-2.98-3.06-4.6-9.63-14.61-11.67-17.03-16.42-19.49-1.74-.9-1.84-.52-.16.62Z"/>
          <path class="cls-1" d="m115.17,192.39c-.64-2.09-2.9-9.16-5.02-15.72-2.12-6.55-4.97-15.78-6.34-20.51-1.37-4.73-3.17-10.76-3.99-13.4-.82-2.64-2.16-7.18-2.96-10.09-2.64-9.53-5.76-17.7-6.75-17.7-.46,0-.5-.15,1.52,5.46,1.9,5.28,1.68,4.39,4.26,17.2,1.17,5.82,2.37,11.56,2.65,12.74.83,3.51.57,3.37-.66-.33-1.2-3.64-2.57-9.04-4.63-18.2-.67-3-1.67-6.87-2.21-8.6-1.12-3.56-3.71-8.6-4.42-8.6q-.61,0,.33,3.13c.94,3.09,1.27,4.86,2.15,11.43,1.16,8.64,1.95,15.65,2.17,19.36.98,16.14,4.8,31.33,9.77,38.8l1.04,1.56-1.16-1.16c-1.36-1.36-4.09-6.05-5.51-9.47-2.3-5.51-4.71-14.77-5.76-22.12-.29-2-.89-9.74-1.35-17.2-.92-15.02-1.13-16.82-2.54-21.26-.81-2.55-1.08-3.06-1.65-3.06-.53,0-.63.13-.43.58.44.99,1.5,7.47,1.4,8.52-.07.67-.4-.23-1.03-2.81-1.36-5.57-1.6-6.29-2.12-6.29-.29,0-.4.22-.29.58.29.95,2.06,9.29,2.62,12.32.71,3.86,1.29,9.21,1.16,10.6-.11,1.2-1.94-7.41-2.6-12.25-.37-2.74-1.93-10.57-2.19-10.99-.09-.14-.45-.26-.81-.26-.5,0-.61.18-.5.74.41,2.03.51,6.86.58,28.04.08,25.68.38,40.98.92,47.64.2,2.45.43,5.29.51,6.29l.15,1.82-.48-1.82c-1.1-4.19-2.43-15.53-3.01-25.64-.3-5.33-.6-5.99-1.1-2.47-1.96,13.68-5.97,27.7-11.18,39.09-.65,1.43-1.11,2.68-1.02,2.77.28.28,5.15.72,8.53.77,1.73.03,5.45-.17,8.27-.44,2.82-.27,6.99-.64,9.26-.82,5.37-.44,9.28-1.11,15.38-2.66,5.25-1.34,12.32-3.55,12.52-3.91.07-.12-.44-1.93-1.11-4.03-.68-2.09-1.76-5.52-2.4-7.61Z"/>
          <path class="cls-1" d="m67.03,108.91c-.61-.22-.74-.15-.74.37,0,.35.2.81.44,1.01.71.59,6.36.88,15.11.78,7.93-.09,8.12-.11,8.68-.83.31-.4.58-.85.58-.98,0-.14-5.24-.21-11.66-.17-6.42.05-12-.04-12.41-.19Z"/>
          <path class="cls-1" d="m72.41,18.69c.11.18.53.32.93.31.7-.02.7-.03.06-.31-.91-.39-1.23-.39-.99,0Z"/>
          <path class="cls-1" d="m79.99,13.07c.15,0,1.19-.66,2.3-1.47,1.12-.81,2.29-1.7,2.61-1.99.32-.28.91-.51,1.31-.51.55,0,.63-.1.35-.38-.58-.58-3.61,1.02-5.37,2.83-.81.84-1.35,1.52-1.2,1.52Z"/>
          <path class="cls-1" d="m85.03,71.63c-.27,0-.6-.33-.73-.74-.13-.41-.45-.9-.71-1.09-.4-.29-.41-.78-.1-3.1.21-1.51.32-2.81.25-2.88-.07-.07-.63.54-1.24,1.36-1.21,1.62-1.65,1.84-1.65.82,0-.78-.26-.82-1.14-.16-1.16.88-1.82.6-2.53-1.08-.4-.94-1.36-2.18-2.39-3.11-.94-.85-2.9-2.68-4.36-4.07-3-2.87-3.06-2.88-6.06-1.08-1.73,1.04-1.75,1.06-.92,1.4,1.83.75,6.35,4.73,8.8,7.77,2.13,2.63,6.48,8.93,8.22,11.9.39.66.62.73,1.82.54.76-.12,2.84-.31,4.63-.42,2.77-.18,3.23-.28,3.09-.74-.09-.29-1.13-2.88-2.31-5.76l-2.14-5.23-.23,1.37c-.13.75-.13,2.03-.01,2.83.18,1.17.12,1.46-.27,1.46Z"/>
          <path class="cls-1" d="m121.75,202.06c.04.74.94,4.26,1.33,5.22.11.27.24.72.28.99.04.27.3,1.16.57,1.99s.67,2.12.88,2.89c.22.77.47,1.41.58,1.41s.61-.25,1.13-.56c.53-.31,1.05-.46,1.17-.34.28.28-.48,1.23-.99,1.24-.8,0-1.27.58-1.05,1.28.27.86.41.86,2.3.05,1.67-.71,1.88-1.3.82-2.29-.38-.36-.6-.81-.48-1,.12-.2,0-.84-.27-1.43-.27-.59-.59-1.56-.7-2.15-.13-.62-.42-1.08-.69-1.08-.34,0-.42-.23-.27-.83.12-.47.04-1.04-.19-1.31-.22-.26-.3-.77-.19-1.12.11-.35-.01-1.14-.27-1.75-.26-.61-.66-1.58-.87-2.16l-.39-1.05-1.38.62c-1.06.48-1.37.79-1.33,1.38Zm4.75,8.69c-.22.27-.72.5-1.1.5-.67,0-.67,0-.04-.49.89-.67,1.7-.68,1.14,0Zm-.72-1.93c-.13.69-.62.86-1.26.43-.44-.29-.44-.36,0-.65.76-.5,1.38-.4,1.26.22Zm-1.4-6.76c.12.12.13.45.02.73-.23.59-1.66.71-1.46.12.18-.54,1.17-1.12,1.44-.85Z"/>
          <path class="cls-1" d="m93.75,102.23c-.18.11-.33.43-.33.7s.15.4.33.29c.18-.11.33-.43.33-.7s-.15-.4-.33-.29Z"/>
          <path class="cls-1" d="m105.33,141.1c-.71-2.82-1.84-6.69-2.51-8.6-.67-1.91-1.33-3.91-1.47-4.46-1.48-5.94-2.69-9.16-4.37-11.66-1.27-1.89-1.78-1.79-.79.17,2.03,4.05,4.9,13.57,5.62,18.7.22,1.57-.29,1.33-.6-.27-.4-2.15-4.05-12.82-5.52-16.15-1.36-3.07-1.52-3.29-2.75-3.71-.72-.24-1.36-.4-1.42-.34-.06.06.57,1.5,1.39,3.21.82,1.71,2.4,5.64,3.5,8.73,1.1,3.09,2.58,7.26,3.3,9.26.71,2,2.94,9.13,4.96,15.84,4,13.31,8.57,27.48,8.8,27.25.08-.08-.61-2.63-1.54-5.67-.92-3.04-1.62-5.69-1.56-5.9.2-.6,3.34,8.66,5.35,15.79,2.28,8.06,5.2,17.37,5.46,17.37.11,0,.67-.3,1.27-.66.59-.36,1.08-.81,1.08-1,0-.36-4.36-14.92-6.45-21.5-.66-2.09-1.64-5.22-2.17-6.95-.53-1.73-1.8-5.53-2.82-8.44-4.07-11.59-5.52-16.1-6.76-21.02Z"/>
          <path class="cls-1" d="m118.74,212.91c.41,0,1.31-.45,2.42-1.2.14-.1-1.03-3.77-1.76-5.5-.51-1.21-.55-1.23-1.43-.79-1.33.67-6.71,2.38-10.5,3.33-9.19,2.31-11.94,2.68-26.96,3.72-7.62.52-8.83.53-12.52.1-3.99-.47-4.1-.47-4.55.17-.39.57-.39.69.04.93.71.4.61.91-.18.91-.46,0-1.08.64-1.98,2.06l-1.3,2.06.76.4c.42.22,1.5.47,2.39.56,1.8.18,4.11.89,4.11,1.28,0,.49-1.25.24-2.08-.41-.7-.55-.99-.6-1.65-.3-.66.3-1.06.23-2.21-.35-.77-.39-1.44-.67-1.49-.61-.46.55-.8,1.65-.64,2.07.14.36.06.47-.26.34-.3-.12-.73.3-1.22,1.16-.57,1.01-.65,1.37-.31,1.48,1.41.46,5.8,1.52,8.21,1.97q4.3.81,20.7.07c6-.27,9.94-.76,16.69-2.06,6.81-1.32,11-2.37,13.23-3.34.82-.35,2.66-1,4.09-1.43,1.43-.43,2.68-1,2.78-1.26.1-.26-.05-.93-.32-1.5-.28-.57-.68-1.77-.9-2.68-.22-.91-.46-1.71-.55-1.8s-.59.27-1.12.78c-.59.56-1.17.85-1.49.73-.67-.25-.67-.88,0-.88Zm-56.18,9.35c-.21.62-1.13.68-1.35.1-.15-.38.02-.51.65-.51.53,0,.79.16.71.41Zm3.65,1.2c-.14.73-1.06.85-1.58.21-.57-.68-.06-1.2.93-.94.46.12.71.4.65.73Zm19.26-6.57c.18.28.16.64-.06.9-.41.49-.61.52-1.19.15-.32-.2-.26-.42.27-.89.58-.53.73-.55.98-.15Zm-1.03-3.64c.38,0,.7.14.7.31,0,.57-.58.68-1,.18-.34-.41-.29-.49.29-.49Zm-6.91,4.62c.3.57.26.67-.31.67-.37,0-.67-.22-.67-.48,0-.79.61-.91.99-.2Zm-1.48-3.96c.64,0,1.02.93.56,1.38-.24.24-.46.14-.71-.33-.48-.89-.46-1.05.15-1.05Zm-2.55.34c.49,0,.73.11.53.25-.2.13-.42.42-.5.64-.09.28-.3.29-.72.06-.78-.44-.41-.95.69-.95Zm-9.37,4.29c-.31,0-.5-.31-.5-.83,0-.92.48-1.11.79-.3.32.83.24,1.13-.29,1.13Zm.99-4.43l1.12-.12c1.19-.13,2.05.37,1.51.89-.2.19-.76.1-1.47-.23l-1.16-.54Zm2.45,5.1c-.35,0-.62-.19-.61-.41s.13-.68.25-1c.2-.49.29-.42.61.41.34.9.31,1-.25,1Zm2.58,4.76c-.17.52-1.45.66-1.73.19-.13-.22-.06-.5.17-.64.56-.34,1.72,0,1.56.45Zm.15-3.1c-.19,0-.53.07-.77.16-.24.09-.65.03-.9-.13-.69-.44-.15-.99.86-.88.82.09,1.55.85.81.85Zm.34-5.83c-.13.08-.5-.04-.81-.27-.59-.43-.45-.85.27-.85.46,0,.9.9.54,1.12Zm.6,3.68c0-.33.33-.5,1.03-.5.88,0,.97.07.62.5-.22.27-.69.5-1.03.5s-.62-.22-.62-.5Zm2.35,5.77c-.46.25-.73.21-1.02-.13-.3-.37-.26-.53.22-.78.65-.33,1.43-.19,1.43.28,0,.16-.28.44-.63.63Zm2.8-.27c-.1-.16.05-.49.34-.72.43-.35.57-.35.82.04.17.26.3.59.3.72,0,.35-1.24.31-1.46-.05Zm1.47-3.73c-1.08.9-1.16.92-2.03.42-.85-.49-.97-.48-1.84.14-.51.36-1.25.62-1.65.55-.68-.1-.69-.15-.17-.67.41-.41,1.13-.56,2.71-.56,1.18,0,2.45-.19,2.8-.41,1.2-.76,1.32-.42.18.53Zm.82-5.91c-.12-.18-.01-.4.23-.49.79-.29,3.21-.38,3.04-.1-.09.15-.59.27-1.12.27s-1.05.15-1.16.33c-.26.42-.73.42-.99,0Zm.98,3.94c-.34-.55.42-1.18.88-.73.38.38.14,1.09-.37,1.09-.16,0-.39-.16-.51-.36Zm2.13,5.2c-.47.57-.68.57-1.44,0-.78-.57-.2-.98.97-.68.68.17.77.31.47.67Zm-.27-3.2c-.71.38-1.68.46-1.68.13,0-.37,1.13-1.09,1.74-1.1.77-.01.74.54-.06.97Zm1.83-.27c-.22-.36,1.4-1.11,1.83-.85.47.28-.32,1.13-1.05,1.13-.33,0-.68-.13-.78-.28Zm1.85,3.37c-.57.52-.66.52-1.06.03-.37-.44-.36-.58.03-.83.58-.37.69-.37,1.23-.03.32.21.28.4-.2.83Zm36.13-7.86c.7.27.68.55-.09,1.03-.5.31-.71.3-1-.04-.47-.57.32-1.29,1.09-.99Zm-6.08-3.56c0,.36-.23.74-.52.85-.79.3-.85.26-.74-.54.14-.95,1.26-1.23,1.26-.31Zm-7.98-1.93c.4,0,.7.21.7.5s-.13.5-.29.5-.48-.22-.7-.5c-.34-.41-.3-.5.29-.5Zm-1.45,3.97c.23-.37,1.84.41,1.71.83-.18.57-1.45.57-1.67-.01-.11-.3-.13-.67-.04-.81Zm-2.75,1.34c.3-.48.51-.55.83-.29.67.56.5.94-.4.94-.74,0-.78-.07-.43-.65Zm-9.81,1.32c.79.66.55.98-.74.98h-1.22l.74-.69c.59-.55.83-.61,1.22-.29Zm-3.71.51c-.21.56-.97.62-1.28.11-.12-.2-.08-.5.09-.67.45-.45,1.41,0,1.19.56Zm-2.2-4.1c.73-.39,1.63,0,1.29.57-.27.44-.85.47-1.48.07-.37-.23-.33-.35.19-.63Zm2.22,9.68c-.23.62-1.57.72-1.37.11.08-.23.46-.46.85-.52.54-.08.67.03.52.41Zm-.13-2.8c-.62.41-1.35.42-1.98.02q-.51-.32,1.1-.81c.24-.07.66,0,.91.17.4.26.39.35-.03.63Zm1.32-6.53c0-.14.29-.43.65-.66.67-.42,1.23-.04.84.58-.24.38-1.49.45-1.49.08Zm2.32,5.36c.51-.14.66-.03.66.5,0,.73-.86.88-2.15.38-.73-.28-.85-.21,1.49-.88Zm.47,4.29c-.74.28-.95.25-1.4-.2-.65-.65-.47-.8.76-.66,1.22.14,1.51.52.64.85Zm1.11-10.07c-.61-.67-.31-1.1.54-.78.29.11.53.49.53.83,0,.77-.32.76-1.06-.05Zm1.01,3.9c.21-.21.38-.65.38-.98,0-.52.09-.54.66-.19.86.54.69.98-.49,1.3-.71.19-.85.16-.56-.13Zm1.64,5.27c-.12.61-.68.91-1.04.56-.47-.47-.21-1.11.46-1.11.46,0,.65.18.58.55Zm.24-3.01c-.81.59-1.32.6-1.81.01-.31-.37-.16-.5.82-.68,1.44-.27,1.87.03.99.67Zm.66-7.27c.7-.27,1.56.45,1.2,1.01-.18.28-.45.23-1.02-.2-.71-.54-.73-.61-.18-.81Zm.81,3.77c.24-.4.41-.4,1.14,0,.62.33.74.53.44.72-.54.34-1.49.35-1.7.01-.09-.15-.03-.47.13-.73Zm.58,2.2c.42-.26,1.4.07,1.4.46,0,.53-.57.62-1.16.19-.38-.27-.47-.52-.24-.65Zm1.7,4.12c-.63.4-1.2.37-1.47-.06-.4-.65.38-1.06,1.18-.63.59.32.65.46.28.69Zm-.33-9.62c-.16,0-.29-.23-.29-.51,0-.53.88-1.04,1.22-.7.23.23-.51,1.21-.93,1.21Zm1.53,5.96c-.23-.37,1.38-1.21,1.7-.89.29.29-.52,1.22-1.06,1.22-.24,0-.53-.15-.64-.33Zm2.48,2.64c-.42.78-.34.76-1.08.2-.51-.39-.52-.49-.09-.85.27-.23.72-.32,1.01-.22.41.16.44.34.16.87Zm-.79-9.55c-.51-.57-.52-.64-.02-.83.92-.35,1.14-.23,1.14.62,0,.99-.36,1.05-1.12.21Zm1.52,5.88c.17-.5,2.54-1.29,2.77-.92.1.16-.06.29-.34.29s-.61.22-.72.5c-.22.57-1.89.69-1.71.13Zm2.67,3.11c-.59.53-.69.53-1.08.07-.55-.66-.28-.9.84-.77.88.11.89.12.24.7Zm1.46-11.34c.72,0,.78.08.44.5-.43.52-.57.55-1.24.28-.66-.26-.13-.77.81-.77Zm-.19,4.51c-.28-.34-.26-.55.12-.86.39-.33.6-.3,1.02.12.29.29.7.53.92.54.6,0-.52.65-1.14.65-.29,0-.71-.2-.91-.45Zm.43,3.05c-.25-.41.7-1.27,1.42-1.27.61,0,.54.46-.17,1.11-.71.65-.93.67-1.24.17Zm1.99,2.83c-.67.26-.97.25-1.24-.01-.25-.26.76-1.08,1.35-1.1.6-.01.51.87-.11,1.11Zm.2-10.54c-.33-.4-.25-.52.44-.69,1.13-.28,1.68.08,1.07.7-.6.61-1,.6-1.51,0Zm1.64,6.26c-.32-.39-.23-.54.49-.81,1.12-.43,1.17-.42,1.17.08,0,.23-.28.6-.63.81-.51.32-.71.3-1.03-.08Zm1.85,3.12c-.27.43-1.51.5-1.51.08,0-.16.19-.45.42-.64.52-.43,1.41.04,1.09.57Zm.93-9.89c-.25,0-.46-.22-.46-.48,0-.58.54-.96.98-.69.44.27.04,1.17-.52,1.17Zm1.89,7.51c.32.31.32.51-.02.91-.45.54-1.34.7-1.34.24,0-.15.21-.56.47-.91.37-.5.56-.56.88-.24Zm-1.35-3.99c0-.69.86-1.66,1.27-1.41.27.17.27.4-.03.87-.49.79-1.24,1.11-1.24.54Z"/>
          <path class="cls-1" d="m95.58,102.33c.1-.1.38-1.72.64-3.61.25-1.89.63-4.25.82-5.25.2-1,.45-3.38.56-5.29.17-2.88.13-3.4-.24-3.06-.67.63-1.44.5-2.29-.41-.67-.71-.72-.94-.4-1.65.21-.46.52-.83.69-.83s.14-.44-.08-1.03c-.46-1.24-2.08-2.22-2.65-1.61-.28.3-.27.44.04.55.67.24.47,1.09-.25,1.09-.36,0-.66-.17-.66-.37,0-.25-.65-.31-2.07-.17-1.14.11-3.19.28-4.55.4l-2.48.2,1.99,4.03c1.8,3.65,2.03,4.35,2.44,7.5.24,1.91.52,6.12.62,9.35l.17,5.87h1.71c.94,0,1.89-.17,2.1-.39.21-.21.98-.36,1.7-.33.72.03,1.38-.06,1.46-.2.08-.14.24-1.14.37-2.23.22-1.91.21-1.96-.32-1.22-.34.48-.82.72-1.26.66-.99-.14-1.12-1.59-.23-2.41.66-.59.7-.59,1.34,0,.36.33.74.52.84.43Zm-7.82-18.58c-.58.7-1.27.54-1.62-.4-.45-1.16-.43-1.21.42-.95,1.23.38,1.63.83,1.2,1.35Zm6.98,3.98c.75-.71.99-.8.99-.4,0,.29.24.9.54,1.35.29.45.42.81.29.81s-.06.22.16.48c.22.26.29.65.17.86-.17.28-.31.26-.52-.07-.21-.33-.28-.34-.29-.04,0,.53-1.4.54-1.93.02-.71-.71-.45-2.04.6-3.02Zm-1.26,10.3c-.59-.59-.48-1.74.21-2.37.84-.75,1.21-.69,1.89.34.57.87.57.9-.31,1.65-1.02.88-1.23.92-1.78.37Z"/>
          <path class="cls-1" d="m94.24,96.11c-.27,0-.49.23-.49.5s.13.5.29.5.38-.23.49-.5c.12-.3,0-.5-.29-.5Z"/>
          <path class="cls-1" d="m56.02,218.71l-1.21-.34c-1.29-.36-1.89-1.16-.87-1.16.34,0,.96.24,1.39.54.65.45.82.47,1.06.08.16-.25.29-.72.29-1.06,0-.33.13-.52.27-.43.15.09.7-.63,1.22-1.6l.95-1.76-.97-.89c-1.01-.92-.94-.94,1.06-.33.53.16.82.03,1.11-.5.21-.4.31-.8.22-.89-.09-.09-2.38-.52-5.07-.96-10.5-1.7-17.28-3.48-24.43-6.43-1.82-.75-3.53-1.43-3.8-1.51-.52-.14-1.09.92-4.14,7.6-.89,1.94-1.42,3.53-1.3,3.89.11.33.03.61-.17.61-.55,0-1.53,2.26-1.14,2.64.34.34,4.34,1.82,10.89,4.02,2.2.74,7.27,2,11.39,2.82,4.08.81,7.66,1.61,7.94,1.78.52.3,1.5-.58,2.92-2.63.36-.51.43-.85.2-.92-.2-.07-.64-.33-.99-.6-.54-.41-.56-.52-.13-.81.37-.25.64-.17,1.05.33.73.87.84.84,1.6-.41l.65-1.07Zm-.48-7.79c.53,0,.61.3.29,1.13-.31.8-.79.62-.79-.3,0-.52.19-.83.5-.83Zm-4.67,3.47c.4-.56.45-.54.6.28.17.85-.45,1.27-.87.6-.1-.16.02-.55.26-.88Zm-7.68-6.06c.91.13,1.21.93.36.93-.35,0-.73-.1-.85-.22-.45-.45-.2-.81.5-.71Zm.87,6.35c.5.5.48.54-.34.54-.48,0-.97-.15-1.08-.33-.37-.59.86-.77,1.42-.21Zm-.37,1.68c.9.22.91.25.29.7-.77.56-1.39.6-1.69.11-.38-.61.4-1.06,1.4-.81Zm-2.81-8.71c.55.29.6.42.23.66-.76.48-1.29.34-1.29-.36,0-.76.12-.8,1.06-.29Zm.54,4.16c-.16.83-.93.94-.93.14,0-.41.22-.69.52-.69s.48.23.41.55Zm-7.45-2.33c.26.26-.1,1.12-.46,1.12-.16,0-.29-.22-.29-.48,0-.54.47-.93.76-.64Zm-1.5-4.5c.61,0,1.08.59.89,1.1-.22.58-.55.7-.91.33-.3-.3-.28-1.43.03-1.43Zm-2.36-1.11c.63.41.72.61.4.82-.66.42-1.26.34-1.47-.2-.34-.89.19-1.2,1.07-.62Zm-3.65,11.88c-.65.65-.79.6-2.61-.79-1.55-1.19-1.57-1.22-.71-1.33.57-.07,1.11.14,1.52.58.35.38,1.01.69,1.46.69.93,0,1.01.19.34.85Zm.35-3.2c-.34.28-.55.25-.88-.14-.53-.64-.02-1.26.78-.96.67.26.7.6.1,1.1Zm-1.2-2.89c-1.47-.67-1.48-.67-1.22-.92.12-.12.68-.02,1.26.22.93.38,1.1.37,1.48-.15.23-.32.35-.8.25-1.05-.2-.53.73-.65,1.05-.13.11.18.05.33-.14.33s-.44.37-.55.81c-.32,1.27-.83,1.49-2.12.89Zm4.14,6.9c-.3.49-1.02.4-1.5-.17-.23-.28-.32-.6-.21-.72.33-.32,1.94.52,1.7.89Zm1.07-3.2c-.2.59-1.08.64-1.53.1-.27-.33-.29-.55-.05-.7.51-.31,1.73.15,1.57.6Zm.19-1.79c-.33-.01-1.23-.25-2-.52-.77-.27-1.41-.63-1.41-.79s.38-.12.85.09c.61.27,1.02.28,1.41.04.44-.27.68-.19,1.15.43.57.75.57.78,0,.75Zm2.07,6.28c-.3.5-.69.45-1.17-.13-.33-.4-.3-.53.15-.7.65-.25,1.35.32,1.03.84Zm.8-3.43c-.52.63-1.28.62-1.53-.03-.28-.72.05-.93,1.06-.67.72.18.8.3.47.7Zm.14-2.41c-.18.11-.54.07-.8-.09-.64-.4-.31-.63.48-.34.35.13.5.32.32.43Zm1.61-5.98c.41.06.74.25.74.44s-.33.38-.74.44c-.51.07-.74-.06-.74-.44s.23-.51.74-.44Zm-.43,12.66c-.3-.36-.32-.61-.07-.86.42-.42,1.07-.09,1.07.55,0,.71-.54.88-1.01.31Zm1.67-3.13c-.69.45-.89.42-1.12-.19-.11-.29-.2-.59-.2-.66,0-.25.82-.13,1.32.2.44.29.44.36,0,.65Zm.46-3.8c-.36,1.63-.68,1.82-1.87,1.13-.83-.48-.73-1.06.14-.78.53.17.88.02,1.33-.56l.62-.78-.22.99Zm.35-3.8c-.26,0-.48-.22-.48-.5,0-.56.06-.58.8-.3.61.23.38.79-.32.79Zm1.18,11.75c-.33-.4-.31-.53.11-.69.65-.25,1.21.08,1.21.71s-.8.61-1.32-.02Zm.4-3.2c-.66-.66-.47-.99.5-.88.54.06.91.31.91.6,0,.63-.89.8-1.41.28Zm.66-2.48c-.32-.13-.34-.28-.05-.63.28-.33.55-.37,1.01-.12,1.21.65.39,1.29-.96.75Zm2.41,5.85c-.49,0-.78-.14-.66-.33.11-.18.41-.33.66-.33s.55.15.66.33c.12.19-.17.33-.66.33Zm2.39,1.1c-.2.59-.81.62-1.03.05-.29-.76-.28-.77.47-.58.37.1.62.33.56.53Zm.68-7.99c-.08.24-.41.5-.74.56-.38.07-.54-.05-.44-.33.08-.24.41-.5.74-.56.38-.07.54.05.44.33Zm.24-3.69c-.6-.66-.35-.84.64-.46.54.21.74,1.12.24,1.12-.15,0-.55-.3-.88-.66Zm.32,8.58c-.31-.98.02-1.14,1.03-.48.69.45.78.64.42.87-.74.47-1.22.34-1.46-.39Zm.73,3.79c-.45-.45-.22-.83.44-.72.37.06.68.25.68.44,0,.4-.8.61-1.12.29Zm-.56-6.07c-.37-.23-.4-.41-.12-.68.28-.28.64-.23,1.41.16.57.29,1.03.6,1.03.69,0,.28-1.81.15-2.31-.17Zm2.66-1.37c-.21.33-.33.34-.51.04-.13-.22-.1-.54.09-.72.43-.43.77.12.43.68Zm.29-4.58c.58-.37,1.01-.16,1.01.49,0,.56-.3.6-.99.14-.43-.28-.43-.36-.02-.63Zm.35,11.73c-.33-.4-.31-.53.11-.69.65-.25,1.21.08,1.21.71s-.8.61-1.32-.02Zm2.41-3.72c-.32.09-.85.28-1.17.41-.44.18-.58.08-.58-.42,0-.86.88-1.18,1.69-.61.61.43.61.47.06.63Zm-.06-6.83c-.27-.33-.29-.55-.05-.7.51-.31,1.73.15,1.57.6-.2.59-1.08.64-1.53.1Zm1.43,4.91c.68-.52,1.06-.43.7.15-.12.2-.47.35-.78.34-.49,0-.48-.07.08-.49Z"/>
          <path class="cls-1" d="m122.9,219.64c-1.67.53-6.33,2.21-7.34,2.64-2.9,1.25-14.92,3.8-21.15,4.51-4.03.45-15.7.99-21.67.99-4.63,0-5.22-.08-14.18-2.03-1.88-.41-1.96-.4-2.56.35-.34.43-.63.94-.63,1.15,0,.41,5.36,1.98,9.26,2.7,2.58.48,2.7.48,20.18-.14,5-.18,9.69-.41,10.42-.53.73-.11,2.37-.35,3.64-.54,6.53-.93,14.48-2.95,18.69-4.75,1-.43,2.94-1.18,4.3-1.68,1.36-.5,2.53-.94,2.59-.99.06-.05-.15-.48-.47-.97-.36-.54-.78-.81-1.1-.71Z"/>
          <circle class="cls-1" cx="94.91" cy="89.33" r=".5"/>
          <path class="cls-1" d="m100.85,112.33c-3.37,2.05-3.26,1.89-2.42,3.27.4.66,1.24,2.16,1.87,3.34,1.7,3.18,1.61,3.12,3.08,1.96.7-.56,1.37-1.15,1.48-1.33.11-.17.34-.22.52-.11.19.11,1.07-.29,1.96-.9,1.94-1.32,2.16-2.3.66-2.92-1.01-.42-3-2.24-4.17-3.81l-.67-.91-2.3,1.4Zm-1.27,3.99c-.58-.21-.59-.25-.06-.78.66-.66,1.18-.72,1.17-.15,0,.76-.48,1.15-1.11.93Zm2.47,2.3c-.18,0-.42-.16-.54-.34-.31-.5.53-1.42.93-1.02.37.37.08,1.36-.4,1.36Zm3.59-2.67c.39.25.4.39.04.82-.55.67-.89.66-1.14,0-.36-.95.21-1.38,1.11-.82Zm-1.93-2.39c.38.38.14,1.09-.37,1.09-.16,0-.39-.16-.51-.36-.34-.55.42-1.18.88-.73Z"/>
          <path class="cls-1" d="m115.58,152.03c0-1.06-2.06-3.94-4.94-6.92-1.65-1.71-3-3-3-2.87,0,.31,4.35,13.35,5.27,15.79l.7,1.86,1.02-.95c.56-.52,1.59-1.12,2.31-1.34.71-.21,1.29-.42,1.29-.46,0-.04-.6-1.1-1.32-2.34-.73-1.25-1.32-2.49-1.33-2.77Z"/>
          <path class="cls-1" d="m126.25,151.4c-3.43-2.35-4.62-3.52-6.25-6.16-2.31-3.74-7.16-12.24-9.8-17.19-1.46-2.73-2.88-5.22-3.15-5.54-.72-.83-1.64-.71-2.89.37-.6.53-1.28,1.02-1.52,1.1-.35.12-.35.4,0,1.61.78,2.67,3.39,8.53,4.65,10.47,1.06,1.62,5.56,7.47,9.34,12.13.61.75,1.22,2.03,1.47,3.1.43,1.87,1.4,3.23,2.53,3.59.35.11,1.49,1.01,2.51,1.99,1.03.98,2.14,1.87,2.48,1.98,1.08.36,1.33-.33.75-2.04-.82-2.42-.7-2.56,1.13-1.25,1.53,1.1,1.63,1.24,1.16,1.76-.28.31-.51.8-.51,1.09s-.37,1.61-.81,2.93c-.62,1.81-.72,2.52-.45,2.86.62.75.92.35,1.94-2.54,1.1-3.14,1.35-3.5,2.18-3.18.47.18.5.28.15.5-.24.15-.93,1.56-1.52,3.12-.93,2.48-1,2.85-.51,2.85.31,0,.73-.33.95-.74.21-.41.59-1.34.83-2.07.28-.82.68-1.37,1.08-1.44,1.15-.21,1.16-.6.1-2.56-1.98-3.65-2.89-4.69-5.84-6.72Z"/>
          <path class="cls-1" d="m122.63,159.25c-.55.34-.92,2.04-.44,2.04.21,0,.29.15.18.33-.27.44.17,1.13.49.77.14-.15.33-.91.43-1.68.18-1.45,0-1.87-.66-1.46Z"/>
          <path class="cls-1" d="m20.05,208.59c-.77-.03-4.79-2.36-4.96-2.88-.17-.49.39-.31,3.59,1.2,1.2.57,2.32,1.03,2.48,1.03.31,0,2.45-4.06,2.45-4.66,0-.19-.14-.26-.3-.16-.17.1-.68.04-1.15-.14-.58-.22-.78-.49-.65-.85.23-.61,1.65-.52,1.52.1-.13.66.85.47,1.23-.23.53-.99.42-1.25-.63-1.46-.54-.11-1.69-.66-2.56-1.22l-1.59-1.03,1.21.17c.91.12,1.27.03,1.42-.35.11-.28.29-.43.4-.31.11.11.02.43-.21.7-.35.42-.26.56.51.85,1.86.71,2.14.59,2.85-1.17.8-2,.52-2.7-1.01-2.54-1.12.12-1.34-.27-.54-.94.41-.34.61-.31,1.1.13.76.69,1.57.69,1.84,0,.11-.3.17-.58.12-.63-.05-.04-1.9-.99-4.12-2.09l-4.03-2.01-1.46,2.72c-5.08,9.47-5.67,11.2-4.04,11.82.99.37,1.14,1.13.17.83-.54-.17-.66-.06-.66.61,0,.45-.08,1.03-.18,1.28-.13.32.83.91,3.23,1.99,3.85,1.73,4.08,1.78,4.36,1.06.38-.99.21-1.79-.38-1.81Zm1.55-15.01c.5-.6.67-.63,1.32-.21.39.25.4.39.04.82-.5.6-.67.63-1.32.21-.39-.25-.4-.39-.04-.82Zm-4.09,7.2c-.26.1-.63-.01-.83-.25-.26-.32-.22-.55.17-.87.44-.36.58-.36.83.04.42.66.38.87-.16,1.08Zm1.05,3.96c-.75-.2-.74-.66.04-1.07.71-.38,1.04-.17,1.04.69,0,.62-.07.64-1.08.38Zm1.86.33c.27-.27,1.2.15,1.2.55,0,.45-.89.44-1.17-.01-.12-.19-.14-.43-.03-.54Zm-.53-12.94c.32.06.58.39.58.74,0,.66-.54,1.03-.93.64-.49-.49-.23-1.49.35-1.38Zm-.46,8.54c.91,0,1.05.21.6.92-.21.32-.41.26-.87-.25-.59-.66-.59-.67.27-.67Zm-1.94-3.77c1.23.27,1.49.41,1.49.81,0,.53-.88.34-1.7-.36l-.78-.67.99.22Zm-3.23,4.77c.59.04,2.53,1.18,2.65,1.56.18.56-.2.5-1.66-.27-1.1-.58-1.68-1.33-.99-1.28Z"/>
          <path class="cls-1" d="m50.42,225.82c-.26-.16-2.93-.76-5.95-1.33-7.71-1.47-12.74-2.78-16.66-4.35-1.86-.74-3.58-1.43-3.83-1.53-.31-.13-.26.12.17.78.93,1.44,1.55,2.12,1.94,2.12.19,0,1.61.53,3.15,1.18,3.83,1.62,7.55,2.65,12.42,3.47,2.26.38,4.74.88,5.52,1.13,1.97.62,2.02.61,2.91-.33.65-.69.71-.9.33-1.13Z"/>
          <path class="cls-1" d="m125.77,160.02c-.1.28-.31.28-.81.01-1.12-.6-1.48.41-.72,2.07.58,1.28,1.27,1.07,1.29-.4.02-1.1.06-1.15.33-.48.4,1,.98.63.98-.62,0-.96-.79-1.41-1.06-.6Z"/>
        </g>
        <g>
          <path d="m50.08,210.11c0-.66-.43-.86-1.01-.49-.42.27-.42.35.02.63.69.46.99.42.99-.14Z"/>
          <path d="m51.77,217c-.82-.57-1.69-.25-1.69.61,0,.5.14.61.58.42.32-.13.85-.31,1.17-.41.56-.16.55-.2-.06-.63Z"/>
          <path d="m48.35,213.51c-.18.18-.22.51-.09.72.19.3.31.29.51-.04.35-.56,0-1.12-.43-.68Z"/>
          <path d="m47.39,215.04c-.77-.39-1.13-.44-1.41-.16-.27.27-.24.45.12.68.5.32,2.31.45,2.31.17,0-.09-.46-.4-1.03-.69Z"/>
          <path d="m46.25,208.81c-.99-.38-1.23-.2-.64.46.33.36.72.66.88.66.5,0,.3-.92-.24-1.12Z"/>
          <path d="m44.14,220.42c-.75-.2-.76-.19-.47.58.22.57.83.54,1.03-.05.06-.19-.19-.43-.56-.53Z"/>
          <path d="m42.3,219.19c-.25,0-.55.15-.66.33-.12.19.17.33.66.33s.78-.14.66-.33c-.11-.18-.41-.33-.66-.33Z"/>
          <path d="m40.85,213.26c-.46-.25-.73-.22-1.01.12-.29.35-.27.5.05.63,1.35.54,2.17-.1.96-.75Z"/>
          <path d="m44.93,212.62c-.32.06-.66.32-.74.56-.1.28.06.4.44.33.32-.06.66-.32.74-.56.1-.28-.06-.4-.44-.33Z"/>
          <path d="m47.11,220.91c-.67-.1-.9.27-.44.72.32.32,1.13.12,1.12-.29,0-.18-.31-.38-.68-.44Z"/>
          <path d="m47.39,218.23c.36-.23.27-.41-.42-.87-1.01-.66-1.35-.5-1.03.48.23.73.71.86,1.46.39Z"/>
          <path d="m53.29,210.7c.15-.45-1.07-.91-1.57-.6-.24.15-.22.37.05.7.45.54,1.33.49,1.53-.1Z"/>
          <path d="m39.74,215.61c-.97-.11-1.16.22-.5.88.53.53,1.41.35,1.41-.28,0-.29-.37-.54-.91-.6Z"/>
          <path d="m16.85,199.66c-.39.32-.43.55-.17.87.2.24.57.35.83.25.55-.21.58-.42.16-1.08-.25-.39-.39-.4-.83-.04Z"/>
          <path d="m18.98,197.71c0-.4-.26-.54-1.49-.81l-.99-.22.78.67c.82.7,1.7.89,1.7.36Z"/>
          <path d="m14.26,201.67c-.68-.04-.11.7.99,1.28,1.46.77,1.84.83,1.66.27-.12-.38-2.06-1.52-2.65-1.56Z"/>
          <path d="m38.3,55.81c-.18-1.13-.1-1.33.74-1.89.52-.34,1.5-.63,2.19-.64,1.08-.01,1.17-.07.68-.43-1.64-1.21-4.41.45-4.41,2.65,0,.62.1,1.23.22,1.35.54.54.76.13.58-1.04Z"/>
          <path d="m134.14,159.16c-.17-.1-.91-1.3-1.66-2.66-1.76-3.2-2.83-4.39-5.92-6.57-1.4-.98-2.93-2.22-3.4-2.74-1.69-1.86-7.12-11.17-11.9-20.41l-2.88-5.56.82-.82c.67-.67.74-.91.41-1.31-.46-.55-.48-.53.78-1.07.51-.22.84-.54.73-.72-.11-.18.05-.7.36-1.16.69-1.05.56-1.18-1.3-1.33-.82-.06-1.91-.33-2.43-.61-1.46-.76-3.3-3.21-3.55-4.69-.34-2.05-.33-2.14.28-5.09.8-3.81.56-6.11-.96-9.11-.65-1.29-1.18-2.47-1.18-2.63,0-.16.59-.93,1.3-1.7.71-.78,1.45-1.99,1.62-2.68.6-2.35,1.1-4.23,1.72-6.4,1.19-4.19.66-8.43-1.68-13.4-2.08-4.42-3.7-6.79-5.65-8.27-1.69-1.29-1.81-1.33-4.72-1.42-1.64-.05-3.17-.25-3.39-.43-.22-.19-.51-.93-.63-1.66-.17-1.01-.48-1.48-1.27-1.97-.57-.35-1.29-.55-1.59-.46-.72.23-1.1-.92-.6-1.85.35-.66.54-.68,3.29-.47,2.71.21,2.98.18,3.94-.53.7-.52,1.09-1.13,1.21-1.94.22-1.44,1.86-5.69,3.35-8.7,1.32-2.66,1.36-3.5.26-5.85l-.83-1.79.69-.73c.49-.52.63-.97.48-1.57-.12-.46-.07-1.11.12-1.45.21-.38.23-2.26.07-5.09-.2-3.48-.41-4.77-.93-5.8-.59-1.16-.62-1.42-.22-2.14.67-1.21.57-2.88-.26-4.36-.78-1.39-1.69-2.01-3.5-2.4-1-.22-1.08-.32-.89-1.17.22-.99-.34-4.68-.84-5.58-.17-.3-.52-1.11-.8-1.8-.46-1.16-.55-1.23-1.24-.86-1.4.75-4.09,3.78-5.07,5.71l-.99,1.94-4.14-.21c-6.48-.33-10.35.37-13.46,2.45-3.51,2.34-5.76,6.24-6.51,11.29-.33,2.19-.53,2.66-1.61,3.8-2.46,2.59-2.88,6.1-1.1,9.3.47.83.85,1.56.85,1.6s-.3.16-.66.26c-.36.09-.92.65-1.24,1.23s-1.07,1.65-1.66,2.38c-1.18,1.45-1.38,3.02-.72,5.85.18.8.28,1.5.22,1.56-.06.06-.81-.24-1.66-.67-4.26-2.16-8.63-1.01-10.02,2.65-.47,1.23-.5,1.71-.19,2.76.61,2.03.53,2.39-.47,2.01-1.39-.53-2.12-.38-3.15.64-1.1,1.11-1.19,1.85-.42,3.59l.54,1.23.25-1.09c.37-1.62.54-1.58.78.17.14.97.09,1.62-.12,1.69-.45.15-.42.95.05,1.24.21.13.57-.02.8-.34.34-.46.55-.5,1.11-.2.38.2.69.57.69.83,0,.47-2.74,3.03-5.96,5.56-1,.79-2.3,2.15-2.89,3.03-1.01,1.5-1.08,1.77-1.08,4.5,0,2,.22,3.61.69,5.17.73,2.4,2.58,6.01,3.43,6.73.7.58.65.78-.4,1.41-1.3.78-3.41,2.92-3.74,3.79-.18.47-.1,1.37.22,2.49.97,3.4,1.03,3.11-.82,4.05-2.26,1.14-2.84,2.28-2.56,5.02.13,1.24.08,2.15-.12,2.27-.18.11-.78,1.12-1.33,2.26-.55,1.13-1.87,3.1-2.92,4.37-1.8,2.17-2.04,2.35-3.97,2.81-1.97.47-2.59,1.05-1.56,1.44.26.1.88.82,1.38,1.6.49.78,1.11,1.58,1.37,1.77.4.3.27.77-.84,2.98-.72,1.45-2.98,6.82-5.02,11.95-2.03,5.12-4.12,9.9-4.63,10.6-.66.91-2.27,2.07-5.54,4.01-2.54,1.5-5.01,3.09-5.5,3.54-1.38,1.28-2.1,5.04-1.42,7.43.03.1.04.18.05.27,0,0,0,0,0,0,.03.05.05.11.07.17.06.11.12.22.16.33.21.55.5,1.08.83,1.59l.37.54c.2.28.42.54.63.8.12.07.23.16.32.25h0s1,.99,1,.99c1.4,1.4,2.61,1.34,3.97-.2.98-1.1,1.11-1.16,1.63-.68.44.4.72.43,1.21.16.35-.2,1.1-.34,1.65-.33.56.02,1.67-.29,2.46-.69,1.29-.64,1.64-1.09,3.06-3.87,1.36-2.66,1.7-3.73,2.25-7,.86-5.23,1.5-6.38,9.36-16.95,2.18-2.93,4.56-6.34,5.3-7.58l1.34-2.25.72.68c.95.89,1.46.85,1.83-.15.26-.67.48-.79,1.23-.65,1.7.31,1.84-.08,1.24-3.35-.59-3.26-.57-3.37,1.26-6.34.66-1.07,1.52-1.97,2.23-2.32,1.02-.51,1.2-.81,1.61-2.58.37-1.63.63-2.08,1.33-2.39.99-.44,2.01-1.97,2.01-3.01,0-.44.47-.99,1.31-1.52,1.56-.99,2.26-1.97,3.01-4.26.49-1.47.77-1.81,2.12-2.52,1.35-.71,1.6-.76,1.87-.33,3.56,5.71,6.74,11.91,7.06,13.73.17.94.07,1.05-1.85,1.97-6.01,2.91-13.15,12.62-25.45,34.59-3.95,7.05-5.28,9.41-6.28,10.87-.16.47-.32.94-.46,1.41-.03.15-.07.31-.15.46-.24.75-.48,1.49-.77,2.22,0,.05,0,.11-.04.18-.03.06-.08.14-.12.23-.09.21-.19.4-.3.59-2,3.93-8.82,18.27-10.86,22.89l-.85,1.92-.03-.03c-.08.23-.18.44-.31.64,0,0,0,0,0,0,0,.11-.72,1.53-1.6,3.15-.76,1.39-1.55,2.59-1.92,2.92-.14.36-.31.72-.49,1.08,0,0,0,0,0,0,.08.05-.21.83-.63,1.73-.39.82-.78,1.97-.94,2.7.02,1.31-.18,2.62-.16,3.94,0,.08,0,.16,0,.24.01.14.01.33,0,.58,0,.79-.05,1.56-.2,2.34-.08.51-.18.93-.34,1.33-.3.92-.7,1.79-1.17,2.64.48.16.95.33,1.41.52.39-.14.57-.07.47.2.55.25,1.07.53,1.55.85.52.17,1.52.54,2.61.97,2.58,1.03,2.73,1.13,2.55,1.94-.21.98.15,1.36,2.45,2.63.99.55,1.49,1.03,1.43,1.38-.12.72,1.6,1.99,4.06,2.99,2.05.84,4.21,1.65,5.9,2.23,2.31.21,4.51.95,6.77,1.49,2.89.7,5.91.9,8.86,1.24,2.61.3,5.23.55,7.83.97,1.66.27,3.35.71,4.71,1.69,5.09,1.41,10.2,1.83,14.58,1.22,3.12-.44,13.73-.46,16.43-.1,1.62-.24,3.27-.27,4.91-.32.02,0,.03,0,.05,0,.39-.07.78-.14,1.18-.2.92-.15,1.95-.41,2.91-.35,1.15-.26,2.29-.52,3.44-.77,2.51-.55,5.05-1.04,7.53-1.71,1.06-.29,2.08-.66,3.11-1.03.1-.09.22-.13.37-.13.51-.18,1.02-.36,1.54-.52,2.6-1,7.76-3.15,8.84-3.74.34-.18.89-.42,1.23-.53.51-.16.58-.4.4-1.43-.12-.68-.29-1.48-.38-1.78-.11-.38.12-.61.76-.77,1.87-.46,3.75-1.62,3.95-2.44.21-.82-.29-2.75-1.71-6.68-1.12-3.12-2.95-8.84-4.27-13.4-1.87-6.42-7.62-24.73-9.46-30.08l-1.69-4.94,1.13-1.09c1.37-1.33,2.46-1.78,4.37-1.78,1.6,0,2.07.37,1.3,1.01-.34.28-.39.49-.15.64.53.33,0,1.38-.62,1.24-.29-.07-.5-.29-.45-.51.05-.22-.22-.39-.59-.39-.57,0-.62-.1-.32-.66.3-.56.25-.66-.3-.66-.81,0-2.34.67-2.34,1.03,0,.4,1.39,1.61,1.84,1.61.22,0,.56.21.77.46.21.25,1.46.78,2.77,1.18,2.67.81,2.58.77,4.54,2.25,1.86,1.4,3.22,1.43,4.75.08l.46-.4c.04-1.48.43-3.03,1.55-4.03.32-.29.69-.47,1.06-.56.12-.34.24-.67.36-1.01,0,0,0,0,0-.01-.05-.21-.13-.36-.21-.41Zm-30.32-47.33c1.17,1.57,3.16,3.39,4.17,3.81,1.5.62,1.28,1.6-.66,2.92-.89.61-1.78,1.02-1.96.9-.18-.11-.42-.07-.52.11-.11.17-.77.77-1.48,1.33-1.47,1.16-1.38,1.22-3.08-1.96-.63-1.18-1.47-2.69-1.87-3.34-.84-1.38-.96-1.22,2.42-3.27l2.3-1.4.67.91Zm-10.43-9.92c-.89.81-.75,2.26.23,2.41.45.06.92-.19,1.26-.66.53-.73.54-.69.32,1.22-.13,1.09-.29,2.09-.37,2.23-.08.14-.73.22-1.46.2-.72-.03-1.49.12-1.7.33-.22.22-1.16.39-2.1.39h-1.71l-.17-5.87c-.09-3.23-.37-7.44-.62-9.35-.4-3.15-.63-3.85-2.44-7.5l-1.99-4.03,2.48-.2c1.36-.11,3.41-.29,4.55-.4,1.42-.14,2.07-.08,2.07.17,0,.21.3.37.66.37.72,0,.92-.84.25-1.09-.31-.11-.32-.25-.04-.55.57-.61,2.19.37,2.65,1.61.22.58.25,1.03.08,1.03s-.48.37-.69.83c-.32.71-.27.95.4,1.65.85.91,1.61,1.04,2.29.41.36-.34.4.18.24,3.06-.11,1.91-.36,4.29-.56,5.29-.2,1-.57,3.36-.82,5.25-.25,1.89-.54,3.52-.64,3.61-.1.09-.47-.1-.84-.43-.64-.58-.69-.58-1.34,0Zm.68.61c0,.27-.15.59-.33.7-.18.11-.33-.02-.33-.29s.15-.59.33-.7c.18-.11.33.02.33.29Zm24.67,111.26c.31.12.9-.17,1.49-.73.53-.51,1.04-.86,1.12-.78s.33.89.55,1.8c.22.9.62,2.11.9,2.68.27.57.42,1.24.32,1.5-.1.26-1.35.82-2.78,1.26-1.43.43-3.27,1.08-4.09,1.43-2.24.96-6.43,2.02-13.23,3.34-6.75,1.3-10.7,1.79-16.69,2.06q-16.4.74-20.7-.07c-2.42-.46-6.8-1.51-8.21-1.97-.33-.11-.25-.46.31-1.48.48-.86.92-1.27,1.22-1.16.32.12.4.02.26-.34-.16-.42.18-1.52.64-2.07.05-.06.72.22,1.49.61,1.14.59,1.55.65,2.21.35.67-.3.95-.25,1.65.3.83.66,2.08.9,2.08.41,0-.39-2.31-1.11-4.11-1.28-.89-.09-1.97-.34-2.39-.56l-.76-.4,1.3-2.06c.9-1.42,1.52-2.06,1.98-2.06.79,0,.89-.51.18-.91-.43-.24-.43-.37-.04-.93.45-.64.56-.65,4.55-.17,3.69.44,4.91.43,12.52-.1,15.02-1.04,17.78-1.41,26.96-3.72,3.78-.95,9.17-2.65,10.5-3.33.88-.44.92-.42,1.43.79.73,1.73,1.9,5.41,1.76,5.5-1.11.75-2.01,1.2-2.42,1.2-.67,0-.66.63,0,.88Zm-.07-9.76c-.2.37-7.27,2.58-12.52,3.91-6.11,1.55-10.02,2.23-15.38,2.66-2.28.19-6.45.56-9.26.82-2.82.27-6.54.47-8.27.44-3.38-.05-8.25-.49-8.53-.77-.09-.09.36-1.34,1.02-2.77,5.21-11.39,9.22-25.41,11.18-39.09.5-3.51.8-2.86,1.1,2.47.58,10.11,1.91,21.45,3.01,25.64l.48,1.82-.15-1.82c-.08-1-.31-3.83-.51-6.29-.55-6.67-.84-21.96-.92-47.64-.07-21.18-.17-26.01-.58-28.04-.12-.57,0-.74.5-.74.36,0,.72.12.81.26.25.41,1.82,8.25,2.19,10.99.66,4.84,2.48,13.45,2.6,12.25.13-1.39-.45-6.74-1.16-10.6-.56-3.03-2.33-11.38-2.62-12.32-.11-.36,0-.58.29-.58.52,0,.76.71,2.12,6.29.63,2.58.96,3.48,1.03,2.81.1-1.05-.96-7.53-1.4-8.52-.2-.45-.1-.58.43-.58.57,0,.84.51,1.65,3.06,1.41,4.43,1.62,6.24,2.54,21.26.45,7.46,1.06,15.2,1.35,17.2,1.06,7.35,3.47,16.61,5.76,22.12,1.43,3.42,4.15,8.11,5.51,9.47l1.16,1.16-1.04-1.56c-4.97-7.48-8.79-22.66-9.77-38.8-.22-3.7-1.01-10.72-2.17-19.36-.88-6.57-1.21-8.34-2.15-11.43q-.94-3.12-.33-3.13c.71,0,3.3,5.05,4.42,8.6.55,1.73,1.54,5.6,2.21,8.6,2.05,9.15,3.42,14.56,4.63,18.2,1.22,3.71,1.49,3.84.66.33-.28-1.18-1.47-6.91-2.65-12.74-2.58-12.82-2.36-11.93-4.26-17.2-2.02-5.61-1.98-5.46-1.52-5.46.99,0,4.11,8.18,6.75,17.7.8,2.91,2.14,7.45,2.96,10.09.82,2.64,2.62,8.67,3.99,13.4,1.37,4.73,4.23,13.96,6.34,20.51,2.12,6.55,4.38,13.62,5.02,15.72.64,2.09,1.72,5.52,2.4,7.61s1.18,3.9,1.11,4.03ZM62.29,45.29c.3.37.31.66.04,1.17-.44.82-1.93.92-2.22.14-.47-1.23,1.35-2.32,2.18-1.31Zm-1.59-6.24c.35-1.25.39-1.28.85-.66.33.44.44,1.16.34,2.24-.14,1.54-.86,2.8-1.33,2.33-.34-.35-.27-2.44.14-3.91Zm.34,16.65c.97-.91,1.01-1.04.79-2.77l-.23-1.82,1.03-.21c.56-.11,1.41-.67,1.88-1.23.77-.91.84-1.22.68-2.93-.17-1.86-.15-1.92.7-2.13.48-.12,1.52-.5,2.29-.84,1.87-.83,2.19-.57,1.97,1.58-.23,2.23-.71,3.13-1.68,3.13-1.66,0-2.72,2.39-1.99,4.49.25.71.46,1.32.46,1.34,0,.02-.42.13-.95.23-.53.1-1.97.96-3.2,1.89-1.23.94-2.6,1.84-3.04,2-.86.33-1.03.33-1.66.08-.71-.29-.46-.72.75-1.3.65-.3,1.63-.98,2.19-1.51Zm9.21-32.56c-.44-.54-.44-.58,0-.34.27.15-.05-.2-.72-.76-1.44-1.23-1.81-2.51-1.17-4.05l.46-1.12.4,1.21c.4,1.21,2.84,3.78,4.36,4.59.44.23,1.74.44,2.88.46,1.14.02,2.07.07,2.07.13,0,.05-.63.39-1.41.74-2.39,1.09-5.62.68-6.87-.85Zm4.3,3.52c0,.16-.19.27-.41.24s-1.08-.14-1.9-.25l-1.49-.2,1.11-.24c1.21-.26,2.7-.02,2.7.45Zm-4.04,1.12c1.57.45,3.31.83,3.86.84.81,0,.9.07.45.33-1.1.64-3.37.65-5.1.02-1.48-.54-1.83-.56-2.96-.18-1.5.52-1.66.45-1.15-.51.7-1.3,1.77-1.42,4.9-.51Zm-1.42,3.27c-2.49,1.28-2.81,1.38-2.81.88,0-.47,2.29-1.56,3.82-1.84,1.19-.21,1.1-.12-1.01.96Zm-1.35,5.83c.61,0,.5.91-.19,1.54-.75.68-3.73,1.02-4.07.47-.13-.22-.19-.43-.13-.48.32-.23,4.04-1.53,4.39-1.53Zm17.55,33.28c-.12-.8-.12-2.08.01-2.83l.23-1.37,2.14,5.23c1.18,2.88,2.22,5.47,2.31,5.76.14.45-.31.56-3.09.74-1.79.11-3.87.3-4.63.42-1.2.19-1.43.12-1.82-.54-1.74-2.97-6.08-9.26-8.22-11.9-2.45-3.03-6.97-7.01-8.8-7.77-.82-.34-.81-.35.92-1.4,3-1.8,3.06-1.79,6.06,1.08,1.46,1.39,3.42,3.23,4.36,4.07,1.03.92,1.99,2.17,2.39,3.11.72,1.68,1.37,1.96,2.53,1.08.87-.66,1.14-.63,1.14.16,0,1.02.44.8,1.65-.82.61-.82,1.17-1.43,1.24-1.36.07.07-.04,1.36-.25,2.88-.32,2.32-.3,2.81.1,3.1.26.19.58.68.71,1.09.13.41.46.74.73.74.4,0,.45-.29.27-1.46Zm6.27.14c.45,1.55,1.24,4.12,1.77,5.71.52,1.59.84,2.89.7,2.89-.38,0-.48-.25-1.96-4.65-.76-2.26-2.25-6.26-3.32-8.9-1.07-2.63-1.88-4.84-1.81-4.91.44-.44,3.57,6.23,4.62,9.85Zm-2.86-12.37c1.04-.53,1.08-.52,1.08.12,0,.55-.22.67-1.21.67-1.36,0-1.36-.03.14-.79Zm3.04,18.42c.53,1.64.29,2.29-.43,1.19-1.07-1.63-4.87-11.7-5.04-13.35q-.17-1.65.36-.73c.54.94,4.39,10.66,5.11,12.89Zm-10.32,4.04c-1.52.15-1.9.1-1.9-.28,0-.55.73-.73,4.8-1.18,5.25-.59,8.23-.35,7.31.57-.11.11-2.02.32-4.25.46s-4.9.34-5.95.44Zm2.37,4.61c1.26,2.58,1.76,4.06,2.16,6.49.73,4.42,1.18,9.44,1.18,13.25,0,1.81-.15,3.34-.33,3.46-.2.13-.33-.36-.34-1.22,0-3.14-.69-11.52-1.16-14.29-.58-3.41-1.93-6.84-3.78-9.62-.93-1.39-1.2-2.04-.92-2.22.66-.41,1.49.66,3.19,4.15Zm-7.29-9.61c-5.57-8.42-8.77-12.07-12.82-14.67-1.28-.82-2.33-1.6-2.34-1.74-.05-.58,1.63-.18,2.98.72,4.61,3.06,8.06,7.09,13.99,16.32,1.03,1.6,1.87,2.96,1.87,3.03s-.21.2-.46.3c-.32.12-1.35-1.16-3.21-3.97Zm4.63-12.49c-2.3,1.89-2.94,2.15-2.94,1.23,0-.31-2.38-2.88-5.28-5.71-2.9-2.83-5.3-5.37-5.33-5.64-.11-.97.04-2.16.32-2.61.23-.35.73-.02,2.2,1.42,2.08,2.05,5.38,4.16,8.15,5.2.97.37,1.91.79,2.09.94.18.15,1.2.5,2.27.77,1.06.28,2.02.59,2.12.69.26.26-1.02,1.58-3.6,3.69Zm-19.48-2.68c4.75,2.46,6.8,4.88,16.42,19.49,1.07,1.62,2.44,3.69,3.06,4.6,1.43,2.11,2.87,6.27,3.34,9.66.21,1.46.46,5.26.57,8.47.17,5.16.13,5.84-.34,6.02-.29.11-.61.09-.69-.06-.09-.14-.39-2.7-.67-5.69-.93-9.83-1.93-14.26-3.92-17.51-5.7-9.27-8.52-13.78-9.93-15.88-2.01-2.99-5.74-6.94-8-8.48-1.68-1.14-1.58-1.52.16-.62Zm29.44,49.05c0,.14-.26.58-.58.98-.56.72-.75.74-8.68.83-8.74.1-14.4-.19-15.11-.78-.24-.2-.44-.66-.44-1.01,0-.53.14-.6.74-.37.41.15,5.99.23,12.41.19,6.42-.04,11.66.03,11.66.17Zm-12.35,2.56c11.16,0,11.47.02,11.72.66.14.36.27.77.28.91.01.14-3.59.22-8,.2-10.87-.07-15.47-.48-15.47-1.39,0-.27,3.09-.38,11.46-.38Zm9.11,3.06c-.07-.14.03-.25.2-.25s.65.76,1.05,1.69c1.28,2.98.34,1.89-1.24-1.44Zm6.89-5.05c-.2-.12-.33.25-.33.91,0,2.24-1.53,2.93-2.38,1.08-.87-1.91,1.76-4.53,2.95-2.94.63.84.38,3.57-.41,4.44-1.41,1.55-3.51.33-3.43-1.98l.04-1.17.21,1.07c.23,1.22,1.13,2.41,1.83,2.41,1.19,0,2.47-3.21,1.52-3.8Zm3-30.6c-1.42-.11-2.18-.32-2.28-.63-.13-.38.24-.43,2.09-.25,1.23.12,2.31.28,2.4.36.48.48-.33.67-2.21.53Zm.75-8.23c-2.4-5.5-2.32-5.29-1.67-4.68.47.45,1.9,2.97,3.59,6.35.34.67.78,1.99.98,2.93.46,2.16-.07,2.92-.66.95-.23-.75-1.23-3.25-2.23-5.55Zm-2.09,12.22c.45.83,0,1.5-.61.9-.48-.48-.52-1.14-.08-1.41.17-.11.48.12.69.51Zm-.18,18.74c1.62-9.24,1.89-11.54,1.77-15.04-.11-3.37-.19-3.69-1.03-4.69-1.12-1.33-1.16-2.02-.12-2.02,2.56,0,2.83,9.33.52,18.15-.35,1.34-.73,3.17-.85,4.06-.12.89-.33,1.69-.46,1.78-.14.08-.06-.93.17-2.24Zm1.14.02c1.99-7.69,2.9-16.24,2.03-19.08-.19-.62-.57-1.47-.86-1.9-.5-.77-.49-.79.44-.79.53,0,1.13.2,1.33.45.69.83,1.36,3.67,1.36,5.78,0,2.16-1.96,10.41-4.01,16.88-1.54,4.85-1.56,4.91-1.59,4.29-.01-.31.56-2.84,1.28-5.62Zm3.18,8.07c1.84-.91,2.13-.97,2.13-.47,0,.32-.63.96-1.41,1.45-2.81,1.74-3.31,1.85-3,.66.08-.32,1.11-1.06,2.28-1.63Zm1.91-14.12l.51,1.16c.63,1.46.69,6.62.09,8.36-.29.83-.91,1.57-1.87,2.23-.79.54-1.53.99-1.63.99-.46,0-.1-1.25.95-3.32.94-1.84,1.21-2.87,1.55-5.83l.41-3.59Zm-2.02-32.65c1.22,1.35,3.78,6.08,4.51,8.33,1.16,3.59,1,7.83-.4,10.5-.31.59-.61,1.08-.67,1.08s-.2-2.27-.3-5.05c-.22-6.08-.71-7.97-2.47-9.58-.68-.63-1.91-1.87-2.73-2.77-.82-.9-1.58-1.6-1.7-1.56-.26.09-1.27-2.35-1.27-3.06,0-1.23,3.26.12,5.04,2.1Zm-1.07,14.01c0,.15-1.04.27-2.3.27h-2.3l-.84-2.66c-.46-1.47-.84-2.95-.84-3.31,0-.63.02-.63,1.08.02.59.36,1.26.66,1.49.66,1.02,0-.09-2.73-2.03-5.02-.57-.67-1.31-1.69-1.65-2.28l-.63-1.07,1.25.23c.68.13,1.5.39,1.81.59.73.46,4.98,11.17,4.98,12.56Zm-6.62-17.31c.51.14,1.06.7,1.45,1.49.74,1.53.46,1.87-1.24,1.49-1.53-.34-5.68-3.2-5.26-3.62.27-.27,2.94.07,5.06.64Zm-3.32-4.58c.83,0,.21,1.03-1.27,2.12-1.85,1.36-1.72,1.32-2.46.77-.47-.34-.52-.71-.33-2.07l.24-1.65.37,1.65c.32,1.43.41,1.55.63.88.23-.69,1.91-1.71,2.83-1.71Zm4.71-12.24c-1.77-.42-1.67-.71.19-.6.95.06,1.68.24,1.63.41-.15.44-.57.48-1.82.19Zm-.15-27.22q-.17-1.41.27-.41c.24.55.45,1.21.47,1.49.02.34.27.22.82-.4.53-.61.87-1.51,1.02-2.76.16-1.23.33-1.71.52-1.42.48.75.33,1.75-.5,3.39l-.79,1.57.81.31c1.19.45,1.82,2.33,2.11,6.26l.25,3.47-1.15,1.74c-1.56,2.36-1.56,3.53,0,5.8.67.98,1.22,2.1,1.22,2.49,0,.61-.19.72-1.22.72-.67,0-1.72.18-2.33.4-.89.32-1.25.31-1.8-.03-.52-.32-.78-.33-1.06-.05-.21.21-.22.33-.04.28s1.05.17,1.93.51c1.58.61,1.6.61,2.34-.09.76-.71,1.53-.92,1.53-.42,0,.16-.16.73-.35,1.28-.32.92-.5,1.01-2.37,1.21-1.11.12-2.59.21-3.3.21h-1.28l.55-1.08.54-1.08-.95.87c-.52.48-1.28.97-1.69,1.1-.8.24-1.02,1.56-.41,2.49.26.4.32.36.32-.23,0-1.25.67-1.2,1.93.15,1.35,1.45,2.34,2.06,3.31,2.06.57,0,.63.18.48,1.57-.29,2.85-.63,3.21-2.99,3.33-4.04.19-8.05-1.11-11.44-3.71-.88-.67-1.67-1.16-1.75-1.08-.08.08.81,1.54,1.97,3.25,2.92,4.29,3.27,5.03,3.12,6.76-.07.8-.19,1.53-.27,1.6-.48.46-7.97-2.91-11.14-5.02-2-1.33-3.12-2.92-2.27-3.25.65-.25,1.05-1.58,1.68-5.57.28-1.81.59-3.36.67-3.44.08-.08.36.03.63.25.73.61,2,.31,2.11-.49.09-.6-.04-.67-1.1-.54-.92.11-1.38-.04-2.02-.64-1.97-1.85-2.88-4.7-1.96-6.11.51-.78,1.32-1.06,1.6-.55.7,1.25.3,3.51-.42,2.4-.18-.27-.33-.35-.33-.17s.14.55.31.83c.27.42.38.4.8-.17.47-.65.49-.64.83.25.37.97,1.36,1.26,1.36.4,0-.28-.31-1.12-.69-1.86l-.69-1.35.94.27c.52.15,1.46.28,2.09.29,1.06.02,1.17-.07,1.36-1.13.33-1.83.81-2.73,2.12-3.97,1.53-1.45,2.48-3.28,2.48-4.75,0-.99.29-1.4,2.31-3.19,2.28-2.02,4.28-2.98,6.23-2.98.82,0,.82,0,.2-.71-.34-.39-1.08-.99-1.62-1.32-.55-.34-.87-.61-.72-.62.44,0,1.53.65,3.1,1.85,2.04,1.56,2.55,1.5,2.33-.28Zm-1.61-3.26c-.94-.98-1.38-1.18-2.67-1.24-1.62-.08-3.61.58-4.69,1.54-.35.31-1.22,1.35-1.93,2.31-.71.96-1.42,1.67-1.57,1.58-.15-.09-.52.11-.83.45-1.16,1.29-3.64,1.56-8.25.9-.34-.05-.82-.45-1.06-.89-.24-.44-.45-.66-.45-.47,0,.82,1.91,3.69,2.92,4.37,2.18,1.47,5.57.8,7.79-1.53.94-.99,1.84-1.34,1.84-.71,0,.59-2.47,2.34-3.96,2.81-4.18,1.31-6.65.67-8.26-2.17-1.11-1.95-.84-3.81.38-2.7.41.37,1.37.62,2.77.7,2.88.18,4.73-.54,6.14-2.37,2.32-3.03,3.34-3.86,5.57-4.55,1.87-.58,2.36-.62,3.65-.27,1.72.46,2.51,1.06,3.22,2.44.5.97.49.96-.61-.19Zm-19.05,6.3c-.4.01-.82-.13-.93-.31-.24-.39.08-.39.99,0,.64.27.64.28-.06.31ZM89.61,2.87l1.7-1.83.57,1.44c.32.79.68,2.68.82,4.19.28,3.16.46,3.02-2.87,2.14l-2.09-.55,1.34-.99c1.53-1.13,1.67-1.49.59-1.49-.44,0-1.24.49-1.88,1.15-.61.63-1.17,1.1-1.24,1.03-.33-.33,1.55-3.48,3.06-5.1Zm-8.42,8.68c1.76-1.81,4.78-3.41,5.37-2.83.28.28.2.38-.35.38-.4,0-.99.23-1.31.51-.32.28-1.49,1.17-2.61,1.99-1.11.81-2.15,1.47-2.3,1.47s.39-.68,1.2-1.52Zm-8.42.78c-.39.7.92.47,2.65-.47,3-1.63,4.07-2.1,4.77-2.1.65,0,.63.06-.23.78-1.8,1.5-3.77,2.55-5.49,2.92-2.05.45-2.78.93-1.39.92.54,0,1.87-.37,2.96-.82,1.6-.66,1.83-.69,1.18-.19-.45.34-1.36.78-2.02.98-1.56.47-3.85.47-4.14,0-.12-.2.26-.83.85-1.41.59-.57.98-.85.85-.63Zm-6.98,1.17c1.2-1.4,5.23-3.74,6.45-3.74.59,0,.29.42-1.57,2.23-2.45,2.39-3.19,3.87-3.56,7.2-.1.91-.5,2.85-.88,4.3-.38,1.46-.78,2.75-.89,2.88-.39.46.26-7.55.75-9.16.29-.98.33-1.41.11-1.05-.22.33-.59.85-.82,1.16-.38.48-.41.46-.21-.24.4-1.44-.53-.39-1.54,1.74-.53,1.11-.96,1.76-.96,1.43,0-1.12,2-5.42,3.14-6.75Zm-4.07,14.79l.71-1.49.29,2.1c.16,1.15.66,2.83,1.11,3.72.9,1.78.58,2.12-.71.73-.64-.69-.78-.75-.62-.25.16.49,0,.41-.65-.29-1.06-1.15-1.1-2.5-.13-4.53Zm-2.5,4.55c-.62-2.31-.1-4.92,1.42-7.19.51-.76.36,2.54-.19,4.09-.25.71-.45,1.78-.45,2.38,0,1.3-.5,1.77-.78.72Zm.77,11.83c0,.18-.36.78-.8,1.32-.45.55-.82.81-.82.6,0-.22.35-.81.8-1.32.45-.51.82-.78.82-.6Zm-3.34-3.35c.49-1.07,1.11-.87,1.52.48.3,1,.84,1.45.84.7,0-.19.15-.26.33-.15.18.11.33.51.33.88s-.4,1.15-.88,1.72l-.88,1.04.22-1.11c.19-.94.15-1.06-.25-.72-.38.32-.58.17-1.04-.8-.46-.96-.49-1.36-.19-2.03Zm-3.19,12.05c.39.08.86-.38,1.49-1.45.5-.86,1.24-1.95,1.64-2.42.64-.77.74-.8.94-.28.36.91-.05,1.97-1.35,3.48l-1.2,1.4h1.1c.61,0,1.73-.3,2.51-.65s1.41-.51,1.41-.36c0,.41-2.56,1.37-4.47,1.68-.91.15-1.95.35-2.32.46-.83.24-1.59-.2-2.48-1.47l-.7-.99.76-.29c2.17-.81,2.32-.81,2.2,0-.07.52.08.8.46.88Zm-11.09,3.85c-1.43-.97-1.32-1.64.22-1.32.57.12,1.48.24,2.03.28.96.06,1.01,0,1.37-1.87.45-2.25,1.31-3.32,3.2-3.95,1.81-.6,1.87-1.11.16-1.42-1.28-.23-1.34-.28-.6-.5.56-.16.64-.25.23-.27-.96-.05-3.08,1.19-4.03,2.36-.81.99-.86,1.02-.65.26.83-2.96,4.34-4.45,7.71-3.28,1.83.64,1.06,1.36-1.17,1.11l-1.26-.14,1.41.34c1.24.3,1.37.42,1.07.98-.19.34-.97.79-1.74.99-2.8.71-3.55,1.6-3.55,4.2,0,1.55-.46,2.28-1.7,2.71-1.37.48-1.27.5-2.7-.48Zm-30.51,105.39c-.11.18-.27.33-.35.33s-.15-.15-.15-.33.16-.33.35-.33.26.15.15.33Zm3.57-1.31c-.1.37-.49.89-.87,1.16-1.22.85-1.75.59-.85-.42,1.39-1.57,2.01-1.84,1.72-.74Zm12.83-26.65c-4.14,5.5-7.8,11.11-8.56,13.15-.37,1-.85,3.07-1.05,4.6-.72,5.47-1.94,8.12-3.57,7.8-.87-.17-5.51,2.09-6.27,3.06-1.14,1.46.14-1.41,1.4-3.13,1.21-1.64,1.26-1.82.51-1.82s-3.07,3.24-3.47,4.87c-.13.5-.47,1.18-.75,1.5-.51.56-1.45.77-1.82.4-.31-.31.34-2.6,1.18-4.14.94-1.71,1.42-3.62.92-3.62-.19,0-.67.89-1.06,1.99-.53,1.46-.89,1.99-1.34,1.99-.67,0-.8-.34-.33-.84.49-.53,1.71-4.15,1.51-4.47-.42-.68-.79-.2-1.49,1.93-.4,1.23-.85,2.37-1,2.53-.62.67-.61-1.44,0-3.58.67-2.34.69-3.11.03-1.88-.34.64-1.42,3.99-1.77,5.49-.09.36-.17.04-.19-.73-.06-2.26.61-4.75,1.51-5.59.45-.41,2.26-1.61,4.02-2.65,6.06-3.59,6.43-3.88,7.72-6.07.67-1.13,2.79-6.03,4.72-10.88,4.53-11.4,5.69-13.75,6.84-13.88.49-.06,1.11.14,1.42.44.3.3,1.17.63,1.95.73,1.13.15,1.69.5,2.97,1.84.86.91,1.57,1.94,1.57,2.29,0,.8-2.05,3.97-5.6,8.69Zm11.56-9.42c-.18,0-.33-.16-.33-.36,0-.23-.45-.28-1.3-.14-1.06.18-1.43.09-1.99-.47-.38-.38-.84-.69-1.04-.69s-1.07-.73-1.96-1.62c-1.19-1.19-2.26-1.86-4.04-2.53-1.33-.51-2.75-1.13-3.15-1.39-.41-.26-1.03-.37-1.41-.25-.44.14-.98-.02-1.55-.47l-.87-.68h.83c.96,0,3.11-2.15,4.9-4.88.78-1.19,1.36-1.74,1.84-1.74,1.01,0,4.32,1.19,5.92,2.13,1.7,1,4.14,3.61,4.14,4.42,0,.93-1.02,3.71-1.35,3.71-.17,0-.3.29-.3.64,0,1.01-.64,1.15-1.52.32l-.81-.76.53,1.06c.66,1.31,1.61,1.37,2.26.15.36-.67.53-.78.66-.41.33.95.87,3.15.87,3.56,0,.23-.15.41-.33.41Zm1.08-9.63c-.14-.02-.99-.85-1.9-1.85-1.25-1.38-2.38-2.17-4.65-3.27-1.65-.8-3.24-1.46-3.54-1.46-.77,0-1.06-.63-.41-.88.8-.3,3.71.42,5.98,1.5,2.41,1.14,4.76,3.63,4.76,5.05,0,.52-.11.93-.25.91Zm3.81-8.68c-.68-.27-1.25-.39-1.25-.27s.33,1.15.74,2.3c.68,1.91.7,2.14.23,2.98-.75,1.34-1.6,1.24-3.41-.39-2.27-2.05-4.42-3.12-7.37-3.69-1.41-.27-2.63-.56-2.71-.64-.29-.29.72-1.2,1.86-1.68.63-.26,2.07-.48,3.2-.48,2.25,0,3.05.5,3.34,2.08.29,1.59,3.14,4.15,3.12,2.8-.03-1.92-3.28-5.56-5.5-6.18-1.84-.51-3.41-.45-3.64.14-.28.74-1.01.6-1.23-.25-.47-1.77-.23-2.71.93-3.64.63-.5,1.36-.91,1.63-.91s.59-.15.7-.33c.26-.42,2.15-.44,2.15-.02,0,.17-.24.45-.54.62-.29.17-.41.38-.25.48.68.42,4.46,1.64,6.91,2.23,3.07.74,4.14,1.64,4.14,3.49,0,1.54-1.2,2.07-3.05,1.34Zm19.94-2.94c-.77-2.35-1-3.52-.83-4.3.22-1.09,1.57-4.24,4.13-9.64.95-2.01,1.27-3.01,1.01-3.17-.27-.17-.27-.48.02-1.19,1.07-2.59-.03-11.32-1.74-13.87l-.66-.99.23.99c1.23,5.4.64,11.91-1.46,15.94-1.31,2.53-3.51,4.58-6.62,6.19-3.15,1.63-3.83,1.8-4.12,1.05-.23-.59.15-.88,2.43-1.83,2.25-.94,4.61-2.63,5.75-4.13,1-1.31,1.13-1.84.29-1.12-1.34,1.13-3.86,2.31-6.21,2.9-3.85.96-4.13,1.23-4.13,3.98,0,2.54-1.2,6.46-2.2,7.2-1.68,1.23-5.99-.98-5.52-2.83.18-.72.13-.79-.42-.54-.79.36-4.6.23-5.95-.2-1.35-.43-2.59-1.77-3.45-3.72-.65-1.46-.66-1.66-.19-2.38.82-1.25,2.57-2.8,4-3.54.73-.38,1.38-.73,1.44-.78.06-.06-.26-1.04-.72-2.19-.46-1.15-1.08-3.06-1.39-4.24-.86-3.35-1.21-3.53-1.05-.52.12,2.24.07,2.53-.3,2.02-.73-1-1.75-4.51-1.98-6.79-.33-3.41.15-4.6,2.77-6.83,1.22-1.04,3.71-3.41,5.53-5.25,1.82-1.85,4.04-3.85,4.94-4.46,2.01-1.36,4.18-1.66,5.84-.82,1.4.71,2.95,2.13,2.95,2.71,0,.62.9.54,1.26-.11.53-.95,1.91-.24,4.95,2.5,3.06,2.77,5.1,5.53,10.74,14.58,4.65,7.47,5.12,8.33,6,10.95.87,2.59,2.01,9.9,2.39,15.22l.22,3.17-1.58.22c-3.34.46-14.49-.05-15.06-.68-.13-.15-.72-1.72-1.3-3.49Zm.91,9.5c.09.09-.43.95-1.14,1.91-4.98,6.65-8.51,18.31-11.49,37.98-.65,4.27-1.42,9.34-1.71,11.25-.29,1.91-1.11,6.67-1.82,10.59-.71,3.91-1.36,8.3-1.45,9.76l-.16,2.65.45-2.32c.25-1.27,1.2-5.52,2.13-9.43,2.63-11.18,2.91-12.58,4.19-21.01,1.37-9.04,2.25-13.45,4.31-21.67,2.68-10.69,3.86-13.85,6.62-17.62,1.63-2.23,2.46-2.1,1.04.17-1.38,2.19-3.28,6.2-3.96,8.35-1.07,3.4-.86,3.86.36.83.7-1.73,2.2-4.89,3.34-7.03,1.77-3.32,2.19-3.89,2.88-3.89.93,0,.96.1.33,1.09-1.62,2.5-4,11.9-5.54,21.91-.66,4.24-.76,6.09-.72,12.74.03,4.28.2,8.44.38,9.26.27,1.23.33.59.36-3.68.09-12.08,2.66-29.62,5.37-36.52,1.26-3.21,2.1-4.75,2.43-4.43.09.09-.22,1.27-.68,2.62-1.16,3.38-1.78,6.42-1.75,8.59l.02,1.82.61-2.68c.61-2.68,2.21-7.77,3-9.48.56-1.23,1.42-1.23,1.17,0-.9,4.39-3.06,23.4-2.76,24.31.2.59,1.5-6.72,1.92-10.83.21-2,.74-5.83,1.17-8.52.44-2.68.8-5.03.8-5.21s.24-.33.53-.33c.45,0,.52.48.46,3.39-.1,4.83.01,4.91.63.43.83-6.11,1.59-5.14,1.66,2.13.05,5.01-.5,20.73-.97,27.79-1,14.89-4.13,30.14-8.96,43.67-1.86,5.21-4.58,11.89-6.08,14.97-.69,1.41-1.35,2.55-1.45,2.54-.11-.01-.53-.16-.95-.32s-3.47-.75-6.78-1.3c-3.32-.55-7.97-1.5-10.33-2.12-6.18-1.62-15.38-5.03-15.38-5.7,0-.1,1.03-2.74,2.28-5.87,2.84-7.05,4.6-11.9,8.32-22.88,1.6-4.73,4.06-11.8,5.45-15.72,1.4-3.91,2.66-7.53,2.82-8.04,1.74-5.68,9.31-21.4,12.64-26.25,2.33-3.4,6.23-8.16,6.47-7.91Zm-42.74,69.25c1.75-3.51,3.82-7.82,4.62-9.58,2.41-5.35,12.49-25.59,15.45-31.04,5.83-10.73,12.44-20.52,16.67-24.73,3.23-3.21,3.82-3.07.73.17-4.67,4.92-7.4,10.15-14.5,27.87-4.65,11.58-7.35,18.78-10.77,28.62-1.33,3.82-3.39,9.55-4.6,12.72-1.2,3.17-2.3,5.87-2.44,5.99-.14.12-.71.1-1.27-.06-1.17-.32-7.09-3.18-7.09-3.42,0-.09,1.43-3.03,3.18-6.54Zm-3.48,30.46c-.21.39-.49.69-.62.66-.13-.03-1.5-.7-3.05-1.48-1.55-.79-3.07-1.37-3.39-1.3-.68.16-.67.22-.21-1.1.2-.59.54-1,.74-.92,2.51.98,5.5,2.36,6.12,2.84.67.51.73.7.4,1.31Zm-3.26-3.84c-2.4-1.08-3.35-1.66-3.23-1.99.1-.25.18-.83.18-1.28,0-.67.12-.78.66-.61.97.31.82-.45-.17-.83-1.63-.62-1.04-2.35,4.04-11.82l1.46-2.72,4.03,2.01c2.22,1.11,4.07,2.05,4.12,2.09.05.04,0,.32-.12.63-.27.69-1.08.69-1.84,0-.49-.44-.69-.46-1.1-.13-.8.67-.59,1.06.54.94,1.53-.16,1.8.54,1.01,2.54-.7,1.76-.99,1.88-2.85,1.17-.77-.29-.86-.43-.51-.85.23-.27.32-.59.21-.7-.11-.11-.29.03-.4.31-.15.39-.51.48-1.42.35l-1.21-.17,1.59,1.03c.88.57,2.03,1.12,2.56,1.22,1.05.21,1.16.47.63,1.46-.37.7-1.36.89-1.23.23.13-.62-1.29-.71-1.52-.1-.14.36.06.63.65.85.47.18.99.24,1.15.14.17-.1.3-.03.3.16,0,.59-2.13,4.65-2.45,4.66-.17,0-1.28-.46-2.48-1.03-3.2-1.51-3.76-1.7-3.59-1.2.18.53,4.19,2.86,4.96,2.88.59.02.76.82.38,1.81-.28.72-.51.67-4.36-1.06Zm34.02,17.61c-.89.95-.95.95-2.91.33-.78-.24-3.26-.75-5.52-1.13-4.87-.81-8.59-1.85-12.42-3.47-1.54-.65-2.96-1.18-3.15-1.18-.39,0-1.02-.68-1.94-2.12-.43-.66-.48-.9-.17-.78.25.1,1.97.79,3.83,1.53,3.92,1.57,8.95,2.88,16.66,4.35,3.01.57,5.69,1.17,5.95,1.33.38.24.32.44-.33,1.13Zm3.68-6.76c-.41-.49-.68-.58-1.05-.33-.43.29-.41.4.13.81.34.26.79.53.99.6.23.08.16.41-.2.92-1.43,2.05-2.41,2.93-2.92,2.63-.28-.17-3.86-.97-7.94-1.78-4.12-.82-9.19-2.07-11.39-2.82-6.54-2.2-10.55-3.68-10.89-4.02-.38-.38.6-2.64,1.14-2.64.2,0,.27-.27.17-.61-.11-.36.42-1.95,1.3-3.89,3.05-6.68,3.62-7.74,4.14-7.6.27.08,1.99.75,3.8,1.51,7.14,2.95,13.92,4.73,24.43,6.43,2.7.43,4.98.87,5.07.96.09.09,0,.49-.22.89-.29.54-.57.67-1.11.5-2-.61-2.07-.59-1.06.33l.97.89-.95,1.76c-.52.97-1.08,1.69-1.22,1.6-.15-.09-.27.1-.27.43,0,.33-.13.8-.29,1.06-.24.38-.41.37-1.06-.08-.43-.3-1.05-.54-1.39-.54-1.02,0-.43.8.87,1.16l1.21.34-.65,1.07c-.76,1.25-.87,1.28-1.6.41Zm70.69,1.13c-.06.05-1.23.49-2.59.99-1.36.5-3.3,1.25-4.3,1.68-4.21,1.8-12.16,3.82-18.69,4.75-1.27.18-2.91.42-3.64.54-.73.12-5.42.35-10.42.53-17.48.62-17.6.62-20.18.14-3.9-.72-9.26-2.29-9.26-2.7,0-.21.28-.72.63-1.15.61-.75.69-.76,2.56-.35,8.96,1.96,9.55,2.04,14.18,2.03,5.97,0,17.64-.54,21.67-.99,6.23-.7,18.25-3.26,21.15-4.51,1.01-.44,5.66-2.11,7.34-2.64.32-.1.74.17,1.1.71.32.49.53.92.47.97Zm.39-20.22c.21.58.6,1.55.87,2.16.26.61.39,1.4.27,1.75-.11.35-.03.86.19,1.12.22.27.3.84.19,1.31-.15.6-.08.83.27.83.27,0,.57.46.69,1.08.12.59.43,1.56.7,2.15.27.59.39,1.24.27,1.43-.12.19.1.65.48,1,1.06.99.85,1.57-.82,2.29-1.9.81-2.03.81-2.3-.05-.22-.7.25-1.27,1.05-1.28.5,0,1.26-.96.99-1.24-.12-.12-.65.03-1.17.34-.52.31-1.03.56-1.13.56s-.36-.63-.58-1.41c-.22-.77-.61-2.07-.88-2.89s-.53-1.71-.57-1.99c-.04-.27-.17-.72-.28-.99-.39-.96-1.29-4.48-1.33-5.22-.03-.59.27-.9,1.33-1.38l1.38-.62.39,1.05Zm-9.94-30.55c.53,1.73,1.51,4.85,2.17,6.95,2.08,6.58,6.45,21.14,6.45,21.5,0,.19-.48.64-1.08,1-.59.36-1.16.66-1.27.66-.26,0-3.19-9.31-5.46-17.37-2.01-7.13-5.15-16.39-5.35-15.79-.07.2.63,2.86,1.56,5.9.93,3.04,1.62,5.59,1.54,5.67-.23.23-4.8-13.94-8.8-27.25-2.01-6.71-4.24-13.84-4.96-15.84-.71-2-2.19-6.17-3.3-9.26-1.1-3.09-2.68-7.02-3.5-8.73-.82-1.71-1.45-3.15-1.39-3.21.06-.06.69.1,1.42.34,1.23.42,1.4.64,2.75,3.71,1.47,3.32,5.12,13.99,5.52,16.15.3,1.6.82,1.84.6.27-.72-5.13-3.59-14.65-5.62-18.7-.98-1.95-.48-2.06.79-.17,1.68,2.5,2.89,5.72,4.37,11.66.14.55.8,2.55,1.47,4.46.67,1.91,1.8,5.78,2.51,8.6,1.24,4.92,2.69,9.42,6.76,21.02,1.02,2.91,2.29,6.71,2.82,8.44Zm2.03-12.95c-.71.22-1.75.81-2.31,1.34l-1.02.95-.7-1.86c-.92-2.44-5.27-15.47-5.27-15.79,0-.13,1.35,1.16,3,2.87,2.88,2.98,4.93,5.86,4.94,6.92,0,.27.6,1.52,1.33,2.77.73,1.24,1.32,2.3,1.32,2.34,0,.04-.58.25-1.29.46Zm6.35,3.11c-.1.77-.29,1.53-.43,1.68-.32.35-.76-.34-.49-.77.11-.18.03-.33-.18-.33-.48,0-.11-1.7.44-2.04.65-.4.84.02.66,1.46Zm2.57.52c-.27-.68-.31-.63-.33.48-.02,1.46-.71,1.67-1.29.4-.76-1.66-.41-2.68.72-2.07.51.27.72.27.81-.01.27-.81,1.06-.37,1.06.6,0,1.25-.58,1.61-.98.62Zm6.14-.55c-.39.07-.8.62-1.08,1.44-.25.73-.62,1.66-.83,2.07-.21.41-.64.74-.95.74-.49,0-.42-.37.51-2.85.59-1.56,1.27-2.97,1.52-3.12.35-.22.32-.32-.15-.5-.84-.32-1.09.04-2.18,3.18-1.02,2.89-1.32,3.29-1.94,2.54-.28-.33-.17-1.04.45-2.86.45-1.32.81-2.64.81-2.93s.23-.77.51-1.09c.47-.52.37-.66-1.16-1.76-1.83-1.32-1.96-1.17-1.13,1.25.58,1.71.33,2.41-.75,2.04-.34-.11-1.45-1-2.48-1.98-1.03-.98-2.16-1.88-2.51-1.99-1.14-.36-2.1-1.72-2.53-3.59-.25-1.07-.85-2.35-1.47-3.1-3.78-4.66-8.28-10.5-9.34-12.13-1.26-1.94-3.87-7.8-4.65-10.47-.35-1.2-.35-1.49,0-1.61.24-.08.92-.58,1.52-1.1,1.24-1.09,2.16-1.21,2.89-.37.27.32,1.69,2.81,3.15,5.54,2.65,4.95,7.49,13.45,9.8,17.19,1.63,2.64,2.82,3.81,6.25,6.16,2.95,2.02,3.86,3.07,5.84,6.72,1.07,1.97,1.06,2.36-.1,2.56Z"/>
          <path d="m49.53,220.65c-.42.16-.44.29-.11.69.52.63,1.32.64,1.32.02s-.56-.96-1.21-.71Z"/>
          <path d="m42.63,214.89c.11.19.6.33,1.08.33.81,0,.84-.04.34-.54-.56-.56-1.79-.38-1.42.21Z"/>
          <path d="m33.35,206.07c.19-.51-.27-1.09-.89-1.1-.31,0-.33,1.12-.03,1.43.37.37.69.25.91-.33Z"/>
          <path d="m43.98,217.07c.62-.45.61-.48-.29-.7-1-.25-1.78.21-1.4.81.3.49.92.45,1.69-.11Z"/>
          <path d="m53.12,216.2c.31,0,.66-.15.78-.34.36-.58-.02-.67-.7-.15-.56.42-.57.48-.08.49Z"/>
          <path d="m51.47,214.67c-.16-.82-.2-.84-.6-.28-.24.33-.36.72-.26.88.42.67,1.03.25.87-.6Z"/>
          <path d="m33.5,210.59c.37,0,.72-.86.46-1.12-.29-.29-.76.11-.76.64,0,.26.13.48.29.48Z"/>
          <path d="m41.11,208.3c.37-.23.32-.36-.23-.66-.94-.5-1.06-.47-1.06.29,0,.7.52.84,1.29.36Z"/>
          <path d="m41,211.25c-.3,0-.52.28-.52.69,0,.81.77.69.93-.14.06-.33-.11-.55-.41-.55Z"/>
          <path d="m43.54,209.27c.86,0,.55-.8-.36-.93-.69-.1-.95.26-.5.71.12.12.51.22.85.22Z"/>
          <path d="m55.83,212.05c.32-.83.24-1.13-.29-1.13-.31,0-.5.31-.5.83,0,.92.48,1.11.79.3Z"/>
          <path d="m38.94,219c-.42.16-.44.29-.11.69.52.63,1.32.64,1.32.02s-.56-.96-1.21-.71Z"/>
          <path d="m35.6,206.89c.41-.06.74-.25.74-.44s-.33-.38-.74-.44c-.51-.07-.74.06-.74.44s.23.51.74.44Z"/>
          <path d="m33.38,213.71c-1.01-.25-1.33-.05-1.06.67.24.64,1.01.66,1.53.03.33-.4.24-.52-.47-.7Z"/>
          <path d="m30.49,204.68c.33-.21.23-.41-.4-.82-.88-.58-1.41-.26-1.07.62.21.53.81.61,1.47.2Z"/>
          <path d="m33.68,211.57c-.79-.28-1.12-.05-.48.34.26.16.62.2.8.09.18-.11.04-.3-.32-.43Z"/>
          <path d="m35.11,217.82c-.25.25-.23.5.07.86.47.56,1.01.39,1.01-.31,0-.64-.65-.97-1.07-.55Z"/>
          <path d="m37.97,207.15c-.74-.28-.8-.26-.8.3,0,.27.22.5.48.5.7,0,.93-.56.32-.79Z"/>
          <path d="m35.57,212.1c-.86-.27-.96.3-.14.78,1.18.69,1.51.5,1.87-1.13l.22-.99-.62.78c-.45.58-.8.72-1.33.56Z"/>
          <path d="m36.84,214.9c-.5-.33-1.32-.45-1.32-.2,0,.08.09.37.2.66.23.61.43.64,1.12.19.44-.29.44-.36,0-.65Z"/>
          <path d="m28.27,207.94c.19,0,.25-.15.14-.33-.32-.52-1.25-.4-1.05.13.1.25-.01.73-.25,1.05-.38.52-.55.54-1.48.15-.58-.24-1.14-.34-1.26-.22-.25.25-.24.25,1.22.92,1.29.59,1.81.38,2.12-.89.11-.45.36-.81.55-.81Z"/>
          <path d="m32.03,217c-.45.17-.48.3-.15.7.48.58.87.63,1.17.13.32-.52-.37-1.09-1.03-.84Z"/>
          <path d="m26.1,214.89c-.45,0-1.1-.31-1.46-.69-.41-.44-.95-.65-1.52-.58-.86.11-.84.14.71,1.33,1.82,1.39,1.96,1.44,2.61.79.67-.67.59-.85-.34-.85Z"/>
          <path d="m26.7,211.44c-.79-.3-1.31.32-.78.96.32.39.53.42.88.14.6-.5.57-.84-.1-1.1Z"/>
          <path d="m28.03,215.66c-.12.12-.02.44.21.72.48.58,1.19.66,1.5.17.23-.37-1.38-1.21-1.7-.89Z"/>
          <path d="m29.84,210.37c-.4.25-.8.24-1.41-.04-.47-.22-.85-.25-.85-.09s.63.52,1.41.79c.77.27,1.67.51,2,.52.57.03.57,0,0-.75-.47-.62-.7-.71-1.15-.43Z"/>
          <path d="m29.22,212.75c-.24.15-.22.37.05.7.45.54,1.33.49,1.53-.1.15-.45-1.07-.91-1.57-.6Z"/>
          <path d="m47.72,83.42c1.11-2.09,2.02-3.88,2.02-3.98,0-1.12-4.01,2.32-4.94,4.22-.76,1.57-.67,3.23.23,4.27.67.76,1.04.73.83-.07-.11-.4.6-2.08,1.85-4.44Z"/>
          <path d="m69.85,214.75c.31.23.68.35.81.27.36-.22-.08-1.12-.54-1.12-.72,0-.85.42-.27.85Z"/>
          <path d="m67.76,214.87c.54-.52-.32-1.03-1.51-.89l-1.12.12,1.16.54c.71.33,1.28.42,1.47.23Z"/>
          <path d="m124.4,202.8c.11-.28.1-.61-.02-.73-.27-.27-1.26.32-1.44.85-.2.59,1.24.47,1.46-.12Z"/>
          <path d="m125.78,208.83c.12-.61-.5-.72-1.26-.22-.44.29-.44.36,0,.65.65.42,1.13.25,1.26-.43Z"/>
          <path d="m67.23,217.78c-.13.32-.24.77-.25,1s.26.41.61.41c.57,0,.6-.1.25-1-.31-.84-.41-.91-.61-.41Z"/>
          <path d="m68.64,220.88c.25.16.66.22.9.13.24-.09.59-.16.77-.16.74,0,.01-.76-.81-.85-1.01-.11-1.55.45-.86.88Z"/>
          <path d="m63.64,217.7c0,.52.19.83.5.83.53,0,.61-.3.29-1.13-.31-.8-.79-.62-.79.3Z"/>
          <path d="m125.41,211.25c.37,0,.87-.22,1.1-.5.56-.67-.24-.67-1.14,0-.63.48-.63.49.04.49Z"/>
          <path d="m94.15,90.75c.52.52,1.92.51,1.93-.02,0-.3.08-.29.29.04.21.32.35.34.52.07.13-.21.06-.6-.17-.86-.22-.26-.29-.48-.16-.48s0-.37-.29-.81c-.29-.45-.54-1.06-.54-1.35,0-.4-.24-.31-.99.4-1.04.98-1.3,2.32-.6,3.02Zm.76-1.92c.27,0,.5.22.5.5s-.22.5-.5.5-.5-.22-.5-.5.22-.5.5-.5Z"/>
          <path d="m93.69,95.67c-.69.63-.79,1.78-.21,2.37.55.55.76.51,1.78-.37.88-.75.88-.78.31-1.65-.67-1.03-1.05-1.1-1.89-.34Zm.84.94c-.1.27-.32.5-.49.5s-.29-.22-.29-.5.22-.5.49-.5c.29,0,.41.2.29.5Z"/>
          <path d="m86.55,82.4c-.85-.26-.87-.22-.42.95.35.93,1.04,1.1,1.62.4.43-.52.03-.97-1.2-1.35Z"/>
          <path d="m84.14,220.52c.73,0,1.52-.85,1.05-1.13-.43-.26-2.05.49-1.83.85.1.16.45.28.78.28Z"/>
          <path d="m84.5,217.03c-.53.47-.59.69-.27.89.58.37.78.34,1.19-.15.22-.26.24-.61.06-.9-.24-.4-.4-.37-.98.15Z"/>
          <path d="m85.15,213.55c0-.17-.32-.31-.7-.31-.59,0-.64.08-.29.49.41.5,1,.39,1-.18Z"/>
          <path d="m79.85,220.63c0,.33.96.25,1.68-.13.8-.43.83-.98.06-.97-.6,0-1.74.73-1.74,1.1Z"/>
          <path d="m72.82,215.18c.41.23.63.22.72-.06.07-.22.29-.5.5-.64.2-.14-.04-.25-.53-.25-1.1,0-1.47.5-.69.95Z"/>
          <path d="m18.6,203.67c-.78.42-.79.88-.04,1.07,1.01.26,1.08.24,1.08-.38,0-.86-.32-1.08-1.04-.69Z"/>
          <path d="m71.87,219.19c.34,0,.81-.22,1.03-.5.35-.42.26-.5-.62-.5-.7,0-1.03.16-1.03.5,0,.27.28.5.62.5Z"/>
          <path d="m72.35,221.58c.4.06,1.14-.19,1.65-.55.87-.62.99-.63,1.84-.14.87.5.96.48,2.03-.42,1.14-.95,1.02-1.29-.18-.53-.36.23-1.62.42-2.8.41-1.58,0-2.3.15-2.71.56-.52.52-.51.57.17.67Z"/>
          <path d="m76.55,218.05c0,.26.3.48.67.48.57,0,.62-.1.31-.67-.38-.71-.99-.6-.99.2Z"/>
          <path d="m76.62,215.28c.45-.45.08-1.38-.56-1.38-.6,0-.62.16-.15,1.05.25.47.47.57.71.33Z"/>
          <path d="m99.52,115.53c-.53.53-.52.58.06.78.63.22,1.1-.17,1.11-.93,0-.58-.51-.52-1.17.15Z"/>
          <path d="m35.85,120.13c0-.08.1-.4.22-.71.18-.48.09-.54-.58-.36-.6.16-.94.02-1.36-.52-.72-.94-1.08-.59-.56.55.23.51.59.81.84.71.24-.09.44-.02.44.15s.22.32.5.32.5-.06.5-.14Z"/>
          <path d="m32.09,116.3c-.55,0-.87.18-.87.5,0,.27.21.5.46.5s.64-.22.87-.5c.35-.42.28-.5-.46-.5Z"/>
          <path d="m102.83,114.28c.12.2.35.36.51.36.51,0,.75-.7.37-1.09-.46-.46-1.22.18-.88.73Z"/>
          <path d="m101.52,118.27c.12.19.36.34.54.34.48,0,.77-.99.4-1.36-.4-.4-1.24.51-.93,1.02Z"/>
          <path d="m105.68,116.77c.36-.43.35-.57-.04-.82-.89-.57-1.47-.14-1.11.82.26.67.6.67,1.14,0Z"/>
          <path d="m85.4,222.78c-.53-.34-.65-.33-1.23.03-.4.25-.4.39-.03.83.4.48.49.48,1.06-.03.48-.43.52-.63.2-.83Z"/>
          <path d="m86.14,28.79c-.46.56-.44.59.17.34,3.17-1.31,3.37-1.34,4.62-.75,1.56.74,2.49.73,2.49-.03,0-.99-.71-1.39-2.46-1.38-1.81,0-4.02.85-4.81,1.82Z"/>
          <path d="m27.58,114.81c-.24,0-.5.19-.58.41-.08.24.15.41.58.41s.66-.17.58-.41c-.08-.23-.34-.41-.58-.41Z"/>
          <path d="m30.1,115.82c-.15.4-.34.43-.86.15-.77-.41-.83-.26-.25.66.22.36.56.66.74.66.44,0,1.17-1.6.83-1.81-.15-.09-.35.06-.46.34Z"/>
          <path d="m92.18,30.7c-.23-.08-.41-.44-.41-.78,0-1.15-1.27-.95-3.59.57-2.01,1.32-1.93,1.93.25,1.72.99-.1,1.35,0,1.35.33,0,.27-.2.38-.5.27-.69-.26-.63.34.08.75.73.42,1.41.45,1.41.06,0-.16.28-.22.63-.14.73.19,1.25-.46.76-.96-.24-.24-.22-.55.05-1.01.3-.52.3-.69-.02-.81Z"/>
          <path d="m61.5,63.73c-.11.11.51,1.65,1.37,3.42,1.46,3.01,1.56,3.4,1.58,5.92,0,1.48-.1,3.21-.23,3.85-.25,1.11-.24,1.13.26.43.9-1.29,1.49-3.43,1.49-5.47,0-1.57-.21-2.36-1.01-3.84-1.12-2.07-3.15-4.6-3.45-4.3Z"/>
          <path d="m60.2,63.69c-.56,0-1.72,2.32-2.03,4.05-.12.68-.14,1.24-.03,1.24.16,0,2.53-4.84,2.53-5.17,0-.07-.21-.12-.47-.12Z"/>
          <path d="m41.45,80.52c-.81,1.72-.74,3.57.2,5.93.3.76.76,1.39,1.02,1.39.37,0,.46-.77.46-3.76,0-2.06.16-4.22.36-4.79.9-2.58-.7-1.62-2.04,1.22Z"/>
          <path d="m37.17,94.85c0,.21.24.66.55.99.76.84,1.24.76,2.6-.44,1.19-1.05,2.68-3.49,2.34-3.83-.49-.49-5.49,2.51-5.49,3.29Z"/>
          <path d="m58.13,83.02c-.14-.36-.4-.33-1.38.17-.67.33-2.29,1-3.62,1.48-3.16,1.13-3.95,1.57-5.53,3.04-1.28,1.2-1.3,1.23-.41,1.07.5-.1,1.17.03,1.49.27.69.52,1.29.58,1.56.15.11-.17,1.11-.78,2.23-1.35,3.9-1.98,6.05-3.81,5.66-4.82Z"/>
          <path d="m55.62,87.55c-2.16.63-3.56,1.61-3.56,2.49,0,.82,7.12-2.13,7.8-3.24.26-.43-.92-.22-4.24.74Z"/>
          <path d="m47,92.77c-.44.44-.13,5.98.39,6.92.75,1.38,1.2.65,1.2-1.97s-.95-5.59-1.58-4.96Z"/>
          <path d="m79.69,214.56c.11-.18.63-.33,1.16-.33s1.03-.12,1.12-.27c.17-.27-2.25-.19-3.04.1-.24.09-.34.31-.23.49.26.43.73.43.99,0Z"/>
          <path d="m104.84,220.31c-.28-.11-.74,0-1.01.22-.44.36-.43.46.09.85.74.56.67.58,1.08-.2.28-.53.25-.71-.16-.87Z"/>
          <path d="m114.69,217.93c-.23.2-.42.48-.42.64,0,.42,1.24.36,1.51-.08.32-.53-.57-.99-1.09-.57Z"/>
          <path d="m112.2,218.54c-.59.02-1.6.84-1.35,1.1.27.27.57.27,1.24.01.62-.24.7-1.12.11-1.11Z"/>
          <path d="m108.15,219.91c-1.12-.13-1.39.11-.84.77.38.46.49.45,1.08-.07.65-.58.64-.59-.24-.7Z"/>
          <path d="m101.04,221.51c-.81-.43-1.58-.02-1.18.63.26.43.84.46,1.47.06.36-.23.3-.37-.28-.69Z"/>
          <path d="m101.03,218.55c0-.39-.99-.72-1.4-.46-.22.14-.13.38.24.65.59.43,1.16.34,1.16-.19Z"/>
          <path d="m114.73,213.04c.29-.11.52-.49.52-.85,0-.92-1.13-.64-1.26.31-.11.8-.05.84.74.54Z"/>
          <path d="m109.05,210.04c.68.27.81.24,1.24-.28.35-.42.28-.5-.44-.5-.93,0-1.46.51-.81.77Z"/>
          <path d="m109.78,212.92c-.37.31-.4.52-.12.86.21.25.62.45.91.45.62,0,1.74-.64,1.14-.65-.22,0-.63-.24-.92-.54-.42-.42-.63-.45-1.02-.12Z"/>
          <path d="m96.75,221.84c-.66,0-.93.64-.46,1.11.35.36.92.05,1.04-.56.07-.37-.12-.55-.58-.55Z"/>
          <path d="m113.79,209.12c.62-.62.06-.98-1.07-.7-.69.17-.76.29-.44.69.51.61.9.61,1.51,0Z"/>
          <path d="m113.93,215.38c.31.38.52.4,1.03.08.35-.22.63-.58.63-.81,0-.5-.05-.51-1.17-.08-.72.27-.81.42-.49.81Z"/>
          <path d="m111.51,215.55c-.71,0-1.67.86-1.42,1.27.31.51.53.48,1.24-.17.71-.65.78-1.11.17-1.11Z"/>
          <path d="m22.93,193.37c-.66-.42-.83-.39-1.32.21-.36.43-.35.57.04.82.66.42.83.39,1.32-.21.36-.43.35-.57-.04-.82Z"/>
          <path d="m19.89,192.12c-.58-.11-.84.89-.35,1.38.39.39.93.02.93-.64,0-.35-.26-.68-.58-.74Z"/>
          <path d="m19.15,201.33c.46.51.67.57.87.25.45-.71.31-.92-.6-.92-.86,0-.87.01-.27.67Z"/>
          <path d="m61.86,221.84c-.63,0-.79.13-.65.51.23.59,1.15.52,1.35-.1.09-.26-.18-.41-.71-.41Z"/>
          <path d="m89.06,222.56c-.39.06-.78.29-.85.52-.2.61,1.14.51,1.37-.11.15-.39.02-.49-.52-.41Z"/>
          <path d="m21.62,205.62c0-.4-.93-.82-1.2-.55-.1.1-.09.34.03.54.28.45,1.17.46,1.17.01Z"/>
          <path d="m118.48,211.59c.29-.47.3-.7.03-.87-.4-.25-1.27.72-1.27,1.41,0,.57.75.25,1.24-.54Z"/>
          <path d="m116.71,208.6c.56,0,.96-.89.52-1.17-.44-.27-.98.12-.98.69,0,.26.21.48.46.48Z"/>
          <path d="m65.57,222.72c-.99-.26-1.5.26-.93.94.53.64,1.44.52,1.58-.21.06-.33-.19-.61-.65-.73Z"/>
          <path d="m117.71,216.36c-.26.35-.47.76-.47.91,0,.46.89.29,1.34-.24.33-.4.34-.6.02-.91-.32-.31-.51-.26-.88.24Z"/>
          <path d="m121.24,216.78c.77-.48.8-.76.09-1.03-.77-.29-1.56.42-1.09.99.29.34.5.35,1,.04Z"/>
          <path d="m105.33,211.42c0-.85-.22-.98-1.14-.62-.49.19-.49.26.02.83.76.85,1.12.78,1.12-.21Z"/>
          <path d="m92.26,213.57c.38-.62-.17-1-.84-.58-.35.22-.65.52-.65.66,0,.37,1.25.3,1.49-.08Z"/>
          <path d="m88.57,219.39q-1.6.49-1.1.81c.63.4,1.35.39,1.98-.02.42-.27.43-.37.03-.63-.25-.17-.67-.24-.91-.17Z"/>
          <path d="m107.69,211.25c.16,0,.29-.22.29-.5s-.3-.5-.7-.5c-.59,0-.64.08-.29.5.22.27.54.5.7.5Z"/>
          <path d="m88.27,217.51c.31.51,1.07.45,1.28-.11.22-.56-.75-1.01-1.19-.56-.17.17-.21.47-.09.67Z"/>
          <path d="m91.31,217.87h1.22c1.29,0,1.53-.32.74-.98-.39-.32-.63-.26-1.22.29l-.74.69Z"/>
          <path d="m76.74,223.47c-.28.23-.44.56-.34.72.22.36,1.47.4,1.46.05,0-.14-.14-.46-.3-.72-.25-.39-.39-.4-.82-.04Z"/>
          <path d="m80.55,217.77c-.46-.46-1.22.18-.88.73.12.2.35.36.51.36.51,0,.75-.7.37-1.09Z"/>
          <path d="m87.17,213.93c.63.4,1.2.37,1.48-.07.34-.56-.56-.96-1.29-.57-.52.28-.56.4-.19.63Z"/>
          <path d="m92.16,223.1c.45.45.66.48,1.4.2.87-.33.59-.71-.64-.85-1.23-.14-1.41.01-.76.66Z"/>
          <path d="m72.8,223.56c-.47.24-.52.41-.22.78.28.34.55.38,1.02.13.34-.18.63-.47.63-.63,0-.47-.77-.62-1.43-.28Z"/>
          <path d="m68.6,223.5c-.22.14-.3.43-.17.64.29.47,1.56.33,1.73-.19.15-.46-1.01-.8-1.56-.45Z"/>
          <path d="m93.09,219c-2.34.67-2.22.59-1.49.88,1.29.5,2.15.35,2.15-.38,0-.53-.15-.64-.66-.5Z"/>
          <path d="m81.34,223.02c-1.17-.29-1.75.12-.97.68.76.56.97.56,1.44,0,.3-.37.21-.5-.47-.67Z"/>
          <path d="m103.51,216.21c.91,0,1.07-.38.4-.94-.32-.26-.53-.19-.83.29-.36.58-.31.65.43.65Z"/>
          <path d="m107.43,217.37c.11-.27.43-.5.72-.5s.44-.13.34-.29c-.23-.37-2.6.42-2.77.92-.19.56,1.49.44,1.71-.13Z"/>
          <path d="m107.53,215.06c.13-.41-1.48-1.19-1.71-.83-.09.15-.07.52.04.81.22.58,1.49.59,1.67.01Z"/>
          <path d="m95.74,213.27c0-.34-.24-.72-.53-.83-.85-.32-1.15.11-.54.78.74.81,1.06.83,1.06.05Z"/>
          <path d="m103.16,218.86c.54,0,1.35-.93,1.06-1.22-.33-.32-1.94.52-1.7.89.11.18.4.33.64.33Z"/>
          <path d="m100.99,212.58c.42,0,1.16-.97.93-1.21-.34-.34-1.22.17-1.22.7,0,.28.13.51.29.51Z"/>
          <path d="m95.77,219.4c.48.58,1,.58,1.81-.01.88-.65.45-.94-.99-.67-.98.18-1.13.31-.82.68Z"/>
          <path d="m96.24,217.26c1.17-.31,1.34-.76.49-1.3-.57-.35-.66-.33-.66.19,0,.33-.17.77-.38.98-.29.29-.16.32.56.13Z"/>
          <path d="m98.42,212.93c.57.43.84.48,1.02.2.35-.57-.5-1.28-1.2-1.01-.55.21-.53.28.18.81Z"/>
          <path d="m99.04,215.88c-.16.25-.22.58-.13.73.21.34,1.16.33,1.7-.01.3-.19.19-.39-.44-.72-.73-.39-.9-.39-1.14,0Z"/>
        </g>
      </g>
    </g>
  </g>
</svg>