<?xml version="1.0" encoding="UTF-8"?>
<svg id="Layer_2" data-name="Layer 2" xmlns="http://www.w3.org/2000/svg" viewBox="0 0 329.28 135.64">
  <defs>
    <style>
      .cls-1 {
        fill: #fff;
      }

      .cls-1, .cls-2 {
        fill-rule: evenodd;
      }

      .cls-2 {
        fill: #0f0a09;
      }
    </style>
  </defs>
  <g id="Layer_1-2" data-name="Layer 1">
    <g>
      <path class="cls-2" d="m223.86.33c-2.48-.27-6.91-.7-8.98.26,2.64.07,6.77.53,8.98-.26Z"/>
      <path class="cls-2" d="m209.93.6c-2.5-.3-6.74-.64-8.85.26,2.75.09,6.5.44,8.85-.26Z"/>
      <path class="cls-2" d="m233.62,2.81c-3.41-.44-7.21-.57-11.06-.39-6.78.32-13.94-.61-19.91.52,9.83.45,21.8.44,30.98-.13Z"/>
      <path class="cls-2" d="m168.02,7.88c-5.03-.49-11.48-.57-16.4.13,4.88.32,11.82.61,16.4-.13Z"/>
      <path class="cls-2" d="m192.75,8.01c-1.7-.73-5.14-.44-6.77.13,1.89.35,5.14.75,6.77-.13Z"/>
      <path class="cls-2" d="m237.52,7.62c-.13,0-.15.1-.26.13-.07,0-.15.11,0,.13,3.97.68,9,.28,13.54.39-.6-.6-1.82-.59-2.73-.65-3.47-.22-7.26.17-10.54,0Z"/>
      <path class="cls-2" d="m177,10.36c-9.29-.97-20.94-.58-30.33,0,9.25.53,20.73.38,30.33,0Z"/>
      <path class="cls-2" d="m200.82,13.35c-.58-.69-1.67-.45-2.47-.52-8.4-.72-18.8-.45-26.68,0,9.53.87,19.66.17,29.15.52Z"/>
      <path class="cls-2" d="m149.28,13.09c3.05.25,8.19.35,10.41-.26-3.71-.46-8.71-.3-12.63-.13.17.73,1.45.33,2.21.39Z"/>
      <path class="cls-2" d="m168.15,12.96c.33.38,1.06.24,1.56.13.04-.68-1.45-.71-1.56-.13Z"/>
      <path class="cls-2" d="m161.78,13.09c1,.11,3.31.46,3.9-.26-.98-.09-3.34-.49-3.9.26Z"/>
      <path class="cls-2" d="m244.68,12.7c-.13,0-.16.11-.26.13.01.16.04.31.26.26,3.23.63,8.87.06,12.49.26-.37-.65-1.39-.6-2.08-.65-3.1-.21-7.18.16-10.41,0Z"/>
      <path class="cls-2" d="m183.12,15.56c.1.03.15.11.13.26h1.04c.1-.81-.96-.73-1.17-.26Z"/>
      <path class="cls-2" d="m256.66,15.56c.6.16,2.34.34,2.73-.13-.58-.35-2.12-.36-2.86-.13-.03.16-.2.27.13.26Z"/>
      <path class="cls-2" d="m133.67,15.82c-.79-.79-4.25-.78-5.21-.13,1.68.38,3.75.14,5.21.13Z"/>
      <path class="cls-2" d="m150.72,15.69c-4.04-.68-9.97-.51-13.93.13,4.09.4,10.02.51,13.93-.13Z"/>
      <path class="cls-2" d="m247.16,20.77c4.61.52,9.95.42,14.71.13-3.97-.86-10.54-.7-14.71-.13Z"/>
      <path class="cls-2" d="m186.64,20.9c.62.4,2.54.44,2.99-.13-.68-.38-2.47-.42-2.99.13Z"/>
      <path class="cls-2" d="m125.86,23.24c2.09.35,5.75.49,7.81,0-2.1-.43-5.7-.4-7.81,0Z"/>
      <path class="cls-2" d="m146.81,25.58c-4.7-.19-10.83-.79-15.23,0,1.85.3,4,.16,6.12.26,3.13.14,6.55.48,9.11-.26Z"/>
      <path class="cls-2" d="m140.56,27.93c-2.63-.32-5.42-.26-8.59-.26-2.08,0-4.45-.28-5.86,0-.38.08-1.07.02-1.04.78,5.21-.13,11.02.35,15.49-.52Z"/>
      <path class="cls-2" d="m262.25,30.79c.81.52,3.78.72,4.03-.13-1.06-.18-3.17-.32-4.03.13Z"/>
      <path class="cls-2" d="m122.6,33.65c-.59-.87-3.25-.52-3.9.13.93-.06,2.83.39,3.9-.13Z"/>
      <path class="cls-2" d="m252.36,35.87c2.06.07,5.39.5,7.03-.26-1.98-.06-5.48-.54-7.03.26Z"/>
      <path class="cls-2" d="m131.97,38.47c-.33-.72-1.37-.36-1.95-.39-4.71-.28-10.53-.18-14.58.39,5.1.6,11.4.47,16.53,0Z"/>
      <path class="cls-2" d="m249.24,38.34c2.43.52,6.98.71,9.37,0-2.53-.53-6.87-.65-9.37,0Z"/>
      <path class="cls-2" d="m134.19,38.6c.68.08,2.28.4,2.73-.13-.41-.5-2.53-.71-2.73.13Z"/>
      <path class="cls-2" d="m262.12,38.34c-.16-.36-1.44-.45-1.43.13.13.32,1.51.52,1.43-.13Z"/>
      <path class="cls-2" d="m265.12,38.73c.63.07,2.52.5,2.73-.26-.56-.37-2.13-.35-2.86-.13,0,.18.06.29.13.39Z"/>
      <path class="cls-2" d="m267.98,41.07c-.54-.82-2.2-.55-3.51-.52-1.33.03-2.9-.09-3.51.52,2.07.19,4.96.23,7.03,0Z"/>
      <path class="cls-2" d="m117.14,43.68c6.21.19,12.44.15,18.22-.26-6.86-.54-15.31-.64-22-.52.82,1.04,2.48.74,3.77.78Z"/>
      <path class="cls-2" d="m134.32,46.15c-3.47-.58-9.11-.95-12.5,0,3.7.31,9.41.73,12.5,0Z"/>
      <path class="cls-2" d="m113.88,45.89c.26.69,2.87.83,3.25.13-.6-.53-2.43-.22-3.25-.13Z"/>
      <path class="cls-2" d="m249.89,48.49c7.6.39,16.18.34,23.56-.26-7.11-.52-16.85-.86-23.56.26Z"/>
      <path class="cls-2" d="m110.5,48.75c5.79.18,12.21-.06,17.57-.13-2.58-.92-5.94-.65-9.24-.65h-9.89c-.21,0-.07.36-.26.39.12.51,1.22.37,1.82.39Z"/>
      <path class="cls-2" d="m278.65,48.23c-1-.2-2.75-.52-3.38.26.9.29,2.87.55,3.38-.26Z"/>
      <path class="cls-2" d="m117.66,51.48c5.18,0,10.68.22,14.97-.65-6.49-.71-14.59-.14-21.34.13,1.77.76,4.07.52,6.38.52Z"/>
      <path class="cls-2" d="m263.17,53.05c-1.56-.22-3.58.04-5.47.13-2.51.12-5.08-.28-6.77.52,4.22.42,9.16.3,13.28-.13-.06-.53-.77-.48-1.04-.52Z"/>
      <path class="cls-2" d="m131.97,56.04c-4.79-.79-10.54-.25-15.75-.26-1.86,0-4.16-.31-5.73.39,6.5.67,15.11.59,21.47-.13Z"/>
      <path class="cls-2" d="m266.03,56.17c-1.15-1.14-4.15-.22-5.86-.26,1.2.8,4.31.62,5.86.26Z"/>
      <path class="cls-2" d="m109.98,61.11c-.88-.16-2.88-.38-3.38.26,1.01-.04,2.96.79,3.38-.26Z"/>
      <path class="cls-2" d="m108.68,63.72c.83.29,2.48.46,3.12-.13-.84-.16-2.56-.6-3.12.13Z"/>
      <path class="cls-2" d="m137.44,64.11c2.54,0,5.18.32,7.42-.39-9.42-.53-20.56-.43-30.07.13,7,.82,15.38.26,22.65.26Z"/>
      <path class="cls-2" d="m267.72,63.85c3.79.5,8.65.19,13.02.39,2.36.11,4.66.5,6.64-.26-6.08-.5-13.61-1.12-19.65-.13Z"/>
      <path class="cls-2" d="m107.64,66.06c-1.15-.63-3.74-.46-4.82.13,1.48.43,3.27.49,4.82-.13Z"/>
      <path class="cls-2" d="m106.07,69.18h7.03c4.65,0,9.48.05,13.41-.65-8.67-.56-18.43-.18-26.94.26,1.95.7,4.24.39,6.51.39Z"/>
      <path class="cls-2" d="m102.43,71.27c.38.66,1.34.61,2.08.65,2.63.16,5.84,0,8.98,0s6.31.31,8.59-.52c-6.02-.53-13.49-.56-19.65-.13Z"/>
      <path class="cls-2" d="m99.83,71.27c-1.1-.21-3.07-.21-4.16,0-.16.03-.08.15,0,.26,1.11.07,3.47.49,4.16-.26Z"/>
      <path class="cls-2" d="m293.49,71.92c-.71-.78-2.15-.72-3.25-.78-4.1-.23-8.62.28-12.23.26,4.15,1.27,10.51.43,15.49.52Z"/>
      <path class="cls-2" d="m292.71,73.87c-1.15-.38-3.88-.54-4.69.26,1.24.1,3.85.48,4.69-.26Z"/>
      <path class="cls-2" d="m101.39,76.73c3.51.44,8.32.36,11.84,0-2.93-.81-8.92-.86-11.84,0Z"/>
      <path class="cls-2" d="m295.83,76.6c-4.22-.34-9.65-.71-13.41.26,4.1.07,9.73.53,13.41-.26Z"/>
      <path class="cls-2" d="m301.56,76.86c-.49-.5-2.03-.24-2.73-.13.18.62,2.37.55,2.73.13Z"/>
      <path class="cls-2" d="m92.02,78.95c-.26-.81-2.94-.73-3.39-.13.68.54,2.55.51,3.39.13Z"/>
      <path class="cls-2" d="m297.78,81.55c-2.08-1.03-7.63-.54-9.5,0,2.88.24,6.69.5,9.5,0Z"/>
      <path class="cls-2" d="m114.4,81.68c-.66-.75-1.87-.35-2.73-.39-8.6-.4-19.2-.31-26.81.39,9.24.85,20.15.27,29.54,0Z"/>
      <path class="cls-2" d="m89.93,84.15c-1.22-.44-4.01-.43-5.08.13,1.2.26,4.12.64,5.08-.13Z"/>
      <path class="cls-2" d="m104.38,86.88c-1.43-.84-3.27-.43-5.08-.52-4.91-.23-11.68-.86-16.66-.26-1.38.17-3.51-.09-4.69.65,8.58.33,18.13.27,26.42.13Z"/>
      <path class="cls-2" d="m298.3,88.58c-1.31.04-2.79-.09-3.51.52,2.49.66,7.4.54,9.5,0-1.41-.73-3.85-.58-5.99-.52Z"/>
      <path class="cls-2" d="m314.18,88.84c-.33-.2-1.36-.2-1.69,0v.39c.62.06,1.54.32,1.69-.39Z"/>
      <path class="cls-2" d="m310.54,89.1c-.73-.05-2.35-.7-2.73.13.51.45,2.36.38,2.73-.13Z"/>
      <path class="cls-2" d="m95.92,91.44c-9.05-.73-20.41-.85-29.28.13,9.21.46,20.32.77,29.28-.13Z"/>
      <path class="cls-2" d="m311.45,91.18c-2.19,0-4.55-.32-5.99.52,2.63.46,7.24.64,10.41.39.63-.05,1.53,0,1.82-.65-1.71-.42-4.03-.26-6.25-.26Z"/>
      <path class="cls-2" d="m68.33,94.04c-.95-.36-3.82-.57-4.56.13.96.34,3.81.58,4.56-.13Z"/>
      <path class="cls-2" d="m298.83,94.17c-.33-.5-1.8-.47-2.08.13.29.46,2.02.69,2.08-.13Z"/>
      <path class="cls-2" d="m294.27,94.17c-.24-.33-1.82-.55-1.69.26.43.44,1.62.58,1.69-.26Z"/>
      <path class="cls-2" d="m307.03,93.91c-2.04.1-4.29-.1-5.99.52,5.71.74,13.65.51,19.13-.26-4-.24-8.75-.47-13.15-.26Z"/>
      <path class="cls-2" d="m319.91,96.13c-2.08-.48-4.29-.37-6.64-.26-7.33.34-15.59-.5-21.86.91,9.34.15,19.99.47,28.5-.65Z"/>
      <path class="cls-2" d="m41.39,99.9c4.02,0,7.75-.1,11.45-.26,2.28-.1,4.68.24,6.64-.52-6.97-.74-15.38.04-22.64.26,1.29.65,2.97.52,4.55.52Z"/>
      <path class="cls-2" d="m306.37,98.73c-2.02.24-4.67,0-6.25.91,7.73-.16,15.84.05,23.3-.39-1-.63-2.49-.48-3.77-.52-4.18-.12-9.33-.48-13.28,0Z"/>
      <path class="cls-2" d="m291.54,99.25c-.08.6.71.33,1.17.39-.03-.56-.82-.51-1.17-.39Z"/>
      <path class="cls-2" d="m296.09,99.51c.73.13,2.18.61,2.47-.26-.66-.18-2.16-.32-2.47.26Z"/>
      <path class="cls-2" d="m54.53,101.59c-4.02-.45-9.27-.33-13.67-.13-1.22.06-2.71-.32-3.64.39,5.25.31,12.46.66,17.31-.26Z"/>
      <path class="cls-2" d="m65.47,101.72c-.26-.42-1.6-.4-1.56.26.3.14,1.64.39,1.56-.26Z"/>
      <path class="cls-2" d="m34.62,101.85c-.33-.36-2.21-.52-2.34.13.47.13,2.08.38,2.34-.13Z"/>
      <path class="cls-2" d="m57.14,101.98c1.17.29,4.14.62,5.08-.13-1.19-.47-4.04-.42-5.08.13Z"/>
      <path class="cls-2" d="m67.94,102.11c.08-.58-.82-.65-1.17-.39v.39c.21.2.96.2,1.17,0Z"/>
      <path class="cls-2" d="m72.62,101.85c-.49-.37-2.56-.51-2.86.13.62.45,2.46.64,2.86-.13Z"/>
      <path class="cls-2" d="m35.14,103.93c-3.91-.26-9.61-.65-13.28.13,3.95.3,9.55.6,13.28-.13Z"/>
      <path class="cls-2" d="m38.26,104.07c8.07.65,17.97,1.26,26.29.39-8.02-.69-18.22-1.02-26.29-.39Z"/>
      <path class="cls-2" d="m311.58,104.33c-4.11.16-8.2-.45-11.72.52,9.46.57,20.81.31,29.42-.39-5.29-.81-11.61-.37-17.7-.13Z"/>
      <path class="cls-2" d="m22.78,106.41c2.54.71,5.45.65,8.33.65,8.98,0,18.34.44,26.68-.13-10.57-1.41-23.61-.61-35.01-.52Z"/>
      <path class="cls-2" d="m308.2,107.06c-3.23-.76-6.84-.39-10.41-.26,1.05.91,3.27.52,5.21.52s4.04.13,5.21-.26Z"/>
      <path class="cls-2" d="m290.11,109.53c5.03.1,10.86.3,16.27.13,4.95-.16,9.86.13,14.32-.52-9.55-.81-21.49-.83-30.59.39Z"/>
      <path class="cls-2" d="m36.44,109.4c-4.6-.46-10.12-.71-15.23-.65-2.75.04-5.62-.01-7.94.65,7.31.21,16.07.86,23.17,0Z"/>
      <path class="cls-2" d="m302.86,111.48c-3.74.18-7.64-.13-10.93.65,8.05.42,17.86.45,25.9,0-4.58-.3-9.84-.89-14.97-.65Z"/>
      <path class="cls-2" d="m313.14,114.87c1.59.32,3.69.06,5.33,0-.85-.83-4.48-.8-5.33,0Z"/>
      <path class="cls-2" d="m306.5,116.56c-3.13,0-6.32-.28-8.85,0-.28.03-1.22-.02-1.3.52,6.71.64,15.86.57,22-.13-3.45-.59-7.57-.39-11.85-.39Z"/>
      <path class="cls-2" d="m3.64,117.08c-.52-.19-1.95-.6-2.21.13.46.15,1.95.34,2.21-.13Z"/>
      <path class="cls-2" d="m5.21,117.34c5.3.34,12.71.69,17.44-.39-5.51-.08-12.52-.53-17.44.39Z"/>
      <path class="cls-2" d="m11.06,119.29c-.48.04-1.37-.05-1.56.52,2.45.18,5.94.31,8.2-.13-1.71-.33-4.51-.58-6.64-.39Z"/>
      <path class="cls-2" d="m323.29,119.81c-.74-.2-2.21-.52-2.6.26.64.22,2.38.62,2.6-.26Z"/>
      <path class="cls-2" d="m273.71,124.89c10.24.13,21.9.56,31.11-.78-10.27.09-21.85-.5-31.11.78Z"/>
      <path class="cls-2" d="m262.51,124.37c-1.2-.33-3.58-.41-4.56.26,1.18.1,3.87.81,4.56-.26Z"/>
      <path class="cls-2" d="m312.36,124.24c-.57.06-1.25-.23-1.56.39,3.35.13,7.46.56,10.67,0-1.94-.81-6.34-.68-9.11-.39Z"/>
      <path class="cls-2" d="m5.73,124.76c.82.23,2.42.19,3.25,0-.36-.79-2.87-.73-3.25,0Z"/>
      <path class="cls-2" d="m16.53,125.15c2.55,0,5.3.2,6.9-.39-.41-.96-1.66-.43-2.47-.39-2.92.14-6.64-.08-9.24.39,1.18.68,3.04.39,4.82.39Z"/>
      <path class="cls-2" d="m266.42,124.5c-.64-.18-2.05-.3-2.34.26.57.19,2.2.63,2.34-.26Z"/>
      <path class="cls-2" d="m267.98,124.63v.39c.83.23,2.47.24,2.99-.26-.65-.32-2.19-.38-2.99-.13Z"/>
      <path class="cls-2" d="m143.82,126.19c-6.11,0-12.36-.29-18.48,0-7.85.37-15.79-.1-23.04.65,18.94,1.27,40.24-.3,58.96.26-5.43-1-11.4-.91-17.44-.91Z"/>
      <path class="cls-2" d="m165.68,126.32c-.4.04-1.12.1-1.43.52,6.19.51,15.6.78,22.26-.13-6.18-.05-14.35-1.12-20.82-.39Z"/>
      <path class="cls-2" d="m227.37,126.71c-2.6-.1-5.07-.39-7.68-.39-7.34,0-14.14.08-20.95.52,5.74,1.04,11.74.13,17.83.39,12.09.51,24.2.13,36.31.13,6.15,0,12.31.31,18.22-.39-10.88-.38-21.94-.52-32.8-.52-3.66,0-7.34.4-10.93.26Z"/>
      <path class="cls-2" d="m294.53,126.45c-6.67.33-13.6-.01-19.91.65,9.99.43,21.38.79,31.37.13,3.42-.23,6.83.28,9.89-.65-6.83-.36-14.71-.46-21.34-.13Z"/>
      <path class="cls-2" d="m190.67,126.71c-.51-.16-2.22-.4-2.34.26.5.11,2.25.46,2.34-.26Z"/>
      <path class="cls-2" d="m193.27,126.71v.39c.82.16,2.46.59,2.99-.13-.64-.38-2.09-.57-2.99-.26Z"/>
      <path class="cls-2" d="m217.35,129.05c-8.5-.46-19.28-.86-28.37-.39-1.65.09-3.34.37-4.82.78,10.59.42,23.01.46,33.19-.39Z"/>
      <path class="cls-2" d="m124.42,129.18c-2.01,0-4.2-.14-5.99.65,8.73.48,17.96.23,27.07-.13,9.18-.37,18.78.69,27.33-.52-15.57-1.25-32.7,0-48.42,0Z"/>
      <path class="cls-2" d="m220.61,129.18c.89.8,2.31.61,3.38.65,4.17.14,8.1-.13,12.1-.13,16.12,0,32.44.53,47.9-.39-20.51-.92-42.75-.53-63.38-.13Z"/>
      <path class="cls-2" d="m21.74,129.31c1.42.92,3.4.65,5.21.65,7.33,0,15.06,0,21.61-.52-8.18-1.14-18.21-.23-26.81-.13Z"/>
      <path class="cls-2" d="m79.13,129.05c-3.45.16-7.01-.16-10.28,0-.97.05-2.2-.1-2.99.52,7.71.71,16.15.26,24.47.26s16.76.46,24.47-.26c-11.18-.66-23.93-1.07-35.66-.52Z"/>
      <path class="cls-2" d="m50.89,129.44c-.36-.33-.72-.46-1.3-.26-.26.75,1.23.66,1.3.26Z"/>
      <path class="cls-2" d="m58.05,129.05c-2.39,0-4.99-.25-6.12.39,2.87.69,7.72.48,10.8.13-.81-.89-2.87-.52-4.69-.52Z"/>
      <path class="cls-2" d="m64.03,129.18v.39c.44.22.95.09,1.43,0,.09-.66-1.04-.62-1.43-.39Z"/>
      <path class="cls-2" d="m176.88,129.31c-.26-.45-2-.44-1.95.26.49.03,1.89.5,1.95-.26Z"/>
      <path class="cls-2" d="m288.8,129.57c6.34.59,14.45.55,20.95.13-6.24-.81-14.59-.95-20.95-.13Z"/>
      <path class="cls-2" d="m15.75,129.83c.6.14,2.64.34,3.25-.26-.64-.26-3.03-.69-3.25.26Z"/>
      <path class="cls-2" d="m180.91,129.57c-.39-.32-2.03-.52-2.21.13.44.37,1.93.42,2.21-.13Z"/>
      <path class="cls-2" d="m156.83,131.66c-8.39.39-17.33-.03-25.64,0-3.54.01-7.04.11-10.28.65,10.52.13,21.86.96,32.54.26,5.19-.34,10.48.56,15.23-.52-3.67-.77-7.81-.58-11.85-.39Z"/>
      <path class="cls-2" d="m177.4,132.18c.08.72,1.05.37,1.43.39,1.78.09,3.53,0,5.34,0,17.03,0,34.47.4,51.02-.13-7.27-.97-15.45-.78-23.82-.78-10.64,0-21.66-.28-32.15,0-.71.02-1.68-.19-1.82.52Z"/>
      <path class="cls-2" d="m59.22,132.44c9.54-.27,18.95,0,28.24,0,6.08,0,12.08.58,17.83-.26-18.62-.84-39.85-.7-58.31-.13,3.33.9,8.05.51,12.23.39Z"/>
      <path class="cls-2" d="m108.29,132.31c2.04.57,5.33.24,7.29-.13-1.79-.5-5.83-.66-7.29.13Z"/>
      <path class="cls-2" d="m171.54,131.92v.52c1.08.17,2.56.43,3.51,0-.41-.87-2.63-.56-3.51-.52Z"/>
      <path class="cls-2" d="m249.24,131.92c-.29,1.2,1.39.77,1.95.78,14.94.23,30.62.68,44.77-.13-14.52-1.19-31.53-.57-46.73-.65Z"/>
      <path class="cls-2" d="m39.57,132.31c1.03.36,2.94.62,4.03.13-.44-.97-3.34-.57-4.03-.13Z"/>
      <path class="cls-2" d="m242.47,132.57c1.53,0,3.19.3,4.04-.39-2.36-.2-6.1-.65-8.2.13.98.47,2.69.26,4.16.26Z"/>
      <path class="cls-2" d="m33.84,132.7c.87-.13,2.33.33,2.6-.39-.74-.18-2.37-.35-2.6.39Z"/>
      <path class="cls-2" d="m245.85,134c-3.28,0-6.59-.33-9.37,0-.44.05-1.57-.02-1.17.65,1.44.69,4.33.26,6.25.26,10.2,0,22.13.5,31.76-.52-8.08-.62-18.61-.39-27.46-.39Z"/>
      <path class="cls-2" d="m202.78,134.91c.62.51,2.08.48,2.86.13-.1-.87-2.56-.67-2.86-.13Z"/>
      <path class="cls-2" d="m229.46,135.17c-4.8-.52-11.17-.63-16.4-.39-1.38.06-2.83-.22-3.91.52,6.19.33,14.42.61,20.3-.13Z"/>
      <path class="cls-2" d="m138.61,33.52c-3.19-1-10.26-.86-14.19-.26,3.97.87,10.19.2,14.19.26Z"/>
      <path class="cls-2" d="m113.1,61.25c6.82.63,15.81.48,22.39.13-6.49-.87-15.7-.71-22.39-.13Z"/>
      <path class="cls-2" d="m26.29,122.81c.19.59.34,1.22.65,1.69-.67.11-1.86-.29-1.95.39.98.54,2.98.05,3.9.65.5.06.27-.6.91-.39,4.8.8,11.45-.42,16.66.13,2.03.21,3.73.8,5.47.39,1.02-.24,1.85-.96,2.73-1.17,1.26.93,3.59.97,4.69-.13,1.26,1,3.27,1.24,4.82,1.95-12.31.17-25.65.28-38.39.26-4.56,0-9.59-.61-13.8.39,7.62,1.06,16.36.02,24.73.39,4.02.18,8.24-.05,12.36.13,5.86.26,11.62-.67,17.18-.26,11.1.81,23.07-.17,34.1-.13-1.21-.5-2.68-.7-4.03-.78-9.8-.61-20.75.7-30.56-.1,1.39-.02,2.51-1.42,3.62-1.59,2.2-.35,5.16.6,7.68.78,1.4.1,2.81.1,4.16,0,1.51-.11,2.83-.83,4.29-1.04,1.62-.24,3.58.08,5.47,0,3.62-.15,7.86.49,11.71.65,2.84.12,5.4.54,7.94.26.82-.09,1.55-.48,2.34-.52,4.6-.23,9.6-.08,14.45.13,8.3.36,16.88,0,24.86,0,1.75,0,3.58-.2,4.95,0,1.08.16,2.56,1.08,4.03.91.87-.1,1.79-.91,2.73-1.04,1.85-.25,3.84.8,5.73.65.87-.07,1.51-.68,2.21-.78,1.21-.18,2.03.49,3.26.65.92.12,1.79-.18,2.73-.26,3.24-.27,6.69.18,10.15.13,3.33-.05,6.72-.12,10.15-.26,7.03-.3,13.96.13,20.82.13,12.63,0,25.3.34,36.96-.78-8.34-.69-18.18.13-26.55-.52,2.29.22,4.43-1.66,6.38-1.69.94-.02,1.95.57,2.86.65,2.49.22,4.85-.45,7.55-.65,3.45-.26,7.28.1,11.06.26,6.26.26,12.94-.5,18.87,0,5.54.47,10.47,1.68,15.62.52.61-.14,1.09-.47,1.69-.52,4.52-.36,9.81.26,14.58.26,4.43,0,8.84.28,13.02-.39-8.79-.99-18.42-.61-27.2-.78.14-.34.16-.8.13-1.3,8.26.06,17.47.26,25.12,0-.54-.54-1.6-.59-2.34-.65-7-.53-15.1-.34-22.78-.39-.72-2.01-3.71-2.45-4.29-4.17,6.77-.09,14.62.23,20.56-.26-4.32-.51-9.36-.65-14.06-.65-4.48,0-8.46.65-10.54-1.17.5-.93,2.61-.25,3.64-.65-.05-.9-1.53-.38-2.34-.52.91-1.43,2.01-2.67,2.08-4.95,1.09-.47,1.93-1.16,1.95-2.34.03-1.62-1.32-1.79-1.69-2.47,7.63.09,15.48.29,22.91-.13-7.02-1.15-15.45-.46-22.91-.65.11-2.02-.41-3.41-.91-4.82,1.02-.98,1.75-2.24,2.08-3.9,3.61.33,8.38.08,11.45-.13-1.22-.93-3.53-.65-5.6-.65s-4.37,0-5.99,0c0-2.39-1.7-3.76-2.6-4.82,8.11-.12,16.31.46,23.95-.26-7.73-.98-17.34-.67-25.77-.52.26-.34.14-1.08.39-1.43,6.83.25,14.24.04,20.56-.13-.32-.61-1.25-.46-1.82-.52-5.82-.59-13.13-.17-18.87-.13-.41-2.1-1.46-3.57-3.38-4.16,6.28-.15,13.73.42,18.74-.65-6.85-.56-15.04-.21-22.13-.13-.21-.48-.22-1.17-.39-1.69.77-.1,2.01.27,2.21-.39-.36-.55-1.69-.13-2.47-.26-.14-.86-1.11-1.57-1.04-2.21,2.7-.08,5.71.16,8.2-.13-1.16-.78-2.52-.67-4.03-.78-1.44-.11-3.37.28-4.56,0-.69-.16-1.15-1.07-1.95-1.69-.64-.49-1.62-1.13-2.34-1.3-2.36-.55-3.53.87-6.12.65-.02-.59-.39-1.52-.26-1.82,7.09.11,14.94.31,21.6-.39-6.62-.71-14.84-.37-21.87-.26-.34-.66-1.33-1.35-1.3-1.95,6,.03,12.78.48,18.09-.52-6.46-1.08-15.3.26-21.6-.65-.58-1.85-1.93-2.93-3.51-3.77,5.58-.19,11.95.41,16.92-.39-7.41-1-16.42-.41-24.47-.78-.26-.39-.73-1.26-.65-1.56,4.23,0,8.54.06,12.88-.13,3.73-.16,8.33.41,11.06-.39-7.68-.95-16.33-.22-24.6-.26-.56-.48-1.41-1.36-1.56-1.82,2.66-.14,5.37.46,7.55-.26-2.38-.88-5.93.2-8.46-.39-1.06-.25-1.59-1.34-2.47-1.43.49-.9.89-1.89,1.17-2.99,2.25-.13,5.1.33,6.77-.39-1.82-.56-4.77,0-6.77-.39.65-.89.89-2.6.39-3.9,8.98.04,18.43-.14,26.29-.78-8.21-.86-17.74-.17-26.42-.26-.04-.57-.15-1.07-.26-1.56,9.02-.11,18.23.44,25.9-.65-8.37-.48-17.38-.32-26.16-.39-.19-.55-.82-1.35-.78-1.69,2.88-.15,6.55.2,9.37,0,1.16-.08,2.46-.06,3.13-.65-4.08-.54-8.52.04-13.02-.13.52-1.22.94-2.53.78-4.42,1.42-.01,2.98.12,3.9-.39-1.07-.32-2.5-.28-3.9-.26-.12-.44-.37-1.45-.26-1.69,5.38,0,10.81.05,15.49-.65-4.96-.5-11.24.19-16.01-.26-.3-.6.09-1.18.26-1.69,5.07-.18,10.91.41,15.36-.39-4.89-.23-10.21-.57-15.23-.26.08-.61-.17-1.56.13-1.95,3.41.11,6.98-.16,9.89-.13-.22-.58-1.06-.48-1.56-.52-2.54-.22-5.96-.03-8.46,0-.04-.57-.65-1.25-.39-1.69,6.95.24,14.34-.13,20.82-.78-6.79-.39-14.86-.45-21.47.13-.29-.45-.74-.74-.65-1.56.96-.6,2.37-.26,3.64-.26,4.24,0,8.98.18,12.5-.39-4.51-.7-10.14-.27-15.23-.39.98-1.1,1.54-2.62,1.56-4.69,3.54.29,7.75.12,11.32,0-3.04-.91-7.52-.37-11.32-.52-.33-.84-1.35-1.69-1.69-2.08,3.94.13,8.78.27,12.1-.13-3.81-.74-8.87-.24-13.02-.65-.41-.45-.6-1.14-.91-1.69.39-.13,1.32.28,1.3-.26-2.19-.11-3.09-1.51-4.69-2.21,2.89-.13,6.78.28,8.85-.26-3.73-.52-8.14-.37-12.36-.39-.37-.55-1.23-1.28-1.3-1.69.64-.06,1.58.19,1.69-.39-.76-.61-1.86-.07-2.6-.26-1.15-.3-1.83-1.7-2.99-1.82,4.54-.32,10.02.3,14.06-.52-7.55-1.02-15.53.47-23.3,0-7.88-.48-16.02-.62-23.43.13,5.84.49,11.28.22,17.05.39-.82.44-1.08,1.44-1.82,1.95-4.85-.17-12.22-.79-16.14.26,4.54.4,9.67.22,14.58.26-.86.47-1.35,1.58-2.34,1.82-1.8.43-4.34-.13-6.64-.13-6.63,0-14.33-.29-19.91.39,8.2.74,17.63.25,26.42.39-.37.67-.57,1.51-.91,2.21-1.36.28-3.32-.59-3.77.39,1.01.29,2.55.05,3.77.13-.06.63.14,1.52-.13,1.95-6.74.24-14.46-.49-20.56.39,4.91.63,12.19.31,17.44.52.87.03,3.4-.64,3.25.91-8.18.13-17.71-.26-25.51.65,7.92.5,17.02.5,25.25.26-.45.81-.91,1.6-1.56,2.21-4.14.2-9.14-.47-12.49.52,3.75.33,8.7.15,12.1.39.09.61-.2.84-.26,1.3-5.7.12-12.92-.17-18.48.52,4.74.51,11.45.18,16.53.26.51,0,1.57-.34,1.82.39-1.06.65-2.3.16-3.64.52-.85.23-1.46,1.03-2.21,1.17-1.48.29-3.39,0-5.07,0-3.68,0-7.3.2-10.93.13.1-1.01-.12-1.7-.39-2.34.73-.22,1.96.43,1.95-.26-.61-.64-1.52-.09-2.47-.26-1-.18-1.66-.84-2.6-.78-1.02.06-1.58.73-2.47,1.04-.19-.51-.96-1.12-.78-1.56,2.41-.37,5.8.25,7.68-.65-2.43-.67-5.51.08-8.33-.13-.98-.72-2.35-1.73-2.99-2.34,2.05-.29,4.71.02,6.77-.26-.5-.58-1.39-.49-2.08-.52-3.98-.2-8.99.12-12.5.26-1.17-.61-2.6-.96-3.77-1.56,4.3.04,8.53,0,12.89,0,2.97,0,6,.31,8.46-.52-7.79-.3-17.3-.51-25.25-.13-.99.05-2.52.04-2.73.52,1.72.32,3.98.1,5.73.39-.89.27-1.42-.16-2.34,0-.88.15-1.58,1.01-2.34,1.17-2.4.51-5.93,0-8.98,0s-6.18.01-8.98.13c-2.65.11-5.3-.27-7.55.52,8.08.3,16.7.05,24.99.13-.26.7-.56,1.35-.91,1.95-8.4-.03-17.73-.66-25.51.39,7.84.29,16.98.13,25.25.39-.06.64-.17,1.21-.26,1.82-2.72.83-4.15,3.91-3.51,7.29-7.84.15-16.32-.35-23.17.65,6.83.45,15.15.37,22,0-.42.67-.67,1.5-1.3,1.95-2.63.23-6.21-.48-8.2.39,2.33.58,5.71.11,8.2.52.13,1.5-1.33,1.29-2.34,1.3-8.54.13-17.89-.22-25.25.78,8.04.53,16.77-.1,25.12.13-1.18,1.16-2.17,2.52-2.6,4.42-5.78-.08-12.54-.25-18.22,0-1.13.05-2.75-.3-3.51.52,6.96.65,14.93.17,21.99.39.77,2.35-1.18,2.8-1.82,4.42-1.63.18-3.71-.61-4.82.26,1.26.52,3.49.06,4.82.52v1.56c-2.9.01-5.91-.09-8.46.26.1.55.83.48,1.17.52,2.11.26,5.07-.14,7.29.13.44.56.75,1.25,1.56,1.43h-4.16c-1.38,0-3.09-.33-3.64.65,2.65.21,5.57.15,8.33.26.29.46,1.05,1.12,1.04,1.43-10.06.22-20.4.17-30.07.78,10,1.01,21.73.32,32.15.26-.08.52.17,1.38-.13,1.69-3.58.15-7.51-.05-10.8.39,2.82,1.08,7.34.47,11.06.65.11.54.25,1.05.26,1.69-8.54-.12-17.5.11-26.16.26,1.07,1.11,3.84.56,5.86.65,6.57.3,13.71-.22,20.69,0-.04.57.59,1.14.39,1.43-2.73.26-6.26-.27-8.46.52,2.04,1.04,6.44.41,9.11.39.76.67,1.4,1.46,2.21,2.08-.49.37-.53,1.2-1.04,1.56-2.35.14-4.8.02-7.29.13-9.05.4-18.95-.12-27.98.39-.77.04-1.7.1-2.34.52,12.01,1.07,25.73.04,37.61.52.06,1.07-1.11.77-1.69,1.04-.82.37-1.09,1.08-1.69,1.56-2.68-2.14-6.87-2.29-10.02-.78-1.12.54-2.36,2.34-3.25,2.6-2.66.79-5.45-.83-7.68.52,2.03.58,5.17.04,7.29.52-.25,1.58-2.19,1.04-3.25,1.04-9.76,0-20.82-.02-30.2.39-1.63.07-3.56-.25-4.94.52,11.47.57,24.09.19,35.66,0-1.24.75-1.66,2.33-4.04,1.95-1.24.49-1.82,1.64-2.6,2.6-8.85-.08-18.51-.44-26.81.39,8.3.81,18.05.17,26.68.65-1.27,1.42-3.8,1.58-6.12,1.95-.08.81,1.39.08,1.69.52-.6,2.37-3.97,1.42-7.03,1.56-5.46.26-12.18-.32-16.4.78,6.89.53,14.82.02,21.87.39.02.54-.23.82-.13,1.43-1.55-.23-2.41,1.66-3.64,1.95-1.7.41-4.47,0-6.9,0-6.52,0-14.49.01-20.43.26-1.85.08-3.38-.21-4.56.52,9.97.53,20.85.14,31.24.26-.23.6-.57,1.07-.91,1.56-4.42.13-9.18-.07-13.14.52,1.27.95,3.43.44,5.21.52,2.55.11,5.18.1,7.55,0-.23.59-.4,1.25-.65,1.82-10.11.47-20.75-.31-30.72.13-2.5.11-5.1-.31-7.42.52,12.57.51,25.63.23,38.13.52-.04,2.41-2.45,1.64-4.3,1.56-3.8-.16-8.95.37-12.62.13-8.6-.55-18.74-.78-27.72-.39-3.64.16-7.16-.24-10.28.65,10.64.45,21.67-.29,31.89.52-.65.48-1.18,1.13-1.95,1.3-2.83.63-7.23-.26-10.93,0-3.67.26-7.97-.1-10.93.78,6.85.34,14.08.28,21.08.13-.53.64-.88,1.47-1.56,1.95-2.41.33-6.18-.72-7.55.65,1.98.57,5.12,0,7.29.39-.27.33-.28.94-.52,1.3-4.88.15-10.22-.16-14.45.65,3.91.44,8.79.26,12.76.39.44.01,1.43-.33,1.56.39-.21.78-1.37.42-1.95.39-.82-.05-1.68-.26-2.47-.13-.91.15-1.6.9-2.34,1.04-4.6.87-9.64-.95-14.06.26,3.65.99,8.97.31,13.28.65-.57.51-.71,1.46-1.43,1.82-3.76-.25-7.81-.08-11.84-.26-7.15-.31-15.16-.66-20.82.39,11.08.11,21.81.57,32.54,1.04-.78.35-1.22,1.04-1.82,1.56-1.95.22-4.8-.46-6.12.39,1.61.56,4.28.05,5.99.52.1.54-.2.67-.13,1.17-4.06-.49-8.41.66-12.1,0-.49-.09-.94-.46-1.43-.52-2.24-.26-4.19.65-5.99,1.04-.67-.5-1.53-1.5-1.69-2.08,4.77-.16,10.19.63,14.45-.26-7.14-.58-14.88-.78-22.39-.78-8.34,0-16.97-.52-25.12.26,7.03.78,14.99.63,22.78.65-.63.48-.74,1.11-1.43,1.3-1.98.57-5.35-.11-7.81,0-8.37.37-16.59.13-24.6.39.84.79,2.25.61,3.38.65,9.36.35,19.64-.27,28.37,0-.82,1.36-2.27.12-3.9.39-1.18.19-1.92,1.39-2.86,1.56-1.83.33-4.17-.71-5.86.39,1.48.48,3.73.18,5.6.26-.38.62-.7,1.29-.78,2.21-1.18.34-1.46,1.58-2.34,2.21-7.83.62-16.19-.79-23.82,0-.88.09-1.82.38-2.73.65,8.02.67,17.5.05,26.29.26Z"/>
      <path class="cls-1" d="m226.46,5.8c-1.19.51-2.64.75-3.77,1.3.08-.6-.87-.86-.65-1.17,1.52,0,2.82-.22,4.43-.13Z"/>
      <path class="cls-1" d="m183.38,26.5c3.71-.2,8.21.2,12.1-.13-.69,0-1.14,1.4-2.21,1.69-.9.25-2.44-.07-3.77-.13-3.16-.14-5.45.58-6.12-1.43Z"/>
      <path class="cls-1" d="m184.95,28.58h1.82c-.38.44-1.02.62-1.56.91.09-.48-.28-.5-.26-.91Z"/>
      <path class="cls-1" d="m146.94,49.4c.39.43.77.87,1.04,1.43-.48-.34-.87-.78-1.04-1.43Z"/>
      <path class="cls-1" d="m240.78,57.21c2.95.18,6.12,2.28,7.55,3.9.17.2.02.77.52.65.26,1.21.69,2.26,1.69,2.73.98-.66,1.99-1.31,3.77-1.17-.54.37-1.57.25-1.56,1.17,1.21.12,2.53-.53,3.64-.39,2.13.27,2.63,2.14,4.03,3.25,1.55-.29,2.34.27,3.51.65,1.18.99.65,3.69,1.56,4.95,2.5-.08,5.71-.88,7.55.52.41.32.82.91,1.17,1.3.36.39.97.82.78,1.17-3.66-1.8-8.09.22-8.72,3.51-.84-1.44-3.12-1.91-5.08-1.17-.56-5.23-4.7-8.2-10.8-7.03.59-3.99-.91-6.97-3.25-8.46.5,2.45,2.47,4.55,1.95,8.46-.77-.23-1.23-.76-2.34-.65.25,1.58,1.93,1.88,2.86,2.86,1.08,1.13,1.07,2.8,2.21,4.04,1.73-1.26-.47-3.86-.78-4.69,4.66-.49,6.68,1.04,7.94,4.17.34.86.16,1.99.65,2.6,1.26,1.58,3.85-.35,5.47.91.51,1.01.66,2.38,1.04,3.51,1.9.31,3.86-.64,5.6,0,1.46.54,1.92,2.64,3.38,2.99,1.19-4.09-4.71-6.29-7.94-4.03-.71-2.82.61-5.72,3.64-5.99,1.9-.17,4.72.47,5.73,1.95.65.96.57,2.11.91,3.38,2.09-.45,4.65-1.72,6.12,0,.83.98.64,2.43.78,4.29,2.11,1.28,4.77,2,4.16,5.99-.3.53-.62,1.03-.91,1.56-.8-.04-1.33.33-1.69,1.04,1.32,2.24,1.74,5.38,2.6,8.07.18.54.82-.36,1.04.39.38,1.01-.86,1.71-1.56,1.69-.48,1.41-.76,3.23-1.69,4.42-.44.56-1.64,1.7-2.34,1.69-1.65,0-3.05-3.23-4.69-3.51,1.67-1.27,2.3-6.28.52-7.94-.33,2.53-.51,5.21-1.17,7.42-.97-.95-2.12-.1-3.25-.26-1.43-.2-3.13-2.53-4.95-2.86-1.8-.33-3.44.03-5.21.78-.89-1.28-2.2-1.82-3.9-2.86-1.66-1.02-2.62-2.29-5.08-1.43-.96-1.47-4.46-2.21-6.25-.91-1.06-.83-2.1-.38-3.38-.65-1.33-.28-2.49-1.83-4.03-2.08-1.45-.24-2.65.18-4.29.65-.84-1.03-1.83-1.9-3.25-2.34-.17-1.7-.37-3.36-1.3-4.3.28-.15.42-.45.52-.78-.15-2.62.68-4.27,1.43-5.99-1.96.78-2.4,3.75-2.08,6.38-.38-.18-.53-.6-.91-.78.28-2.11.46-4.31,1.43-5.73-1.66.21-1.8,3.06-1.95,5.21-1.06-.72-2.46-.61-4.03-.39-.48-4.39-8.71-4.42-9.5-.26-.62-.08-1.2-.19-1.95-.13.05-.65.36-1.02.39-1.69,2.69-1.64,4.66-5.81,3.38-10.15,1.2-1.21,1.6-3.83,1.43-5.99,3.79-.03,5.85-1.79,6.9-4.55.8.03,1.48.04,2.08-.26,2.13-1.07,4.11-3.24,4.42-5.99,2.06,1.06,5.23-.45,5.47-2.86Zm-3.51,6.77c1.11-.24,2.2-1.36,3.65-1.82.53-.17,1.45.19,1.43-.78-1.99-1.38-5.24.59-5.08,2.6Zm.52,5.99c.99-1.54.65-3.73,1.69-5.21.59-.85,2-1.25,1.82-2.08-2.78.72-4.14,4.01-3.51,7.29Zm1.56,2.08c.75-1.55.8-3.34,1.43-4.95.62-1.57,1.64-2.74,2.21-3.9-2.69,1.25-4.53,5.71-3.64,8.85Zm5.08-7.94c-1.87,2.24-3.75,5.06-3.39,9.11,1.03-1.27,1.22-3.01,1.82-4.56.62-1.58,1.4-3.06,1.95-4.56h-.39Zm-10.54,4.03c-1.15.25-1.94,1.51-2.21,2.21.76-.08,1.68-1.08,2.99-1.04.7-.83.73-2.99.52-4.29-1.21.27-1.29,1.66-1.3,3.12Zm20.3-1.04c.96-.31,3.17-.46,4.55-.78-.71-1.98-4.28-.78-4.55.78Zm-9.5,2.34c1.06-.44,1.32-2.28,1.43-3.25-1.19.3-1.53,2.1-1.43,3.25Zm15.36-.13c.89-.13,2.42,1.02,3.38.39.14-1.89-2.84-1.14-3.38-.39Zm-37.74,8.59c1.63-.04,1.01-3.7,0-3.9-.39,1.35.13,2.76,0,3.9Zm31.63.91c.31.24.87-.09,1.3-.13.12-.92-1.47-.76-1.3.13Zm-16.27,3.38c-1.13,1.87-1.98,4.69-2.08,7.16,1.17-.43,1.13-2.09,1.43-3.25.34-1.32.69-2.65,1.04-3.77-.17,0-.18-.17-.39-.13Zm-1.04,8.59c2.16-.88,2.48-4.72,2.86-7.81-.19-.03-.22-.21-.39-.26-.86,2.66-1.28,5.74-2.47,8.07Zm1.95.39c1.8-.59,2.19-4.4,2.34-6.64h-.39c-.61,2.25-1.24,4.48-1.95,6.64Zm11.58.78c1.72-.77,2.23-3.39,1.95-5.73-.17,0-.18-.17-.39-.13-.38,2.09-1.22,3.73-1.56,5.86Zm1.3.52c1.98-.87,2.58-3.71,2.34-6.38h-.39c-.14,2.64-1.25,4.31-1.95,6.38Zm-11.32-1.04c1.43-.61,2.14-3.06,2.47-5.21h-.39c-.35,2.08-1.62,3.24-2.08,5.21Zm12.62,1.82c1.57-.44,2.73-3.07,2.6-5.21h-.39c-.55,1.92-1.72,3.23-2.21,5.21Zm-10.8-1.17c1.58-.33,2.21-1.6,2.47-3.26-.17,0-.18-.17-.39-.13-.56,1.27-1.68,1.96-2.08,3.38Zm43.73-2.86c-1.29,1.53-3.23,2.42-4.69,3.77,2.56-.39,4.06-1.84,5.21-3.64-.18-.04-.25-.19-.52-.13Zm-9.76.65c-.12.6.32.63.26,1.17.81.04.89-1.48.13-1.56-.13.13-.26.26-.39.39Zm-21.6,4.16c.92.34,2.12-1.26,2.47-2.21.16-.42.59-1.41-.13-1.56-.68,1.36-1.74,2.34-2.34,3.77Zm25.9,1.3c3.13.04,5.07-2.21,6.38-4.42-2.04,1.56-4.11,3.1-6.38,4.42Zm-1.43.91c1.66-.29.73-2.77.91-4.29-.17,0-.18-.17-.39-.13-.38,1.19-.63,3.18-.52,4.42Zm-37.61,0c1.83-.47,3.06-1.54,3.77-3.12-1.85.45-2.72,1.88-3.77,3.12Zm13.54.78c1.97-.42,3.71-1.75,3.64-3.77-1.45,1.02-2.53,2.41-3.64,3.77Zm30.72-2.86c-1.13,1.69-3.84,1.8-5.08,3.38,2.55.15,4.52-1.37,5.47-3.25-.17,0-.18-.17-.39-.13Zm-12.75,9.5c1.29.06,2.2-1.36,2.73-2.47.69-1.46,1.32-3.35,1.3-5.21-.17,0-.18-.17-.39-.13-.73,3.09-2.14,5.49-3.64,7.81Zm.52-7.03c-.22.44-.06.89-.13,1.3-.37,2.04-1.63,3.53-1.95,5.08,2.19-.3,2.91-3.83,2.6-6.64-.17,0-.18-.17-.39-.13,0,.17-.17.18-.13.39Zm-3.64,5.86c1.77-.44,2.98-3.94,2.34-5.99-.03-.1-.11-.15-.26-.13.17,2.9-1.33,4.13-2.08,6.12Zm11.84-3.25c2.08.22,3.69-.83,4.3-2.47-1.29.46-3.13,1.46-4.3,2.47Zm-15.1,2.99c1.09.28,1.69-.91,2.21-1.69.66-.99,1.44-2.05,1.3-3.51-.17,0-.18-.17-.39-.13-.54,2.2-2.37,3.78-3.12,5.34Zm-1.43-4.95c-.95,1.34-2.93,1.67-3.64,3.25,1.9.48,3.57-1.43,4.03-3.25h-.39Zm-1.3,4.95c2.39-.48,3.43-2.3,3.9-4.69-.17,0-.18-.17-.39-.13-.51,2.19-3.25,2.81-3.52,4.82Zm12.24,1.56c-.55.62-1.57.87-1.56,1.82,1.63.33,2.6-1.31,3.25-2.47.71-1.25,1.61-2.93,1.43-4.42-.17,0-.18-.17-.39-.13-.74,1.82-1.57,3.88-2.73,5.21Zm7.03-2.6c1.08.44,2.63-.59,3.12-1.56-1.25-.19-2.8.4-3.12,1.56Zm1.69,1.43c.55.55,1.82.15,1.82-.65-.52-.52-1.82-.15-1.82.65Zm-1.56,3.38c.93.14,3.21.78,3.51-.39-.6-.69-3.37-.63-3.51.39Zm-.65.78c-.25,1.21,3.24,2.46,3.9.78-1.03-.46-2.92-.71-3.9-.78Z"/>
      <path class="cls-1" d="m235.31,57.34c1.16.19,2.28.41,3.64.39-.59,1.15-1.8,1.68-3.51,1.69-.03-.71.09-1.56-.13-2.08Z"/>
      <path class="cls-1" d="m252.23,61.51c-.41.19-.73.48-1.3.52-.06-.67.74-.48,1.3-.52Z"/>
      <path class="cls-1" d="m162.04,65.15c-2.55,2.31-4.6,5.12-5.08,9.5-.42.26-1.44.19-1.3-.52.49.96.83-1.56,1.04-2.34.83-3.14,2.25-6.1,4.16-7.68.72.02.63.85,1.17,1.04Z"/>
      <path class="cls-1" d="m151.36,64.5c.27.08.42.27.65.39-.51.96-.74,2.21-.78,3.64-.57-.97-.23-3.15.13-4.03Z"/>
      <path class="cls-1" d="m152.54,65.28c.55-.07.73.23,1.17.26-.38,1.27-.8,2.5-.78,4.16-.42-.06-.46-.5-.91-.52-.06-1.53.23-2.73.52-3.9Z"/>
      <path class="cls-1" d="m158.78,65.41c-1.34,2.04-2.91,4.99-3.12,8.59-1.3-2.43.06-6.08,1.04-8.2.87.05,1.45-.2,2.08-.39Z"/>
      <path class="cls-1" d="m155.66,65.8c-.5,1.59-1.28,2.88-1.3,4.95-.35.36-.32-.34-.78-.26.51-1.09-.15-5.5,2.08-4.69Z"/>
      <path class="cls-1" d="m213.45,89.23c-.56.4-1.23.68-1.69,1.17-.29-.32-.64-.57-.78-1.04.68-.19,1.61-.12,2.47-.13Z"/>
      <path class="cls-1" d="m106.72,97.43c-.54.5-1.16.93-1.82,1.3-1.76-.58-3.11-1.16-5.08-.65-.89.23-1.87,1.26-2.6,1.17-1.04-.13-1.02-1.39-2.08-1.56,3.65-.29,7.63-.27,11.58-.26Z"/>
      <path class="cls-1" d="m238.7,98.47c2.17-.14,3.91.16,4.95,1.17-1.18.6-2.49,1.06-3.9,1.43-.3-.92-.71-1.72-1.04-2.6Z"/>
      <path class="cls-1" d="m59.87,115.26c2.38-.39,5.05.07,7.55,0-.7.52-1.49.94-2.08,1.56-1.38-.23-2.75.31-3.77,0-.91-.28-.93-1.31-1.69-1.56Z"/>
      <path class="cls-1" d="m62.47,117.6h2.34c.21.3-.22.84-.39,1.17-.96-.08-1.49-.59-1.95-1.17Z"/>
      <path class="cls-1" d="m292.06,120.46c-6.63.31-14.99-.35-22-.13,2.44-.2,5.32-.98,8.2-.78,3.69.26,6.94,1.05,9.89.65.97-.13,1.71-.64,2.6-.91.17-.05.17-.39.39-.39.51,0,.84.58.91,1.56Z"/>
      <path class="cls-1" d="m249.11,121.38c2.4-.66,6.24-.21,8.98,0-3.15-.02-5.9-.2-8.98,0Z"/>
      <path class="cls-1" d="m155.4,124.11c-10.72-.07-25.08-.35-36.44-.13-1.48.03-4.19-.08-4.81,0,4.63-.57,9.51.08,13.41-1.3,2.34.56,4.91,1.56,7.68.78.79-.22,1.45-1,2.21-1.17,1.72-.4,3.42.3,4.94.39,2.17.13,4.64-.48,6.38-.91,1.84.37,3.11,1.31,5.47,1.17.17.53,1.2.88,1.17,1.17Z"/>
      <path class="cls-1" d="m213.06,123.85c1.93-.98,4.96-.76,7.29-.26,1.1.06-.04.12-.13.13-2.29.14-4.98-.07-7.16.13Z"/>
      <path class="cls-1" d="m180.26,123.46c5.48,1.06,11.22-.15,17.44.39h1.43c.39-.09,1.21.12.39.13h-2.73c-5.67.23-11.49.31-17.31.39-.58-.17.59-.66.78-.91Z"/>
      <path class="cls-1" d="m28.89,124.24c-.02-.15.03-.23.13-.26h8.2c.28-.01,1.63-.03.91.13-2.95.22-5.93.4-9.11.39.02-.15-.03-.23-.13-.26Z"/>
      <path class="cls-1" d="m217.35,69.84c.41,2.84.06,5.93-.91,7.81,2.09-.52,1.95-4.69,1.56-7.42,1.75-.01.92,3.03,1.17,4.69.12.64-.55.49-.52,1.04.75,3.27.26,7.4-1.56,9.24-.08-.66-.26-1.22-.52-1.69-1.4.85-.73,3.78-1.82,4.95-1.57-.53-4.41-.42-5.08.78-.67-.29-1.21-.69-1.95-.91,1.74-2.73,4.19-5.44,4.42-9.24-1.57,3.33-3.13,6.67-5.6,9.11-2.08-.17-3.53.29-4.95.78.4-2.38,1.64-3.92,2.47-5.86,1.42-.62,2.15-1.93,2.86-3.26-1.3.66-2.4,1.66-3.64,2.47-1.23.8-2.81,1.04-3.77,2.21,1,.18,2.2-.58,3.25-.78-.61,1-1.11,2.14-1.56,3.38-.44,1.21-.58,2.66-1.69,3.25-.46-2.37.89-4.06,1.56-5.73-1.63.8-2.67,3.31-2.47,6.38-.32.16-.51.45-.65.78-.36-1.88.47-3.7.78-5.34-2.32,1.8-1.15,7.1-2.86,9.5-2.12-.49-3.83.49-4.42,1.95-1.76-2-5.19-4.64-9.37-2.86-1.04.44-4.19,2.76-4.82,3.77-.41.68-.45,1.47-.91,1.95.46.29.73-.51,1.04-.78.24.23.18.77.78.65,1.36-1.03,2.12-3.15,3.9-3.9,2.52-1.07,4.84.4,6.9,1.17.78.65,1.15,1.72,2.08,2.21,1.36-.74,2.22-2.61,4.68-1.82.16.62.03,1.54.65,1.69.64-.41.49-1.59,1.17-1.95-.7-6.88,8.59-10.2,13.8-5.99,1.22-.81,2.4-1.46,4.03-1.56,2.38-.15,5.01,1.88,6.9.52,0-1.25-.96-1.56-2.08-1.69.75-1.32,2.61-1.97,4.29-1.43,1.13.36,1.54,1.63,2.47,1.82.15.25.01.64.26,1.04,1.69-.24,3.01-.32,4.03.52.59.49,1.7,1.81,1.95,2.34.35.73.18,1.72.52,2.47.41.92,1.26,1.04,2.08,1.82,1.14,1.08,1.5,2.61,1.95,4.03-3.93-.72-6.25,1.18-6.25,4.82-4.05-.18-6.59,1.81-5.86,5.99,1.12.16.58-1.33.91-1.95.59-1.95,3.93-2.8,5.99-1.69.79-1.5.18-3.39,1.3-4.55.99-1.04,4.33-1.5,5.21,0,2.13-1.51,4.96-3.67,8.46-3.25,2.07.24,4.08,1.57,6.25,1.56-.04-1.18-1.6-1.52-1.69-2.21,3.48-.01,3.71,3.23,5.99,4.42.84-1.27-.44-2.57-.91-3.38,2.69,1,4.93,2.45,6.77,4.29-.72.89-2.11,1.11-2.34,2.47,1.26.26,2.32-1.05,3.64-1.56,1.05-.41,2.83-1.04,4.56-.65,2.91.66,4.28,5.21,7.68,4.29.17-1.26-.63-1.54-.91-2.34,3.15,1.14,5.05,4.1,7.55,5.99,1.64,1.24,4.13,1.96,4.68,4.3-5.26.7-11.37.23-17.83.52-6.74.31-13.75,1.04-20.3,1.04-4.55,0-8.89,1.46-13.02.52-.54.09.14-.46-.26-.65-.84-.33-1.7-.49-2.86-.13-2.28.71-5.45,1.79-8.33,2.08-1.45.15-3.08-.19-4.68-.26-1.61-.07-3.32.16-4.42-.52-5.43.22-9.32,1.58-15.49,1.3-6.22-.28-12.6.41-18.61-.26-1.08-.12-2.2-.49-2.99-1.17-1.86-.16-3.35,1.68-5.47.52-.13-.28.34-1.03.65-1.82.49-1.26,1.22-2.91.52-4.82-.69.53-.36,1.41-.52,2.08-.35,1.45-1.46,2.61-1.56,4.17.21.51-.56.04-.52.39.99,1.15,3.44,1.65,5.21.91-1.6,1.02-4.91.79-5.99-.52-.93.25-.91,1.24-1.69,1.56-1.77.73-3.87-.87-5.08-1.56-1.6.85-3.59,2.05-5.99,1.82-1.53-.15-2.75-.92-3.9-1.43-.62.03.38-.48-.13-.78-2.02-.33-4.16-.16-6.25-.78-.43-.13-.72-.48-1.17-.52-1.58-.14-3.29.77-5.21.78-1.28,0-2.47-.27-3.9-.13-.47.13-.11-.58-.52-.52-2.37,1.84-7.79,2.38-10.15.13-1.41.62-2.14,1.47-4.29,1.69-2.39.25-6.68.38-8.85.13-.44-.05-.88-.31-1.3-.26-.77.08-1.52.84-2.34,1.17-3.99,1.63-9.63.11-14.71-.13-3.75-.18-8.33-.32-11.84-.13-.58.03-1.1.32-1.69.39-2.72.31-5.49-.24-8.2,0-.69-1.13-.68-2.97-1.04-4.43-1.07,1.05,0,3.85.39,4.29-2.6.09-5.64-.27-6.9,1.17-3.38.17-5.96-.46-7.81-1.82-1.06.42-1.45,1.13-2.6,1.17-1.19.04-2.28-.75-3.38-.65-1.1.1-2.03.92-2.99,1.04-2.03.25-4.34-.34-6.64-.52-4.63-.37-10.19-1.5-15.75-.52.16-.75.38-1.44,1.3-1.43.77-2.7,1.95-4.99,5.73-4.69.42.06.29.67.78.65,2.96-1.51,4.71-4.22,9.76-3.64,1.48.06,2.38,2.69,3.91,2.86.79.09,2.67-.91,3.77-1.04,3.34-.38,5.45,1.16,7.42,2.99-.2.37-1.1.56-.65,1.17,1.33.01,4.51.09,6.25.78.43.96,1.05,1.73,1.69,2.47,1.56-1.18-.18-3.61-1.43-4.03.78-1.97,3.03-2.82,5.34-2.86.9-.71-.52-2.77.52-3.65.61-.06.84.26,1.3,0,.26-.04.25-.35.52-.39-.06-3.77,3.15-5.43,6.9-4.56.24.25.24.1.13.52.34.16.73-.74,1.17-.91,1.02-3.53,2.09-7.09,5.08-8.46,4.29-1.96,7.1,1.56,9.89,2.99.34-.98,1.01-2.15,2.47-2.34,1.2-.16,2.41.46,3.38.91.15.16.37.24.26.65,1.94.25,2.48,2.85,3.9,4.03,4.55-.34,6.89,1.53,8.59,4.03.01.41-.41.37-.26.91,1.29.41,3.46.17,4.95.13-.06-.89-.81-1.1-1.56-1.3,2.49-1.57,4.44,1.51,3.77,3.51.87.09,1.19-.37,1.69-.65,2.49-.17,4.52.03,5.6,1.56.85,1.21.44,2.93,1.43,4.17,2.54-.21.87-3.66-.13-5.08-1.47-2.08-4.81-2.8-7.16-1.69-.22-2.85-3.59-4.79-6.25-2.86-2.42-2.24-5.27-5.78-10.28-4.16-.41-1.59-1.39-2.6-2.47-3.52,2.12-1.8,5.92-1.74,7.03-4.55.44-1.13.5-2.63,1.17-3.51-1.12-.32-1.72.95-2.08,1.82.27-3.46,3.7-4.89,6.51-6.25.08-.55-.55-.4-.78-.65.13-4.56,5.05-4.32,7.55-6.51.01-.49-.65-.3-.78-.65.13-1.47,1.9-1.31,3.12-1.69.42.43-.63.79-.13,1.3,1.34-.87,2.68-1.74,3.9-2.73-.12-.45-1.42-.34-1.56,0,.56-2.18,5.74-.22,7.29-1.95-.15-1.23-1.75-1.03-3.12-1.04,1.4-2.68,4.39-4.23,8.07-3.77,1.09.13,2.25.91,3.25.78,1.24-.16,1.64-1.73,3.12-1.69.71.02,2.55.91,3.12,1.43.42.39.87,1.23,1.43,1.95,1.14,1.45,1.96,2.24,2.6,4.17,1.27-.69,3.85-.88,4.95-.13.38.26.84,1.19,1.3,1.95.65,1.09,1.23,1.48,1.43,2.73.8-.28,1.54-.63,2.6-.65-.43-.39-1.03-.62-1.82-.65-.69-2.61-1.78-4.82-4.55-5.33.2-3.32,2.11-4.92,3.51-7.03-.8-.13-1.69.77-2.21,1.43-1.19,1.53-1.74,3.55-2.47,5.6.19-3.67,2.19-6.65,4.42-8.72,1.43,3.17,6.76,2.73,7.03-1.04-1.4-.38-1.48,1.6-2.86,1.82-2.42.38-3.11-2.36-4.56-3.64-2.39-.16-3.9.96-5.86,1.04-6.1.25-8.92-4.68-8.46-11.06.75.29,1.44.64,2.6.52-.3,3.76,2.59,7.24,5.99,5.99-.26-1.27-1.83-1.21-2.73-1.95-1.27-1.05-1.93-3.07-1.56-4.95-.45-.6-1.2-.89-2.34-.78-1.14-1.65-3.34-3.32-3.25-6.64-.6.38-.48,2.16-.13,2.73-.82.66-.95,2.22-.39,3.25-1.3.21-1.56-.61-1.82-1.43.03-.36.41-.37.52-.65-.82-1.07-.52-3.13,0-4.29-1.4-.15-1.56,2.73-1.3,3.9-.74.13-.72-.49-1.17-.65-.5-2.76,1.26-3.25,1.95-4.82.15-.62-.5-.46-.65-.78-.26-2.98,1.15-4.53,2.99-5.73.23.2.11.76.52.78,1.75-1.26,1.33-3.67,2.73-5.08,1.24-1.24,3.31-1.4,3.9-3.25-.16-.36-1.36-.37-1.69-.13-.14-2.22,1.3-3.99,2.99-4.82.15-3.47,2.06-6.25,5.6-5.86,1.23.14,3.01,1.05,3.51,1.82,2.19-.15,3.5-1.37,5.73-.91,1.13.23,3.25,1.79,4.29,3.12.93,1.2,1.47,2.6,1.56,3.77,1.53-.13,1.77-2.45,3.51-1.95.9.26,1.21,2.03.78,3.12,2.06,1.19,3.44,3.07,3.9,5.86,1.3.62,1.79-.5,2.6-1.04,1.32-.89,2.85-1.25,4.81-1.43-.24.59-1.22.43-1.17,1.3,3.16-.78,5.55,1.12,8.72,1.17-.3-2.13-3.07-1.79-4.81-2.47.32-1.94,1.46-3.05,3.38-3.38.74-.14.4.81,1.17.65,1.35-.46,1.16-1.8,3.25-2.21,1.88-.37,5.05,1.42,5.21-.26.07-.76-.63-.67-1.04-1.17.25-1.87.95-3.3,1.82-4.56.68.69,1.33,1.73,2.73,1.3.29-1.3-.94-2.22-1.3-3.51-.93-3.36.92-7.97,4.29-7.81.94-.84,1.82-1.74,2.99-2.34,2.7-.19,4.88.16,5.73,1.82,1.99-.9,3.89-1.67,6.12-1.17,1.29.29,2.75,1.95,3.51,2.99.45.62.59,1.63,1.56,1.82,1.13.23,2.07-.54,3.25-.39,1.35.17,2.21.94,3.12,2.21.05.61-.88.25-.78.91.89,1.1,2.64.45,3.51,1.56.93,1.18.42,2.79-.26,4.16-.3-1.57.13-4.55-2.08-3.77.88,1.37,1.23,3.96.26,5.47-.46.71-1.45.69-1.17,1.69.18.3.9.05,1.3.13,1.18,1.3,2.63,4.66.91,6.51-.16,1.35.86,2.05,1.04,3.25.33,2.16-.18,4.21-.91,5.6-.48-.16-.76-.36-1.17,0-.11,2.65,2.9,4.21,3.38,6.77.38,2.01-.5,5.47-1.95,6.77-.22.2-.62.19-.91.39-.92.63-1.7,1.41-2.6,1.56-1.46.25-2.66-.03-4.03-.39.34-.41.65-1.51,0-1.82-1.52.64-2.11,2.34-3.25,3.51-1.05,1.08-2.51,1.55-3.39,2.86,2.35.39,4.45-1.7,5.99-2.99.45,4.15-1.48,7.59-4.55,8.2.78-1.43,2.4-2.02,2.6-4.04-1.49.6-2.31,1.96-3.77,2.73-1.5.79-3.31.67-4.95,1.56,1.21.54,2.98.67,4.29.13-.52,1.89-2.25,3.91-4.95,3.9-3.03,0-5.62-1.79-6.9-3.77.07-.58,1.02-.28,1.04-.91-2.57-1.09-4.76.48-7.29-.26-3.16-.93-5.11-2.5-6.25-5.47.85-.02,1.68-.05,1.69-.91-1.27-1.25-4.33-.7-4.95-2.6-.25-1.4.49-2.15.26-2.99-.31-1.15-1.86-1.35-2.34-2.6-.45-2.06,1.36-2.53.91-4.17-3.35.49-3.24,6.46-.52,7.55-.29,1.49-.37,2.61.13,3.64.39.82,1.26,1.09,1.82,1.82.81,1.05.91,2.35,1.82,3.12.32-1.16-.72-2.04-1.04-2.99.44.04.75.21,1.3.13.59,4.05,3.49,5.8,6.64,7.29,1.38,3.43,2.39,7.24,2.34,12.1,1.53-3.24-.53-9.07-1.69-11.84.31-.3,1.17-.05,1.69-.13,1.28,3.27,1.41,7.7,1.3,12.36,1.49-3.56.33-9.21-.65-12.36.89.06,1.41-.24,2.21-.26.5,3.55.65,8.27-.26,11.45,1.99-1.74,1.36-7.29.91-10.28.85.41,1.45,2.2,2.73,2.6Zm5.6-58.96c-.75-.75-3.43-1.83-4.3-.78,1.22.87,3.53.64,4.16,2.08,1.14-1.31,3.07-1.55,5.08-1.82.38-.05.81-.18,1.04-.39-1.78-1.28-4.81-.05-5.99.91Zm-8.98.52c-1.64,1.64-2.92,5.46-1.95,7.03.71-2.84,1.28-5.84,3.51-7.16.22-.39,1.2-.01,1.17-.65-.88-1.01-2.17.22-2.73.78Zm9.89,2.86c1.59-1.3,3.01-3.37,5.99-2.86-1.37-2.56-6.72.55-5.99,2.86Zm2.08,1.17c1.34-.43,1.68-1.88,2.86-2.47-1.27-1.03-3.14,1.12-2.86,2.47Zm-11.19-1.69c-1.45,1.48-2.82,4.74-1.69,7.29.51-3.39,1.31-6.5,3.77-7.94-.71-.68-1.66.22-2.08.65Zm21.34,3.77c.6,1.32.52,2.67,1.17,4.29,1.18-3.46-1.18-6.58-3.25-8.07h-.39c.82,1.38,1.8,2.29,2.47,3.77Zm1.82,6.12c2.59-1.99,1.11-8.37-1.17-9.5,1.16,2.5,2.08,6.46,1.17,9.5Zm-81.09,2.34c.91-1.87.78-4.11,2.34-5.34.48-.37,1-.31,1.43-.91-2.99-.79-4.42,3.38-3.77,6.25Zm8.33-.65c.68-2.14,1.82-3.82,3.39-5.08-2.07.2-4.41,3.29-3.39,5.08Zm.91,1.56c.91-1.51,1.09-3.39,2.34-4.56.53-.49,1.25-.52,1.69-1.17-2.64-.79-5.01,4.09-4.04,5.73Zm1.3.91c1.03-.45.64-1.68.91-2.47.55-1.6,2.13-2.33,2.86-3.64-2.43.24-4.44,3.19-3.77,6.12Zm2.34-.39c1.2-.88,1.31-2.85,2.21-4.03-1.35.15-2.55,2.19-2.21,4.03Zm-11.19,1.69c1.11-2.1,2.31-4.11,4.03-5.6-2.32.89-3.78,2.64-4.03,5.6Zm13.41-1.69c.58-.65.96-2.15,1.04-2.86-1.07.11-1.82,2.15-1.04,2.86Zm-12.23,4.69c.61-1.13.34-2.3.78-3.38.56-1.4,2.19-2.11,2.34-3.38-2.3.82-4.3,3.74-3.12,6.77Zm14.06-4.95c.5-.07.66-.46.65-1.04-.26,0-.17-.35-.52-.26-.29.18-.38.98-.13,1.3Zm-24.47,10.93c.24-2.88,1.97-4.28,3.64-5.73-2.04.37-4.7,3.11-3.64,5.73Zm91.37-.13c1.13-.84.85-4.71-.13-5.47-.11,1.62-.18,4.13.13,5.47Zm-1.69-.39c1.23.14,1.48-3.68.52-4.55h-.26c-.37,1.24.1,3.31-.26,4.55Zm-88.5.78c1.45-1.59,1.62-4.45,4.29-4.82-2.2-1.22-4.73,2.47-4.29,4.82Zm3.9,11.32c-1.04-1.42-2.26-3.84-2.34-6.64-.07-2.14.62-4.03,1.17-5.73-.03-.1-.11-.15-.26-.13-2.92,2.48-2.8,12.06,1.43,12.49Zm-9.76-6.9c.21-1.92.8-3.46,1.56-4.82-1.71.3-2.99,3.41-1.56,4.82Zm1.43,1.17c-.08-2.34.71-3.8,1.17-5.6-2.07.07-2.92,4.52-1.17,5.6Zm1.82-.26c-.34-1.96,1.05-3.51.65-4.69-1.28.49-2.46,3.86-.65,4.69Zm6.77,4.69c.37.35,1.12.83,1.56.65-2.1-1.9-3.31-5.35-2.6-9.63-.03-.1-.11-.15-.26-.13-1.31,3.05-.48,7.41,1.3,9.11Zm-.13,3.51c-1.52-2.05-3.94-3.37-4.3-6.64-.18-1.65-.06-4.21.52-5.21,0-.22-.1-.33-.26-.39-2.76,4.11-.5,12.15,4.04,12.23Zm41.52-9.63c.02.66.55,1.86,1.43,2.08.25-.88-.41-2.47-1.43-2.08Zm-45.81,8.07c-1.06-1.42-1.56-3.39-2.08-5.34-.18,2.2.35,4.63,2.08,5.34Zm77.44-3.64c.94,2.05,1.14,4.99,1.56,7.42.95-.29.7-1.76.65-2.47-.14-1.99-1.02-4.23-1.82-5.34h-.39v.39Zm1.04,0c.58,1.31,1.12,2.93,1.43,4.55.09.47-.27,1.28.52,1.43.57-2.41-.39-5.37-2.08-6.38.02.15-.02.37.13.39Zm8.85,6.51c-.67.42-1.38.5-1.95,1.3,4.64.64,8.46-2.75,7.03-7.03-.33,2.01-1.42,3.96-2.6,4.69.6-1.54,2.24-3.38,1.43-5.47-1.08,2.67-1.71,5.13-3.9,6.51Zm-51.67-1.17c1.71-.52,2.47-3.46,1.43-5.21-.03,2.1-.99,3.95-1.43,5.21Zm40.09-4.69c1.22,2.04,1.04,5.47,1.69,8.07,1.26-2.71-.06-6.95-1.69-8.46v.39Zm-41.65,3.12c.96-.26.48-2.32.13-2.86h-.39c-.32.87-.02,2.17.26,2.86Zm41.13,5.47c1.33-.11.99-1.92.91-2.99-.12-1.58-.75-3.61-1.3-4.42h-.39c.61,2.07.89,5.06.78,7.42Zm-59.09-4.82c-1.03.7-2.52.62-3.39,1.56,2.68.7,5.54-1.17,5.47-3.65-.03-.1-.11-.15-.26-.13-.52.86-.99,1.65-1.82,2.21Zm-1.69,3.38c3.75.23,4.87-2.16,5.34-5.21h-.39c-.65,2.74-2.64,4.13-4.94,5.21Zm58.7,1.3c1.53-.9.63-4.8-.26-5.73-.01,1.5.18,3.9.26,5.73Zm-52.32-5.6c-.79,1.13-.44,2.42-1.17,3.38-1.05,1.38-3.48,1.16-4.69,2.47,3.52.66,7.94-1.71,6.25-5.86h-.39Zm50.89,4.3c.43-.86.49-3.5-.26-4.03-.11,1.03-.46,3.41.26,4.03Zm-45.55-1.95c1.4,1.36,5.46.66,5.6-1.3-1.09.69-3.65,1.04-5.6,1.3Zm1.69,1.69c1.81.8,4.5.18,4.94-1.56-1.35.81-3.47.87-4.94,1.56Zm31.24,7.16c.45-.79-.47-1.25-.65-2.21-.13-.71-.09-1.91-.13-2.34-.11-1.35.41-2.87-.26-3.64-.75,2.04-1.55,7.62,1.04,8.2Zm2.47.39c0-.71-.58-.79-.91-1.56-.82-1.92-.26-5.13-.65-7.03-1.09,2.11-1.59,8.85,1.56,8.59Zm-4.56-2.08c.19-.48-.36-.82-.52-1.43-.36-1.41-.07-3.38,0-4.82-.03-.1-.11-.15-.26-.13-.63,1.41-1.28,6.07.78,6.38Zm-22.12-6.25c-1.03,1.91-3.07,3.8-5.73,3.25-.59,1.84-.17,4.69-1.43,5.86.02-1.66.06-3.36-.91-4.03-.2,1.08.23,3.16-.13,4.42-1.32,1.02-3.45,1.24-5.73,1.3.4,1.05,1.88.64,2.86.91.31.08.39.43.65.52.36.13.87.18,1.3.13,2.99-.35,4.4-3.7,4.43-7.16,2.44-.33,5.88-2.06,5.08-5.21h-.39Zm19.78,3.12c-.28-.9.09-2.43-.39-3.12-.25.64-.73,3.08.39,3.12Zm-26.42-1.43c1,2.08,5.63.16,4.94-1.43-.95,1.18-2.64,1.61-4.94,1.43Zm35.27,6.12c-.69-1.65-1.13-4.68-1.17-7.42-.17,0-.18-.17-.39-.13-.62,2.32-.83,7.47,1.56,7.55Zm1.69-1.04c-.51-1.18-.82-3.69-.78-5.86-.17,0-.18-.17-.39-.13-.45,1.66-1.28,6.34,1.17,5.99Zm3.77-3.77c.88-.03.63-1.88-.26-1.69-.35.54.05,1.29.26,1.69Zm-2.08,2.34c.2-1.17-.54-2.48-.65-3.77h-.39c-.48,1.25-.23,3.47,1.04,3.77Zm1.43-1.56c.13-.73-.29-1.82-1.04-2.08-.26.82.02,2.12,1.04,2.08Zm-59.87,1.04c1.45.73,3.17-1.43,2.6-2.73-1.5.28-1.35,2.21-2.6,2.73Zm38-.13c-.1.03-.15.11-.13.26,2.86.22,3.3,2.86,4.95,4.3-.65-2.39-2.02-4.74-4.82-4.55Zm15.1,4.55c-3.43.39-4.97-1.88-7.42-2.21,1.49,1.03,2.62,3.07,5.08,3.38,2.24.29,4.68-.12,5.47-1.43-1.04-.52-2.16.15-3.12.26Zm13.28-.91c1.5.31,3.47,0,3.9-1.17-1.03-.31-3.19.31-3.9,1.17Zm3.9-.39c-.53.24-.93.65-1.56.91-1.11.46-2.59.21-3.51.91,1.9.82,5.15.05,5.6-1.82h-.52Zm-12.62.91c-.25,1.02,1.26.86,1.82.65.28-1.05-1.27-.85-1.82-.65Zm1.69,3.38c.38,1.17,1.92,2.85,3.25,1.82-1.13-.48-2.05-1.84-3.25-1.82Zm-12.62,6.25c.36-2.47-.61-4.67-1.69-6.12.7,1.9.78,4.43,1.69,6.12Zm1.43-.39c.41-1.93-.29-4.53-1.43-5.73.23,1.65.86,3.99,1.43,5.73Zm-3.12.39c.46-2.19-.36-4.78-1.82-5.86.67,1.89,1.36,3.76,1.82,5.86Zm6.12,6.12c.32-4.36-.38-8.82-2.21-11.45,1.3,3.25,1.74,7.37,2.21,11.45Zm-41.91-4.69c.43-2.21,1.75-3.54,2.6-5.34-1.73.68-4.11,3.5-2.6,5.34Zm2.21.26c.7-1.68,1.33-3.44,2.08-5.08-1.53.17-3.41,3.28-2.08,5.08Zm44.9,5.34c2.15-1.25,2.26-5.74,1.69-8.85-.19-.03-.22-.21-.39-.26-.23,2.83-.47,6.48-1.3,9.11Zm-52.84-3.9c.26-1.82.48-3.68,1.3-4.95-.03-.1-.11-.15-.26-.13-1.08.75-2.23,3.74-1.04,5.08Zm1.56,1.04c.3-1.87.3-4.04,1.17-5.34-1.95.11-2.11,3.97-1.17,5.34Zm41.91,1.3c.77-.3.78-3.05.13-3.51-.27.95-.07,2.36-.13,3.51Zm.78.91c.88-.37,1.55-2.22.91-3.25-.43.96-.68,2.1-.91,3.25Zm-2.6-3.12c-1.11,2.31-3.21,3.64-5.34,4.95,3.1,0,5.02-2.25,5.86-4.95h-.52Zm-27.98,7.03c.1-2.25.63-4.06,1.43-5.6-.17,0-.18-.17-.39-.13-.99,1.06-2.31,4.09-1.04,5.73Zm28.37-5.6c-.67,1.53-1.77,2.59-2.99,3.38-.6.39-1.65.56-1.69,1.56,1.54-.04,3.37-1.35,4.29-2.6.44-.6.94-1.57.78-2.34h-.39Zm-26.42,8.2c-.09-2.14-.4-5.57.65-7.29-1.96.07-2.21,6.08-.65,7.29Zm27.85-7.29c-1.12,2.14-3.49,3.02-5.07,4.68.84.97,2.26.05,2.99-.52,1.23-.96,2.63-2.84,2.73-4.16h-.65Zm-25.77,7.16c.29-1.86-.35-3.98,0-5.99-.03-.1-.11-.15-.26-.13-1.02,1.33-.89,5.48.26,6.12Zm3.77-2.34c.9-.61.61-3.11-.39-3.38-.06.82.19,2.4.39,3.38Zm20.82,5.21c1.51-1.5,2.96-3.71,3.9-5.86.27-.62,1.12-1.73.26-2.34-.66,3.38-3.23,5.53-4.17,8.2Zm7.03-2.73c1.68-.9,2.64-3.14,2.73-5.21h-.39c-.51,2.01-1.62,3.41-2.34,5.21Zm1.04,1.95c.61.17,1.36-.47,1.82-.91,1.39-1.33,3.09-4.23,2.86-6.12-1.19,2.72-2.76,5.05-4.68,7.03Zm.26-1.3c1.18-1.32,2.94-3.36,2.6-5.34-.45,2.11-2.37,3.45-2.6,5.34Zm-4.95-.91c-.74,1.23-1.99,2.07-2.21,3.38,2.01-1.85,4.07-4.34,4.16-7.68-.54,1.48-1.2,3.05-1.95,4.29Zm-84.73-1.82c-1.52.85-3.83,2.74-4.03,4.94-.05.52-.28,2.01,1.04,1.69-.57-3.44,2.15-4.7,3.64-6.51-.15-.11-.35-.17-.65-.13Zm70.28,4.82c.55-1.53.99-3.17,1.95-4.3.03-.16.2-.27-.13-.26-1.02,1.02-2.12,2.65-1.82,4.55Zm1.17,1.95c.45-1.93.69-4.09,1.82-5.34-1.58.13-2.65,3.63-1.82,5.34Zm2.86-4.95c-1.51,1.53-2.42,4.75-1.69,7.68.58-.18.57-.85.65-1.3.4-2.16.46-4.67,1.56-6.25-.25.03-.29-.15-.52-.13Zm-76.14,4.68c1.13-.6,1.02-2.21,1.69-3.25.31-.48.89-.53.91-1.17-2.2-.41-2.92,2.69-2.6,4.42Zm4.55,1.04c.87-.02,1.16-1.23.91-1.95-1-.06-1.15,1.19-.91,1.95Zm-9.24-.13c-1.79.69-3.76,4.63-2.08,6.38.44-2.75,1.07-4.79,2.47-6.38h-.39Zm.78.91c-1.18.68-3.44,5.33-.78,5.99-.24-2.19.41-4.39,1.17-5.99h-.39Zm.65,5.86c.85-1.28.6-4.34,1.3-5.34-1.88.18-2.3,3.94-1.3,5.34Zm87.2-5.34c-.23-.01-.4.03-.52.13,1.37,1.86,2.04,5.05,2.47,7.42,1.52-1.27-.75-6.57-1.95-7.55Zm3.52,4.82c.27-2.1-.53-4.24-2.21-4.82.65,1.18,1.62,3.14,2.21,4.82Zm-3.13,3.9c1.15-.95.45-3.12,0-4.43-.5-1.43-1.51-2.87-2.47-3.38h-.26c1.36,2.15,2.16,4.87,2.73,7.81Zm-4.42-6.25c1.27,1.64,1.18,4.63,2.6,6.12.39-2.36-.65-5.37-2.34-6.51h-.26v.39Zm.26,5.86c.25-1.73-.63-3.44-1.82-4.17.49,1.51.81,3.18,1.82,4.17Zm-88.5-3.38c-.93.8-1.48,1.74-2.6,2.47-.77.5-1.96.7-1.95,1.82,2.02-.59,4.51-1.82,5.21-4.17-.15-.11-.35-.17-.65-.13Zm86.94,3.25c.03-1.03-.27-1.73-.52-2.47h-.39c-.2.88,0,2.3.91,2.47Zm-18.61,2.08c.64-1.49,2-2.25,3.12-3.25-1.77-1.22-3.83,1.15-3.12,3.25Zm-91.76-2.47c-1.63.91-2.82,2.2-3.64,4.04-.58,1.29-1.38,3.16-.26,4.42.21-4.19,2.13-6.41,4.56-8.46h-.65Zm83.95.65c.49.17,1.1.75,1.56.52-.15-.53-1.16-1.04-1.56-.52Zm-85.77,8.98c.57-.67.03-2.02.13-2.99.24-2.37,1.89-3.76,3.12-5.07-3.13-.71-5.67,6.65-3.25,8.07Zm2.21-.52c.32-2.24.48-4.64,1.56-6.12-2.25.12-3.12,4.66-1.56,6.12Zm136.66-3.9c.64-.04.84-1.83,0-1.82h-.26c-.42.35-.41,1.78.26,1.82Zm-134.45,2.08c.92-.25.82-1.53.91-2.6-.19-.03-.22-.22-.39-.26-.94.32-.61,2.21-.52,2.86Zm141.86,3.51c.05-2.16.37-4.06,1.43-5.21-1.8.23-2.77,3.9-1.43,5.21Zm-127.29-2.86c-.44-.32-1.87-.5-1.95.26,1.87.91,3.41,1.87,4.42,3.51.31.5.39,1.65,1.3,1.43.91-2.42-1.56-3.63-2.6-4.95,1.2-.84,3.21-.87,4.69-1.43-1.73-1.53-4.71.08-5.86,1.17Zm128.85,4.42c.17-2.65.57-5.07,2.34-6.12-2.57-.47-3.93,4.07-2.34,6.12Zm-122.6,2.21c1.37-.57.56-3.35-.65-3.64-.45.92.69,2.7.65,3.64Zm35.79,3.51c-.4-1,0-3.9-.52-5.21-.41,1.39-1.1,4.68.52,5.21Zm73.27-3.26c.96.08,2.52-.33,3.12-1.04-.72-1.18-3.37-.41-3.12,1.04Zm-61.17,7.55c2.63-1.19,3.13-5.2,2.86-8.85-.03-.1-.11-.15-.26-.13-.13,3.65-1.6,6.64-2.6,8.98Zm2.08-.39c1.38.14,1.82-1.47,2.21-2.6.6-1.76,1.16-3.83.78-5.86-.03-.1-.11-.15-.26-.13-.55,3.22-1.4,6.15-2.73,8.59Zm-12.36-3.77c.64-1.16-.23-2.96,0-4.56-.17,0-.18-.17-.39-.13-.64,1.17-.6,3.97.39,4.69Zm89.15,2.47c1.84.06,3.31-1.53,4.16-2.6,1.05-1.32,1.64-3.08,2.08-4.43-.17,0-.18-.17-.39-.13-1.14,3.2-3.27,5.41-5.86,7.16Zm-74.06,1.56c2.06-.87,2.94-5.54,2.6-8.46-.17,0-.18-.17-.39-.13-.09,3.51-1.57,5.63-2.21,8.59Zm82.12-5.08c-.86.9-2.18,1.42-2.6,2.73,1.27-.19,2.24-1.38,3.12-2.34.87-.95,1.99-2.1,2.08-3.64-.03-.1-.11-.15-.26-.13-.66,1.28-1.45,2.45-2.34,3.38Zm1.95,0c-.75.87-1.83,1.54-2.21,2.73.91.03,1.7-.65,2.21-1.17,1.15-1.18,2.16-2.82,2.73-4.55-.17,0-.18-.17-.39-.13-.72,1.15-1.51,2.15-2.34,3.12Zm-2.08-2.99c-1.1,2.68-3.44,4.11-5.08,6.25,2.73-1.18,4.52-3.29,5.47-6.25h-.39Zm-79.52,7.94c1.53-.36,2.31-2.8,2.47-4.69.08-.92-.05-1.9-.26-2.73-.03-.15-.14-.2-.26-.26-.1,3.03-1.56,5.38-1.95,7.68Zm-8.33-.65c1.58-1.24,2.2-4.13,1.95-6.77h-.39c0,2.77-1.11,4.44-1.56,6.77Zm91.5-2.34c1.98.07,2.5-2.87,3.25-4.3-.03-.1-.11-.15-.26-.13-.99,1.48-2.26,2.69-2.99,4.42Zm3.12-.52c1.51.11,2.77-2.51,2.47-3.77-.67,1.34-2.25,2.43-2.47,3.77Zm2.08.13c1.57-.06,2.66-2.35,2.73-3.9-1.06,1.15-2.14,2.28-2.73,3.9Zm-86.42,3.51c1.85-.94,2.65-4.48,2.34-7.16-.16,0-.18-.17-.39-.13-.15,2.77-2.21,4.96-1.95,7.29Zm1.69-.13c1.74-.84,2.73-4.24,2.08-6.64h-.39c.44,3.08-2.04,4.51-1.69,6.64Zm87.2-3.51c1.43.1,2.05-1.66,2.34-3.12-1.02.8-1.94,1.71-2.34,3.12Zm2.6.52c1.55-.24,2.14-2.1,2.08-3.51-1.05.73-2.22,2.02-2.08,3.51Zm2.34-.39c.14.03.2.15.26.26,1.22-.2,1.74-1.68,1.69-2.73-1.17.31-1.67,1.28-1.95,2.47Zm-87.72,2.6c1.62-.55,1.58-2.76,1.69-4.82-.17,0-.18-.17-.39-.13-.35,1.6-1.78,3.38-1.3,4.95Zm90.46-2.73c1.14-.07,1.4-1.03,1.56-2.08-1.09.06-1.87,1.06-1.56,2.08Zm-52.71,1.17c.86-.62.83-2.12,1.3-3.12-1.07.33-1.6,1.85-1.3,3.12Zm1.56.39c.57-.95.84-2.19,1.17-3.38-.17,0-.18-.17-.39-.13-.48.77-1.99,2.73-.78,3.51Zm1.69.39c.52-1.21.95-2.52,1.3-3.9-1.08.43-2.43,2.95-1.3,3.9Zm51.67-1.95c1.11-.06,1.48-.86,1.69-1.82-.9-.23-1.78.63-1.69,1.82Zm-50.11,2.21c.44-1.18,1.66-2.91,1.3-4.04-.63.96-2.16,2.85-1.3,4.04Zm52.71-2.21c.77-.22,1.31-.69,1.3-1.69-1.08-.11-1.67.76-1.3,1.69Zm-93.58,2.86c1.49-.48,1.76-2.81,1.69-4.42h-.39c-.16,1.62-1.91,2.89-1.3,4.42Zm44.25-.91c.71-.78,1.39-2.24,1.3-3.38-.94.41-2.39,2.62-1.3,3.38Zm52.97-2.6c.66.1,1.03-.1,1.04-.65-.41-.29-1.22-.07-1.04.65Zm-54.66,2.86c.56-1.05,1.09-2.12,1.3-3.51-.98.41-2.39,2.72-1.3,3.51Zm3.51-.78c.62-.5.82-1.43,1.04-2.34-.25-.01-.09-.43-.39-.39-.32.69-1.59,2.01-.65,2.73Zm-43.86,1.04c1.44-.29,1.57-1.9,1.69-3.51-.17,0-.18-.17-.39-.13-.4,1.17-1.54,2.26-1.3,3.64Zm51.02-3.38c0,.4.12.66.39.78.12-.28.4-.39.39-.78-.17-.18-.62-.18-.78,0Zm-5.47,2.34c.88-.24,1.1-1.16,1.3-2.08-.84-.27-1.93,1.29-1.3,2.08Zm1.95-.65c.88.39,1.12-.72,1.17-1.56-.91,0-1.14.69-1.17,1.56Zm-45.16,1.82c1.09.25,2.28-2.38,1.17-3.12-.17,1.26-1.19,1.67-1.17,3.12Zm-74.58,1.43c-.17-1.59-1.92-2.66-2.47-4.29h-.39c-.2,1.49,1.24,4.73,2.86,4.29Zm1.69,0c.03-.1.11-.15.26-.13.1-1.71-.89-3.44-2.21-4.16.09,1.48.76,3.48,1.95,4.29Zm.65-4.04c0,.17-.17.18-.13.39,1.08.48.48,2.65,2.08,2.6.57-1.16-.57-3.36-1.95-2.99Zm6.25,2.73c1.18,0,.6-2.27.26-2.73-1.34-.31-.9,2.62-.26,2.73Zm2.6-.26c1.08-.19.52-1.79.26-2.47h-.39c-.29.53-.81,2.26.13,2.47Zm65.46.13c1.28-.03,1.36-1.25,1.56-2.34-.96-.68-1.96,1.25-1.56,2.34Zm-82-2.08c-.31,2.04,2.41,4.71,3.39,2.99-.09-.61-.85-.54-1.3-.78-.84-.6-1.09-1.78-1.69-2.6h-.26c0,.17-.17.18-.13.39Zm11.72,2.6c.17,0,.18-.17.39-.13.21-1.05-.17-2.48-1.04-2.86h-.26c-.19.56-.19,2.89.91,2.99Zm9.89-.78c.65-.17.61-1.44.39-2.08-1.09-.3-1.28,1.99-.39,2.08Zm-2.73-.13c.76.06,1-1.8.13-1.82-.75,0-.96,1.75-.13,1.82Zm5.21-.26c.49-.12.7-1.06.39-1.56-.97-.27-1.28,1.52-.39,1.56Zm2.47-.52c.21.2.96.2,1.17,0,.19-.4.06-.59-.13-.91-.67-.02-.98.32-1.04.91Zm58.57.91c.37-.32.59-.8.65-1.43-.71-.53-1.78,1.28-.65,1.43Zm2.6.26c.85-.1,1.09-.81,1.3-1.56-.91-.51-1.69.78-1.3,1.56Zm-134.84,1.43c1.48.42,1.52-1.68,1.82-2.86-.03-.1-.11-.15-.26-.13-.55.97-1.19,1.85-1.56,2.99Zm21.35.52c.27-.52-.42-.74-.65-1.3-.29-.7-.12-1.68-.65-2.21-.59,1.22-.14,3.93,1.3,3.51Zm24.08-.52c-.09-1.39-1.24-1.71-1.43-2.99h-.39c-.36,1.45.28,3.01,1.82,2.99Zm-48.29.39c1.8.4,2.75-1.84,2.73-3.25-1.2.72-2.13,2.38-2.73,3.25Zm50.63-.26c-.53-1.16-1.24-2.14-2.08-2.99h-.39c.34,1.41.85,3.3,2.47,2.99Zm-46.2.39c1.44-.06,2-2.31,1.69-3.25-.72.93-1.3,2-1.69,3.25Zm21.6.13c-.64-.79-.92-1.95-1.04-3.25-.17,0-.18-.17-.39-.13-.42,1.39-.03,4.29,1.43,3.38Zm-26.81-3.25c-.47,1.19-1.94,2.04-1.82,3.38,1.51-.4,1.79-2.02,2.34-3.38h-.52Zm142.12.65c.1.03.15.11.13.26.34,0,.74.05.91-.13v-.65c-.48-.25-1.04-.07-1.04.52Zm-95.79,2.08c.05-.77-.7-1.8-1.04-2.6h-.39c-.04,1.31.33,2.86,1.43,2.6Zm-17.96.52c.08-.8-.49-2.01-.65-2.99h-.39c-.24,1.08-.24,3,1.04,2.99Zm-31.89-.39c1.06.68,2.51-1.54,1.95-2.47-.53.95-1.74,1.21-1.95,2.47Zm-7.16-1.17c.6.28.99-.37,1.17-.91-.5-.47-1.3,0-1.17.91Zm41.13.78c.08-.64-.23-1.79-1.04-1.95-.02,1.02.1,1.89,1.04,1.95Zm-35.92.65c1.19.38,2.31-1.62,1.82-2.47-.68.68-1.7,1.67-1.82,2.47Zm49.59-.26c.14-.53-.33-1.46-.39-2.21h-.39c-.24.75-.19,2.25.78,2.21Zm-11.19-.26c.8-.35.13-1.61-.52-1.69-.55.5-.14,1.62.52,1.69Zm-42.04-.13c.85.38,1.4-.57,1.43-1.43-.84.12-1.17.74-1.43,1.43Zm1.56.52c1.32.02,1.65-.95,2.08-1.82-.84-.04-1.89.79-2.08,1.82Z"/>
    </g>
  </g>
</svg>