<?xml version="1.0" encoding="UTF-8"?>
<svg id="Layer_2" data-name="Layer 2" xmlns="http://www.w3.org/2000/svg" viewBox="0 0 557.17 194.88">
  <defs>
    <style>
      .cls-1 {
        fill: none;
        stroke: #000;
        stroke-miterlimit: 10;
        stroke-width: 2px;
      }
    </style>
  </defs>
  <g id="Layer_1-2" data-name="Layer 1">
    <g>
      <path class="cls-1" d="m8.65,1.77c.54.51.82,1.04.82,1.58s-.24,1.22-.71,2.04h32.74l.31-.92c.61-1.9,1.63-2.86,3.06-2.86.75,0,1.41.25,1.99.76.58.51.87,1.11.87,1.79s-.17,1.36-.51,2.04l-3.77,7.04c-.61,1.16-1.26,1.73-1.94,1.73-1.43,0-2.14-.65-2.14-1.94,0-.41.07-.75.2-1.02l.51-1.73h-13.87v54.88h2.65c1.63,0,2.45.88,2.45,2.65s-.82,2.65-2.45,2.65h-11.02c-1.63,0-2.45-.88-2.45-2.65s.82-2.65,2.45-2.65h2.55V10.28H6.61l-1.63,2.65c-.54.82-1.16,1.22-1.84,1.22s-1.21-.19-1.58-.56c-.37-.37-.56-.82-.56-1.33s.1-1,.31-1.48L3.75,3.55c.54-1.7,1.49-2.55,2.86-2.55.82,0,1.49.25,2.04.77Z"/>
      <path class="cls-1" d="m58.32,10.69h-3.98c-1.5,0-2.24-.88-2.24-2.65s.75-2.65,2.24-2.65h7.45c.88,0,1.48.15,1.78.46.31.31.46.9.46,1.79v22.85c1.22-2.45,3.2-4.66,5.92-6.63,2.72-1.97,6.03-2.96,9.95-2.96s6.92,1.51,9.03,4.54c2.11,3.03,3.16,6.55,3.16,10.56v29.17h2.96c.75,0,1.33.27,1.73.82.41.54.61,1.16.61,1.84s-.2,1.29-.61,1.84c-.41.54-.99.82-1.73.82h-11.22c-1.77,0-2.65-.88-2.65-2.65s.88-2.65,2.65-2.65h2.55v-29.48c0-2.45-.58-4.72-1.73-6.83-1.16-2.11-3.13-3.16-5.92-3.16-3.74,0-7.12,1.94-10.15,5.81-3.03,3.88-4.54,7.96-4.54,12.24v21.42h2.96c.75,0,1.36.27,1.84.82.48.54.71,1.16.71,1.84s-.24,1.29-.71,1.84c-.48.54-1.09.82-1.84.82h-11.83c-1.63,0-2.45-.88-2.45-2.65s.82-2.65,2.45-2.65h3.16V10.69Z"/>
      <path class="cls-1" d="m121.97,71.48c-6.19,0-11.15-2.41-14.89-7.24-3.74-4.83-5.61-10.98-5.61-18.46s1.79-13.57,5.35-18.26c3.57-4.69,8.28-7.04,14.13-7.04,2.99,0,5.68.66,8.06,1.99,2.38,1.33,4.22,2.98,5.51,4.95,2.72,4.01,4.08,7.82,4.08,11.42,0,1.91-.88,2.86-2.65,2.86h-28.56c-.14.88-.2,2.14-.2,3.77,0,6.26,1.41,11.39,4.23,15.4,2.82,4.01,6.34,6.02,10.56,6.02,1.84,0,3.5-.49,5-1.48,1.5-.99,2.55-1.94,3.16-2.86.61-.92,1.31-2.16,2.09-3.72.78-1.56,1.85-2.35,3.21-2.35,2.04,0,3.06.92,3.06,2.75,0,2.38-1.51,5.02-4.54,7.91-3.03,2.89-7.02,4.33-11.98,4.33Zm7.04-42.74c-2.18-2.51-4.88-3.77-8.11-3.77s-5.9,1.19-8.01,3.57c-2.11,2.38-3.57,5.07-4.39,8.06h24.17c-.27-2.72-1.5-5.34-3.67-7.85Z"/>
      <path class="cls-1" d="m167.56,10.79c-1.63,0-2.45-.9-2.45-2.7s.82-2.7,2.45-2.7h10.4c1.49,0,2.24.9,2.24,2.7s-.75,2.7-2.24,2.7h-2.04l17.24,51.82,8.67-24.17-9.18-27.64h-2.24c-.75,0-1.36-.25-1.84-.76-.48-.51-.71-1.14-.71-1.89s.24-1.39.71-1.94c.48-.54,1.09-.82,1.84-.82h9.79c.82,0,1.5.27,2.04.82.54.54.82,1.19.82,1.94s-.25,1.38-.76,1.89c-.51.51-1.21.76-2.09.76h-1.73l17.44,52.43,15.4-44.17c.88-2.51,1.33-4.5,1.33-5.97s-.51-2.33-1.53-2.6c-1.22,1.43-2.65,2.14-4.28,2.14s-2.87-.36-3.72-1.07c-.85-.71-1.27-1.75-1.27-3.11s.65-2.51,1.94-3.47c1.29-.95,3.09-1.43,5.41-1.43s4.28.92,5.92,2.75c1.63,1.84,2.45,3.86,2.45,6.07s-.58,4.91-1.73,8.11l-17.24,48.55c-.54,1.63-1.56,2.45-3.06,2.45-.68,0-1.38-.2-2.09-.61s-1.17-.95-1.38-1.63l-7.85-23.56-8.47,23.36c-.61,1.63-1.65,2.45-3.11,2.45s-2.47-.78-3.01-2.35l-19.58-58.34h-2.45Z"/>
      <path class="cls-1" d="m235.49,45.83c0-7.31,2.09-13.33,6.27-18.05,4.18-4.73,9.83-7.09,16.93-7.09s12.75,2.35,16.93,7.04c4.18,4.69,6.27,10.69,6.27,18s-2.08,13.36-6.22,18.16c-4.15,4.79-9.84,7.19-17.08,7.19s-12.9-2.38-16.98-7.14-6.12-10.79-6.12-18.11Zm10.71,14.54c3.33,3.94,7.48,5.92,12.44,5.92s9.13-1.95,12.5-5.87c3.37-3.91,5.05-8.75,5.05-14.54s-1.7-10.62-5.1-14.54c-3.4-3.91-7.55-5.86-12.44-5.86s-9.03,1.94-12.39,5.81-5.05,8.71-5.05,14.48,1.67,10.64,5,14.59Z"/>
      <path class="cls-1" d="m296.08,65.16h2.96c.75,0,1.36.27,1.84.82.48.54.71,1.16.71,1.84s-.24,1.29-.71,1.84c-.48.54-1.09.82-1.84.82h-11.93c-.75,0-1.34-.25-1.79-.76-.44-.51-.66-1.12-.66-1.84s.22-1.34.66-1.89c.44-.54,1.04-.82,1.79-.82h3.26V26.81h-4.18c-.75,0-1.33-.26-1.73-.77-.41-.51-.61-1.17-.61-1.99s.26-1.44.77-1.89c.51-.44,1.04-.66,1.58-.66h7.85c.75,0,1.26.14,1.53.41.27.27.41.78.41,1.53v7.65c1.84-3.06,4.18-5.54,7.04-7.45,2.86-1.9,5.85-2.86,8.98-2.86,5.17,0,8.84,1.55,11.02,4.64,2.18,3.1,3.26,6.92,3.26,11.48v28.25h2.86c.75,0,1.36.27,1.84.82.48.54.71,1.16.71,1.84s-.24,1.29-.71,1.84c-.48.54-1.09.82-1.84.82h-11.02c-1.63,0-2.45-.88-2.45-2.65s.82-2.65,2.45-2.65h2.45v-28.76c0-7.21-2.89-10.81-8.67-10.81-3.88,0-7.48,1.8-10.81,5.41-3.33,3.6-5,8.09-5,13.46v20.71Z"/>
      <path class="cls-1" d="m374.52,65.16h4.79c.61,0,1.12.27,1.53.82.41.54.61,1.16.61,1.84s-.2,1.29-.61,1.84c-.41.54-.92.82-1.53.82h-8.57c-1.29,0-1.94-.68-1.94-2.04v-5.81c-1.5,2.38-3.5,4.33-6.02,5.87-2.52,1.53-5.24,2.29-8.16,2.29-5.65,0-10.12-2.26-13.41-6.78-3.3-4.52-4.95-10.4-4.95-17.65s1.67-13.26,5-18.05c3.33-4.79,7.82-7.19,13.46-7.19,3.06,0,5.85.71,8.36,2.14,2.51,1.43,4.42,3.33,5.71,5.71V10.69h-4.79c-1.63,0-2.45-.88-2.45-2.65s.82-2.65,2.45-2.65h7.85c.95,0,1.63.19,2.04.56.41.37.61,1.07.61,2.09v57.12Zm-29.27-5c2.24,3.94,5.57,5.92,10,5.92s7.85-1.73,10.3-5.2c2.45-3.47,3.67-8.23,3.67-14.28s-1.17-11.05-3.52-14.99c-2.35-3.94-5.73-5.92-10.15-5.92-3.26,0-5.95,1.19-8.06,3.57-3.74,4.01-5.61,9.73-5.61,17.14,0,5.24,1.12,9.83,3.37,13.77Z"/>
      <path class="cls-1" d="m405.53,71.48c-6.19,0-11.15-2.41-14.89-7.24-3.74-4.83-5.61-10.98-5.61-18.46s1.79-13.57,5.35-18.26c3.57-4.69,8.28-7.04,14.13-7.04,2.99,0,5.68.66,8.06,1.99,2.38,1.33,4.22,2.98,5.51,4.95,2.72,4.01,4.08,7.82,4.08,11.42,0,1.91-.88,2.86-2.65,2.86h-28.56c-.14.88-.2,2.14-.2,3.77,0,6.26,1.41,11.39,4.23,15.4,2.82,4.01,6.34,6.02,10.56,6.02,1.84,0,3.5-.49,5-1.48,1.5-.99,2.55-1.94,3.16-2.86.61-.92,1.31-2.16,2.09-3.72.78-1.56,1.85-2.35,3.21-2.35,2.04,0,3.06.92,3.06,2.75,0,2.38-1.51,5.02-4.54,7.91-3.03,2.89-7.02,4.33-11.98,4.33Zm7.04-42.74c-2.18-2.51-4.88-3.77-8.11-3.77s-5.9,1.19-8.01,3.57c-2.11,2.38-3.57,5.07-4.39,8.06h24.17c-.27-2.72-1.5-5.34-3.67-7.85Z"/>
      <path class="cls-1" d="m435.21,26.09v39.07h1.94c.82,0,1.44.25,1.89.76.44.51.66,1.14.66,1.89,0,1.77-.85,2.65-2.55,2.65h-9.69c-1.77,0-2.65-.88-2.65-2.65s.88-2.65,2.65-2.65h2.04V26.81h-2.04c-.88,0-1.57-.27-2.04-.82-.48-.54-.71-1.17-.71-1.89s.24-1.33.71-1.84c.47-.51,1.16-.77,2.04-.77h18.87c3.47,0,6.08.73,7.85,2.19,1.77,1.46,2.65,3.31,2.65,5.56,0,1.16-.27,2.19-.82,3.11-.54.92-1.43,1.38-2.65,1.38s-2.33-.56-3.31-1.68c-.99-1.12-1.5-2.31-1.53-3.57-.04-1.26.02-2.06.15-2.4h-13.46Z"/>
      <path class="cls-1" d="m469.43,10.18c2.28-2.79,4.85-4.18,7.7-4.18s5.01.66,6.48,1.99c1.46,1.33,2.19,2.67,2.19,4.03s-.34,2.36-1.02,3.01c-.68.65-1.63.97-2.86.97s-2.36-.63-3.42-1.89c-1.06-1.26-1.68-2.57-1.89-3.93-1.56.14-2.89,1.38-3.98,3.72-1.09,2.35-1.7,5.02-1.84,8.01h5.2c.68,0,1.22.24,1.63.71.41.48.61,1.04.61,1.68s-.22,1.21-.66,1.68c-.44.48-.97.71-1.58.71h-4.9v38.45h3.26c.61,0,1.16.27,1.63.82.48.54.71,1.16.71,1.84s-.22,1.29-.66,1.84c-.44.54-1,.82-1.68.82h-11.83c-1.77,0-2.65-.92-2.65-2.75,0-.68.22-1.27.66-1.79.44-.51,1.1-.76,1.99-.76h2.86V26.7h-3.37c-.68,0-1.21-.24-1.58-.71-.37-.47-.56-1.02-.56-1.63,0-1.63.71-2.45,2.14-2.45h3.67c.2-5.03,1.44-8.94,3.72-11.73Z"/>
      <path class="cls-1" d="m522.21,26.81h-2.35c-.75,0-1.38-.27-1.89-.82-.51-.54-.77-1.16-.77-1.84s.25-1.29.77-1.84c.51-.54,1.14-.82,1.89-.82h10.3c1.63,0,2.45.88,2.45,2.65s-.82,2.65-2.45,2.65h-2.24v38.35h3.77c1.56,0,2.35.88,2.35,2.65,0,.82-.24,1.46-.71,1.94s-1.02.71-1.63.71h-7.24c-.82,0-1.38-.15-1.68-.46-.31-.31-.46-.87-.46-1.68v-6.63c-3.88,6.32-8.98,9.49-15.3,9.49-4.96,0-8.64-1.68-11.02-5.05-2.38-3.37-3.57-7.26-3.57-11.68v-27.64h-2.24c-.75,0-1.33-.27-1.73-.82-.41-.54-.61-1.16-.61-1.84s.2-1.29.61-1.84c.41-.54.98-.82,1.73-.82h10.4c.75,0,1.36.27,1.84.82.48.54.71,1.16.71,1.84s-.24,1.29-.71,1.84c-.48.54-1.09.82-1.84.82h-2.45v27.74c0,2.99.78,5.71,2.35,8.16,1.56,2.45,4.1,3.67,7.6,3.67s6.73-1.77,9.69-5.3c2.96-3.54,4.44-8.02,4.44-13.46v-20.81Z"/>
      <path class="cls-1" d="m545.36,10.79h-3.26c-.82,0-1.46-.25-1.94-.76-.48-.51-.71-1.16-.71-1.94s.24-1.41.71-1.89c.48-.47,1.12-.71,1.94-.71h5.81c1.16,0,1.97.2,2.45.61.48.41.71,1.16.71,2.24v56.81h2.55c.82,0,1.44.27,1.89.82.44.54.66,1.16.66,1.84,0,1.77-.85,2.65-2.55,2.65h-10.81c-.75,0-1.36-.25-1.84-.76-.48-.51-.71-1.12-.71-1.84s.24-1.34.71-1.89c.47-.54,1.09-.82,1.84-.82h2.55V10.79Z"/>
      <path class="cls-1" d="m54.96,133.19c-1.63,0-2.45-.9-2.45-2.7s.82-2.7,2.45-2.7h10.4c1.49,0,2.24.9,2.24,2.7s-.75,2.7-2.24,2.7h-2.04l17.24,51.82,8.67-24.17-9.18-27.64h-2.24c-.75,0-1.36-.25-1.84-.77-.48-.51-.71-1.14-.71-1.89s.24-1.39.71-1.94c.48-.54,1.09-.82,1.84-.82h9.79c.82,0,1.5.27,2.04.82.54.54.82,1.19.82,1.94s-.25,1.38-.76,1.89c-.51.51-1.21.77-2.09.77h-1.73l17.44,52.43,15.4-44.17c.88-2.51,1.33-4.5,1.33-5.97s-.51-2.33-1.53-2.6c-1.22,1.43-2.65,2.14-4.28,2.14s-2.87-.36-3.72-1.07c-.85-.71-1.27-1.75-1.27-3.11s.65-2.51,1.94-3.47c1.29-.95,3.09-1.43,5.41-1.43s4.28.92,5.92,2.75c1.63,1.84,2.45,3.86,2.45,6.07s-.58,4.91-1.73,8.11l-17.24,48.55c-.54,1.63-1.56,2.45-3.06,2.45-.68,0-1.38-.2-2.09-.61-.71-.41-1.17-.95-1.38-1.63l-7.85-23.56-8.47,23.36c-.61,1.63-1.65,2.45-3.11,2.45s-2.47-.78-3.01-2.35l-19.58-58.34h-2.45Z"/>
      <path class="cls-1" d="m134.11,149.1h-2.65c-.82,0-1.46-.26-1.94-.77-.48-.51-.71-1.1-.71-1.79,0-1.77.88-2.65,2.65-2.65h5.1c2.11,0,3.2.92,3.26,2.75v40.9h2.55c.82,0,1.44.27,1.89.82.44.54.66,1.16.66,1.84,0,1.77-.85,2.65-2.55,2.65h-10.81c-.68,0-1.27-.25-1.78-.77-.51-.51-.77-1.1-.77-1.78s.25-1.31.77-1.89c.51-.58,1.1-.87,1.78-.87l2.55-.1v-38.35Zm1.53-21.01c1.36,0,2.5.44,3.42,1.33.92.88,1.38,1.96,1.38,3.21s-.46,2.33-1.38,3.21c-.92.88-2.04,1.33-3.37,1.33s-2.45-.44-3.37-1.33c-.92-.88-1.38-1.95-1.38-3.21s.44-2.33,1.33-3.21,2-1.33,3.37-1.33Z"/>
      <path class="cls-1" d="m151.96,192.86c-.95,0-1.72-.25-2.29-.77-.58-.51-.87-1.1-.87-1.78s.2-1.33.61-1.94l24.89-39.88h-17.03c-.95,0-1.77.2-2.45.61-.68.41-1.09.92-1.22,1.53,1.56.2,2.97.77,4.23,1.68,1.26.92,1.89,1.99,1.89,3.21s-.32,2.09-.97,2.6c-.65.51-1.38.77-2.19.77-1.9,0-3.55-.78-4.95-2.35-1.39-1.56-2.09-3.37-2.09-5.41s.77-3.76,2.29-5.15c1.53-1.39,3.35-2.09,5.46-2.09h20.81c2.18,0,3.26.75,3.26,2.24,0,.68-.24,1.36-.71,2.04l-23.15,37.54c2.31-1.43,4.66-2.14,7.04-2.14s5,1.36,7.85,4.08c1.5,1.5,2.7,2.24,3.62,2.24s1.44-.48,1.58-1.43c-.68-.54-1.28-1.39-1.79-2.55-.51-1.16-.77-2.21-.77-3.16s.31-1.87.92-2.75c.61-.88,1.55-1.33,2.81-1.33s2.43.68,3.52,2.04c1.09,1.36,1.63,3.21,1.63,5.56s-.9,4.2-2.7,5.56c-1.8,1.36-3.74,2.04-5.81,2.04s-4.54-.88-7.4-2.65c-2.86-1.77-5.27-2.65-7.24-2.65s-3.91.92-5.81,2.75l-1.73,1.53h-1.22Z"/>
      <path class="cls-1" d="m204.08,142.68c5.85,0,10.39,1.91,13.62,5.71,3.23,3.81,4.85,8.67,4.85,14.59,0,9.38.34,15.73,1.02,19.02.68,3.3,1.97,5.63,3.88,6.99,1.16.54,1.73,1.29,1.73,2.24,0,1.77-.82,2.65-2.45,2.65s-3.18-.76-4.64-2.29c-1.46-1.53-2.64-3.42-3.52-5.66-1.16,2.24-3.01,4.13-5.56,5.66-2.55,1.53-5.59,2.29-9.13,2.29-5.17,0-9.37-1.61-12.6-4.84-3.23-3.23-4.85-7.34-4.85-12.34s1.7-9.26,5.1-12.8c3.4-3.54,7.63-5.3,12.7-5.3s9.3,1.67,12.7,5c0-4.76-1.02-8.75-3.06-11.98-2.04-3.23-5.17-4.85-9.38-4.85s-6.87,1.16-7.96,3.47c.61,1.43.92,2.62.92,3.57s-.41,1.97-1.22,3.06c-.82,1.09-1.82,1.63-3.01,1.63s-2.13-.51-2.81-1.53c-.68-1.02-1.02-2.21-1.02-3.57,0-2.86,1.41-5.35,4.23-7.5,2.82-2.14,6.31-3.21,10.45-3.21Zm-12.04,33.56c0,3.74,1.26,6.87,3.77,9.38,2.51,2.52,5.52,3.77,9.03,3.77s6.44-1.21,8.82-3.62c2.38-2.41,3.57-5.36,3.57-8.82v-.92c0-3.67-1.22-6.7-3.67-9.08-2.45-2.38-5.46-3.57-9.03-3.57s-6.55,1.21-8.92,3.62c-2.38,2.42-3.57,5.49-3.57,9.23Z"/>
      <path class="cls-1" d="m242.23,148.49v39.07h1.94c.82,0,1.44.26,1.89.77.44.51.66,1.14.66,1.89,0,1.77-.85,2.65-2.55,2.65h-9.69c-1.77,0-2.65-.88-2.65-2.65s.88-2.65,2.65-2.65h2.04v-38.35h-2.04c-.88,0-1.57-.27-2.04-.82-.48-.54-.71-1.17-.71-1.89s.24-1.33.71-1.84c.47-.51,1.16-.76,2.04-.76h18.87c3.47,0,6.08.73,7.85,2.19,1.77,1.46,2.65,3.32,2.65,5.56,0,1.16-.27,2.19-.82,3.11-.54.92-1.43,1.38-2.65,1.38s-2.33-.56-3.31-1.68c-.99-1.12-1.5-2.31-1.53-3.57-.04-1.26.02-2.06.15-2.4h-13.46Z"/>
      <path class="cls-1" d="m304.65,187.56h4.79c.61,0,1.12.27,1.53.82.41.54.61,1.16.61,1.84s-.2,1.29-.61,1.84c-.41.54-.92.82-1.53.82h-8.57c-1.29,0-1.94-.68-1.94-2.04v-5.81c-1.5,2.38-3.5,4.33-6.02,5.87-2.52,1.53-5.24,2.29-8.16,2.29-5.65,0-10.12-2.26-13.41-6.78-3.3-4.52-4.95-10.4-4.95-17.65s1.67-13.26,5-18.05c3.33-4.79,7.82-7.19,13.46-7.19,3.06,0,5.85.71,8.36,2.14,2.51,1.43,4.42,3.33,5.71,5.71v-18.26h-4.79c-1.63,0-2.45-.88-2.45-2.65s.82-2.65,2.45-2.65h7.85c.95,0,1.63.19,2.04.56.41.38.61,1.07.61,2.09v57.12Zm-29.27-5c2.24,3.94,5.57,5.92,10,5.92s7.85-1.73,10.3-5.2c2.45-3.47,3.67-8.23,3.67-14.28s-1.17-11.05-3.52-14.99c-2.35-3.94-5.73-5.92-10.15-5.92-3.26,0-5.95,1.19-8.06,3.57-3.74,4.01-5.61,9.72-5.61,17.14,0,5.24,1.12,9.83,3.37,13.77Z"/>
      <path class="cls-1" d="m340.15,168.23c0-7.31,2.09-13.33,6.27-18.05,4.18-4.73,9.83-7.09,16.93-7.09s12.75,2.35,16.93,7.04,6.27,10.69,6.27,18-2.08,13.36-6.22,18.16c-4.15,4.79-9.84,7.19-17.08,7.19s-12.9-2.38-16.98-7.14c-4.08-4.76-6.12-10.79-6.12-18.1Zm10.71,14.53c3.33,3.95,7.48,5.92,12.44,5.92s9.13-1.95,12.5-5.86c3.37-3.91,5.05-8.75,5.05-14.54s-1.7-10.62-5.1-14.54c-3.4-3.91-7.55-5.87-12.44-5.87s-9.03,1.94-12.39,5.81-5.05,8.71-5.05,14.48,1.67,10.64,5,14.59Z"/>
      <path class="cls-1" d="m400.17,132.58c2.28-2.79,4.85-4.18,7.7-4.18s5.01.66,6.48,1.99c1.46,1.33,2.19,2.67,2.19,4.03s-.34,2.36-1.02,3.01c-.68.65-1.63.97-2.86.97s-2.36-.63-3.42-1.89c-1.06-1.26-1.68-2.57-1.89-3.93-1.56.14-2.89,1.38-3.98,3.72-1.09,2.35-1.7,5.02-1.84,8.01h5.2c.68,0,1.22.24,1.63.71.41.48.61,1.04.61,1.68s-.22,1.21-.66,1.68c-.44.48-.97.71-1.58.71h-4.9v38.45h3.26c.61,0,1.16.27,1.63.82.48.54.71,1.16.71,1.84s-.22,1.29-.66,1.84c-.44.54-1,.82-1.68.82h-11.83c-1.77,0-2.65-.92-2.65-2.75,0-.68.22-1.28.66-1.79.44-.51,1.1-.77,1.99-.77h2.86v-38.45h-3.37c-.68,0-1.21-.24-1.58-.71-.37-.47-.56-1.02-.56-1.63,0-1.63.71-2.45,2.14-2.45h3.67c.2-5.03,1.44-8.94,3.72-11.73Z"/>
      <path class="cls-1" d="m496.61,160.27c0,10.51-2.55,18.73-7.65,24.68-5.1,5.95-11.41,8.92-18.92,8.92s-13.81-3.02-18.87-9.08c-5.07-6.05-7.6-14.31-7.6-24.79s2.55-18.63,7.65-24.48c5.1-5.85,11.41-8.77,18.92-8.77s13.8,2.96,18.87,8.87c5.06,5.92,7.6,14.13,7.6,24.63Zm-8.31-13.16c-1.53-4.32-3.89-7.97-7.09-10.96-3.2-2.99-6.92-4.49-11.17-4.49s-7.97,1.39-11.17,4.18c-3.2,2.79-5.56,6.27-7.09,10.46-1.53,4.18-2.3,8.62-2.3,13.31,0,7.21,1.9,13.91,5.71,20.09,3.81,6.19,8.81,9.28,14.99,9.28s11.13-2.89,14.84-8.67c3.71-5.78,5.56-12.34,5.56-19.69,0-4.69-.76-9.2-2.29-13.51Z"/>
      <path class="cls-1" d="m502.32,192.86c-.95,0-1.72-.25-2.29-.77-.58-.51-.87-1.1-.87-1.78s.2-1.33.61-1.94l24.89-39.88h-17.03c-.95,0-1.77.2-2.45.61-.68.41-1.09.92-1.22,1.53,1.56.2,2.97.77,4.23,1.68,1.26.92,1.89,1.99,1.89,3.21s-.32,2.09-.97,2.6c-.65.51-1.38.77-2.19.77-1.9,0-3.55-.78-4.95-2.35-1.39-1.56-2.09-3.37-2.09-5.41s.77-3.76,2.29-5.15c1.53-1.39,3.35-2.09,5.46-2.09h20.81c2.18,0,3.26.75,3.26,2.24,0,.68-.24,1.36-.71,2.04l-23.15,37.54c2.31-1.43,4.66-2.14,7.04-2.14s5,1.36,7.85,4.08c1.5,1.5,2.7,2.24,3.62,2.24s1.44-.48,1.58-1.43c-.68-.54-1.28-1.39-1.79-2.55-.51-1.16-.77-2.21-.77-3.16s.31-1.87.92-2.75c.61-.88,1.55-1.33,2.81-1.33s2.43.68,3.52,2.04c1.09,1.36,1.63,3.21,1.63,5.56s-.9,4.2-2.7,5.56c-1.8,1.36-3.74,2.04-5.81,2.04s-4.54-.88-7.4-2.65c-2.86-1.77-5.27-2.65-7.24-2.65s-3.91.92-5.81,2.75l-1.73,1.53h-1.22Z"/>
    </g>
  </g>
</svg>