<svg width="1441" height="67" viewBox="0 0 1441 67" fill="none" xmlns="http://www.w3.org/2000/svg">
<rect x="-23.4143" y="34.4707" width="45.7149" height="30.565" rx="9" fill="#DAD9D3" fill-opacity="0.46" stroke="black" stroke-width="2"/>
<rect x="52.1638" y="34.4707" width="45.7149" height="30.565" rx="9" fill="#DAD9D3" fill-opacity="0.46" stroke="black" stroke-width="2"/>
<rect x="127.164" y="34.4707" width="45.7149" height="30.565" rx="9" fill="#DAD9D3" fill-opacity="0.46" stroke="black" stroke-width="2"/>
<rect x="202.164" y="34.4707" width="45.7149" height="30.565" rx="9" fill="#DAD9D3" fill-opacity="0.46" stroke="black" stroke-width="2"/>
<rect x="277.164" y="34.4707" width="45.7149" height="30.565" rx="9" fill="#DAD9D3" fill-opacity="0.46" stroke="black" stroke-width="2"/>
<rect x="352.164" y="34.4707" width="45.7149" height="30.565" rx="9" fill="#DAD9D3" fill-opacity="0.46" stroke="black" stroke-width="2"/>
<rect x="427.164" y="34.4707" width="45.7149" height="30.565" rx="9" fill="#DAD9D3" fill-opacity="0.46" stroke="black" stroke-width="2"/>
<rect x="502.164" y="34.4707" width="45.7149" height="30.565" rx="9" fill="#DAD9D3" fill-opacity="0.46" stroke="black" stroke-width="2"/>
<rect x="577.164" y="34.4707" width="45.7149" height="30.565" rx="9" fill="#DAD9D3" fill-opacity="0.46" stroke="black" stroke-width="2"/>
<rect x="652.164" y="34.4707" width="45.7149" height="30.565" rx="9" fill="#DAD9D3" fill-opacity="0.46" stroke="black" stroke-width="2"/>
<rect x="727.164" y="34.4707" width="45.7149" height="30.565" rx="9" fill="#DAD9D3" fill-opacity="0.46" stroke="black" stroke-width="2"/>
<rect x="802.164" y="34.4707" width="45.7149" height="30.565" rx="9" fill="#DAD9D3" fill-opacity="0.46" stroke="black" stroke-width="2"/>
<rect x="877.164" y="34.4707" width="45.7149" height="30.565" rx="9" fill="#DAD9D3" fill-opacity="0.46" stroke="black" stroke-width="2"/>
<rect x="952.164" y="34.4707" width="45.7149" height="30.565" rx="9" fill="#DAD9D3" fill-opacity="0.46" stroke="black" stroke-width="2"/>
<rect x="1027.16" y="34.4707" width="45.7149" height="30.565" rx="9" fill="#DAD9D3" fill-opacity="0.46" stroke="black" stroke-width="2"/>
<rect x="1102.16" y="34.4707" width="45.7149" height="30.565" rx="9" fill="#DAD9D3" fill-opacity="0.46" stroke="black" stroke-width="2"/>
<rect x="1177.16" y="34.4707" width="45.7149" height="30.565" rx="9" fill="#DAD9D3" fill-opacity="0.46" stroke="black" stroke-width="2"/>
<rect x="1252.16" y="34.4707" width="45.7149" height="30.565" rx="9" fill="#DAD9D3" fill-opacity="0.46" stroke="black" stroke-width="2"/>
<rect x="1327.16" y="34.4707" width="45.7149" height="30.565" rx="9" fill="#DAD9D3" fill-opacity="0.46" stroke="black" stroke-width="2"/>
<rect x="1403.87" y="34.4707" width="45.7149" height="30.565" rx="9" fill="#DAD9D3" fill-opacity="0.46" stroke="black" stroke-width="2"/>
<rect x="89.6636" y="27.3037" width="45.7149" height="30.565" rx="9" fill="#DAD9D3" fill-opacity="0.46" stroke="black" stroke-width="2"/>
<rect x="14.0857" y="27.3037" width="45.7149" height="30.565" rx="9" fill="#DAD9D3" fill-opacity="0.46" stroke="black" stroke-width="2"/>
<rect x="164.664" y="27.3037" width="45.7149" height="30.565" rx="9" fill="#DAD9D3" fill-opacity="0.46" stroke="black" stroke-width="2"/>
<rect x="239.664" y="27.3037" width="45.7149" height="30.565" rx="9" fill="#DAD9D3" fill-opacity="0.46" stroke="black" stroke-width="2"/>
<rect x="314.664" y="27.3037" width="45.7149" height="30.565" rx="9" fill="#DAD9D3" fill-opacity="0.46" stroke="black" stroke-width="2"/>
<rect x="389.664" y="27.3037" width="45.7149" height="30.565" rx="9" fill="#DAD9D3" fill-opacity="0.46" stroke="black" stroke-width="2"/>
<rect x="464.664" y="27.3037" width="45.7149" height="30.565" rx="9" fill="#DAD9D3" fill-opacity="0.46" stroke="black" stroke-width="2"/>
<rect x="539.664" y="27.3037" width="45.7149" height="30.565" rx="9" fill="#DAD9D3" fill-opacity="0.46" stroke="black" stroke-width="2"/>
<rect x="614.664" y="27.3037" width="45.7149" height="30.565" rx="9" fill="#DAD9D3" fill-opacity="0.46" stroke="black" stroke-width="2"/>
<rect x="689.664" y="27.3037" width="45.7149" height="30.565" rx="9" fill="#DAD9D3" fill-opacity="0.46" stroke="black" stroke-width="2"/>
<rect x="764.664" y="27.3037" width="45.7149" height="30.565" rx="9" fill="#DAD9D3" fill-opacity="0.46" stroke="black" stroke-width="2"/>
<rect x="839.664" y="27.3037" width="45.7149" height="30.565" rx="9" fill="#DAD9D3" fill-opacity="0.46" stroke="black" stroke-width="2"/>
<rect x="914.664" y="27.3037" width="45.7149" height="30.565" rx="9" fill="#DAD9D3" fill-opacity="0.46" stroke="black" stroke-width="2"/>
<rect x="989.664" y="27.3037" width="45.7149" height="30.565" rx="9" fill="#DAD9D3" fill-opacity="0.46" stroke="black" stroke-width="2"/>
<rect x="1064.66" y="27.3037" width="45.7149" height="30.565" rx="9" fill="#DAD9D3" fill-opacity="0.46" stroke="black" stroke-width="2"/>
<rect x="1139.66" y="27.3037" width="45.7149" height="30.565" rx="9" fill="#DAD9D3" fill-opacity="0.46" stroke="black" stroke-width="2"/>
<rect x="1214.66" y="27.3037" width="45.7149" height="30.565" rx="9" fill="#DAD9D3" fill-opacity="0.46" stroke="black" stroke-width="2"/>
<rect x="1289.66" y="27.3037" width="45.7149" height="30.565" rx="9" fill="#DAD9D3" fill-opacity="0.46" stroke="black" stroke-width="2"/>
<rect x="1366.37" y="27.3037" width="45.7149" height="30.565" rx="9" fill="#DAD9D3" fill-opacity="0.46" stroke="black" stroke-width="2"/>
<rect x="-8.39783" y="24.3638" width="45.7149" height="30.565" rx="9" fill="#EDECEA" fill-opacity="0.84" stroke="black" stroke-width="2"/>
<rect x="67.1802" y="24.3638" width="45.7149" height="30.565" rx="9" fill="#EDECEA" fill-opacity="0.84" stroke="black" stroke-width="2"/>
<rect x="142.18" y="24.3638" width="45.7149" height="30.565" rx="9" fill="#EDECEA" fill-opacity="0.84" stroke="black" stroke-width="2"/>
<rect x="217.18" y="24.3638" width="45.7149" height="30.565" rx="9" fill="#EDECEA" fill-opacity="0.84" stroke="black" stroke-width="2"/>
<rect x="292.18" y="24.3638" width="45.7149" height="30.565" rx="9" fill="#EDECEA" fill-opacity="0.84" stroke="black" stroke-width="2"/>
<rect x="367.18" y="24.3638" width="45.7149" height="30.565" rx="9" fill="#EDECEA" fill-opacity="0.84" stroke="black" stroke-width="2"/>
<rect x="442.18" y="24.3638" width="45.7149" height="30.565" rx="9" fill="#EDECEA" fill-opacity="0.84" stroke="black" stroke-width="2"/>
<rect x="517.18" y="24.3638" width="45.7149" height="30.565" rx="9" fill="#EDECEA" fill-opacity="0.84" stroke="black" stroke-width="2"/>
<rect x="592.18" y="24.3638" width="45.7149" height="30.565" rx="9" fill="#EDECEA" fill-opacity="0.84" stroke="black" stroke-width="2"/>
<rect x="667.18" y="24.3638" width="45.7149" height="30.565" rx="9" fill="#EDECEA" fill-opacity="0.84" stroke="black" stroke-width="2"/>
<rect x="742.18" y="24.3638" width="45.7149" height="30.565" rx="9" fill="#EDECEA" fill-opacity="0.84" stroke="black" stroke-width="2"/>
<rect x="817.18" y="24.3638" width="45.7149" height="30.565" rx="9" fill="#EDECEA" fill-opacity="0.84" stroke="black" stroke-width="2"/>
<rect x="892.18" y="24.3638" width="45.7149" height="30.565" rx="9" fill="#EDECEA" fill-opacity="0.84" stroke="black" stroke-width="2"/>
<rect x="967.18" y="24.3638" width="45.7149" height="30.565" rx="9" fill="#EDECEA" fill-opacity="0.84" stroke="black" stroke-width="2"/>
<rect x="1042.18" y="24.3638" width="45.7149" height="30.565" rx="9" fill="#EDECEA" fill-opacity="0.84" stroke="black" stroke-width="2"/>
<rect x="1117.18" y="24.3638" width="45.7149" height="30.565" rx="9" fill="#EDECEA" fill-opacity="0.84" stroke="black" stroke-width="2"/>
<rect x="1192.18" y="24.3638" width="45.7149" height="30.565" rx="9" fill="#EDECEA" fill-opacity="0.84" stroke="black" stroke-width="2"/>
<rect x="1267.18" y="24.3638" width="45.7149" height="30.565" rx="9" fill="#EDECEA" fill-opacity="0.84" stroke="black" stroke-width="2"/>
<rect x="1342.18" y="24.3638" width="45.7149" height="30.565" rx="9" fill="#EDECEA" fill-opacity="0.84" stroke="black" stroke-width="2"/>
<rect x="1418.89" y="24.3638" width="45.7149" height="30.565" rx="9" fill="#EDECEA" fill-opacity="0.84" stroke="black" stroke-width="2"/>
<rect x="104.68" y="17.1968" width="45.7149" height="30.565" rx="9" fill="#EDECEA" fill-opacity="0.84" stroke="black" stroke-width="2"/>
<rect x="29.1021" y="17.1968" width="45.7149" height="30.565" rx="9" fill="#EDECEA" fill-opacity="0.84" stroke="black" stroke-width="2"/>
<rect x="179.68" y="17.1968" width="45.7149" height="30.565" rx="9" fill="#EDECEA" fill-opacity="0.84" stroke="black" stroke-width="2"/>
<rect x="254.68" y="17.1968" width="45.7149" height="30.565" rx="9" fill="#EDECEA" fill-opacity="0.84" stroke="black" stroke-width="2"/>
<rect x="329.68" y="17.1968" width="45.7149" height="30.565" rx="9" fill="#EDECEA" fill-opacity="0.84" stroke="black" stroke-width="2"/>
<rect x="404.68" y="17.1968" width="45.7149" height="30.565" rx="9" fill="#EDECEA" fill-opacity="0.84" stroke="black" stroke-width="2"/>
<rect x="479.68" y="17.1968" width="45.7149" height="30.565" rx="9" fill="#EDECEA" fill-opacity="0.84" stroke="black" stroke-width="2"/>
<rect x="554.68" y="17.1968" width="45.7149" height="30.565" rx="9" fill="#EDECEA" fill-opacity="0.84" stroke="black" stroke-width="2"/>
<rect x="629.68" y="17.1968" width="45.7149" height="30.565" rx="9" fill="#EDECEA" fill-opacity="0.84" stroke="black" stroke-width="2"/>
<rect x="704.68" y="17.1968" width="45.7149" height="30.565" rx="9" fill="#EDECEA" fill-opacity="0.84" stroke="black" stroke-width="2"/>
<rect x="779.68" y="17.1968" width="45.7149" height="30.565" rx="9" fill="#EDECEA" fill-opacity="0.84" stroke="black" stroke-width="2"/>
<rect x="854.68" y="17.1968" width="45.7149" height="30.565" rx="9" fill="#EDECEA" fill-opacity="0.84" stroke="black" stroke-width="2"/>
<rect x="929.68" y="17.1968" width="45.7149" height="30.565" rx="9" fill="#EDECEA" fill-opacity="0.84" stroke="black" stroke-width="2"/>
<rect x="1004.68" y="17.1968" width="45.7149" height="30.565" rx="9" fill="#EDECEA" fill-opacity="0.84" stroke="black" stroke-width="2"/>
<rect x="1079.68" y="17.1968" width="45.7149" height="30.565" rx="9" fill="#EDECEA" fill-opacity="0.84" stroke="black" stroke-width="2"/>
<rect x="1154.68" y="17.1968" width="45.7149" height="30.565" rx="9" fill="#EDECEA" fill-opacity="0.84" stroke="black" stroke-width="2"/>
<rect x="1229.68" y="17.1968" width="45.7149" height="30.565" rx="9" fill="#EDECEA" fill-opacity="0.84" stroke="black" stroke-width="2"/>
<rect x="1304.68" y="17.1968" width="45.7149" height="30.565" rx="9" fill="#EDECEA" fill-opacity="0.84" stroke="black" stroke-width="2"/>
<rect x="1381.39" y="17.1968" width="45.7149" height="30.565" rx="9" fill="#EDECEA" fill-opacity="0.84" stroke="black" stroke-width="2"/>
<rect x="-14.1691" y="9.15381" width="45.7149" height="30.565" rx="9" fill="white" stroke="black" stroke-width="2"/>
<rect x="61.4089" y="9.15381" width="45.7149" height="30.565" rx="9" fill="white" stroke="black" stroke-width="2"/>
<rect x="136.409" y="9.15381" width="45.7149" height="30.565" rx="9" fill="white" stroke="black" stroke-width="2"/>
<rect x="211.409" y="9.15381" width="45.7149" height="30.565" rx="9" fill="white" stroke="black" stroke-width="2"/>
<rect x="286.409" y="9.15381" width="45.7149" height="30.565" rx="9" fill="white" stroke="black" stroke-width="2"/>
<rect x="361.409" y="9.15381" width="45.7149" height="30.565" rx="9" fill="white" stroke="black" stroke-width="2"/>
<rect x="436.409" y="9.15381" width="45.7149" height="30.565" rx="9" fill="white" stroke="black" stroke-width="2"/>
<rect x="511.409" y="9.15381" width="45.7149" height="30.565" rx="9" fill="white" stroke="black" stroke-width="2"/>
<rect x="586.409" y="9.15381" width="45.7149" height="30.565" rx="9" fill="white" stroke="black" stroke-width="2"/>
<rect x="661.409" y="9.15381" width="45.7149" height="30.565" rx="9" fill="white" stroke="black" stroke-width="2"/>
<rect x="736.409" y="9.15381" width="45.7149" height="30.565" rx="9" fill="white" stroke="black" stroke-width="2"/>
<rect x="811.409" y="9.15381" width="45.7149" height="30.565" rx="9" fill="white" stroke="black" stroke-width="2"/>
<rect x="886.409" y="9.15381" width="45.7149" height="30.565" rx="9" fill="white" stroke="black" stroke-width="2"/>
<rect x="961.409" y="9.15381" width="45.7149" height="30.565" rx="9" fill="white" stroke="black" stroke-width="2"/>
<rect x="1036.41" y="9.15381" width="45.7149" height="30.565" rx="9" fill="white" stroke="black" stroke-width="2"/>
<rect x="1111.41" y="9.15381" width="45.7149" height="30.565" rx="9" fill="white" stroke="black" stroke-width="2"/>
<rect x="1186.41" y="9.15381" width="45.7149" height="30.565" rx="9" fill="white" stroke="black" stroke-width="2"/>
<rect x="1261.41" y="9.15381" width="45.7149" height="30.565" rx="9" fill="white" stroke="black" stroke-width="2"/>
<rect x="1336.41" y="9.15381" width="45.7149" height="30.565" rx="9" fill="white" stroke="black" stroke-width="2"/>
<rect x="1413.12" y="9.15381" width="45.7149" height="30.565" rx="9" fill="white" stroke="black" stroke-width="2"/>
<rect x="98.9089" y="1.98682" width="45.7149" height="30.565" rx="9" fill="white" stroke="black" stroke-width="2"/>
<rect x="23.3311" y="1.98682" width="45.7149" height="30.565" rx="9" fill="white" stroke="black" stroke-width="2"/>
<rect x="173.909" y="1.98682" width="45.7149" height="30.565" rx="9" fill="white" stroke="black" stroke-width="2"/>
<rect x="248.909" y="1.98682" width="45.7149" height="30.565" rx="9" fill="white" stroke="black" stroke-width="2"/>
<rect x="323.909" y="1.98682" width="45.7149" height="30.565" rx="9" fill="white" stroke="black" stroke-width="2"/>
<rect x="398.909" y="1.98682" width="45.7149" height="30.565" rx="9" fill="white" stroke="black" stroke-width="2"/>
<rect x="473.909" y="1.98682" width="45.7149" height="30.565" rx="9" fill="white" stroke="black" stroke-width="2"/>
<rect x="548.909" y="1.98682" width="45.7149" height="30.565" rx="9" fill="white" stroke="black" stroke-width="2"/>
<rect x="623.909" y="1.98682" width="45.7149" height="30.565" rx="9" fill="white" stroke="black" stroke-width="2"/>
<rect x="698.909" y="1.98682" width="45.7149" height="30.565" rx="9" fill="white" stroke="black" stroke-width="2"/>
<rect x="773.909" y="1.98682" width="45.7149" height="30.565" rx="9" fill="white" stroke="black" stroke-width="2"/>
<rect x="848.909" y="1.98682" width="45.7149" height="30.565" rx="9" fill="white" stroke="black" stroke-width="2"/>
<rect x="923.909" y="1.98682" width="45.7149" height="30.565" rx="9" fill="white" stroke="black" stroke-width="2"/>
<rect x="998.909" y="1.98682" width="45.7149" height="30.565" rx="9" fill="white" stroke="black" stroke-width="2"/>
<rect x="1073.91" y="1.98682" width="45.7149" height="30.565" rx="9" fill="white" stroke="black" stroke-width="2"/>
<rect x="1148.91" y="1.98682" width="45.7149" height="30.565" rx="9" fill="white" stroke="black" stroke-width="2"/>
<rect x="1223.91" y="1.98682" width="45.7149" height="30.565" rx="9" fill="white" stroke="black" stroke-width="2"/>
<rect x="1298.91" y="1.98682" width="45.7149" height="30.565" rx="9" fill="white" stroke="black" stroke-width="2"/>
<rect x="1375.62" y="1.98682" width="45.7149" height="30.565" rx="9" fill="white" stroke="black" stroke-width="2"/>
</svg>
