<?xml version="1.0" encoding="UTF-8"?>
<svg id="Layer_2" data-name="Layer 2" xmlns="http://www.w3.org/2000/svg" viewBox="0 0 204 234.41">
  <defs>
    <style>
      .cls-1 {
        fill: #fff;
      }

      .cls-2 {
        fill: #ecf6ed;
      }

      .cls-3 {
        fill: #e41d32;
      }
    </style>
  </defs>
  <g id="Layer_1-2" data-name="Layer 1">
    <path class="cls-2" d="m155.97,197.2L4.14,232.68c-1.44.21-2.61-.99-2.61-2.68V40.41c0-1.7,1.17-3.24,2.61-3.46L155.97,1.47c1.44-.21,2.61.99,2.61,2.68v189.58c0,1.7-1.17,3.24-2.61,3.46Z"/>
    <path class="cls-1" d="m3.81,234.15c-.85,0-1.65-.3-2.31-.87-.9-.77-1.41-1.97-1.41-3.29V40.41c0-2.4,1.65-4.52,3.77-4.88L155.7.05h.06c1.04-.16,2.06.13,2.85.81.9.77,1.41,1.97,1.41,3.29v189.58c0,2.4-1.65,4.52-3.78,4.88L4.41,234.1h-.06c-.18.04-.36.05-.54.05ZM156.23,2.89L4.41,38.38h-.06c-.65.1-1.37.96-1.37,2.04v189.58c0,.47.15.88.41,1.1.14.12.31.18.5.16l151.82-35.48h.06c.65-.1,1.38-.99,1.38-2.04V4.16c0-.47-.15-.88-.41-1.1-.15-.12-.31-.18-.5-.16Z"/>
    <path class="cls-2" d="m188.24,208.68L4.68,232.88c-1.74.11-3.15-1.18-3.15-2.88V40.41c0-1.7,1.41-3.16,3.15-3.26L188.24,12.96c1.74-.11,3.15,1.18,3.15,2.88v189.58c0,1.7-1.41,3.16-3.15,3.26Z"/>
    <path class="cls-1" d="m4.48,234.41c-1.17,0-2.27-.43-3.11-1.21-.89-.83-1.37-1.97-1.37-3.2V40.41c0-2.47,2.03-4.6,4.53-4.79L188.09,11.43h.05c1.29-.08,2.49.35,3.4,1.2.89.83,1.37,1.97,1.37,3.2v189.58c0,2.47-2.03,4.6-4.53,4.79L4.83,234.4h-.05c-.1,0-.2.01-.3.01ZM188.38,14.48L4.83,38.68h-.05c-.93.06-1.71.85-1.71,1.74v189.58c0,.38.15.72.41.97.28.26.67.39,1.07.38l183.55-24.19h.05c.93-.06,1.71-.85,1.71-1.74V15.84c0-.48-.22-.79-.41-.97-.28-.26-.65-.4-1.07-.38Z"/>
    <path class="cls-2" d="m199.32,221.02L4.68,232.88c-1.74.11-3.15-1.18-3.15-2.88V40.41c0-1.7,1.41-3.16,3.15-3.26l194.63-11.85c1.74-.11,3.15,1.18,3.15,2.88v189.58c0,1.7-1.41,3.16-3.15,3.26Z"/>
    <path class="cls-1" d="m4.48,234.41c-1.17,0-2.27-.43-3.11-1.21-.89-.83-1.37-1.97-1.37-3.2V40.41c0-2.49,2.06-4.64,4.59-4.79l194.63-11.85c1.29-.08,2.49.35,3.4,1.21.89.83,1.37,1.97,1.37,3.2v189.58c0,2.49-2.06,4.64-4.59,4.79L4.78,234.4c-.1,0-.2,0-.3,0ZM199.51,26.82s-.07,0-.1,0L4.78,38.68c-.93.06-1.71.85-1.71,1.73v189.58c0,.38.15.72.41.97.29.27.69.4,1.12.38l194.63-11.85c.93-.06,1.72-.85,1.72-1.73V28.18c0-.48-.22-.79-.41-.97-.26-.25-.62-.38-1.01-.38Z"/>
    <path class="cls-3" d="m29.82,96.92c-1.33.1-1.9-.45-1.85-1.79l1.32-34.75c.05-1.34.66-1.97,1.99-2.07l24.74-1.84c1.33-.1,1.9.45,1.85,1.79l-.24,6.27c-.05,1.34-.66,1.97-1.99,2.07l-14.72,1.09-.16,4.13,10.4-.77c1.33-.1,1.9.45,1.85,1.79l-.22,5.74c-.05,1.34-.66,1.97-1.99,2.07l-10.4.77-.17,4.61,14.72-1.09c1.33-.1,1.9.45,1.85,1.79l-.24,6.27c-.05,1.34-.66,1.97-1.99,2.07l-24.74,1.84Z"/>
    <path class="cls-3" d="m64.7,94.33c-1.33.1-1.9-.45-1.85-1.79l1.32-34.75c.05-1.34.66-1.97,1.99-2.07l17.76-1.32c8-.59,10.37,2.87,10.17,8.18l-.09,2.47c-.11,3-.94,5.2-3.22,6.34,3.88.14,6.33,2.79,6.16,7.3l-.43,11.37c-.05,1.34-.66,1.97-1.99,2.07l-8.27.61c-1.33.1-1.9-.45-1.85-1.79l.31-8.2c.06-1.61-.45-2.27-1.94-2.16l-7.47.55-.4,10.51c-.05,1.34-.66,1.97-1.99,2.07l-8.21.61Zm10.97-22.85l4-.3c1.87-.14,2.39-1.25,2.44-2.69l.07-1.82c.06-1.45-.38-2.48-2.25-2.35l-4,.3-.26,6.86Z"/>
    <path d="m87.32,101.93c1.3-.21,1.91.26,1.97,1.56l1.03,20.15c.11,2.23.2,3.9-.61,6.59l-2.25,7.49c-.31,1.1-.9,2.03-1.99,2.21l-6.94,1.13c-1.15.19-2.11-.13-2.48-1.17l-2.83-8.07c-.24-.64-.57-.8-.98-.73l-.47.08c-.42.07-.72.33-.89,1.04l-2.02,8.87c-.26,1.09-1.02,1.74-2.11,1.92l-6.89,1.12c-1.15.19-1.97-.46-2.39-1.49l-2.97-6.74c-1.07-2.39-1.15-4.05-1.27-6.29l-1.02-20.05c-.07-1.3.48-1.96,1.78-2.18l8.03-1.31c1.3-.21,1.91.26,1.97,1.56l.97,19.11,2.69-7.04c.51-1.29,1.33-1.84,2.68-2.06l2.19-.36c1.36-.22,2.21.06,2.85,1.16l3.36,6.05-.97-19.11c-.07-1.3.43-1.96,1.78-2.18l7.77-1.27Z"/>
    <path d="m106.59,136.49l-7.67,1.25c-1.3.21-1.91-.26-1.97-1.56l-.7-13.71c-.11-2.08.39-4.78,1.61-8.64l3.94-12.53c.36-1.26,1.17-1.92,2.57-2.15l14.03-2.29c1.36-.22,2.22.16,2.7,1.29l5.14,11.05c1.59,3.41,2.35,5.9,2.46,7.98l.7,13.71c.07,1.3-.48,1.96-1.78,2.18l-7.88,1.29c-1.41.23-2.06-.24-2.13-1.54l-.37-7.27-9.23,1.51.37,7.27c.07,1.3-.48,1.96-1.78,2.18Zm1.45-18.99l8.19-1.34-2.85-7.5c-.29-.58-.62-.79-1.04-.72l-1.3.21c-.42.07-.72.38-.95,1.05l-2.05,8.29Z"/>
    <path d="m136.85,131.55c-1.3.21-1.91-.26-1.97-1.56l-.31-6.08c-.07-1.3.48-1.96,1.78-2.18l14.03-2.29c.89-.14,1.32-.9,1.28-1.73-.06-1.19-.55-1.58-1.45-1.54l-7.88.19c-4.94.07-8.23-1.49-8.53-7.3l-.28-5.45c-.3-5.92,3.55-9.8,10.33-10.9l14.61-2.38c1.3-.21,1.91.26,1.97,1.56l.32,6.18c.07,1.3-.48,1.96-1.78,2.18l-12.15,1.99c-.89.14-1.38.85-1.33,1.79.05.94.6,1.47,1.49,1.43l7.83-.23c4.94-.07,8.28,1.48,8.58,7.29l.28,5.45c.3,5.92-3.6,9.81-10.33,10.9l-16.49,2.69Z"/>
    <path class="cls-3" d="m34.73,190.43c-1.27.09-1.81-.43-1.76-1.7l1.25-33.07c.05-1.28.63-1.88,1.9-1.97l23.55-1.75c1.27-.09,1.81.43,1.76,1.7l-.23,5.97c-.05,1.27-.63,1.88-1.9,1.97l-14.01,1.04-.15,3.93,9.9-.74c1.27-.09,1.8.43,1.76,1.7l-.21,5.46c-.05,1.28-.63,1.88-1.9,1.97l-9.9.74-.17,4.39,14.01-1.04c1.27-.09,1.8.43,1.76,1.7l-.23,5.97c-.05,1.27-.63,1.88-1.9,1.97l-23.55,1.75Z"/>
    <path class="cls-3" d="m67.91,187.97c-1.27.09-1.81-.43-1.76-1.7l1.25-33.07c.05-1.28.63-1.88,1.9-1.97l23.55-1.75c1.27-.09,1.81.43,1.76,1.7l-.23,5.97c-.05,1.28-.63,1.88-1.9,1.97l-14.01,1.04-.15,3.93,9.9-.74c1.27-.09,1.8.43,1.76,1.7l-.21,5.46c-.05,1.28-.63,1.88-1.9,1.97l-9.9.74-.17,4.39,14.01-1.04c1.27-.09,1.8.43,1.76,1.7l-.23,5.97c-.05,1.27-.63,1.88-1.9,1.97l-23.55,1.75Z"/>
    <path class="cls-3" d="m101.1,185.5c-1.27.1-1.81-.43-1.76-1.7l1.25-33.07c.05-1.28.63-1.88,1.9-1.97l5.28-.39c1.32-.1,2.12.2,2.94,1.15l9.42,10.6.41-10.87c.05-1.28.63-1.88,1.9-1.97l7.61-.57c1.27-.09,1.81.43,1.76,1.7l-1.25,33.07c-.05,1.28-.63,1.88-1.9,1.97l-7.61.57c-1.27.09-1.8-.43-1.76-1.7l.24-6.28-8.28-9.92-.64,16.84c-.05,1.28-.63,1.88-1.9,1.97l-7.61.57Z"/>
    <path class="cls-3" d="m138.39,182.73c-1.27.09-1.81-.43-1.76-1.7l.23-5.97c.05-1.28.63-1.88,1.9-1.97l13.65-1.01c.86-.06,1.34-.76,1.37-1.58.04-1.17-.39-1.6-1.25-1.64l-7.57-.51c-4.74-.36-7.76-2.17-7.54-7.89l.2-5.36c.22-5.82,4.25-9.27,10.84-9.76l14.21-1.06c1.27-.09,1.8.43,1.76,1.7l-.23,6.07c-.05,1.28-.63,1.88-1.9,1.97l-11.82.88c-.86.06-1.39.71-1.43,1.63-.03.92.45,1.49,1.31,1.53l7.52.46c4.74.36,7.81,2.17,7.59,7.88l-.2,5.36c-.22,5.82-4.3,9.27-10.84,9.76l-16.03,1.19Z"/>
    <path d="m129.05,208.78c-1.28.26-1.9-.19-2.01-1.46l-.92-10.33c-.12-1.32.4-1.95,1.69-2.21l10.37-2.08c1.28-.26,1.89.14,2.01,1.46l.92,10.33c.11,1.27-.4,1.95-1.69,2.2l-10.37,2.08Z"/>
    <path d="m148.77,204.82c-1.28.26-1.9-.19-2.01-1.46l-.92-10.33c-.12-1.32.4-1.95,1.68-2.2l10.37-2.08c1.29-.26,1.89.14,2.01,1.46l.92,10.33c.11,1.27-.4,1.95-1.69,2.2l-10.37,2.08Z"/>
    <path d="m168.48,200.86c-1.28.26-1.9-.19-2.01-1.46l-.92-10.33c-.12-1.32.4-1.95,1.68-2.2l10.37-2.08c1.28-.26,1.89.14,2.01,1.46l.92,10.33c.11,1.27-.4,1.95-1.68,2.2l-10.37,2.08Z"/>
  </g>
</svg>