<?xml version="1.0" encoding="UTF-8"?>
<svg id="Layer_2" data-name="Layer 2" xmlns="http://www.w3.org/2000/svg" viewBox="0 0 282.45 278.84">
  <defs>
    <style>
      .cls-1 {
        fill: #ffc229;
      }
    </style>
  </defs>
  <g id="Layer_1-2" data-name="Layer 1">
    <g>
      <path class="cls-1" d="m80.19,202.26l42.74-63.3-44.69-62.01c-.43-.59.31-1.33.9-.9l62.01,44.69,63.3-42.74c.59-.4,1.29.3.9.89l-42.52,63.51,42.17,59.49c.42.59-.31,1.32-.9.9l-59.49-42.17-63.51,42.52c-.59.39-1.29-.31-.89-.9Z"/>
      <path class="cls-1" d="m142.81,278.01l-22.94-118.27L.85,140.42c-1.14-.18-1.14-1.82,0-2.01l119.02-19.32L142.81.82c.21-1.1,1.78-1.1,2,0l23.41,118.27,113.39,19.32c1.13.19,1.13,1.81,0,2l-113.39,19.32-23.41,118.27c-.22,1.09-1.78,1.09-2,0Z"/>
    </g>
  </g>
</svg>